<?xml version="1.0" encoding="us-ascii" standalone="no"?><svg xmlns="http://www.w3.org/2000/svg" xmlns:xlink="http://www.w3.org/1999/xlink" contentStyleType="text/css" height="1082px" preserveAspectRatio="none" style="width:1394px;height:1082px;background:#FFFFFF;" version="1.1" viewBox="0 0 1394 1082" width="1394px" zoomAndPan="magnify"><defs/><g><rect fill="#F5F5F5" height="1070.0234" style="stroke:#181818;stroke-width:0.5;" width="450" x="564" y="6"/><text fill="#000000" font-family="sans-serif" font-size="18" font-weight="bold" lengthAdjust="spacing" textLength="193" x="690" y="22.708">Messenger-Service</text><text fill="#000000" font-family="sans-serif" font-size="13" font-weight="bold" lengthAdjust="spacing" textLength="5" x="883" y="23.8872">&#160;</text><rect fill="#DCDCDC" height="653.5938" style="stroke:#000000;stroke-width:1.0;" width="10" x="237" y="268.1484"/><rect fill="#DCDCDC" height="566.2266" style="stroke:#000000;stroke-width:1.0;" width="10" x="670" y="301.9375"/><rect fill="#DCDCDC" height="333.3125" style="stroke:#000000;stroke-width:1.0;" width="10" x="898" y="501.0625"/><rect fill="#DCDCDC" height="101.3672" style="stroke:#000000;stroke-width:1.0;" width="10" x="1123" y="640.4297"/><rect fill="#FFE4E1" height="54.5469" style="stroke:#000000;stroke-width:1.5;" width="667" x="125" y="413.7266"/><line style="stroke:#000000;stroke-width:0.5;stroke-dasharray:5.0,5.0;" x1="58" x2="58" y1="92.5156" y2="989.7422"/><line style="stroke:#000000;stroke-width:0.5;stroke-dasharray:5.0,5.0;" x1="242" x2="242" y1="92.5156" y2="989.7422"/><line style="stroke:#000000;stroke-width:0.5;stroke-dasharray:5.0,5.0;" x1="675" x2="675" y1="92.5156" y2="989.7422"/><line style="stroke:#000000;stroke-width:0.5;stroke-dasharray:5.0,5.0;" x1="903" x2="903" y1="92.5156" y2="989.7422"/><line style="stroke:#000000;stroke-width:0.5;stroke-dasharray:5.0,5.0;" x1="1128" x2="1128" y1="92.5156" y2="989.7422"/><line style="stroke:#000000;stroke-width:0.5;stroke-dasharray:5.0,5.0;" x1="1337" x2="1337" y1="92.5156" y2="989.7422"/><text fill="#000000" font-family="Aapex" font-size="20" lengthAdjust="spacing" textLength="100" x="5" y="87.7988">Akteur - A</text><ellipse cx="58" cy="17.7344" fill="#DCDCDC" rx="8" ry="8" style="stroke:#000000;stroke-width:0.5;"/><path d="M58,25.7344 L58,52.7344 M45,33.7344 L71,33.7344 M58,52.7344 L45,67.7344 M58,52.7344 L71,67.7344 " fill="none" style="stroke:#000000;stroke-width:0.5;"/><text fill="#000000" font-family="Aapex" font-size="20" lengthAdjust="spacing" textLength="100" x="5" y="1007.3066">Akteur - A</text><ellipse cx="58" cy="1020.5234" fill="#DCDCDC" rx="8" ry="8" style="stroke:#000000;stroke-width:0.5;"/><path d="M58,1028.5234 L58,1055.5234 M45,1036.5234 L71,1036.5234 M58,1055.5234 L45,1070.5234 M58,1055.5234 L71,1070.5234 " fill="none" style="stroke:#000000;stroke-width:0.5;"/><rect fill="#F0F8FF" height="60.5625" rx="2.5" ry="2.5" style="stroke:#000000;stroke-width:0.5;" width="214" x="135" y="30.9531"/><text fill="#000000" font-family="Impact" font-size="20" lengthAdjust="spacing" textLength="139" x="172.5" y="56.5176">TI-Messenger-</text><text fill="#000000" font-family="Impact" font-size="20" lengthAdjust="spacing" textLength="79" x="202.5" y="79.7988">Client A</text><rect fill="#F0F8FF" height="60.5625" rx="2.5" ry="2.5" style="stroke:#000000;stroke-width:0.5;" width="214" x="135" y="988.7422"/><text fill="#000000" font-family="Impact" font-size="20" lengthAdjust="spacing" textLength="139" x="172.5" y="1014.3066">TI-Messenger-</text><text fill="#000000" font-family="Impact" font-size="20" lengthAdjust="spacing" textLength="79" x="202.5" y="1037.5879">Client A</text><rect fill="#EFEFFF" height="60.5625" rx="2.5" ry="2.5" style="stroke:#000000;stroke-width:0.5;" width="214" x="568" y="30.9531"/><text fill="#000000" font-family="Impact" font-size="20" lengthAdjust="spacing" textLength="114" x="618" y="56.5176">Messenger-</text><text fill="#000000" font-family="Impact" font-size="20" lengthAdjust="spacing" textLength="54" x="648" y="79.7988">Proxy</text><rect fill="#EFEFFF" height="60.5625" rx="2.5" ry="2.5" style="stroke:#000000;stroke-width:0.5;" width="214" x="568" y="988.7422"/><text fill="#000000" font-family="Impact" font-size="20" lengthAdjust="spacing" textLength="114" x="618" y="1014.3066">Messenger-</text><text fill="#000000" font-family="Impact" font-size="20" lengthAdjust="spacing" textLength="54" x="648" y="1037.5879">Proxy</text><rect fill="#EFEFFF" height="60.5625" rx="2.5" ry="2.5" style="stroke:#000000;stroke-width:0.5;" width="214" x="796" y="30.9531"/><text fill="#000000" font-family="Impact" font-size="20" lengthAdjust="spacing" textLength="69" x="868.5" y="56.5176">Matrix-</text><text fill="#000000" font-family="Impact" font-size="20" lengthAdjust="spacing" textLength="120" x="843" y="79.7988">Homeserver</text><rect fill="#EFEFFF" height="60.5625" rx="2.5" ry="2.5" style="stroke:#000000;stroke-width:0.5;" width="214" x="796" y="988.7422"/><text fill="#000000" font-family="Impact" font-size="20" lengthAdjust="spacing" textLength="69" x="868.5" y="1014.3066">Matrix-</text><text fill="#000000" font-family="Impact" font-size="20" lengthAdjust="spacing" textLength="120" x="843" y="1037.5879">Homeserver</text><rect fill="#F0F8FF" height="60.5625" rx="2.5" ry="2.5" style="stroke:#000000;stroke-width:0.5;" width="214" x="1021" y="30.9531"/><text fill="#000000" font-family="Impact" font-size="20" lengthAdjust="spacing" textLength="139" x="1058.5" y="56.5176">TI-Messenger-</text><text fill="#000000" font-family="Impact" font-size="20" lengthAdjust="spacing" textLength="79" x="1088.5" y="79.7988">Client B</text><rect fill="#F0F8FF" height="60.5625" rx="2.5" ry="2.5" style="stroke:#000000;stroke-width:0.5;" width="214" x="1021" y="988.7422"/><text fill="#000000" font-family="Impact" font-size="20" lengthAdjust="spacing" textLength="139" x="1058.5" y="1014.3066">TI-Messenger-</text><text fill="#000000" font-family="Impact" font-size="20" lengthAdjust="spacing" textLength="79" x="1088.5" y="1037.5879">Client B</text><text fill="#000000" font-family="Aapex" font-size="20" lengthAdjust="spacing" textLength="100" x="1284" y="87.7988">Akteur - B</text><ellipse cx="1337" cy="17.7344" fill="#DCDCDC" rx="8" ry="8" style="stroke:#000000;stroke-width:0.5;"/><path d="M1337,25.7344 L1337,52.7344 M1324,33.7344 L1350,33.7344 M1337,52.7344 L1324,67.7344 M1337,52.7344 L1350,67.7344 " fill="none" style="stroke:#000000;stroke-width:0.5;"/><text fill="#000000" font-family="Aapex" font-size="20" lengthAdjust="spacing" textLength="100" x="1284" y="1007.3066">Akteur - B</text><ellipse cx="1337" cy="1020.5234" fill="#DCDCDC" rx="8" ry="8" style="stroke:#000000;stroke-width:0.5;"/><path d="M1337,1028.5234 L1337,1055.5234 M1324,1036.5234 L1350,1036.5234 M1337,1055.5234 L1324,1070.5234 M1337,1055.5234 L1350,1070.5234 " fill="none" style="stroke:#000000;stroke-width:0.5;"/><rect fill="#DCDCDC" height="653.5938" style="stroke:#000000;stroke-width:1.0;" width="10" x="237" y="268.1484"/><rect fill="#DCDCDC" height="566.2266" style="stroke:#000000;stroke-width:1.0;" width="10" x="670" y="301.9375"/><rect fill="#DCDCDC" height="333.3125" style="stroke:#000000;stroke-width:1.0;" width="10" x="898" y="501.0625"/><rect fill="#DCDCDC" height="101.3672" style="stroke:#000000;stroke-width:1.0;" width="10" x="1123" y="640.4297"/><path d="M7,132.5156 L7,211.5156 L1387,211.5156 L1387,142.5156 L1377,132.5156 L7,132.5156 " fill="#FEFFDD" style="stroke:#181818;stroke-width:0.5;"/><path d="M1377,132.5156 L1377,142.5156 L1387,142.5156 L1377,132.5156 " fill="#FEFFDD" style="stroke:#181818;stroke-width:0.5;"/><text fill="#000000" font-family="sans-serif" font-size="13" lengthAdjust="spacing" textLength="4" x="191.5" y="149.5825">&#160;</text><text fill="#000000" font-family="sans-serif" font-size="17" lengthAdjust="spacing" textLength="1002" x="191.5" y="168.4282">Die Akteure sind auf demselben Messenger-Service angemeldet und im Besitz eines zugelassenen TI-Messenger-Clients.</text><text fill="#000000" font-family="sans-serif" font-size="17" lengthAdjust="spacing" textLength="473" x="191.5" y="188.2173">Ein Chatraum wurde durch den Einladenen eingerichtet.</text><text fill="#000000" font-family="sans-serif" font-size="13" lengthAdjust="spacing" textLength="4" x="191.5" y="204.2935">&#160;</text><polygon fill="#000000" points="225,264.1484,235,268.1484,225,272.1484,229,268.1484" style="stroke:#000000;stroke-width:1.0;"/><line style="stroke:#000000;stroke-width:1.0;" x1="58" x2="231" y1="268.1484" y2="268.1484"/><text fill="#000000" font-family="sans-serif" font-size="17" lengthAdjust="spacing" textLength="150" x="65" y="262.1392">Akteur B einladen</text><polygon fill="#000000" points="658,297.9375,668,301.9375,658,305.9375,662,301.9375" style="stroke:#000000;stroke-width:1.0;"/><line style="stroke:#000000;stroke-width:1.0;" x1="247" x2="664" y1="301.9375" y2="301.9375"/><text fill="#000000" font-family="sans-serif" font-size="17" lengthAdjust="spacing" textLength="404" x="254" y="295.9282">POST  /_matrix/client/v3/rooms/{roomId}/invite</text><line style="stroke:#000000;stroke-width:1.0;" x1="680" x2="722" y1="360.7266" y2="360.7266"/><line style="stroke:#000000;stroke-width:1.0;" x1="722" x2="722" y1="360.7266" y2="373.7266"/><line style="stroke:#000000;stroke-width:1.0;" x1="681" x2="722" y1="373.7266" y2="373.7266"/><polygon fill="#000000" points="691,369.7266,681,373.7266,691,377.7266,687,373.7266" style="stroke:#000000;stroke-width:1.0;"/><text fill="#000000" font-family="sans-serif" font-size="17" lengthAdjust="spacing" textLength="204" x="687" y="354.7173">Client-Server-Pr&#252;fungen</text><path d="M125,413.7266 L213,413.7266 L213,420.8594 L203,430.8594 L125,430.8594 L125,413.7266 " fill="#EEEEEE" style="stroke:#000000;stroke-width:1.5;"/><rect fill="none" height="54.5469" style="stroke:#000000;stroke-width:1.5;" width="667" x="125" y="413.7266"/><text fill="#000000" font-family="sans-serif" font-size="13" font-weight="bold" lengthAdjust="spacing" textLength="43" x="140" y="426.7935">break</text><text fill="#000000" font-family="sans-serif" font-size="11" font-weight="bold" lengthAdjust="spacing" textLength="5" x="228" y="431.7573">[</text><text fill="#000000" font-family="sans-serif" font-size="16" font-weight="bold" lengthAdjust="spacing" textLength="360" x="233" y="430.5781">Client-Server Pr&#252;fung ist fehlgeschlagen</text><text fill="#000000" font-family="sans-serif" font-size="11" font-weight="bold" lengthAdjust="spacing" textLength="5" x="593" y="431.7573">]</text><polygon fill="#000000" points="258,456.2734,248,460.2734,258,464.2734,254,460.2734" style="stroke:#000000;stroke-width:1.0;"/><line style="stroke:#000000;stroke-width:1.0;" x1="252" x2="669" y1="460.2734" y2="460.2734"/><text fill="#FF0000" font-family="sans-serif" font-size="17" lengthAdjust="spacing" textLength="227" x="436" y="454.2642">Verbindung wird abgelehnt</text><polygon fill="#000000" points="886,497.0625,896,501.0625,886,505.0625,890,501.0625" style="stroke:#000000;stroke-width:1.0;"/><line style="stroke:#000000;stroke-width:1.0;" x1="680" x2="892" y1="501.0625" y2="501.0625"/><text fill="#000000" font-family="sans-serif" font-size="17" lengthAdjust="spacing" textLength="135" x="687" y="495.0532">HTTP(S) Foward</text><line style="stroke:#000000;stroke-width:1.0;" x1="908" x2="950" y1="534.8516" y2="534.8516"/><line style="stroke:#000000;stroke-width:1.0;" x1="950" x2="950" y1="534.8516" y2="547.8516"/><line style="stroke:#000000;stroke-width:1.0;" x1="909" x2="950" y1="547.8516" y2="547.8516"/><polygon fill="#000000" points="919,543.8516,909,547.8516,919,551.8516,915,547.8516" style="stroke:#000000;stroke-width:1.0;"/><text fill="#000000" font-family="sans-serif" font-size="17" lengthAdjust="spacing" textLength="151" x="915" y="528.8423">Invite verarbeiten</text><polygon fill="#000000" points="691,602.6406,681,606.6406,691,610.6406,687,606.6406" style="stroke:#000000;stroke-width:1.0;"/><line style="stroke:#000000;stroke-width:1.0;stroke-dasharray:2.0,2.0;" x1="685" x2="897" y1="606.6406" y2="606.6406"/><text fill="#000000" font-family="sans-serif" font-size="17" lengthAdjust="spacing" textLength="122" x="769" y="600.6313">Invite Request</text><polygon fill="#000000" points="1111,636.4297,1121,640.4297,1111,644.4297,1115,640.4297" style="stroke:#000000;stroke-width:1.0;"/><line style="stroke:#000000;stroke-width:1.0;" x1="680" x2="1117" y1="640.4297" y2="640.4297"/><text fill="#000000" font-family="sans-serif" font-size="17" lengthAdjust="spacing" textLength="142" x="687" y="634.4204">HTTP(S) Forward</text><polygon fill="#000000" points="1325,670.2188,1335,674.2188,1325,678.2188,1329,674.2188" style="stroke:#000000;stroke-width:1.0;"/><line style="stroke:#000000;stroke-width:1.0;" x1="1133" x2="1331" y1="674.2188" y2="674.2188"/><text fill="#000000" font-family="sans-serif" font-size="17" lengthAdjust="spacing" textLength="164" x="1140" y="668.2095">Einladung anzeigen</text><polygon fill="#000000" points="1144,704.0078,1134,708.0078,1144,712.0078,1140,708.0078" style="stroke:#000000;stroke-width:1.0;"/><line style="stroke:#000000;stroke-width:1.0;stroke-dasharray:2.0,2.0;" x1="1138" x2="1336" y1="708.0078" y2="708.0078"/><text fill="#000000" font-family="sans-serif" font-size="17" lengthAdjust="spacing" textLength="180" x="1150" y="701.9985">Einladung annehmen</text><polygon fill="#000000" points="691,737.7969,681,741.7969,691,745.7969,687,741.7969" style="stroke:#000000;stroke-width:1.0;"/><line style="stroke:#000000;stroke-width:1.0;stroke-dasharray:2.0,2.0;" x1="685" x2="1127" y1="741.7969" y2="741.7969"/><text fill="#000000" font-family="sans-serif" font-size="17" lengthAdjust="spacing" textLength="206" x="915" y="735.7876">Einladung angenommen</text><polygon fill="#000000" points="886,796.5859,896,800.5859,886,804.5859,890,800.5859" style="stroke:#000000;stroke-width:1.0;"/><line style="stroke:#000000;stroke-width:1.0;" x1="680" x2="892" y1="800.5859" y2="800.5859"/><text fill="#000000" font-family="sans-serif" font-size="17" lengthAdjust="spacing" textLength="142" x="687" y="794.5767">HTTP(S) Forward</text><polygon fill="#000000" points="691,830.375,681,834.375,691,838.375,687,834.375" style="stroke:#000000;stroke-width:1.0;"/><line style="stroke:#000000;stroke-width:1.0;stroke-dasharray:2.0,2.0;" x1="685" x2="902" y1="834.375" y2="834.375"/><text fill="#000000" font-family="sans-serif" font-size="17" lengthAdjust="spacing" textLength="54" x="842" y="828.3657">Status</text><polygon fill="#000000" points="258,864.1641,248,868.1641,258,872.1641,254,868.1641" style="stroke:#000000;stroke-width:1.0;"/><line style="stroke:#000000;stroke-width:1.0;stroke-dasharray:2.0,2.0;" x1="252" x2="674" y1="868.1641" y2="868.1641"/><text fill="#000000" font-family="sans-serif" font-size="17" lengthAdjust="spacing" textLength="54" x="614" y="862.1548">Status</text><polygon fill="#000000" points="69,917.7422,59,921.7422,69,925.7422,65,921.7422" style="stroke:#000000;stroke-width:1.0;"/><line style="stroke:#000000;stroke-width:1.0;stroke-dasharray:2.0,2.0;" x1="63" x2="241" y1="921.7422" y2="921.7422"/><text fill="#000000" font-family="sans-serif" font-size="17" lengthAdjust="spacing" textLength="113" x="80" y="895.9438">Nutzer in den</text><text fill="#000000" font-family="sans-serif" font-size="17" lengthAdjust="spacing" textLength="155" x="80" y="915.7329">Raum hinzugef&#252;gt</text></g></svg>