<?xml version="1.0" encoding="us-ascii" standalone="no"?><svg xmlns="http://www.w3.org/2000/svg" xmlns:xlink="http://www.w3.org/1999/xlink" contentStyleType="text/css" height="1851px" preserveAspectRatio="none" style="width:1823px;height:1851px;background:#FFFFFF;" version="1.1" viewBox="0 0 1823 1851" width="1823px" zoomAndPan="magnify"><defs/><g><rect fill="#F5F5F5" height="1839.9609" style="stroke:#181818;stroke-width:0.5;" width="222" x="16" y="6"/><text fill="#000000" font-family="sans-serif" font-size="18" font-weight="bold" lengthAdjust="spacing" textLength="193" x="30.5" y="22.708">Messenger-Service</text><text fill="#000000" font-family="sans-serif" font-size="13" font-weight="bold" lengthAdjust="spacing" textLength="185" x="30.5" y="39.02">des einladenden Akteurs</text><text fill="#000000" font-family="sans-serif" font-size="13" font-weight="bold" lengthAdjust="spacing" textLength="5" x="30.5" y="54.1528">&#160;</text><rect fill="#F5F5F5" height="1839.9609" style="stroke:#181818;stroke-width:0.5;" width="222" x="270" y="6"/><text fill="#000000" font-family="sans-serif" font-size="18" font-weight="bold" lengthAdjust="spacing" textLength="193" x="284" y="22.708">Messenger-Service</text><text fill="#000000" font-family="sans-serif" font-size="13" font-weight="bold" lengthAdjust="spacing" textLength="194" x="284" y="39.02">des eingeladenen Akteurs</text><text fill="#000000" font-family="sans-serif" font-size="13" font-weight="bold" lengthAdjust="spacing" textLength="5" x="284" y="54.1528">&#160;</text><rect fill="#F5F5F5" height="1839.9609" style="stroke:#181818;stroke-width:0.5;" width="435" x="599" y="6"/><text fill="#000000" font-family="sans-serif" font-size="18" font-weight="bold" lengthAdjust="spacing" textLength="429" x="602" y="22.708">Push-Gateway des eingeladenden Akteurs</text><text fill="#000000" font-family="sans-serif" font-size="13" font-weight="bold" lengthAdjust="spacing" textLength="5" x="602" y="39.02">&#160;</text><rect fill="#F5F5F5" height="1839.9609" style="stroke:#181818;stroke-width:0.5;" width="222" x="1066" y="6"/><text fill="#000000" font-family="sans-serif" font-size="18" font-weight="bold" lengthAdjust="spacing" textLength="176" x="1080" y="22.708">Messenger Client</text><text fill="#000000" font-family="sans-serif" font-size="13" font-weight="bold" lengthAdjust="spacing" textLength="194" x="1080" y="39.02">des eingeladenen Akteurs</text><text fill="#000000" font-family="sans-serif" font-size="13" font-weight="bold" lengthAdjust="spacing" textLength="5" x="1080" y="54.1528">&#160;</text><rect fill="#DCDCDC" height="1628.9609" style="stroke:#000000;stroke-width:1.0;" width="10" x="122" y="143.4375"/><rect fill="#DCDCDC" height="1628.9609" style="stroke:#000000;stroke-width:1.0;" width="10" x="376" y="143.4375"/><rect fill="#DCDCDC" height="67.5781" style="stroke:#000000;stroke-width:1.0;" width="10" x="811.5" y="1128.7734"/><rect fill="#DCDCDC" height="609.8359" style="stroke:#000000;stroke-width:1.0;" width="10" x="1172" y="1162.5625"/><rect fill="#FFE4E1" height="165.9141" style="stroke:#000000;stroke-width:1.5;" width="545" x="10" y="255.0625"/><rect fill="#FFE4E1" height="165.9141" style="stroke:#000000;stroke-width:1.5;" width="612" x="10" y="434.9766"/><rect fill="#87CEEB" height="367.8906" style="stroke:#000000;stroke-width:1.5;" width="756" x="254" y="728.0938"/><rect fill="#FFE4E1" height="136.1719" style="stroke:#000000;stroke-width:1.5;" width="691" x="264" y="802.6406"/><rect fill="#FFE4E1" height="136.1719" style="stroke:#000000;stroke-width:1.5;" width="736" x="264" y="952.8125"/><rect fill="#87CEEB" height="367.8906" style="stroke:#000000;stroke-width:1.5;" width="756" x="1050" y="1278.9297"/><rect fill="#FFE4E1" height="136.1719" style="stroke:#000000;stroke-width:1.5;" width="691" x="1060" y="1353.4766"/><rect fill="#FFE4E1" height="136.1719" style="stroke:#000000;stroke-width:1.5;" width="736" x="1060" y="1503.6484"/><line style="stroke:#000000;stroke-width:0.5;stroke-dasharray:5.0,5.0;" x1="127" x2="127" y1="107.6484" y2="1781.3984"/><line style="stroke:#000000;stroke-width:0.5;stroke-dasharray:5.0,5.0;" x1="381" x2="381" y1="107.6484" y2="1781.3984"/><line style="stroke:#000000;stroke-width:0.5;stroke-dasharray:5.0,5.0;" x1="816.5" x2="816.5" y1="107.6484" y2="1781.3984"/><line style="stroke:#000000;stroke-width:0.5;stroke-dasharray:5.0,5.0;" x1="1177" x2="1177" y1="107.6484" y2="1781.3984"/><rect fill="#EFEFFF" height="37.2813" rx="2.5" ry="2.5" style="stroke:#000000;stroke-width:0.5;" width="214" x="20" y="69.3672"/><text fill="#000000" font-family="sans-serif" font-size="20" lengthAdjust="spacing" textLength="187" x="33.5" y="94.9316">Messenger-Service</text><rect fill="#EFEFFF" height="37.2813" rx="2.5" ry="2.5" style="stroke:#000000;stroke-width:0.5;" width="214" x="20" y="1780.3984"/><text fill="#000000" font-family="sans-serif" font-size="20" lengthAdjust="spacing" textLength="187" x="33.5" y="1805.9629">Messenger-Service</text><rect fill="#EFEFFF" height="37.2813" rx="2.5" ry="2.5" style="stroke:#000000;stroke-width:0.5;" width="214" x="274" y="69.3672"/><text fill="#000000" font-family="sans-serif" font-size="20" lengthAdjust="spacing" textLength="187" x="287.5" y="94.9316">Messenger-Service</text><rect fill="#EFEFFF" height="37.2813" rx="2.5" ry="2.5" style="stroke:#000000;stroke-width:0.5;" width="214" x="274" y="1780.3984"/><text fill="#000000" font-family="sans-serif" font-size="20" lengthAdjust="spacing" textLength="187" x="287.5" y="1805.9629">Messenger-Service</text><rect fill="#EFEFFF" height="60.5625" rx="2.5" ry="2.5" style="stroke:#000000;stroke-width:0.5;" width="214" x="709.5" y="46.0859"/><text fill="#000000" font-family="sans-serif" font-size="20" lengthAdjust="spacing" textLength="55" x="789" y="71.6504">Push-</text><text fill="#000000" font-family="sans-serif" font-size="20" lengthAdjust="spacing" textLength="88" x="772.5" y="94.9316">Gateway</text><rect fill="#EFEFFF" height="60.5625" rx="2.5" ry="2.5" style="stroke:#000000;stroke-width:0.5;" width="214" x="709.5" y="1780.3984"/><text fill="#000000" font-family="sans-serif" font-size="20" lengthAdjust="spacing" textLength="55" x="789" y="1805.9629">Push-</text><text fill="#000000" font-family="sans-serif" font-size="20" lengthAdjust="spacing" textLength="88" x="772.5" y="1829.2441">Gateway</text><rect fill="#EFEFFF" height="37.2813" rx="2.5" ry="2.5" style="stroke:#000000;stroke-width:0.5;" width="214" x="1070" y="69.3672"/><text fill="#000000" font-family="sans-serif" font-size="20" lengthAdjust="spacing" textLength="173" x="1090.5" y="94.9316">Messenger-Client</text><rect fill="#EFEFFF" height="37.2813" rx="2.5" ry="2.5" style="stroke:#000000;stroke-width:0.5;" width="214" x="1070" y="1780.3984"/><text fill="#000000" font-family="sans-serif" font-size="20" lengthAdjust="spacing" textLength="173" x="1090.5" y="1805.9629">Messenger-Client</text><rect fill="#DCDCDC" height="1628.9609" style="stroke:#000000;stroke-width:1.0;" width="10" x="122" y="143.4375"/><rect fill="#DCDCDC" height="1628.9609" style="stroke:#000000;stroke-width:1.0;" width="10" x="376" y="143.4375"/><rect fill="#DCDCDC" height="67.5781" style="stroke:#000000;stroke-width:1.0;" width="10" x="811.5" y="1128.7734"/><rect fill="#DCDCDC" height="609.8359" style="stroke:#000000;stroke-width:1.0;" width="10" x="1172" y="1162.5625"/><polygon fill="#000000" points="364,139.4375,374,143.4375,364,147.4375,368,143.4375" style="stroke:#000000;stroke-width:1.0;"/><line style="stroke:#000000;stroke-width:1.0;" x1="132" x2="370" y1="143.4375" y2="143.4375"/><text fill="#000000" font-family="sans-serif" font-size="17" lengthAdjust="spacing" textLength="164" x="139" y="137.4282">Matrix-Invite-Event</text><rect fill="#EEEEEE" height="3" style="stroke:#EEEEEE;stroke-width:1.0;" width="1816" x="0" y="198.75"/><line style="stroke:#000000;stroke-width:1.0;" x1="0" x2="1816" y1="198.75" y2="198.75"/><line style="stroke:#000000;stroke-width:1.0;" x1="0" x2="1816" y1="201.75" y2="201.75"/><rect fill="#EEEEEE" height="26.625" style="stroke:#000000;stroke-width:2.0;" width="321" x="747.5" y="186.4375"/><text fill="#008000" font-family="sans-serif" font-size="16" font-weight="bold" lengthAdjust="spacing" textLength="285" x="765.5" y="205.2891">Berechtigungskonzept - Stufe 1</text><text fill="#000000" font-family="sans-serif" font-size="13" font-weight="bold" lengthAdjust="spacing" textLength="10" x="1050.5" y="205.9966">&#160;&#160;</text><path d="M10,255.0625 L98,255.0625 L98,262.1953 L88,272.1953 L10,272.1953 L10,255.0625 " fill="#EEEEEE" style="stroke:#000000;stroke-width:1.5;"/><rect fill="none" height="165.9141" style="stroke:#000000;stroke-width:1.5;" width="545" x="10" y="255.0625"/><text fill="#000000" font-family="sans-serif" font-size="13" font-weight="bold" lengthAdjust="spacing" textLength="43" x="25" y="268.1294">break</text><text fill="#000000" font-family="sans-serif" font-size="11" font-weight="bold" lengthAdjust="spacing" textLength="5" x="113" y="273.0933">[</text><text fill="#000000" font-family="sans-serif" font-size="16" font-weight="bold" lengthAdjust="spacing" textLength="427" x="118" y="271.9141">Matrix-Domain nicht in der F&#246;deration enthalten</text><text fill="#000000" font-family="sans-serif" font-size="11" font-weight="bold" lengthAdjust="spacing" textLength="5" x="545" y="273.0933">]</text><line style="stroke:#000000;stroke-width:1.0;" x1="386" x2="428" y1="341.1875" y2="341.1875"/><line style="stroke:#000000;stroke-width:1.0;" x1="428" x2="428" y1="341.1875" y2="354.1875"/><line style="stroke:#000000;stroke-width:1.0;" x1="387" x2="428" y1="354.1875" y2="354.1875"/><polygon fill="#000000" points="397,350.1875,387,354.1875,397,358.1875,393,354.1875" style="stroke:#000000;stroke-width:1.0;"/><text fill="#FF0000" font-family="sans-serif" font-size="17" lengthAdjust="spacing" textLength="73" x="393" y="295.6001">Abbruch,</text><text fill="#FF0000" font-family="sans-serif" font-size="17" lengthAdjust="spacing" textLength="138" x="393" y="315.3892">Verbindung wird</text><text fill="#FF0000" font-family="sans-serif" font-size="17" lengthAdjust="spacing" textLength="84" x="393" y="335.1782">abgelehnt</text><polygon fill="#000000" points="143,383.9766,133,387.9766,143,391.9766,139,387.9766" style="stroke:#000000;stroke-width:1.0;"/><line style="stroke:#000000;stroke-width:1.0;stroke-dasharray:2.0,2.0;" x1="137" x2="375" y1="387.9766" y2="387.9766"/><text fill="#000000" font-family="sans-serif" font-size="17" lengthAdjust="spacing" textLength="81" x="288" y="381.9673">HTTP 403</text><path d="M10,434.9766 L98,434.9766 L98,442.1094 L88,452.1094 L10,452.1094 L10,434.9766 " fill="#EEEEEE" style="stroke:#000000;stroke-width:1.5;"/><rect fill="none" height="165.9141" style="stroke:#000000;stroke-width:1.5;" width="612" x="10" y="434.9766"/><text fill="#000000" font-family="sans-serif" font-size="13" font-weight="bold" lengthAdjust="spacing" textLength="43" x="25" y="448.0435">break</text><text fill="#000000" font-family="sans-serif" font-size="11" font-weight="bold" lengthAdjust="spacing" textLength="5" x="113" y="453.0073">[</text><text fill="#000000" font-family="sans-serif" font-size="16" font-weight="bold" lengthAdjust="spacing" textLength="494" x="118" y="451.8281">Einladender und der Eingeladene sind beide Versicherte</text><text fill="#000000" font-family="sans-serif" font-size="11" font-weight="bold" lengthAdjust="spacing" textLength="5" x="612" y="453.0073">]</text><line style="stroke:#000000;stroke-width:1.0;" x1="386" x2="428" y1="521.1016" y2="521.1016"/><line style="stroke:#000000;stroke-width:1.0;" x1="428" x2="428" y1="521.1016" y2="534.1016"/><line style="stroke:#000000;stroke-width:1.0;" x1="387" x2="428" y1="534.1016" y2="534.1016"/><polygon fill="#000000" points="397,530.1016,387,534.1016,397,538.1016,393,534.1016" style="stroke:#000000;stroke-width:1.0;"/><text fill="#FF0000" font-family="sans-serif" font-size="17" lengthAdjust="spacing" textLength="73" x="393" y="475.5142">Abbruch,</text><text fill="#FF0000" font-family="sans-serif" font-size="17" lengthAdjust="spacing" textLength="138" x="393" y="495.3032">Verbindung wird</text><text fill="#FF0000" font-family="sans-serif" font-size="17" lengthAdjust="spacing" textLength="84" x="393" y="515.0923">abgelehnt</text><polygon fill="#000000" points="143,563.8906,133,567.8906,143,571.8906,139,567.8906" style="stroke:#000000;stroke-width:1.0;"/><line style="stroke:#000000;stroke-width:1.0;" x1="137" x2="375" y1="567.8906" y2="567.8906"/><text fill="#000000" font-family="sans-serif" font-size="17" lengthAdjust="spacing" textLength="81" x="288" y="561.8813">HTTP 403</text><rect fill="#EEEEEE" height="3" style="stroke:#EEEEEE;stroke-width:1.0;" width="1816" x="0" y="630.2031"/><line style="stroke:#000000;stroke-width:1.0;" x1="0" x2="1816" y1="630.2031" y2="630.2031"/><line style="stroke:#000000;stroke-width:1.0;" x1="0" x2="1816" y1="633.2031" y2="633.2031"/><rect fill="#EEEEEE" height="26.625" style="stroke:#000000;stroke-width:2.0;" width="321" x="747.5" y="617.8906"/><text fill="#008000" font-family="sans-serif" font-size="16" font-weight="bold" lengthAdjust="spacing" textLength="285" x="765.5" y="636.7422">Berechtigungskonzept - Stufe 2</text><text fill="#000000" font-family="sans-serif" font-size="13" font-weight="bold" lengthAdjust="spacing" textLength="10" x="1050.5" y="637.4497">&#160;&#160;</text><line style="stroke:#000000;stroke-width:1.0;stroke-dasharray:2.0,2.0;" x1="386" x2="428" y1="700.0938" y2="700.0938"/><line style="stroke:#000000;stroke-width:1.0;stroke-dasharray:2.0,2.0;" x1="428" x2="428" y1="700.0938" y2="713.0938"/><line style="stroke:#000000;stroke-width:1.0;stroke-dasharray:2.0,2.0;" x1="387" x2="428" y1="713.0938" y2="713.0938"/><polygon fill="#000000" points="397,709.0938,387,713.0938,397,717.0938,393,713.0938" style="stroke:#000000;stroke-width:1.0;"/><text fill="#000000" font-family="sans-serif" font-size="17" lengthAdjust="spacing" textLength="104" x="393" y="674.2954">Invite-Event</text><text fill="#000000" font-family="sans-serif" font-size="17" lengthAdjust="spacing" textLength="97" x="393" y="694.0845">verarbeiten</text><path d="M254,728.0938 L324,728.0938 L324,735.2266 L314,745.2266 L254,745.2266 L254,728.0938 " fill="#EEEEEE" style="stroke:#000000;stroke-width:1.5;"/><rect fill="none" height="367.8906" style="stroke:#000000;stroke-width:1.5;" width="756" x="254" y="728.0938"/><text fill="#000000" font-family="sans-serif" font-size="13" font-weight="bold" lengthAdjust="spacing" textLength="25" x="269" y="741.1606">opt</text><text fill="#000000" font-family="sans-serif" font-size="11" font-weight="bold" lengthAdjust="spacing" textLength="5" x="339" y="746.1245">[</text><text fill="#000000" font-family="sans-serif" font-size="16" font-weight="bold" lengthAdjust="spacing" textLength="586" x="344" y="744.9453">Durchsetzen der akteursspezifischen Berechtigungskonfiguration</text><text fill="#000000" font-family="sans-serif" font-size="11" font-weight="bold" lengthAdjust="spacing" textLength="5" x="930" y="746.1245">]</text><line style="stroke:#000000;stroke-width:1.0;" x1="386" x2="428" y1="774.6406" y2="774.6406"/><line style="stroke:#000000;stroke-width:1.0;" x1="428" x2="428" y1="774.6406" y2="787.6406"/><line style="stroke:#000000;stroke-width:1.0;" x1="387" x2="428" y1="787.6406" y2="787.6406"/><polygon fill="#000000" points="397,783.6406,387,787.6406,397,791.6406,393,787.6406" style="stroke:#000000;stroke-width:1.0;"/><text fill="#000000" font-family="sans-serif" font-size="17" lengthAdjust="spacing" textLength="305" x="393" y="768.6313">Pr&#252;fung, ob die Einladung erlaubt ist</text><path d="M264,802.6406 L352,802.6406 L352,809.7734 L342,819.7734 L264,819.7734 L264,802.6406 " fill="#EEEEEE" style="stroke:#000000;stroke-width:1.5;"/><rect fill="none" height="136.1719" style="stroke:#000000;stroke-width:1.5;" width="691" x="264" y="802.6406"/><text fill="#000000" font-family="sans-serif" font-size="13" font-weight="bold" lengthAdjust="spacing" textLength="43" x="279" y="815.7075">break</text><text fill="#000000" font-family="sans-serif" font-size="11" font-weight="bold" lengthAdjust="spacing" textLength="5" x="367" y="820.6714">[</text><text fill="#000000" font-family="sans-serif" font-size="16" font-weight="bold" lengthAdjust="spacing" textLength="578" x="372" y="819.4922">Der Akteur hat "allow all" konfiguriert und der einladende Akteur</text><text fill="#000000" font-family="sans-serif" font-size="16" font-weight="bold" lengthAdjust="spacing" textLength="569" x="373" y="838.1172">ist auf der BlockedUser-Liste (Direkt oder als Teil einer Domain)</text><text fill="#000000" font-family="sans-serif" font-size="11" font-weight="bold" lengthAdjust="spacing" textLength="5" x="942" y="839.2964">]</text><line style="stroke:#000000;stroke-width:1.0;" x1="386" x2="428" y1="892.8125" y2="892.8125"/><line style="stroke:#000000;stroke-width:1.0;" x1="428" x2="428" y1="892.8125" y2="905.8125"/><line style="stroke:#000000;stroke-width:1.0;" x1="387" x2="428" y1="905.8125" y2="905.8125"/><polygon fill="#000000" points="397,901.8125,387,905.8125,397,909.8125,393,905.8125" style="stroke:#000000;stroke-width:1.0;"/><text fill="#FF0000" font-family="sans-serif" font-size="17" lengthAdjust="spacing" textLength="211" x="393" y="886.8032">Einladung ist abzulehnen</text><path d="M264,952.8125 L352,952.8125 L352,959.9453 L342,969.9453 L264,969.9453 L264,952.8125 " fill="#EEEEEE" style="stroke:#000000;stroke-width:1.5;"/><rect fill="none" height="136.1719" style="stroke:#000000;stroke-width:1.5;" width="736" x="264" y="952.8125"/><text fill="#000000" font-family="sans-serif" font-size="13" font-weight="bold" lengthAdjust="spacing" textLength="43" x="279" y="965.8794">break</text><text fill="#000000" font-family="sans-serif" font-size="11" font-weight="bold" lengthAdjust="spacing" textLength="5" x="367" y="970.8433">[</text><text fill="#000000" font-family="sans-serif" font-size="16" font-weight="bold" lengthAdjust="spacing" textLength="581" x="372" y="969.6641">Der Akteur hat "block all" konfiguriert und der einladende Akteur</text><text fill="#000000" font-family="sans-serif" font-size="16" font-weight="bold" lengthAdjust="spacing" textLength="617" x="373" y="988.2891">ist nicht auf der AllowedUser-Liste (Direkt oder als Teil einer Domain)</text><text fill="#000000" font-family="sans-serif" font-size="11" font-weight="bold" lengthAdjust="spacing" textLength="5" x="990" y="989.4683">]</text><line style="stroke:#000000;stroke-width:1.0;" x1="386" x2="428" y1="1042.9844" y2="1042.9844"/><line style="stroke:#000000;stroke-width:1.0;" x1="428" x2="428" y1="1042.9844" y2="1055.9844"/><line style="stroke:#000000;stroke-width:1.0;" x1="387" x2="428" y1="1055.9844" y2="1055.9844"/><polygon fill="#000000" points="397,1051.9844,387,1055.9844,397,1059.9844,393,1055.9844" style="stroke:#000000;stroke-width:1.0;"/><text fill="#FF0000" font-family="sans-serif" font-size="17" lengthAdjust="spacing" textLength="211" x="393" y="1036.9751">Einladung ist abzulehnen</text><polygon fill="#000000" points="799.5,1124.7734,809.5,1128.7734,799.5,1132.7734,803.5,1128.7734" style="stroke:#000000;stroke-width:1.0;"/><line style="stroke:#000000;stroke-width:1.0;" x1="386" x2="805.5" y1="1128.7734" y2="1128.7734"/><text fill="#000000" font-family="sans-serif" font-size="17" lengthAdjust="spacing" textLength="142" x="393" y="1122.7642">Push Notification</text><polygon fill="#000000" points="1160,1158.5625,1170,1162.5625,1160,1166.5625,1164,1162.5625" style="stroke:#000000;stroke-width:1.0;"/><line style="stroke:#000000;stroke-width:1.0;" x1="821.5" x2="1166" y1="1162.5625" y2="1162.5625"/><text fill="#000000" font-family="sans-serif" font-size="17" lengthAdjust="spacing" textLength="142" x="828.5" y="1156.5532">Push Notification</text><polygon fill="#000000" points="397,1192.3516,387,1196.3516,397,1200.3516,393,1196.3516" style="stroke:#000000;stroke-width:1.0;"/><line style="stroke:#000000;stroke-width:1.0;stroke-dasharray:2.0,2.0;" x1="391" x2="815.5" y1="1196.3516" y2="1196.3516"/><text fill="#000000" font-family="sans-serif" font-size="17" lengthAdjust="spacing" textLength="79" x="730.5" y="1190.3423">Response</text><polygon fill="#000000" points="397,1226.1406,387,1230.1406,397,1234.1406,393,1230.1406" style="stroke:#000000;stroke-width:1.0;"/><line style="stroke:#000000;stroke-width:1.0;" x1="391" x2="1171" y1="1230.1406" y2="1230.1406"/><text fill="#000000" font-family="sans-serif" font-size="17" lengthAdjust="spacing" textLength="180" x="985" y="1224.1313">Abfrage neuer Events</text><polygon fill="#000000" points="1160,1259.9297,1170,1263.9297,1160,1267.9297,1164,1263.9297" style="stroke:#000000;stroke-width:1.0;"/><line style="stroke:#000000;stroke-width:1.0;stroke-dasharray:2.0,2.0;" x1="386" x2="1166" y1="1263.9297" y2="1263.9297"/><text fill="#000000" font-family="sans-serif" font-size="17" lengthAdjust="spacing" textLength="234" x="393" y="1257.9204">Bereitstellung neuer Events</text><path d="M1050,1278.9297 L1120,1278.9297 L1120,1286.0625 L1110,1296.0625 L1050,1296.0625 L1050,1278.9297 " fill="#EEEEEE" style="stroke:#000000;stroke-width:1.5;"/><rect fill="none" height="367.8906" style="stroke:#000000;stroke-width:1.5;" width="756" x="1050" y="1278.9297"/><text fill="#000000" font-family="sans-serif" font-size="13" font-weight="bold" lengthAdjust="spacing" textLength="25" x="1065" y="1291.9966">opt</text><text fill="#000000" font-family="sans-serif" font-size="11" font-weight="bold" lengthAdjust="spacing" textLength="5" x="1135" y="1296.9604">[</text><text fill="#000000" font-family="sans-serif" font-size="16" font-weight="bold" lengthAdjust="spacing" textLength="586" x="1140" y="1295.7813">Durchsetzen der akteursspezifischen Berechtigungskonfiguration</text><text fill="#000000" font-family="sans-serif" font-size="11" font-weight="bold" lengthAdjust="spacing" textLength="5" x="1726" y="1296.9604">]</text><line style="stroke:#000000;stroke-width:1.0;" x1="1182" x2="1224" y1="1325.4766" y2="1325.4766"/><line style="stroke:#000000;stroke-width:1.0;" x1="1224" x2="1224" y1="1325.4766" y2="1338.4766"/><line style="stroke:#000000;stroke-width:1.0;" x1="1183" x2="1224" y1="1338.4766" y2="1338.4766"/><polygon fill="#000000" points="1193,1334.4766,1183,1338.4766,1193,1342.4766,1189,1338.4766" style="stroke:#000000;stroke-width:1.0;"/><text fill="#000000" font-family="sans-serif" font-size="17" lengthAdjust="spacing" textLength="305" x="1189" y="1319.4673">Pr&#252;fung, ob die Einladung erlaubt ist</text><path d="M1060,1353.4766 L1148,1353.4766 L1148,1360.6094 L1138,1370.6094 L1060,1370.6094 L1060,1353.4766 " fill="#EEEEEE" style="stroke:#000000;stroke-width:1.5;"/><rect fill="none" height="136.1719" style="stroke:#000000;stroke-width:1.5;" width="691" x="1060" y="1353.4766"/><text fill="#000000" font-family="sans-serif" font-size="13" font-weight="bold" lengthAdjust="spacing" textLength="43" x="1075" y="1366.5435">break</text><text fill="#000000" font-family="sans-serif" font-size="11" font-weight="bold" lengthAdjust="spacing" textLength="5" x="1163" y="1371.5073">[</text><text fill="#000000" font-family="sans-serif" font-size="16" font-weight="bold" lengthAdjust="spacing" textLength="578" x="1168" y="1370.3281">Der Akteur hat "allow all" konfiguriert und der einladende Akteur</text><text fill="#000000" font-family="sans-serif" font-size="16" font-weight="bold" lengthAdjust="spacing" textLength="569" x="1169" y="1388.9531">ist auf der BlockedUser-Liste (Direkt oder als Teil einer Domain)</text><text fill="#000000" font-family="sans-serif" font-size="11" font-weight="bold" lengthAdjust="spacing" textLength="5" x="1738" y="1390.1323">]</text><line style="stroke:#000000;stroke-width:1.0;" x1="1182" x2="1224" y1="1443.6484" y2="1443.6484"/><line style="stroke:#000000;stroke-width:1.0;" x1="1224" x2="1224" y1="1443.6484" y2="1456.6484"/><line style="stroke:#000000;stroke-width:1.0;" x1="1183" x2="1224" y1="1456.6484" y2="1456.6484"/><polygon fill="#000000" points="1193,1452.6484,1183,1456.6484,1193,1460.6484,1189,1456.6484" style="stroke:#000000;stroke-width:1.0;"/><text fill="#FF0000" font-family="sans-serif" font-size="17" lengthAdjust="spacing" textLength="211" x="1189" y="1437.6392">Einladung ist abzulehnen</text><path d="M1060,1503.6484 L1148,1503.6484 L1148,1510.7813 L1138,1520.7813 L1060,1520.7813 L1060,1503.6484 " fill="#EEEEEE" style="stroke:#000000;stroke-width:1.5;"/><rect fill="none" height="136.1719" style="stroke:#000000;stroke-width:1.5;" width="736" x="1060" y="1503.6484"/><text fill="#000000" font-family="sans-serif" font-size="13" font-weight="bold" lengthAdjust="spacing" textLength="43" x="1075" y="1516.7153">break</text><text fill="#000000" font-family="sans-serif" font-size="11" font-weight="bold" lengthAdjust="spacing" textLength="5" x="1163" y="1521.6792">[</text><text fill="#000000" font-family="sans-serif" font-size="16" font-weight="bold" lengthAdjust="spacing" textLength="581" x="1168" y="1520.5">Der Akteur hat "block all" konfiguriert und der einladende Akteur</text><text fill="#000000" font-family="sans-serif" font-size="16" font-weight="bold" lengthAdjust="spacing" textLength="617" x="1169" y="1539.125">ist nicht auf der AllowedUser-Liste (Direkt oder als Teil einer Domain)</text><text fill="#000000" font-family="sans-serif" font-size="11" font-weight="bold" lengthAdjust="spacing" textLength="5" x="1786" y="1540.3042">]</text><line style="stroke:#000000;stroke-width:1.0;" x1="1182" x2="1224" y1="1593.8203" y2="1593.8203"/><line style="stroke:#000000;stroke-width:1.0;" x1="1224" x2="1224" y1="1593.8203" y2="1606.8203"/><line style="stroke:#000000;stroke-width:1.0;" x1="1183" x2="1224" y1="1606.8203" y2="1606.8203"/><polygon fill="#000000" points="1193,1602.8203,1183,1606.8203,1193,1610.8203,1189,1606.8203" style="stroke:#000000;stroke-width:1.0;"/><text fill="#FF0000" font-family="sans-serif" font-size="17" lengthAdjust="spacing" textLength="211" x="1189" y="1587.811">Einladung ist abzulehnen</text><polygon fill="#000000" points="397,1700.6094,387,1704.6094,397,1708.6094,393,1704.6094" style="stroke:#000000;stroke-width:1.0;"/><line style="stroke:#000000;stroke-width:1.0;stroke-dasharray:2.0,2.0;" x1="391" x2="1171" y1="1704.6094" y2="1704.6094"/><text fill="#000000" font-family="sans-serif" font-size="17" lengthAdjust="spacing" textLength="163" x="1002" y="1698.6001">Einladungsergebnis</text><polygon fill="#000000" points="143,1734.3984,133,1738.3984,143,1742.3984,139,1738.3984" style="stroke:#000000;stroke-width:1.0;"/><line style="stroke:#000000;stroke-width:1.0;stroke-dasharray:2.0,2.0;" x1="137" x2="375" y1="1738.3984" y2="1738.3984"/><text fill="#000000" font-family="sans-serif" font-size="17" lengthAdjust="spacing" textLength="163" x="206" y="1732.3892">Einladungsergebnis</text></g></svg>