<?xml version="1.0" encoding="us-ascii" standalone="no"?><svg xmlns="http://www.w3.org/2000/svg" xmlns:xlink="http://www.w3.org/1999/xlink" contentStyleType="text/css" height="883px" preserveAspectRatio="none" style="width:1301px;height:883px;background:#FFFFFF;" version="1.1" viewBox="0 0 1301 883" width="1301px" zoomAndPan="magnify"><defs/><g><rect fill="#DCDCDC" height="322.6797" style="stroke:#000000;stroke-width:1.0;" width="10" x="320" y="464.3281"/><rect fill="#DCDCDC" height="227.3125" style="stroke:#000000;stroke-width:1.0;" width="10" x="636" y="237.0156"/><rect fill="#DCDCDC" height="140.9453" style="stroke:#000000;stroke-width:1.0;" width="10" x="942" y="163.6484"/><rect fill="#DCDCDC" height="473.2031" style="stroke:#000000;stroke-width:1.0;" width="10" x="1183" y="98.2813"/><line style="stroke:#000000;stroke-width:0.5;stroke-dasharray:5.0,5.0;" x1="69" x2="69" y1="88.2813" y2="796.0078"/><line style="stroke:#000000;stroke-width:0.5;stroke-dasharray:5.0,5.0;" x1="324.5" x2="324.5" y1="88.2813" y2="796.0078"/><line style="stroke:#000000;stroke-width:0.5;stroke-dasharray:5.0,5.0;" x1="641" x2="641" y1="88.2813" y2="796.0078"/><line style="stroke:#000000;stroke-width:0.5;stroke-dasharray:5.0,5.0;" x1="947" x2="947" y1="88.2813" y2="796.0078"/><line style="stroke:#000000;stroke-width:0.5;stroke-dasharray:5.0,5.0;" x1="1188" x2="1188" y1="88.2813" y2="796.0078"/><text fill="#000000" font-family="sans-serif" font-size="20" lengthAdjust="spacing" textLength="122" x="5" y="83.5645">Versicherter</text><ellipse cx="69" cy="13.5" fill="#DCDCDC" rx="8" ry="8" style="stroke:#000000;stroke-width:0.5;"/><path d="M69,21.5 L69,48.5 M56,29.5 L82,29.5 M69,48.5 L56,63.5 M69,48.5 L82,63.5 " fill="none" style="stroke:#000000;stroke-width:0.5;"/><text fill="#000000" font-family="sans-serif" font-size="20" lengthAdjust="spacing" textLength="122" x="5" y="813.5723">Versicherter</text><ellipse cx="69" cy="826.7891" fill="#DCDCDC" rx="8" ry="8" style="stroke:#000000;stroke-width:0.5;"/><path d="M69,834.7891 L69,861.7891 M56,842.7891 L82,842.7891 M69,861.7891 L56,876.7891 M69,861.7891 L82,876.7891 " fill="none" style="stroke:#000000;stroke-width:0.5;"/><rect fill="#EFEFFF" height="70.5625" rx="2.5" ry="2.5" style="stroke:#000000;stroke-width:0.5;" width="279" x="185.5" y="16.7188"/><text fill="#000000" font-family="sans-serif" font-size="20" lengthAdjust="spacing" textLength="265" x="192.5" y="42.2832">Frontend des Versicherten</text><line style="stroke:#000000;stroke-width:1.0;" x1="185.5" x2="464.5" y1="52" y2="52"/><text fill="#000000" font-family="sans-serif" font-size="20" lengthAdjust="spacing" textLength="253" x="198.5" y="75.5645">Inhaber eines AppTokens</text><rect fill="#EFEFFF" height="70.5625" rx="2.5" ry="2.5" style="stroke:#000000;stroke-width:0.5;" width="279" x="185.5" y="795.0078"/><text fill="#000000" font-family="sans-serif" font-size="20" lengthAdjust="spacing" textLength="265" x="192.5" y="820.5723">Frontend des Versicherten</text><line style="stroke:#000000;stroke-width:1.0;" x1="185.5" x2="464.5" y1="830.2891" y2="830.2891"/><text fill="#000000" font-family="sans-serif" font-size="20" lengthAdjust="spacing" textLength="253" x="198.5" y="853.8535">Inhaber eines AppTokens</text><rect fill="#EFEFFF" height="37.2813" rx="2.5" ry="2.5" style="stroke:#000000;stroke-width:0.5;" width="214" x="534" y="50"/><text fill="#000000" font-family="sans-serif" font-size="20" lengthAdjust="spacing" textLength="141" x="570.5" y="75.5645">Push-Anbieter</text><rect fill="#EFEFFF" height="37.2813" rx="2.5" ry="2.5" style="stroke:#000000;stroke-width:0.5;" width="214" x="534" y="795.0078"/><text fill="#000000" font-family="sans-serif" font-size="20" lengthAdjust="spacing" textLength="141" x="570.5" y="820.5723">Push-Anbieter</text><rect fill="#EFEFFF" height="37.2813" rx="2.5" ry="2.5" style="stroke:#000000;stroke-width:0.5;" width="214" x="840" y="50"/><text fill="#000000" font-family="sans-serif" font-size="20" lengthAdjust="spacing" textLength="143" x="875.5" y="75.5645">Push-Gateway</text><rect fill="#EFEFFF" height="37.2813" rx="2.5" ry="2.5" style="stroke:#000000;stroke-width:0.5;" width="214" x="840" y="795.0078"/><text fill="#000000" font-family="sans-serif" font-size="20" lengthAdjust="spacing" textLength="143" x="875.5" y="820.5723">Push-Gateway</text><rect fill="#EFEFFF" height="37.2813" rx="2.5" ry="2.5" style="stroke:#000000;stroke-width:0.5;" width="214" x="1081" y="50"/><text fill="#000000" font-family="sans-serif" font-size="20" lengthAdjust="spacing" textLength="110" x="1133" y="75.5645">Fachdienst</text><rect fill="#EFEFFF" height="37.2813" rx="2.5" ry="2.5" style="stroke:#000000;stroke-width:0.5;" width="214" x="1081" y="795.0078"/><text fill="#000000" font-family="sans-serif" font-size="20" lengthAdjust="spacing" textLength="110" x="1133" y="820.5723">Fachdienst</text><rect fill="#DCDCDC" height="322.6797" style="stroke:#000000;stroke-width:1.0;" width="10" x="320" y="464.3281"/><rect fill="#DCDCDC" height="227.3125" style="stroke:#000000;stroke-width:1.0;" width="10" x="636" y="237.0156"/><rect fill="#DCDCDC" height="140.9453" style="stroke:#000000;stroke-width:1.0;" width="10" x="942" y="163.6484"/><rect fill="#DCDCDC" height="473.2031" style="stroke:#000000;stroke-width:1.0;" width="10" x="1183" y="98.2813"/><polygon fill="#000000" points="963,159.6484,953,163.6484,963,167.6484,959,163.6484" style="stroke:#000000;stroke-width:1.0;"/><line style="stroke:#000000;stroke-width:1.0;" x1="957" x2="1182" y1="163.6484" y2="163.6484"/><text fill="#000000" font-family="sans-serif" font-size="17" font-weight="bold" lengthAdjust="spacing" textLength="12" x="964" y="137.8501">1</text><text fill="#000000" font-family="sans-serif" font-size="17" lengthAdjust="spacing" textLength="147" x="980" y="118.061">Benachrichtigung</text><text fill="#000000" font-family="sans-serif" font-size="17" lengthAdjust="spacing" textLength="24" x="980" y="137.8501">f&#252;r</text><text fill="#000000" font-family="sans-serif" font-size="17" lengthAdjust="spacing" textLength="5" x="1004" y="137.8501">&#160;</text><text fill="#000000" font-family="sans-serif" font-size="17" lengthAdjust="spacing" textLength="167" x="1009" y="137.8501">anbieterspezifisches</text><text fill="#000000" font-family="sans-serif" font-size="17" lengthAdjust="spacing" textLength="164" x="980" y="157.6392">AppToken(EventID)</text><polygon fill="#000000" points="657,233.0156,647,237.0156,657,241.0156,653,237.0156" style="stroke:#000000;stroke-width:1.0;"/><line style="stroke:#000000;stroke-width:1.0;" x1="651" x2="941" y1="237.0156" y2="237.0156"/><text fill="#000000" font-family="sans-serif" font-size="17" font-weight="bold" lengthAdjust="spacing" textLength="12" x="723" y="211.2173">2</text><text fill="#000000" font-family="sans-serif" font-size="17" lengthAdjust="spacing" textLength="147" x="739" y="191.4282">Benachrichtigung</text><text fill="#000000" font-family="sans-serif" font-size="17" lengthAdjust="spacing" textLength="24" x="739" y="211.2173">f&#252;r</text><text fill="#000000" font-family="sans-serif" font-size="17" lengthAdjust="spacing" textLength="5" x="763" y="211.2173">&#160;</text><text fill="#000000" font-family="sans-serif" font-size="17" lengthAdjust="spacing" textLength="167" x="768" y="211.2173">anbieterspezifisches</text><text fill="#000000" font-family="sans-serif" font-size="17" lengthAdjust="spacing" textLength="164" x="739" y="231.0063">AppToken(EventID)</text><polygon fill="#000000" points="930,266.8047,940,270.8047,930,274.8047,934,270.8047" style="stroke:#000000;stroke-width:1.0;"/><line style="stroke:#000000;stroke-width:1.0;stroke-dasharray:2.0,2.0;" x1="646" x2="936" y1="270.8047" y2="270.8047"/><text fill="#000000" font-family="sans-serif" font-size="17" font-weight="bold" lengthAdjust="spacing" textLength="12" x="653" y="264.7954">3</text><text fill="#000000" font-family="sans-serif" font-size="17" lengthAdjust="spacing" textLength="79" x="669" y="264.7954">Response</text><polygon fill="#000000" points="1171,300.5938,1181,304.5938,1171,308.5938,1175,304.5938" style="stroke:#000000;stroke-width:1.0;"/><line style="stroke:#000000;stroke-width:1.0;stroke-dasharray:2.0,2.0;" x1="947" x2="1177" y1="304.5938" y2="304.5938"/><text fill="#000000" font-family="sans-serif" font-size="17" font-weight="bold" lengthAdjust="spacing" textLength="12" x="954" y="298.5845">4</text><text fill="#000000" font-family="sans-serif" font-size="17" lengthAdjust="spacing" textLength="79" x="970" y="298.5845">Response</text><line style="stroke:#000000;stroke-width:1.0;" x1="646" x2="688" y1="377.9609" y2="377.9609"/><line style="stroke:#000000;stroke-width:1.0;" x1="688" x2="688" y1="377.9609" y2="390.9609"/><line style="stroke:#000000;stroke-width:1.0;" x1="647" x2="688" y1="390.9609" y2="390.9609"/><polygon fill="#000000" points="657,386.9609,647,390.9609,657,394.9609,653,390.9609" style="stroke:#000000;stroke-width:1.0;"/><text fill="#000000" font-family="sans-serif" font-size="17" font-weight="bold" lengthAdjust="spacing" textLength="12" x="653" y="352.1626">5</text><text fill="#000000" font-family="sans-serif" font-size="17" lengthAdjust="spacing" textLength="68" x="669" y="332.3735">ermittle</text><text fill="#000000" font-family="sans-serif" font-size="17" lengthAdjust="spacing" textLength="266" x="669" y="352.1626">Empf&#228;nger(anbieterspezifisches</text><text fill="#000000" font-family="sans-serif" font-size="17" lengthAdjust="spacing" textLength="178" x="669" y="371.9517">AppToken):SenderID,</text><text fill="#000000" font-family="sans-serif" font-size="17" lengthAdjust="spacing" textLength="5" x="847" y="371.9517">&#160;</text><text fill="#000000" font-family="sans-serif" font-size="17" lengthAdjust="spacing" textLength="50" x="852" y="371.9517">AppID</text><polygon fill="#000000" points="341,460.3281,331,464.3281,341,468.3281,337,464.3281" style="stroke:#000000;stroke-width:1.0;"/><line style="stroke:#000000;stroke-width:1.0;" x1="335" x2="640" y1="464.3281" y2="464.3281"/><text fill="#000000" font-family="sans-serif" font-size="17" font-weight="bold" lengthAdjust="spacing" textLength="12" x="358" y="438.5298">6</text><text fill="#000000" font-family="sans-serif" font-size="17" lengthAdjust="spacing" textLength="147" x="374" y="418.7407">Benachrichtigung</text><text fill="#000000" font-family="sans-serif" font-size="17" lengthAdjust="spacing" textLength="5" x="521" y="418.7407">&#160;</text><text fill="#000000" font-family="sans-serif" font-size="17" lengthAdjust="spacing" textLength="21" x="526" y="418.7407">an</text><text fill="#000000" font-family="sans-serif" font-size="17" lengthAdjust="spacing" textLength="172" x="374" y="438.5298">Empf&#228;nger(EventID,</text><text fill="#000000" font-family="sans-serif" font-size="17" lengthAdjust="spacing" textLength="5" x="546" y="438.5298">&#160;</text><text fill="#000000" font-family="sans-serif" font-size="17" lengthAdjust="spacing" textLength="83" x="551" y="438.5298">SenderID,</text><text fill="#000000" font-family="sans-serif" font-size="17" lengthAdjust="spacing" textLength="57" x="374" y="458.3188">AppID)</text><polygon fill="#000000" points="1171,513.9063,1181,517.9063,1171,521.9063,1175,517.9063" style="stroke:#000000;stroke-width:1.0;"/><line style="stroke:#000000;stroke-width:1.0;" x1="330" x2="1177" y1="517.9063" y2="517.9063"/><text fill="#000000" font-family="sans-serif" font-size="17" font-weight="bold" lengthAdjust="spacing" textLength="12" x="337" y="502.0024">7</text><text fill="#000000" font-family="sans-serif" font-size="17" lengthAdjust="spacing" textLength="64" x="353" y="492.1079">Abfrage</text><text fill="#000000" font-family="sans-serif" font-size="17" lengthAdjust="spacing" textLength="5" x="417" y="492.1079">&#160;</text><text fill="#000000" font-family="sans-serif" font-size="17" lengthAdjust="spacing" textLength="27" x="422" y="492.1079">der</text><text fill="#000000" font-family="sans-serif" font-size="17" lengthAdjust="spacing" textLength="5" x="449" y="492.1079">&#160;</text><text fill="#000000" font-family="sans-serif" font-size="17" lengthAdjust="spacing" textLength="51" x="454" y="492.1079">Daten</text><text fill="#000000" font-family="sans-serif" font-size="17" lengthAdjust="spacing" textLength="5" x="505" y="492.1079">&#160;</text><text fill="#000000" font-family="sans-serif" font-size="17" lengthAdjust="spacing" textLength="19" x="510" y="492.1079">zu</text><text fill="#000000" font-family="sans-serif" font-size="17" lengthAdjust="spacing" textLength="131" x="353" y="511.897">Event(EventID)</text><polygon fill="#000000" points="341,567.4844,331,571.4844,341,575.4844,337,571.4844" style="stroke:#000000;stroke-width:1.0;"/><line style="stroke:#000000;stroke-width:1.0;stroke-dasharray:2.0,2.0;" x1="335" x2="1187" y1="571.4844" y2="571.4844"/><text fill="#000000" font-family="sans-serif" font-size="17" font-weight="bold" lengthAdjust="spacing" textLength="12" x="951" y="555.5806">8</text><text fill="#000000" font-family="sans-serif" font-size="17" lengthAdjust="spacing" textLength="119" x="967" y="545.686">Verschl&#252;sselte</text><text fill="#000000" font-family="sans-serif" font-size="17" lengthAdjust="spacing" textLength="214" x="967" y="565.4751">Benachrichtigungsinhalte</text><line style="stroke:#000000;stroke-width:1.0;" x1="330" x2="372" y1="644.8516" y2="644.8516"/><line style="stroke:#000000;stroke-width:1.0;" x1="372" x2="372" y1="644.8516" y2="657.8516"/><line style="stroke:#000000;stroke-width:1.0;" x1="331" x2="372" y1="657.8516" y2="657.8516"/><polygon fill="#000000" points="341,653.8516,331,657.8516,341,661.8516,337,657.8516" style="stroke:#000000;stroke-width:1.0;"/><text fill="#000000" font-family="sans-serif" font-size="17" font-weight="bold" lengthAdjust="spacing" textLength="12" x="337" y="619.0532">9</text><text fill="#000000" font-family="sans-serif" font-size="17" lengthAdjust="spacing" textLength="113" x="353" y="599.2642">Entschl&#252;ssele</text><text fill="#000000" font-family="sans-serif" font-size="17" lengthAdjust="spacing" textLength="126" x="353" y="619.0532">(Verschl&#252;sselte</text><text fill="#000000" font-family="sans-serif" font-size="17" lengthAdjust="spacing" textLength="221" x="353" y="638.8423">Benachrichtigungsinhalte)</text><line style="stroke:#000000;stroke-width:1.0;" x1="330" x2="372" y1="731.2188" y2="731.2188"/><line style="stroke:#000000;stroke-width:1.0;" x1="372" x2="372" y1="731.2188" y2="744.2188"/><line style="stroke:#000000;stroke-width:1.0;" x1="331" x2="372" y1="744.2188" y2="744.2188"/><polygon fill="#000000" points="341,740.2188,331,744.2188,341,748.2188,337,744.2188" style="stroke:#000000;stroke-width:1.0;"/><text fill="#000000" font-family="sans-serif" font-size="17" font-weight="bold" lengthAdjust="spacing" textLength="24" x="337" y="705.4204">10</text><text fill="#000000" font-family="sans-serif" font-size="17" lengthAdjust="spacing" textLength="66" x="365" y="685.6313">erzeuge</text><text fill="#000000" font-family="sans-serif" font-size="17" lengthAdjust="spacing" textLength="230" x="365" y="705.4204">Anwenderbenachrichtigung</text><text fill="#000000" font-family="sans-serif" font-size="17" lengthAdjust="spacing" textLength="5" x="595" y="705.4204">&#160;</text><text fill="#000000" font-family="sans-serif" font-size="17" lengthAdjust="spacing" textLength="29" x="600" y="705.4204">mit</text><text fill="#000000" font-family="sans-serif" font-size="17" lengthAdjust="spacing" textLength="5" x="365" y="725.2095">&#160;</text><text fill="#000000" font-family="sans-serif" font-size="17" lengthAdjust="spacing" textLength="31" x="370" y="725.2095">den</text><text fill="#000000" font-family="sans-serif" font-size="17" lengthAdjust="spacing" textLength="5" x="401" y="725.2095">&#160;</text><text fill="#000000" font-family="sans-serif" font-size="17" lengthAdjust="spacing" textLength="130" x="406" y="725.2095">entschl&#252;sselten</text><text fill="#000000" font-family="sans-serif" font-size="17" lengthAdjust="spacing" textLength="5" x="536" y="725.2095">&#160;</text><text fill="#000000" font-family="sans-serif" font-size="17" lengthAdjust="spacing" textLength="71" x="541" y="725.2095">Inhalten</text><polygon fill="#000000" points="80,774.0078,70,778.0078,80,782.0078,76,778.0078" style="stroke:#000000;stroke-width:1.0;"/><line style="stroke:#000000;stroke-width:1.0;" x1="74" x2="319" y1="778.0078" y2="778.0078"/><text fill="#000000" font-family="sans-serif" font-size="17" font-weight="bold" lengthAdjust="spacing" textLength="24" x="86" y="771.9985">11</text><text fill="#000000" font-family="sans-serif" font-size="17" lengthAdjust="spacing" textLength="47" x="114" y="771.9985">Zeige</text><text fill="#000000" font-family="sans-serif" font-size="17" lengthAdjust="spacing" textLength="5" x="161" y="771.9985">&#160;</text><text fill="#000000" font-family="sans-serif" font-size="17" lengthAdjust="spacing" textLength="147" x="166" y="771.9985">Benachrichtigung</text><!--SRC=[hPJ1Jjn038RlynGM9rPY9Q2LMd50oh908q51WAZKqeCtSR8ZiZFJcKcMRjMtwMDmuyNgJ089OK4zD8SeiZt__zbEucwbCcXn0Ov-bAGIEYNdCAUeaBc2L5fAlDHAkAV2XLG71JhtHQP-3hlRsxtSHD-TOvfAbSDEB_oeVK4PsVhX4s5ATeB9RMvrgT83NMWB1WlABH6x9Vm82xnZ_VSVOLbRzH7mhiMyb2k2TyomnWr-YSXQlMp4PmMxDO4ZhNmukFD1H8dNTg8ju_JhJcH69rBH6va1_35AvMRQQY7EqNgPI8FAzy-VQYyh3DFiLmnqrbSz8Uzk3yDzk5US9o-IGzEpg_WwkehFFejs8gzs5z93twVW8-Dl8R3qMfMB6La1V8KRrdLG0JhOk2RhP38dwybkXApf025BA_WMeW17bfL9fP2IWzunrUR7VBMFiPeZEmBnXXn4nbpfMr8kPB-_C34OICvBDnz7QYPfBOh9kwfZzBJ4d-juGz4H9lDKigFVu0aaOPN4IP6butsJxy6459TOxi3BlEJlv4Pb3_SMiBLtXbOoauuxxFWt3ojIFfwEEacJ2vEp9Fv7IHG6nmtc1JcZbQFQPBoVfRr8IiyWi84Wkv3UyqTxk33Pmn-Lazry4s2qTyah9HjFj-fOF0rIlFOr3Q7goxRaMp0G63r3m_xuAvv_rVGHpJBBFmv-bonCEQjWLKAGx4R2osfHwhSjcHSFzyvHmL93D2VvXUD4tpfikse43fNlpXDlPlDV5KUT2DaLbOmSgMNeU3QS3u_-Xd_Mt0lr_UhcuaPDDMhLtbUI-KjJyHS0]--></g></svg>