<?xml version="1.0" encoding="us-ascii" standalone="no"?><svg xmlns="http://www.w3.org/2000/svg" xmlns:xlink="http://www.w3.org/1999/xlink" contentStyleType="text/css" height="804px" preserveAspectRatio="none" style="width:1278px;height:804px;background:#FFFFFF;" version="1.1" viewBox="0 0 1278 804" width="1278px" zoomAndPan="magnify"><defs/><g><rect fill="#DCDCDC" height="369.4688" style="stroke:#000000;stroke-width:1.0;" width="10" x="320" y="338.3828"/><rect fill="#DCDCDC" height="121.1563" style="stroke:#000000;stroke-width:1.0;" width="10" x="636" y="217.2266"/><rect fill="#DCDCDC" height="140.9453" style="stroke:#000000;stroke-width:1.0;" width="10" x="897" y="143.8594"/><rect fill="#DCDCDC" height="394.0469" style="stroke:#000000;stroke-width:1.0;" width="10" x="1160" y="98.2813"/><line style="stroke:#000000;stroke-width:0.5;stroke-dasharray:5.0,5.0;" x1="69" x2="69" y1="88.2813" y2="716.8516"/><line style="stroke:#000000;stroke-width:0.5;stroke-dasharray:5.0,5.0;" x1="325" x2="325" y1="88.2813" y2="716.8516"/><line style="stroke:#000000;stroke-width:0.5;stroke-dasharray:5.0,5.0;" x1="641" x2="641" y1="88.2813" y2="716.8516"/><line style="stroke:#000000;stroke-width:0.5;stroke-dasharray:5.0,5.0;" x1="902" x2="902" y1="88.2813" y2="716.8516"/><line style="stroke:#000000;stroke-width:0.5;stroke-dasharray:5.0,5.0;" x1="1165" x2="1165" y1="88.2813" y2="716.8516"/><text fill="#000000" font-family="sans-serif" font-size="20" lengthAdjust="spacing" textLength="122" x="5" y="83.5645">Versicherter</text><ellipse cx="69" cy="13.5" fill="#DCDCDC" rx="8" ry="8" style="stroke:#000000;stroke-width:0.5;"/><path d="M69,21.5 L69,48.5 M56,29.5 L82,29.5 M69,48.5 L56,63.5 M69,48.5 L82,63.5 " fill="none" style="stroke:#000000;stroke-width:0.5;"/><text fill="#000000" font-family="sans-serif" font-size="20" lengthAdjust="spacing" textLength="122" x="5" y="734.416">Versicherter</text><ellipse cx="69" cy="747.6328" fill="#DCDCDC" rx="8" ry="8" style="stroke:#000000;stroke-width:0.5;"/><path d="M69,755.6328 L69,782.6328 M56,763.6328 L82,763.6328 M69,782.6328 L56,797.6328 M69,782.6328 L82,797.6328 " fill="none" style="stroke:#000000;stroke-width:0.5;"/><rect fill="#EFEFFF" height="70.5625" rx="2.5" ry="2.5" style="stroke:#000000;stroke-width:0.5;" width="294" x="178" y="16.7188"/><text fill="#000000" font-family="sans-serif" font-size="20" lengthAdjust="spacing" textLength="265" x="192.5" y="42.2832">Frontend des Versicherten</text><line style="stroke:#000000;stroke-width:1.0;" x1="178" x2="472" y1="52" y2="52"/><text fill="#000000" font-family="sans-serif" font-size="20" lengthAdjust="spacing" textLength="280" x="185" y="75.5645">Inhaber eines DeviceTokens</text><rect fill="#EFEFFF" height="70.5625" rx="2.5" ry="2.5" style="stroke:#000000;stroke-width:0.5;" width="294" x="178" y="715.8516"/><text fill="#000000" font-family="sans-serif" font-size="20" lengthAdjust="spacing" textLength="265" x="192.5" y="741.416">Frontend des Versicherten</text><line style="stroke:#000000;stroke-width:1.0;" x1="178" x2="472" y1="751.1328" y2="751.1328"/><text fill="#000000" font-family="sans-serif" font-size="20" lengthAdjust="spacing" textLength="280" x="185" y="774.6973">Inhaber eines DeviceTokens</text><rect fill="#EFEFFF" height="37.2813" rx="2.5" ry="2.5" style="stroke:#000000;stroke-width:0.5;" width="214" x="534" y="50"/><text fill="#000000" font-family="sans-serif" font-size="20" lengthAdjust="spacing" textLength="141" x="570.5" y="75.5645">Push-Anbieter</text><rect fill="#EFEFFF" height="37.2813" rx="2.5" ry="2.5" style="stroke:#000000;stroke-width:0.5;" width="214" x="534" y="715.8516"/><text fill="#000000" font-family="sans-serif" font-size="20" lengthAdjust="spacing" textLength="141" x="570.5" y="741.416">Push-Anbieter</text><rect fill="#EFEFFF" height="37.2813" rx="2.5" ry="2.5" style="stroke:#000000;stroke-width:0.5;" width="214" x="795" y="50"/><text fill="#000000" font-family="sans-serif" font-size="20" lengthAdjust="spacing" textLength="143" x="830.5" y="75.5645">Push-Gateway</text><rect fill="#EFEFFF" height="37.2813" rx="2.5" ry="2.5" style="stroke:#000000;stroke-width:0.5;" width="214" x="795" y="715.8516"/><text fill="#000000" font-family="sans-serif" font-size="20" lengthAdjust="spacing" textLength="143" x="830.5" y="741.416">Push-Gateway</text><rect fill="#EFEFFF" height="37.2813" rx="2.5" ry="2.5" style="stroke:#000000;stroke-width:0.5;" width="214" x="1058" y="50"/><text fill="#000000" font-family="sans-serif" font-size="20" lengthAdjust="spacing" textLength="110" x="1110" y="75.5645">Fachdienst</text><rect fill="#EFEFFF" height="37.2813" rx="2.5" ry="2.5" style="stroke:#000000;stroke-width:0.5;" width="214" x="1058" y="715.8516"/><text fill="#000000" font-family="sans-serif" font-size="20" lengthAdjust="spacing" textLength="110" x="1110" y="741.416">Fachdienst</text><rect fill="#DCDCDC" height="369.4688" style="stroke:#000000;stroke-width:1.0;" width="10" x="320" y="338.3828"/><rect fill="#DCDCDC" height="121.1563" style="stroke:#000000;stroke-width:1.0;" width="10" x="636" y="217.2266"/><rect fill="#DCDCDC" height="140.9453" style="stroke:#000000;stroke-width:1.0;" width="10" x="897" y="143.8594"/><rect fill="#DCDCDC" height="394.0469" style="stroke:#000000;stroke-width:1.0;" width="10" x="1160" y="98.2813"/><polygon fill="#000000" points="918,139.8594,908,143.8594,918,147.8594,914,143.8594" style="stroke:#000000;stroke-width:1.0;"/><line style="stroke:#000000;stroke-width:1.0;" x1="912" x2="1159" y1="143.8594" y2="143.8594"/><text fill="#000000" font-family="sans-serif" font-size="17" font-weight="bold" lengthAdjust="spacing" textLength="12" x="919" y="127.9556">1</text><text fill="#000000" font-family="sans-serif" font-size="17" lengthAdjust="spacing" textLength="147" x="935" y="118.061">Benachrichtigung</text><text fill="#000000" font-family="sans-serif" font-size="17" lengthAdjust="spacing" textLength="24" x="935" y="137.8501">f&#252;r</text><text fill="#000000" font-family="sans-serif" font-size="17" lengthAdjust="spacing" textLength="5" x="959" y="137.8501">&#160;</text><text fill="#000000" font-family="sans-serif" font-size="17" lengthAdjust="spacing" textLength="189" x="964" y="137.8501">DeviceToken(EventID)</text><polygon fill="#000000" points="657,213.2266,647,217.2266,657,221.2266,653,217.2266" style="stroke:#000000;stroke-width:1.0;"/><line style="stroke:#000000;stroke-width:1.0;" x1="651" x2="896" y1="217.2266" y2="217.2266"/><text fill="#000000" font-family="sans-serif" font-size="17" font-weight="bold" lengthAdjust="spacing" textLength="12" x="658" y="191.4282">2</text><text fill="#000000" font-family="sans-serif" font-size="17" lengthAdjust="spacing" textLength="147" x="674" y="171.6392">Benachrichtigung</text><text fill="#000000" font-family="sans-serif" font-size="17" lengthAdjust="spacing" textLength="24" x="674" y="191.4282">f&#252;r</text><text fill="#000000" font-family="sans-serif" font-size="17" lengthAdjust="spacing" textLength="5" x="698" y="191.4282">&#160;</text><text fill="#000000" font-family="sans-serif" font-size="17" lengthAdjust="spacing" textLength="187" x="703" y="191.4282">DeviceToken(EventID,</text><text fill="#000000" font-family="sans-serif" font-size="17" lengthAdjust="spacing" textLength="85" x="674" y="211.2173">SenderID)</text><polygon fill="#000000" points="885,247.0156,895,251.0156,885,255.0156,889,251.0156" style="stroke:#000000;stroke-width:1.0;"/><line style="stroke:#000000;stroke-width:1.0;stroke-dasharray:2.0,2.0;" x1="646" x2="891" y1="251.0156" y2="251.0156"/><text fill="#000000" font-family="sans-serif" font-size="17" font-weight="bold" lengthAdjust="spacing" textLength="12" x="653" y="245.0063">3</text><text fill="#000000" font-family="sans-serif" font-size="17" lengthAdjust="spacing" textLength="79" x="669" y="245.0063">Response</text><polygon fill="#000000" points="1148,280.8047,1158,284.8047,1148,288.8047,1152,284.8047" style="stroke:#000000;stroke-width:1.0;"/><line style="stroke:#000000;stroke-width:1.0;stroke-dasharray:2.0,2.0;" x1="902" x2="1154" y1="284.8047" y2="284.8047"/><text fill="#000000" font-family="sans-serif" font-size="17" font-weight="bold" lengthAdjust="spacing" textLength="12" x="909" y="278.7954">4</text><text fill="#000000" font-family="sans-serif" font-size="17" lengthAdjust="spacing" textLength="79" x="925" y="278.7954">Response</text><polygon fill="#000000" points="341,334.3828,331,338.3828,341,342.3828,337,338.3828" style="stroke:#000000;stroke-width:1.0;"/><line style="stroke:#000000;stroke-width:1.0;" x1="335" x2="640" y1="338.3828" y2="338.3828"/><text fill="#000000" font-family="sans-serif" font-size="17" font-weight="bold" lengthAdjust="spacing" textLength="12" x="356" y="322.479">5</text><text fill="#000000" font-family="sans-serif" font-size="17" lengthAdjust="spacing" textLength="147" x="372" y="312.5845">Benachrichtigung</text><text fill="#000000" font-family="sans-serif" font-size="17" lengthAdjust="spacing" textLength="5" x="519" y="312.5845">&#160;</text><text fill="#000000" font-family="sans-serif" font-size="17" lengthAdjust="spacing" textLength="21" x="524" y="312.5845">an</text><text fill="#000000" font-family="sans-serif" font-size="17" lengthAdjust="spacing" textLength="172" x="372" y="332.3735">Empf&#228;nger(EventID,</text><text fill="#000000" font-family="sans-serif" font-size="17" lengthAdjust="spacing" textLength="5" x="544" y="332.3735">&#160;</text><text fill="#000000" font-family="sans-serif" font-size="17" lengthAdjust="spacing" textLength="85" x="549" y="332.3735">SenderID)</text><line style="stroke:#000000;stroke-width:1.0;" x1="330" x2="372" y1="372.1719" y2="372.1719"/><line style="stroke:#000000;stroke-width:1.0;" x1="372" x2="372" y1="372.1719" y2="385.1719"/><line style="stroke:#000000;stroke-width:1.0;" x1="331" x2="372" y1="385.1719" y2="385.1719"/><polygon fill="#000000" points="341,381.1719,331,385.1719,341,389.1719,337,385.1719" style="stroke:#000000;stroke-width:1.0;"/><text fill="#000000" font-family="sans-serif" font-size="17" font-weight="bold" lengthAdjust="spacing" textLength="12" x="337" y="366.1626">6</text><text fill="#000000" font-family="sans-serif" font-size="17" lengthAdjust="spacing" textLength="68" x="353" y="366.1626">ermittle</text><text fill="#000000" font-family="sans-serif" font-size="17" lengthAdjust="spacing" textLength="5" x="421" y="366.1626">&#160;</text><text fill="#000000" font-family="sans-serif" font-size="17" lengthAdjust="spacing" textLength="182" x="426" y="366.1626">Fachdienst(SenderID)</text><polygon fill="#000000" points="1148,434.75,1158,438.75,1148,442.75,1152,438.75" style="stroke:#000000;stroke-width:1.0;"/><line style="stroke:#000000;stroke-width:1.0;" x1="330" x2="1154" y1="438.75" y2="438.75"/><text fill="#000000" font-family="sans-serif" font-size="17" font-weight="bold" lengthAdjust="spacing" textLength="12" x="337" y="422.8462">7</text><text fill="#000000" font-family="sans-serif" font-size="17" lengthAdjust="spacing" textLength="64" x="353" y="412.9517">Abfrage</text><text fill="#000000" font-family="sans-serif" font-size="17" lengthAdjust="spacing" textLength="5" x="417" y="412.9517">&#160;</text><text fill="#000000" font-family="sans-serif" font-size="17" lengthAdjust="spacing" textLength="27" x="422" y="412.9517">der</text><text fill="#000000" font-family="sans-serif" font-size="17" lengthAdjust="spacing" textLength="5" x="449" y="412.9517">&#160;</text><text fill="#000000" font-family="sans-serif" font-size="17" lengthAdjust="spacing" textLength="51" x="454" y="412.9517">Daten</text><text fill="#000000" font-family="sans-serif" font-size="17" lengthAdjust="spacing" textLength="5" x="505" y="412.9517">&#160;</text><text fill="#000000" font-family="sans-serif" font-size="17" lengthAdjust="spacing" textLength="19" x="510" y="412.9517">zu</text><text fill="#000000" font-family="sans-serif" font-size="17" lengthAdjust="spacing" textLength="131" x="353" y="432.7407">Event(EventID)</text><polygon fill="#000000" points="341,488.3281,331,492.3281,341,496.3281,337,492.3281" style="stroke:#000000;stroke-width:1.0;"/><line style="stroke:#000000;stroke-width:1.0;stroke-dasharray:2.0,2.0;" x1="335" x2="1164" y1="492.3281" y2="492.3281"/><text fill="#000000" font-family="sans-serif" font-size="17" font-weight="bold" lengthAdjust="spacing" textLength="12" x="928" y="476.4243">8</text><text fill="#000000" font-family="sans-serif" font-size="17" lengthAdjust="spacing" textLength="119" x="944" y="466.5298">Verschl&#252;sselte</text><text fill="#000000" font-family="sans-serif" font-size="17" lengthAdjust="spacing" textLength="214" x="944" y="486.3188">Benachrichtigungsinhalte</text><line style="stroke:#000000;stroke-width:1.0;" x1="330" x2="372" y1="565.6953" y2="565.6953"/><line style="stroke:#000000;stroke-width:1.0;" x1="372" x2="372" y1="565.6953" y2="578.6953"/><line style="stroke:#000000;stroke-width:1.0;" x1="331" x2="372" y1="578.6953" y2="578.6953"/><polygon fill="#000000" points="341,574.6953,331,578.6953,341,582.6953,337,578.6953" style="stroke:#000000;stroke-width:1.0;"/><text fill="#000000" font-family="sans-serif" font-size="17" font-weight="bold" lengthAdjust="spacing" textLength="12" x="337" y="539.897">9</text><text fill="#000000" font-family="sans-serif" font-size="17" lengthAdjust="spacing" textLength="113" x="353" y="520.1079">Entschl&#252;ssele</text><text fill="#000000" font-family="sans-serif" font-size="17" lengthAdjust="spacing" textLength="126" x="353" y="539.897">(Verschl&#252;sselte</text><text fill="#000000" font-family="sans-serif" font-size="17" lengthAdjust="spacing" textLength="221" x="353" y="559.686">Benachrichtigungsinhalte)</text><line style="stroke:#000000;stroke-width:1.0;" x1="330" x2="372" y1="652.0625" y2="652.0625"/><line style="stroke:#000000;stroke-width:1.0;" x1="372" x2="372" y1="652.0625" y2="665.0625"/><line style="stroke:#000000;stroke-width:1.0;" x1="331" x2="372" y1="665.0625" y2="665.0625"/><polygon fill="#000000" points="341,661.0625,331,665.0625,341,669.0625,337,665.0625" style="stroke:#000000;stroke-width:1.0;"/><text fill="#000000" font-family="sans-serif" font-size="17" font-weight="bold" lengthAdjust="spacing" textLength="24" x="337" y="626.2642">10</text><text fill="#000000" font-family="sans-serif" font-size="17" lengthAdjust="spacing" textLength="66" x="365" y="606.4751">erzeuge</text><text fill="#000000" font-family="sans-serif" font-size="17" lengthAdjust="spacing" textLength="230" x="365" y="626.2642">Anwenderbenachrichtigung</text><text fill="#000000" font-family="sans-serif" font-size="17" lengthAdjust="spacing" textLength="5" x="595" y="626.2642">&#160;</text><text fill="#000000" font-family="sans-serif" font-size="17" lengthAdjust="spacing" textLength="29" x="600" y="626.2642">mit</text><text fill="#000000" font-family="sans-serif" font-size="17" lengthAdjust="spacing" textLength="5" x="365" y="646.0532">&#160;</text><text fill="#000000" font-family="sans-serif" font-size="17" lengthAdjust="spacing" textLength="31" x="370" y="646.0532">den</text><text fill="#000000" font-family="sans-serif" font-size="17" lengthAdjust="spacing" textLength="5" x="401" y="646.0532">&#160;</text><text fill="#000000" font-family="sans-serif" font-size="17" lengthAdjust="spacing" textLength="130" x="406" y="646.0532">entschl&#252;sselten</text><text fill="#000000" font-family="sans-serif" font-size="17" lengthAdjust="spacing" textLength="5" x="536" y="646.0532">&#160;</text><text fill="#000000" font-family="sans-serif" font-size="17" lengthAdjust="spacing" textLength="71" x="541" y="646.0532">Inhalten</text><polygon fill="#000000" points="80,694.8516,70,698.8516,80,702.8516,76,698.8516" style="stroke:#000000;stroke-width:1.0;"/><line style="stroke:#000000;stroke-width:1.0;" x1="74" x2="319" y1="698.8516" y2="698.8516"/><text fill="#000000" font-family="sans-serif" font-size="17" font-weight="bold" lengthAdjust="spacing" textLength="24" x="86" y="692.8423">11</text><text fill="#000000" font-family="sans-serif" font-size="17" lengthAdjust="spacing" textLength="47" x="114" y="692.8423">Zeige</text><text fill="#000000" font-family="sans-serif" font-size="17" lengthAdjust="spacing" textLength="5" x="161" y="692.8423">&#160;</text><text fill="#000000" font-family="sans-serif" font-size="17" lengthAdjust="spacing" textLength="147" x="166" y="692.8423">Benachrichtigung</text><!--SRC=[bLHDJzmm4BtxLumuWTILW5PgnG4forTNWe80KQcbXzbaahN8ZbFRoLAg_fl-36xyiKwyWPYmL6qEAslc-Rqtp_Qw6yqLMfo3e-yrSKedv1mMb9IwOCYqfTHhmyez0UUQzqfqxhFE_0osDpUZtjZSdc6MQIvWAoe_SfzJJhPTV2JCo8unlIcigJdRCwMnK659XIKIjLIMCCTRuN_t0HQjL6m1RpkR5_gEuAruMA46FrLYhLaioQUbg2qBXuPzsBZrNYMfDtPihDY9SSSwfsFDz9VEmFmHQdPJOurIPsYzJdM5xEFz9yRh1aEQCMB0inhrP7bxSrYEpRsYF7xH78gUNawkail9wIVL9VBgTA4zr7qgFdhyfHJMtd0zdv9L85_umHO73Q23jIkoJgSpifxiMkXMlK78imQ-XYh0eHLcuWmoSX1juwu_agzRJdY6eWWa9-HWdngTqgMv8NO1yEs5JeN1p5djPgE4fvfMkgcA7dM4dXRuOvNb03h4T9PfKVHh4a8QJfEagV9ij5iLEp0c5eYL8RmkQdagrvm_tDlOxVf1G-md-nizGLMegX02_2-2Dt0XmP5zJeMgmj7Ip3cvoh2ZbdoqcsTH9QDdujYscnNgo70mh_A7troGNIKS4s4SIIEPD1qjsRdsNbvzdzzwJz7XTY2PvbRUlLm5cLTO6Evg29fzPX9qHzfUbdHMFjmxHwL83hqxBVT56h75S5ATgmFs_NwIdDV_bN6Z9o5xHxLOJdWHvfaE0vJ1h-M_LcQXMAyTRh9auoLRi_E5TF5ILFq1]--></g></svg>