<?xml version="1.0" encoding="us-ascii" standalone="no"?><svg xmlns="http://www.w3.org/2000/svg" xmlns:xlink="http://www.w3.org/1999/xlink" contentStyleType="text/css" height="417px" preserveAspectRatio="none" style="width:740px;height:417px;background:#FFFFFF;" version="1.1" viewBox="0 0 740 417" width="740px" zoomAndPan="magnify"><defs/><g><rect fill="#F5F5F5" height="405.3516" style="stroke:#181818;stroke-width:0.5;" width="718" x="16" y="6"/><text fill="#000000" font-family="sans-serif" font-size="18" font-weight="bold" lengthAdjust="spacing" textLength="193" x="278.5" y="22.708">Messenger-Service</text><text fill="#000000" font-family="sans-serif" font-size="13" font-weight="bold" lengthAdjust="spacing" textLength="5" x="278.5" y="39.02">&#160;</text><rect fill="#DCDCDC" height="266.7031" style="stroke:#000000;stroke-width:1.0;" width="10" x="122" y="94.3672"/><rect fill="#DCDCDC" height="33.7891" style="stroke:#000000;stroke-width:1.0;" width="10" x="618" y="318.2813"/><rect fill="#FFE4E1" height="67.5469" style="stroke:#000000;stroke-width:1.5;" width="527" x="10" y="217.9453"/><line style="stroke:#000000;stroke-width:0.5;stroke-dasharray:5.0,5.0;" x1="127" x2="127" y1="84.3672" y2="370.0703"/><line style="stroke:#000000;stroke-width:0.5;stroke-dasharray:5.0,5.0;" x1="623" x2="623" y1="84.3672" y2="370.0703"/><rect fill="#EFEFFF" height="37.2813" rx="2.5" ry="2.5" style="stroke:#000000;stroke-width:0.5;" width="214" x="20" y="46.0859"/><text fill="#000000" font-family="sans-serif" font-size="20" lengthAdjust="spacing" textLength="168" x="43" y="71.6504">Messenger-Proxy</text><rect fill="#EFEFFF" height="37.2813" rx="2.5" ry="2.5" style="stroke:#000000;stroke-width:0.5;" width="214" x="20" y="369.0703"/><text fill="#000000" font-family="sans-serif" font-size="20" lengthAdjust="spacing" textLength="168" x="43" y="394.6348">Messenger-Proxy</text><rect fill="#EFEFFF" height="37.2813" rx="2.5" ry="2.5" style="stroke:#000000;stroke-width:0.5;" width="214" x="516" y="46.0859"/><text fill="#000000" font-family="sans-serif" font-size="20" lengthAdjust="spacing" textLength="189" x="528.5" y="71.6504">Matrix-Homeserver</text><rect fill="#EFEFFF" height="37.2813" rx="2.5" ry="2.5" style="stroke:#000000;stroke-width:0.5;" width="214" x="516" y="369.0703"/><text fill="#000000" font-family="sans-serif" font-size="20" lengthAdjust="spacing" textLength="189" x="528.5" y="394.6348">Matrix-Homeserver</text><rect fill="#DCDCDC" height="266.7031" style="stroke:#000000;stroke-width:1.0;" width="10" x="122" y="94.3672"/><rect fill="#DCDCDC" height="33.7891" style="stroke:#000000;stroke-width:1.0;" width="10" x="618" y="318.2813"/><line style="stroke:#000000;stroke-width:1.0;" x1="132" x2="174" y1="164.9453" y2="164.9453"/><line style="stroke:#000000;stroke-width:1.0;" x1="174" x2="174" y1="164.9453" y2="177.9453"/><line style="stroke:#000000;stroke-width:1.0;" x1="133" x2="174" y1="177.9453" y2="177.9453"/><polygon fill="#000000" points="143,173.9453,133,177.9453,143,181.9453,139,177.9453" style="stroke:#000000;stroke-width:1.0;"/><text fill="#000000" font-family="sans-serif" font-size="17" font-weight="bold" lengthAdjust="spacing" textLength="12" x="139" y="149.0415">1</text><text fill="#000000" font-family="sans-serif" font-size="17" lengthAdjust="spacing" textLength="456" x="155" y="139.147">pr&#252;fe den Sender und den Empf&#228;nger des Invite-Event</text><text fill="#000000" font-family="sans-serif" font-size="17" lengthAdjust="spacing" textLength="395" x="160" y="158.936">auf Zugeh&#246;rigkeit zu einer Versichertendomain</text><path d="M10,217.9453 L98,217.9453 L98,225.0781 L88,235.0781 L10,235.0781 L10,217.9453 " fill="#EEEEEE" style="stroke:#000000;stroke-width:1.5;"/><rect fill="none" height="67.5469" style="stroke:#000000;stroke-width:1.5;" width="527" x="10" y="217.9453"/><text fill="#000000" font-family="sans-serif" font-size="13" font-weight="bold" lengthAdjust="spacing" textLength="43" x="25" y="231.0122">break</text><text fill="#000000" font-family="sans-serif" font-size="11" font-weight="bold" lengthAdjust="spacing" textLength="5" x="113" y="235.9761">[</text><text fill="#000000" font-family="sans-serif" font-size="16" font-weight="bold" lengthAdjust="spacing" textLength="409" x="118" y="234.7969">Sender und Empf&#228;nger sind beide Versicherte</text><text fill="#000000" font-family="sans-serif" font-size="11" font-weight="bold" lengthAdjust="spacing" textLength="5" x="527" y="235.9761">]</text><line style="stroke:#000000;stroke-width:1.0;" x1="132" x2="174" y1="264.4922" y2="264.4922"/><line style="stroke:#000000;stroke-width:1.0;" x1="174" x2="174" y1="264.4922" y2="277.4922"/><line style="stroke:#000000;stroke-width:1.0;" x1="133" x2="174" y1="277.4922" y2="277.4922"/><polygon fill="#000000" points="143,273.4922,133,277.4922,143,281.4922,139,277.4922" style="stroke:#000000;stroke-width:1.0;"/><text fill="#000000" font-family="sans-serif" font-size="17" font-weight="bold" lengthAdjust="spacing" textLength="12" x="139" y="258.4829">2</text><text fill="#FF0000" font-family="sans-serif" font-size="17" lengthAdjust="spacing" textLength="169" x="155" y="258.4829">HTTP 403 Forbidden</text><polygon fill="#000000" points="606,314.2813,616,318.2813,606,322.2813,610,318.2813" style="stroke:#000000;stroke-width:1.0;"/><line style="stroke:#000000;stroke-width:1.0;" x1="132" x2="612" y1="318.2813" y2="318.2813"/><text fill="#000000" font-family="sans-serif" font-size="17" font-weight="bold" lengthAdjust="spacing" textLength="12" x="139" y="312.272">3</text><text fill="#000000" font-family="sans-serif" font-size="17" lengthAdjust="spacing" textLength="142" x="155" y="312.272">HTTP(S) Forward</text><polygon fill="#000000" points="143,348.0703,133,352.0703,143,356.0703,139,352.0703" style="stroke:#000000;stroke-width:1.0;"/><line style="stroke:#000000;stroke-width:1.0;stroke-dasharray:2.0,2.0;" x1="137" x2="622" y1="352.0703" y2="352.0703"/><text fill="#000000" font-family="sans-serif" font-size="17" font-weight="bold" lengthAdjust="spacing" textLength="12" x="546" y="346.061">4</text><text fill="#000000" font-family="sans-serif" font-size="17" lengthAdjust="spacing" textLength="54" x="562" y="346.061">Status</text><!--SRC=[VLBHJjim57ttLrp1o_PGqJAqeQgBr39OAX68I0NIn8iJtwHM6pkxTafXtT_i6_Qqj_xOx6OjKO7voRxtt7EEZsrcKbMSU0a6lzUeCepG65xWS2uB1K8IPbPgnSmEM4frDkV6t4bXft3SxRPw8xsCkH1I5T1hbRVSDvWZ-Ks8N22DU3OhIDTAdEcv9gZu70j2T6gPsqB9bux_v1GUl1HxXH1-i26HVcZcqxaZR0eNMjb4FY7qFh5XPZMDD3d5DkvIvdWf5Vwdi-VlAvVAf9eqOp4dApDPSMNRyv6sSi4tWRKHUpoletQMZxlxvRQvDvH7BvhxejUJyUrmChw-OlyIUVDsc_Q-xgwuzSX-CiPhgrLTfaYCWLkfNiB0E42_TnhuduIgGEeaI0kPuRqwl9jAYqcfPxZ1Lyz-8Og16pXudef9BnyFNkB21iSjoMKdr2KQHu_K8549xu8njbgjl6cVD3fo5iMT88hxKD7wJuuWK47Yq4ZW8jWSpyigN__oskveOAmMpcpdV87AtYlWTGxVwWAdwzyaYnbA2qyreFid1BT8HcPJ9EiOTUcIX8r-IiXdS1X9OnzljC5jE1-3bdHBraXl7wN0DkNWo4y5iBl287Vl09b_dS-48WWdanXEkX_WGbCgXRlBuCX30kPKM3CMzi73tYNlFUg1asYb4x8ex3JSYUMsDkmBybRtBm00]--></g></svg>