<?xml version="1.0" encoding="us-ascii" standalone="no"?><svg xmlns="http://www.w3.org/2000/svg" xmlns:xlink="http://www.w3.org/1999/xlink" contentStyleType="text/css" height="1101px" preserveAspectRatio="none" style="width:1390px;height:1101px;background:#FFFFFF;" version="1.1" viewBox="0 0 1390 1101" width="1390px" zoomAndPan="magnify"><defs/><g><rect fill="#F5F5F5" height="1089.8125" style="stroke:#181818;stroke-width:0.5;" width="446" x="564" y="6"/><text fill="#000000" font-family="sans-serif" font-size="18" font-weight="bold" lengthAdjust="spacing" textLength="193" x="688" y="22.708">Messenger-Service</text><text fill="#000000" font-family="sans-serif" font-size="13" font-weight="bold" lengthAdjust="spacing" textLength="5" x="881" y="23.8872">&#160;</text><rect fill="#DCDCDC" height="673.3828" style="stroke:#000000;stroke-width:1.0;" width="10" x="237" y="268.1484"/><rect fill="#DCDCDC" height="586.0156" style="stroke:#000000;stroke-width:1.0;" width="10" x="670" y="301.9375"/><rect fill="#DCDCDC" height="333.3125" style="stroke:#000000;stroke-width:1.0;" width="10" x="894" y="520.8516"/><rect fill="#DCDCDC" height="101.3672" style="stroke:#000000;stroke-width:1.0;" width="10" x="1119" y="660.2188"/><rect fill="#FFE4E1" height="54.5469" style="stroke:#000000;stroke-width:1.5;" width="667" x="125" y="433.5156"/><line style="stroke:#000000;stroke-width:0.5;stroke-dasharray:5.0,5.0;" x1="58" x2="58" y1="92.5156" y2="1009.5313"/><line style="stroke:#000000;stroke-width:0.5;stroke-dasharray:5.0,5.0;" x1="242" x2="242" y1="92.5156" y2="1009.5313"/><line style="stroke:#000000;stroke-width:0.5;stroke-dasharray:5.0,5.0;" x1="675" x2="675" y1="92.5156" y2="1009.5313"/><line style="stroke:#000000;stroke-width:0.5;stroke-dasharray:5.0,5.0;" x1="899" x2="899" y1="92.5156" y2="1009.5313"/><line style="stroke:#000000;stroke-width:0.5;stroke-dasharray:5.0,5.0;" x1="1124" x2="1124" y1="92.5156" y2="1009.5313"/><line style="stroke:#000000;stroke-width:0.5;stroke-dasharray:5.0,5.0;" x1="1333" x2="1333" y1="92.5156" y2="1009.5313"/><text fill="#000000" font-family="Aapex" font-size="20" lengthAdjust="spacing" textLength="100" x="5" y="87.7988">Akteur - A</text><ellipse cx="58" cy="17.7344" fill="#DCDCDC" rx="8" ry="8" style="stroke:#000000;stroke-width:0.5;"/><path d="M58,25.7344 L58,52.7344 M45,33.7344 L71,33.7344 M58,52.7344 L45,67.7344 M58,52.7344 L71,67.7344 " fill="none" style="stroke:#000000;stroke-width:0.5;"/><text fill="#000000" font-family="Aapex" font-size="20" lengthAdjust="spacing" textLength="100" x="5" y="1027.0957">Akteur - A</text><ellipse cx="58" cy="1040.3125" fill="#DCDCDC" rx="8" ry="8" style="stroke:#000000;stroke-width:0.5;"/><path d="M58,1048.3125 L58,1075.3125 M45,1056.3125 L71,1056.3125 M58,1075.3125 L45,1090.3125 M58,1075.3125 L71,1090.3125 " fill="none" style="stroke:#000000;stroke-width:0.5;"/><rect fill="#F0F8FF" height="60.5625" rx="2.5" ry="2.5" style="stroke:#000000;stroke-width:0.5;" width="214" x="135" y="30.9531"/><text fill="#000000" font-family="Impact" font-size="20" lengthAdjust="spacing" textLength="139" x="172.5" y="56.5176">TI-Messenger-</text><text fill="#000000" font-family="Impact" font-size="20" lengthAdjust="spacing" textLength="79" x="202.5" y="79.7988">Client A</text><rect fill="#F0F8FF" height="60.5625" rx="2.5" ry="2.5" style="stroke:#000000;stroke-width:0.5;" width="214" x="135" y="1008.5313"/><text fill="#000000" font-family="Impact" font-size="20" lengthAdjust="spacing" textLength="139" x="172.5" y="1034.0957">TI-Messenger-</text><text fill="#000000" font-family="Impact" font-size="20" lengthAdjust="spacing" textLength="79" x="202.5" y="1057.377">Client A</text><rect fill="#EFEFFF" height="60.5625" rx="2.5" ry="2.5" style="stroke:#000000;stroke-width:0.5;" width="214" x="568" y="30.9531"/><text fill="#000000" font-family="Impact" font-size="20" lengthAdjust="spacing" textLength="114" x="618" y="56.5176">Messenger-</text><text fill="#000000" font-family="Impact" font-size="20" lengthAdjust="spacing" textLength="54" x="648" y="79.7988">Proxy</text><rect fill="#EFEFFF" height="60.5625" rx="2.5" ry="2.5" style="stroke:#000000;stroke-width:0.5;" width="214" x="568" y="1008.5313"/><text fill="#000000" font-family="Impact" font-size="20" lengthAdjust="spacing" textLength="114" x="618" y="1034.0957">Messenger-</text><text fill="#000000" font-family="Impact" font-size="20" lengthAdjust="spacing" textLength="54" x="648" y="1057.377">Proxy</text><rect fill="#EFEFFF" height="60.5625" rx="2.5" ry="2.5" style="stroke:#000000;stroke-width:0.5;" width="214" x="792" y="30.9531"/><text fill="#000000" font-family="Impact" font-size="20" lengthAdjust="spacing" textLength="69" x="864.5" y="56.5176">Matrix-</text><text fill="#000000" font-family="Impact" font-size="20" lengthAdjust="spacing" textLength="120" x="839" y="79.7988">Homeserver</text><rect fill="#EFEFFF" height="60.5625" rx="2.5" ry="2.5" style="stroke:#000000;stroke-width:0.5;" width="214" x="792" y="1008.5313"/><text fill="#000000" font-family="Impact" font-size="20" lengthAdjust="spacing" textLength="69" x="864.5" y="1034.0957">Matrix-</text><text fill="#000000" font-family="Impact" font-size="20" lengthAdjust="spacing" textLength="120" x="839" y="1057.377">Homeserver</text><rect fill="#F0F8FF" height="60.5625" rx="2.5" ry="2.5" style="stroke:#000000;stroke-width:0.5;" width="214" x="1017" y="30.9531"/><text fill="#000000" font-family="Impact" font-size="20" lengthAdjust="spacing" textLength="139" x="1054.5" y="56.5176">TI-Messenger-</text><text fill="#000000" font-family="Impact" font-size="20" lengthAdjust="spacing" textLength="79" x="1084.5" y="79.7988">Client B</text><rect fill="#F0F8FF" height="60.5625" rx="2.5" ry="2.5" style="stroke:#000000;stroke-width:0.5;" width="214" x="1017" y="1008.5313"/><text fill="#000000" font-family="Impact" font-size="20" lengthAdjust="spacing" textLength="139" x="1054.5" y="1034.0957">TI-Messenger-</text><text fill="#000000" font-family="Impact" font-size="20" lengthAdjust="spacing" textLength="79" x="1084.5" y="1057.377">Client B</text><text fill="#000000" font-family="Aapex" font-size="20" lengthAdjust="spacing" textLength="100" x="1280" y="87.7988">Akteur - B</text><ellipse cx="1333" cy="17.7344" fill="#DCDCDC" rx="8" ry="8" style="stroke:#000000;stroke-width:0.5;"/><path d="M1333,25.7344 L1333,52.7344 M1320,33.7344 L1346,33.7344 M1333,52.7344 L1320,67.7344 M1333,52.7344 L1346,67.7344 " fill="none" style="stroke:#000000;stroke-width:0.5;"/><text fill="#000000" font-family="Aapex" font-size="20" lengthAdjust="spacing" textLength="100" x="1280" y="1027.0957">Akteur - B</text><ellipse cx="1333" cy="1040.3125" fill="#DCDCDC" rx="8" ry="8" style="stroke:#000000;stroke-width:0.5;"/><path d="M1333,1048.3125 L1333,1075.3125 M1320,1056.3125 L1346,1056.3125 M1333,1075.3125 L1320,1090.3125 M1333,1075.3125 L1346,1090.3125 " fill="none" style="stroke:#000000;stroke-width:0.5;"/><rect fill="#DCDCDC" height="673.3828" style="stroke:#000000;stroke-width:1.0;" width="10" x="237" y="268.1484"/><rect fill="#DCDCDC" height="586.0156" style="stroke:#000000;stroke-width:1.0;" width="10" x="670" y="301.9375"/><rect fill="#DCDCDC" height="333.3125" style="stroke:#000000;stroke-width:1.0;" width="10" x="894" y="520.8516"/><rect fill="#DCDCDC" height="101.3672" style="stroke:#000000;stroke-width:1.0;" width="10" x="1119" y="660.2188"/><path d="M7,132.5156 L7,211.5156 L1383,211.5156 L1383,142.5156 L1373,132.5156 L7,132.5156 " fill="#FEFFDD" style="stroke:#181818;stroke-width:0.5;"/><path d="M1373,132.5156 L1373,142.5156 L1383,142.5156 L1373,132.5156 " fill="#FEFFDD" style="stroke:#181818;stroke-width:0.5;"/><text fill="#000000" font-family="sans-serif" font-size="13" lengthAdjust="spacing" textLength="4" x="189.5" y="149.5825">&#160;</text><text fill="#000000" font-family="sans-serif" font-size="17" lengthAdjust="spacing" textLength="1002" x="189.5" y="168.4282">Die Akteure sind auf demselben Messenger-Service angemeldet und im Besitz eines zugelassenen TI-Messenger-Clients.</text><text fill="#000000" font-family="sans-serif" font-size="17" lengthAdjust="spacing" textLength="473" x="189.5" y="188.2173">Ein Chatraum wurde durch den Einladenen eingerichtet.</text><text fill="#000000" font-family="sans-serif" font-size="13" lengthAdjust="spacing" textLength="4" x="189.5" y="204.2935">&#160;</text><polygon fill="#000000" points="225,264.1484,235,268.1484,225,272.1484,229,268.1484" style="stroke:#000000;stroke-width:1.0;"/><line style="stroke:#000000;stroke-width:1.0;" x1="58" x2="231" y1="268.1484" y2="268.1484"/><text fill="#000000" font-family="sans-serif" font-size="17" lengthAdjust="spacing" textLength="150" x="65" y="262.1392">Akteur B einladen</text><polygon fill="#000000" points="658,297.9375,668,301.9375,658,305.9375,662,301.9375" style="stroke:#000000;stroke-width:1.0;"/><line style="stroke:#000000;stroke-width:1.0;" x1="247" x2="664" y1="301.9375" y2="301.9375"/><text fill="#000000" font-family="sans-serif" font-size="17" lengthAdjust="spacing" textLength="404" x="254" y="295.9282">POST  /_matrix/client/v3/rooms/{roomId}/invite</text><line style="stroke:#000000;stroke-width:1.0;" x1="680" x2="722" y1="380.5156" y2="380.5156"/><line style="stroke:#000000;stroke-width:1.0;" x1="722" x2="722" y1="380.5156" y2="393.5156"/><line style="stroke:#000000;stroke-width:1.0;" x1="681" x2="722" y1="393.5156" y2="393.5156"/><polygon fill="#000000" points="691,389.5156,681,393.5156,691,397.5156,687,393.5156" style="stroke:#000000;stroke-width:1.0;"/><text fill="#000000" font-family="sans-serif" font-size="17" lengthAdjust="spacing" textLength="153" x="687" y="354.7173">Pr&#252;fungen Stufe 1</text><text fill="#000000" font-family="sans-serif" font-size="17" lengthAdjust="spacing" textLength="164" x="687" y="374.5063">Client-Server-Proxy</text><path d="M125,433.5156 L213,433.5156 L213,440.6484 L203,450.6484 L125,450.6484 L125,433.5156 " fill="#EEEEEE" style="stroke:#000000;stroke-width:1.5;"/><rect fill="none" height="54.5469" style="stroke:#000000;stroke-width:1.5;" width="667" x="125" y="433.5156"/><text fill="#000000" font-family="sans-serif" font-size="13" font-weight="bold" lengthAdjust="spacing" textLength="43" x="140" y="446.5825">break</text><text fill="#000000" font-family="sans-serif" font-size="11" font-weight="bold" lengthAdjust="spacing" textLength="5" x="228" y="451.5464">[</text><text fill="#000000" font-family="sans-serif" font-size="16" font-weight="bold" lengthAdjust="spacing" textLength="345" x="233" y="450.3672">Pr&#252;fung der Stufe 1 ist fehlgeschlagen</text><text fill="#000000" font-family="sans-serif" font-size="11" font-weight="bold" lengthAdjust="spacing" textLength="5" x="578" y="451.5464">]</text><polygon fill="#000000" points="258,476.0625,248,480.0625,258,484.0625,254,480.0625" style="stroke:#000000;stroke-width:1.0;"/><line style="stroke:#000000;stroke-width:1.0;" x1="252" x2="669" y1="480.0625" y2="480.0625"/><text fill="#FF0000" font-family="sans-serif" font-size="17" lengthAdjust="spacing" textLength="227" x="436" y="474.0532">Verbindung wird abgelehnt</text><polygon fill="#000000" points="882,516.8516,892,520.8516,882,524.8516,886,520.8516" style="stroke:#000000;stroke-width:1.0;"/><line style="stroke:#000000;stroke-width:1.0;" x1="680" x2="888" y1="520.8516" y2="520.8516"/><text fill="#000000" font-family="sans-serif" font-size="17" lengthAdjust="spacing" textLength="135" x="687" y="514.8423">HTTP(S) Foward</text><line style="stroke:#000000;stroke-width:1.0;" x1="904" x2="946" y1="554.6406" y2="554.6406"/><line style="stroke:#000000;stroke-width:1.0;" x1="946" x2="946" y1="554.6406" y2="567.6406"/><line style="stroke:#000000;stroke-width:1.0;" x1="905" x2="946" y1="567.6406" y2="567.6406"/><polygon fill="#000000" points="915,563.6406,905,567.6406,915,571.6406,911,567.6406" style="stroke:#000000;stroke-width:1.0;"/><text fill="#000000" font-family="sans-serif" font-size="17" lengthAdjust="spacing" textLength="151" x="911" y="548.6313">Invite verarbeiten</text><polygon fill="#000000" points="691,622.4297,681,626.4297,691,630.4297,687,626.4297" style="stroke:#000000;stroke-width:1.0;"/><line style="stroke:#000000;stroke-width:1.0;stroke-dasharray:2.0,2.0;" x1="685" x2="893" y1="626.4297" y2="626.4297"/><text fill="#000000" font-family="sans-serif" font-size="17" lengthAdjust="spacing" textLength="122" x="765" y="620.4204">Invite Request</text><polygon fill="#000000" points="1107,656.2188,1117,660.2188,1107,664.2188,1111,660.2188" style="stroke:#000000;stroke-width:1.0;"/><line style="stroke:#000000;stroke-width:1.0;" x1="680" x2="1113" y1="660.2188" y2="660.2188"/><text fill="#000000" font-family="sans-serif" font-size="17" lengthAdjust="spacing" textLength="142" x="687" y="654.2095">HTTP(S) Forward</text><polygon fill="#000000" points="1321,690.0078,1331,694.0078,1321,698.0078,1325,694.0078" style="stroke:#000000;stroke-width:1.0;"/><line style="stroke:#000000;stroke-width:1.0;" x1="1129" x2="1327" y1="694.0078" y2="694.0078"/><text fill="#000000" font-family="sans-serif" font-size="17" lengthAdjust="spacing" textLength="164" x="1136" y="687.9985">Einladung anzeigen</text><polygon fill="#000000" points="1140,723.7969,1130,727.7969,1140,731.7969,1136,727.7969" style="stroke:#000000;stroke-width:1.0;"/><line style="stroke:#000000;stroke-width:1.0;stroke-dasharray:2.0,2.0;" x1="1134" x2="1332" y1="727.7969" y2="727.7969"/><text fill="#000000" font-family="sans-serif" font-size="17" lengthAdjust="spacing" textLength="180" x="1146" y="721.7876">Einladung annehmen</text><polygon fill="#000000" points="691,757.5859,681,761.5859,691,765.5859,687,761.5859" style="stroke:#000000;stroke-width:1.0;"/><line style="stroke:#000000;stroke-width:1.0;stroke-dasharray:2.0,2.0;" x1="685" x2="1123" y1="761.5859" y2="761.5859"/><text fill="#000000" font-family="sans-serif" font-size="17" lengthAdjust="spacing" textLength="206" x="911" y="755.5767">Einladung angenommen</text><polygon fill="#000000" points="882,816.375,892,820.375,882,824.375,886,820.375" style="stroke:#000000;stroke-width:1.0;"/><line style="stroke:#000000;stroke-width:1.0;" x1="680" x2="888" y1="820.375" y2="820.375"/><text fill="#000000" font-family="sans-serif" font-size="17" lengthAdjust="spacing" textLength="142" x="687" y="814.3657">HTTP(S) Forward</text><polygon fill="#000000" points="691,850.1641,681,854.1641,691,858.1641,687,854.1641" style="stroke:#000000;stroke-width:1.0;"/><line style="stroke:#000000;stroke-width:1.0;stroke-dasharray:2.0,2.0;" x1="685" x2="898" y1="854.1641" y2="854.1641"/><text fill="#000000" font-family="sans-serif" font-size="17" lengthAdjust="spacing" textLength="54" x="838" y="848.1548">Status</text><polygon fill="#000000" points="258,883.9531,248,887.9531,258,891.9531,254,887.9531" style="stroke:#000000;stroke-width:1.0;"/><line style="stroke:#000000;stroke-width:1.0;stroke-dasharray:2.0,2.0;" x1="252" x2="674" y1="887.9531" y2="887.9531"/><text fill="#000000" font-family="sans-serif" font-size="17" lengthAdjust="spacing" textLength="54" x="614" y="881.9438">Status</text><polygon fill="#000000" points="69,937.5313,59,941.5313,69,945.5313,65,941.5313" style="stroke:#000000;stroke-width:1.0;"/><line style="stroke:#000000;stroke-width:1.0;stroke-dasharray:2.0,2.0;" x1="63" x2="241" y1="941.5313" y2="941.5313"/><text fill="#000000" font-family="sans-serif" font-size="17" lengthAdjust="spacing" textLength="113" x="80" y="915.7329">Nutzer in den</text><text fill="#000000" font-family="sans-serif" font-size="17" lengthAdjust="spacing" textLength="155" x="80" y="935.522">Raum hinzugef&#252;gt</text><!--SRC=[VLJ1Rjiu4BthAmR9fGkiwrYxQ0iZDM1xjsi3TIB4Jdi9KD3IM28iaLwIYbqt-RFS-cCTKf93sKbpS2JEcvdt7cUarrnic685QFo_H17Z3BLcAGvpdWf8kCBOS2a2VG0MN8npflLNdfWCmeiBBpQIkuWb2HSfzBpZflODhb3PXmco1DM8nUjKoL8aOvbB1HkMOweGgLjCZr2m7TN_-mDiRQlWXOBm8nWg9RTL_ZAdWjN19odCdEyHUk-3OMoa6ab57NtSPxx2prpWRo97_FvZNEYbL3888gOCZ_c62UFdpwJXzymPvYEEwhoCifIlM84mBJOiDiSXfoQyE3xsURz2QdGIFEPplPX-6IwcrrT1RTQhmbtukE_XiE5uE71wXco3k-0n0FfZDWAtFM0QpePhWwM23WpFN73pJ1765MGnxTY1H96YwjpHu76auF0Cpcb0Onpb9RhKfTp1fQRs_Tw7mNF67DKzmIwxDZI0ywyPDpWlvBhAQhUSHQwbtozISlVzx2NifC8oe_YEW1DPeAPcg2eqYiHoEfKL_aRMw4HMRLVOjcjKzGWU7Xu28Gs2fBvawf-4xCETg8ruF_Y7a_ik2q5peiJA5IHOQCoNAE349s3qLc2Ue06wVE2qqQYvsGFIEcZObodQrKT1sIqDbGBzrcl-BnSmpiWWLXQmBMaU8IbLd1410HJCwHDWwr1fgi3ZpA1vMz_KdN3YhChRNcSmxlLh7J2oU9VQ66HN2MbUtFkOqBEe3z7rV07G_LQu2-h6Zbxt_g-kahBGtH_stpHvx79nJnFHBZMBt7j30EYWBgf-FgrAOYjWRieLVLoQgtC6aWrkNbhPIuLi3USphitt6wcncT9tWwOQ-Q6QUa0mM66MfwZZBAVli6XcDsYOM3CkLxHS4DiT_AWm6Nn1jQJxjTMsND4zB-cYC1FcickHWsOcgxdnL4twC5aieZVpF-2Jt3ALr47VZacJCAaIfiup8BrCBP4UHGruTgo6LxRL-1lxpTR6HrWreSz0jIYqBpW4Bp0EEmCxxDKSMTrCx96d1ovkTC9ErS172SoA5ceSrZnz51MIHHkNeCV5EpzIVUBgiQQ3BtF3JAbRQhqU1zlhgjN5d-Ju6P6lgaSPjvHnLPez3HWjezsxEt5Zrp7ZmkxowkTJQbwHs0jQ0kdd5m00]--></g></svg>