<?xml version="1.0" encoding="us-ascii" standalone="no"?><svg xmlns="http://www.w3.org/2000/svg" xmlns:xlink="http://www.w3.org/1999/xlink" contentStyleType="text/css" height="1692px" preserveAspectRatio="none" style="width:1734px;height:1692px;background:#FFFFFF;" version="1.1" viewBox="0 0 1734 1692" width="1734px" zoomAndPan="magnify"><defs/><g><rect fill="#F5F5F5" height="1680.3281" style="stroke:#181818;stroke-width:0.5;" width="222" x="16" y="6"/><text fill="#000000" font-family="sans-serif" font-size="18" font-weight="bold" lengthAdjust="spacing" textLength="193" x="30.5" y="22.708">Messenger-Service</text><text fill="#000000" font-family="sans-serif" font-size="13" font-weight="bold" lengthAdjust="spacing" textLength="185" x="30.5" y="39.02">des einladenden Akteurs</text><text fill="#000000" font-family="sans-serif" font-size="13" font-weight="bold" lengthAdjust="spacing" textLength="5" x="30.5" y="54.1528">&#160;</text><rect fill="#F5F5F5" height="1680.3281" style="stroke:#181818;stroke-width:0.5;" width="747" x="270" y="6"/><text fill="#000000" font-family="sans-serif" font-size="18" font-weight="bold" lengthAdjust="spacing" textLength="193" x="546.5" y="22.708">Messenger-Service</text><text fill="#000000" font-family="sans-serif" font-size="13" font-weight="bold" lengthAdjust="spacing" textLength="194" x="546.5" y="39.02">des eingeladenen Akteurs</text><text fill="#000000" font-family="sans-serif" font-size="13" font-weight="bold" lengthAdjust="spacing" textLength="5" x="546.5" y="54.1528">&#160;</text><rect fill="#F5F5F5" height="1680.3281" style="stroke:#181818;stroke-width:0.5;" width="222" x="1049" y="6"/><text fill="#000000" font-family="sans-serif" font-size="18" font-weight="bold" lengthAdjust="spacing" textLength="176" x="1063" y="22.708">Messenger Client</text><text fill="#000000" font-family="sans-serif" font-size="13" font-weight="bold" lengthAdjust="spacing" textLength="194" x="1063" y="39.02">des eingeladenen Akteurs</text><text fill="#000000" font-family="sans-serif" font-size="13" font-weight="bold" lengthAdjust="spacing" textLength="5" x="1063" y="54.1528">&#160;</text><rect fill="#DCDCDC" height="691.4688" style="stroke:#000000;stroke-width:1.0;" width="10" x="122" y="158.5703"/><rect fill="#DCDCDC" height="691.4688" style="stroke:#000000;stroke-width:1.0;" width="10" x="376" y="158.5703"/><rect fill="#DCDCDC" height="101.3672" style="stroke:#000000;stroke-width:1.0;" width="10" x="376" y="930.4531"/><rect fill="#DCDCDC" height="101.3672" style="stroke:#000000;stroke-width:1.0;" width="10" x="376" y="1477.3984"/><rect fill="#DCDCDC" height="167.9453" style="stroke:#000000;stroke-width:1.0;" width="10" x="677" y="648.3047"/><rect fill="#DCDCDC" height="33.7891" style="stroke:#000000;stroke-width:1.0;" width="10" x="677" y="964.2422"/><rect fill="#DCDCDC" height="33.7891" style="stroke:#000000;stroke-width:1.0;" width="10" x="677" y="1511.1875"/><rect fill="#DCDCDC" height="33.7891" style="stroke:#000000;stroke-width:1.0;" width="10" x="901" y="748.6719"/><rect fill="#DCDCDC" height="694.9375" style="stroke:#000000;stroke-width:1.0;" width="10" x="1155" y="782.4609"/><rect fill="#ADD8E6" height="1149.4141" style="stroke:#000000;stroke-width:1.5;" width="1707" x="10" y="270.1953"/><rect fill="#ADD8E6" height="165.7813" style="stroke:none;stroke-width:1.0;" width="1707" x="10" y="436.1094"/><rect fill="#ADD8E6" height="817.7188" style="stroke:none;stroke-width:1.0;" width="1707" x="10" y="601.8906"/><rect fill="#EFEFFF" height="272.2109" style="stroke:#000000;stroke-width:1.5;" width="664" x="1043" y="1140.3984"/><rect fill="#EFEFFF" height="136.0391" style="stroke:none;stroke-width:1.0;" width="664" x="1043" y="1276.5703"/><line style="stroke:#000000;stroke-width:0.5;stroke-dasharray:5.0,5.0;" x1="127" x2="127" y1="122.7813" y2="1621.7656"/><line style="stroke:#000000;stroke-width:0.5;stroke-dasharray:5.0,5.0;" x1="381" x2="381" y1="122.7813" y2="1621.7656"/><line style="stroke:#000000;stroke-width:0.5;stroke-dasharray:5.0,5.0;" x1="682" x2="682" y1="122.7813" y2="1621.7656"/><line style="stroke:#000000;stroke-width:0.5;stroke-dasharray:5.0,5.0;" x1="906" x2="906" y1="122.7813" y2="1621.7656"/><line style="stroke:#000000;stroke-width:0.5;stroke-dasharray:5.0,5.0;" x1="1160" x2="1160" y1="122.7813" y2="1621.7656"/><rect fill="#EFEFFF" height="37.2813" rx="2.5" ry="2.5" style="stroke:#000000;stroke-width:0.5;" width="214" x="20" y="84.5"/><text fill="#000000" font-family="sans-serif" font-size="20" lengthAdjust="spacing" textLength="187" x="33.5" y="110.0645">Messenger-Service</text><rect fill="#EFEFFF" height="37.2813" rx="2.5" ry="2.5" style="stroke:#000000;stroke-width:0.5;" width="214" x="20" y="1620.7656"/><text fill="#000000" font-family="sans-serif" font-size="20" lengthAdjust="spacing" textLength="187" x="33.5" y="1646.3301">Messenger-Service</text><rect fill="#EFEFFF" height="60.5625" rx="2.5" ry="2.5" style="stroke:#000000;stroke-width:0.5;" width="214" x="274" y="61.2188"/><text fill="#000000" font-family="sans-serif" font-size="20" lengthAdjust="spacing" textLength="114" x="324" y="86.7832">Messenger-</text><text fill="#000000" font-family="sans-serif" font-size="20" lengthAdjust="spacing" textLength="54" x="354" y="110.0645">Proxy</text><rect fill="#EFEFFF" height="60.5625" rx="2.5" ry="2.5" style="stroke:#000000;stroke-width:0.5;" width="214" x="274" y="1620.7656"/><text fill="#000000" font-family="sans-serif" font-size="20" lengthAdjust="spacing" textLength="114" x="324" y="1646.3301">Messenger-</text><text fill="#000000" font-family="sans-serif" font-size="20" lengthAdjust="spacing" textLength="54" x="354" y="1669.6113">Proxy</text><rect fill="#EFEFFF" height="60.5625" rx="2.5" ry="2.5" style="stroke:#000000;stroke-width:0.5;" width="214" x="575" y="61.2188"/><text fill="#000000" font-family="sans-serif" font-size="20" lengthAdjust="spacing" textLength="69" x="647.5" y="86.7832">Matrix-</text><text fill="#000000" font-family="sans-serif" font-size="20" lengthAdjust="spacing" textLength="120" x="622" y="110.0645">Homeserver</text><rect fill="#EFEFFF" height="60.5625" rx="2.5" ry="2.5" style="stroke:#000000;stroke-width:0.5;" width="214" x="575" y="1620.7656"/><text fill="#000000" font-family="sans-serif" font-size="20" lengthAdjust="spacing" textLength="69" x="647.5" y="1646.3301">Matrix-</text><text fill="#000000" font-family="sans-serif" font-size="20" lengthAdjust="spacing" textLength="120" x="622" y="1669.6113">Homeserver</text><rect fill="#EFEFFF" height="60.5625" rx="2.5" ry="2.5" style="stroke:#000000;stroke-width:0.5;" width="214" x="799" y="61.2188"/><text fill="#000000" font-family="sans-serif" font-size="20" lengthAdjust="spacing" textLength="55" x="878.5" y="86.7832">Push-</text><text fill="#000000" font-family="sans-serif" font-size="20" lengthAdjust="spacing" textLength="64" x="874" y="110.0645">Dienst</text><rect fill="#EFEFFF" height="60.5625" rx="2.5" ry="2.5" style="stroke:#000000;stroke-width:0.5;" width="214" x="799" y="1620.7656"/><text fill="#000000" font-family="sans-serif" font-size="20" lengthAdjust="spacing" textLength="55" x="878.5" y="1646.3301">Push-</text><text fill="#000000" font-family="sans-serif" font-size="20" lengthAdjust="spacing" textLength="64" x="874" y="1669.6113">Dienst</text><rect fill="#EFEFFF" height="37.2813" rx="2.5" ry="2.5" style="stroke:#000000;stroke-width:0.5;" width="214" x="1053" y="84.5"/><text fill="#000000" font-family="sans-serif" font-size="20" lengthAdjust="spacing" textLength="173" x="1073.5" y="110.0645">Messenger-Client</text><rect fill="#EFEFFF" height="37.2813" rx="2.5" ry="2.5" style="stroke:#000000;stroke-width:0.5;" width="214" x="1053" y="1620.7656"/><text fill="#000000" font-family="sans-serif" font-size="20" lengthAdjust="spacing" textLength="173" x="1073.5" y="1646.3301">Messenger-Client</text><rect fill="#DCDCDC" height="691.4688" style="stroke:#000000;stroke-width:1.0;" width="10" x="122" y="158.5703"/><rect fill="#DCDCDC" height="691.4688" style="stroke:#000000;stroke-width:1.0;" width="10" x="376" y="158.5703"/><rect fill="#DCDCDC" height="101.3672" style="stroke:#000000;stroke-width:1.0;" width="10" x="376" y="930.4531"/><rect fill="#DCDCDC" height="101.3672" style="stroke:#000000;stroke-width:1.0;" width="10" x="376" y="1477.3984"/><rect fill="#DCDCDC" height="167.9453" style="stroke:#000000;stroke-width:1.0;" width="10" x="677" y="648.3047"/><rect fill="#DCDCDC" height="33.7891" style="stroke:#000000;stroke-width:1.0;" width="10" x="677" y="964.2422"/><rect fill="#DCDCDC" height="33.7891" style="stroke:#000000;stroke-width:1.0;" width="10" x="677" y="1511.1875"/><rect fill="#DCDCDC" height="33.7891" style="stroke:#000000;stroke-width:1.0;" width="10" x="901" y="748.6719"/><rect fill="#DCDCDC" height="694.9375" style="stroke:#000000;stroke-width:1.0;" width="10" x="1155" y="782.4609"/><polygon fill="#000000" points="364,154.5703,374,158.5703,364,162.5703,368,158.5703" style="stroke:#000000;stroke-width:1.0;"/><line style="stroke:#000000;stroke-width:1.0;" x1="132" x2="370" y1="158.5703" y2="158.5703"/><text fill="#000000" font-family="sans-serif" font-size="17" lengthAdjust="spacing" textLength="164" x="139" y="152.561">Matrix-Invite-Event</text><rect fill="#EEEEEE" height="3" style="stroke:#EEEEEE;stroke-width:1.0;" width="1727" x="0" y="213.8828"/><line style="stroke:#000000;stroke-width:1.0;" x1="0" x2="1727" y1="213.8828" y2="213.8828"/><line style="stroke:#000000;stroke-width:1.0;" x1="0" x2="1727" y1="216.8828" y2="216.8828"/><rect fill="#EEEEEE" height="26.625" style="stroke:#000000;stroke-width:2.0;" width="321" x="703" y="201.5703"/><text fill="#008000" font-family="sans-serif" font-size="16" font-weight="bold" lengthAdjust="spacing" textLength="285" x="721" y="220.4219">Berechtigungskonzept - Stufe 1</text><text fill="#000000" font-family="sans-serif" font-size="13" font-weight="bold" lengthAdjust="spacing" textLength="10" x="1006" y="221.1294">&#160;&#160;</text><path d="M10,270.1953 L74,270.1953 L74,277.3281 L64,287.3281 L10,287.3281 L10,270.1953 " fill="#D3D3D3" style="stroke:#000000;stroke-width:1.5;"/><rect fill="none" height="1149.4141" style="stroke:#000000;stroke-width:1.5;" width="1707" x="10" y="270.1953"/><text fill="#000000" font-family="sans-serif" font-size="13" font-weight="bold" lengthAdjust="spacing" textLength="19" x="25" y="283.2622">alt</text><text fill="#000000" font-family="sans-serif" font-size="11" font-weight="bold" lengthAdjust="spacing" textLength="5" x="89" y="288.2261">[</text><text fill="#000000" font-family="sans-serif" font-size="16" font-weight="bold" lengthAdjust="spacing" textLength="427" x="94" y="287.0469">Matrix-Domain nicht in der F&#246;deration enthalten</text><text fill="#000000" font-family="sans-serif" font-size="11" font-weight="bold" lengthAdjust="spacing" textLength="5" x="521" y="288.2261">]</text><line style="stroke:#000000;stroke-width:1.0;" x1="386" x2="428" y1="356.3203" y2="356.3203"/><line style="stroke:#000000;stroke-width:1.0;" x1="428" x2="428" y1="356.3203" y2="369.3203"/><line style="stroke:#000000;stroke-width:1.0;" x1="387" x2="428" y1="369.3203" y2="369.3203"/><polygon fill="#000000" points="397,365.3203,387,369.3203,397,373.3203,393,369.3203" style="stroke:#000000;stroke-width:1.0;"/><text fill="#FF0000" font-family="sans-serif" font-size="17" lengthAdjust="spacing" textLength="73" x="393" y="310.7329">Abbruch,</text><text fill="#FF0000" font-family="sans-serif" font-size="17" lengthAdjust="spacing" textLength="138" x="393" y="330.522">Verbindung wird</text><text fill="#FF0000" font-family="sans-serif" font-size="17" lengthAdjust="spacing" textLength="84" x="393" y="350.311">abgelehnt</text><polygon fill="#000000" points="143,399.1094,133,403.1094,143,407.1094,139,403.1094" style="stroke:#000000;stroke-width:1.0;"/><line style="stroke:#000000;stroke-width:1.0;" x1="137" x2="375" y1="403.1094" y2="403.1094"/><text fill="#000000" font-family="sans-serif" font-size="17" lengthAdjust="spacing" textLength="81" x="288" y="397.1001">HTTP 403</text><line style="stroke:#000000;stroke-width:1.0;stroke-dasharray:2.0,2.0;" x1="10" x2="1717" y1="437.1094" y2="437.1094"/><text fill="#000000" font-family="sans-serif" font-size="11" font-weight="bold" lengthAdjust="spacing" textLength="5" x="15" y="453.1401">[</text><text fill="#000000" font-family="sans-serif" font-size="16" font-weight="bold" lengthAdjust="spacing" textLength="494" x="20" y="451.9609">Einladender und der Eingeladene sind beide Versicherte</text><text fill="#000000" font-family="sans-serif" font-size="11" font-weight="bold" lengthAdjust="spacing" textLength="5" x="514" y="453.1401">]</text><line style="stroke:#000000;stroke-width:1.0;" x1="386" x2="428" y1="522.1016" y2="522.1016"/><line style="stroke:#000000;stroke-width:1.0;" x1="428" x2="428" y1="522.1016" y2="535.1016"/><line style="stroke:#000000;stroke-width:1.0;" x1="387" x2="428" y1="535.1016" y2="535.1016"/><polygon fill="#000000" points="397,531.1016,387,535.1016,397,539.1016,393,535.1016" style="stroke:#000000;stroke-width:1.0;"/><text fill="#FF0000" font-family="sans-serif" font-size="17" lengthAdjust="spacing" textLength="73" x="393" y="476.5142">Abbruch,</text><text fill="#FF0000" font-family="sans-serif" font-size="17" lengthAdjust="spacing" textLength="138" x="393" y="496.3032">Verbindung wird</text><text fill="#FF0000" font-family="sans-serif" font-size="17" lengthAdjust="spacing" textLength="84" x="393" y="516.0923">abgelehnt</text><polygon fill="#000000" points="143,564.8906,133,568.8906,143,572.8906,139,568.8906" style="stroke:#000000;stroke-width:1.0;"/><line style="stroke:#000000;stroke-width:1.0;" x1="137" x2="375" y1="568.8906" y2="568.8906"/><text fill="#000000" font-family="sans-serif" font-size="17" lengthAdjust="spacing" textLength="81" x="288" y="562.8813">HTTP 403</text><line style="stroke:#000000;stroke-width:1.0;stroke-dasharray:2.0,2.0;" x1="10" x2="1717" y1="602.8906" y2="602.8906"/><text fill="#000000" font-family="sans-serif" font-size="11" font-weight="bold" lengthAdjust="spacing" textLength="5" x="15" y="618.9214">[</text><text fill="#000000" font-family="sans-serif" font-size="16" font-weight="bold" lengthAdjust="spacing" textLength="748" x="20" y="617.7422">Beide Teilnehmer sind Teil der F&#246;deration und nur maximal einer ist ein Versicherter</text><text fill="#000000" font-family="sans-serif" font-size="11" font-weight="bold" lengthAdjust="spacing" textLength="5" x="768" y="618.9214">]</text><polygon fill="#000000" points="665,644.3047,675,648.3047,665,652.3047,669,648.3047" style="stroke:#000000;stroke-width:1.0;"/><line style="stroke:#000000;stroke-width:1.0;" x1="386" x2="671" y1="648.3047" y2="648.3047"/><text fill="#000000" font-family="sans-serif" font-size="17" lengthAdjust="spacing" textLength="142" x="393" y="642.2954">HTTP(S) Forward</text><line style="stroke:#000000;stroke-width:1.0;stroke-dasharray:2.0,2.0;" x1="687" x2="729" y1="701.8828" y2="701.8828"/><line style="stroke:#000000;stroke-width:1.0;stroke-dasharray:2.0,2.0;" x1="729" x2="729" y1="701.8828" y2="714.8828"/><line style="stroke:#000000;stroke-width:1.0;stroke-dasharray:2.0,2.0;" x1="688" x2="729" y1="714.8828" y2="714.8828"/><polygon fill="#000000" points="698,710.8828,688,714.8828,698,718.8828,694,714.8828" style="stroke:#000000;stroke-width:1.0;"/><text fill="#000000" font-family="sans-serif" font-size="17" lengthAdjust="spacing" textLength="104" x="694" y="676.0845">Invite-Event</text><text fill="#000000" font-family="sans-serif" font-size="17" lengthAdjust="spacing" textLength="97" x="694" y="695.8735">verarbeiten</text><polygon fill="#000000" points="889,744.6719,899,748.6719,889,752.6719,893,748.6719" style="stroke:#000000;stroke-width:1.0;"/><line style="stroke:#000000;stroke-width:1.0;" x1="687" x2="895" y1="748.6719" y2="748.6719"/><text fill="#000000" font-family="sans-serif" font-size="17" lengthAdjust="spacing" textLength="142" x="694" y="742.6626">Push Notification</text><polygon fill="#000000" points="1143,778.4609,1153,782.4609,1143,786.4609,1147,782.4609" style="stroke:#000000;stroke-width:1.0;"/><line style="stroke:#000000;stroke-width:1.0;" x1="906" x2="1149" y1="782.4609" y2="782.4609"/><text fill="#000000" font-family="sans-serif" font-size="17" lengthAdjust="spacing" textLength="142" x="913" y="776.4517">Push Notification</text><polygon fill="#000000" points="397,812.25,387,816.25,397,820.25,393,816.25" style="stroke:#000000;stroke-width:1.0;"/><line style="stroke:#000000;stroke-width:1.0;stroke-dasharray:2.0,2.0;" x1="391" x2="681" y1="816.25" y2="816.25"/><text fill="#000000" font-family="sans-serif" font-size="17" lengthAdjust="spacing" textLength="79" x="596" y="810.2407">Response</text><polygon fill="#000000" points="138,846.0391,128,850.0391,138,854.0391,134,850.0391" style="stroke:#000000;stroke-width:1.0;"/><line style="stroke:#000000;stroke-width:1.0;stroke-dasharray:2.0,2.0;" x1="132" x2="380" y1="850.0391" y2="850.0391"/><text fill="#000000" font-family="sans-serif" font-size="17" lengthAdjust="spacing" textLength="79" x="295" y="844.0298">Response</text><rect fill="#EEEEEE" height="3" style="stroke:#EEEEEE;stroke-width:1.0;" width="1727" x="0" y="880.3516"/><line style="stroke:#000000;stroke-width:1.0;" x1="0" x2="1727" y1="880.3516" y2="880.3516"/><line style="stroke:#000000;stroke-width:1.0;" x1="0" x2="1727" y1="883.3516" y2="883.3516"/><rect fill="#EEEEEE" height="26.625" style="stroke:#000000;stroke-width:2.0;" width="321" x="703" y="868.0391"/><text fill="#008000" font-family="sans-serif" font-size="16" font-weight="bold" lengthAdjust="spacing" textLength="285" x="721" y="886.8906">Berechtigungskonzept - Stufe 2</text><text fill="#000000" font-family="sans-serif" font-size="13" font-weight="bold" lengthAdjust="spacing" textLength="10" x="1006" y="887.5981">&#160;&#160;</text><polygon fill="#000000" points="397,926.4531,387,930.4531,397,934.4531,393,930.4531" style="stroke:#000000;stroke-width:1.0;"/><line style="stroke:#000000;stroke-width:1.0;" x1="391" x2="1154" y1="930.4531" y2="930.4531"/><text fill="#000000" font-family="sans-serif" font-size="17" lengthAdjust="spacing" textLength="180" x="968" y="924.4438">Abfrage neuer Events</text><polygon fill="#000000" points="665,960.2422,675,964.2422,665,968.2422,669,964.2422" style="stroke:#000000;stroke-width:1.0;"/><line style="stroke:#000000;stroke-width:1.0;" x1="386" x2="671" y1="964.2422" y2="964.2422"/><text fill="#000000" font-family="sans-serif" font-size="17" lengthAdjust="spacing" textLength="142" x="393" y="958.2329">HTTP(S) Forward</text><polygon fill="#000000" points="397,994.0313,387,998.0313,397,1002.0313,393,998.0313" style="stroke:#000000;stroke-width:1.0;"/><line style="stroke:#000000;stroke-width:1.0;stroke-dasharray:2.0,2.0;" x1="391" x2="681" y1="998.0313" y2="998.0313"/><text fill="#000000" font-family="sans-serif" font-size="17" lengthAdjust="spacing" textLength="234" x="441" y="992.022">Bereitstellung neuer Events</text><polygon fill="#000000" points="1143,1027.8203,1153,1031.8203,1143,1035.8203,1147,1031.8203" style="stroke:#000000;stroke-width:1.0;"/><line style="stroke:#000000;stroke-width:1.0;stroke-dasharray:2.0,2.0;" x1="381" x2="1149" y1="1031.8203" y2="1031.8203"/><text fill="#000000" font-family="sans-serif" font-size="17" lengthAdjust="spacing" textLength="142" x="388" y="1025.811">HTTP(S) Forward</text><line style="stroke:#000000;stroke-width:1.0;" x1="1165" x2="1207" y1="1065.6094" y2="1065.6094"/><line style="stroke:#000000;stroke-width:1.0;" x1="1207" x2="1207" y1="1065.6094" y2="1078.6094"/><line style="stroke:#000000;stroke-width:1.0;" x1="1166" x2="1207" y1="1078.6094" y2="1078.6094"/><polygon fill="#000000" points="1176,1074.6094,1166,1078.6094,1176,1082.6094,1172,1078.6094" style="stroke:#000000;stroke-width:1.0;"/><text fill="#000000" font-family="sans-serif" font-size="17" lengthAdjust="spacing" textLength="248" x="1172" y="1059.6001">Extrahieren der Invite-Events</text><line style="stroke:#000000;stroke-width:1.0;" x1="1165" x2="1207" y1="1112.3984" y2="1112.3984"/><line style="stroke:#000000;stroke-width:1.0;" x1="1207" x2="1207" y1="1112.3984" y2="1125.3984"/><line style="stroke:#000000;stroke-width:1.0;" x1="1166" x2="1207" y1="1125.3984" y2="1125.3984"/><polygon fill="#000000" points="1176,1121.3984,1166,1125.3984,1176,1129.3984,1172,1125.3984" style="stroke:#000000;stroke-width:1.0;"/><text fill="#000000" font-family="sans-serif" font-size="17" lengthAdjust="spacing" textLength="305" x="1172" y="1106.3892">Pr&#252;fung, ob die Einladung erlaubt ist</text><path d="M1043,1140.3984 L1107,1140.3984 L1107,1147.5313 L1097,1157.5313 L1043,1157.5313 L1043,1140.3984 " fill="#D3D3D3" style="stroke:#000000;stroke-width:1.5;"/><rect fill="none" height="272.2109" style="stroke:#000000;stroke-width:1.5;" width="664" x="1043" y="1140.3984"/><text fill="#000000" font-family="sans-serif" font-size="13" font-weight="bold" lengthAdjust="spacing" textLength="19" x="1058" y="1153.4653">alt</text><text fill="#000000" font-family="sans-serif" font-size="11" font-weight="bold" lengthAdjust="spacing" textLength="5" x="1122" y="1158.4292">[</text><text fill="#000000" font-family="sans-serif" font-size="16" font-weight="bold" lengthAdjust="spacing" textLength="539" x="1127" y="1157.25">Der Anwender hat "allow all" konfiguriert und der Einladende</text><text fill="#000000" font-family="sans-serif" font-size="16" font-weight="bold" lengthAdjust="spacing" textLength="569" x="1128" y="1175.875">ist auf der BlockedUser-Liste (Direkt oder als Teil einer Gruppe)</text><text fill="#000000" font-family="sans-serif" font-size="11" font-weight="bold" lengthAdjust="spacing" textLength="5" x="1697" y="1177.0542">]</text><line style="stroke:#000000;stroke-width:1.0;" x1="1165" x2="1207" y1="1230.5703" y2="1230.5703"/><line style="stroke:#000000;stroke-width:1.0;" x1="1207" x2="1207" y1="1230.5703" y2="1243.5703"/><line style="stroke:#000000;stroke-width:1.0;" x1="1166" x2="1207" y1="1243.5703" y2="1243.5703"/><polygon fill="#000000" points="1176,1239.5703,1166,1243.5703,1176,1247.5703,1172,1243.5703" style="stroke:#000000;stroke-width:1.0;"/><text fill="#FF0000" font-family="sans-serif" font-size="17" lengthAdjust="spacing" textLength="211" x="1172" y="1224.561">Einladung ist abzulehnen</text><line style="stroke:#000000;stroke-width:1.0;stroke-dasharray:2.0,2.0;" x1="1043" x2="1707" y1="1277.5703" y2="1277.5703"/><text fill="#000000" font-family="sans-serif" font-size="11" font-weight="bold" lengthAdjust="spacing" textLength="5" x="1048" y="1293.6011">[</text><text fill="#000000" font-family="sans-serif" font-size="16" font-weight="bold" lengthAdjust="spacing" textLength="542" x="1053" y="1292.4219">Der Anwender hat "block all" konfiguriert und der Einladende</text><text fill="#000000" font-family="sans-serif" font-size="16" font-weight="bold" lengthAdjust="spacing" textLength="617" x="1054" y="1311.0469">ist nicht auf der AllowedUser-Liste (Direkt oder als Teil einer Gruppe)</text><text fill="#000000" font-family="sans-serif" font-size="11" font-weight="bold" lengthAdjust="spacing" textLength="5" x="1671" y="1312.2261">]</text><line style="stroke:#000000;stroke-width:1.0;" x1="1165" x2="1207" y1="1366.6094" y2="1366.6094"/><line style="stroke:#000000;stroke-width:1.0;" x1="1207" x2="1207" y1="1366.6094" y2="1379.6094"/><line style="stroke:#000000;stroke-width:1.0;" x1="1166" x2="1207" y1="1379.6094" y2="1379.6094"/><polygon fill="#000000" points="1176,1375.6094,1166,1379.6094,1176,1383.6094,1172,1379.6094" style="stroke:#000000;stroke-width:1.0;"/><text fill="#FF0000" font-family="sans-serif" font-size="17" lengthAdjust="spacing" textLength="211" x="1172" y="1360.6001">Einladung ist abzulehnen</text><polygon fill="#000000" points="397,1473.3984,387,1477.3984,397,1481.3984,393,1477.3984" style="stroke:#000000;stroke-width:1.0;"/><line style="stroke:#000000;stroke-width:1.0;stroke-dasharray:2.0,2.0;" x1="391" x2="1159" y1="1477.3984" y2="1477.3984"/><text fill="#000000" font-family="sans-serif" font-size="17" lengthAdjust="spacing" textLength="267" x="886" y="1471.3892">Ergebnis der Einladungspr&#252;fung</text><polygon fill="#000000" points="665,1507.1875,675,1511.1875,665,1515.1875,669,1511.1875" style="stroke:#000000;stroke-width:1.0;"/><line style="stroke:#000000;stroke-width:1.0;" x1="386" x2="671" y1="1511.1875" y2="1511.1875"/><text fill="#000000" font-family="sans-serif" font-size="17" lengthAdjust="spacing" textLength="142" x="393" y="1505.1782">HTTP(S) Forward</text><polygon fill="#000000" points="397,1540.9766,387,1544.9766,397,1548.9766,393,1544.9766" style="stroke:#000000;stroke-width:1.0;"/><line style="stroke:#000000;stroke-width:1.0;stroke-dasharray:2.0,2.0;" x1="391" x2="681" y1="1544.9766" y2="1544.9766"/><text fill="#000000" font-family="sans-serif" font-size="17" lengthAdjust="spacing" textLength="267" x="408" y="1538.9673">Ergebnis der Einladungspr&#252;fung</text><polygon fill="#000000" points="138,1574.7656,128,1578.7656,138,1582.7656,134,1578.7656" style="stroke:#000000;stroke-width:1.0;"/><line style="stroke:#000000;stroke-width:1.0;stroke-dasharray:2.0,2.0;" x1="132" x2="380" y1="1578.7656" y2="1578.7656"/><text fill="#000000" font-family="sans-serif" font-size="17" lengthAdjust="spacing" textLength="142" x="232" y="1572.7563">HTTP(S) Forward</text><!--SRC=[pLR1Sjis5BppAzuebsGIJMmsRJCUIpEIB4kUiHrEg2ONNq3oYSI80bW0j1JN_QsUUikFzO6aI8gMqjIzv2GGMBtT1Tw2r2ikCgRO6ZJ-dgC8yGQrPZ6EKXuBYBZ2q70f75q3rrnCKgRrPnwP1DoJazRQM6uz5aLSn73wSsj-L_mZBb7PmHnPX6hCmbMiP2wYYKobWeob62j4eWjf26ks9O9txs5ZkPm31U4F1s2abDoK5OAKIkwcBgKmFdz0EFtLJeL6gh5KnBkFlUPBlEO2lxdMKJfZNEX0AkaGo6FAy91dJ9XsZHjf-3qhTcyVqwbr35VBTq-UBkpBFA9WV62vI_vXSVLfjBZwSElKUtJKQmLuobzFDthhgLksHXYn3BVEdquWjt2k2NHs-dveMmr5ZAhlexhd8Tw923KW5obr1uq5Z5O6SwNl1Bpud723_bgkqCaQFt3Z0zFGUrAhvr058BxlvOonOFq-Ki_jiDu9Jydjbzu-R5x1c55yIvYvNACcNbJxG6zMuBnS9uIwu2Yq-JS3C4a9PvwdVzBLNnPhE6_y_f1SdbNIhyGz5UfFxmdaiB1eMBJRq7hmdSV7HsSmWFCb7Jk4jaC6HPo7bVfVXW1ZkW32nF0u5x5UIV60cO4- -2PVKb3FtrhayFojBK7emQ0eobBpufh7YPaf_0BbS9pc27NXIkU5N5EtWk140JIWAC3brx_efmWOaFo4Yg6eYAXHoKHfjIrROJGS1O7Am-GDt8dkqYTK0HSHMQ2hIKK742oWyy14cCfAJUIVmNonyE3ToKyqPyqvc6g4nigqxdy55CB2mxGvNz3SdX7o285qQBAAok0FR6XSQ5qWJmKcQt9JEB3FJyx7-XMviZS_NxFKzZKXk3PsrBQhkdxdRgdZfVyABgNQC1NHMjETSzT2vsw_mhOxcknI99cYJQNMg713R_RwzHdOJC8jNT5B7jQNz8oAJAZKuUM6TD8YfGE1ZwWpAJJIR8HTRLu1yu-YFBSpuJl_BstkWRI15Lsf7GLBHPy2832tBMXtIk_PyzndRR-jROLnemscgMsw3iMnpPaSPEbiKkt1egTRerZ2xLT7qMpjOzTxI4zz_Nj9Mjw03EZ31w7CeLM7AcLvO6mVskgTswXvXJOjVq5K8x4fGvmm0psMfd93VqrxGEUmf1DHfCgq4rwbdh9N7w3jV9Ol2yGubU4Aez_e1TA_fWM4bnVqVROo8EqoItMPgJ8pCvLd6RvgOb9cq_xMdhiPRnmNlC53RXDlByjTv7T5YeH_msrWjJxBRNbrxpoFxAxzA9v5P5-FJl56Ak9Vjl9KnHW8hbl6RDgogf-STdjEtFstv_7mx0MW5Pp_mZOl2PfBkatGIGsP-WS0]--></g></svg>