<?xml version="1.0" encoding="us-ascii" standalone="no"?><svg xmlns="http://www.w3.org/2000/svg" xmlns:xlink="http://www.w3.org/1999/xlink" contentStyleType="text/css" height="1699px" preserveAspectRatio="none" style="width:1867px;height:1699px;background:#FFFFFF;" version="1.1" viewBox="0 0 1867 1699" width="1867px" zoomAndPan="magnify"><defs/><g><rect fill="#F5F5F5" height="1687.9688" style="stroke:#181818;stroke-width:0.5;" width="222" x="16" y="6"/><text fill="#000000" font-family="sans-serif" font-size="18" font-weight="bold" lengthAdjust="spacing" textLength="193" x="30.5" y="22.708">Messenger-Service</text><text fill="#000000" font-family="sans-serif" font-size="13" font-weight="bold" lengthAdjust="spacing" textLength="185" x="30.5" y="39.02">des einladenden Akteurs</text><text fill="#000000" font-family="sans-serif" font-size="13" font-weight="bold" lengthAdjust="spacing" textLength="5" x="30.5" y="54.1528">&#160;</text><rect fill="#F5F5F5" height="1687.9688" style="stroke:#181818;stroke-width:0.5;" width="747" x="270" y="6"/><text fill="#000000" font-family="sans-serif" font-size="18" font-weight="bold" lengthAdjust="spacing" textLength="193" x="546.5" y="22.708">Messenger-Service</text><text fill="#000000" font-family="sans-serif" font-size="13" font-weight="bold" lengthAdjust="spacing" textLength="194" x="546.5" y="39.02">des eingeladenen Akteurs</text><text fill="#000000" font-family="sans-serif" font-size="13" font-weight="bold" lengthAdjust="spacing" textLength="5" x="546.5" y="54.1528">&#160;</text><rect fill="#F5F5F5" height="1687.9688" style="stroke:#181818;stroke-width:0.5;" width="222" x="1049" y="6"/><text fill="#000000" font-family="sans-serif" font-size="18" font-weight="bold" lengthAdjust="spacing" textLength="176" x="1063" y="22.708">Messenger Client</text><text fill="#000000" font-family="sans-serif" font-size="13" font-weight="bold" lengthAdjust="spacing" textLength="194" x="1063" y="39.02">des eingeladenen Akteurs</text><text fill="#000000" font-family="sans-serif" font-size="13" font-weight="bold" lengthAdjust="spacing" textLength="5" x="1063" y="54.1528">&#160;</text><rect fill="#DCDCDC" height="691.9766" style="stroke:#000000;stroke-width:1.0;" width="10" x="122" y="158.5703"/><rect fill="#DCDCDC" height="691.9766" style="stroke:#000000;stroke-width:1.0;" width="10" x="376" y="158.5703"/><rect fill="#DCDCDC" height="101.3672" style="stroke:#000000;stroke-width:1.0;" width="10" x="376" y="930.9609"/><rect fill="#DCDCDC" height="101.3672" style="stroke:#000000;stroke-width:1.0;" width="10" x="376" y="1485.0391"/><rect fill="#DCDCDC" height="167.9453" style="stroke:#000000;stroke-width:1.0;" width="10" x="677" y="648.8125"/><rect fill="#DCDCDC" height="33.7891" style="stroke:#000000;stroke-width:1.0;" width="10" x="677" y="964.75"/><rect fill="#DCDCDC" height="33.7891" style="stroke:#000000;stroke-width:1.0;" width="10" x="677" y="1518.8281"/><rect fill="#DCDCDC" height="33.7891" style="stroke:#000000;stroke-width:1.0;" width="10" x="901" y="749.1797"/><rect fill="#DCDCDC" height="702.0703" style="stroke:#000000;stroke-width:1.0;" width="10" x="1155" y="782.9688"/><rect fill="#FFE4E1" height="165.9141" style="stroke:#000000;stroke-width:1.5;" width="545" x="10" y="270.1953"/><rect fill="#FFE4E1" height="165.9141" style="stroke:#000000;stroke-width:1.5;" width="612" x="10" y="450.1094"/><rect fill="#FFE4E1" height="136.1719" style="stroke:#000000;stroke-width:1.5;" width="759" x="1043" y="1140.9063"/><rect fill="#FFE4E1" height="136.1719" style="stroke:#000000;stroke-width:1.5;" width="807" x="1043" y="1291.0781"/><line style="stroke:#000000;stroke-width:0.5;stroke-dasharray:5.0,5.0;" x1="127" x2="127" y1="122.7813" y2="1629.4063"/><line style="stroke:#000000;stroke-width:0.5;stroke-dasharray:5.0,5.0;" x1="381" x2="381" y1="122.7813" y2="1629.4063"/><line style="stroke:#000000;stroke-width:0.5;stroke-dasharray:5.0,5.0;" x1="682" x2="682" y1="122.7813" y2="1629.4063"/><line style="stroke:#000000;stroke-width:0.5;stroke-dasharray:5.0,5.0;" x1="906" x2="906" y1="122.7813" y2="1629.4063"/><line style="stroke:#000000;stroke-width:0.5;stroke-dasharray:5.0,5.0;" x1="1160" x2="1160" y1="122.7813" y2="1629.4063"/><rect fill="#EFEFFF" height="37.2813" rx="2.5" ry="2.5" style="stroke:#000000;stroke-width:0.5;" width="214" x="20" y="84.5"/><text fill="#000000" font-family="sans-serif" font-size="20" lengthAdjust="spacing" textLength="187" x="33.5" y="110.0645">Messenger-Service</text><rect fill="#EFEFFF" height="37.2813" rx="2.5" ry="2.5" style="stroke:#000000;stroke-width:0.5;" width="214" x="20" y="1628.4063"/><text fill="#000000" font-family="sans-serif" font-size="20" lengthAdjust="spacing" textLength="187" x="33.5" y="1653.9707">Messenger-Service</text><rect fill="#EFEFFF" height="60.5625" rx="2.5" ry="2.5" style="stroke:#000000;stroke-width:0.5;" width="214" x="274" y="61.2188"/><text fill="#000000" font-family="sans-serif" font-size="20" lengthAdjust="spacing" textLength="114" x="324" y="86.7832">Messenger-</text><text fill="#000000" font-family="sans-serif" font-size="20" lengthAdjust="spacing" textLength="54" x="354" y="110.0645">Proxy</text><rect fill="#EFEFFF" height="60.5625" rx="2.5" ry="2.5" style="stroke:#000000;stroke-width:0.5;" width="214" x="274" y="1628.4063"/><text fill="#000000" font-family="sans-serif" font-size="20" lengthAdjust="spacing" textLength="114" x="324" y="1653.9707">Messenger-</text><text fill="#000000" font-family="sans-serif" font-size="20" lengthAdjust="spacing" textLength="54" x="354" y="1677.252">Proxy</text><rect fill="#EFEFFF" height="60.5625" rx="2.5" ry="2.5" style="stroke:#000000;stroke-width:0.5;" width="214" x="575" y="61.2188"/><text fill="#000000" font-family="sans-serif" font-size="20" lengthAdjust="spacing" textLength="69" x="647.5" y="86.7832">Matrix-</text><text fill="#000000" font-family="sans-serif" font-size="20" lengthAdjust="spacing" textLength="120" x="622" y="110.0645">Homeserver</text><rect fill="#EFEFFF" height="60.5625" rx="2.5" ry="2.5" style="stroke:#000000;stroke-width:0.5;" width="214" x="575" y="1628.4063"/><text fill="#000000" font-family="sans-serif" font-size="20" lengthAdjust="spacing" textLength="69" x="647.5" y="1653.9707">Matrix-</text><text fill="#000000" font-family="sans-serif" font-size="20" lengthAdjust="spacing" textLength="120" x="622" y="1677.252">Homeserver</text><rect fill="#EFEFFF" height="60.5625" rx="2.5" ry="2.5" style="stroke:#000000;stroke-width:0.5;" width="214" x="799" y="61.2188"/><text fill="#000000" font-family="sans-serif" font-size="20" lengthAdjust="spacing" textLength="55" x="878.5" y="86.7832">Push-</text><text fill="#000000" font-family="sans-serif" font-size="20" lengthAdjust="spacing" textLength="64" x="874" y="110.0645">Dienst</text><rect fill="#EFEFFF" height="60.5625" rx="2.5" ry="2.5" style="stroke:#000000;stroke-width:0.5;" width="214" x="799" y="1628.4063"/><text fill="#000000" font-family="sans-serif" font-size="20" lengthAdjust="spacing" textLength="55" x="878.5" y="1653.9707">Push-</text><text fill="#000000" font-family="sans-serif" font-size="20" lengthAdjust="spacing" textLength="64" x="874" y="1677.252">Dienst</text><rect fill="#EFEFFF" height="37.2813" rx="2.5" ry="2.5" style="stroke:#000000;stroke-width:0.5;" width="214" x="1053" y="84.5"/><text fill="#000000" font-family="sans-serif" font-size="20" lengthAdjust="spacing" textLength="173" x="1073.5" y="110.0645">Messenger-Client</text><rect fill="#EFEFFF" height="37.2813" rx="2.5" ry="2.5" style="stroke:#000000;stroke-width:0.5;" width="214" x="1053" y="1628.4063"/><text fill="#000000" font-family="sans-serif" font-size="20" lengthAdjust="spacing" textLength="173" x="1073.5" y="1653.9707">Messenger-Client</text><rect fill="#DCDCDC" height="691.9766" style="stroke:#000000;stroke-width:1.0;" width="10" x="122" y="158.5703"/><rect fill="#DCDCDC" height="691.9766" style="stroke:#000000;stroke-width:1.0;" width="10" x="376" y="158.5703"/><rect fill="#DCDCDC" height="101.3672" style="stroke:#000000;stroke-width:1.0;" width="10" x="376" y="930.9609"/><rect fill="#DCDCDC" height="101.3672" style="stroke:#000000;stroke-width:1.0;" width="10" x="376" y="1485.0391"/><rect fill="#DCDCDC" height="167.9453" style="stroke:#000000;stroke-width:1.0;" width="10" x="677" y="648.8125"/><rect fill="#DCDCDC" height="33.7891" style="stroke:#000000;stroke-width:1.0;" width="10" x="677" y="964.75"/><rect fill="#DCDCDC" height="33.7891" style="stroke:#000000;stroke-width:1.0;" width="10" x="677" y="1518.8281"/><rect fill="#DCDCDC" height="33.7891" style="stroke:#000000;stroke-width:1.0;" width="10" x="901" y="749.1797"/><rect fill="#DCDCDC" height="702.0703" style="stroke:#000000;stroke-width:1.0;" width="10" x="1155" y="782.9688"/><polygon fill="#000000" points="364,154.5703,374,158.5703,364,162.5703,368,158.5703" style="stroke:#000000;stroke-width:1.0;"/><line style="stroke:#000000;stroke-width:1.0;" x1="132" x2="370" y1="158.5703" y2="158.5703"/><text fill="#000000" font-family="sans-serif" font-size="17" lengthAdjust="spacing" textLength="164" x="139" y="152.561">Matrix-Invite-Event</text><rect fill="#EEEEEE" height="3" style="stroke:#EEEEEE;stroke-width:1.0;" width="1860" x="0" y="213.8828"/><line style="stroke:#000000;stroke-width:1.0;" x1="0" x2="1860" y1="213.8828" y2="213.8828"/><line style="stroke:#000000;stroke-width:1.0;" x1="0" x2="1860" y1="216.8828" y2="216.8828"/><rect fill="#EEEEEE" height="26.625" style="stroke:#000000;stroke-width:2.0;" width="321" x="769.5" y="201.5703"/><text fill="#008000" font-family="sans-serif" font-size="16" font-weight="bold" lengthAdjust="spacing" textLength="285" x="787.5" y="220.4219">Berechtigungskonzept - Stufe 1</text><text fill="#000000" font-family="sans-serif" font-size="13" font-weight="bold" lengthAdjust="spacing" textLength="10" x="1072.5" y="221.1294">&#160;&#160;</text><path d="M10,270.1953 L98,270.1953 L98,277.3281 L88,287.3281 L10,287.3281 L10,270.1953 " fill="#EEEEEE" style="stroke:#000000;stroke-width:1.5;"/><rect fill="none" height="165.9141" style="stroke:#000000;stroke-width:1.5;" width="545" x="10" y="270.1953"/><text fill="#000000" font-family="sans-serif" font-size="13" font-weight="bold" lengthAdjust="spacing" textLength="43" x="25" y="283.2622">break</text><text fill="#000000" font-family="sans-serif" font-size="11" font-weight="bold" lengthAdjust="spacing" textLength="5" x="113" y="288.2261">[</text><text fill="#000000" font-family="sans-serif" font-size="16" font-weight="bold" lengthAdjust="spacing" textLength="427" x="118" y="287.0469">Matrix-Domain nicht in der F&#246;deration enthalten</text><text fill="#000000" font-family="sans-serif" font-size="11" font-weight="bold" lengthAdjust="spacing" textLength="5" x="545" y="288.2261">]</text><line style="stroke:#000000;stroke-width:1.0;" x1="386" x2="428" y1="356.3203" y2="356.3203"/><line style="stroke:#000000;stroke-width:1.0;" x1="428" x2="428" y1="356.3203" y2="369.3203"/><line style="stroke:#000000;stroke-width:1.0;" x1="387" x2="428" y1="369.3203" y2="369.3203"/><polygon fill="#000000" points="397,365.3203,387,369.3203,397,373.3203,393,369.3203" style="stroke:#000000;stroke-width:1.0;"/><text fill="#FF0000" font-family="sans-serif" font-size="17" lengthAdjust="spacing" textLength="73" x="393" y="310.7329">Abbruch,</text><text fill="#FF0000" font-family="sans-serif" font-size="17" lengthAdjust="spacing" textLength="138" x="393" y="330.522">Verbindung wird</text><text fill="#FF0000" font-family="sans-serif" font-size="17" lengthAdjust="spacing" textLength="84" x="393" y="350.311">abgelehnt</text><polygon fill="#000000" points="143,399.1094,133,403.1094,143,407.1094,139,403.1094" style="stroke:#000000;stroke-width:1.0;"/><line style="stroke:#000000;stroke-width:1.0;stroke-dasharray:2.0,2.0;" x1="137" x2="375" y1="403.1094" y2="403.1094"/><text fill="#000000" font-family="sans-serif" font-size="17" lengthAdjust="spacing" textLength="81" x="288" y="397.1001">HTTP 403</text><path d="M10,450.1094 L98,450.1094 L98,457.2422 L88,467.2422 L10,467.2422 L10,450.1094 " fill="#EEEEEE" style="stroke:#000000;stroke-width:1.5;"/><rect fill="none" height="165.9141" style="stroke:#000000;stroke-width:1.5;" width="612" x="10" y="450.1094"/><text fill="#000000" font-family="sans-serif" font-size="13" font-weight="bold" lengthAdjust="spacing" textLength="43" x="25" y="463.1763">break</text><text fill="#000000" font-family="sans-serif" font-size="11" font-weight="bold" lengthAdjust="spacing" textLength="5" x="113" y="468.1401">[</text><text fill="#000000" font-family="sans-serif" font-size="16" font-weight="bold" lengthAdjust="spacing" textLength="494" x="118" y="466.9609">Einladender und der Eingeladene sind beide Versicherte</text><text fill="#000000" font-family="sans-serif" font-size="11" font-weight="bold" lengthAdjust="spacing" textLength="5" x="612" y="468.1401">]</text><line style="stroke:#000000;stroke-width:1.0;" x1="386" x2="428" y1="536.2344" y2="536.2344"/><line style="stroke:#000000;stroke-width:1.0;" x1="428" x2="428" y1="536.2344" y2="549.2344"/><line style="stroke:#000000;stroke-width:1.0;" x1="387" x2="428" y1="549.2344" y2="549.2344"/><polygon fill="#000000" points="397,545.2344,387,549.2344,397,553.2344,393,549.2344" style="stroke:#000000;stroke-width:1.0;"/><text fill="#FF0000" font-family="sans-serif" font-size="17" lengthAdjust="spacing" textLength="73" x="393" y="490.647">Abbruch,</text><text fill="#FF0000" font-family="sans-serif" font-size="17" lengthAdjust="spacing" textLength="138" x="393" y="510.436">Verbindung wird</text><text fill="#FF0000" font-family="sans-serif" font-size="17" lengthAdjust="spacing" textLength="84" x="393" y="530.2251">abgelehnt</text><polygon fill="#000000" points="143,579.0234,133,583.0234,143,587.0234,139,583.0234" style="stroke:#000000;stroke-width:1.0;"/><line style="stroke:#000000;stroke-width:1.0;" x1="137" x2="375" y1="583.0234" y2="583.0234"/><text fill="#000000" font-family="sans-serif" font-size="17" lengthAdjust="spacing" textLength="81" x="288" y="577.0142">HTTP 403</text><polygon fill="#000000" points="665,644.8125,675,648.8125,665,652.8125,669,648.8125" style="stroke:#000000;stroke-width:1.0;"/><line style="stroke:#000000;stroke-width:1.0;" x1="386" x2="671" y1="648.8125" y2="648.8125"/><text fill="#000000" font-family="sans-serif" font-size="17" lengthAdjust="spacing" textLength="142" x="393" y="642.8032">HTTP(S) Forward</text><line style="stroke:#000000;stroke-width:1.0;stroke-dasharray:2.0,2.0;" x1="687" x2="729" y1="702.3906" y2="702.3906"/><line style="stroke:#000000;stroke-width:1.0;stroke-dasharray:2.0,2.0;" x1="729" x2="729" y1="702.3906" y2="715.3906"/><line style="stroke:#000000;stroke-width:1.0;stroke-dasharray:2.0,2.0;" x1="688" x2="729" y1="715.3906" y2="715.3906"/><polygon fill="#000000" points="698,711.3906,688,715.3906,698,719.3906,694,715.3906" style="stroke:#000000;stroke-width:1.0;"/><text fill="#000000" font-family="sans-serif" font-size="17" lengthAdjust="spacing" textLength="104" x="694" y="676.5923">Invite-Event</text><text fill="#000000" font-family="sans-serif" font-size="17" lengthAdjust="spacing" textLength="97" x="694" y="696.3813">verarbeiten</text><polygon fill="#000000" points="889,745.1797,899,749.1797,889,753.1797,893,749.1797" style="stroke:#000000;stroke-width:1.0;"/><line style="stroke:#000000;stroke-width:1.0;" x1="687" x2="895" y1="749.1797" y2="749.1797"/><text fill="#000000" font-family="sans-serif" font-size="17" lengthAdjust="spacing" textLength="142" x="694" y="743.1704">Push Notification</text><polygon fill="#000000" points="1143,778.9688,1153,782.9688,1143,786.9688,1147,782.9688" style="stroke:#000000;stroke-width:1.0;"/><line style="stroke:#000000;stroke-width:1.0;" x1="906" x2="1149" y1="782.9688" y2="782.9688"/><text fill="#000000" font-family="sans-serif" font-size="17" lengthAdjust="spacing" textLength="142" x="913" y="776.9595">Push Notification</text><polygon fill="#000000" points="397,812.7578,387,816.7578,397,820.7578,393,816.7578" style="stroke:#000000;stroke-width:1.0;"/><line style="stroke:#000000;stroke-width:1.0;stroke-dasharray:2.0,2.0;" x1="391" x2="681" y1="816.7578" y2="816.7578"/><text fill="#000000" font-family="sans-serif" font-size="17" lengthAdjust="spacing" textLength="79" x="596" y="810.7485">Response</text><polygon fill="#000000" points="138,846.5469,128,850.5469,138,854.5469,134,850.5469" style="stroke:#000000;stroke-width:1.0;"/><line style="stroke:#000000;stroke-width:1.0;stroke-dasharray:2.0,2.0;" x1="132" x2="380" y1="850.5469" y2="850.5469"/><text fill="#000000" font-family="sans-serif" font-size="17" lengthAdjust="spacing" textLength="79" x="295" y="844.5376">Response</text><rect fill="#EEEEEE" height="3" style="stroke:#EEEEEE;stroke-width:1.0;" width="1860" x="0" y="880.8594"/><line style="stroke:#000000;stroke-width:1.0;" x1="0" x2="1860" y1="880.8594" y2="880.8594"/><line style="stroke:#000000;stroke-width:1.0;" x1="0" x2="1860" y1="883.8594" y2="883.8594"/><rect fill="#EEEEEE" height="26.625" style="stroke:#000000;stroke-width:2.0;" width="321" x="769.5" y="868.5469"/><text fill="#008000" font-family="sans-serif" font-size="16" font-weight="bold" lengthAdjust="spacing" textLength="285" x="787.5" y="887.3984">Berechtigungskonzept - Stufe 2</text><text fill="#000000" font-family="sans-serif" font-size="13" font-weight="bold" lengthAdjust="spacing" textLength="10" x="1072.5" y="888.106">&#160;&#160;</text><polygon fill="#000000" points="397,926.9609,387,930.9609,397,934.9609,393,930.9609" style="stroke:#000000;stroke-width:1.0;"/><line style="stroke:#000000;stroke-width:1.0;" x1="391" x2="1154" y1="930.9609" y2="930.9609"/><text fill="#000000" font-family="sans-serif" font-size="17" lengthAdjust="spacing" textLength="180" x="968" y="924.9517">Abfrage neuer Events</text><polygon fill="#000000" points="665,960.75,675,964.75,665,968.75,669,964.75" style="stroke:#000000;stroke-width:1.0;"/><line style="stroke:#000000;stroke-width:1.0;" x1="386" x2="671" y1="964.75" y2="964.75"/><text fill="#000000" font-family="sans-serif" font-size="17" lengthAdjust="spacing" textLength="142" x="393" y="958.7407">HTTP(S) Forward</text><polygon fill="#000000" points="397,994.5391,387,998.5391,397,1002.5391,393,998.5391" style="stroke:#000000;stroke-width:1.0;"/><line style="stroke:#000000;stroke-width:1.0;stroke-dasharray:2.0,2.0;" x1="391" x2="681" y1="998.5391" y2="998.5391"/><text fill="#000000" font-family="sans-serif" font-size="17" lengthAdjust="spacing" textLength="234" x="441" y="992.5298">Bereitstellung neuer Events</text><polygon fill="#000000" points="1143,1028.3281,1153,1032.3281,1143,1036.3281,1147,1032.3281" style="stroke:#000000;stroke-width:1.0;"/><line style="stroke:#000000;stroke-width:1.0;stroke-dasharray:2.0,2.0;" x1="381" x2="1149" y1="1032.3281" y2="1032.3281"/><text fill="#000000" font-family="sans-serif" font-size="17" lengthAdjust="spacing" textLength="142" x="388" y="1026.3188">HTTP(S) Forward</text><line style="stroke:#000000;stroke-width:1.0;" x1="1165" x2="1207" y1="1066.1172" y2="1066.1172"/><line style="stroke:#000000;stroke-width:1.0;" x1="1207" x2="1207" y1="1066.1172" y2="1079.1172"/><line style="stroke:#000000;stroke-width:1.0;" x1="1166" x2="1207" y1="1079.1172" y2="1079.1172"/><polygon fill="#000000" points="1176,1075.1172,1166,1079.1172,1176,1083.1172,1172,1079.1172" style="stroke:#000000;stroke-width:1.0;"/><text fill="#000000" font-family="sans-serif" font-size="17" lengthAdjust="spacing" textLength="248" x="1172" y="1060.1079">Extrahieren der Invite-Events</text><line style="stroke:#000000;stroke-width:1.0;" x1="1165" x2="1207" y1="1112.9063" y2="1112.9063"/><line style="stroke:#000000;stroke-width:1.0;" x1="1207" x2="1207" y1="1112.9063" y2="1125.9063"/><line style="stroke:#000000;stroke-width:1.0;" x1="1166" x2="1207" y1="1125.9063" y2="1125.9063"/><polygon fill="#000000" points="1176,1121.9063,1166,1125.9063,1176,1129.9063,1172,1125.9063" style="stroke:#000000;stroke-width:1.0;"/><text fill="#000000" font-family="sans-serif" font-size="17" lengthAdjust="spacing" textLength="305" x="1172" y="1106.897">Pr&#252;fung, ob die Einladung erlaubt ist</text><path d="M1043,1140.9063 L1131,1140.9063 L1131,1148.0391 L1121,1158.0391 L1043,1158.0391 L1043,1140.9063 " fill="#EEEEEE" style="stroke:#000000;stroke-width:1.5;"/><rect fill="none" height="136.1719" style="stroke:#000000;stroke-width:1.5;" width="759" x="1043" y="1140.9063"/><text fill="#000000" font-family="sans-serif" font-size="13" font-weight="bold" lengthAdjust="spacing" textLength="43" x="1058" y="1153.9731">break</text><text fill="#000000" font-family="sans-serif" font-size="11" font-weight="bold" lengthAdjust="spacing" textLength="5" x="1146" y="1158.937">[</text><text fill="#000000" font-family="sans-serif" font-size="16" font-weight="bold" lengthAdjust="spacing" textLength="578" x="1151" y="1157.7578">Der Akteur hat "allow all" konfiguriert und der einladende Akteur</text><text fill="#000000" font-family="sans-serif" font-size="16" font-weight="bold" lengthAdjust="spacing" textLength="640" x="1152" y="1176.3828">ist auf der BlockedUser-Liste (Direkt oder als Teil einer Gruppe/Domain)</text><text fill="#000000" font-family="sans-serif" font-size="11" font-weight="bold" lengthAdjust="spacing" textLength="5" x="1792" y="1177.562">]</text><line style="stroke:#000000;stroke-width:1.0;" x1="1165" x2="1207" y1="1231.0781" y2="1231.0781"/><line style="stroke:#000000;stroke-width:1.0;" x1="1207" x2="1207" y1="1231.0781" y2="1244.0781"/><line style="stroke:#000000;stroke-width:1.0;" x1="1166" x2="1207" y1="1244.0781" y2="1244.0781"/><polygon fill="#000000" points="1176,1240.0781,1166,1244.0781,1176,1248.0781,1172,1244.0781" style="stroke:#000000;stroke-width:1.0;"/><text fill="#FF0000" font-family="sans-serif" font-size="17" lengthAdjust="spacing" textLength="211" x="1172" y="1225.0688">Einladung ist abzulehnen</text><path d="M1043,1291.0781 L1131,1291.0781 L1131,1298.2109 L1121,1308.2109 L1043,1308.2109 L1043,1291.0781 " fill="#EEEEEE" style="stroke:#000000;stroke-width:1.5;"/><rect fill="none" height="136.1719" style="stroke:#000000;stroke-width:1.5;" width="807" x="1043" y="1291.0781"/><text fill="#000000" font-family="sans-serif" font-size="13" font-weight="bold" lengthAdjust="spacing" textLength="43" x="1058" y="1304.145">break</text><text fill="#000000" font-family="sans-serif" font-size="11" font-weight="bold" lengthAdjust="spacing" textLength="5" x="1146" y="1309.1089">[</text><text fill="#000000" font-family="sans-serif" font-size="16" font-weight="bold" lengthAdjust="spacing" textLength="581" x="1151" y="1307.9297">Der Akteur hat "block all" konfiguriert und der einladende Akteur</text><text fill="#000000" font-family="sans-serif" font-size="16" font-weight="bold" lengthAdjust="spacing" textLength="688" x="1152" y="1326.5547">ist nicht auf der AllowedUser-Liste (Direkt oder als Teil einer Gruppe/Domain)</text><text fill="#000000" font-family="sans-serif" font-size="11" font-weight="bold" lengthAdjust="spacing" textLength="5" x="1840" y="1327.7339">]</text><line style="stroke:#000000;stroke-width:1.0;" x1="1165" x2="1207" y1="1381.25" y2="1381.25"/><line style="stroke:#000000;stroke-width:1.0;" x1="1207" x2="1207" y1="1381.25" y2="1394.25"/><line style="stroke:#000000;stroke-width:1.0;" x1="1166" x2="1207" y1="1394.25" y2="1394.25"/><polygon fill="#000000" points="1176,1390.25,1166,1394.25,1176,1398.25,1172,1394.25" style="stroke:#000000;stroke-width:1.0;"/><text fill="#FF0000" font-family="sans-serif" font-size="17" lengthAdjust="spacing" textLength="211" x="1172" y="1375.2407">Einladung ist abzulehnen</text><polygon fill="#000000" points="397,1481.0391,387,1485.0391,397,1489.0391,393,1485.0391" style="stroke:#000000;stroke-width:1.0;"/><line style="stroke:#000000;stroke-width:1.0;stroke-dasharray:2.0,2.0;" x1="391" x2="1159" y1="1485.0391" y2="1485.0391"/><text fill="#000000" font-family="sans-serif" font-size="17" lengthAdjust="spacing" textLength="267" x="886" y="1479.0298">Ergebnis der Einladungspr&#252;fung</text><polygon fill="#000000" points="665,1514.8281,675,1518.8281,665,1522.8281,669,1518.8281" style="stroke:#000000;stroke-width:1.0;"/><line style="stroke:#000000;stroke-width:1.0;" x1="386" x2="671" y1="1518.8281" y2="1518.8281"/><text fill="#000000" font-family="sans-serif" font-size="17" lengthAdjust="spacing" textLength="142" x="393" y="1512.8188">HTTP(S) Forward</text><polygon fill="#000000" points="397,1548.6172,387,1552.6172,397,1556.6172,393,1552.6172" style="stroke:#000000;stroke-width:1.0;"/><line style="stroke:#000000;stroke-width:1.0;stroke-dasharray:2.0,2.0;" x1="391" x2="681" y1="1552.6172" y2="1552.6172"/><text fill="#000000" font-family="sans-serif" font-size="17" lengthAdjust="spacing" textLength="267" x="408" y="1546.6079">Ergebnis der Einladungspr&#252;fung</text><polygon fill="#000000" points="138,1582.4063,128,1586.4063,138,1590.4063,134,1586.4063" style="stroke:#000000;stroke-width:1.0;"/><line style="stroke:#000000;stroke-width:1.0;stroke-dasharray:2.0,2.0;" x1="132" x2="380" y1="1586.4063" y2="1586.4063"/><text fill="#000000" font-family="sans-serif" font-size="17" lengthAdjust="spacing" textLength="142" x="232" y="1580.397">HTTP(S) Forward</text><!--SRC=[pLPDSzf84BthLtIHIr89PPlD9YcNeGem1bSPHsMnoSMNaTI8ASICTcPa4w_pj_Qqj_onz4X2NuPTRtBOlO2OUVHxtTElHthDHS8Ksu36trCK0SvHQnRXCEQHW90h30oNmj4bSCF5E6PQV-QXMK7l-BYsDv9RbuKX5n6S_5fRtmM_mIKg-p135g8QiM0TAPcAS2nZgI1XCKOAaUW2UeGDsnB1smzmRxcSFG7X3mTWg9IypoFuCONSBLr8OJp-W73otYu5HggHLCJRn5xn9LvnWN-xrr8wPLneNohf4CXbol209qoOUeovDFoEPTLhObgnQhWciDJVEtwwqTHvGC9eptQR_UFYyjDmSVdnsYcBT33P0l2Klrokz9PBrso3C6G9RfslZY-tSAO9T7hoOM1x3KM4gkkXkkC1teeGDI0NCRK7FGiOhWscIjyAUF5vnGrw6xb69wdoWRa7J4FdIQoEGn60-9xB6M76-ZnIjzTYlHMkajildIPiLi2OKNnBc9dSe2PUL4sWEyrmRgfNX3hdABJvfmHW71FE_9Z-SLj_7gpYd7lT0MLvMaY_57SKg3kv8v33WgnZqPQXziDp7XyVdNuVpfPqx13O3kbdVXuKwjyD04Oq0OALuL4g8hsMuW4J0rtmJBeafvuTMUJWxCY687I_dmNr5R8rl9XpRRxSI8rG1YpqdSiDTIa8Jg617iW2SF7jJ_hAd0KaUyLYWw8We0ObyNcATRaAmy7GzrKQhDx0hMXlVKBbSn6IT9f9Ajo3O3wT0ww4AL8eY8Z9EuNPOk72s-DVQD5c1IGhB7BRczoaT882icEMrQGwQT3SdXRo486KQKeUbS7_ACN36PQ0MIz7lFHUmOLKzqo5j5TrqAndeREiN1PRxpeIGhPXYjAbOonm0tVw-lKfMD_0DStH9G_AYJkb86CAjN-x8XtNIAbKS8CwaK8ZhOROrbOUvG6KssijUCxFEQAtnn5WHHTgX_vIqNqD0bFR7BPIkf6Us_kXyjlOLXWtsc0SstPeKHmgpdWlIwj8PGuMFTaQnLRSlXfaBLu_Tjr0kkhRNqlIyWQaJsyd2Bb3h3fKCKjzChysDlhXYN5E3Fc4X1Kpq65nBE-1FZj0nL_ICIYIOah3LTTHyJToH7bu51vOkio0erW6Qmn_em7VlQ8DX9Vdz0ArDY3jDeirB937DY3zdAeqIV0e7rolAi_kZ5DBkst0AkcCtdz8hHtjRDlviUM-vnV3jpdyJ37o2RmhoT3MzdzOaknIoQP3tkaJ5Q4lkDvDs3oMJefsS-hTE-urBy33tchue-QhVyCsomcgwLedQ9cAaleE]--></g></svg>