<?xml version="1.0" encoding="us-ascii" standalone="no"?><svg xmlns="http://www.w3.org/2000/svg" xmlns:xlink="http://www.w3.org/1999/xlink" contentStyleType="text/css" height="521px" preserveAspectRatio="none" style="width:1462px;height:521px;background:#FFFFFF;" version="1.1" viewBox="0 0 1462 521" width="1462px" zoomAndPan="magnify"><defs/><g><rect fill="#DCDCDC" height="241.3125" style="stroke:#000000;stroke-width:1.0;" width="10" x="403" y="149.0703"/><rect fill="#DCDCDC" height="33.7891" style="stroke:#000000;stroke-width:1.0;" width="10" x="896" y="202.6484"/><rect fill="#DCDCDC" height="292.1016" style="stroke:#000000;stroke-width:1.0;" width="10" x="1344" y="98.2813"/><line style="stroke:#000000;stroke-width:0.5;stroke-dasharray:5.0,5.0;" x1="69" x2="69" y1="88.2813" y2="433.3828"/><line style="stroke:#000000;stroke-width:0.5;stroke-dasharray:5.0,5.0;" x1="407.5" x2="407.5" y1="88.2813" y2="433.3828"/><line style="stroke:#000000;stroke-width:0.5;stroke-dasharray:5.0,5.0;" x1="901" x2="901" y1="88.2813" y2="433.3828"/><line style="stroke:#000000;stroke-width:0.5;stroke-dasharray:5.0,5.0;" x1="1125" x2="1125" y1="88.2813" y2="433.3828"/><line style="stroke:#000000;stroke-width:0.5;stroke-dasharray:5.0,5.0;" x1="1349" x2="1349" y1="88.2813" y2="433.3828"/><text fill="#000000" font-family="sans-serif" font-size="20" lengthAdjust="spacing" textLength="122" x="5" y="83.5645">Versicherter</text><ellipse cx="69" cy="13.5" fill="#DCDCDC" rx="8" ry="8" style="stroke:#000000;stroke-width:0.5;"/><path d="M69,21.5 L69,48.5 M56,29.5 L82,29.5 M69,48.5 L56,63.5 M69,48.5 L82,63.5 " fill="none" style="stroke:#000000;stroke-width:0.5;"/><text fill="#000000" font-family="sans-serif" font-size="20" lengthAdjust="spacing" textLength="122" x="5" y="450.9473">Versicherter</text><ellipse cx="69" cy="464.1641" fill="#DCDCDC" rx="8" ry="8" style="stroke:#000000;stroke-width:0.5;"/><path d="M69,472.1641 L69,499.1641 M56,480.1641 L82,480.1641 M69,499.1641 L56,514.1641 M69,499.1641 L82,514.1641 " fill="none" style="stroke:#000000;stroke-width:0.5;"/><rect fill="#EFEFFF" height="37.2813" rx="2.5" ry="2.5" style="stroke:#000000;stroke-width:0.5;" width="279" x="268.5" y="50"/><text fill="#000000" font-family="sans-serif" font-size="20" lengthAdjust="spacing" textLength="265" x="275.5" y="75.5645">Frontend des Versicherten</text><rect fill="#EFEFFF" height="37.2813" rx="2.5" ry="2.5" style="stroke:#000000;stroke-width:0.5;" width="279" x="268.5" y="432.3828"/><text fill="#000000" font-family="sans-serif" font-size="20" lengthAdjust="spacing" textLength="265" x="275.5" y="457.9473">Frontend des Versicherten</text><rect fill="#EFEFFF" height="37.2813" rx="2.5" ry="2.5" style="stroke:#000000;stroke-width:0.5;" width="214" x="794" y="50"/><text fill="#000000" font-family="sans-serif" font-size="20" lengthAdjust="spacing" textLength="141" x="830.5" y="75.5645">Push-Anbieter</text><rect fill="#EFEFFF" height="37.2813" rx="2.5" ry="2.5" style="stroke:#000000;stroke-width:0.5;" width="214" x="794" y="432.3828"/><text fill="#000000" font-family="sans-serif" font-size="20" lengthAdjust="spacing" textLength="141" x="830.5" y="457.9473">Push-Anbieter</text><rect fill="#EFEFFF" height="37.2813" rx="2.5" ry="2.5" style="stroke:#000000;stroke-width:0.5;" width="214" x="1018" y="50"/><text fill="#000000" font-family="sans-serif" font-size="20" lengthAdjust="spacing" textLength="143" x="1053.5" y="75.5645">Push-Gateway</text><rect fill="#EFEFFF" height="37.2813" rx="2.5" ry="2.5" style="stroke:#000000;stroke-width:0.5;" width="214" x="1018" y="432.3828"/><text fill="#000000" font-family="sans-serif" font-size="20" lengthAdjust="spacing" textLength="143" x="1053.5" y="457.9473">Push-Gateway</text><rect fill="#EFEFFF" height="37.2813" rx="2.5" ry="2.5" style="stroke:#000000;stroke-width:0.5;" width="214" x="1242" y="50"/><text fill="#000000" font-family="sans-serif" font-size="20" lengthAdjust="spacing" textLength="110" x="1294" y="75.5645">Fachdienst</text><rect fill="#EFEFFF" height="37.2813" rx="2.5" ry="2.5" style="stroke:#000000;stroke-width:0.5;" width="214" x="1242" y="432.3828"/><text fill="#000000" font-family="sans-serif" font-size="20" lengthAdjust="spacing" textLength="110" x="1294" y="457.9473">Fachdienst</text><rect fill="#DCDCDC" height="241.3125" style="stroke:#000000;stroke-width:1.0;" width="10" x="403" y="149.0703"/><rect fill="#DCDCDC" height="33.7891" style="stroke:#000000;stroke-width:1.0;" width="10" x="896" y="202.6484"/><rect fill="#DCDCDC" height="292.1016" style="stroke:#000000;stroke-width:1.0;" width="10" x="1344" y="98.2813"/><polygon fill="#000000" points="391,145.0703,401,149.0703,391,153.0703,395,149.0703" style="stroke:#000000;stroke-width:1.0;"/><line style="stroke:#000000;stroke-width:1.0;" x1="69" x2="397" y1="149.0703" y2="149.0703"/><text fill="#000000" font-family="sans-serif" font-size="17" font-weight="bold" lengthAdjust="spacing" textLength="12" x="76" y="143.061">1</text><text fill="#000000" font-family="sans-serif" font-size="17" lengthAdjust="spacing" textLength="80" x="92" y="143.061">installiert</text><text fill="#000000" font-family="sans-serif" font-size="17" lengthAdjust="spacing" textLength="5" x="172" y="143.061">&#160;</text><text fill="#000000" font-family="sans-serif" font-size="17" lengthAdjust="spacing" textLength="31" x="177" y="143.061">FdV</text><text fill="#000000" font-family="sans-serif" font-size="17" lengthAdjust="spacing" textLength="5" x="208" y="143.061">&#160;</text><text fill="#000000" font-family="sans-serif" font-size="17" lengthAdjust="spacing" textLength="27" x="213" y="143.061">auf</text><text fill="#000000" font-family="sans-serif" font-size="17" lengthAdjust="spacing" textLength="5" x="240" y="143.061">&#160;</text><text fill="#000000" font-family="sans-serif" font-size="17" lengthAdjust="spacing" textLength="37" x="245" y="143.061">dem</text><text fill="#000000" font-family="sans-serif" font-size="17" lengthAdjust="spacing" textLength="5" x="282" y="143.061">&#160;</text><text fill="#000000" font-family="sans-serif" font-size="17" lengthAdjust="spacing" textLength="104" x="287" y="143.061">Smartphone</text><polygon fill="#000000" points="884,198.6484,894,202.6484,884,206.6484,888,202.6484" style="stroke:#000000;stroke-width:1.0;"/><line style="stroke:#000000;stroke-width:1.0;" x1="413" x2="890" y1="202.6484" y2="202.6484"/><text fill="#000000" font-family="sans-serif" font-size="17" font-weight="bold" lengthAdjust="spacing" textLength="12" x="420" y="186.7446">2</text><text fill="#000000" font-family="sans-serif" font-size="17" lengthAdjust="spacing" textLength="83" x="436" y="176.8501">registriert</text><text fill="#000000" font-family="sans-serif" font-size="17" lengthAdjust="spacing" textLength="5" x="519" y="176.8501">&#160;</text><text fill="#000000" font-family="sans-serif" font-size="17" lengthAdjust="spacing" textLength="32" x="524" y="176.8501">sich</text><text fill="#000000" font-family="sans-serif" font-size="17" lengthAdjust="spacing" textLength="5" x="556" y="176.8501">&#160;</text><text fill="#000000" font-family="sans-serif" font-size="17" lengthAdjust="spacing" textLength="42" x="561" y="176.8501">beim</text><text fill="#000000" font-family="sans-serif" font-size="17" lengthAdjust="spacing" textLength="5" x="603" y="176.8501">&#160;</text><text fill="#000000" font-family="sans-serif" font-size="17" lengthAdjust="spacing" textLength="207" x="608" y="176.8501">Push-Anbieter(SenderID,</text><text fill="#000000" font-family="sans-serif" font-size="17" lengthAdjust="spacing" textLength="5" x="815" y="176.8501">&#160;</text><text fill="#000000" font-family="sans-serif" font-size="17" lengthAdjust="spacing" textLength="64" x="820" y="176.8501">APIKey,</text><text fill="#000000" font-family="sans-serif" font-size="17" lengthAdjust="spacing" textLength="57" x="436" y="196.6392">AppID)</text><polygon fill="#000000" points="424,232.4375,414,236.4375,424,240.4375,420,236.4375" style="stroke:#000000;stroke-width:1.0;"/><line style="stroke:#000000;stroke-width:1.0;stroke-dasharray:2.0,2.0;" x1="418" x2="900" y1="236.4375" y2="236.4375"/><text fill="#000000" font-family="sans-serif" font-size="17" font-weight="bold" lengthAdjust="spacing" textLength="12" x="509" y="230.4282">3</text><text fill="#000000" font-family="sans-serif" font-size="17" lengthAdjust="spacing" textLength="97" x="525" y="230.4282">eindeutiges</text><text fill="#000000" font-family="sans-serif" font-size="17" lengthAdjust="spacing" textLength="5" x="622" y="230.4282">&#160;</text><text fill="#000000" font-family="sans-serif" font-size="17" lengthAdjust="spacing" textLength="107" x="627" y="230.4282">DeviceToken</text><text fill="#000000" font-family="sans-serif" font-size="17" lengthAdjust="spacing" textLength="5" x="734" y="230.4282">&#160;</text><text fill="#000000" font-family="sans-serif" font-size="17" lengthAdjust="spacing" textLength="24" x="739" y="230.4282">f&#252;r</text><text fill="#000000" font-family="sans-serif" font-size="17" lengthAdjust="spacing" textLength="5" x="763" y="230.4282">&#160;</text><text fill="#000000" font-family="sans-serif" font-size="17" lengthAdjust="spacing" textLength="25" x="768" y="230.4282">die</text><text fill="#000000" font-family="sans-serif" font-size="17" lengthAdjust="spacing" textLength="5" x="793" y="230.4282">&#160;</text><text fill="#000000" font-family="sans-serif" font-size="17" lengthAdjust="spacing" textLength="30" x="798" y="230.4282">app</text><text fill="#000000" font-family="sans-serif" font-size="17" lengthAdjust="spacing" textLength="5" x="828" y="230.4282">&#160;</text><text fill="#000000" font-family="sans-serif" font-size="17" lengthAdjust="spacing" textLength="61" x="833" y="230.4282">Instanz</text><line style="stroke:#000000;stroke-width:1.0;" x1="413" x2="455" y1="290.0156" y2="290.0156"/><line style="stroke:#000000;stroke-width:1.0;" x1="455" x2="455" y1="290.0156" y2="303.0156"/><line style="stroke:#000000;stroke-width:1.0;" x1="414" x2="455" y1="303.0156" y2="303.0156"/><polygon fill="#000000" points="424,299.0156,414,303.0156,424,307.0156,420,303.0156" style="stroke:#000000;stroke-width:1.0;"/><text fill="#000000" font-family="sans-serif" font-size="17" font-weight="bold" lengthAdjust="spacing" textLength="12" x="420" y="274.1118">4</text><text fill="#000000" font-family="sans-serif" font-size="17" lengthAdjust="spacing" textLength="79" x="436" y="264.2173">speichere</text><text fill="#000000" font-family="sans-serif" font-size="17" lengthAdjust="spacing" textLength="5" x="436" y="284.0063">&#160;</text><text fill="#000000" font-family="sans-serif" font-size="17" lengthAdjust="spacing" textLength="107" x="441" y="284.0063">DeviceToken</text><polygon fill="#000000" points="1332,352.5938,1342,356.5938,1332,360.5938,1336,356.5938" style="stroke:#000000;stroke-width:1.0;"/><line style="stroke:#000000;stroke-width:1.0;" x1="413" x2="1338" y1="356.5938" y2="356.5938"/><text fill="#000000" font-family="sans-serif" font-size="17" font-weight="bold" lengthAdjust="spacing" textLength="12" x="420" y="340.6899">5</text><text fill="#000000" font-family="sans-serif" font-size="17" lengthAdjust="spacing" textLength="102" x="436" y="330.7954">konfiguriere</text><text fill="#000000" font-family="sans-serif" font-size="17" lengthAdjust="spacing" textLength="5" x="538" y="330.7954">&#160;</text><text fill="#000000" font-family="sans-serif" font-size="17" lengthAdjust="spacing" textLength="19" x="543" y="330.7954">zu</text><text fill="#000000" font-family="sans-serif" font-size="17" lengthAdjust="spacing" textLength="5" x="562" y="330.7954">&#160;</text><text fill="#000000" font-family="sans-serif" font-size="17" lengthAdjust="spacing" textLength="122" x="567" y="330.7954">verwendendes</text><text fill="#000000" font-family="sans-serif" font-size="17" lengthAdjust="spacing" textLength="268" x="436" y="350.5845">Gateway(Gateway-Information,</text><text fill="#000000" font-family="sans-serif" font-size="17" lengthAdjust="spacing" textLength="5" x="704" y="350.5845">&#160;</text><text fill="#000000" font-family="sans-serif" font-size="17" lengthAdjust="spacing" textLength="114" x="709" y="350.5845">DeviceToken)</text><polygon fill="#000000" points="419,386.3828,409,390.3828,419,394.3828,415,390.3828" style="stroke:#000000;stroke-width:1.0;"/><line style="stroke:#000000;stroke-width:1.0;stroke-dasharray:2.0,2.0;" x1="413" x2="1348" y1="390.3828" y2="390.3828"/><text fill="#000000" font-family="sans-serif" font-size="17" font-weight="bold" lengthAdjust="spacing" textLength="12" x="1092" y="384.3735">6</text><text fill="#000000" font-family="sans-serif" font-size="17" lengthAdjust="spacing" textLength="115" x="1108" y="384.3735">Konfiguration</text><text fill="#000000" font-family="sans-serif" font-size="17" lengthAdjust="spacing" textLength="5" x="1223" y="384.3735">&#160;</text><text fill="#000000" font-family="sans-serif" font-size="17" lengthAdjust="spacing" textLength="114" x="1228" y="384.3735">&#252;bernommen</text></g></svg>