<?xml version="1.0" encoding="us-ascii" standalone="no"?><svg xmlns="http://www.w3.org/2000/svg" xmlns:xlink="http://www.w3.org/1999/xlink" contentStyleType="text/css" height="1072px" preserveAspectRatio="none" style="width:1820px;height:1072px;background:#FFFFFF;" version="1.1" viewBox="0 0 1820 1072" width="1820px" zoomAndPan="magnify"><defs/><g><rect fill="#F5F5F5" height="1060.2031" style="stroke:#181818;stroke-width:0.5;" width="222" x="700.5" y="6"/><text fill="#000000" font-family="sans-serif" font-size="18" font-weight="bold" lengthAdjust="spacing" textLength="93" x="762.5" y="22.708">Endger&#228;t</text><text fill="#000000" font-family="sans-serif" font-size="13" font-weight="bold" lengthAdjust="spacing" textLength="5" x="855.5" y="23.8872">&#160;</text><rect fill="#F5F5F5" height="1060.2031" style="stroke:#181818;stroke-width:0.5;" width="446" x="1362.5" y="6"/><text fill="#000000" font-family="sans-serif" font-size="18" font-weight="bold" lengthAdjust="spacing" textLength="200" x="1483" y="22.708">VZD-FHIR-Directory</text><text fill="#000000" font-family="sans-serif" font-size="13" font-weight="bold" lengthAdjust="spacing" textLength="5" x="1683" y="23.8872">&#160;</text><rect fill="#DCDCDC" height="305.3125" style="stroke:#000000;stroke-width:1.0;" width="10" x="806.5" y="227.6016"/><rect fill="#DCDCDC" height="280.3125" style="stroke:#000000;stroke-width:1.0;" width="10" x="806.5" y="651.3281"/><rect fill="#DCDCDC" height="167.9453" style="stroke:#000000;stroke-width:1.0;" width="10" x="1468.5" y="306.1797"/><rect fill="#DCDCDC" height="167.9453" style="stroke:#000000;stroke-width:1.0;" width="10" x="1468.5" y="704.9063"/><rect fill="#DCDCDC" height="33.7891" style="stroke:#000000;stroke-width:1.0;" width="10" x="1692.5" y="406.5469"/><rect fill="#DCDCDC" height="33.7891" style="stroke:#000000;stroke-width:1.0;" width="10" x="1692.5" y="805.2734"/><rect fill="none" height="359.7266" style="stroke:#000000;stroke-width:1.5;" width="1794.5" x="20" y="181.1875"/><rect fill="none" height="359.7266" style="stroke:#000000;stroke-width:1.5;" width="1794.5" x="20" y="579.9141"/><line style="stroke:#000000;stroke-width:0.5;stroke-dasharray:5.0,5.0;" x1="126" x2="126" y1="111.5625" y2="956.6406"/><line style="stroke:#000000;stroke-width:0.5;stroke-dasharray:5.0,5.0;" x1="811.5" x2="811.5" y1="111.5625" y2="956.6406"/><line style="stroke:#000000;stroke-width:0.5;stroke-dasharray:5.0,5.0;" x1="1473.5" x2="1473.5" y1="111.5625" y2="956.6406"/><line style="stroke:#000000;stroke-width:0.5;stroke-dasharray:5.0,5.0;" x1="1697.5" x2="1697.5" y1="111.5625" y2="956.6406"/><text fill="#000000" font-family="sans-serif" font-size="20" lengthAdjust="spacing" textLength="187" x="30" y="83.5645">Akteur in der Rolle</text><text fill="#000000" font-family="sans-serif" font-size="20" lengthAdjust="spacing" textLength="110" x="68.5" y="106.8457">Org-Admin</text><ellipse cx="126.5" cy="13.5" fill="#DCDCDC" rx="8" ry="8" style="stroke:#000000;stroke-width:0.5;"/><path d="M126.5,21.5 L126.5,48.5 M113.5,29.5 L139.5,29.5 M126.5,48.5 L113.5,63.5 M126.5,48.5 L139.5,63.5 " fill="none" style="stroke:#000000;stroke-width:0.5;"/><text fill="#000000" font-family="sans-serif" font-size="20" lengthAdjust="spacing" textLength="187" x="30" y="974.2051">Akteur in der Rolle</text><text fill="#000000" font-family="sans-serif" font-size="20" lengthAdjust="spacing" textLength="110" x="68.5" y="997.4863">Org-Admin</text><ellipse cx="126.5" cy="1010.7031" fill="#DCDCDC" rx="8" ry="8" style="stroke:#000000;stroke-width:0.5;"/><path d="M126.5,1018.7031 L126.5,1045.7031 M113.5,1026.7031 L139.5,1026.7031 M126.5,1045.7031 L113.5,1060.7031 M126.5,1045.7031 L139.5,1060.7031 " fill="none" style="stroke:#000000;stroke-width:0.5;"/><rect fill="#EFEFFF" height="37.2813" rx="2.5" ry="2.5" style="stroke:#000000;stroke-width:0.5;" width="214" x="704.5" y="73.2813"/><text fill="#000000" font-family="sans-serif" font-size="20" lengthAdjust="spacing" textLength="198" x="712.5" y="98.8457">TI-Messenger-Client</text><rect fill="#EFEFFF" height="37.2813" rx="2.5" ry="2.5" style="stroke:#000000;stroke-width:0.5;" width="214" x="704.5" y="955.6406"/><text fill="#000000" font-family="sans-serif" font-size="20" lengthAdjust="spacing" textLength="198" x="712.5" y="981.2051">TI-Messenger-Client</text><rect fill="#EFEFFF" height="37.2813" rx="2.5" ry="2.5" style="stroke:#000000;stroke-width:0.5;" width="214" x="1366.5" y="73.2813"/><text fill="#000000" font-family="sans-serif" font-size="20" lengthAdjust="spacing" textLength="108" x="1419.5" y="98.8457">FHIR-Proxy</text><rect fill="#EFEFFF" height="37.2813" rx="2.5" ry="2.5" style="stroke:#000000;stroke-width:0.5;" width="214" x="1366.5" y="955.6406"/><text fill="#000000" font-family="sans-serif" font-size="20" lengthAdjust="spacing" textLength="108" x="1419.5" y="981.2051">FHIR-Proxy</text><rect fill="#EFEFFF" height="37.2813" rx="2.5" ry="2.5" style="stroke:#000000;stroke-width:0.5;" width="214" x="1590.5" y="73.2813"/><text fill="#000000" font-family="sans-serif" font-size="20" lengthAdjust="spacing" textLength="145" x="1625" y="98.8457">FHIR-Directory</text><rect fill="#EFEFFF" height="37.2813" rx="2.5" ry="2.5" style="stroke:#000000;stroke-width:0.5;" width="214" x="1590.5" y="955.6406"/><text fill="#000000" font-family="sans-serif" font-size="20" lengthAdjust="spacing" textLength="145" x="1625" y="981.2051">FHIR-Directory</text><rect fill="#DCDCDC" height="305.3125" style="stroke:#000000;stroke-width:1.0;" width="10" x="806.5" y="227.6016"/><rect fill="#DCDCDC" height="280.3125" style="stroke:#000000;stroke-width:1.0;" width="10" x="806.5" y="651.3281"/><rect fill="#DCDCDC" height="167.9453" style="stroke:#000000;stroke-width:1.0;" width="10" x="1468.5" y="306.1797"/><rect fill="#DCDCDC" height="167.9453" style="stroke:#000000;stroke-width:1.0;" width="10" x="1468.5" y="704.9063"/><rect fill="#DCDCDC" height="33.7891" style="stroke:#000000;stroke-width:1.0;" width="10" x="1692.5" y="406.5469"/><rect fill="#DCDCDC" height="33.7891" style="stroke:#000000;stroke-width:1.0;" width="10" x="1692.5" y="805.2734"/><path d="M20,181.1875 L416,181.1875 L416,191.8125 L406,201.8125 L20,201.8125 L20,181.1875 " fill="#EEEEEE" style="stroke:#000000;stroke-width:1.5;"/><rect fill="none" height="359.7266" style="stroke:#000000;stroke-width:1.5;" width="1794.5" x="20" y="181.1875"/><text fill="#000000" font-family="sans-serif" font-size="16" font-weight="bold" lengthAdjust="spacing" textLength="351" x="35" y="197.0391">Sichtbarkeit f&#252;r Versicherte abschalten</text><polygon fill="#000000" points="794.5,223.6016,804.5,227.6016,794.5,231.6016,798.5,227.6016" style="stroke:#000000;stroke-width:1.0;"/><line style="stroke:#000000;stroke-width:1.0;" x1="126.5" x2="800.5" y1="227.6016" y2="227.6016"/><text fill="#000000" font-family="sans-serif" font-size="17" font-weight="bold" lengthAdjust="spacing" textLength="12" x="133.5" y="221.5923">1</text><text fill="#000000" font-family="sans-serif" font-size="17" lengthAdjust="spacing" textLength="331" x="149.5" y="221.5923">Deaktiviere Sichtbarkeit f&#252;r Versicherte</text><polygon fill="#000000" points="1456.5,302.1797,1466.5,306.1797,1456.5,310.1797,1460.5,306.1797" style="stroke:#000000;stroke-width:1.0;"/><line style="stroke:#000000;stroke-width:1.0;" x1="816.5" x2="1462.5" y1="306.1797" y2="306.1797"/><text fill="#000000" font-family="sans-serif" font-size="17" font-weight="bold" lengthAdjust="spacing" textLength="12" x="823.5" y="290.2759">2</text><text fill="#000000" font-family="sans-serif" font-size="17" lengthAdjust="spacing" textLength="208" x="839.5" y="280.3813">PUT /owner/Endpoint/?...</text><text fill="#000000" font-family="sans-serif" font-size="17" lengthAdjust="spacing" textLength="617" x="839.5" y="300.1704">Setze Endpoint.extension:endpointVisibility auf "code": "hide-versicherte"</text><line style="stroke:#000000;stroke-width:1.0;" x1="1478.5" x2="1520.5" y1="359.7578" y2="359.7578"/><line style="stroke:#000000;stroke-width:1.0;" x1="1520.5" x2="1520.5" y1="359.7578" y2="372.7578"/><line style="stroke:#000000;stroke-width:1.0;" x1="1479.5" x2="1520.5" y1="372.7578" y2="372.7578"/><polygon fill="#000000" points="1489.5,368.7578,1479.5,372.7578,1489.5,376.7578,1485.5,372.7578" style="stroke:#000000;stroke-width:1.0;"/><text fill="#000000" font-family="sans-serif" font-size="17" font-weight="bold" lengthAdjust="spacing" textLength="12" x="1485.5" y="343.854">3</text><text fill="#000000" font-family="sans-serif" font-size="17" lengthAdjust="spacing" textLength="44" x="1501.5" y="333.9595">pr&#252;fe</text><text fill="#000000" font-family="sans-serif" font-size="17" lengthAdjust="spacing" textLength="159" x="1501.5" y="353.7485">owner-accesstoken</text><polygon fill="#000000" points="1680.5,402.5469,1690.5,406.5469,1680.5,410.5469,1684.5,406.5469" style="stroke:#000000;stroke-width:1.0;"/><line style="stroke:#000000;stroke-width:1.0;" x1="1478.5" x2="1686.5" y1="406.5469" y2="406.5469"/><text fill="#000000" font-family="sans-serif" font-size="17" font-weight="bold" lengthAdjust="spacing" textLength="12" x="1485.5" y="400.5376">4</text><text fill="#000000" font-family="sans-serif" font-size="17" lengthAdjust="spacing" textLength="128" x="1501.5" y="400.5376">HTTPS Forward</text><polygon fill="#000000" points="1489.5,436.3359,1479.5,440.3359,1489.5,444.3359,1485.5,440.3359" style="stroke:#000000;stroke-width:1.0;"/><line style="stroke:#000000;stroke-width:1.0;stroke-dasharray:2.0,2.0;" x1="1483.5" x2="1696.5" y1="440.3359" y2="440.3359"/><text fill="#000000" font-family="sans-serif" font-size="17" font-weight="bold" lengthAdjust="spacing" textLength="12" x="1542.5" y="434.3267">5</text><text fill="#000000" font-family="sans-serif" font-size="17" lengthAdjust="spacing" textLength="132" x="1558.5" y="434.3267">result body json</text><polygon fill="#000000" points="827.5,470.125,817.5,474.125,827.5,478.125,823.5,474.125" style="stroke:#000000;stroke-width:1.0;"/><line style="stroke:#000000;stroke-width:1.0;stroke-dasharray:2.0,2.0;" x1="821.5" x2="1472.5" y1="474.125" y2="474.125"/><text fill="#000000" font-family="sans-serif" font-size="17" font-weight="bold" lengthAdjust="spacing" textLength="12" x="1318.5" y="468.1157">6</text><text fill="#000000" font-family="sans-serif" font-size="17" lengthAdjust="spacing" textLength="132" x="1334.5" y="468.1157">result body json</text><polygon fill="#000000" points="137.5,528.9141,127.5,532.9141,137.5,536.9141,133.5,532.9141" style="stroke:#000000;stroke-width:1.0;"/><line style="stroke:#000000;stroke-width:1.0;" x1="131.5" x2="810.5" y1="532.9141" y2="532.9141"/><text fill="#000000" font-family="sans-serif" font-size="17" font-weight="bold" lengthAdjust="spacing" textLength="12" x="148.5" y="526.9048">7</text><text fill="#000000" font-family="sans-serif" font-size="17" lengthAdjust="spacing" textLength="640" x="164.5" y="526.9048">Der Endpunkt mit der MXID &lt;MXID&gt; ist f&#252;r Versicherte nicht mehr sichtbar.</text><path d="M20,579.9141 L416,579.9141 L416,590.5391 L406,600.5391 L20,600.5391 L20,579.9141 " fill="#EEEEEE" style="stroke:#000000;stroke-width:1.5;"/><rect fill="none" height="359.7266" style="stroke:#000000;stroke-width:1.5;" width="1794.5" x="20" y="579.9141"/><text fill="#000000" font-family="sans-serif" font-size="16" font-weight="bold" lengthAdjust="spacing" textLength="351" x="35" y="595.7656">Sichtbarkeit f&#252;r Versicherte anschalten</text><polygon fill="#000000" points="794.5,647.3281,804.5,651.3281,794.5,655.3281,798.5,651.3281" style="stroke:#000000;stroke-width:1.0;"/><line style="stroke:#000000;stroke-width:1.0;" x1="126.5" x2="800.5" y1="651.3281" y2="651.3281"/><text fill="#000000" font-family="sans-serif" font-size="17" font-weight="bold" lengthAdjust="spacing" textLength="12" x="133.5" y="645.3188">8</text><text fill="#000000" font-family="sans-serif" font-size="17" lengthAdjust="spacing" textLength="309" x="149.5" y="645.3188">Aktiviere Sichtbarkeit f&#252;r Versicherte</text><polygon fill="#000000" points="1456.5,700.9063,1466.5,704.9063,1456.5,708.9063,1460.5,704.9063" style="stroke:#000000;stroke-width:1.0;"/><line style="stroke:#000000;stroke-width:1.0;" x1="816.5" x2="1462.5" y1="704.9063" y2="704.9063"/><text fill="#000000" font-family="sans-serif" font-size="17" font-weight="bold" lengthAdjust="spacing" textLength="12" x="823.5" y="689.0024">9</text><text fill="#000000" font-family="sans-serif" font-size="17" lengthAdjust="spacing" textLength="208" x="839.5" y="679.1079">PUT /owner/Endpoint/?...</text><text fill="#000000" font-family="sans-serif" font-size="17" lengthAdjust="spacing" textLength="391" x="839.5" y="698.897">Entferne Endpoint.extension:endpointVisibility</text><line style="stroke:#000000;stroke-width:1.0;" x1="1478.5" x2="1520.5" y1="758.4844" y2="758.4844"/><line style="stroke:#000000;stroke-width:1.0;" x1="1520.5" x2="1520.5" y1="758.4844" y2="771.4844"/><line style="stroke:#000000;stroke-width:1.0;" x1="1479.5" x2="1520.5" y1="771.4844" y2="771.4844"/><polygon fill="#000000" points="1489.5,767.4844,1479.5,771.4844,1489.5,775.4844,1485.5,771.4844" style="stroke:#000000;stroke-width:1.0;"/><text fill="#000000" font-family="sans-serif" font-size="17" font-weight="bold" lengthAdjust="spacing" textLength="24" x="1485.5" y="742.5806">10</text><text fill="#000000" font-family="sans-serif" font-size="17" lengthAdjust="spacing" textLength="44" x="1513.5" y="732.686">pr&#252;fe</text><text fill="#000000" font-family="sans-serif" font-size="17" lengthAdjust="spacing" textLength="159" x="1513.5" y="752.4751">owner-accesstoken</text><polygon fill="#000000" points="1680.5,801.2734,1690.5,805.2734,1680.5,809.2734,1684.5,805.2734" style="stroke:#000000;stroke-width:1.0;"/><line style="stroke:#000000;stroke-width:1.0;" x1="1478.5" x2="1686.5" y1="805.2734" y2="805.2734"/><text fill="#000000" font-family="sans-serif" font-size="17" font-weight="bold" lengthAdjust="spacing" textLength="24" x="1485.5" y="799.2642">11</text><text fill="#000000" font-family="sans-serif" font-size="17" lengthAdjust="spacing" textLength="128" x="1513.5" y="799.2642">HTTPS Forward</text><polygon fill="#000000" points="1489.5,835.0625,1479.5,839.0625,1489.5,843.0625,1485.5,839.0625" style="stroke:#000000;stroke-width:1.0;"/><line style="stroke:#000000;stroke-width:1.0;stroke-dasharray:2.0,2.0;" x1="1483.5" x2="1696.5" y1="839.0625" y2="839.0625"/><text fill="#000000" font-family="sans-serif" font-size="17" font-weight="bold" lengthAdjust="spacing" textLength="24" x="1530.5" y="833.0532">12</text><text fill="#000000" font-family="sans-serif" font-size="17" lengthAdjust="spacing" textLength="132" x="1558.5" y="833.0532">result body json</text><polygon fill="#000000" points="827.5,868.8516,817.5,872.8516,827.5,876.8516,823.5,872.8516" style="stroke:#000000;stroke-width:1.0;"/><line style="stroke:#000000;stroke-width:1.0;stroke-dasharray:2.0,2.0;" x1="821.5" x2="1472.5" y1="872.8516" y2="872.8516"/><text fill="#000000" font-family="sans-serif" font-size="17" font-weight="bold" lengthAdjust="spacing" textLength="24" x="1306.5" y="866.8423">13</text><text fill="#000000" font-family="sans-serif" font-size="17" lengthAdjust="spacing" textLength="132" x="1334.5" y="866.8423">result body json</text><polygon fill="#000000" points="137.5,927.6406,127.5,931.6406,137.5,935.6406,133.5,931.6406" style="stroke:#000000;stroke-width:1.0;"/><line style="stroke:#000000;stroke-width:1.0;" x1="131.5" x2="810.5" y1="931.6406" y2="931.6406"/><text fill="#000000" font-family="sans-serif" font-size="17" font-weight="bold" lengthAdjust="spacing" textLength="24" x="171.5" y="925.6313">14</text><text fill="#000000" font-family="sans-serif" font-size="17" lengthAdjust="spacing" textLength="605" x="199.5" y="925.6313">Der Endpunkt mit der MXID &lt;MXID&gt; ist f&#252;r Versicherte wieder sichtbar.</text></g></svg>