<?xml version="1.0" encoding="us-ascii" standalone="no"?><svg xmlns="http://www.w3.org/2000/svg" xmlns:xlink="http://www.w3.org/1999/xlink" contentStyleType="text/css" height="1025px" preserveAspectRatio="none" style="width:1760px;height:1025px;background:#FFFFFF;" version="1.1" viewBox="0 0 1760 1025" width="1760px" zoomAndPan="magnify"><defs/><g><rect fill="#F5F5F5" height="1013.6406" style="stroke:#181818;stroke-width:0.5;" width="222" x="640.5" y="6"/><text fill="#000000" font-family="sans-serif" font-size="18" font-weight="bold" lengthAdjust="spacing" textLength="93" x="702.5" y="22.708">Endger&#228;t</text><text fill="#000000" font-family="sans-serif" font-size="13" font-weight="bold" lengthAdjust="spacing" textLength="5" x="795.5" y="23.8872">&#160;</text><rect fill="#F5F5F5" height="1013.6406" style="stroke:#181818;stroke-width:0.5;" width="446" x="1302.5" y="6"/><text fill="#000000" font-family="sans-serif" font-size="18" font-weight="bold" lengthAdjust="spacing" textLength="200" x="1423" y="22.708">VZD-FHIR-Directory</text><text fill="#000000" font-family="sans-serif" font-size="13" font-weight="bold" lengthAdjust="spacing" textLength="5" x="1623" y="23.8872">&#160;</text><rect fill="#DCDCDC" height="305.3125" style="stroke:#000000;stroke-width:1.0;" width="10" x="746.5" y="204.3203"/><rect fill="#DCDCDC" height="280.3125" style="stroke:#000000;stroke-width:1.0;" width="10" x="746.5" y="628.0469"/><rect fill="#DCDCDC" height="167.9453" style="stroke:#000000;stroke-width:1.0;" width="10" x="1408.5" y="282.8984"/><rect fill="#DCDCDC" height="167.9453" style="stroke:#000000;stroke-width:1.0;" width="10" x="1408.5" y="681.625"/><rect fill="#DCDCDC" height="33.7891" style="stroke:#000000;stroke-width:1.0;" width="10" x="1632.5" y="383.2656"/><rect fill="#DCDCDC" height="33.7891" style="stroke:#000000;stroke-width:1.0;" width="10" x="1632.5" y="781.9922"/><rect fill="none" height="359.7266" style="stroke:#000000;stroke-width:1.5;" width="1734.5" x="20" y="157.9063"/><rect fill="none" height="359.7266" style="stroke:#000000;stroke-width:1.5;" width="1734.5" x="20" y="556.6328"/><line style="stroke:#000000;stroke-width:0.5;stroke-dasharray:5.0,5.0;" x1="66" x2="66" y1="88.2813" y2="933.3594"/><line style="stroke:#000000;stroke-width:0.5;stroke-dasharray:5.0,5.0;" x1="751.5" x2="751.5" y1="88.2813" y2="933.3594"/><line style="stroke:#000000;stroke-width:0.5;stroke-dasharray:5.0,5.0;" x1="1413.5" x2="1413.5" y1="88.2813" y2="933.3594"/><line style="stroke:#000000;stroke-width:0.5;stroke-dasharray:5.0,5.0;" x1="1637.5" x2="1637.5" y1="88.2813" y2="933.3594"/><text fill="#000000" font-family="sans-serif" font-size="20" lengthAdjust="spacing" textLength="67" x="30" y="83.5645">Akteur</text><ellipse cx="66.5" cy="13.5" fill="#DCDCDC" rx="8" ry="8" style="stroke:#000000;stroke-width:0.5;"/><path d="M66.5,21.5 L66.5,48.5 M53.5,29.5 L79.5,29.5 M66.5,48.5 L53.5,63.5 M66.5,48.5 L79.5,63.5 " fill="none" style="stroke:#000000;stroke-width:0.5;"/><text fill="#000000" font-family="sans-serif" font-size="20" lengthAdjust="spacing" textLength="67" x="30" y="950.9238">Akteur</text><ellipse cx="66.5" cy="964.1406" fill="#DCDCDC" rx="8" ry="8" style="stroke:#000000;stroke-width:0.5;"/><path d="M66.5,972.1406 L66.5,999.1406 M53.5,980.1406 L79.5,980.1406 M66.5,999.1406 L53.5,1014.1406 M66.5,999.1406 L79.5,1014.1406 " fill="none" style="stroke:#000000;stroke-width:0.5;"/><rect fill="#EFEFFF" height="37.2813" rx="2.5" ry="2.5" style="stroke:#000000;stroke-width:0.5;" width="214" x="644.5" y="50"/><text fill="#000000" font-family="sans-serif" font-size="20" lengthAdjust="spacing" textLength="198" x="652.5" y="75.5645">TI-Messenger-Client</text><rect fill="#EFEFFF" height="37.2813" rx="2.5" ry="2.5" style="stroke:#000000;stroke-width:0.5;" width="214" x="644.5" y="932.3594"/><text fill="#000000" font-family="sans-serif" font-size="20" lengthAdjust="spacing" textLength="198" x="652.5" y="957.9238">TI-Messenger-Client</text><rect fill="#EFEFFF" height="37.2813" rx="2.5" ry="2.5" style="stroke:#000000;stroke-width:0.5;" width="214" x="1306.5" y="50"/><text fill="#000000" font-family="sans-serif" font-size="20" lengthAdjust="spacing" textLength="108" x="1359.5" y="75.5645">FHIR-Proxy</text><rect fill="#EFEFFF" height="37.2813" rx="2.5" ry="2.5" style="stroke:#000000;stroke-width:0.5;" width="214" x="1306.5" y="932.3594"/><text fill="#000000" font-family="sans-serif" font-size="20" lengthAdjust="spacing" textLength="108" x="1359.5" y="957.9238">FHIR-Proxy</text><rect fill="#EFEFFF" height="37.2813" rx="2.5" ry="2.5" style="stroke:#000000;stroke-width:0.5;" width="214" x="1530.5" y="50"/><text fill="#000000" font-family="sans-serif" font-size="20" lengthAdjust="spacing" textLength="145" x="1565" y="75.5645">FHIR-Directory</text><rect fill="#EFEFFF" height="37.2813" rx="2.5" ry="2.5" style="stroke:#000000;stroke-width:0.5;" width="214" x="1530.5" y="932.3594"/><text fill="#000000" font-family="sans-serif" font-size="20" lengthAdjust="spacing" textLength="145" x="1565" y="957.9238">FHIR-Directory</text><rect fill="#DCDCDC" height="305.3125" style="stroke:#000000;stroke-width:1.0;" width="10" x="746.5" y="204.3203"/><rect fill="#DCDCDC" height="280.3125" style="stroke:#000000;stroke-width:1.0;" width="10" x="746.5" y="628.0469"/><rect fill="#DCDCDC" height="167.9453" style="stroke:#000000;stroke-width:1.0;" width="10" x="1408.5" y="282.8984"/><rect fill="#DCDCDC" height="167.9453" style="stroke:#000000;stroke-width:1.0;" width="10" x="1408.5" y="681.625"/><rect fill="#DCDCDC" height="33.7891" style="stroke:#000000;stroke-width:1.0;" width="10" x="1632.5" y="383.2656"/><rect fill="#DCDCDC" height="33.7891" style="stroke:#000000;stroke-width:1.0;" width="10" x="1632.5" y="781.9922"/><path d="M20,157.9063 L416,157.9063 L416,168.5313 L406,178.5313 L20,178.5313 L20,157.9063 " fill="#EEEEEE" style="stroke:#000000;stroke-width:1.5;"/><rect fill="none" height="359.7266" style="stroke:#000000;stroke-width:1.5;" width="1734.5" x="20" y="157.9063"/><text fill="#000000" font-family="sans-serif" font-size="16" font-weight="bold" lengthAdjust="spacing" textLength="351" x="35" y="173.7578">Sichtbarkeit f&#252;r Versicherte abschalten</text><polygon fill="#000000" points="734.5,200.3203,744.5,204.3203,734.5,208.3203,738.5,204.3203" style="stroke:#000000;stroke-width:1.0;"/><line style="stroke:#000000;stroke-width:1.0;" x1="66.5" x2="740.5" y1="204.3203" y2="204.3203"/><text fill="#000000" font-family="sans-serif" font-size="17" font-weight="bold" lengthAdjust="spacing" textLength="12" x="73.5" y="198.311">1</text><text fill="#000000" font-family="sans-serif" font-size="17" lengthAdjust="spacing" textLength="331" x="89.5" y="198.311">Deaktiviere Sichtbarkeit f&#252;r Versicherte</text><polygon fill="#000000" points="1396.5,278.8984,1406.5,282.8984,1396.5,286.8984,1400.5,282.8984" style="stroke:#000000;stroke-width:1.0;"/><line style="stroke:#000000;stroke-width:1.0;" x1="756.5" x2="1402.5" y1="282.8984" y2="282.8984"/><text fill="#000000" font-family="sans-serif" font-size="17" font-weight="bold" lengthAdjust="spacing" textLength="12" x="763.5" y="266.9946">2</text><text fill="#000000" font-family="sans-serif" font-size="17" lengthAdjust="spacing" textLength="208" x="779.5" y="257.1001">PUT /owner/Endpoint/?...</text><text fill="#000000" font-family="sans-serif" font-size="17" lengthAdjust="spacing" textLength="617" x="779.5" y="276.8892">Setze Endpoint.extension:endpointVisibility auf "code": "hide-versicherte"</text><line style="stroke:#000000;stroke-width:1.0;" x1="1418.5" x2="1460.5" y1="336.4766" y2="336.4766"/><line style="stroke:#000000;stroke-width:1.0;" x1="1460.5" x2="1460.5" y1="336.4766" y2="349.4766"/><line style="stroke:#000000;stroke-width:1.0;" x1="1419.5" x2="1460.5" y1="349.4766" y2="349.4766"/><polygon fill="#000000" points="1429.5,345.4766,1419.5,349.4766,1429.5,353.4766,1425.5,349.4766" style="stroke:#000000;stroke-width:1.0;"/><text fill="#000000" font-family="sans-serif" font-size="17" font-weight="bold" lengthAdjust="spacing" textLength="12" x="1425.5" y="320.5728">3</text><text fill="#000000" font-family="sans-serif" font-size="17" lengthAdjust="spacing" textLength="44" x="1441.5" y="310.6782">pr&#252;fe</text><text fill="#000000" font-family="sans-serif" font-size="17" lengthAdjust="spacing" textLength="159" x="1441.5" y="330.4673">owner-accesstoken</text><polygon fill="#000000" points="1620.5,379.2656,1630.5,383.2656,1620.5,387.2656,1624.5,383.2656" style="stroke:#000000;stroke-width:1.0;"/><line style="stroke:#000000;stroke-width:1.0;" x1="1418.5" x2="1626.5" y1="383.2656" y2="383.2656"/><text fill="#000000" font-family="sans-serif" font-size="17" font-weight="bold" lengthAdjust="spacing" textLength="12" x="1425.5" y="377.2563">4</text><text fill="#000000" font-family="sans-serif" font-size="17" lengthAdjust="spacing" textLength="128" x="1441.5" y="377.2563">HTTPS Forward</text><polygon fill="#000000" points="1429.5,413.0547,1419.5,417.0547,1429.5,421.0547,1425.5,417.0547" style="stroke:#000000;stroke-width:1.0;"/><line style="stroke:#000000;stroke-width:1.0;stroke-dasharray:2.0,2.0;" x1="1423.5" x2="1636.5" y1="417.0547" y2="417.0547"/><text fill="#000000" font-family="sans-serif" font-size="17" font-weight="bold" lengthAdjust="spacing" textLength="12" x="1482.5" y="411.0454">5</text><text fill="#000000" font-family="sans-serif" font-size="17" lengthAdjust="spacing" textLength="132" x="1498.5" y="411.0454">result body json</text><polygon fill="#000000" points="767.5,446.8438,757.5,450.8438,767.5,454.8438,763.5,450.8438" style="stroke:#000000;stroke-width:1.0;"/><line style="stroke:#000000;stroke-width:1.0;stroke-dasharray:2.0,2.0;" x1="761.5" x2="1412.5" y1="450.8438" y2="450.8438"/><text fill="#000000" font-family="sans-serif" font-size="17" font-weight="bold" lengthAdjust="spacing" textLength="12" x="1258.5" y="444.8345">6</text><text fill="#000000" font-family="sans-serif" font-size="17" lengthAdjust="spacing" textLength="132" x="1274.5" y="444.8345">result body json</text><polygon fill="#000000" points="77.5,505.6328,67.5,509.6328,77.5,513.6328,73.5,509.6328" style="stroke:#000000;stroke-width:1.0;"/><line style="stroke:#000000;stroke-width:1.0;" x1="71.5" x2="750.5" y1="509.6328" y2="509.6328"/><text fill="#000000" font-family="sans-serif" font-size="17" font-weight="bold" lengthAdjust="spacing" textLength="12" x="88.5" y="503.6235">7</text><text fill="#000000" font-family="sans-serif" font-size="17" lengthAdjust="spacing" textLength="640" x="104.5" y="503.6235">Der Endpunkt mit der MXID &lt;MXID&gt; ist f&#252;r Versicherte nicht mehr sichtbar.</text><path d="M20,556.6328 L416,556.6328 L416,567.2578 L406,577.2578 L20,577.2578 L20,556.6328 " fill="#EEEEEE" style="stroke:#000000;stroke-width:1.5;"/><rect fill="none" height="359.7266" style="stroke:#000000;stroke-width:1.5;" width="1734.5" x="20" y="556.6328"/><text fill="#000000" font-family="sans-serif" font-size="16" font-weight="bold" lengthAdjust="spacing" textLength="351" x="35" y="572.4844">Sichtbarkeit f&#252;r Versicherte anschalten</text><polygon fill="#000000" points="734.5,624.0469,744.5,628.0469,734.5,632.0469,738.5,628.0469" style="stroke:#000000;stroke-width:1.0;"/><line style="stroke:#000000;stroke-width:1.0;" x1="66.5" x2="740.5" y1="628.0469" y2="628.0469"/><text fill="#000000" font-family="sans-serif" font-size="17" font-weight="bold" lengthAdjust="spacing" textLength="12" x="73.5" y="622.0376">8</text><text fill="#000000" font-family="sans-serif" font-size="17" lengthAdjust="spacing" textLength="309" x="89.5" y="622.0376">Aktiviere Sichtbarkeit f&#252;r Versicherte</text><polygon fill="#000000" points="1396.5,677.625,1406.5,681.625,1396.5,685.625,1400.5,681.625" style="stroke:#000000;stroke-width:1.0;"/><line style="stroke:#000000;stroke-width:1.0;" x1="756.5" x2="1402.5" y1="681.625" y2="681.625"/><text fill="#000000" font-family="sans-serif" font-size="17" font-weight="bold" lengthAdjust="spacing" textLength="12" x="763.5" y="665.7212">9</text><text fill="#000000" font-family="sans-serif" font-size="17" lengthAdjust="spacing" textLength="208" x="779.5" y="655.8267">PUT /owner/Endpoint/?...</text><text fill="#000000" font-family="sans-serif" font-size="17" lengthAdjust="spacing" textLength="391" x="779.5" y="675.6157">Entferne Endpoint.extension:endpointVisibility</text><line style="stroke:#000000;stroke-width:1.0;" x1="1418.5" x2="1460.5" y1="735.2031" y2="735.2031"/><line style="stroke:#000000;stroke-width:1.0;" x1="1460.5" x2="1460.5" y1="735.2031" y2="748.2031"/><line style="stroke:#000000;stroke-width:1.0;" x1="1419.5" x2="1460.5" y1="748.2031" y2="748.2031"/><polygon fill="#000000" points="1429.5,744.2031,1419.5,748.2031,1429.5,752.2031,1425.5,748.2031" style="stroke:#000000;stroke-width:1.0;"/><text fill="#000000" font-family="sans-serif" font-size="17" font-weight="bold" lengthAdjust="spacing" textLength="24" x="1425.5" y="719.2993">10</text><text fill="#000000" font-family="sans-serif" font-size="17" lengthAdjust="spacing" textLength="44" x="1453.5" y="709.4048">pr&#252;fe</text><text fill="#000000" font-family="sans-serif" font-size="17" lengthAdjust="spacing" textLength="159" x="1453.5" y="729.1938">owner-accesstoken</text><polygon fill="#000000" points="1620.5,777.9922,1630.5,781.9922,1620.5,785.9922,1624.5,781.9922" style="stroke:#000000;stroke-width:1.0;"/><line style="stroke:#000000;stroke-width:1.0;" x1="1418.5" x2="1626.5" y1="781.9922" y2="781.9922"/><text fill="#000000" font-family="sans-serif" font-size="17" font-weight="bold" lengthAdjust="spacing" textLength="24" x="1425.5" y="775.9829">11</text><text fill="#000000" font-family="sans-serif" font-size="17" lengthAdjust="spacing" textLength="128" x="1453.5" y="775.9829">HTTPS Forward</text><polygon fill="#000000" points="1429.5,811.7813,1419.5,815.7813,1429.5,819.7813,1425.5,815.7813" style="stroke:#000000;stroke-width:1.0;"/><line style="stroke:#000000;stroke-width:1.0;stroke-dasharray:2.0,2.0;" x1="1423.5" x2="1636.5" y1="815.7813" y2="815.7813"/><text fill="#000000" font-family="sans-serif" font-size="17" font-weight="bold" lengthAdjust="spacing" textLength="24" x="1470.5" y="809.772">12</text><text fill="#000000" font-family="sans-serif" font-size="17" lengthAdjust="spacing" textLength="132" x="1498.5" y="809.772">result body json</text><polygon fill="#000000" points="767.5,845.5703,757.5,849.5703,767.5,853.5703,763.5,849.5703" style="stroke:#000000;stroke-width:1.0;"/><line style="stroke:#000000;stroke-width:1.0;stroke-dasharray:2.0,2.0;" x1="761.5" x2="1412.5" y1="849.5703" y2="849.5703"/><text fill="#000000" font-family="sans-serif" font-size="17" font-weight="bold" lengthAdjust="spacing" textLength="24" x="1246.5" y="843.561">13</text><text fill="#000000" font-family="sans-serif" font-size="17" lengthAdjust="spacing" textLength="132" x="1274.5" y="843.561">result body json</text><polygon fill="#000000" points="77.5,904.3594,67.5,908.3594,77.5,912.3594,73.5,908.3594" style="stroke:#000000;stroke-width:1.0;"/><line style="stroke:#000000;stroke-width:1.0;" x1="71.5" x2="750.5" y1="908.3594" y2="908.3594"/><text fill="#000000" font-family="sans-serif" font-size="17" font-weight="bold" lengthAdjust="spacing" textLength="24" x="111.5" y="902.3501">14</text><text fill="#000000" font-family="sans-serif" font-size="17" lengthAdjust="spacing" textLength="605" x="139.5" y="902.3501">Der Endpunkt mit der MXID &lt;MXID&gt; ist f&#252;r Versicherte wieder sichtbar.</text></g></svg>