<?xml version="1.0" encoding="us-ascii" standalone="no"?><svg xmlns="http://www.w3.org/2000/svg" xmlns:xlink="http://www.w3.org/1999/xlink" contentStyleType="text/css" height="2514px" preserveAspectRatio="none" style="width:1893px;height:2514px;background:#FFFFFF;" version="1.1" viewBox="0 0 1893 2514" width="1893px" zoomAndPan="magnify"><defs/><g><rect fill="#F5F5F5" height="2502.3672" style="stroke:#181818;stroke-width:0.5;" width="222" x="278.5" y="6"/><text fill="#000000" font-family="sans-serif" font-size="18" font-weight="bold" lengthAdjust="spacing" textLength="93" x="343" y="22.708">Endger&#228;t</text><text fill="#000000" font-family="sans-serif" font-size="13" font-weight="bold" lengthAdjust="spacing" textLength="5" x="343" y="39.02">&#160;</text><rect fill="#F5F5F5" height="2502.3672" style="stroke:#181818;stroke-width:0.5;" width="670" x="799.5" y="6"/><text fill="#000000" font-family="sans-serif" font-size="18" font-weight="bold" lengthAdjust="spacing" textLength="200" x="1032" y="22.708">VZD-FHIR-Directory</text><text fill="#000000" font-family="sans-serif" font-size="13" font-weight="bold" lengthAdjust="spacing" textLength="5" x="1232" y="23.8872">&#160;</text><rect fill="#F5F5F5" height="2502.3672" style="stroke:#181818;stroke-width:0.5;" width="266" x="1481.5" y="6"/><text fill="#000000" font-family="sans-serif" font-size="18" font-weight="bold" lengthAdjust="spacing" textLength="255" x="1484.5" y="22.708">Ti-Messenger-Fachdienst</text><text fill="#000000" font-family="sans-serif" font-size="13" font-weight="bold" lengthAdjust="spacing" textLength="5" x="1739.5" y="23.8872">&#160;</text><rect fill="#DCDCDC" height="2072.9297" style="stroke:#000000;stroke-width:1.0;" width="10" x="384.5" y="315.875"/><rect fill="#DCDCDC" height="214.7344" style="stroke:#000000;stroke-width:1.0;" width="10" x="905.5" y="1665.3438"/><rect fill="#DCDCDC" height="214.7344" style="stroke:#000000;stroke-width:1.0;" width="10" x="905.5" y="2043.2813"/><rect fill="#DCDCDC" height="378.5781" style="stroke:#000000;stroke-width:1.0;" width="10" x="1129.5" y="1070.9375"/><rect fill="#DCDCDC" height="80.5781" style="stroke:#000000;stroke-width:1.0;" width="10" x="1353.5" y="1765.7109"/><rect fill="#DCDCDC" height="80.5781" style="stroke:#000000;stroke-width:1.0;" width="10" x="1353.5" y="2143.6484"/><rect fill="#DCDCDC" height="112.0977" style="stroke:#000000;stroke-width:1.0;" width="10" x="1609.5" y="651.6445"/><rect fill="#DCDCDC" height="112.0977" style="stroke:#000000;stroke-width:1.0;" width="10" x="1609.5" y="900.0508"/><rect fill="#F0F8FF" height="1040.2734" style="stroke:#000000;stroke-width:1.5;" width="1877.5" x="10" y="442.2422"/><rect fill="#ADD8E6" height="335.5313" style="stroke:#000000;stroke-width:1.5;" width="1857.5" x="20" y="495"/><rect fill="#FFE4E1" height="113.3359" style="stroke:#000000;stroke-width:1.5;" width="1231.5" x="20" y="1211.8125"/><rect fill="none" height="835.2891" style="stroke:#000000;stroke-width:1.5;" width="1556.5" x="20" y="1521.5156"/><rect fill="none" height="338.9375" style="stroke:#000000;stroke-width:1.5;" width="1263" x="272.5" y="1574.1406"/><rect fill="none" height="338.9375" style="stroke:#000000;stroke-width:1.5;" width="1294" x="272.5" y="1952.0781"/><line style="stroke:#000000;stroke-width:0.5;stroke-dasharray:5.0,5.0;" x1="126" x2="126" y1="130.9297" y2="2398.8047"/><line style="stroke:#000000;stroke-width:0.5;stroke-dasharray:5.0,5.0;" x1="389.5" x2="389.5" y1="130.9297" y2="2398.8047"/><line style="stroke:#000000;stroke-width:0.5;stroke-dasharray:5.0,5.0;" x1="910.5" x2="910.5" y1="130.9297" y2="2398.8047"/><line style="stroke:#000000;stroke-width:0.5;stroke-dasharray:5.0,5.0;" x1="1134.5" x2="1134.5" y1="130.9297" y2="2398.8047"/><line style="stroke:#000000;stroke-width:0.5;stroke-dasharray:5.0,5.0;" x1="1358.5" x2="1358.5" y1="130.9297" y2="2398.8047"/><line style="stroke:#000000;stroke-width:0.5;stroke-dasharray:5.0,5.0;" x1="1614" x2="1614" y1="130.9297" y2="2398.8047"/><text fill="#000000" font-family="Aapex" font-size="20" lengthAdjust="spacing" textLength="187" x="30" y="102.9316">Akteur in der Rolle</text><text fill="#000000" font-family="Aapex" font-size="20" lengthAdjust="spacing" textLength="110" x="68.5" y="126.2129">Org-Admin</text><ellipse cx="126.5" cy="32.8672" fill="#DCDCDC" rx="8" ry="8" style="stroke:#000000;stroke-width:0.5;"/><path d="M126.5,40.8672 L126.5,67.8672 M113.5,48.8672 L139.5,48.8672 M126.5,67.8672 L113.5,82.8672 M126.5,67.8672 L139.5,82.8672 " fill="none" style="stroke:#000000;stroke-width:0.5;"/><text fill="#000000" font-family="Aapex" font-size="20" lengthAdjust="spacing" textLength="187" x="30" y="2416.3691">Akteur in der Rolle</text><text fill="#000000" font-family="Aapex" font-size="20" lengthAdjust="spacing" textLength="110" x="68.5" y="2439.6504">Org-Admin</text><ellipse cx="126.5" cy="2452.8672" fill="#DCDCDC" rx="8" ry="8" style="stroke:#000000;stroke-width:0.5;"/><path d="M126.5,2460.8672 L126.5,2487.8672 M113.5,2468.8672 L139.5,2468.8672 M126.5,2487.8672 L113.5,2502.8672 M126.5,2487.8672 L139.5,2502.8672 " fill="none" style="stroke:#000000;stroke-width:0.5;"/><rect fill="#EFEFFF" height="83.8438" rx="2.5" ry="2.5" style="stroke:#000000;stroke-width:0.5;" width="214" x="282.5" y="46.0859"/><text fill="#000000" font-family="sans-serif" font-size="20" lengthAdjust="spacing" textLength="198" x="290.5" y="71.6504">TI-Messenger-Client</text><text fill="#000000" font-family="sans-serif" font-size="20" lengthAdjust="spacing" textLength="150" x="314.5" y="94.9316">mit Org-Admin</text><text fill="#000000" font-family="sans-serif" font-size="20" lengthAdjust="spacing" textLength="141" x="319" y="118.2129">Funktionalit&#228;t</text><rect fill="#EFEFFF" height="83.8438" rx="2.5" ry="2.5" style="stroke:#000000;stroke-width:0.5;" width="214" x="282.5" y="2397.8047"/><text fill="#000000" font-family="sans-serif" font-size="20" lengthAdjust="spacing" textLength="198" x="290.5" y="2423.3691">TI-Messenger-Client</text><text fill="#000000" font-family="sans-serif" font-size="20" lengthAdjust="spacing" textLength="150" x="314.5" y="2446.6504">mit Org-Admin</text><text fill="#000000" font-family="sans-serif" font-size="20" lengthAdjust="spacing" textLength="141" x="319" y="2469.9316">Funktionalit&#228;t</text><rect fill="#EFEFFF" height="37.2813" rx="2.5" ry="2.5" style="stroke:#000000;stroke-width:0.5;" width="214" x="803.5" y="92.6484"/><text fill="#000000" font-family="sans-serif" font-size="20" lengthAdjust="spacing" textLength="108" x="856.5" y="118.2129">FHIR-Proxy</text><rect fill="#EFEFFF" height="37.2813" rx="2.5" ry="2.5" style="stroke:#000000;stroke-width:0.5;" width="214" x="803.5" y="2397.8047"/><text fill="#000000" font-family="sans-serif" font-size="20" lengthAdjust="spacing" textLength="108" x="856.5" y="2423.3691">FHIR-Proxy</text><rect fill="#EFEFFF" height="37.2813" rx="2.5" ry="2.5" style="stroke:#000000;stroke-width:0.5;" width="214" x="1027.5" y="92.6484"/><text fill="#000000" font-family="sans-serif" font-size="20" lengthAdjust="spacing" textLength="128" x="1070.5" y="118.2129">Auth-Service</text><rect fill="#EFEFFF" height="37.2813" rx="2.5" ry="2.5" style="stroke:#000000;stroke-width:0.5;" width="214" x="1027.5" y="2397.8047"/><text fill="#000000" font-family="sans-serif" font-size="20" lengthAdjust="spacing" textLength="128" x="1070.5" y="2423.3691">Auth-Service</text><rect fill="#EFEFFF" height="37.2813" rx="2.5" ry="2.5" style="stroke:#000000;stroke-width:0.5;" width="214" x="1251.5" y="92.6484"/><text fill="#000000" font-family="sans-serif" font-size="20" lengthAdjust="spacing" textLength="145" x="1286" y="118.2129">FHIR-Directory</text><rect fill="#EFEFFF" height="37.2813" rx="2.5" ry="2.5" style="stroke:#000000;stroke-width:0.5;" width="214" x="1251.5" y="2397.8047"/><text fill="#000000" font-family="sans-serif" font-size="20" lengthAdjust="spacing" textLength="145" x="1286" y="2423.3691">FHIR-Directory</text><rect fill="#EFEFFF" height="37.2813" rx="2.5" ry="2.5" style="stroke:#000000;stroke-width:0.5;" width="231" x="1499" y="92.6484"/><text fill="#000000" font-family="sans-serif" font-size="20" lengthAdjust="spacing" textLength="217" x="1506" y="118.2129">Registrierungs-Dienst</text><rect fill="#EFEFFF" height="37.2813" rx="2.5" ry="2.5" style="stroke:#000000;stroke-width:0.5;" width="231" x="1499" y="2397.8047"/><text fill="#000000" font-family="sans-serif" font-size="20" lengthAdjust="spacing" textLength="217" x="1506" y="2423.3691">Registrierungs-Dienst</text><rect fill="#DCDCDC" height="2072.9297" style="stroke:#000000;stroke-width:1.0;" width="10" x="384.5" y="315.875"/><rect fill="#DCDCDC" height="214.7344" style="stroke:#000000;stroke-width:1.0;" width="10" x="905.5" y="1665.3438"/><rect fill="#DCDCDC" height="214.7344" style="stroke:#000000;stroke-width:1.0;" width="10" x="905.5" y="2043.2813"/><rect fill="#DCDCDC" height="378.5781" style="stroke:#000000;stroke-width:1.0;" width="10" x="1129.5" y="1070.9375"/><rect fill="#DCDCDC" height="80.5781" style="stroke:#000000;stroke-width:1.0;" width="10" x="1353.5" y="1765.7109"/><rect fill="#DCDCDC" height="80.5781" style="stroke:#000000;stroke-width:1.0;" width="10" x="1353.5" y="2143.6484"/><rect fill="#DCDCDC" height="112.0977" style="stroke:#000000;stroke-width:1.0;" width="10" x="1609.5" y="651.6445"/><rect fill="#DCDCDC" height="112.0977" style="stroke:#000000;stroke-width:1.0;" width="10" x="1609.5" y="900.0508"/><path d="M27,170.9297 L27,219.9297 L488,219.9297 L488,180.9297 L478,170.9297 L27,170.9297 " fill="#FEFFDD" style="stroke:#181818;stroke-width:0.5;"/><path d="M478,170.9297 L478,180.9297 L488,180.9297 L478,170.9297 " fill="#FEFFDD" style="stroke:#181818;stroke-width:0.5;"/><text fill="#000000" font-family="sans-serif" font-size="17" lengthAdjust="spacing" textLength="386" x="35.75" y="191.7095">Die Organisation hat einen Messenger-Service</text><text fill="#000000" font-family="sans-serif" font-size="17" lengthAdjust="spacing" textLength="435" x="35.75" y="211.4985">bereitgestellt bekommen, der Teil der F&#246;deration ist</text><polygon fill="#000000" points="372.5,311.875,382.5,315.875,372.5,319.875,376.5,315.875" style="stroke:#000000;stroke-width:1.0;"/><line style="stroke:#000000;stroke-width:1.0;" x1="126.5" x2="378.5" y1="315.875" y2="315.875"/><text fill="#000000" font-family="sans-serif" font-size="17" font-weight="bold" lengthAdjust="spacing" textLength="12" x="133.5" y="290.0767">1</text><text fill="#000000" font-family="sans-serif" font-size="17" lengthAdjust="spacing" textLength="168" x="149.5" y="270.2876">FHIR Ressourcen im</text><text fill="#000000" font-family="sans-serif" font-size="17" lengthAdjust="spacing" textLength="166" x="149.5" y="290.0767">VZD-FHIR-Directory</text><text fill="#000000" font-family="sans-serif" font-size="17" lengthAdjust="spacing" textLength="94" x="149.5" y="309.8657">hinzuf&#252;gen</text><line style="stroke:#000000;stroke-width:1.0;" x1="394.5" x2="436.5" y1="389.2422" y2="389.2422"/><line style="stroke:#000000;stroke-width:1.0;" x1="436.5" x2="436.5" y1="389.2422" y2="402.2422"/><line style="stroke:#000000;stroke-width:1.0;" x1="395.5" x2="436.5" y1="402.2422" y2="402.2422"/><polygon fill="#000000" points="405.5,398.2422,395.5,402.2422,405.5,406.2422,401.5,402.2422" style="stroke:#000000;stroke-width:1.0;"/><text fill="#000000" font-family="sans-serif" font-size="17" font-weight="bold" lengthAdjust="spacing" textLength="12" x="401.5" y="363.4438">2</text><text fill="#000000" font-family="sans-serif" font-size="17" lengthAdjust="spacing" textLength="167" x="417.5" y="343.6548">Pr&#252;fung, ob g&#252;ltiges</text><text fill="#000000" font-family="sans-serif" font-size="17" lengthAdjust="spacing" textLength="159" x="417.5" y="363.4438">owner-accesstoken</text><text fill="#000000" font-family="sans-serif" font-size="17" lengthAdjust="spacing" textLength="64" x="417.5" y="383.2329">vorliegt</text><path d="M10,442.2422 L74,442.2422 L74,449.375 L64,459.375 L10,459.375 L10,442.2422 " fill="#D3D3D3" style="stroke:#000000;stroke-width:1.5;"/><rect fill="none" height="1040.2734" style="stroke:#000000;stroke-width:1.5;" width="1877.5" x="10" y="442.2422"/><text fill="#000000" font-family="sans-serif" font-size="13" font-weight="bold" lengthAdjust="spacing" textLength="19" x="25" y="455.3091">alt</text><text fill="#000000" font-family="sans-serif" font-size="11" font-weight="bold" lengthAdjust="spacing" textLength="5" x="89" y="460.2729">[</text><text fill="#000000" font-family="sans-serif" font-size="16" font-weight="bold" lengthAdjust="spacing" textLength="395" x="94" y="459.0938">kein g&#252;ltiges owner-accesstoken vorhanden</text><text fill="#000000" font-family="sans-serif" font-size="11" font-weight="bold" lengthAdjust="spacing" textLength="5" x="489" y="460.2729">]</text><path d="M20,495 L84,495 L84,502.1328 L74,512.1328 L20,512.1328 L20,495 " fill="#D3D3D3" style="stroke:#000000;stroke-width:1.5;"/><rect fill="none" height="335.5313" style="stroke:#000000;stroke-width:1.5;" width="1857.5" x="20" y="495"/><text fill="#000000" font-family="sans-serif" font-size="13" font-weight="bold" lengthAdjust="spacing" textLength="19" x="35" y="508.0669">alt</text><text fill="#000000" font-family="sans-serif" font-size="11" font-weight="bold" lengthAdjust="spacing" textLength="5" x="99" y="513.0308">[</text><text fill="#000000" font-family="sans-serif" font-size="16" font-weight="bold" lengthAdjust="spacing" textLength="481" x="104" y="511.8516">Akteur ist nicht am Registrierungs-Dienst angemeldet</text><text fill="#000000" font-family="sans-serif" font-size="11" font-weight="bold" lengthAdjust="spacing" textLength="5" x="585" y="513.0308">]</text><polygon fill="#000000" points="372.5,602.125,382.5,606.125,372.5,610.125,376.5,606.125" style="stroke:#000000;stroke-width:1.0;"/><line style="stroke:#000000;stroke-width:1.0;" x1="126.5" x2="378.5" y1="606.125" y2="606.125"/><text fill="#000000" font-family="sans-serif" font-size="17" font-weight="bold" lengthAdjust="spacing" textLength="12" x="133.5" y="580.3267">3</text><text fill="#000000" font-family="sans-serif" font-size="17" lengthAdjust="spacing" textLength="158" x="149.5" y="560.5376">Mit Admin-Account</text><text fill="#000000" font-family="sans-serif" font-size="17" lengthAdjust="spacing" textLength="213" x="149.5" y="580.3267">am Registrierungs-Dienst</text><text fill="#000000" font-family="sans-serif" font-size="17" lengthAdjust="spacing" textLength="84" x="149.5" y="600.1157">anmelden</text><polygon fill="#000000" points="1597.5,647.6445,1607.5,651.6445,1597.5,655.6445,1601.5,651.6445" style="stroke:#000000;stroke-width:1.0;"/><line style="stroke:#000000;stroke-width:1.0;" x1="394.5" x2="1603.5" y1="651.6445" y2="651.6445"/><text fill="#000000" font-family="sans-serif" font-size="17" font-weight="bold" lengthAdjust="spacing" textLength="12" x="401.5" y="645.6353">4</text><text fill="#000000" font-family="sans-serif" font-size="17" lengthAdjust="spacing" textLength="329" x="417.5" y="645.6353">Login mit Client-Credentials + 2.Faktor</text><path d="M1624,619.125 L1624,666.125 L1872,666.125 L1872,629.125 L1862,619.125 L1624,619.125 " fill="#FEFFDD" style="stroke:#181818;stroke-width:0.5;"/><path d="M1862,619.125 L1862,629.125 L1872,629.125 L1862,619.125 " fill="#FEFFDD" style="stroke:#181818;stroke-width:0.5;"/><text fill="#000000" font-family="sans-serif" font-size="16" lengthAdjust="spacing" textLength="174" x="1630" y="638.9766">Schnittstelle wird nicht</text><text fill="#000000" font-family="sans-serif" font-size="16" lengthAdjust="spacing" textLength="227" x="1630" y="657.6016">durch die gematik spezifiziert</text><line style="stroke:#000000;stroke-width:1.0;" x1="1619.5" x2="1661.5" y1="716.9531" y2="716.9531"/><line style="stroke:#000000;stroke-width:1.0;" x1="1661.5" x2="1661.5" y1="716.9531" y2="729.9531"/><line style="stroke:#000000;stroke-width:1.0;" x1="1620.5" x2="1661.5" y1="729.9531" y2="729.9531"/><polygon fill="#000000" points="1630.5,725.9531,1620.5,729.9531,1630.5,733.9531,1626.5,729.9531" style="stroke:#000000;stroke-width:1.0;"/><text fill="#000000" font-family="sans-serif" font-size="17" font-weight="bold" lengthAdjust="spacing" textLength="12" x="1626.5" y="701.0493">5</text><text fill="#000000" font-family="sans-serif" font-size="17" lengthAdjust="spacing" textLength="200" x="1642.5" y="691.1548">pr&#252;fe Client-Credentials</text><text fill="#000000" font-family="sans-serif" font-size="17" lengthAdjust="spacing" textLength="112" x="1642.5" y="710.9438">und 2. Faktor</text><polygon fill="#000000" points="405.5,759.7422,395.5,763.7422,405.5,767.7422,401.5,763.7422" style="stroke:#000000;stroke-width:1.0;"/><line style="stroke:#000000;stroke-width:1.0;stroke-dasharray:2.0,2.0;" x1="399.5" x2="1613.5" y1="763.7422" y2="763.7422"/><text fill="#000000" font-family="sans-serif" font-size="17" font-weight="bold" lengthAdjust="spacing" textLength="12" x="1540.5" y="757.7329">6</text><text fill="#000000" font-family="sans-serif" font-size="17" lengthAdjust="spacing" textLength="51" x="1556.5" y="757.7329">status</text><polygon fill="#000000" points="137.5,793.5313,127.5,797.5313,137.5,801.5313,133.5,797.5313" style="stroke:#000000;stroke-width:1.0;"/><line style="stroke:#000000;stroke-width:1.0;stroke-dasharray:2.0,2.0;" x1="131.5" x2="383.5" y1="797.5313" y2="797.5313"/><text fill="#000000" font-family="sans-serif" font-size="17" font-weight="bold" lengthAdjust="spacing" textLength="12" x="166.5" y="791.522">7</text><text fill="#000000" font-family="sans-serif" font-size="17" lengthAdjust="spacing" textLength="195" x="182.5" y="791.522">Erfolgreich angemeldet</text><polygon fill="#000000" points="1597.5,896.0508,1607.5,900.0508,1597.5,904.0508,1601.5,900.0508" style="stroke:#000000;stroke-width:1.0;"/><line style="stroke:#000000;stroke-width:1.0;" x1="394.5" x2="1603.5" y1="900.0508" y2="900.0508"/><text fill="#000000" font-family="sans-serif" font-size="17" font-weight="bold" lengthAdjust="spacing" textLength="12" x="401.5" y="894.0415">8</text><text fill="#000000" font-family="sans-serif" font-size="17" lengthAdjust="spacing" textLength="594" x="417.5" y="894.0415">RegService-OpenID-Token anfragen (z. B. GET /regserv/request_Token)</text><path d="M1624,867.5313 L1624,914.5313 L1872,914.5313 L1872,877.5313 L1862,867.5313 L1624,867.5313 " fill="#FEFFDD" style="stroke:#181818;stroke-width:0.5;"/><path d="M1862,867.5313 L1862,877.5313 L1872,877.5313 L1862,867.5313 " fill="#FEFFDD" style="stroke:#181818;stroke-width:0.5;"/><text fill="#000000" font-family="sans-serif" font-size="16" lengthAdjust="spacing" textLength="174" x="1630" y="887.3828">Schnittstelle wird nicht</text><text fill="#000000" font-family="sans-serif" font-size="16" lengthAdjust="spacing" textLength="227" x="1630" y="906.0078">durch die gematik spezifiziert</text><line style="stroke:#000000;stroke-width:1.0;" x1="1619.5" x2="1661.5" y1="965.3594" y2="965.3594"/><line style="stroke:#000000;stroke-width:1.0;" x1="1661.5" x2="1661.5" y1="965.3594" y2="978.3594"/><line style="stroke:#000000;stroke-width:1.0;" x1="1620.5" x2="1661.5" y1="978.3594" y2="978.3594"/><polygon fill="#000000" points="1630.5,974.3594,1620.5,978.3594,1630.5,982.3594,1626.5,978.3594" style="stroke:#000000;stroke-width:1.0;"/><text fill="#000000" font-family="sans-serif" font-size="17" font-weight="bold" lengthAdjust="spacing" textLength="12" x="1626.5" y="949.4556">9</text><text fill="#000000" font-family="sans-serif" font-size="17" lengthAdjust="spacing" textLength="139" x="1642.5" y="939.561">Verifizierung des</text><text fill="#000000" font-family="sans-serif" font-size="17" lengthAdjust="spacing" textLength="190" x="1642.5" y="959.3501">angemeldeten Akteurs</text><polygon fill="#000000" points="405.5,1008.1484,395.5,1012.1484,405.5,1016.1484,401.5,1012.1484" style="stroke:#000000;stroke-width:1.0;"/><line style="stroke:#000000;stroke-width:1.0;stroke-dasharray:2.0,2.0;" x1="399.5" x2="1613.5" y1="1012.1484" y2="1012.1484"/><text fill="#000000" font-family="sans-serif" font-size="17" font-weight="bold" lengthAdjust="spacing" textLength="24" x="901.5" y="1006.1392">10</text><text fill="#000000" font-family="sans-serif" font-size="17" lengthAdjust="spacing" textLength="678" x="929.5" y="1006.1392">RegService-OpenID-Token {telematikID, professionOID, Signaturzertifikat (x5c)}</text><polygon fill="#000000" points="1117.5,1066.9375,1127.5,1070.9375,1117.5,1074.9375,1121.5,1070.9375" style="stroke:#000000;stroke-width:1.0;"/><line style="stroke:#000000;stroke-width:1.0;" x1="394.5" x2="1123.5" y1="1070.9375" y2="1070.9375"/><text fill="#000000" font-family="sans-serif" font-size="17" font-weight="bold" lengthAdjust="spacing" textLength="24" x="401.5" y="1064.9282">11</text><text fill="#000000" font-family="sans-serif" font-size="17" lengthAdjust="spacing" textLength="593" x="429.5" y="1064.9282">GET /owner-authenticate (Auth Header mit RegService-OpenID-Token)</text><line style="stroke:#000000;stroke-width:1.0;" x1="1139.5" x2="1181.5" y1="1144.2695" y2="1144.2695"/><line style="stroke:#000000;stroke-width:1.0;" x1="1181.5" x2="1181.5" y1="1144.2695" y2="1157.2695"/><line style="stroke:#000000;stroke-width:1.0;" x1="1140.5" x2="1181.5" y1="1157.2695" y2="1157.2695"/><polygon fill="#000000" points="1150.5,1153.2695,1140.5,1157.2695,1150.5,1161.2695,1146.5,1157.2695" style="stroke:#000000;stroke-width:1.0;"/><text fill="#000000" font-family="sans-serif" font-size="17" font-weight="bold" lengthAdjust="spacing" textLength="24" x="1146.5" y="1138.2603">12</text><text fill="#000000" font-family="sans-serif" font-size="17" lengthAdjust="spacing" textLength="155" x="1174.5" y="1138.2603">Pr&#252;fung des Token</text><path d="M1341,1108.9375 L1341,1173.9375 L1607,1173.9375 L1607,1118.9375 L1597,1108.9375 L1341,1108.9375 " fill="#FEFFDD" style="stroke:#181818;stroke-width:0.5;"/><path d="M1597,1108.9375 L1597,1118.9375 L1607,1118.9375 L1597,1108.9375 " fill="#FEFFDD" style="stroke:#181818;stroke-width:0.5;"/><text fill="#000000" font-family="sans-serif" font-size="16" lengthAdjust="spacing" textLength="189" x="1347" y="1128.7891">Die Pr&#252;fschritte sind der</text><text fill="#000000" font-family="sans-serif" font-size="16" lengthAdjust="spacing" textLength="240" x="1347" y="1147.4141">gemSpec_VZD_FHIR_Directory</text><text fill="#000000" font-family="sans-serif" font-size="16" lengthAdjust="spacing" textLength="112" x="1347" y="1166.0391">zu entnehmen</text><path d="M20,1211.8125 L90,1211.8125 L90,1218.9453 L80,1228.9453 L20,1228.9453 L20,1211.8125 " fill="#D3D3D3" style="stroke:#000000;stroke-width:1.5;"/><rect fill="none" height="113.3359" style="stroke:#000000;stroke-width:1.5;" width="1231.5" x="20" y="1211.8125"/><text fill="#000000" font-family="sans-serif" font-size="13" font-weight="bold" lengthAdjust="spacing" textLength="25" x="35" y="1224.8794">opt</text><text fill="#000000" font-family="sans-serif" font-size="11" font-weight="bold" lengthAdjust="spacing" textLength="5" x="105" y="1229.8433">[</text><text fill="#000000" font-family="sans-serif" font-size="16" font-weight="bold" lengthAdjust="spacing" textLength="74" x="110" y="1228.6641">Abbruch</text><text fill="#000000" font-family="sans-serif" font-size="11" font-weight="bold" lengthAdjust="spacing" textLength="5" x="184" y="1229.8433">]</text><polygon fill="#000000" points="405.5,1254.3594,395.5,1258.3594,405.5,1262.3594,401.5,1258.3594" style="stroke:#000000;stroke-width:1.0;"/><line style="stroke:#000000;stroke-width:1.0;stroke-dasharray:2.0,2.0;" x1="399.5" x2="1128.5" y1="1258.3594" y2="1258.3594"/><text fill="#000000" font-family="sans-serif" font-size="17" font-weight="bold" lengthAdjust="spacing" textLength="24" x="847.5" y="1252.3501">13</text><text fill="#000000" font-family="sans-serif" font-size="17" lengthAdjust="spacing" textLength="247" x="875.5" y="1252.3501">Tokenpr&#252;fung fehlgeschlagen</text><polygon fill="#000000" points="137.5,1288.1484,127.5,1292.1484,137.5,1296.1484,133.5,1292.1484" style="stroke:#000000;stroke-width:1.0;"/><line style="stroke:#000000;stroke-width:1.0;stroke-dasharray:2.0,2.0;" x1="131.5" x2="383.5" y1="1292.1484" y2="1292.1484"/><text fill="#000000" font-family="sans-serif" font-size="17" font-weight="bold" lengthAdjust="spacing" textLength="24" x="186.5" y="1286.1392">14</text><text fill="#000000" font-family="sans-serif" font-size="17" lengthAdjust="spacing" textLength="163" x="214.5" y="1286.1392">keine Berechtigung</text><line style="stroke:#000000;stroke-width:1.0;" x1="1139.5" x2="1181.5" y1="1402.7266" y2="1402.7266"/><line style="stroke:#000000;stroke-width:1.0;" x1="1181.5" x2="1181.5" y1="1402.7266" y2="1415.7266"/><line style="stroke:#000000;stroke-width:1.0;" x1="1140.5" x2="1181.5" y1="1415.7266" y2="1415.7266"/><polygon fill="#000000" points="1150.5,1411.7266,1140.5,1415.7266,1150.5,1419.7266,1146.5,1415.7266" style="stroke:#000000;stroke-width:1.0;"/><text fill="#000000" font-family="sans-serif" font-size="17" font-weight="bold" lengthAdjust="spacing" textLength="24" x="1146.5" y="1386.8228">15</text><text fill="#000000" font-family="sans-serif" font-size="17" lengthAdjust="spacing" textLength="66" x="1174.5" y="1376.9282">erzeuge</text><text fill="#000000" font-family="sans-serif" font-size="17" lengthAdjust="spacing" textLength="159" x="1174.5" y="1396.7173">owner-accesstoken</text><polygon fill="#000000" points="405.5,1445.5156,395.5,1449.5156,405.5,1453.5156,401.5,1449.5156" style="stroke:#000000;stroke-width:1.0;"/><line style="stroke:#000000;stroke-width:1.0;stroke-dasharray:2.0,2.0;" x1="399.5" x2="1133.5" y1="1449.5156" y2="1449.5156"/><text fill="#000000" font-family="sans-serif" font-size="17" font-weight="bold" lengthAdjust="spacing" textLength="24" x="940.5" y="1443.5063">16</text><text fill="#000000" font-family="sans-serif" font-size="17" lengthAdjust="spacing" textLength="159" x="968.5" y="1443.5063">owner-accesstoken</text><path d="M20,1521.5156 L347,1521.5156 L347,1532.1406 L337,1542.1406 L20,1542.1406 L20,1521.5156 " fill="#EEEEEE" style="stroke:#000000;stroke-width:1.5;"/><rect fill="none" height="835.2891" style="stroke:#000000;stroke-width:1.5;" width="1556.5" x="20" y="1521.5156"/><text fill="#000000" font-family="sans-serif" font-size="16" font-weight="bold" lengthAdjust="spacing" textLength="282" x="35" y="1537.3672">FHIR-Directory Eintrag erstellen</text><path d="M272.5,1574.1406 L696.5,1574.1406 L696.5,1584.7656 L686.5,1594.7656 L272.5,1594.7656 L272.5,1574.1406 " fill="#EEEEEE" style="stroke:#000000;stroke-width:1.5;"/><rect fill="none" height="338.9375" style="stroke:#000000;stroke-width:1.5;" width="1263" x="272.5" y="1574.1406"/><text fill="#000000" font-family="sans-serif" font-size="16" font-weight="bold" lengthAdjust="spacing" textLength="379" x="287.5" y="1589.9922">FHIR-Ressource der Organisation anzeigen</text><polygon fill="#000000" points="893.5,1661.3438,903.5,1665.3438,893.5,1669.3438,897.5,1665.3438" style="stroke:#000000;stroke-width:1.0;"/><line style="stroke:#000000;stroke-width:1.0;" x1="394.5" x2="899.5" y1="1665.3438" y2="1665.3438"/><text fill="#000000" font-family="sans-serif" font-size="17" font-weight="bold" lengthAdjust="spacing" textLength="24" x="401.5" y="1649.4399">17</text><text fill="#000000" font-family="sans-serif" font-size="17" lengthAdjust="spacing" textLength="423" x="429.5" y="1639.5454">FHIR-Operation um eigenen Datensatz anzuzeigen</text><text fill="#000000" font-family="sans-serif" font-size="17" lengthAdjust="spacing" textLength="338" x="429.5" y="1659.3345">Authorization Bearer owner-accesstoken</text><line style="stroke:#000000;stroke-width:1.0;" x1="915.5" x2="957.5" y1="1718.9219" y2="1718.9219"/><line style="stroke:#000000;stroke-width:1.0;" x1="957.5" x2="957.5" y1="1718.9219" y2="1731.9219"/><line style="stroke:#000000;stroke-width:1.0;" x1="916.5" x2="957.5" y1="1731.9219" y2="1731.9219"/><polygon fill="#000000" points="926.5,1727.9219,916.5,1731.9219,926.5,1735.9219,922.5,1731.9219" style="stroke:#000000;stroke-width:1.0;"/><text fill="#000000" font-family="sans-serif" font-size="17" font-weight="bold" lengthAdjust="spacing" textLength="24" x="922.5" y="1703.0181">18</text><text fill="#000000" font-family="sans-serif" font-size="17" lengthAdjust="spacing" textLength="44" x="950.5" y="1693.1235">pr&#252;fe</text><text fill="#000000" font-family="sans-serif" font-size="17" lengthAdjust="spacing" textLength="159" x="950.5" y="1712.9126">owner-accesstoken</text><polygon fill="#000000" points="1341.5,1761.7109,1351.5,1765.7109,1341.5,1769.7109,1345.5,1765.7109" style="stroke:#000000;stroke-width:1.0;"/><line style="stroke:#000000;stroke-width:1.0;" x1="915.5" x2="1347.5" y1="1765.7109" y2="1765.7109"/><text fill="#000000" font-family="sans-serif" font-size="17" font-weight="bold" lengthAdjust="spacing" textLength="24" x="922.5" y="1759.7017">19</text><text fill="#000000" font-family="sans-serif" font-size="17" lengthAdjust="spacing" textLength="128" x="950.5" y="1759.7017">HTTPS Forward</text><line style="stroke:#000000;stroke-width:1.0;" x1="1363.5" x2="1405.5" y1="1799.5" y2="1799.5"/><line style="stroke:#000000;stroke-width:1.0;" x1="1405.5" x2="1405.5" y1="1799.5" y2="1812.5"/><line style="stroke:#000000;stroke-width:1.0;" x1="1364.5" x2="1405.5" y1="1812.5" y2="1812.5"/><polygon fill="#000000" points="1374.5,1808.5,1364.5,1812.5,1374.5,1816.5,1370.5,1812.5" style="stroke:#000000;stroke-width:1.0;"/><text fill="#000000" font-family="sans-serif" font-size="17" font-weight="bold" lengthAdjust="spacing" textLength="24" x="1370.5" y="1793.4907">20</text><text fill="#000000" font-family="sans-serif" font-size="17" lengthAdjust="spacing" textLength="125" x="1398.5" y="1793.4907">Eintrag suchen</text><polygon fill="#000000" points="926.5,1842.2891,916.5,1846.2891,926.5,1850.2891,922.5,1846.2891" style="stroke:#000000;stroke-width:1.0;"/><line style="stroke:#000000;stroke-width:1.0;stroke-dasharray:2.0,2.0;" x1="920.5" x2="1357.5" y1="1846.2891" y2="1846.2891"/><text fill="#000000" font-family="sans-serif" font-size="17" font-weight="bold" lengthAdjust="spacing" textLength="24" x="1218.5" y="1840.2798">21</text><text fill="#000000" font-family="sans-serif" font-size="17" lengthAdjust="spacing" textLength="105" x="1246.5" y="1840.2798">FHIR Bundle</text><polygon fill="#000000" points="405.5,1876.0781,395.5,1880.0781,405.5,1884.0781,401.5,1880.0781" style="stroke:#000000;stroke-width:1.0;"/><line style="stroke:#000000;stroke-width:1.0;stroke-dasharray:2.0,2.0;" x1="399.5" x2="909.5" y1="1880.0781" y2="1880.0781"/><text fill="#000000" font-family="sans-serif" font-size="17" font-weight="bold" lengthAdjust="spacing" textLength="24" x="747.5" y="1874.0688">22</text><text fill="#000000" font-family="sans-serif" font-size="17" lengthAdjust="spacing" textLength="128" x="775.5" y="1874.0688">HTTPS Forward</text><path d="M272.5,1952.0781 L764.5,1952.0781 L764.5,1962.7031 L754.5,1972.7031 L272.5,1972.7031 L272.5,1952.0781 " fill="#EEEEEE" style="stroke:#000000;stroke-width:1.5;"/><rect fill="none" height="338.9375" style="stroke:#000000;stroke-width:1.5;" width="1294" x="272.5" y="1952.0781"/><text fill="#000000" font-family="sans-serif" font-size="16" font-weight="bold" lengthAdjust="spacing" textLength="447" x="287.5" y="1967.9297">FHIR-Ressource der Organisation erstellen/&#228;ndern</text><polygon fill="#000000" points="893.5,2039.2813,903.5,2043.2813,893.5,2047.2813,897.5,2043.2813" style="stroke:#000000;stroke-width:1.0;"/><line style="stroke:#000000;stroke-width:1.0;" x1="394.5" x2="899.5" y1="2043.2813" y2="2043.2813"/><text fill="#000000" font-family="sans-serif" font-size="17" font-weight="bold" lengthAdjust="spacing" textLength="24" x="401.5" y="2027.3774">23</text><text fill="#000000" font-family="sans-serif" font-size="17" lengthAdjust="spacing" textLength="464" x="429.5" y="2017.4829">FHIR-Operationen um eigenen Datensatz zu bearbeiten</text><text fill="#000000" font-family="sans-serif" font-size="17" lengthAdjust="spacing" textLength="338" x="429.5" y="2037.272">Authorization Bearer owner-accesstoken</text><line style="stroke:#000000;stroke-width:1.0;" x1="915.5" x2="957.5" y1="2096.8594" y2="2096.8594"/><line style="stroke:#000000;stroke-width:1.0;" x1="957.5" x2="957.5" y1="2096.8594" y2="2109.8594"/><line style="stroke:#000000;stroke-width:1.0;" x1="916.5" x2="957.5" y1="2109.8594" y2="2109.8594"/><polygon fill="#000000" points="926.5,2105.8594,916.5,2109.8594,926.5,2113.8594,922.5,2109.8594" style="stroke:#000000;stroke-width:1.0;"/><text fill="#000000" font-family="sans-serif" font-size="17" font-weight="bold" lengthAdjust="spacing" textLength="24" x="922.5" y="2080.9556">24</text><text fill="#000000" font-family="sans-serif" font-size="17" lengthAdjust="spacing" textLength="44" x="950.5" y="2071.061">pr&#252;fe</text><text fill="#000000" font-family="sans-serif" font-size="17" lengthAdjust="spacing" textLength="159" x="950.5" y="2090.8501">owner-accesstoken</text><polygon fill="#000000" points="1341.5,2139.6484,1351.5,2143.6484,1341.5,2147.6484,1345.5,2143.6484" style="stroke:#000000;stroke-width:1.0;"/><line style="stroke:#000000;stroke-width:1.0;" x1="915.5" x2="1347.5" y1="2143.6484" y2="2143.6484"/><text fill="#000000" font-family="sans-serif" font-size="17" font-weight="bold" lengthAdjust="spacing" textLength="24" x="922.5" y="2137.6392">25</text><text fill="#000000" font-family="sans-serif" font-size="17" lengthAdjust="spacing" textLength="128" x="950.5" y="2137.6392">HTTPS Forward</text><line style="stroke:#000000;stroke-width:1.0;" x1="1363.5" x2="1405.5" y1="2177.4375" y2="2177.4375"/><line style="stroke:#000000;stroke-width:1.0;" x1="1405.5" x2="1405.5" y1="2177.4375" y2="2190.4375"/><line style="stroke:#000000;stroke-width:1.0;" x1="1364.5" x2="1405.5" y1="2190.4375" y2="2190.4375"/><polygon fill="#000000" points="1374.5,2186.4375,1364.5,2190.4375,1374.5,2194.4375,1370.5,2190.4375" style="stroke:#000000;stroke-width:1.0;"/><text fill="#000000" font-family="sans-serif" font-size="17" font-weight="bold" lengthAdjust="spacing" textLength="24" x="1370.5" y="2171.4282">26</text><text fill="#000000" font-family="sans-serif" font-size="17" lengthAdjust="spacing" textLength="156" x="1398.5" y="2171.4282">Eintrag bearbeiten</text><polygon fill="#000000" points="926.5,2220.2266,916.5,2224.2266,926.5,2228.2266,922.5,2224.2266" style="stroke:#000000;stroke-width:1.0;"/><line style="stroke:#000000;stroke-width:1.0;stroke-dasharray:2.0,2.0;" x1="920.5" x2="1357.5" y1="2224.2266" y2="2224.2266"/><text fill="#000000" font-family="sans-serif" font-size="17" font-weight="bold" lengthAdjust="spacing" textLength="24" x="1269.5" y="2218.2173">27</text><text fill="#000000" font-family="sans-serif" font-size="17" lengthAdjust="spacing" textLength="54" x="1297.5" y="2218.2173">Status</text><polygon fill="#000000" points="405.5,2254.0156,395.5,2258.0156,405.5,2262.0156,401.5,2258.0156" style="stroke:#000000;stroke-width:1.0;"/><line style="stroke:#000000;stroke-width:1.0;stroke-dasharray:2.0,2.0;" x1="399.5" x2="909.5" y1="2258.0156" y2="2258.0156"/><text fill="#000000" font-family="sans-serif" font-size="17" font-weight="bold" lengthAdjust="spacing" textLength="24" x="747.5" y="2252.0063">28</text><text fill="#000000" font-family="sans-serif" font-size="17" lengthAdjust="spacing" textLength="128" x="775.5" y="2252.0063">HTTPS Forward</text><polygon fill="#000000" points="137.5,2319.8047,127.5,2323.8047,137.5,2327.8047,133.5,2323.8047" style="stroke:#000000;stroke-width:1.0;"/><line style="stroke:#000000;stroke-width:1.0;stroke-dasharray:2.0,2.0;" x1="131.5" x2="383.5" y1="2323.8047" y2="2323.8047"/><text fill="#000000" font-family="sans-serif" font-size="17" font-weight="bold" lengthAdjust="spacing" textLength="24" x="298.5" y="2317.7954">29</text><text fill="#000000" font-family="sans-serif" font-size="17" lengthAdjust="spacing" textLength="51" x="326.5" y="2317.7954">status</text></g></svg>