<?xml version="1.0" encoding="us-ascii" standalone="no"?><svg xmlns="http://www.w3.org/2000/svg" xmlns:xlink="http://www.w3.org/1999/xlink" contentStyleType="text/css" height="1097px" preserveAspectRatio="none" style="width:1592px;height:1097px;background:#FFFFFF;" version="1.1" viewBox="0 0 1592 1097" width="1592px" zoomAndPan="magnify"><defs/><g><rect fill="#F5F5F5" height="1085.2031" style="stroke:#181818;stroke-width:0.5;" width="222" x="472.5" y="6"/><text fill="#000000" font-family="sans-serif" font-size="18" font-weight="bold" lengthAdjust="spacing" textLength="93" x="534.5" y="22.708">Endger&#228;t</text><text fill="#000000" font-family="sans-serif" font-size="13" font-weight="bold" lengthAdjust="spacing" textLength="5" x="627.5" y="23.8872">&#160;</text><rect fill="#F5F5F5" height="1085.2031" style="stroke:#181818;stroke-width:0.5;" width="446" x="1134.5" y="6"/><text fill="#000000" font-family="sans-serif" font-size="18" font-weight="bold" lengthAdjust="spacing" textLength="200" x="1255" y="22.708">VZD-FHIR-Directory</text><text fill="#000000" font-family="sans-serif" font-size="13" font-weight="bold" lengthAdjust="spacing" textLength="5" x="1455" y="23.8872">&#160;</text><rect fill="#DCDCDC" height="305.3125" style="stroke:#000000;stroke-width:1.0;" width="10" x="578.5" y="252.6016"/><rect fill="#DCDCDC" height="280.3125" style="stroke:#000000;stroke-width:1.0;" width="10" x="578.5" y="676.3281"/><rect fill="#DCDCDC" height="167.9453" style="stroke:#000000;stroke-width:1.0;" width="10" x="1240.5" y="331.1797"/><rect fill="#DCDCDC" height="167.9453" style="stroke:#000000;stroke-width:1.0;" width="10" x="1240.5" y="729.9063"/><rect fill="#DCDCDC" height="33.7891" style="stroke:#000000;stroke-width:1.0;" width="10" x="1464.5" y="431.5469"/><rect fill="#DCDCDC" height="33.7891" style="stroke:#000000;stroke-width:1.0;" width="10" x="1464.5" y="830.2734"/><rect fill="none" height="359.7266" style="stroke:#000000;stroke-width:1.5;" width="1566.5" x="20" y="206.1875"/><rect fill="none" height="359.7266" style="stroke:#000000;stroke-width:1.5;" width="1566.5" x="20" y="604.9141"/><line style="stroke:#000000;stroke-width:0.5;stroke-dasharray:5.0,5.0;" x1="126" x2="126" y1="111.5625" y2="981.6406"/><line style="stroke:#000000;stroke-width:0.5;stroke-dasharray:5.0,5.0;" x1="583.5" x2="583.5" y1="111.5625" y2="981.6406"/><line style="stroke:#000000;stroke-width:0.5;stroke-dasharray:5.0,5.0;" x1="1245.5" x2="1245.5" y1="111.5625" y2="981.6406"/><line style="stroke:#000000;stroke-width:0.5;stroke-dasharray:5.0,5.0;" x1="1469.5" x2="1469.5" y1="111.5625" y2="981.6406"/><text fill="#000000" font-family="sans-serif" font-size="20" lengthAdjust="spacing" textLength="187" x="30" y="83.5645">Akteur in der Rolle</text><text fill="#000000" font-family="sans-serif" font-size="20" lengthAdjust="spacing" textLength="95" x="76" y="106.8457">User-HBA</text><ellipse cx="126.5" cy="13.5" fill="#DCDCDC" rx="8" ry="8" style="stroke:#000000;stroke-width:0.5;"/><path d="M126.5,21.5 L126.5,48.5 M113.5,29.5 L139.5,29.5 M126.5,48.5 L113.5,63.5 M126.5,48.5 L139.5,63.5 " fill="none" style="stroke:#000000;stroke-width:0.5;"/><text fill="#000000" font-family="sans-serif" font-size="20" lengthAdjust="spacing" textLength="187" x="30" y="999.2051">Akteur in der Rolle</text><text fill="#000000" font-family="sans-serif" font-size="20" lengthAdjust="spacing" textLength="95" x="76" y="1022.4863">User-HBA</text><ellipse cx="126.5" cy="1035.7031" fill="#DCDCDC" rx="8" ry="8" style="stroke:#000000;stroke-width:0.5;"/><path d="M126.5,1043.7031 L126.5,1070.7031 M113.5,1051.7031 L139.5,1051.7031 M126.5,1070.7031 L113.5,1085.7031 M126.5,1070.7031 L139.5,1085.7031 " fill="none" style="stroke:#000000;stroke-width:0.5;"/><rect fill="#EFEFFF" height="37.2813" rx="2.5" ry="2.5" style="stroke:#000000;stroke-width:0.5;" width="214" x="476.5" y="73.2813"/><text fill="#000000" font-family="sans-serif" font-size="20" lengthAdjust="spacing" textLength="198" x="484.5" y="98.8457">TI-Messenger-Client</text><rect fill="#EFEFFF" height="37.2813" rx="2.5" ry="2.5" style="stroke:#000000;stroke-width:0.5;" width="214" x="476.5" y="980.6406"/><text fill="#000000" font-family="sans-serif" font-size="20" lengthAdjust="spacing" textLength="198" x="484.5" y="1006.2051">TI-Messenger-Client</text><rect fill="#EFEFFF" height="37.2813" rx="2.5" ry="2.5" style="stroke:#000000;stroke-width:0.5;" width="214" x="1138.5" y="73.2813"/><text fill="#000000" font-family="sans-serif" font-size="20" lengthAdjust="spacing" textLength="108" x="1191.5" y="98.8457">FHIR-Proxy</text><rect fill="#EFEFFF" height="37.2813" rx="2.5" ry="2.5" style="stroke:#000000;stroke-width:0.5;" width="214" x="1138.5" y="980.6406"/><text fill="#000000" font-family="sans-serif" font-size="20" lengthAdjust="spacing" textLength="108" x="1191.5" y="1006.2051">FHIR-Proxy</text><rect fill="#EFEFFF" height="37.2813" rx="2.5" ry="2.5" style="stroke:#000000;stroke-width:0.5;" width="214" x="1362.5" y="73.2813"/><text fill="#000000" font-family="sans-serif" font-size="20" lengthAdjust="spacing" textLength="145" x="1397" y="98.8457">FHIR-Directory</text><rect fill="#EFEFFF" height="37.2813" rx="2.5" ry="2.5" style="stroke:#000000;stroke-width:0.5;" width="214" x="1362.5" y="980.6406"/><text fill="#000000" font-family="sans-serif" font-size="20" lengthAdjust="spacing" textLength="145" x="1397" y="1006.2051">FHIR-Directory</text><rect fill="#DCDCDC" height="305.3125" style="stroke:#000000;stroke-width:1.0;" width="10" x="578.5" y="252.6016"/><rect fill="#DCDCDC" height="280.3125" style="stroke:#000000;stroke-width:1.0;" width="10" x="578.5" y="676.3281"/><rect fill="#DCDCDC" height="167.9453" style="stroke:#000000;stroke-width:1.0;" width="10" x="1240.5" y="331.1797"/><rect fill="#DCDCDC" height="167.9453" style="stroke:#000000;stroke-width:1.0;" width="10" x="1240.5" y="729.9063"/><rect fill="#DCDCDC" height="33.7891" style="stroke:#000000;stroke-width:1.0;" width="10" x="1464.5" y="431.5469"/><rect fill="#DCDCDC" height="33.7891" style="stroke:#000000;stroke-width:1.0;" width="10" x="1464.5" y="830.2734"/><path d="M20,206.1875 L416,206.1875 L416,216.8125 L406,226.8125 L20,226.8125 L20,206.1875 " fill="#EEEEEE" style="stroke:#000000;stroke-width:1.5;"/><rect fill="none" height="359.7266" style="stroke:#000000;stroke-width:1.5;" width="1566.5" x="20" y="206.1875"/><text fill="#000000" font-family="sans-serif" font-size="16" font-weight="bold" lengthAdjust="spacing" textLength="351" x="35" y="222.0391">Sichtbarkeit f&#252;r Versicherte abschalten</text><polygon fill="#000000" points="566.5,248.6016,576.5,252.6016,566.5,256.6016,570.5,252.6016" style="stroke:#000000;stroke-width:1.0;"/><line style="stroke:#000000;stroke-width:1.0;" x1="126.5" x2="572.5" y1="252.6016" y2="252.6016"/><text fill="#000000" font-family="sans-serif" font-size="17" font-weight="bold" lengthAdjust="spacing" textLength="12" x="133.5" y="246.5923">1</text><text fill="#000000" font-family="sans-serif" font-size="17" lengthAdjust="spacing" textLength="331" x="149.5" y="246.5923">Deaktiviere Sichtbarkeit f&#252;r Versicherte</text><polygon fill="#000000" points="1228.5,327.1797,1238.5,331.1797,1228.5,335.1797,1232.5,331.1797" style="stroke:#000000;stroke-width:1.0;"/><line style="stroke:#000000;stroke-width:1.0;" x1="588.5" x2="1234.5" y1="331.1797" y2="331.1797"/><text fill="#000000" font-family="sans-serif" font-size="17" font-weight="bold" lengthAdjust="spacing" textLength="12" x="595.5" y="315.2759">2</text><text fill="#000000" font-family="sans-serif" font-size="17" lengthAdjust="spacing" textLength="208" x="611.5" y="305.3813">PUT /owner/Endpoint/?...</text><text fill="#000000" font-family="sans-serif" font-size="17" lengthAdjust="spacing" textLength="617" x="611.5" y="325.1704">Setze Endpoint.extension:endpointVisibility auf "code": "hide-versicherte"</text><line style="stroke:#000000;stroke-width:1.0;" x1="1250.5" x2="1292.5" y1="384.7578" y2="384.7578"/><line style="stroke:#000000;stroke-width:1.0;" x1="1292.5" x2="1292.5" y1="384.7578" y2="397.7578"/><line style="stroke:#000000;stroke-width:1.0;" x1="1251.5" x2="1292.5" y1="397.7578" y2="397.7578"/><polygon fill="#000000" points="1261.5,393.7578,1251.5,397.7578,1261.5,401.7578,1257.5,397.7578" style="stroke:#000000;stroke-width:1.0;"/><text fill="#000000" font-family="sans-serif" font-size="17" font-weight="bold" lengthAdjust="spacing" textLength="12" x="1257.5" y="368.854">3</text><text fill="#000000" font-family="sans-serif" font-size="17" lengthAdjust="spacing" textLength="44" x="1273.5" y="358.9595">pr&#252;fe</text><text fill="#000000" font-family="sans-serif" font-size="17" lengthAdjust="spacing" textLength="159" x="1273.5" y="378.7485">owner-accesstoken</text><polygon fill="#000000" points="1452.5,427.5469,1462.5,431.5469,1452.5,435.5469,1456.5,431.5469" style="stroke:#000000;stroke-width:1.0;"/><line style="stroke:#000000;stroke-width:1.0;" x1="1250.5" x2="1458.5" y1="431.5469" y2="431.5469"/><text fill="#000000" font-family="sans-serif" font-size="17" font-weight="bold" lengthAdjust="spacing" textLength="12" x="1257.5" y="425.5376">4</text><text fill="#000000" font-family="sans-serif" font-size="17" lengthAdjust="spacing" textLength="128" x="1273.5" y="425.5376">HTTPS Forward</text><polygon fill="#000000" points="1261.5,461.3359,1251.5,465.3359,1261.5,469.3359,1257.5,465.3359" style="stroke:#000000;stroke-width:1.0;"/><line style="stroke:#000000;stroke-width:1.0;stroke-dasharray:2.0,2.0;" x1="1255.5" x2="1468.5" y1="465.3359" y2="465.3359"/><text fill="#000000" font-family="sans-serif" font-size="17" font-weight="bold" lengthAdjust="spacing" textLength="12" x="1314.5" y="459.3267">5</text><text fill="#000000" font-family="sans-serif" font-size="17" lengthAdjust="spacing" textLength="132" x="1330.5" y="459.3267">result body json</text><polygon fill="#000000" points="599.5,495.125,589.5,499.125,599.5,503.125,595.5,499.125" style="stroke:#000000;stroke-width:1.0;"/><line style="stroke:#000000;stroke-width:1.0;stroke-dasharray:2.0,2.0;" x1="593.5" x2="1244.5" y1="499.125" y2="499.125"/><text fill="#000000" font-family="sans-serif" font-size="17" font-weight="bold" lengthAdjust="spacing" textLength="12" x="1090.5" y="493.1157">6</text><text fill="#000000" font-family="sans-serif" font-size="17" lengthAdjust="spacing" textLength="132" x="1106.5" y="493.1157">result body json</text><polygon fill="#000000" points="137.5,553.9141,127.5,557.9141,137.5,561.9141,133.5,557.9141" style="stroke:#000000;stroke-width:1.0;"/><line style="stroke:#000000;stroke-width:1.0;" x1="131.5" x2="582.5" y1="557.9141" y2="557.9141"/><text fill="#000000" font-family="sans-serif" font-size="17" font-weight="bold" lengthAdjust="spacing" textLength="12" x="148.5" y="551.9048">7</text><text fill="#000000" font-family="sans-serif" font-size="17" lengthAdjust="spacing" textLength="412" x="164.5" y="551.9048">Ihre MXID ist f&#252;r Versicherte nicht mehr sichtbar.</text><path d="M20,604.9141 L416,604.9141 L416,615.5391 L406,625.5391 L20,625.5391 L20,604.9141 " fill="#EEEEEE" style="stroke:#000000;stroke-width:1.5;"/><rect fill="none" height="359.7266" style="stroke:#000000;stroke-width:1.5;" width="1566.5" x="20" y="604.9141"/><text fill="#000000" font-family="sans-serif" font-size="16" font-weight="bold" lengthAdjust="spacing" textLength="351" x="35" y="620.7656">Sichtbarkeit f&#252;r Versicherte anschalten</text><polygon fill="#000000" points="566.5,672.3281,576.5,676.3281,566.5,680.3281,570.5,676.3281" style="stroke:#000000;stroke-width:1.0;"/><line style="stroke:#000000;stroke-width:1.0;" x1="126.5" x2="572.5" y1="676.3281" y2="676.3281"/><text fill="#000000" font-family="sans-serif" font-size="17" font-weight="bold" lengthAdjust="spacing" textLength="12" x="133.5" y="670.3188">8</text><text fill="#000000" font-family="sans-serif" font-size="17" lengthAdjust="spacing" textLength="309" x="149.5" y="670.3188">Aktiviere Sichtbarkeit f&#252;r Versicherte</text><polygon fill="#000000" points="1228.5,725.9063,1238.5,729.9063,1228.5,733.9063,1232.5,729.9063" style="stroke:#000000;stroke-width:1.0;"/><line style="stroke:#000000;stroke-width:1.0;" x1="588.5" x2="1234.5" y1="729.9063" y2="729.9063"/><text fill="#000000" font-family="sans-serif" font-size="17" font-weight="bold" lengthAdjust="spacing" textLength="12" x="595.5" y="714.0024">9</text><text fill="#000000" font-family="sans-serif" font-size="17" lengthAdjust="spacing" textLength="208" x="611.5" y="704.1079">PUT /owner/Endpoint/?...</text><text fill="#000000" font-family="sans-serif" font-size="17" lengthAdjust="spacing" textLength="391" x="611.5" y="723.897">Entferne Endpoint.extension:endpointVisibility</text><line style="stroke:#000000;stroke-width:1.0;" x1="1250.5" x2="1292.5" y1="783.4844" y2="783.4844"/><line style="stroke:#000000;stroke-width:1.0;" x1="1292.5" x2="1292.5" y1="783.4844" y2="796.4844"/><line style="stroke:#000000;stroke-width:1.0;" x1="1251.5" x2="1292.5" y1="796.4844" y2="796.4844"/><polygon fill="#000000" points="1261.5,792.4844,1251.5,796.4844,1261.5,800.4844,1257.5,796.4844" style="stroke:#000000;stroke-width:1.0;"/><text fill="#000000" font-family="sans-serif" font-size="17" font-weight="bold" lengthAdjust="spacing" textLength="24" x="1257.5" y="767.5806">10</text><text fill="#000000" font-family="sans-serif" font-size="17" lengthAdjust="spacing" textLength="44" x="1285.5" y="757.686">pr&#252;fe</text><text fill="#000000" font-family="sans-serif" font-size="17" lengthAdjust="spacing" textLength="159" x="1285.5" y="777.4751">owner-accesstoken</text><polygon fill="#000000" points="1452.5,826.2734,1462.5,830.2734,1452.5,834.2734,1456.5,830.2734" style="stroke:#000000;stroke-width:1.0;"/><line style="stroke:#000000;stroke-width:1.0;" x1="1250.5" x2="1458.5" y1="830.2734" y2="830.2734"/><text fill="#000000" font-family="sans-serif" font-size="17" font-weight="bold" lengthAdjust="spacing" textLength="24" x="1257.5" y="824.2642">11</text><text fill="#000000" font-family="sans-serif" font-size="17" lengthAdjust="spacing" textLength="128" x="1285.5" y="824.2642">HTTPS Forward</text><polygon fill="#000000" points="1261.5,860.0625,1251.5,864.0625,1261.5,868.0625,1257.5,864.0625" style="stroke:#000000;stroke-width:1.0;"/><line style="stroke:#000000;stroke-width:1.0;stroke-dasharray:2.0,2.0;" x1="1255.5" x2="1468.5" y1="864.0625" y2="864.0625"/><text fill="#000000" font-family="sans-serif" font-size="17" font-weight="bold" lengthAdjust="spacing" textLength="24" x="1302.5" y="858.0532">12</text><text fill="#000000" font-family="sans-serif" font-size="17" lengthAdjust="spacing" textLength="132" x="1330.5" y="858.0532">result body json</text><polygon fill="#000000" points="599.5,893.8516,589.5,897.8516,599.5,901.8516,595.5,897.8516" style="stroke:#000000;stroke-width:1.0;"/><line style="stroke:#000000;stroke-width:1.0;stroke-dasharray:2.0,2.0;" x1="593.5" x2="1244.5" y1="897.8516" y2="897.8516"/><text fill="#000000" font-family="sans-serif" font-size="17" font-weight="bold" lengthAdjust="spacing" textLength="24" x="1078.5" y="891.8423">13</text><text fill="#000000" font-family="sans-serif" font-size="17" lengthAdjust="spacing" textLength="132" x="1106.5" y="891.8423">result body json</text><polygon fill="#000000" points="137.5,952.6406,127.5,956.6406,137.5,960.6406,133.5,956.6406" style="stroke:#000000;stroke-width:1.0;"/><line style="stroke:#000000;stroke-width:1.0;" x1="131.5" x2="582.5" y1="956.6406" y2="956.6406"/><text fill="#000000" font-family="sans-serif" font-size="17" font-weight="bold" lengthAdjust="spacing" textLength="24" x="171.5" y="950.6313">14</text><text fill="#000000" font-family="sans-serif" font-size="17" lengthAdjust="spacing" textLength="377" x="199.5" y="950.6313">Ihre MXID ist f&#252;r Versicherte wieder sichtbar.</text></g></svg>