<?xml version="1.0" encoding="us-ascii" standalone="no"?><svg xmlns="http://www.w3.org/2000/svg" xmlns:xlink="http://www.w3.org/1999/xlink" contentStyleType="text/css" height="632px" preserveAspectRatio="none" style="width:1402px;height:632px;background:#FFFFFF;" version="1.1" viewBox="0 0 1402 632" width="1402px" zoomAndPan="magnify"><defs/><g><!--cluster Rolle--><g id="cluster_Rolle"><path d="M190,202 L268,202 A7.5,7.5 0 0 1 273,207 L287,246.5938 L350,246.5938 A5,5 0 0 1 355,251.5938 L355,419 A5,5 0 0 1 350,424 L190,424 A5,5 0 0 1 185,419 L185,207 A5,5 0 0 1 190,202 " fill="none" style="stroke:#000000;stroke-width:3.0;"/><line style="stroke:#000000;stroke-width:3.0;" x1="185" x2="287" y1="246.5938" y2="246.5938"/><text fill="#000000" font-family="sans-serif" font-size="28" font-weight="bold" lengthAdjust="spacing" textLength="76" x="193" y="231.9902">Rolle</text></g><!--cluster Anwendungsf?lle--><g id="cluster_Anwendungsf&#228;lle"><path d="M589,8 L865,8 A7.5,7.5 0 0 1 870,13 L884,52.5938 L1383,52.5938 A5,5 0 0 1 1388,57.5938 L1388,613 A5,5 0 0 1 1383,618 L589,618 A5,5 0 0 1 584,613 L584,13 A5,5 0 0 1 589,8 " fill="none" style="stroke:#000000;stroke-width:3.0;"/><line style="stroke:#000000;stroke-width:3.0;" x1="584" x2="884" y1="52.5938" y2="52.5938"/><text fill="#000000" font-family="sans-serif" font-size="28" font-weight="bold" lengthAdjust="spacing" textLength="274" x="592" y="37.9902">Anwendungsf&#228;lle</text></g><g id="elem_GMN11"><path d="M12,444 L12,524.5313 A0,0 0 0 0 12,524.5313 L528,524.5313 A0,0 0 0 0 528,524.5313 L528,464 L508,444 L278,444 L270,408.7422 L262,444 L12,444 A0,0 0 0 0 12,444 " fill="#FEFFDD" style="stroke:#181818;stroke-width:1.0;"/><path d="M508,444 L508,464 L528,464 L508,444 " fill="#FEFFDD" style="stroke:#181818;stroke-width:1.0;"/><text fill="#000000" font-family="sans-serif" font-size="26" lengthAdjust="spacing" textLength="474" x="24" y="478.1338">z. B. Beauftragter Mitarbeiter in einer</text><text fill="#000000" font-family="sans-serif" font-size="26" lengthAdjust="spacing" textLength="162" x="24" y="508.3994">Organisation</text></g><!--entity oa--><g id="elem_oa"><ellipse cx="270" cy="289" fill="#DCDCDC" rx="32" ry="32" style="stroke:#000000;stroke-width:1.0;"/><path d="M270,329 C278,329 284,329 292,321 C308,321 324,337 324,353 L324,361 C324,369 316,377 308,377 L232,377 C224,377 216,369 216,361 L216,353 C216,337 232,321 248,321 C256,329 262,329 270,329 " fill="#DCDCDC" style="stroke:#000000;stroke-width:1.0;"/><text fill="#000000" font-family="Aapex" font-size="26" lengthAdjust="spacing" textLength="138" x="201" y="402.1338">Org-Admin</text></g><g id="elem_UC1"><ellipse cx="985.5145" cy="137.5029" fill="#F0F8FF" rx="353.5145" ry="75.5029" style="stroke:#181818;stroke-width:1.0;"/><text fill="#000000" font-family="sans-serif" font-size="28" font-weight="bold" lengthAdjust="spacing" textLength="190" x="886.5145" y="110.6025">&#171;AF_10103&#187;</text><text fill="#000000" font-family="sans-serif" font-size="28" lengthAdjust="spacing" textLength="8" x="1076.5145" y="110.6025">&#160;</text><text fill="#000000" font-family="sans-serif" font-size="28" lengthAdjust="spacing" textLength="462" x="750.5145" y="143.1963">Authentisieren einer Organisation</text><text fill="#000000" font-family="sans-serif" font-size="28" lengthAdjust="spacing" textLength="340" x="815.5145" y="175.79">am TI-Messenger-Dienst</text></g><g id="elem_UC2"><ellipse cx="986.0504" cy="332.0101" fill="#F0F8FF" rx="386.0504" ry="82.0101" style="stroke:#181818;stroke-width:1.0;"/><text fill="#000000" font-family="sans-serif" font-size="28" font-weight="bold" lengthAdjust="spacing" textLength="190" x="887.0504" y="305.1097">&#171;AF_10060&#187;</text><text fill="#000000" font-family="sans-serif" font-size="28" lengthAdjust="spacing" textLength="8" x="1077.0504" y="305.1097">&#160;</text><text fill="#000000" font-family="sans-serif" font-size="28" lengthAdjust="spacing" textLength="550" x="707.0504" y="337.7034">Bereitstellung eines Messenger-Service</text><text fill="#000000" font-family="sans-serif" font-size="28" lengthAdjust="spacing" textLength="286" x="843.0504" y="370.2972">f&#252;r eine Organisation</text></g><g id="elem_UC3"><ellipse cx="985.8843" cy="526.1418" fill="#F1F1F1" rx="312.8843" ry="75.1418" style="stroke:#181818;stroke-width:1.0;"/><text fill="#000000" font-family="sans-serif" font-size="28" font-weight="bold" lengthAdjust="spacing" textLength="190" x="886.8843" y="499.2414">&#171;AF_10059&#187;</text><text fill="#000000" font-family="sans-serif" font-size="28" lengthAdjust="spacing" textLength="8" x="1076.8843" y="499.2414">&#160;</text><text fill="#000000" font-family="sans-serif" font-size="28" lengthAdjust="spacing" textLength="388" x="787.8843" y="531.8351">Organisationsressourcen im</text><text fill="#000000" font-family="sans-serif" font-size="28" lengthAdjust="spacing" textLength="410" x="780.8843" y="564.4289">Verzeichnisdienst hinzuf&#252;gen</text></g><polygon fill="#000000" points="651.1749,214.0893,631.7493,210.8266,641.4903,216.581,635.736,226.322,651.1749,214.0893" style="stroke:#000000;stroke-width:2.0;"/><path d="M339.092,308.7927 C401.9622,287.4526 498.7662,255.6341 584,232 C605.8257,225.948 616.7688,222.9413 639.5534,217.0793 " fill="none" style="stroke:#000000;stroke-width:2.0;"/><polygon fill="#000000" points="599.6852,332,581.6852,324,589.6852,332,581.6852,340,599.6852,332" style="stroke:#000000;stroke-width:2.0;"/><path d="M339.6251,332 C401.7602,332 487.2091,332 587.6852,332 " fill="none" style="stroke:#000000;stroke-width:2.0;"/><polygon fill="#000000" points="672.7529,455.407,657.2563,443.2475,663.0566,452.9612,653.3429,458.7615,672.7529,455.407" style="stroke:#000000;stroke-width:2.0;"/><path d="M339.092,355.2073 C401.9622,376.5474 498.7662,408.3659 584,432 C612.7,439.9581 631.0421,444.8856 661.1174,452.472 " fill="none" style="stroke:#000000;stroke-width:2.0;"/></g></svg>