<?xml version="1.0" encoding="us-ascii" standalone="no"?><svg xmlns="http://www.w3.org/2000/svg" xmlns:xlink="http://www.w3.org/1999/xlink" contentStyleType="text/css" height="814px" preserveAspectRatio="none" style="width:1598px;height:814px;background:#FFFFFF;" version="1.1" viewBox="0 0 1598 814" width="1598px" zoomAndPan="magnify"><defs/><g><!--cluster Rolle--><g id="cluster_Rolle"><path d="M223,462 L301,462 A7.5,7.5 0 0 1 306,467 L320,506.5938 L355,506.5938 A5,5 0 0 1 360,511.5938 L360,679 A5,5 0 0 1 355,684 L223,684 A5,5 0 0 1 218,679 L218,467 A5,5 0 0 1 223,462 " fill="none" style="stroke:#000000;stroke-width:3.0;"/><line style="stroke:#000000;stroke-width:3.0;" x1="218" x2="320" y1="506.5938" y2="506.5938"/><text fill="#000000" font-family="sans-serif" font-size="28" font-weight="bold" lengthAdjust="spacing" textLength="76" x="226" y="491.9902">Rolle</text></g><!--cluster TI-M spezifische Kommunikation--><g id="cluster_TI-M spezifische Kommunikation"><path d="M791,8 L1301,8 A7.5,7.5 0 0 1 1306,13 L1320,52.5938 L1579,52.5938 A5,5 0 0 1 1584,57.5938 L1584,795 A5,5 0 0 1 1579,800 L791,800 A5,5 0 0 1 786,795 L786,13 A5,5 0 0 1 791,8 " fill="none" style="stroke:#000000;stroke-width:3.0;"/><line style="stroke:#000000;stroke-width:3.0;" x1="786" x2="1320" y1="52.5938" y2="52.5938"/><text fill="#000000" font-family="sans-serif" font-size="28" font-weight="bold" lengthAdjust="spacing" textLength="508" x="794" y="37.9902">TI-M spezifische Kommunikation</text></g><g id="elem_GMN11"><path d="M12,704 L12,784.5313 A0,0 0 0 0 12,784.5313 L566,784.5313 A0,0 0 0 0 566,784.5313 L566,724 L546,704 L297,704 L289,668.7422 L281,704 L12,704 A0,0 0 0 0 12,704 " fill="#FEFFDD" style="stroke:#181818;stroke-width:1.0;"/><path d="M546,704 L546,724 L566,724 L546,704 " fill="#FEFFDD" style="stroke:#181818;stroke-width:1.0;"/><text fill="#000000" font-family="sans-serif" font-size="26" lengthAdjust="spacing" textLength="512" x="24" y="738.1338">jeder Akteur, der an der Kommunikation</text><text fill="#000000" font-family="sans-serif" font-size="26" lengthAdjust="spacing" textLength="406" x="24" y="768.3994">in der TI-M F&#246;deration teilnimmt</text></g><!--entity u--><g id="elem_u"><ellipse cx="289" cy="549" fill="#DCDCDC" rx="32" ry="32" style="stroke:#000000;stroke-width:1.0;"/><path d="M289,589 C297,589 303,589 311,581 C327,581 343,597 343,613 L343,621 C343,629 335,637 327,637 L251,637 C243,637 235,629 235,621 L235,613 C235,597 251,581 267,581 C275,589 281,589 289,589 " fill="#DCDCDC" style="stroke:#000000;stroke-width:1.0;"/><text fill="#000000" font-family="sans-serif" font-size="26" lengthAdjust="spacing" textLength="60" x="259" y="662.1338">User</text></g><g id="elem_ucbasis"><ellipse cx="1185.0477" cy="592.0329" fill="#F1F1F1" rx="383.0477" ry="192.0329" style="stroke:#181818;stroke-width:1.0;"/><text fill="#000000" font-family="sans-serif" font-size="28" lengthAdjust="spacing" textLength="346" x="1015.0477" y="466.9919">Basis-Anwendungsfall f&#252;r</text><text fill="#000000" font-family="sans-serif" font-size="28" lengthAdjust="spacing" textLength="444" x="966.0477" y="499.5856">TI-M spezifische Kommunikation</text><text fill="#000000" font-family="sans-serif" font-size="28" lengthAdjust="spacing" textLength="8" x="1184.0477" y="532.1794">&#160;</text><text fill="#000000" font-family="sans-serif" font-size="24" lengthAdjust="spacing" textLength="572" x="902.0477" y="593.654">Nutzung zus&#228;tzlicher Chatroom-Eigenschaften</text><text fill="#000000" font-family="sans-serif" font-size="24" lengthAdjust="spacing" textLength="394" x="991.0477" y="621.5915">(Custom State Events und/oder</text><text fill="#000000" font-family="sans-serif" font-size="24" lengthAdjust="spacing" textLength="262" x="1057.0477" y="649.529">Custom Room Types)</text><line style="stroke:#181818;stroke-width:2.0;" x1="811.159" x2="1118.0477" y1="555.0798" y2="555.0798"/><text fill="#000000" font-family="sans-serif" font-size="28" lengthAdjust="spacing" textLength="134" x="1118.0477" y="563.7731">Merkmale</text><line style="stroke:#181818;stroke-width:2.0;" x1="1252.0477" x2="1558.9365" y1="555.0798" y2="555.0798"/><line style="stroke:#181818;stroke-width:2.0;stroke-dasharray:1.0,2.0;" x1="831.267" x2="1538.8285" y1="663.1891" y2="663.1891"/><text fill="#000000" font-family="sans-serif" font-size="24" lengthAdjust="spacing" textLength="432" x="972.0477" y="693.4665">Unterst&#252;tzung von FHIR-Resources</text><text fill="#000000" font-family="sans-serif" font-size="24" lengthAdjust="spacing" textLength="416" x="980.0477" y="721.404">zur strukturierten Kommunikation</text></g><g id="elem_ucfallbezug"><ellipse cx="1185.2914" cy="114.0945" fill="#F1F1F1" rx="174.2914" ry="52.0945" style="stroke:#181818;stroke-width:1.0;"/><text fill="#000000" font-family="sans-serif" font-size="28" lengthAdjust="spacing" textLength="186" x="1092.2914" y="103.491">Fallbezogene</text><text fill="#000000" font-family="sans-serif" font-size="28" lengthAdjust="spacing" textLength="214" x="1078.2914" y="136.0848">Kommunikation</text></g><g id="elem_ucfedcomm"><ellipse cx="1185.1194" cy="261.8239" fill="#F1F1F1" rx="275.1194" ry="59.8239" style="stroke:#181818;stroke-width:1.0;"/><text fill="#000000" font-family="sans-serif" font-size="28" lengthAdjust="spacing" textLength="402" x="978.1194" y="253.0221">F&#246;derierte und intersektorale</text><text fill="#000000" font-family="sans-serif" font-size="28" lengthAdjust="spacing" textLength="214" x="1072.1194" y="285.6159">Kommunikation</text></g><polygon fill="#000000" points="801.6087,592,783.6087,584,791.6087,592,783.6087,600,801.6087,592" style="stroke:#000000;stroke-width:2.0;"/><path d="M344.1274,592 C434.3295,592 612.8823,592 789.6087,592 " fill="none" style="stroke:#000000;stroke-width:2.0;"/><polygon fill="#000000" points="801.8454,478.08,789.6448,462.6158,792.9968,473.4215,782.1911,476.7736,801.8454,478.08" style="stroke:#000000;stroke-width:2.0;"/><path d="M791.2271,472.4898 C693.6623,421.1248 638.3017,356.1957 684,263 C740.9312,146.8963 889.7162,113.8812 1010.4559,107.4283 " fill="none" style="stroke:#000000;stroke-width:2.0;stroke-dasharray:7.0,7.0;"/><text fill="#000000" font-family="sans-serif" font-size="34" lengthAdjust="spacing" textLength="160" x="604" y="296.5596">&#171;include&#187;</text><polygon fill="#000000" points="1185,399.0828,1193,381.0828,1185,389.0828,1177,381.0828,1185,399.0828" style="stroke:#000000;stroke-width:2.0;"/><path d="M1185,387.0828 C1185,359.4378 1185,344.8697 1185,322.6051 " fill="none" style="stroke:#000000;stroke-width:2.0;stroke-dasharray:7.0,7.0;"/><text fill="#000000" font-family="sans-serif" font-size="34" lengthAdjust="spacing" textLength="160" x="1078" y="373.5596">&#171;include&#187;</text></g></svg>