<?xml version="1.0" encoding="us-ascii" standalone="no"?><svg xmlns="http://www.w3.org/2000/svg" xmlns:xlink="http://www.w3.org/1999/xlink" contentStyleType="text/css" height="1758.6513px" preserveAspectRatio="none" style="width:2048px;height:1758px;background:#FFFFFF;" version="1.1" viewBox="0 0 2048 1758" width="2048.9808px" zoomAndPan="magnify"><defs/><g><rect fill="#F5F5F5" height="1747.7165" style="stroke:#181818;stroke-width:0.4904214559386973;" width="437.4559" x="420.7816" y="5.8851"/><text fill="#000000" font-family="sans-serif" font-size="17.6552" font-weight="bold" lengthAdjust="spacing" textLength="208.9195" x="532.5977" y="22.273">Messenger-Service A</text><text fill="#000000" font-family="sans-serif" font-size="12.751" font-weight="bold" lengthAdjust="spacing" textLength="4.9042" x="741.5172" y="23.4296">&#160;</text><rect fill="#F5F5F5" height="1747.7165" style="stroke:#181818;stroke-width:0.4904214559386973;" width="736.613" x="889.6245" y="5.8851"/><text fill="#000000" font-family="sans-serif" font-size="17.6552" font-weight="bold" lengthAdjust="spacing" textLength="208.9195" x="1151.0192" y="22.273">Messenger-Service B</text><text fill="#000000" font-family="sans-serif" font-size="12.751" font-weight="bold" lengthAdjust="spacing" textLength="4.9042" x="1359.9387" y="23.4296">&#160;</text><rect fill="#F0F8FF" height="1183.364" style="stroke:#000000;stroke-width:0.9808429118773946;" width="9.8084" x="290.3295" y="373.2414"/><rect fill="#DCDCDC" height="1150.2222" style="stroke:#000000;stroke-width:0.9808429118773946;" width="9.8084" x="524.751" y="406.3831"/><rect fill="#DCDCDC" height="122.9655" style="stroke:#000000;stroke-width:0.9808429118773946;" width="9.8084" x="744.4598" y="439.5249"/><rect fill="#DCDCDC" height="816.1226" style="stroke:#000000;stroke-width:0.9808429118773946;" width="9.8084" x="993.5939" y="707.341"/><rect fill="#DCDCDC" height="571.8467" style="stroke:#000000;stroke-width:0.9808429118773946;" width="9.8084" x="1251.5556" y="852.1916"/><rect fill="#DCDCDC" height="66.2835" style="stroke:#000000;stroke-width:0.9808429118773946;" width="9.8084" x="1512.4598" y="1026.9042"/><rect fill="#C9FFC9" height="255.5326" style="stroke:#000000;stroke-width:0.9808429118773946;" width="9.8084" x="1746.8812" y="1234.7893"/><rect fill="#F0F8FF" height="144.3065" style="stroke:#000000;stroke-width:1.471264367816092;" width="724.8429" x="1141.7011" y="981.249"/><line style="stroke:#000000;stroke-width:0.4904214559386973;stroke-dasharray:5.0,5.0;" x1="96.1226" x2="96.1226" y1="132.2605" y2="1623.3027"/><line style="stroke:#000000;stroke-width:0.4904214559386973;stroke-dasharray:5.0,5.0;" x1="295.2337" x2="295.2337" y1="132.2605" y2="1623.3027"/><line style="stroke:#000000;stroke-width:0.4904214559386973;stroke-dasharray:5.0,5.0;" x1="529.6552" x2="529.6552" y1="132.2605" y2="1623.3027"/><line style="stroke:#000000;stroke-width:0.4904214559386973;stroke-dasharray:5.0,5.0;" x1="749.364" x2="749.364" y1="132.2605" y2="1623.3027"/><line style="stroke:#000000;stroke-width:0.4904214559386973;stroke-dasharray:5.0,5.0;" x1="998.4981" x2="998.4981" y1="132.2605" y2="1623.3027"/><line style="stroke:#000000;stroke-width:0.4904214559386973;stroke-dasharray:5.0,5.0;" x1="1256.4598" x2="1256.4598" y1="132.2605" y2="1623.3027"/><line style="stroke:#000000;stroke-width:0.4904214559386973;stroke-dasharray:5.0,5.0;" x1="1517.364" x2="1517.364" y1="132.2605" y2="1623.3027"/><line style="stroke:#000000;stroke-width:0.4904214559386973;stroke-dasharray:5.0,5.0;" x1="1751.7854" x2="1751.7854" y1="132.2605" y2="1623.3027"/><line style="stroke:#000000;stroke-width:0.4904214559386973;stroke-dasharray:5.0,5.0;" x1="1950.4061" x2="1950.4061" y1="132.2605" y2="1623.3027"/><text fill="#000000" font-family="sans-serif" font-size="19.6169" lengthAdjust="spacing" textLength="5.8851" x="90.728" y="81.9636">&#160;</text><text fill="#000000" font-family="sans-serif" font-size="19.6169" lengthAdjust="spacing" textLength="85.3333" x="48.0613" y="104.7989">Akteur A</text><text fill="#000000" font-family="sans-serif" font-size="19.6169" lengthAdjust="spacing" textLength="161.8391" x="12.751" y="127.6341">in der Rolle User</text><ellipse cx="96.613" cy="13.2414" fill="#F0F8FF" rx="7.8467" ry="7.8467" style="stroke:#000000;stroke-width:0.4904214559386973;"/><path d="M96.613,21.0881 L96.613,47.5709 M83.8621,28.9349 L109.364,28.9349 M96.613,47.5709 L83.8621,62.2835 M96.613,47.5709 L109.364,62.2835 " fill="none" style="stroke:#000000;stroke-width:0.4904214559386973;"/><text fill="#000000" font-family="sans-serif" font-size="19.6169" lengthAdjust="spacing" textLength="5.8851" x="90.728" y="1640.5307">&#160;</text><text fill="#000000" font-family="sans-serif" font-size="19.6169" lengthAdjust="spacing" textLength="85.3333" x="48.0613" y="1663.3659">Akteur A</text><text fill="#000000" font-family="sans-serif" font-size="19.6169" lengthAdjust="spacing" textLength="161.8391" x="12.751" y="1686.2011">in der Rolle User</text><ellipse cx="96.613" cy="1699.1648" fill="#F0F8FF" rx="7.8467" ry="7.8467" style="stroke:#000000;stroke-width:0.4904214559386973;"/><path d="M96.613,1707.0115 L96.613,1733.4943 M83.8621,1714.8582 L109.364,1714.8582 M96.613,1733.4943 L83.8621,1748.2069 M96.613,1733.4943 L109.364,1748.2069 " fill="none" style="stroke:#000000;stroke-width:0.4904214559386973;"/><rect fill="#F0F8FF" height="59.4023" rx="2.4521" ry="2.4521" style="stroke:#000000;stroke-width:0.4904214559386973;" width="209.9004" x="190.2835" y="71.8774"/><text fill="#000000" font-family="sans-serif" font-size="19.6169" lengthAdjust="spacing" textLength="136.3372" x="227.0651" y="96.9521">TI-Messenger-</text><text fill="#000000" font-family="sans-serif" font-size="19.6169" lengthAdjust="spacing" textLength="57.8697" x="266.2989" y="119.7874">Client</text><rect fill="#F0F8FF" height="59.4023" rx="2.4521" ry="2.4521" style="stroke:#000000;stroke-width:0.4904214559386973;" width="209.9004" x="190.2835" y="1622.3218"/><text fill="#000000" font-family="sans-serif" font-size="19.6169" lengthAdjust="spacing" textLength="136.3372" x="227.0651" y="1647.3966">TI-Messenger-</text><text fill="#000000" font-family="sans-serif" font-size="19.6169" lengthAdjust="spacing" textLength="57.8697" x="266.2989" y="1670.2318">Client</text><rect fill="#EFEFFF" height="59.4023" rx="2.4521" ry="2.4521" style="stroke:#000000;stroke-width:0.4904214559386973;" width="209.9004" x="424.705" y="71.8774"/><text fill="#000000" font-family="sans-serif" font-size="19.6169" lengthAdjust="spacing" textLength="111.8161" x="473.7471" y="96.9521">Messenger-</text><text fill="#000000" font-family="sans-serif" font-size="19.6169" lengthAdjust="spacing" textLength="52.9655" x="503.1724" y="119.7874">Proxy</text><rect fill="#EFEFFF" height="59.4023" rx="2.4521" ry="2.4521" style="stroke:#000000;stroke-width:0.4904214559386973;" width="209.9004" x="424.705" y="1622.3218"/><text fill="#000000" font-family="sans-serif" font-size="19.6169" lengthAdjust="spacing" textLength="111.8161" x="473.7471" y="1647.3966">Messenger-</text><text fill="#000000" font-family="sans-serif" font-size="19.6169" lengthAdjust="spacing" textLength="52.9655" x="503.1724" y="1670.2318">Proxy</text><rect fill="#EFEFFF" height="59.4023" rx="2.4521" ry="2.4521" style="stroke:#000000;stroke-width:0.4904214559386973;" width="209.9004" x="644.4138" y="71.8774"/><text fill="#000000" font-family="sans-serif" font-size="19.6169" lengthAdjust="spacing" textLength="67.6782" x="715.5249" y="96.9521">Matrix-</text><text fill="#000000" font-family="sans-serif" font-size="19.6169" lengthAdjust="spacing" textLength="117.7011" x="690.5134" y="119.7874">Homeserver</text><rect fill="#EFEFFF" height="59.4023" rx="2.4521" ry="2.4521" style="stroke:#000000;stroke-width:0.4904214559386973;" width="209.9004" x="644.4138" y="1622.3218"/><text fill="#000000" font-family="sans-serif" font-size="19.6169" lengthAdjust="spacing" textLength="67.6782" x="715.5249" y="1647.3966">Matrix-</text><text fill="#000000" font-family="sans-serif" font-size="19.6169" lengthAdjust="spacing" textLength="117.7011" x="690.5134" y="1670.2318">Homeserver</text><rect fill="#EFEFFF" height="59.4023" rx="2.4521" ry="2.4521" style="stroke:#000000;stroke-width:0.4904214559386973;" width="209.9004" x="893.5479" y="71.8774"/><text fill="#000000" font-family="sans-serif" font-size="19.6169" lengthAdjust="spacing" textLength="111.8161" x="942.59" y="96.9521">Messenger-</text><text fill="#000000" font-family="sans-serif" font-size="19.6169" lengthAdjust="spacing" textLength="52.9655" x="972.0153" y="119.7874">Proxy</text><rect fill="#EFEFFF" height="59.4023" rx="2.4521" ry="2.4521" style="stroke:#000000;stroke-width:0.4904214559386973;" width="209.9004" x="893.5479" y="1622.3218"/><text fill="#000000" font-family="sans-serif" font-size="19.6169" lengthAdjust="spacing" textLength="111.8161" x="942.59" y="1647.3966">Messenger-</text><text fill="#000000" font-family="sans-serif" font-size="19.6169" lengthAdjust="spacing" textLength="52.9655" x="972.0153" y="1670.2318">Proxy</text><rect fill="#EFEFFF" height="59.4023" rx="2.4521" ry="2.4521" style="stroke:#000000;stroke-width:0.4904214559386973;" width="209.9004" x="1151.5096" y="71.8774"/><text fill="#000000" font-family="sans-serif" font-size="19.6169" lengthAdjust="spacing" textLength="67.6782" x="1222.6207" y="96.9521">Matrix-</text><text fill="#000000" font-family="sans-serif" font-size="19.6169" lengthAdjust="spacing" textLength="117.7011" x="1197.6092" y="119.7874">Homeserver</text><rect fill="#EFEFFF" height="59.4023" rx="2.4521" ry="2.4521" style="stroke:#000000;stroke-width:0.4904214559386973;" width="209.9004" x="1151.5096" y="1622.3218"/><text fill="#000000" font-family="sans-serif" font-size="19.6169" lengthAdjust="spacing" textLength="67.6782" x="1222.6207" y="1647.3966">Matrix-</text><text fill="#000000" font-family="sans-serif" font-size="19.6169" lengthAdjust="spacing" textLength="117.7011" x="1197.6092" y="1670.2318">Homeserver</text><rect fill="#EFEFFF" height="59.4023" rx="2.4521" ry="2.4521" style="stroke:#000000;stroke-width:0.4904214559386973;" width="209.9004" x="1412.4138" y="71.8774"/><text fill="#000000" font-family="sans-serif" font-size="19.6169" lengthAdjust="spacing" textLength="53.9464" x="1490.3908" y="96.9521">Push-</text><text fill="#000000" font-family="sans-serif" font-size="19.6169" lengthAdjust="spacing" textLength="86.3142" x="1474.2069" y="119.7874">Gateway</text><rect fill="#EFEFFF" height="59.4023" rx="2.4521" ry="2.4521" style="stroke:#000000;stroke-width:0.4904214559386973;" width="209.9004" x="1412.4138" y="1622.3218"/><text fill="#000000" font-family="sans-serif" font-size="19.6169" lengthAdjust="spacing" textLength="53.9464" x="1490.3908" y="1647.3966">Push-</text><text fill="#000000" font-family="sans-serif" font-size="19.6169" lengthAdjust="spacing" textLength="86.3142" x="1474.2069" y="1670.2318">Gateway</text><rect fill="#C9FFC9" height="59.4023" rx="2.4521" ry="2.4521" style="stroke:#000000;stroke-width:0.4904214559386973;" width="209.9004" x="1646.8352" y="71.8774"/><text fill="#000000" font-family="sans-serif" font-size="19.6169" lengthAdjust="spacing" textLength="136.3372" x="1683.6169" y="96.9521">TI-Messenger-</text><text fill="#000000" font-family="sans-serif" font-size="19.6169" lengthAdjust="spacing" textLength="57.8697" x="1722.8506" y="119.7874">Client</text><rect fill="#C9FFC9" height="59.4023" rx="2.4521" ry="2.4521" style="stroke:#000000;stroke-width:0.4904214559386973;" width="209.9004" x="1646.8352" y="1622.3218"/><text fill="#000000" font-family="sans-serif" font-size="19.6169" lengthAdjust="spacing" textLength="136.3372" x="1683.6169" y="1647.3966">TI-Messenger-</text><text fill="#000000" font-family="sans-serif" font-size="19.6169" lengthAdjust="spacing" textLength="57.8697" x="1722.8506" y="1670.2318">Client</text><text fill="#000000" font-family="sans-serif" font-size="19.6169" lengthAdjust="spacing" textLength="5.8851" x="1945.0115" y="81.9636">&#160;</text><text fill="#000000" font-family="sans-serif" font-size="19.6169" lengthAdjust="spacing" textLength="85.3333" x="1902.3448" y="104.7989">Akteur B</text><text fill="#000000" font-family="sans-serif" font-size="19.6169" lengthAdjust="spacing" textLength="161.8391" x="1867.0345" y="127.6341">in der Rolle User</text><ellipse cx="1950.8966" cy="13.2414" fill="#C9FFC9" rx="7.8467" ry="7.8467" style="stroke:#000000;stroke-width:0.4904214559386973;"/><path d="M1950.8966,21.0881 L1950.8966,47.5709 M1938.1456,28.9349 L1963.6475,28.9349 M1950.8966,47.5709 L1938.1456,62.2835 M1950.8966,47.5709 L1963.6475,62.2835 " fill="none" style="stroke:#000000;stroke-width:0.4904214559386973;"/><text fill="#000000" font-family="sans-serif" font-size="19.6169" lengthAdjust="spacing" textLength="5.8851" x="1945.0115" y="1640.5307">&#160;</text><text fill="#000000" font-family="sans-serif" font-size="19.6169" lengthAdjust="spacing" textLength="85.3333" x="1902.3448" y="1663.3659">Akteur B</text><text fill="#000000" font-family="sans-serif" font-size="19.6169" lengthAdjust="spacing" textLength="161.8391" x="1867.0345" y="1686.2011">in der Rolle User</text><ellipse cx="1950.8966" cy="1699.1648" fill="#C9FFC9" rx="7.8467" ry="7.8467" style="stroke:#000000;stroke-width:0.4904214559386973;"/><path d="M1950.8966,1707.0115 L1950.8966,1733.4943 M1938.1456,1714.8582 L1963.6475,1714.8582 M1950.8966,1733.4943 L1938.1456,1748.2069 M1950.8966,1733.4943 L1963.6475,1748.2069 " fill="none" style="stroke:#000000;stroke-width:0.4904214559386973;"/><rect fill="#F0F8FF" height="1183.364" style="stroke:#000000;stroke-width:0.9808429118773946;" width="9.8084" x="290.3295" y="373.2414"/><rect fill="#DCDCDC" height="1150.2222" style="stroke:#000000;stroke-width:0.9808429118773946;" width="9.8084" x="524.751" y="406.3831"/><rect fill="#DCDCDC" height="122.9655" style="stroke:#000000;stroke-width:0.9808429118773946;" width="9.8084" x="744.4598" y="439.5249"/><rect fill="#DCDCDC" height="816.1226" style="stroke:#000000;stroke-width:0.9808429118773946;" width="9.8084" x="993.5939" y="707.341"/><rect fill="#DCDCDC" height="571.8467" style="stroke:#000000;stroke-width:0.9808429118773946;" width="9.8084" x="1251.5556" y="852.1916"/><rect fill="#DCDCDC" height="66.2835" style="stroke:#000000;stroke-width:0.9808429118773946;" width="9.8084" x="1512.4598" y="1026.9042"/><rect fill="#C9FFC9" height="255.5326" style="stroke:#000000;stroke-width:0.9808429118773946;" width="9.8084" x="1746.8812" y="1234.7893"/><path d="M4.9042,171.4943 L4.9042,230.3448 L841.5632,230.3448 L841.5632,181.3027 L831.7548,171.4943 L4.9042,171.4943 " fill="#FEFFDD" style="stroke:#181818;stroke-width:0.4904214559386973;"/><path d="M831.7548,171.4943 L831.7548,181.3027 L841.5632,181.3027 L831.7548,171.4943 " fill="#FEFFDD" style="stroke:#181818;stroke-width:0.4904214559386973;"/><text fill="#000000" font-family="sans-serif" font-size="12.751" lengthAdjust="spacing" textLength="3.9234" x="147.1264" y="188.2342">&#160;</text><text fill="#000000" font-family="sans-serif" font-size="16.6743" lengthAdjust="spacing" textLength="543.387" x="147.1264" y="206.7189">Der Akteur A ist erfolgreich beim Messenger Service A angemeldet</text><text fill="#000000" font-family="sans-serif" font-size="12.751" lengthAdjust="spacing" textLength="3.9234" x="147.1264" y="222.4871">&#160;</text><path d="M906.2989,240.2069 L906.2989,299.0575 L2042.1149,299.0575 L2042.1149,250.0153 L2032.3065,240.2069 L906.2989,240.2069 " fill="#FEFFDD" style="stroke:#181818;stroke-width:0.4904214559386973;"/><path d="M2032.3065,240.2069 L2032.3065,250.0153 L2042.1149,250.0153 L2032.3065,240.2069 " fill="#FEFFDD" style="stroke:#181818;stroke-width:0.4904214559386973;"/><text fill="#000000" font-family="sans-serif" font-size="12.751" lengthAdjust="spacing" textLength="3.9234" x="1197.364" y="256.9468">&#160;</text><text fill="#000000" font-family="sans-serif" font-size="16.6743" lengthAdjust="spacing" textLength="545.3487" x="1197.364" y="275.4315">Der Akteur B ist erfolgreich beim Messenger Service B angemeldet</text><text fill="#000000" font-family="sans-serif" font-size="12.751" lengthAdjust="spacing" textLength="3.9234" x="1197.364" y="291.1997">&#160;</text><polygon fill="#000000" points="278.5594,369.318,288.3678,373.2414,278.5594,377.1648,282.4828,373.2414" style="stroke:#000000;stroke-width:0.9808429118773946;"/><line style="stroke:#000000;stroke-width:0.9808429118773946;" x1="96.613" x2="284.4444" y1="373.2414" y2="373.2414"/><text fill="#000000" font-family="sans-serif" font-size="16.6743" font-weight="bold" lengthAdjust="spacing" textLength="11.7701" x="103.4789" y="357.6422">1</text><text fill="#000000" font-family="sans-serif" font-size="16.6743" lengthAdjust="spacing" textLength="104.9502" x="119.1724" y="347.9373">Akteur A l&#246;st</text><text fill="#000000" font-family="sans-serif" font-size="16.6743" lengthAdjust="spacing" textLength="140.2605" x="119.1724" y="367.3472">Matrix-Event aus</text><polygon fill="#FF0000" points="512.9808,402.4598,522.7893,406.3831,512.9808,410.3065,516.9042,406.3831" style="stroke:#FF0000;stroke-width:0.9808429118773946;"/><line style="stroke:#FF0000;stroke-width:0.9808429118773946;" x1="300.1379" x2="518.8659" y1="406.3831" y2="406.3831"/><text fill="#000000" font-family="sans-serif" font-size="16.6743" font-weight="bold" lengthAdjust="spacing" textLength="11.7701" x="307.0038" y="400.489">2</text><text fill="#000000" font-family="sans-serif" font-size="16.6743" lengthAdjust="spacing" textLength="125.5479" x="322.6973" y="400.489">Matrix-Request</text><polygon fill="#FF0000" points="732.6897,435.6015,742.4981,439.5249,732.6897,443.4483,736.613,439.5249" style="stroke:#FF0000;stroke-width:0.9808429118773946;"/><line style="stroke:#FF0000;stroke-width:0.9808429118773946;" x1="534.5594" x2="738.5747" y1="439.5249" y2="439.5249"/><text fill="#000000" font-family="sans-serif" font-size="16.6743" font-weight="bold" lengthAdjust="spacing" textLength="11.7701" x="541.4253" y="433.6307">3</text><text fill="#000000" font-family="sans-serif" font-size="16.6743" lengthAdjust="spacing" textLength="139.2797" x="557.1188" y="433.6307">HTTP(S) Forward</text><line style="stroke:#000000;stroke-width:0.9808429118773946;" x1="754.2682" x2="795.4636" y1="492.0766" y2="492.0766"/><line style="stroke:#000000;stroke-width:0.9808429118773946;" x1="795.4636" x2="795.4636" y1="492.0766" y2="504.8276"/><line style="stroke:#000000;stroke-width:0.9808429118773946;" x1="755.249" x2="795.4636" y1="504.8276" y2="504.8276"/><polygon fill="#000000" points="765.0575,500.9042,755.249,504.8276,765.0575,508.751,761.1341,504.8276" style="stroke:#000000;stroke-width:0.9808429118773946;"/><text fill="#000000" font-family="sans-serif" font-size="16.6743" font-weight="bold" lengthAdjust="spacing" textLength="11.7701" x="761.1341" y="476.4775">4</text><text fill="#000000" font-family="sans-serif" font-size="16.6743" lengthAdjust="spacing" textLength="48.0613" x="776.8276" y="466.7725">Event</text><text fill="#000000" font-family="sans-serif" font-size="16.6743" lengthAdjust="spacing" textLength="95.1418" x="776.8276" y="486.1825">verarbeiten</text><polygon fill="#000000" points="545.3487,558.567,535.5402,562.4904,545.3487,566.4138,541.4253,562.4904" style="stroke:#000000;stroke-width:0.9808429118773946;"/><line style="stroke:#000000;stroke-width:0.9808429118773946;" x1="539.4636" x2="748.3831" y1="562.4904" y2="562.4904"/><text fill="#000000" font-family="sans-serif" font-size="16.6743" font-weight="bold" lengthAdjust="spacing" textLength="11.7701" x="601.2567" y="556.5963">5</text><text fill="#000000" font-family="sans-serif" font-size="16.6743" lengthAdjust="spacing" textLength="125.5479" x="616.9502" y="556.5963">Matrix-Request</text><rect fill="#F5F5DC" height="57.7625" style="stroke:#000000;stroke-width:1.471264367816092;" width="215.7854" x="421.7625" y="594.8582"/><path d="M421.7625,594.8582 L486.4981,594.8582 L486.4981,601.7241 L476.6897,611.5326 L421.7625,611.5326 L421.7625,594.8582 " fill="#98FB98" style="stroke:#000000;stroke-width:1.9616858237547892;"/><text fill="#000000" font-family="sans-serif" font-size="12.751" font-weight="bold" lengthAdjust="spacing" textLength="20.5977" x="434.5134" y="608.6557">ref</text><text fill="#000000" font-family="sans-serif" font-size="16.6743" lengthAdjust="spacing" textLength="182.4368" x="438.4368" y="630.9334">Berechtigungspr&#252;fung</text><text fill="#000000" font-family="sans-serif" font-size="11.7701" lengthAdjust="spacing" textLength="3.9234" x="527.6935" y="645.7912">&#160;</text><polygon fill="#FF0000" points="981.8238,703.4176,991.6322,707.341,981.8238,711.2644,985.7471,707.341" style="stroke:#FF0000;stroke-width:0.9808429118773946;"/><line style="stroke:#FF0000;stroke-width:0.9808429118773946;" x1="534.5594" x2="987.7088" y1="707.341" y2="707.341"/><text fill="#000000" font-family="sans-serif" font-size="16.6743" font-weight="bold" lengthAdjust="spacing" textLength="11.7701" x="541.4253" y="701.4468">6</text><text fill="#000000" font-family="sans-serif" font-size="16.6743" lengthAdjust="spacing" textLength="139.2797" x="557.1188" y="701.4468">HTTP(S) Forward</text><rect fill="#F5F5DC" height="57.7625" style="stroke:#000000;stroke-width:1.471264367816092;" width="215.7854" x="890.6054" y="739.7088"/><path d="M890.6054,739.7088 L955.341,739.7088 L955.341,746.5747 L945.5326,756.3831 L890.6054,756.3831 L890.6054,739.7088 " fill="#98FB98" style="stroke:#000000;stroke-width:1.9616858237547892;"/><text fill="#000000" font-family="sans-serif" font-size="12.751" font-weight="bold" lengthAdjust="spacing" textLength="20.5977" x="903.3563" y="753.5062">ref</text><text fill="#000000" font-family="sans-serif" font-size="16.6743" lengthAdjust="spacing" textLength="182.4368" x="907.2797" y="775.784">Berechtigungspr&#252;fung</text><text fill="#000000" font-family="sans-serif" font-size="11.7701" lengthAdjust="spacing" textLength="3.9234" x="996.5364" y="790.6418">&#160;</text><polygon fill="#FF0000" points="1239.7854,848.2682,1249.5939,852.1916,1239.7854,856.1149,1243.7088,852.1916" style="stroke:#FF0000;stroke-width:0.9808429118773946;"/><line style="stroke:#FF0000;stroke-width:0.9808429118773946;" x1="1003.4023" x2="1245.6705" y1="852.1916" y2="852.1916"/><text fill="#000000" font-family="sans-serif" font-size="16.6743" font-weight="bold" lengthAdjust="spacing" textLength="11.7701" x="1010.2682" y="846.2974">7</text><text fill="#000000" font-family="sans-serif" font-size="16.6743" lengthAdjust="spacing" textLength="139.2797" x="1025.9617" y="846.2974">HTTP(S) Forward</text><line style="stroke:#000000;stroke-width:0.9808429118773946;" x1="1261.364" x2="1302.5594" y1="929.2644" y2="929.2644"/><line style="stroke:#000000;stroke-width:0.9808429118773946;" x1="1302.5594" x2="1302.5594" y1="929.2644" y2="942.0153"/><line style="stroke:#000000;stroke-width:0.9808429118773946;" x1="1262.3448" x2="1302.5594" y1="942.0153" y2="942.0153"/><polygon fill="#000000" points="1272.1533,938.092,1262.3448,942.0153,1272.1533,945.9387,1268.2299,942.0153" style="stroke:#000000;stroke-width:0.9808429118773946;"/><text fill="#000000" font-family="sans-serif" font-size="16.6743" font-weight="bold" lengthAdjust="spacing" textLength="11.7701" x="1268.2299" y="913.6652">8</text><text fill="#000000" font-family="sans-serif" font-size="16.6743" lengthAdjust="spacing" textLength="48.0613" x="1283.9234" y="903.9602">Event</text><text fill="#000000" font-family="sans-serif" font-size="16.6743" lengthAdjust="spacing" textLength="95.1418" x="1283.9234" y="923.3702">verarbeiten</text><path d="M1141.7011,981.249 L1210.3602,981.249 L1210.3602,988.2452 L1200.5517,998.0536 L1141.7011,998.0536 L1141.7011,981.249 " fill="#D3D3D3" style="stroke:#000000;stroke-width:1.471264367816092;"/><rect fill="none" height="144.3065" style="stroke:#000000;stroke-width:1.471264367816092;" width="724.8429" x="1141.7011" y="981.249"/><text fill="#000000" font-family="sans-serif" font-size="12.751" font-weight="bold" lengthAdjust="spacing" textLength="24.5211" x="1156.4138" y="994.0656">opt</text><text fill="#000000" font-family="sans-serif" font-size="10.7893" font-weight="bold" lengthAdjust="spacing" textLength="4.9042" x="1225.0728" y="998.9344">[</text><text fill="#000000" font-family="sans-serif" font-size="15.6935" font-weight="bold" lengthAdjust="spacing" textLength="193.2261" x="1229.977" y="997.7778">Pushbenachrichtigung</text><text fill="#000000" font-family="sans-serif" font-size="10.7893" font-weight="bold" lengthAdjust="spacing" textLength="4.9042" x="1423.2031" y="998.9344">]</text><polygon fill="#000000" points="1500.6897,1022.9808,1510.4981,1026.9042,1500.6897,1030.8276,1504.613,1026.9042" style="stroke:#000000;stroke-width:0.9808429118773946;"/><line style="stroke:#000000;stroke-width:0.9808429118773946;" x1="1261.364" x2="1506.5747" y1="1026.9042" y2="1026.9042"/><text fill="#000000" font-family="sans-serif" font-size="16.6743" font-weight="bold" lengthAdjust="spacing" textLength="11.7701" x="1268.2299" y="1021.0101">9</text><text fill="#000000" font-family="sans-serif" font-size="16.6743" lengthAdjust="spacing" textLength="216.7663" x="1283.9234" y="1021.0101">POST /_matrix/push/notify</text><polygon fill="#000000" points="1740.0153,1056.1226,1749.8238,1060.046,1740.0153,1063.9693,1743.9387,1060.046" style="stroke:#000000;stroke-width:0.9808429118773946;"/><line style="stroke:#000000;stroke-width:0.9808429118773946;" x1="1522.2682" x2="1745.9004" y1="1060.046" y2="1060.046"/><text fill="#000000" font-family="sans-serif" font-size="16.6743" font-weight="bold" lengthAdjust="spacing" textLength="23.5402" x="1529.1341" y="1054.1518">10</text><text fill="#000000" font-family="sans-serif" font-size="16.6743" lengthAdjust="spacing" textLength="95.1418" x="1556.5977" y="1054.1518">Notification</text><polygon fill="#000000" points="1272.1533,1089.2644,1262.3448,1093.1877,1272.1533,1097.1111,1268.2299,1093.1877" style="stroke:#000000;stroke-width:0.9808429118773946;"/><line style="stroke:#000000;stroke-width:0.9808429118773946;stroke-dasharray:2.0,2.0;" x1="1266.2682" x2="1516.3831" y1="1093.1877" y2="1093.1877"/><text fill="#000000" font-family="sans-serif" font-size="16.6743" font-weight="bold" lengthAdjust="spacing" textLength="23.5402" x="1430.069" y="1087.2936">11</text><text fill="#000000" font-family="sans-serif" font-size="16.6743" lengthAdjust="spacing" textLength="52.9655" x="1457.5326" y="1087.2936">Status</text><polygon fill="#000000" points="1014.1916,1197.7241,1004.3831,1201.6475,1014.1916,1205.5709,1010.2682,1201.6475" style="stroke:#000000;stroke-width:0.9808429118773946;"/><line style="stroke:#000000;stroke-width:0.9808429118773946;" x1="1008.3065" x2="1250.5747" y1="1201.6475" y2="1201.6475"/><text fill="#000000" font-family="sans-serif" font-size="16.6743" font-weight="bold" lengthAdjust="spacing" textLength="23.5402" x="1086.7739" y="1186.0484">12</text><text fill="#000000" font-family="sans-serif" font-size="16.6743" lengthAdjust="spacing" textLength="125.5479" x="1114.2375" y="1176.3434">Matrix-Request</text><text fill="#000000" font-family="sans-serif" font-size="16.6743" lengthAdjust="spacing" textLength="91.2184" x="1114.2375" y="1195.7534">an Client B</text><polygon fill="#000000" points="1735.1111,1230.8659,1744.9195,1234.7893,1735.1111,1238.7126,1739.0345,1234.7893" style="stroke:#000000;stroke-width:0.9808429118773946;"/><line style="stroke:#000000;stroke-width:0.9808429118773946;" x1="1003.4023" x2="1740.9962" y1="1234.7893" y2="1234.7893"/><text fill="#000000" font-family="sans-serif" font-size="16.6743" font-weight="bold" lengthAdjust="spacing" textLength="23.5402" x="1010.2682" y="1228.8951">13</text><text fill="#000000" font-family="sans-serif" font-size="16.6743" lengthAdjust="spacing" textLength="139.2797" x="1037.7318" y="1228.8951">HTTP(S) Forward</text><line style="stroke:#000000;stroke-width:0.9808429118773946;" x1="1756.6897" x2="1797.8851" y1="1267.931" y2="1267.931"/><line style="stroke:#000000;stroke-width:0.9808429118773946;" x1="1797.8851" x2="1797.8851" y1="1267.931" y2="1280.682"/><line style="stroke:#000000;stroke-width:0.9808429118773946;" x1="1757.6705" x2="1797.8851" y1="1280.682" y2="1280.682"/><polygon fill="#000000" points="1767.4789,1276.7586,1757.6705,1280.682,1767.4789,1284.6054,1763.5556,1280.682" style="stroke:#000000;stroke-width:0.9808429118773946;"/><text fill="#000000" font-family="sans-serif" font-size="16.6743" font-weight="bold" lengthAdjust="spacing" textLength="23.5402" x="1763.5556" y="1262.0369">14</text><text fill="#000000" font-family="sans-serif" font-size="16.6743" lengthAdjust="spacing" textLength="148.1073" x="1791.0192" y="1262.0369">Event verarbeiten</text><polygon fill="#000000" points="1014.1916,1309.9004,1004.3831,1313.8238,1014.1916,1317.7471,1010.2682,1313.8238" style="stroke:#000000;stroke-width:0.9808429118773946;"/><line style="stroke:#000000;stroke-width:0.9808429118773946;stroke-dasharray:2.0,2.0;" x1="1008.3065" x2="1745.9004" y1="1313.8238" y2="1313.8238"/><text fill="#000000" font-family="sans-serif" font-size="16.6743" font-weight="bold" lengthAdjust="spacing" textLength="23.5402" x="1659.5862" y="1307.9296">15</text><text fill="#000000" font-family="sans-serif" font-size="16.6743" lengthAdjust="spacing" textLength="52.9655" x="1687.0498" y="1307.9296">Status</text><polygon fill="#000000" points="1239.7854,1386.9732,1249.5939,1390.8966,1239.7854,1394.8199,1243.7088,1390.8966" style="stroke:#000000;stroke-width:0.9808429118773946;"/><line style="stroke:#000000;stroke-width:0.9808429118773946;stroke-dasharray:2.0,2.0;" x1="1003.4023" x2="1245.6705" y1="1390.8966" y2="1390.8966"/><text fill="#000000" font-family="sans-serif" font-size="16.6743" font-weight="bold" lengthAdjust="spacing" textLength="23.5402" x="1010.2682" y="1375.2974">16</text><text fill="#000000" font-family="sans-serif" font-size="16.6743" lengthAdjust="spacing" textLength="139.2797" x="1037.7318" y="1365.5924">HTTP(S) Forward</text><text fill="#000000" font-family="sans-serif" font-size="16.6743" lengthAdjust="spacing" textLength="137.318" x="1037.7318" y="1385.0024">(Status Client B)</text><polygon fill="#FF0000" points="1014.1916,1420.1149,1004.3831,1424.0383,1014.1916,1427.9617,1010.2682,1424.0383" style="stroke:#FF0000;stroke-width:0.9808429118773946;"/><line style="stroke:#FF0000;stroke-width:0.9808429118773946;stroke-dasharray:2.0,2.0;" x1="1008.3065" x2="1255.4789" y1="1424.0383" y2="1424.0383"/><text fill="#000000" font-family="sans-serif" font-size="16.6743" font-weight="bold" lengthAdjust="spacing" textLength="23.5402" x="1024.9808" y="1418.1442">17</text><text fill="#000000" font-family="sans-serif" font-size="16.6743" lengthAdjust="spacing" textLength="197.1494" x="1052.4444" y="1418.1442">Status (Matrix-Request)</text><polygon fill="#000000" points="1735.1111,1453.2567,1744.9195,1457.1801,1735.1111,1461.1034,1739.0345,1457.1801" style="stroke:#000000;stroke-width:0.9808429118773946;"/><line style="stroke:#000000;stroke-width:0.9808429118773946;stroke-dasharray:2.0,2.0;" x1="1003.4023" x2="1740.9962" y1="1457.1801" y2="1457.1801"/><text fill="#000000" font-family="sans-serif" font-size="16.6743" font-weight="bold" lengthAdjust="spacing" textLength="23.5402" x="1010.2682" y="1451.2859">18</text><text fill="#000000" font-family="sans-serif" font-size="16.6743" lengthAdjust="spacing" textLength="139.2797" x="1037.7318" y="1451.2859">HTTP(S) Forward</text><polygon fill="#000000" points="1939.1264,1486.3985,1948.9349,1490.3218,1939.1264,1494.2452,1943.0498,1490.3218" style="stroke:#000000;stroke-width:0.9808429118773946;"/><line style="stroke:#000000;stroke-width:0.9808429118773946;" x1="1751.7854" x2="1945.0115" y1="1490.3218" y2="1490.3218"/><text fill="#000000" font-family="sans-serif" font-size="16.6743" font-weight="bold" lengthAdjust="spacing" textLength="23.5402" x="1758.6513" y="1484.4277">19</text><text fill="#000000" font-family="sans-serif" font-size="16.6743" lengthAdjust="spacing" textLength="52.9655" x="1786.1149" y="1484.4277">Status</text><polygon fill="#000000" points="545.3487,1519.5402,535.5402,1523.4636,545.3487,1527.387,541.4253,1523.4636" style="stroke:#000000;stroke-width:0.9808429118773946;"/><line style="stroke:#000000;stroke-width:0.9808429118773946;stroke-dasharray:2.0,2.0;" x1="539.4636" x2="997.5172" y1="1523.4636" y2="1523.4636"/><text fill="#000000" font-family="sans-serif" font-size="16.6743" font-weight="bold" lengthAdjust="spacing" textLength="23.5402" x="824.8889" y="1517.5694">20</text><text fill="#000000" font-family="sans-serif" font-size="16.6743" lengthAdjust="spacing" textLength="139.2797" x="852.3525" y="1517.5694">HTTP(S) Forward</text><polygon fill="#000000" points="306.023,1552.682,296.2146,1556.6054,306.023,1560.5287,302.0996,1556.6054" style="stroke:#000000;stroke-width:0.9808429118773946;"/><line style="stroke:#000000;stroke-width:0.9808429118773946;stroke-dasharray:2.0,2.0;" x1="300.1379" x2="528.6743" y1="1556.6054" y2="1556.6054"/><text fill="#000000" font-family="sans-serif" font-size="16.6743" font-weight="bold" lengthAdjust="spacing" textLength="23.5402" x="442.3602" y="1550.7112">21</text><text fill="#000000" font-family="sans-serif" font-size="16.6743" lengthAdjust="spacing" textLength="52.9655" x="469.8238" y="1550.7112">Status</text></g></svg>