<?xml version="1.0" encoding="us-ascii" standalone="no"?><svg xmlns="http://www.w3.org/2000/svg" xmlns:xlink="http://www.w3.org/1999/xlink" contentStyleType="text/css" height="2807px" preserveAspectRatio="none" style="width:1386px;height:2807px;background:#FFFFFF;" version="1.1" viewBox="0 0 1386 2807" width="1386px" zoomAndPan="magnify"><defs/><g><rect fill="#F5F5F5" height="2795.7813" style="stroke:#181818;stroke-width:0.5;" width="490" x="559.5" y="6"/><text fill="#000000" font-family="sans-serif" font-size="18" font-weight="bold" lengthAdjust="spacing" textLength="193" x="705.5" y="22.708">Messenger-Service</text><text fill="#000000" font-family="sans-serif" font-size="13" font-weight="bold" lengthAdjust="spacing" textLength="5" x="898.5" y="23.8872">&#160;</text><rect fill="#F5F5F5" height="2795.7813" style="stroke:#181818;stroke-width:0.5;" width="222" x="1085.5" y="6"/><text fill="#000000" font-family="sans-serif" font-size="18" font-weight="bold" lengthAdjust="spacing" textLength="200" x="1094" y="22.708">VZD-FHIR-Directory</text><text fill="#000000" font-family="sans-serif" font-size="13" font-weight="bold" lengthAdjust="spacing" textLength="5" x="1294" y="23.8872">&#160;</text><rect fill="#DCDCDC" height="2412.8672" style="stroke:#000000;stroke-width:1.0;" width="10" x="389.5" y="172.3516"/><rect fill="#DCDCDC" height="604.8516" style="stroke:#000000;stroke-width:1.0;" width="10" x="665.5" y="206.1406"/><rect fill="#DCDCDC" height="629.1719" style="stroke:#000000;stroke-width:1.0;" width="10" x="665.5" y="1003.9375"/><rect fill="#DCDCDC" height="167.9453" style="stroke:#000000;stroke-width:1.0;" width="10" x="665.5" y="1823.0547"/><rect fill="#DCDCDC" height="182.9453" style="stroke:#000000;stroke-width:1.0;" width="10" x="933.5" y="594.2578"/><rect fill="#DCDCDC" height="561.5938" style="stroke:#000000;stroke-width:1.0;" width="10" x="933.5" y="1037.7266"/><rect fill="#DCDCDC" height="100.3672" style="stroke:#000000;stroke-width:1.0;" width="10" x="933.5" y="1856.8438"/><rect fill="#DCDCDC" height="481.8516" style="stroke:#000000;stroke-width:1.0;" width="10" x="1191.5" y="2049.7891"/><rect fill="#F0F8FF" height="2285.5" style="stroke:#000000;stroke-width:1.5;" width="1369.5" x="10" y="364.7188"/><rect fill="#F0F8FF" height="2127.375" style="stroke:none;stroke-width:1.0;" width="1369.5" x="10" y="522.8438"/><rect fill="#FFE4E1" height="186.7031" style="stroke:#000000;stroke-width:1.5;" width="1035.5" x="20" y="1144.3047"/><rect fill="#ADD8E6" height="422.2734" style="stroke:#000000;stroke-width:1.5;" width="1293.5" x="20" y="2195.9453"/><rect fill="#ADD8E6" height="157.9922" style="stroke:none;stroke-width:1.0;" width="1293.5" x="20" y="2460.2266"/><line style="stroke:#000000;stroke-width:0.5;stroke-dasharray:5.0,5.0;" x1="126" x2="126" y1="111.5625" y2="2692.2188"/><line style="stroke:#000000;stroke-width:0.5;stroke-dasharray:5.0,5.0;" x1="394.5" x2="394.5" y1="111.5625" y2="2692.2188"/><line style="stroke:#000000;stroke-width:0.5;stroke-dasharray:5.0,5.0;" x1="670.5" x2="670.5" y1="111.5625" y2="2692.2188"/><line style="stroke:#000000;stroke-width:0.5;stroke-dasharray:5.0,5.0;" x1="938.5" x2="938.5" y1="111.5625" y2="2692.2188"/><line style="stroke:#000000;stroke-width:0.5;stroke-dasharray:5.0,5.0;" x1="1196.5" x2="1196.5" y1="111.5625" y2="2692.2188"/><text fill="#000000" font-family="Aapex" font-size="20" lengthAdjust="spacing" textLength="187" x="30" y="83.5645">Akteur in der Rolle</text><text fill="#000000" font-family="Aapex" font-size="20" lengthAdjust="spacing" textLength="45" x="101" y="106.8457">User</text><ellipse cx="126.5" cy="13.5" fill="#DCDCDC" rx="8" ry="8" style="stroke:#000000;stroke-width:0.5;"/><path d="M126.5,21.5 L126.5,48.5 M113.5,29.5 L139.5,29.5 M126.5,48.5 L113.5,63.5 M126.5,48.5 L139.5,63.5 " fill="none" style="stroke:#000000;stroke-width:0.5;"/><text fill="#000000" font-family="Aapex" font-size="20" lengthAdjust="spacing" textLength="187" x="30" y="2709.7832">Akteur in der Rolle</text><text fill="#000000" font-family="Aapex" font-size="20" lengthAdjust="spacing" textLength="45" x="101" y="2733.0645">User</text><ellipse cx="126.5" cy="2746.2813" fill="#DCDCDC" rx="8" ry="8" style="stroke:#000000;stroke-width:0.5;"/><path d="M126.5,2754.2813 L126.5,2781.2813 M113.5,2762.2813 L139.5,2762.2813 M126.5,2781.2813 L113.5,2796.2813 M126.5,2781.2813 L139.5,2796.2813 " fill="none" style="stroke:#000000;stroke-width:0.5;"/><rect fill="#EFEFFF" height="37.2813" rx="2.5" ry="2.5" style="stroke:#000000;stroke-width:0.5;" width="214" x="287.5" y="73.2813"/><text fill="#000000" font-family="sans-serif" font-size="20" lengthAdjust="spacing" textLength="198" x="295.5" y="98.8457">TI-Messenger-Client</text><rect fill="#EFEFFF" height="37.2813" rx="2.5" ry="2.5" style="stroke:#000000;stroke-width:0.5;" width="214" x="287.5" y="2691.2188"/><text fill="#000000" font-family="sans-serif" font-size="20" lengthAdjust="spacing" textLength="198" x="295.5" y="2716.7832">TI-Messenger-Client</text><rect fill="#EFEFFF" height="37.2813" rx="2.5" ry="2.5" style="stroke:#000000;stroke-width:0.5;" width="214" x="563.5" y="73.2813"/><text fill="#000000" font-family="sans-serif" font-size="20" lengthAdjust="spacing" textLength="167" x="587" y="98.8457">Messenger Proxy</text><rect fill="#EFEFFF" height="37.2813" rx="2.5" ry="2.5" style="stroke:#000000;stroke-width:0.5;" width="214" x="563.5" y="2691.2188"/><text fill="#000000" font-family="sans-serif" font-size="20" lengthAdjust="spacing" textLength="167" x="587" y="2716.7832">Messenger Proxy</text><rect fill="#EFEFFF" height="37.2813" rx="2.5" ry="2.5" style="stroke:#000000;stroke-width:0.5;" width="214" x="831.5" y="73.2813"/><text fill="#000000" font-family="sans-serif" font-size="20" lengthAdjust="spacing" textLength="189" x="844" y="98.8457">Matrix-Homeserver</text><rect fill="#EFEFFF" height="37.2813" rx="2.5" ry="2.5" style="stroke:#000000;stroke-width:0.5;" width="214" x="831.5" y="2691.2188"/><text fill="#000000" font-family="sans-serif" font-size="20" lengthAdjust="spacing" textLength="189" x="844" y="2716.7832">Matrix-Homeserver</text><rect fill="#EFEFFF" height="37.2813" rx="2.5" ry="2.5" style="stroke:#000000;stroke-width:0.5;" width="214" x="1089.5" y="73.2813"/><text fill="#000000" font-family="sans-serif" font-size="20" lengthAdjust="spacing" textLength="128" x="1132.5" y="98.8457">Auth-Service</text><rect fill="#EFEFFF" height="37.2813" rx="2.5" ry="2.5" style="stroke:#000000;stroke-width:0.5;" width="214" x="1089.5" y="2691.2188"/><text fill="#000000" font-family="sans-serif" font-size="20" lengthAdjust="spacing" textLength="128" x="1132.5" y="2716.7832">Auth-Service</text><rect fill="#DCDCDC" height="2412.8672" style="stroke:#000000;stroke-width:1.0;" width="10" x="389.5" y="172.3516"/><rect fill="#DCDCDC" height="604.8516" style="stroke:#000000;stroke-width:1.0;" width="10" x="665.5" y="206.1406"/><rect fill="#DCDCDC" height="629.1719" style="stroke:#000000;stroke-width:1.0;" width="10" x="665.5" y="1003.9375"/><rect fill="#DCDCDC" height="167.9453" style="stroke:#000000;stroke-width:1.0;" width="10" x="665.5" y="1823.0547"/><rect fill="#DCDCDC" height="182.9453" style="stroke:#000000;stroke-width:1.0;" width="10" x="933.5" y="594.2578"/><rect fill="#DCDCDC" height="561.5938" style="stroke:#000000;stroke-width:1.0;" width="10" x="933.5" y="1037.7266"/><rect fill="#DCDCDC" height="100.3672" style="stroke:#000000;stroke-width:1.0;" width="10" x="933.5" y="1856.8438"/><rect fill="#DCDCDC" height="481.8516" style="stroke:#000000;stroke-width:1.0;" width="10" x="1191.5" y="2049.7891"/><polygon fill="#000000" points="377.5,168.3516,387.5,172.3516,377.5,176.3516,381.5,172.3516" style="stroke:#000000;stroke-width:1.0;"/><line style="stroke:#000000;stroke-width:1.0;" x1="126.5" x2="383.5" y1="172.3516" y2="172.3516"/><text fill="#000000" font-family="sans-serif" font-size="17" font-weight="bold" lengthAdjust="spacing" textLength="12" x="133.5" y="166.3423">1</text><text fill="#000000" font-family="sans-serif" font-size="17" lengthAdjust="spacing" textLength="228" x="149.5" y="166.3423">Eingabe Messenger-Service</text><polygon fill="#000000" points="653.5,202.1406,663.5,206.1406,653.5,210.1406,657.5,206.1406" style="stroke:#000000;stroke-width:1.0;"/><line style="stroke:#000000;stroke-width:1.0;" x1="399.5" x2="659.5" y1="206.1406" y2="206.1406"/><text fill="#000000" font-family="sans-serif" font-size="17" font-weight="bold" lengthAdjust="spacing" textLength="12" x="406.5" y="200.1313">2</text><text fill="#000000" font-family="sans-serif" font-size="17" lengthAdjust="spacing" textLength="209" x="422.5" y="200.1313">GET /_matrix/client/login</text><line style="stroke:#000000;stroke-width:1.0;" x1="675.5" x2="717.5" y1="239.9297" y2="239.9297"/><line style="stroke:#000000;stroke-width:1.0;" x1="717.5" x2="717.5" y1="239.9297" y2="252.9297"/><line style="stroke:#000000;stroke-width:1.0;" x1="676.5" x2="717.5" y1="252.9297" y2="252.9297"/><polygon fill="#000000" points="686.5,248.9297,676.5,252.9297,686.5,256.9297,682.5,252.9297" style="stroke:#000000;stroke-width:1.0;"/><text fill="#000000" font-family="sans-serif" font-size="17" font-weight="bold" lengthAdjust="spacing" textLength="12" x="682.5" y="233.9204">3</text><text fill="#000000" font-family="sans-serif" font-size="17" lengthAdjust="spacing" textLength="150" x="698.5" y="233.9204">TLS-Terminierung</text><line style="stroke:#000000;stroke-width:1.0;" x1="675.5" x2="717.5" y1="311.7188" y2="311.7188"/><line style="stroke:#000000;stroke-width:1.0;" x1="717.5" x2="717.5" y1="311.7188" y2="324.7188"/><line style="stroke:#000000;stroke-width:1.0;" x1="676.5" x2="717.5" y1="324.7188" y2="324.7188"/><polygon fill="#000000" points="686.5,320.7188,676.5,324.7188,686.5,328.7188,682.5,324.7188" style="stroke:#000000;stroke-width:1.0;"/><text fill="#000000" font-family="sans-serif" font-size="17" font-weight="bold" lengthAdjust="spacing" textLength="12" x="682.5" y="305.7095">4</text><text fill="#000000" font-family="sans-serif" font-size="17" lengthAdjust="spacing" textLength="119" x="698.5" y="305.7095">pr&#252;fe client_id</text><path d="M10,364.7188 L74,364.7188 L74,371.8516 L64,381.8516 L10,381.8516 L10,364.7188 " fill="#D3D3D3" style="stroke:#000000;stroke-width:1.5;"/><rect fill="none" height="2285.5" style="stroke:#000000;stroke-width:1.5;" width="1369.5" x="10" y="364.7188"/><text fill="#000000" font-family="sans-serif" font-size="13" font-weight="bold" lengthAdjust="spacing" textLength="19" x="25" y="377.7856">alt</text><text fill="#000000" font-family="sans-serif" font-size="11" font-weight="bold" lengthAdjust="spacing" textLength="5" x="89" y="382.7495">[</text><text fill="#000000" font-family="sans-serif" font-size="16" font-weight="bold" lengthAdjust="spacing" textLength="760" x="94" y="381.5703">TI-Messenger Client wird vom Anbieter nicht unterst&#252;tzt (kein g&#252;ltiges client_secret)</text><text fill="#000000" font-family="sans-serif" font-size="11" font-weight="bold" lengthAdjust="spacing" textLength="5" x="854" y="382.7495">]</text><polygon fill="#000000" points="410.5,432.2656,400.5,436.2656,410.5,440.2656,406.5,436.2656" style="stroke:#000000;stroke-width:1.0;"/><line style="stroke:#000000;stroke-width:1.0;stroke-dasharray:2.0,2.0;" x1="404.5" x2="664.5" y1="436.2656" y2="436.2656"/><text fill="#000000" font-family="sans-serif" font-size="17" font-weight="bold" lengthAdjust="spacing" textLength="12" x="443.5" y="430.2563">5</text><text fill="#000000" font-family="sans-serif" font-size="17" lengthAdjust="spacing" textLength="199" x="459.5" y="430.2563">HTTP 401 Unauthroized</text><polygon fill="#000000" points="137.5,485.8438,127.5,489.8438,137.5,493.8438,133.5,489.8438" style="stroke:#000000;stroke-width:1.0;"/><line style="stroke:#000000;stroke-width:1.0;stroke-dasharray:2.0,2.0;" x1="131.5" x2="388.5" y1="489.8438" y2="489.8438"/><text fill="#000000" font-family="sans-serif" font-size="17" font-weight="bold" lengthAdjust="spacing" textLength="12" x="230.5" y="473.9399">6</text><text fill="#000000" font-family="sans-serif" font-size="17" lengthAdjust="spacing" textLength="96" x="246.5" y="464.0454">Anmeldung</text><text fill="#000000" font-family="sans-serif" font-size="17" lengthAdjust="spacing" textLength="136" x="246.5" y="483.8345">nicht erfolgreich</text><line style="stroke:#000000;stroke-width:1.0;stroke-dasharray:2.0,2.0;" x1="10" x2="1379.5" y1="523.8438" y2="523.8438"/><text fill="#000000" font-family="sans-serif" font-size="11" font-weight="bold" lengthAdjust="spacing" textLength="5" x="15" y="539.8745">[</text><text fill="#000000" font-family="sans-serif" font-size="16" font-weight="bold" lengthAdjust="spacing" textLength="673" x="20" y="538.6953">TI-Messenger Client wird vom Anbieter unterst&#252;tzt  (g&#252;ltiges client_secret)</text><text fill="#000000" font-family="sans-serif" font-size="11" font-weight="bold" lengthAdjust="spacing" textLength="5" x="693" y="539.8745">]</text><polygon fill="#000000" points="921.5,590.2578,931.5,594.2578,921.5,598.2578,925.5,594.2578" style="stroke:#000000;stroke-width:1.0;"/><line style="stroke:#000000;stroke-width:1.0;" x1="675.5" x2="927.5" y1="594.2578" y2="594.2578"/><text fill="#000000" font-family="sans-serif" font-size="17" font-weight="bold" lengthAdjust="spacing" textLength="12" x="682.5" y="588.2485">7</text><text fill="#000000" font-family="sans-serif" font-size="17" lengthAdjust="spacing" textLength="142" x="698.5" y="588.2485">HTTP(S) Forward</text><path d="M27,632.2578 L27,681.2578 L1037,681.2578 L1037,642.2578 L1027,632.2578 L27,632.2578 " fill="#FEFFDD" style="stroke:#181818;stroke-width:0.5;"/><path d="M1027,632.2578 L1027,642.2578 L1037,642.2578 L1027,632.2578 " fill="#FEFFDD" style="stroke:#181818;stroke-width:0.5;"/><text fill="#000000" font-family="sans-serif" font-size="17" lengthAdjust="spacing" textLength="417" x="308.75" y="653.0376">Die Authentifizierungsverfahren werden f&#252;r jeden</text><text fill="#000000" font-family="sans-serif" font-size="17" lengthAdjust="spacing" textLength="438" x="308.75" y="672.8267">Messenger-Service durch die Organisation festgelegt</text><polygon fill="#000000" points="686.5,773.2031,676.5,777.2031,686.5,781.2031,682.5,777.2031" style="stroke:#000000;stroke-width:1.0;"/><line style="stroke:#000000;stroke-width:1.0;stroke-dasharray:2.0,2.0;" x1="680.5" x2="937.5" y1="777.2031" y2="777.2031"/><text fill="#000000" font-family="sans-serif" font-size="17" font-weight="bold" lengthAdjust="spacing" textLength="12" x="755.5" y="751.4048">8</text><text fill="#000000" font-family="sans-serif" font-size="17" lengthAdjust="spacing" textLength="104" x="771.5" y="731.6157">unterst&#252;tzte</text><text fill="#000000" font-family="sans-serif" font-size="17" lengthAdjust="spacing" textLength="160" x="771.5" y="751.4048">Authentifizierungs-</text><text fill="#000000" font-family="sans-serif" font-size="17" lengthAdjust="spacing" textLength="82" x="771.5" y="771.1938">verfahren</text><polygon fill="#000000" points="410.5,806.9922,400.5,810.9922,410.5,814.9922,406.5,810.9922" style="stroke:#000000;stroke-width:1.0;"/><line style="stroke:#000000;stroke-width:1.0;stroke-dasharray:2.0,2.0;" x1="404.5" x2="669.5" y1="810.9922" y2="810.9922"/><text fill="#000000" font-family="sans-serif" font-size="17" font-weight="bold" lengthAdjust="spacing" textLength="12" x="505.5" y="804.9829">9</text><text fill="#000000" font-family="sans-serif" font-size="17" lengthAdjust="spacing" textLength="142" x="521.5" y="804.9829">HTTP(S) Forward</text><polygon fill="#000000" points="137.5,860.5703,127.5,864.5703,137.5,868.5703,133.5,864.5703" style="stroke:#000000;stroke-width:1.0;"/><line style="stroke:#000000;stroke-width:1.0;stroke-dasharray:2.0,2.0;" x1="131.5" x2="388.5" y1="864.5703" y2="864.5703"/><text fill="#000000" font-family="sans-serif" font-size="17" font-weight="bold" lengthAdjust="spacing" textLength="24" x="145.5" y="848.6665">10</text><text fill="#000000" font-family="sans-serif" font-size="17" lengthAdjust="spacing" textLength="47" x="173.5" y="838.772">Zeige</text><text fill="#000000" font-family="sans-serif" font-size="17" lengthAdjust="spacing" textLength="209" x="173.5" y="858.561">Authentifizierungsmaske</text><line style="stroke:#000000;stroke-width:1.0;" x1="126.5" x2="168.5" y1="923.3594" y2="923.3594"/><line style="stroke:#000000;stroke-width:1.0;" x1="168.5" x2="168.5" y1="923.3594" y2="936.3594"/><line style="stroke:#000000;stroke-width:1.0;" x1="127.5" x2="168.5" y1="936.3594" y2="936.3594"/><polygon fill="#000000" points="137.5,932.3594,127.5,936.3594,137.5,940.3594,133.5,936.3594" style="stroke:#000000;stroke-width:1.0;"/><text fill="#000000" font-family="sans-serif" font-size="17" font-weight="bold" lengthAdjust="spacing" textLength="24" x="133.5" y="917.3501">11</text><text fill="#000000" font-family="sans-serif" font-size="17" lengthAdjust="spacing" textLength="203" x="161.5" y="917.3501">Starte Authentifizierung</text><polygon fill="#000000" points="377.5,966.1484,387.5,970.1484,377.5,974.1484,381.5,970.1484" style="stroke:#000000;stroke-width:1.0;"/><line style="stroke:#000000;stroke-width:1.0;" x1="126.5" x2="383.5" y1="970.1484" y2="970.1484"/><text fill="#000000" font-family="sans-serif" font-size="17" font-weight="bold" lengthAdjust="spacing" textLength="24" x="133.5" y="964.1392">12</text><text fill="#000000" font-family="sans-serif" font-size="17" lengthAdjust="spacing" textLength="96" x="161.5" y="964.1392">Anmeldung</text><polygon fill="#000000" points="653.5,999.9375,663.5,1003.9375,653.5,1007.9375,657.5,1003.9375" style="stroke:#000000;stroke-width:1.0;"/><line style="stroke:#000000;stroke-width:1.0;" x1="399.5" x2="659.5" y1="1003.9375" y2="1003.9375"/><text fill="#000000" font-family="sans-serif" font-size="17" font-weight="bold" lengthAdjust="spacing" textLength="24" x="406.5" y="997.9282">13</text><text fill="#000000" font-family="sans-serif" font-size="17" lengthAdjust="spacing" textLength="219" x="434.5" y="997.9282">POST /_matrix/client/login</text><polygon fill="#000000" points="921.5,1033.7266,931.5,1037.7266,921.5,1041.7266,925.5,1037.7266" style="stroke:#000000;stroke-width:1.0;"/><line style="stroke:#000000;stroke-width:1.0;" x1="675.5" x2="927.5" y1="1037.7266" y2="1037.7266"/><text fill="#000000" font-family="sans-serif" font-size="17" font-weight="bold" lengthAdjust="spacing" textLength="24" x="682.5" y="1031.7173">14</text><text fill="#000000" font-family="sans-serif" font-size="17" lengthAdjust="spacing" textLength="142" x="710.5" y="1031.7173">HTTP(S) Forward</text><line style="stroke:#000000;stroke-width:1.0;" x1="943.5" x2="985.5" y1="1091.3047" y2="1091.3047"/><line style="stroke:#000000;stroke-width:1.0;" x1="985.5" x2="985.5" y1="1091.3047" y2="1104.3047"/><line style="stroke:#000000;stroke-width:1.0;" x1="944.5" x2="985.5" y1="1104.3047" y2="1104.3047"/><polygon fill="#000000" points="954.5,1100.3047,944.5,1104.3047,954.5,1108.3047,950.5,1104.3047" style="stroke:#000000;stroke-width:1.0;"/><text fill="#000000" font-family="sans-serif" font-size="17" font-weight="bold" lengthAdjust="spacing" textLength="24" x="950.5" y="1075.4009">15</text><text fill="#000000" font-family="sans-serif" font-size="17" lengthAdjust="spacing" textLength="44" x="978.5" y="1065.5063">pr&#252;fe</text><text fill="#000000" font-family="sans-serif" font-size="17" lengthAdjust="spacing" textLength="151" x="978.5" y="1085.2954">Client-Credentials</text><path d="M20,1144.3047 L90,1144.3047 L90,1151.4375 L80,1161.4375 L20,1161.4375 L20,1144.3047 " fill="#D3D3D3" style="stroke:#000000;stroke-width:1.5;"/><rect fill="none" height="186.7031" style="stroke:#000000;stroke-width:1.5;" width="1035.5" x="20" y="1144.3047"/><text fill="#000000" font-family="sans-serif" font-size="13" font-weight="bold" lengthAdjust="spacing" textLength="25" x="35" y="1157.3716">opt</text><text fill="#000000" font-family="sans-serif" font-size="11" font-weight="bold" lengthAdjust="spacing" textLength="5" x="105" y="1162.3354">[</text><text fill="#000000" font-family="sans-serif" font-size="16" font-weight="bold" lengthAdjust="spacing" textLength="74" x="110" y="1161.1563">Abbruch</text><text fill="#000000" font-family="sans-serif" font-size="11" font-weight="bold" lengthAdjust="spacing" textLength="5" x="184" y="1162.3354">]</text><polygon fill="#000000" points="686.5,1206.6406,676.5,1210.6406,686.5,1214.6406,682.5,1210.6406" style="stroke:#000000;stroke-width:1.0;"/><line style="stroke:#000000;stroke-width:1.0;stroke-dasharray:2.0,2.0;" x1="680.5" x2="932.5" y1="1210.6406" y2="1210.6406"/><text fill="#000000" font-family="sans-serif" font-size="17" font-weight="bold" lengthAdjust="spacing" textLength="24" x="776.5" y="1194.7368">16</text><text fill="#000000" font-family="sans-serif" font-size="17" lengthAdjust="spacing" textLength="97" x="804.5" y="1184.8423">Fehlerhafte</text><text fill="#000000" font-family="sans-serif" font-size="17" lengthAdjust="spacing" textLength="122" x="804.5" y="1204.6313">Anmeldedaten</text><polygon fill="#000000" points="410.5,1240.4297,400.5,1244.4297,410.5,1248.4297,406.5,1244.4297" style="stroke:#000000;stroke-width:1.0;"/><line style="stroke:#000000;stroke-width:1.0;stroke-dasharray:2.0,2.0;" x1="404.5" x2="664.5" y1="1244.4297" y2="1244.4297"/><text fill="#000000" font-family="sans-serif" font-size="17" font-weight="bold" lengthAdjust="spacing" textLength="24" x="488.5" y="1238.4204">17</text><text fill="#000000" font-family="sans-serif" font-size="17" lengthAdjust="spacing" textLength="142" x="516.5" y="1238.4204">HTTP(S) Forward</text><polygon fill="#000000" points="137.5,1294.0078,127.5,1298.0078,137.5,1302.0078,133.5,1298.0078" style="stroke:#000000;stroke-width:1.0;"/><line style="stroke:#000000;stroke-width:1.0;stroke-dasharray:2.0,2.0;" x1="131.5" x2="388.5" y1="1298.0078" y2="1298.0078"/><text fill="#000000" font-family="sans-serif" font-size="17" font-weight="bold" lengthAdjust="spacing" textLength="24" x="207.5" y="1282.104">18</text><text fill="#000000" font-family="sans-serif" font-size="17" lengthAdjust="spacing" textLength="122" x="235.5" y="1272.2095">Anmeldedaten</text><text fill="#000000" font-family="sans-serif" font-size="17" lengthAdjust="spacing" textLength="147" x="235.5" y="1291.9985">sind nicht korrekt</text><path d="M763,1368.0078 L763,1417.0078 L1114,1417.0078 L1114,1378.0078 L1104,1368.0078 L763,1368.0078 " fill="#FEFFDD" style="stroke:#181818;stroke-width:0.5;"/><path d="M1104,1368.0078 L1104,1378.0078 L1114,1378.0078 L1104,1368.0078 " fill="#FEFFDD" style="stroke:#181818;stroke-width:0.5;"/><text fill="#000000" font-family="sans-serif" font-size="17" lengthAdjust="spacing" textLength="288" x="769" y="1388.7876">Die &#220;berpr&#252;fung ist abh&#228;ngig vom</text><text fill="#000000" font-family="sans-serif" font-size="17" lengthAdjust="spacing" textLength="330" x="769" y="1408.5767">gew&#228;hlten Authentifizierungsverfahren</text><line style="stroke:#000000;stroke-width:1.0;" x1="943.5" x2="985.5" y1="1532.7422" y2="1532.7422"/><line style="stroke:#000000;stroke-width:1.0;" x1="985.5" x2="985.5" y1="1532.7422" y2="1545.7422"/><line style="stroke:#000000;stroke-width:1.0;" x1="944.5" x2="985.5" y1="1545.7422" y2="1545.7422"/><polygon fill="#000000" points="954.5,1541.7422,944.5,1545.7422,954.5,1549.7422,950.5,1545.7422" style="stroke:#000000;stroke-width:1.0;"/><text fill="#000000" font-family="sans-serif" font-size="17" font-weight="bold" lengthAdjust="spacing" textLength="24" x="950.5" y="1497.0493">19</text><text fill="#000000" font-family="sans-serif" font-size="17" lengthAdjust="spacing" textLength="62" x="978.5" y="1467.3657">erstelle</text><text fill="#000000" font-family="sans-serif" font-size="17" lengthAdjust="spacing" textLength="201" x="978.5" y="1487.1548">Matrix-ACCESS_TOKEN,</text><text fill="#000000" font-family="sans-serif" font-size="17" lengthAdjust="spacing" textLength="82" x="978.5" y="1506.9438">device_id,</text><text fill="#000000" font-family="sans-serif" font-size="17" lengthAdjust="spacing" textLength="47" x="978.5" y="1526.7329">MXID</text><polygon fill="#000000" points="686.5,1595.3203,676.5,1599.3203,686.5,1603.3203,682.5,1599.3203" style="stroke:#000000;stroke-width:1.0;"/><line style="stroke:#000000;stroke-width:1.0;stroke-dasharray:2.0,2.0;" x1="680.5" x2="937.5" y1="1599.3203" y2="1599.3203"/><text fill="#000000" font-family="sans-serif" font-size="17" font-weight="bold" lengthAdjust="spacing" textLength="24" x="697.5" y="1583.4165">20</text><text fill="#000000" font-family="sans-serif" font-size="17" lengthAdjust="spacing" textLength="201" x="725.5" y="1573.522">Matrix-ACCESS_TOKEN,</text><text fill="#000000" font-family="sans-serif" font-size="17" lengthAdjust="spacing" textLength="138" x="725.5" y="1593.311">device_ID, MXID</text><polygon fill="#000000" points="410.5,1629.1094,400.5,1633.1094,410.5,1637.1094,406.5,1633.1094" style="stroke:#000000;stroke-width:1.0;"/><line style="stroke:#000000;stroke-width:1.0;stroke-dasharray:2.0,2.0;" x1="404.5" x2="669.5" y1="1633.1094" y2="1633.1094"/><text fill="#000000" font-family="sans-serif" font-size="17" font-weight="bold" lengthAdjust="spacing" textLength="24" x="493.5" y="1627.1001">21</text><text fill="#000000" font-family="sans-serif" font-size="17" lengthAdjust="spacing" textLength="142" x="521.5" y="1627.1001">HTTP(S) Forward</text><line style="stroke:#000000;stroke-width:1.0;" x1="399.5" x2="441.5" y1="1711.6875" y2="1711.6875"/><line style="stroke:#000000;stroke-width:1.0;" x1="441.5" x2="441.5" y1="1711.6875" y2="1724.6875"/><line style="stroke:#000000;stroke-width:1.0;" x1="400.5" x2="441.5" y1="1724.6875" y2="1724.6875"/><polygon fill="#000000" points="410.5,1720.6875,400.5,1724.6875,410.5,1728.6875,406.5,1724.6875" style="stroke:#000000;stroke-width:1.0;"/><text fill="#000000" font-family="sans-serif" font-size="17" font-weight="bold" lengthAdjust="spacing" textLength="24" x="406.5" y="1695.7837">22</text><text fill="#000000" font-family="sans-serif" font-size="17" lengthAdjust="spacing" textLength="82" x="434.5" y="1685.8892">Speichere</text><text fill="#000000" font-family="sans-serif" font-size="17" lengthAdjust="spacing" textLength="196" x="434.5" y="1705.6782">Matrix-ACCESS_TOKEN</text><polygon fill="#000000" points="653.5,1819.0547,663.5,1823.0547,653.5,1827.0547,657.5,1823.0547" style="stroke:#000000;stroke-width:1.0;"/><line style="stroke:#000000;stroke-width:1.0;" x1="399.5" x2="659.5" y1="1823.0547" y2="1823.0547"/><text fill="#000000" font-family="sans-serif" font-size="17" font-weight="bold" lengthAdjust="spacing" textLength="24" x="406.5" y="1797.2563">23</text><text fill="#000000" font-family="sans-serif" font-size="17" lengthAdjust="spacing" textLength="172" x="434.5" y="1777.4673">POST /_matrix/client</text><text fill="#000000" font-family="sans-serif" font-size="17" lengthAdjust="spacing" textLength="128" x="434.5" y="1797.2563">/user/{userId}/</text><text fill="#000000" font-family="sans-serif" font-size="17" lengthAdjust="spacing" textLength="182" x="434.5" y="1817.0454">openid/request_token</text><polygon fill="#000000" points="921.5,1852.8438,931.5,1856.8438,921.5,1860.8438,925.5,1856.8438" style="stroke:#000000;stroke-width:1.0;"/><line style="stroke:#000000;stroke-width:1.0;" x1="675.5" x2="927.5" y1="1856.8438" y2="1856.8438"/><text fill="#000000" font-family="sans-serif" font-size="17" font-weight="bold" lengthAdjust="spacing" textLength="24" x="682.5" y="1850.8345">24</text><text fill="#000000" font-family="sans-serif" font-size="17" lengthAdjust="spacing" textLength="142" x="710.5" y="1850.8345">HTTP(S) Forward</text><line style="stroke:#000000;stroke-width:1.0;" x1="943.5" x2="985.5" y1="1910.4219" y2="1910.4219"/><line style="stroke:#000000;stroke-width:1.0;" x1="985.5" x2="985.5" y1="1910.4219" y2="1923.4219"/><line style="stroke:#000000;stroke-width:1.0;" x1="944.5" x2="985.5" y1="1923.4219" y2="1923.4219"/><polygon fill="#000000" points="954.5,1919.4219,944.5,1923.4219,954.5,1927.4219,950.5,1923.4219" style="stroke:#000000;stroke-width:1.0;"/><text fill="#000000" font-family="sans-serif" font-size="17" font-weight="bold" lengthAdjust="spacing" textLength="24" x="950.5" y="1894.5181">25</text><text fill="#000000" font-family="sans-serif" font-size="17" lengthAdjust="spacing" textLength="63" x="978.5" y="1884.6235">Erstelle</text><text fill="#000000" font-family="sans-serif" font-size="17" lengthAdjust="spacing" textLength="180" x="978.5" y="1904.4126">Matrix-OpenID-Token</text><polygon fill="#000000" points="686.5,1953.2109,676.5,1957.2109,686.5,1961.2109,682.5,1957.2109" style="stroke:#000000;stroke-width:1.0;"/><line style="stroke:#000000;stroke-width:1.0;stroke-dasharray:2.0,2.0;" x1="680.5" x2="937.5" y1="1957.2109" y2="1957.2109"/><text fill="#000000" font-family="sans-serif" font-size="17" font-weight="bold" lengthAdjust="spacing" textLength="24" x="723.5" y="1951.2017">26</text><text fill="#000000" font-family="sans-serif" font-size="17" lengthAdjust="spacing" textLength="180" x="751.5" y="1951.2017">Matrix-OpenID-Token</text><polygon fill="#000000" points="410.5,1987,400.5,1991,410.5,1995,406.5,1991" style="stroke:#000000;stroke-width:1.0;"/><line style="stroke:#000000;stroke-width:1.0;stroke-dasharray:2.0,2.0;" x1="404.5" x2="669.5" y1="1991" y2="1991"/><text fill="#000000" font-family="sans-serif" font-size="17" font-weight="bold" lengthAdjust="spacing" textLength="24" x="493.5" y="1984.9907">27</text><text fill="#000000" font-family="sans-serif" font-size="17" lengthAdjust="spacing" textLength="142" x="521.5" y="1984.9907">HTTP(S) Forward</text><polygon fill="#000000" points="1179.5,2045.7891,1189.5,2049.7891,1179.5,2053.7891,1183.5,2049.7891" style="stroke:#000000;stroke-width:1.0;"/><line style="stroke:#000000;stroke-width:1.0;" x1="399.5" x2="1185.5" y1="2049.7891" y2="2049.7891"/><text fill="#000000" font-family="sans-serif" font-size="17" font-weight="bold" lengthAdjust="spacing" textLength="24" x="406.5" y="2043.7798">28</text><text fill="#000000" font-family="sans-serif" font-size="17" lengthAdjust="spacing" textLength="386" x="434.5" y="2043.7798">GET /tim-authenticate (Matrix-OpenID-Token)</text><line style="stroke:#000000;stroke-width:1.0;" x1="1201.5" x2="1243.5" y1="2142.9453" y2="2142.9453"/><line style="stroke:#000000;stroke-width:1.0;" x1="1243.5" x2="1243.5" y1="2142.9453" y2="2155.9453"/><line style="stroke:#000000;stroke-width:1.0;" x1="1202.5" x2="1243.5" y1="2155.9453" y2="2155.9453"/><polygon fill="#000000" points="1212.5,2151.9453,1202.5,2155.9453,1212.5,2159.9453,1208.5,2155.9453" style="stroke:#000000;stroke-width:1.0;"/><text fill="#000000" font-family="sans-serif" font-size="17" font-weight="bold" lengthAdjust="spacing" textLength="24" x="1208.5" y="2107.2524">29</text><text fill="#000000" font-family="sans-serif" font-size="17" lengthAdjust="spacing" textLength="96" x="1236.5" y="2077.5688">Pr&#252;fung, ob</text><text fill="#000000" font-family="sans-serif" font-size="17" lengthAdjust="spacing" textLength="126" x="1236.5" y="2097.3579">Matrix-Domain</text><text fill="#000000" font-family="sans-serif" font-size="17" lengthAdjust="spacing" textLength="111" x="1236.5" y="2117.147">in F&#246;deration</text><text fill="#000000" font-family="sans-serif" font-size="17" lengthAdjust="spacing" textLength="107" x="1236.5" y="2136.936">enthalten ist</text><path d="M20,2195.9453 L84,2195.9453 L84,2203.0781 L74,2213.0781 L20,2213.0781 L20,2195.9453 " fill="#D3D3D3" style="stroke:#000000;stroke-width:1.5;"/><rect fill="none" height="422.2734" style="stroke:#000000;stroke-width:1.5;" width="1293.5" x="20" y="2195.9453"/><text fill="#000000" font-family="sans-serif" font-size="13" font-weight="bold" lengthAdjust="spacing" textLength="19" x="35" y="2209.0122">alt</text><text fill="#000000" font-family="sans-serif" font-size="11" font-weight="bold" lengthAdjust="spacing" textLength="5" x="99" y="2213.9761">[</text><text fill="#000000" font-family="sans-serif" font-size="16" font-weight="bold" lengthAdjust="spacing" textLength="832" x="104" y="2212.7969">nicht valider Messenger-Service, da Matrix-Homeserver nicht in der F&#246;derations enthalten ist</text><text fill="#000000" font-family="sans-serif" font-size="11" font-weight="bold" lengthAdjust="spacing" textLength="5" x="936" y="2213.9761">]</text><polygon fill="#000000" points="410.5,2283.2813,400.5,2287.2813,410.5,2291.2813,406.5,2287.2813" style="stroke:#000000;stroke-width:1.0;"/><line style="stroke:#000000;stroke-width:1.0;stroke-dasharray:2.0,2.0;" x1="404.5" x2="1190.5" y1="2287.2813" y2="2287.2813"/><text fill="#000000" font-family="sans-serif" font-size="17" font-weight="bold" lengthAdjust="spacing" textLength="24" x="1043.5" y="2271.3774">30</text><text fill="#000000" font-family="sans-serif" font-size="17" lengthAdjust="spacing" textLength="81" x="1071.5" y="2261.4829">HTTP 401</text><text fill="#000000" font-family="sans-serif" font-size="17" lengthAdjust="spacing" textLength="113" x="1071.5" y="2281.272">Unauthorized</text><line style="stroke:#000000;stroke-width:1.0;" x1="399.5" x2="441.5" y1="2360.6484" y2="2360.6484"/><line style="stroke:#000000;stroke-width:1.0;" x1="441.5" x2="441.5" y1="2360.6484" y2="2373.6484"/><line style="stroke:#000000;stroke-width:1.0;" x1="400.5" x2="441.5" y1="2373.6484" y2="2373.6484"/><polygon fill="#000000" points="410.5,2369.6484,400.5,2373.6484,410.5,2377.6484,406.5,2373.6484" style="stroke:#000000;stroke-width:1.0;"/><text fill="#000000" font-family="sans-serif" font-size="17" font-weight="bold" lengthAdjust="spacing" textLength="24" x="406.5" y="2334.8501">31</text><text fill="#000000" font-family="sans-serif" font-size="17" lengthAdjust="spacing" textLength="152" x="434.5" y="2315.061">Abmelden Session</text><text fill="#000000" font-family="sans-serif" font-size="17" lengthAdjust="spacing" textLength="196" x="434.5" y="2334.8501">Matrix-ACCESS_TOKEN</text><text fill="#000000" font-family="sans-serif" font-size="17" lengthAdjust="spacing" textLength="63" x="434.5" y="2354.6392">l&#246;schen</text><polygon fill="#000000" points="137.5,2423.2266,127.5,2427.2266,137.5,2431.2266,133.5,2427.2266" style="stroke:#000000;stroke-width:1.0;"/><line style="stroke:#000000;stroke-width:1.0;stroke-dasharray:2.0,2.0;" x1="131.5" x2="388.5" y1="2427.2266" y2="2427.2266"/><text fill="#000000" font-family="sans-serif" font-size="17" font-weight="bold" lengthAdjust="spacing" textLength="24" x="218.5" y="2411.3228">32</text><text fill="#000000" font-family="sans-serif" font-size="17" lengthAdjust="spacing" textLength="96" x="246.5" y="2401.4282">Anmeldung</text><text fill="#000000" font-family="sans-serif" font-size="17" lengthAdjust="spacing" textLength="136" x="246.5" y="2421.2173">nicht erfolgreich</text><line style="stroke:#000000;stroke-width:1.0;stroke-dasharray:2.0,2.0;" x1="20" x2="1313.5" y1="2461.2266" y2="2461.2266"/><text fill="#000000" font-family="sans-serif" font-size="11" font-weight="bold" lengthAdjust="spacing" textLength="5" x="25" y="2477.2573">[</text><text fill="#000000" font-family="sans-serif" font-size="16" font-weight="bold" lengthAdjust="spacing" textLength="722" x="30" y="2476.0781">valider Messenger-Service, da Matrix-Homeserver in der F&#246;deration enthalten ist</text><text fill="#000000" font-family="sans-serif" font-size="11" font-weight="bold" lengthAdjust="spacing" textLength="5" x="752" y="2477.2573">]</text><polygon fill="#000000" points="410.5,2527.6406,400.5,2531.6406,410.5,2535.6406,406.5,2531.6406" style="stroke:#000000;stroke-width:1.0;"/><line style="stroke:#000000;stroke-width:1.0;stroke-dasharray:2.0,2.0;" x1="404.5" x2="1195.5" y1="2531.6406" y2="2531.6406"/><text fill="#000000" font-family="sans-serif" font-size="17" font-weight="bold" lengthAdjust="spacing" textLength="24" x="1080.5" y="2525.6313">33</text><text fill="#000000" font-family="sans-serif" font-size="17" lengthAdjust="spacing" textLength="81" x="1108.5" y="2525.6313">HTTP 200</text><polygon fill="#000000" points="137.5,2581.2188,127.5,2585.2188,137.5,2589.2188,133.5,2585.2188" style="stroke:#000000;stroke-width:1.0;"/><line style="stroke:#000000;stroke-width:1.0;stroke-dasharray:2.0,2.0;" x1="131.5" x2="393.5" y1="2585.2188" y2="2585.2188"/><text fill="#000000" font-family="sans-serif" font-size="17" font-weight="bold" lengthAdjust="spacing" textLength="24" x="258.5" y="2569.3149">34</text><text fill="#000000" font-family="sans-serif" font-size="17" lengthAdjust="spacing" textLength="96" x="286.5" y="2559.4204">Anmeldung</text><text fill="#000000" font-family="sans-serif" font-size="17" lengthAdjust="spacing" textLength="89" x="286.5" y="2579.2095">erfolgreich</text></g></svg>