<?xml version="1.0" encoding="us-ascii" standalone="no"?><svg xmlns="http://www.w3.org/2000/svg" xmlns:xlink="http://www.w3.org/1999/xlink" contentStyleType="text/css" height="2227px" preserveAspectRatio="none" style="width:1690px;height:2227px;background:#FFFFFF;" version="1.1" viewBox="0 0 1690 2227" width="1690px" zoomAndPan="magnify"><defs/><g><rect fill="#F5F5F5" height="2215.1094" style="stroke:#181818;stroke-width:0.5;" width="537" x="484" y="6"/><text fill="#000000" font-family="sans-serif" font-size="18" font-weight="bold" lengthAdjust="spacing" textLength="193" x="653.5" y="22.708">Messenger-Service</text><text fill="#000000" font-family="sans-serif" font-size="13" font-weight="bold" lengthAdjust="spacing" textLength="5" x="846.5" y="23.8872">&#160;</text><rect fill="#DCDCDC" height="1696.5938" style="stroke:#000000;stroke-width:1.0;" width="10" x="340" y="339.9531"/><rect fill="#DCDCDC" height="167.9453" style="stroke:#000000;stroke-width:1.0;" width="10" x="590" y="393.5313"/><rect fill="#DCDCDC" height="467.5859" style="stroke:#000000;stroke-width:1.0;" width="10" x="590" y="705.8438"/><rect fill="#DCDCDC" height="350.8906" style="stroke:#000000;stroke-width:1.0;" width="10" x="590" y="1443.3438"/><rect fill="#DCDCDC" height="101.3672" style="stroke:#000000;stroke-width:1.0;" width="10" x="590" y="1881.6016"/><rect fill="#DCDCDC" height="100.3672" style="stroke:#000000;stroke-width:1.0;" width="10" x="859.5" y="427.3203"/><rect fill="#DCDCDC" height="701.3828" style="stroke:#000000;stroke-width:1.0;" width="10" x="859.5" y="1059.0625"/><rect fill="#DCDCDC" height="33.7891" style="stroke:#000000;stroke-width:1.0;" width="10" x="859.5" y="1915.3906"/><rect fill="#DCDCDC" height="67.5781" style="stroke:#000000;stroke-width:1.0;" width="10" x="1137.5" y="1284.9766"/><rect fill="#DCDCDC" height="529.0469" style="stroke:#000000;stroke-width:1.0;" width="10" x="1361.5" y="1318.7656"/><rect fill="#F0F8FF" height="326.0703" style="stroke:#000000;stroke-width:1.5;" width="1048.5" x="10" y="268.4063"/><rect fill="#F0F8FF" height="1234.8125" style="stroke:#000000;stroke-width:1.5;" width="1673.5" x="10" y="834.7344"/><rect fill="#F0F8FF" height="1056.8984" style="stroke:none;stroke-width:1.0;" width="1673.5" x="10" y="1012.6484"/><rect fill="#ADD8E6" height="172.125" style="stroke:#000000;stroke-width:1.5;" width="781.5" x="702" y="1213.4297"/><line style="stroke:#000000;stroke-width:0.5;stroke-dasharray:5.0,5.0;" x1="93" x2="93" y1="111.5625" y2="2111.5469"/><line style="stroke:#000000;stroke-width:0.5;stroke-dasharray:5.0,5.0;" x1="345" x2="345" y1="111.5625" y2="2111.5469"/><line style="stroke:#000000;stroke-width:0.5;stroke-dasharray:5.0,5.0;" x1="595" x2="595" y1="111.5625" y2="2111.5469"/><line style="stroke:#000000;stroke-width:0.5;stroke-dasharray:5.0,5.0;" x1="864" x2="864" y1="111.5625" y2="2111.5469"/><line style="stroke:#000000;stroke-width:0.5;stroke-dasharray:5.0,5.0;" x1="1142.5" x2="1142.5" y1="111.5625" y2="2111.5469"/><line style="stroke:#000000;stroke-width:0.5;stroke-dasharray:5.0,5.0;" x1="1366.5" x2="1366.5" y1="111.5625" y2="2111.5469"/><line style="stroke:#000000;stroke-width:0.5;stroke-dasharray:5.0,5.0;" x1="1600.5" x2="1600.5" y1="111.5625" y2="2111.5469"/><text fill="#000000" font-family="sans-serif" font-size="20" lengthAdjust="spacing" textLength="125" x="27.5" y="83.5645">Akteur - A in</text><text fill="#000000" font-family="sans-serif" font-size="20" lengthAdjust="spacing" textLength="140" x="20" y="106.8457">der Rolle User</text><ellipse cx="93" cy="13.5" fill="#DCDCDC" rx="8" ry="8" style="stroke:#000000;stroke-width:0.5;"/><path d="M93,21.5 L93,48.5 M80,29.5 L106,29.5 M93,48.5 L80,63.5 M93,48.5 L106,63.5 " fill="none" style="stroke:#000000;stroke-width:0.5;"/><text fill="#000000" font-family="sans-serif" font-size="20" lengthAdjust="spacing" textLength="125" x="27.5" y="2129.1113">Akteur - A in</text><text fill="#000000" font-family="sans-serif" font-size="20" lengthAdjust="spacing" textLength="140" x="20" y="2152.3926">der Rolle User</text><ellipse cx="93" cy="2165.6094" fill="#DCDCDC" rx="8" ry="8" style="stroke:#000000;stroke-width:0.5;"/><path d="M93,2173.6094 L93,2200.6094 M80,2181.6094 L106,2181.6094 M93,2200.6094 L80,2215.6094 M93,2200.6094 L106,2215.6094 " fill="none" style="stroke:#000000;stroke-width:0.5;"/><rect fill="#F0F8FF" height="60.5625" rx="2.5" ry="2.5" style="stroke:#000000;stroke-width:0.5;" width="214" x="238" y="50"/><text fill="#000000" font-family="sans-serif" font-size="20" lengthAdjust="spacing" textLength="139" x="275.5" y="75.5645">TI-Messenger-</text><text fill="#000000" font-family="sans-serif" font-size="20" lengthAdjust="spacing" textLength="79" x="305.5" y="98.8457">Client A</text><rect fill="#F0F8FF" height="60.5625" rx="2.5" ry="2.5" style="stroke:#000000;stroke-width:0.5;" width="214" x="238" y="2110.5469"/><text fill="#000000" font-family="sans-serif" font-size="20" lengthAdjust="spacing" textLength="139" x="275.5" y="2136.1113">TI-Messenger-</text><text fill="#000000" font-family="sans-serif" font-size="20" lengthAdjust="spacing" textLength="79" x="305.5" y="2159.3926">Client A</text><rect fill="#EFEFFF" height="60.5625" rx="2.5" ry="2.5" style="stroke:#000000;stroke-width:0.5;" width="214" x="488" y="50"/><text fill="#000000" font-family="sans-serif" font-size="20" lengthAdjust="spacing" textLength="114" x="538" y="75.5645">Messenger-</text><text fill="#000000" font-family="sans-serif" font-size="20" lengthAdjust="spacing" textLength="54" x="568" y="98.8457">Proxy</text><rect fill="#EFEFFF" height="60.5625" rx="2.5" ry="2.5" style="stroke:#000000;stroke-width:0.5;" width="214" x="488" y="2110.5469"/><text fill="#000000" font-family="sans-serif" font-size="20" lengthAdjust="spacing" textLength="114" x="538" y="2136.1113">Messenger-</text><text fill="#000000" font-family="sans-serif" font-size="20" lengthAdjust="spacing" textLength="54" x="568" y="2159.3926">Proxy</text><rect fill="#EFEFFF" height="60.5625" rx="2.5" ry="2.5" style="stroke:#000000;stroke-width:0.5;" width="305" x="712" y="50"/><text fill="#000000" font-family="sans-serif" font-size="20" lengthAdjust="spacing" textLength="189" x="767" y="75.5645">Matrix-Homeserver</text><text fill="#000000" font-family="sans-serif" font-size="20" lengthAdjust="spacing" textLength="291" x="719" y="98.8457">(inklusive Nutzerverzeichnis)</text><rect fill="#EFEFFF" height="60.5625" rx="2.5" ry="2.5" style="stroke:#000000;stroke-width:0.5;" width="305" x="712" y="2110.5469"/><text fill="#000000" font-family="sans-serif" font-size="20" lengthAdjust="spacing" textLength="189" x="767" y="2136.1113">Matrix-Homeserver</text><text fill="#000000" font-family="sans-serif" font-size="20" lengthAdjust="spacing" textLength="291" x="719" y="2159.3926">(inklusive Nutzerverzeichnis)</text><rect fill="#EFEFFF" height="60.5625" rx="2.5" ry="2.5" style="stroke:#000000;stroke-width:0.5;" width="214" x="1035.5" y="50"/><text fill="#000000" font-family="sans-serif" font-size="20" lengthAdjust="spacing" textLength="55" x="1115" y="75.5645">Push-</text><text fill="#000000" font-family="sans-serif" font-size="20" lengthAdjust="spacing" textLength="88" x="1098.5" y="98.8457">Gateway</text><rect fill="#EFEFFF" height="60.5625" rx="2.5" ry="2.5" style="stroke:#000000;stroke-width:0.5;" width="214" x="1035.5" y="2110.5469"/><text fill="#000000" font-family="sans-serif" font-size="20" lengthAdjust="spacing" textLength="55" x="1115" y="2136.1113">Push-</text><text fill="#000000" font-family="sans-serif" font-size="20" lengthAdjust="spacing" textLength="88" x="1098.5" y="2159.3926">Gateway</text><rect fill="#C9FFC9" height="60.5625" rx="2.5" ry="2.5" style="stroke:#000000;stroke-width:0.5;" width="214" x="1259.5" y="50"/><text fill="#000000" font-family="sans-serif" font-size="20" lengthAdjust="spacing" textLength="139" x="1297" y="75.5645">TI-Messenger-</text><text fill="#000000" font-family="sans-serif" font-size="20" lengthAdjust="spacing" textLength="79" x="1327" y="98.8457">Client B</text><rect fill="#C9FFC9" height="60.5625" rx="2.5" ry="2.5" style="stroke:#000000;stroke-width:0.5;" width="214" x="1259.5" y="2110.5469"/><text fill="#000000" font-family="sans-serif" font-size="20" lengthAdjust="spacing" textLength="139" x="1297" y="2136.1113">TI-Messenger-</text><text fill="#000000" font-family="sans-serif" font-size="20" lengthAdjust="spacing" textLength="79" x="1327" y="2159.3926">Client B</text><text fill="#000000" font-family="sans-serif" font-size="20" lengthAdjust="spacing" textLength="125" x="1535" y="83.5645">Akteur - B in</text><text fill="#000000" font-family="sans-serif" font-size="20" lengthAdjust="spacing" textLength="140" x="1527.5" y="106.8457">der Rolle User</text><ellipse cx="1600.5" cy="13.5" fill="#DCDCDC" rx="8" ry="8" style="stroke:#000000;stroke-width:0.5;"/><path d="M1600.5,21.5 L1600.5,48.5 M1587.5,29.5 L1613.5,29.5 M1600.5,48.5 L1587.5,63.5 M1600.5,48.5 L1613.5,63.5 " fill="none" style="stroke:#000000;stroke-width:0.5;"/><text fill="#000000" font-family="sans-serif" font-size="20" lengthAdjust="spacing" textLength="125" x="1535" y="2129.1113">Akteur - B in</text><text fill="#000000" font-family="sans-serif" font-size="20" lengthAdjust="spacing" textLength="140" x="1527.5" y="2152.3926">der Rolle User</text><ellipse cx="1600.5" cy="2165.6094" fill="#DCDCDC" rx="8" ry="8" style="stroke:#000000;stroke-width:0.5;"/><path d="M1600.5,2173.6094 L1600.5,2200.6094 M1587.5,2181.6094 L1613.5,2181.6094 M1600.5,2200.6094 L1587.5,2215.6094 M1600.5,2200.6094 L1613.5,2215.6094 " fill="none" style="stroke:#000000;stroke-width:0.5;"/><rect fill="#DCDCDC" height="1696.5938" style="stroke:#000000;stroke-width:1.0;" width="10" x="340" y="339.9531"/><rect fill="#DCDCDC" height="167.9453" style="stroke:#000000;stroke-width:1.0;" width="10" x="590" y="393.5313"/><rect fill="#DCDCDC" height="467.5859" style="stroke:#000000;stroke-width:1.0;" width="10" x="590" y="705.8438"/><rect fill="#DCDCDC" height="350.8906" style="stroke:#000000;stroke-width:1.0;" width="10" x="590" y="1443.3438"/><rect fill="#DCDCDC" height="101.3672" style="stroke:#000000;stroke-width:1.0;" width="10" x="590" y="1881.6016"/><rect fill="#DCDCDC" height="100.3672" style="stroke:#000000;stroke-width:1.0;" width="10" x="859.5" y="427.3203"/><rect fill="#DCDCDC" height="701.3828" style="stroke:#000000;stroke-width:1.0;" width="10" x="859.5" y="1059.0625"/><rect fill="#DCDCDC" height="33.7891" style="stroke:#000000;stroke-width:1.0;" width="10" x="859.5" y="1915.3906"/><rect fill="#DCDCDC" height="67.5781" style="stroke:#000000;stroke-width:1.0;" width="10" x="1137.5" y="1284.9766"/><rect fill="#DCDCDC" height="529.0469" style="stroke:#000000;stroke-width:1.0;" width="10" x="1361.5" y="1318.7656"/><path d="M22,151.5625 L22,230.5625 L1670,230.5625 L1670,161.5625 L1660,151.5625 L22,151.5625 " fill="#FEFFDD" style="stroke:#181818;stroke-width:0.5;"/><path d="M1660,151.5625 L1660,161.5625 L1670,161.5625 L1660,151.5625 " fill="#FEFFDD" style="stroke:#181818;stroke-width:0.5;"/><text fill="#000000" font-family="sans-serif" font-size="13" lengthAdjust="spacing" textLength="4" x="338.25" y="168.6294">&#160;</text><text fill="#000000" font-family="sans-serif" font-size="17" lengthAdjust="spacing" textLength="1007" x="338.25" y="187.4751">Die Akteure sind auf dem selben Messenger-Service angemeldet und im Besitz eines zugelassenen TI-Messenger-Clients.</text><text fill="#000000" font-family="sans-serif" font-size="17" lengthAdjust="spacing" textLength="473" x="338.25" y="207.2642">Ein Chatraum wurde durch den Einladenen eingerichtet.</text><text fill="#000000" font-family="sans-serif" font-size="13" lengthAdjust="spacing" textLength="4" x="338.25" y="223.3403">&#160;</text><path d="M10,268.4063 L80,268.4063 L80,275.5391 L70,285.5391 L10,285.5391 L10,268.4063 " fill="#D3D3D3" style="stroke:#000000;stroke-width:1.5;"/><rect fill="none" height="326.0703" style="stroke:#000000;stroke-width:1.5;" width="1048.5" x="10" y="268.4063"/><text fill="#000000" font-family="sans-serif" font-size="13" font-weight="bold" lengthAdjust="spacing" textLength="25" x="25" y="281.4731">opt</text><text fill="#000000" font-family="sans-serif" font-size="11" font-weight="bold" lengthAdjust="spacing" textLength="5" x="95" y="286.437">[</text><text fill="#000000" font-family="sans-serif" font-size="16" font-weight="bold" lengthAdjust="spacing" textLength="131" x="100" y="285.2578">Akteur suchen</text><text fill="#000000" font-family="sans-serif" font-size="11" font-weight="bold" lengthAdjust="spacing" textLength="5" x="231" y="286.437">]</text><polygon fill="#000000" points="328,335.9531,338,339.9531,328,343.9531,332,339.9531" style="stroke:#000000;stroke-width:1.0;"/><line style="stroke:#000000;stroke-width:1.0;" x1="93" x2="334" y1="339.9531" y2="339.9531"/><text fill="#000000" font-family="sans-serif" font-size="17" font-weight="bold" lengthAdjust="spacing" textLength="12" x="100" y="333.9438">1</text><text fill="#000000" font-family="sans-serif" font-size="17" lengthAdjust="spacing" textLength="129" x="116" y="333.9438">Suche Akteur B</text><polygon fill="#000000" points="578,389.5313,588,393.5313,578,397.5313,582,393.5313" style="stroke:#000000;stroke-width:1.0;"/><line style="stroke:#000000;stroke-width:1.0;" x1="350" x2="584" y1="393.5313" y2="393.5313"/><text fill="#000000" font-family="sans-serif" font-size="17" font-weight="bold" lengthAdjust="spacing" textLength="12" x="357" y="377.6274">2</text><text fill="#000000" font-family="sans-serif" font-size="17" lengthAdjust="spacing" textLength="178" x="373" y="367.7329">POST /_matrix/client/</text><text fill="#000000" font-family="sans-serif" font-size="17" lengthAdjust="spacing" textLength="179" x="373" y="387.522">user_directory/search</text><polygon fill="#000000" points="847.5,423.3203,857.5,427.3203,847.5,431.3203,851.5,427.3203" style="stroke:#000000;stroke-width:1.0;"/><line style="stroke:#000000;stroke-width:1.0;" x1="600" x2="853.5" y1="427.3203" y2="427.3203"/><text fill="#000000" font-family="sans-serif" font-size="17" font-weight="bold" lengthAdjust="spacing" textLength="12" x="607" y="421.311">3</text><text fill="#000000" font-family="sans-serif" font-size="17" lengthAdjust="spacing" textLength="142" x="623" y="421.311">HTTP(S) Forward</text><line style="stroke:#000000;stroke-width:1.0;stroke-dasharray:2.0,2.0;" x1="869.5" x2="911.5" y1="480.8984" y2="480.8984"/><line style="stroke:#000000;stroke-width:1.0;stroke-dasharray:2.0,2.0;" x1="911.5" x2="911.5" y1="480.8984" y2="493.8984"/><line style="stroke:#000000;stroke-width:1.0;stroke-dasharray:2.0,2.0;" x1="870.5" x2="911.5" y1="493.8984" y2="493.8984"/><polygon fill="#000000" points="880.5,489.8984,870.5,493.8984,880.5,497.8984,876.5,493.8984" style="stroke:#000000;stroke-width:1.0;"/><text fill="#000000" font-family="sans-serif" font-size="17" font-weight="bold" lengthAdjust="spacing" textLength="12" x="876.5" y="464.9946">4</text><text fill="#000000" font-family="sans-serif" font-size="17" lengthAdjust="spacing" textLength="149" x="892.5" y="455.1001">Nutzerverzeichnis</text><text fill="#000000" font-family="sans-serif" font-size="17" lengthAdjust="spacing" textLength="106" x="892.5" y="474.8892">durchsuchen</text><polygon fill="#000000" points="611,523.6875,601,527.6875,611,531.6875,607,527.6875" style="stroke:#000000;stroke-width:1.0;"/><line style="stroke:#000000;stroke-width:1.0;stroke-dasharray:2.0,2.0;" x1="605" x2="863.5" y1="527.6875" y2="527.6875"/><text fill="#000000" font-family="sans-serif" font-size="17" font-weight="bold" lengthAdjust="spacing" textLength="12" x="794.5" y="521.6782">5</text><text fill="#000000" font-family="sans-serif" font-size="17" lengthAdjust="spacing" textLength="47" x="810.5" y="521.6782">MXID</text><polygon fill="#000000" points="361,557.4766,351,561.4766,361,565.4766,357,561.4766" style="stroke:#000000;stroke-width:1.0;"/><line style="stroke:#000000;stroke-width:1.0;stroke-dasharray:2.0,2.0;" x1="355" x2="594" y1="561.4766" y2="561.4766"/><text fill="#000000" font-family="sans-serif" font-size="17" font-weight="bold" lengthAdjust="spacing" textLength="12" x="430" y="555.4673">6</text><text fill="#000000" font-family="sans-serif" font-size="17" lengthAdjust="spacing" textLength="142" x="446" y="555.4673">HTTP(S) Forward</text><polygon fill="#000000" points="328,648.2656,338,652.2656,328,656.2656,332,652.2656" style="stroke:#000000;stroke-width:1.0;"/><line style="stroke:#000000;stroke-width:1.0;" x1="93" x2="334" y1="652.2656" y2="652.2656"/><text fill="#000000" font-family="sans-serif" font-size="17" font-weight="bold" lengthAdjust="spacing" textLength="12" x="100" y="646.2563">7</text><text fill="#000000" font-family="sans-serif" font-size="17" lengthAdjust="spacing" textLength="150" x="116" y="646.2563">Akteur B einladen</text><polygon fill="#000000" points="578,701.8438,588,705.8438,578,709.8438,582,705.8438" style="stroke:#000000;stroke-width:1.0;"/><line style="stroke:#000000;stroke-width:1.0;" x1="350" x2="584" y1="705.8438" y2="705.8438"/><text fill="#000000" font-family="sans-serif" font-size="17" font-weight="bold" lengthAdjust="spacing" textLength="12" x="357" y="689.9399">8</text><text fill="#000000" font-family="sans-serif" font-size="17" lengthAdjust="spacing" textLength="205" x="373" y="680.0454">POST /_matrix/client/v3/</text><text fill="#000000" font-family="sans-serif" font-size="17" lengthAdjust="spacing" textLength="194" x="373" y="699.8345">rooms/{roomId}/invite</text><rect fill="#F5F5DC" height="58.8906" style="stroke:#000000;stroke-width:1.5;" width="220" x="485" y="738.8438"/><path d="M485,738.8438 L551,738.8438 L551,745.8438 L541,755.8438 L485,755.8438 L485,738.8438 " fill="#98FB98" style="stroke:#000000;stroke-width:2.0;"/><text fill="#000000" font-family="sans-serif" font-size="13" font-weight="bold" lengthAdjust="spacing" textLength="21" x="498" y="752.9106">ref</text><text fill="#000000" font-family="sans-serif" font-size="17" font-weight="bold" lengthAdjust="spacing" textLength="207" x="491.5" y="775.6235">Berechtigungspr&#252;fung</text><text fill="#000000" font-family="sans-serif" font-size="12" lengthAdjust="spacing" textLength="4" x="593" y="790.7715">&#160;</text><path d="M10,834.7344 L74,834.7344 L74,841.8672 L64,851.8672 L10,851.8672 L10,834.7344 " fill="#D3D3D3" style="stroke:#000000;stroke-width:1.5;"/><rect fill="none" height="1234.8125" style="stroke:#000000;stroke-width:1.5;" width="1673.5" x="10" y="834.7344"/><text fill="#000000" font-family="sans-serif" font-size="13" font-weight="bold" lengthAdjust="spacing" textLength="19" x="25" y="847.8013">alt</text><text fill="#000000" font-family="sans-serif" font-size="11" font-weight="bold" lengthAdjust="spacing" textLength="5" x="89" y="852.7651">[</text><text fill="#000000" font-family="sans-serif" font-size="16" font-weight="bold" lengthAdjust="spacing" textLength="427" x="94" y="851.5859">Matrix-Domain nicht in der F&#246;deration enthalten</text><text fill="#000000" font-family="sans-serif" font-size="11" font-weight="bold" lengthAdjust="spacing" textLength="5" x="521" y="852.7651">]</text><polygon fill="#000000" points="361,922.0703,351,926.0703,361,930.0703,357,926.0703" style="stroke:#000000;stroke-width:1.0;"/><line style="stroke:#000000;stroke-width:1.0;stroke-dasharray:2.0,2.0;" x1="355" x2="589" y1="926.0703" y2="926.0703"/><text fill="#000000" font-family="sans-serif" font-size="17" font-weight="bold" lengthAdjust="spacing" textLength="12" x="454" y="910.1665">9</text><text fill="#000000" font-family="sans-serif" font-size="17" lengthAdjust="spacing" textLength="81" x="470" y="900.272">HTTP 401</text><text fill="#000000" font-family="sans-serif" font-size="17" lengthAdjust="spacing" textLength="113" x="470" y="920.061">Unauthorized</text><polygon fill="#000000" points="104,975.6484,94,979.6484,104,983.6484,100,979.6484" style="stroke:#000000;stroke-width:1.0;"/><line style="stroke:#000000;stroke-width:1.0;stroke-dasharray:2.0,2.0;" x1="98" x2="339" y1="979.6484" y2="979.6484"/><text fill="#000000" font-family="sans-serif" font-size="17" font-weight="bold" lengthAdjust="spacing" textLength="24" x="169" y="963.7446">10</text><text fill="#000000" font-family="sans-serif" font-size="17" lengthAdjust="spacing" textLength="131" x="197" y="953.8501">Einladung nicht</text><text fill="#000000" font-family="sans-serif" font-size="17" lengthAdjust="spacing" textLength="89" x="197" y="973.6392">erfolgreich</text><line style="stroke:#000000;stroke-width:1.0;stroke-dasharray:2.0,2.0;" x1="10" x2="1683.5" y1="1013.6484" y2="1013.6484"/><text fill="#000000" font-family="sans-serif" font-size="11" font-weight="bold" lengthAdjust="spacing" textLength="5" x="15" y="1029.6792">[</text><text fill="#000000" font-family="sans-serif" font-size="16" font-weight="bold" lengthAdjust="spacing" textLength="377" x="20" y="1028.5">Matrix-Domain in der F&#246;deration enthalten</text><text fill="#000000" font-family="sans-serif" font-size="11" font-weight="bold" lengthAdjust="spacing" textLength="5" x="397" y="1029.6792">]</text><polygon fill="#000000" points="847.5,1055.0625,857.5,1059.0625,847.5,1063.0625,851.5,1059.0625" style="stroke:#000000;stroke-width:1.0;"/><line style="stroke:#000000;stroke-width:1.0;" x1="600" x2="853.5" y1="1059.0625" y2="1059.0625"/><text fill="#000000" font-family="sans-serif" font-size="17" font-weight="bold" lengthAdjust="spacing" textLength="24" x="607" y="1053.0532">11</text><text fill="#000000" font-family="sans-serif" font-size="17" lengthAdjust="spacing" textLength="142" x="635" y="1053.0532">HTTP(S) Forward</text><line style="stroke:#000000;stroke-width:1.0;" x1="869.5" x2="911.5" y1="1092.8516" y2="1092.8516"/><line style="stroke:#000000;stroke-width:1.0;" x1="911.5" x2="911.5" y1="1092.8516" y2="1105.8516"/><line style="stroke:#000000;stroke-width:1.0;" x1="870.5" x2="911.5" y1="1105.8516" y2="1105.8516"/><polygon fill="#000000" points="880.5,1101.8516,870.5,1105.8516,880.5,1109.8516,876.5,1105.8516" style="stroke:#000000;stroke-width:1.0;"/><text fill="#000000" font-family="sans-serif" font-size="17" font-weight="bold" lengthAdjust="spacing" textLength="24" x="876.5" y="1086.8423">12</text><text fill="#000000" font-family="sans-serif" font-size="17" lengthAdjust="spacing" textLength="151" x="904.5" y="1086.8423">Invite verarbeiten</text><polygon fill="#000000" points="611,1135.6406,601,1139.6406,611,1143.6406,607,1139.6406" style="stroke:#000000;stroke-width:1.0;"/><line style="stroke:#000000;stroke-width:1.0;stroke-dasharray:2.0,2.0;" x1="605" x2="858.5" y1="1139.6406" y2="1139.6406"/><text fill="#000000" font-family="sans-serif" font-size="17" font-weight="bold" lengthAdjust="spacing" textLength="24" x="743.5" y="1133.6313">13</text><text fill="#000000" font-family="sans-serif" font-size="17" lengthAdjust="spacing" textLength="81" x="771.5" y="1133.6313">HTTP 200</text><polygon fill="#000000" points="361,1169.4297,351,1173.4297,361,1177.4297,357,1173.4297" style="stroke:#000000;stroke-width:1.0;"/><line style="stroke:#000000;stroke-width:1.0;stroke-dasharray:2.0,2.0;" x1="355" x2="594" y1="1173.4297" y2="1173.4297"/><text fill="#000000" font-family="sans-serif" font-size="17" font-weight="bold" lengthAdjust="spacing" textLength="24" x="418" y="1167.4204">14</text><text fill="#000000" font-family="sans-serif" font-size="17" lengthAdjust="spacing" textLength="142" x="446" y="1167.4204">HTTP(S) Forward</text><path d="M702,1213.4297 L772,1213.4297 L772,1220.5625 L762,1230.5625 L702,1230.5625 L702,1213.4297 " fill="#D3D3D3" style="stroke:#000000;stroke-width:1.5;"/><rect fill="none" height="172.125" style="stroke:#000000;stroke-width:1.5;" width="781.5" x="702" y="1213.4297"/><text fill="#000000" font-family="sans-serif" font-size="13" font-weight="bold" lengthAdjust="spacing" textLength="25" x="717" y="1226.4966">opt</text><text fill="#000000" font-family="sans-serif" font-size="11" font-weight="bold" lengthAdjust="spacing" textLength="5" x="787" y="1231.4604">[</text><text fill="#000000" font-family="sans-serif" font-size="16" font-weight="bold" lengthAdjust="spacing" textLength="205" x="792" y="1230.2813">Push-Benachrichtigung</text><text fill="#000000" font-family="sans-serif" font-size="11" font-weight="bold" lengthAdjust="spacing" textLength="5" x="997" y="1231.4604">]</text><polygon fill="#000000" points="1125.5,1280.9766,1135.5,1284.9766,1125.5,1288.9766,1129.5,1284.9766" style="stroke:#000000;stroke-width:1.0;"/><line style="stroke:#000000;stroke-width:1.0;" x1="869.5" x2="1131.5" y1="1284.9766" y2="1284.9766"/><text fill="#000000" font-family="sans-serif" font-size="17" font-weight="bold" lengthAdjust="spacing" textLength="24" x="876.5" y="1278.9673">15</text><text fill="#000000" font-family="sans-serif" font-size="17" lengthAdjust="spacing" textLength="221" x="904.5" y="1278.9673">POST /_matrix/push/notify</text><polygon fill="#000000" points="1349.5,1314.7656,1359.5,1318.7656,1349.5,1322.7656,1353.5,1318.7656" style="stroke:#000000;stroke-width:1.0;"/><line style="stroke:#000000;stroke-width:1.0;" x1="1147.5" x2="1355.5" y1="1318.7656" y2="1318.7656"/><text fill="#000000" font-family="sans-serif" font-size="17" font-weight="bold" lengthAdjust="spacing" textLength="24" x="1154.5" y="1312.7563">16</text><text fill="#000000" font-family="sans-serif" font-size="17" lengthAdjust="spacing" textLength="97" x="1182.5" y="1312.7563">Notification</text><polygon fill="#000000" points="880.5,1348.5547,870.5,1352.5547,880.5,1356.5547,876.5,1352.5547" style="stroke:#000000;stroke-width:1.0;"/><line style="stroke:#000000;stroke-width:1.0;stroke-dasharray:2.0,2.0;" x1="874.5" x2="1141.5" y1="1352.5547" y2="1352.5547"/><text fill="#000000" font-family="sans-serif" font-size="17" font-weight="bold" lengthAdjust="spacing" textLength="24" x="1053.5" y="1346.5454">17</text><text fill="#000000" font-family="sans-serif" font-size="17" lengthAdjust="spacing" textLength="54" x="1081.5" y="1346.5454">Status</text><polygon fill="#000000" points="611,1439.3438,601,1443.3438,611,1447.3438,607,1443.3438" style="stroke:#000000;stroke-width:1.0;"/><line style="stroke:#000000;stroke-width:1.0;" x1="605" x2="1360.5" y1="1443.3438" y2="1443.3438"/><text fill="#000000" font-family="sans-serif" font-size="17" font-weight="bold" lengthAdjust="spacing" textLength="24" x="1213.5" y="1437.3345">18</text><text fill="#000000" font-family="sans-serif" font-size="17" lengthAdjust="spacing" textLength="113" x="1241.5" y="1437.3345">Sync Request</text><polygon fill="#000000" points="847.5,1473.1328,857.5,1477.1328,847.5,1481.1328,851.5,1477.1328" style="stroke:#000000;stroke-width:1.0;"/><line style="stroke:#000000;stroke-width:1.0;" x1="600" x2="853.5" y1="1477.1328" y2="1477.1328"/><text fill="#000000" font-family="sans-serif" font-size="17" font-weight="bold" lengthAdjust="spacing" textLength="24" x="607" y="1471.1235">19</text><text fill="#000000" font-family="sans-serif" font-size="17" lengthAdjust="spacing" textLength="142" x="635" y="1471.1235">HTTP(S) Forward</text><polygon fill="#000000" points="611,1506.9219,601,1510.9219,611,1514.9219,607,1510.9219" style="stroke:#000000;stroke-width:1.0;"/><line style="stroke:#000000;stroke-width:1.0;stroke-dasharray:2.0,2.0;" x1="605" x2="858.5" y1="1510.9219" y2="1510.9219"/><text fill="#000000" font-family="sans-serif" font-size="17" font-weight="bold" lengthAdjust="spacing" textLength="24" x="700.5" y="1504.9126">20</text><text fill="#000000" font-family="sans-serif" font-size="17" lengthAdjust="spacing" textLength="124" x="728.5" y="1504.9126">Sync Response</text><polygon fill="#000000" points="1349.5,1540.7109,1359.5,1544.7109,1349.5,1548.7109,1353.5,1544.7109" style="stroke:#000000;stroke-width:1.0;"/><line style="stroke:#000000;stroke-width:1.0;stroke-dasharray:2.0,2.0;" x1="600" x2="1355.5" y1="1544.7109" y2="1544.7109"/><text fill="#000000" font-family="sans-serif" font-size="17" font-weight="bold" lengthAdjust="spacing" textLength="24" x="607" y="1538.7017">21</text><text fill="#000000" font-family="sans-serif" font-size="17" lengthAdjust="spacing" textLength="142" x="635" y="1538.7017">HTTP(S) Forward</text><polygon fill="#000000" points="1588.5,1574.5,1598.5,1578.5,1588.5,1582.5,1592.5,1578.5" style="stroke:#000000;stroke-width:1.0;"/><line style="stroke:#000000;stroke-width:1.0;" x1="1371.5" x2="1594.5" y1="1578.5" y2="1578.5"/><text fill="#000000" font-family="sans-serif" font-size="17" font-weight="bold" lengthAdjust="spacing" textLength="24" x="1378.5" y="1572.4907">22</text><text fill="#000000" font-family="sans-serif" font-size="17" lengthAdjust="spacing" textLength="164" x="1406.5" y="1572.4907">Einladung anzeigen</text><polygon fill="#000000" points="1382.5,1608.2891,1372.5,1612.2891,1382.5,1616.2891,1378.5,1612.2891" style="stroke:#000000;stroke-width:1.0;"/><line style="stroke:#000000;stroke-width:1.0;stroke-dasharray:2.0,2.0;" x1="1376.5" x2="1599.5" y1="1612.2891" y2="1612.2891"/><text fill="#000000" font-family="sans-serif" font-size="17" font-weight="bold" lengthAdjust="spacing" textLength="24" x="1388.5" y="1606.2798">23</text><text fill="#000000" font-family="sans-serif" font-size="17" lengthAdjust="spacing" textLength="177" x="1416.5" y="1606.2798">Einladung best&#228;tigen</text><polygon fill="#000000" points="611,1642.0781,601,1646.0781,611,1650.0781,607,1646.0781" style="stroke:#000000;stroke-width:1.0;"/><line style="stroke:#000000;stroke-width:1.0;" x1="605" x2="1360.5" y1="1646.0781" y2="1646.0781"/><text fill="#000000" font-family="sans-serif" font-size="17" font-weight="bold" lengthAdjust="spacing" textLength="24" x="1295.5" y="1640.0688">24</text><text fill="#000000" font-family="sans-serif" font-size="17" lengthAdjust="spacing" textLength="31" x="1323.5" y="1640.0688">join</text><polygon fill="#000000" points="847.5,1675.8672,857.5,1679.8672,847.5,1683.8672,851.5,1679.8672" style="stroke:#000000;stroke-width:1.0;"/><line style="stroke:#000000;stroke-width:1.0;stroke-dasharray:2.0,2.0;" x1="600" x2="853.5" y1="1679.8672" y2="1679.8672"/><text fill="#000000" font-family="sans-serif" font-size="17" font-weight="bold" lengthAdjust="spacing" textLength="24" x="607" y="1673.8579">25</text><text fill="#000000" font-family="sans-serif" font-size="17" lengthAdjust="spacing" textLength="142" x="635" y="1673.8579">HTTP(S) Forward</text><line style="stroke:#000000;stroke-width:1.0;" x1="869.5" x2="911.5" y1="1713.6563" y2="1713.6563"/><line style="stroke:#000000;stroke-width:1.0;" x1="911.5" x2="911.5" y1="1713.6563" y2="1726.6563"/><line style="stroke:#000000;stroke-width:1.0;" x1="870.5" x2="911.5" y1="1726.6563" y2="1726.6563"/><polygon fill="#000000" points="880.5,1722.6563,870.5,1726.6563,880.5,1730.6563,876.5,1726.6563" style="stroke:#000000;stroke-width:1.0;"/><text fill="#000000" font-family="sans-serif" font-size="17" font-weight="bold" lengthAdjust="spacing" textLength="24" x="876.5" y="1707.647">26</text><text fill="#000000" font-family="sans-serif" font-size="17" lengthAdjust="spacing" textLength="133" x="904.5" y="1707.647">join verarbeiten</text><polygon fill="#000000" points="611,1756.4453,601,1760.4453,611,1764.4453,607,1760.4453" style="stroke:#000000;stroke-width:1.0;"/><line style="stroke:#000000;stroke-width:1.0;stroke-dasharray:2.0,2.0;" x1="605" x2="863.5" y1="1760.4453" y2="1760.4453"/><text fill="#000000" font-family="sans-serif" font-size="17" font-weight="bold" lengthAdjust="spacing" textLength="24" x="756.5" y="1754.436">27</text><text fill="#000000" font-family="sans-serif" font-size="17" lengthAdjust="spacing" textLength="73" x="784.5" y="1754.436">Room ID</text><polygon fill="#000000" points="1349.5,1790.2344,1359.5,1794.2344,1349.5,1798.2344,1353.5,1794.2344" style="stroke:#000000;stroke-width:1.0;"/><line style="stroke:#000000;stroke-width:1.0;stroke-dasharray:2.0,2.0;" x1="595" x2="1355.5" y1="1794.2344" y2="1794.2344"/><text fill="#000000" font-family="sans-serif" font-size="17" font-weight="bold" lengthAdjust="spacing" textLength="24" x="602" y="1788.2251">28</text><text fill="#000000" font-family="sans-serif" font-size="17" lengthAdjust="spacing" textLength="142" x="630" y="1788.2251">HTTP(S) Forward</text><polygon fill="#000000" points="1588.5,1843.8125,1598.5,1847.8125,1588.5,1851.8125,1592.5,1847.8125" style="stroke:#000000;stroke-width:1.0;"/><line style="stroke:#000000;stroke-width:1.0;stroke-dasharray:2.0,2.0;" x1="1366.5" x2="1594.5" y1="1847.8125" y2="1847.8125"/><text fill="#000000" font-family="sans-serif" font-size="17" font-weight="bold" lengthAdjust="spacing" textLength="24" x="1373.5" y="1831.9087">29</text><text fill="#000000" font-family="sans-serif" font-size="17" lengthAdjust="spacing" textLength="123" x="1401.5" y="1822.0142">Nutzer ist dem</text><text fill="#000000" font-family="sans-serif" font-size="17" lengthAdjust="spacing" textLength="152" x="1401.5" y="1841.8032">Raum beigetreten</text><polygon fill="#000000" points="578,1877.6016,588,1881.6016,578,1885.6016,582,1881.6016" style="stroke:#000000;stroke-width:1.0;"/><line style="stroke:#000000;stroke-width:1.0;" x1="350" x2="584" y1="1881.6016" y2="1881.6016"/><text fill="#000000" font-family="sans-serif" font-size="17" font-weight="bold" lengthAdjust="spacing" textLength="24" x="357" y="1875.5923">30</text><text fill="#000000" font-family="sans-serif" font-size="17" lengthAdjust="spacing" textLength="113" x="385" y="1875.5923">Sync Request</text><polygon fill="#000000" points="847.5,1911.3906,857.5,1915.3906,847.5,1919.3906,851.5,1915.3906" style="stroke:#000000;stroke-width:1.0;"/><line style="stroke:#000000;stroke-width:1.0;" x1="600" x2="853.5" y1="1915.3906" y2="1915.3906"/><text fill="#000000" font-family="sans-serif" font-size="17" font-weight="bold" lengthAdjust="spacing" textLength="24" x="607" y="1909.3813">31</text><text fill="#000000" font-family="sans-serif" font-size="17" lengthAdjust="spacing" textLength="142" x="635" y="1909.3813">HTTP(S) Forward</text><polygon fill="#000000" points="611,1945.1797,601,1949.1797,611,1953.1797,607,1949.1797" style="stroke:#000000;stroke-width:1.0;"/><line style="stroke:#000000;stroke-width:1.0;stroke-dasharray:2.0,2.0;" x1="605" x2="863.5" y1="1949.1797" y2="1949.1797"/><text fill="#000000" font-family="sans-serif" font-size="17" font-weight="bold" lengthAdjust="spacing" textLength="24" x="705.5" y="1943.1704">32</text><text fill="#000000" font-family="sans-serif" font-size="17" lengthAdjust="spacing" textLength="124" x="733.5" y="1943.1704">Sync Response</text><polygon fill="#000000" points="361,1978.9688,351,1982.9688,361,1986.9688,357,1982.9688" style="stroke:#000000;stroke-width:1.0;"/><line style="stroke:#000000;stroke-width:1.0;stroke-dasharray:2.0,2.0;" x1="355" x2="594" y1="1982.9688" y2="1982.9688"/><text fill="#000000" font-family="sans-serif" font-size="17" font-weight="bold" lengthAdjust="spacing" textLength="24" x="418" y="1976.9595">33</text><text fill="#000000" font-family="sans-serif" font-size="17" lengthAdjust="spacing" textLength="142" x="446" y="1976.9595">HTTP(S) Forward</text><polygon fill="#000000" points="104,2032.5469,94,2036.5469,104,2040.5469,100,2036.5469" style="stroke:#000000;stroke-width:1.0;"/><line style="stroke:#000000;stroke-width:1.0;stroke-dasharray:2.0,2.0;" x1="98" x2="344" y1="2036.5469" y2="2036.5469"/><text fill="#000000" font-family="sans-serif" font-size="17" font-weight="bold" lengthAdjust="spacing" textLength="24" x="115" y="2020.6431">34</text><text fill="#000000" font-family="sans-serif" font-size="17" lengthAdjust="spacing" textLength="195" x="143" y="2010.7485">Akteur B ist dem Raum</text><text fill="#000000" font-family="sans-serif" font-size="17" lengthAdjust="spacing" textLength="152" x="143" y="2030.5376">Raum beigetreten</text></g></svg>