<?xml version="1.0" encoding="us-ascii" standalone="no"?><svg xmlns="http://www.w3.org/2000/svg" xmlns:xlink="http://www.w3.org/1999/xlink" contentStyleType="text/css" height="2218px" preserveAspectRatio="none" style="width:1831px;height:2218px;background:#FFFFFF;" version="1.1" viewBox="0 0 1831 2218" width="1831px" zoomAndPan="magnify"><defs/><g><rect fill="#F5F5F5" height="2206.3203" style="stroke:#181818;stroke-width:0.5;" width="769.5" x="584" y="6"/><text fill="#000000" font-family="sans-serif" font-size="18" font-weight="bold" lengthAdjust="spacing" textLength="193" x="869.75" y="22.708">Messenger-Service</text><text fill="#000000" font-family="sans-serif" font-size="13" font-weight="bold" lengthAdjust="spacing" textLength="5" x="1062.75" y="23.8872">&#160;</text><rect fill="#DCDCDC" height="1687.8047" style="stroke:#000000;stroke-width:1.0;" width="10" x="380" y="339.9531"/><rect fill="#DCDCDC" height="1580.6484" style="stroke:#000000;stroke-width:1.0;" width="10" x="690" y="393.5313"/><rect fill="#DCDCDC" height="100.3672" style="stroke:#000000;stroke-width:1.0;" width="10" x="959.5" y="427.3203"/><rect fill="#DCDCDC" height="881.3281" style="stroke:#000000;stroke-width:1.0;" width="10" x="959.5" y="1059.0625"/><rect fill="#DCDCDC" height="67.5781" style="stroke:#000000;stroke-width:1.0;" width="10" x="1237.5" y="1251.1875"/><rect fill="#DCDCDC" height="554.0469" style="stroke:#000000;stroke-width:1.0;" width="10" x="1462.5" y="1284.9766"/><rect fill="#F0F8FF" height="326.0703" style="stroke:#000000;stroke-width:1.5;" width="1148.5" x="10" y="268.4063"/><rect fill="#F0F8FF" height="1226.0234" style="stroke:#000000;stroke-width:1.5;" width="1814.5" x="10" y="834.7344"/><rect fill="#F0F8FF" height="1048.1094" style="stroke:none;stroke-width:1.0;" width="1814.5" x="10" y="1012.6484"/><rect fill="#ADD8E6" height="172.125" style="stroke:#000000;stroke-width:1.5;" width="782.5" x="802" y="1179.6406"/><line style="stroke:#000000;stroke-width:0.5;stroke-dasharray:5.0,5.0;" x1="133" x2="133" y1="111.5625" y2="2102.7578"/><line style="stroke:#000000;stroke-width:0.5;stroke-dasharray:5.0,5.0;" x1="385" x2="385" y1="111.5625" y2="2102.7578"/><line style="stroke:#000000;stroke-width:0.5;stroke-dasharray:5.0,5.0;" x1="695" x2="695" y1="111.5625" y2="2102.7578"/><line style="stroke:#000000;stroke-width:0.5;stroke-dasharray:5.0,5.0;" x1="964" x2="964" y1="111.5625" y2="2102.7578"/><line style="stroke:#000000;stroke-width:0.5;stroke-dasharray:5.0,5.0;" x1="1242.5" x2="1242.5" y1="111.5625" y2="2102.7578"/><line style="stroke:#000000;stroke-width:0.5;stroke-dasharray:5.0,5.0;" x1="1467.5" x2="1467.5" y1="111.5625" y2="2102.7578"/><line style="stroke:#000000;stroke-width:0.5;stroke-dasharray:5.0,5.0;" x1="1701.5" x2="1701.5" y1="111.5625" y2="2102.7578"/><text fill="#000000" font-family="sans-serif" font-size="20" lengthAdjust="spacing" textLength="220" x="20" y="83.5645">Akteur - A in der Rolle</text><text fill="#000000" font-family="sans-serif" font-size="20" lengthAdjust="spacing" textLength="45" x="107.5" y="106.8457">User</text><ellipse cx="133" cy="13.5" fill="#DCDCDC" rx="8" ry="8" style="stroke:#000000;stroke-width:0.5;"/><path d="M133,21.5 L133,48.5 M120,29.5 L146,29.5 M133,48.5 L120,63.5 M133,48.5 L146,63.5 " fill="none" style="stroke:#000000;stroke-width:0.5;"/><text fill="#000000" font-family="sans-serif" font-size="20" lengthAdjust="spacing" textLength="220" x="20" y="2120.3223">Akteur - A in der Rolle</text><text fill="#000000" font-family="sans-serif" font-size="20" lengthAdjust="spacing" textLength="45" x="107.5" y="2143.6035">User</text><ellipse cx="133" cy="2156.8203" fill="#DCDCDC" rx="8" ry="8" style="stroke:#000000;stroke-width:0.5;"/><path d="M133,2164.8203 L133,2191.8203 M120,2172.8203 L146,2172.8203 M133,2191.8203 L120,2206.8203 M133,2191.8203 L146,2206.8203 " fill="none" style="stroke:#000000;stroke-width:0.5;"/><rect fill="#F0F8FF" height="60.5625" rx="2.5" ry="2.5" style="stroke:#000000;stroke-width:0.5;" width="214" x="278" y="50"/><text fill="#000000" font-family="sans-serif" font-size="20" lengthAdjust="spacing" textLength="139" x="315.5" y="75.5645">TI-Messenger-</text><text fill="#000000" font-family="sans-serif" font-size="20" lengthAdjust="spacing" textLength="79" x="345.5" y="98.8457">Client A</text><rect fill="#F0F8FF" height="60.5625" rx="2.5" ry="2.5" style="stroke:#000000;stroke-width:0.5;" width="214" x="278" y="2101.7578"/><text fill="#000000" font-family="sans-serif" font-size="20" lengthAdjust="spacing" textLength="139" x="315.5" y="2127.3223">TI-Messenger-</text><text fill="#000000" font-family="sans-serif" font-size="20" lengthAdjust="spacing" textLength="79" x="345.5" y="2150.6035">Client A</text><rect fill="#EFEFFF" height="60.5625" rx="2.5" ry="2.5" style="stroke:#000000;stroke-width:0.5;" width="214" x="588" y="50"/><text fill="#000000" font-family="sans-serif" font-size="20" lengthAdjust="spacing" textLength="114" x="638" y="75.5645">Messenger-</text><text fill="#000000" font-family="sans-serif" font-size="20" lengthAdjust="spacing" textLength="54" x="668" y="98.8457">Proxy</text><rect fill="#EFEFFF" height="60.5625" rx="2.5" ry="2.5" style="stroke:#000000;stroke-width:0.5;" width="214" x="588" y="2101.7578"/><text fill="#000000" font-family="sans-serif" font-size="20" lengthAdjust="spacing" textLength="114" x="638" y="2127.3223">Messenger-</text><text fill="#000000" font-family="sans-serif" font-size="20" lengthAdjust="spacing" textLength="54" x="668" y="2150.6035">Proxy</text><rect fill="#EFEFFF" height="60.5625" rx="2.5" ry="2.5" style="stroke:#000000;stroke-width:0.5;" width="305" x="812" y="50"/><text fill="#000000" font-family="sans-serif" font-size="20" lengthAdjust="spacing" textLength="189" x="867" y="75.5645">Matrix-Homeserver</text><text fill="#000000" font-family="sans-serif" font-size="20" lengthAdjust="spacing" textLength="291" x="819" y="98.8457">(inklusive Nutzerverzeichnis)</text><rect fill="#EFEFFF" height="60.5625" rx="2.5" ry="2.5" style="stroke:#000000;stroke-width:0.5;" width="305" x="812" y="2101.7578"/><text fill="#000000" font-family="sans-serif" font-size="20" lengthAdjust="spacing" textLength="189" x="867" y="2127.3223">Matrix-Homeserver</text><text fill="#000000" font-family="sans-serif" font-size="20" lengthAdjust="spacing" textLength="291" x="819" y="2150.6035">(inklusive Nutzerverzeichnis)</text><rect fill="#EFEFFF" height="37.2813" rx="2.5" ry="2.5" style="stroke:#000000;stroke-width:0.5;" width="214" x="1135.5" y="73.2813"/><text fill="#000000" font-family="sans-serif" font-size="20" lengthAdjust="spacing" textLength="143" x="1171" y="98.8457">Push-Gateway</text><rect fill="#EFEFFF" height="37.2813" rx="2.5" ry="2.5" style="stroke:#000000;stroke-width:0.5;" width="214" x="1135.5" y="2101.7578"/><text fill="#000000" font-family="sans-serif" font-size="20" lengthAdjust="spacing" textLength="143" x="1171" y="2127.3223">Push-Gateway</text><rect fill="#C9FFC9" height="60.5625" rx="2.5" ry="2.5" style="stroke:#000000;stroke-width:0.5;" width="214" x="1360.5" y="50"/><text fill="#000000" font-family="sans-serif" font-size="20" lengthAdjust="spacing" textLength="139" x="1398" y="75.5645">TI-Messenger-</text><text fill="#000000" font-family="sans-serif" font-size="20" lengthAdjust="spacing" textLength="79" x="1428" y="98.8457">Client B</text><rect fill="#C9FFC9" height="60.5625" rx="2.5" ry="2.5" style="stroke:#000000;stroke-width:0.5;" width="214" x="1360.5" y="2101.7578"/><text fill="#000000" font-family="sans-serif" font-size="20" lengthAdjust="spacing" textLength="139" x="1398" y="2127.3223">TI-Messenger-</text><text fill="#000000" font-family="sans-serif" font-size="20" lengthAdjust="spacing" textLength="79" x="1428" y="2150.6035">Client B</text><text fill="#000000" font-family="sans-serif" font-size="20" lengthAdjust="spacing" textLength="220" x="1588.5" y="83.5645">Akteur - B in der Rolle</text><text fill="#000000" font-family="sans-serif" font-size="20" lengthAdjust="spacing" textLength="45" x="1676" y="106.8457">User</text><ellipse cx="1701.5" cy="13.5" fill="#DCDCDC" rx="8" ry="8" style="stroke:#000000;stroke-width:0.5;"/><path d="M1701.5,21.5 L1701.5,48.5 M1688.5,29.5 L1714.5,29.5 M1701.5,48.5 L1688.5,63.5 M1701.5,48.5 L1714.5,63.5 " fill="none" style="stroke:#000000;stroke-width:0.5;"/><text fill="#000000" font-family="sans-serif" font-size="20" lengthAdjust="spacing" textLength="220" x="1588.5" y="2120.3223">Akteur - B in der Rolle</text><text fill="#000000" font-family="sans-serif" font-size="20" lengthAdjust="spacing" textLength="45" x="1676" y="2143.6035">User</text><ellipse cx="1701.5" cy="2156.8203" fill="#DCDCDC" rx="8" ry="8" style="stroke:#000000;stroke-width:0.5;"/><path d="M1701.5,2164.8203 L1701.5,2191.8203 M1688.5,2172.8203 L1714.5,2172.8203 M1701.5,2191.8203 L1688.5,2206.8203 M1701.5,2191.8203 L1714.5,2206.8203 " fill="none" style="stroke:#000000;stroke-width:0.5;"/><rect fill="#DCDCDC" height="1687.8047" style="stroke:#000000;stroke-width:1.0;" width="10" x="380" y="339.9531"/><rect fill="#DCDCDC" height="1580.6484" style="stroke:#000000;stroke-width:1.0;" width="10" x="690" y="393.5313"/><rect fill="#DCDCDC" height="100.3672" style="stroke:#000000;stroke-width:1.0;" width="10" x="959.5" y="427.3203"/><rect fill="#DCDCDC" height="881.3281" style="stroke:#000000;stroke-width:1.0;" width="10" x="959.5" y="1059.0625"/><rect fill="#DCDCDC" height="67.5781" style="stroke:#000000;stroke-width:1.0;" width="10" x="1237.5" y="1251.1875"/><rect fill="#DCDCDC" height="554.0469" style="stroke:#000000;stroke-width:1.0;" width="10" x="1462.5" y="1284.9766"/><path d="M22,151.5625 L22,230.5625 L1811,230.5625 L1811,161.5625 L1801,151.5625 L22,151.5625 " fill="#FEFFDD" style="stroke:#181818;stroke-width:0.5;"/><path d="M1801,151.5625 L1801,161.5625 L1811,161.5625 L1801,151.5625 " fill="#FEFFDD" style="stroke:#181818;stroke-width:0.5;"/><text fill="#000000" font-family="sans-serif" font-size="13" lengthAdjust="spacing" textLength="4" x="408.75" y="168.6294">&#160;</text><text fill="#000000" font-family="sans-serif" font-size="17" lengthAdjust="spacing" textLength="1007" x="408.75" y="187.4751">Die Akteure sind auf dem selben Messenger-Service angemeldet und im Besitz eines zugelassenen TI-Messenger-Clients.</text><text fill="#000000" font-family="sans-serif" font-size="17" lengthAdjust="spacing" textLength="473" x="408.75" y="207.2642">Ein Chatraum wurde durch den Einladenen eingerichtet.</text><text fill="#000000" font-family="sans-serif" font-size="13" lengthAdjust="spacing" textLength="4" x="408.75" y="223.3403">&#160;</text><path d="M10,268.4063 L80,268.4063 L80,275.5391 L70,285.5391 L10,285.5391 L10,268.4063 " fill="#D3D3D3" style="stroke:#000000;stroke-width:1.5;"/><rect fill="none" height="326.0703" style="stroke:#000000;stroke-width:1.5;" width="1148.5" x="10" y="268.4063"/><text fill="#000000" font-family="sans-serif" font-size="13" font-weight="bold" lengthAdjust="spacing" textLength="25" x="25" y="281.4731">opt</text><text fill="#000000" font-family="sans-serif" font-size="11" font-weight="bold" lengthAdjust="spacing" textLength="5" x="95" y="286.437">[</text><text fill="#000000" font-family="sans-serif" font-size="16" font-weight="bold" lengthAdjust="spacing" textLength="131" x="100" y="285.2578">Akteur suchen</text><text fill="#000000" font-family="sans-serif" font-size="11" font-weight="bold" lengthAdjust="spacing" textLength="5" x="231" y="286.437">]</text><polygon fill="#000000" points="368,335.9531,378,339.9531,368,343.9531,372,339.9531" style="stroke:#000000;stroke-width:1.0;"/><line style="stroke:#000000;stroke-width:1.0;" x1="133" x2="374" y1="339.9531" y2="339.9531"/><text fill="#000000" font-family="sans-serif" font-size="17" font-weight="bold" lengthAdjust="spacing" textLength="12" x="140" y="333.9438">1</text><text fill="#000000" font-family="sans-serif" font-size="17" lengthAdjust="spacing" textLength="129" x="156" y="333.9438">Suche Akteur B</text><polygon fill="#000000" points="678,389.5313,688,393.5313,678,397.5313,682,393.5313" style="stroke:#000000;stroke-width:1.0;"/><line style="stroke:#000000;stroke-width:1.0;" x1="390" x2="684" y1="393.5313" y2="393.5313"/><text fill="#000000" font-family="sans-serif" font-size="17" font-weight="bold" lengthAdjust="spacing" textLength="12" x="397" y="377.6274">2</text><text fill="#000000" font-family="sans-serif" font-size="17" lengthAdjust="spacing" textLength="178" x="413" y="367.7329">POST /_matrix/client/</text><text fill="#000000" font-family="sans-serif" font-size="17" lengthAdjust="spacing" textLength="179" x="413" y="387.522">user_directory/search</text><polygon fill="#000000" points="947.5,423.3203,957.5,427.3203,947.5,431.3203,951.5,427.3203" style="stroke:#000000;stroke-width:1.0;"/><line style="stroke:#000000;stroke-width:1.0;" x1="700" x2="953.5" y1="427.3203" y2="427.3203"/><text fill="#000000" font-family="sans-serif" font-size="17" font-weight="bold" lengthAdjust="spacing" textLength="12" x="707" y="421.311">3</text><text fill="#000000" font-family="sans-serif" font-size="17" lengthAdjust="spacing" textLength="142" x="723" y="421.311">HTTP(S) Forward</text><line style="stroke:#000000;stroke-width:1.0;stroke-dasharray:2.0,2.0;" x1="969.5" x2="1011.5" y1="480.8984" y2="480.8984"/><line style="stroke:#000000;stroke-width:1.0;stroke-dasharray:2.0,2.0;" x1="1011.5" x2="1011.5" y1="480.8984" y2="493.8984"/><line style="stroke:#000000;stroke-width:1.0;stroke-dasharray:2.0,2.0;" x1="970.5" x2="1011.5" y1="493.8984" y2="493.8984"/><polygon fill="#000000" points="980.5,489.8984,970.5,493.8984,980.5,497.8984,976.5,493.8984" style="stroke:#000000;stroke-width:1.0;"/><text fill="#000000" font-family="sans-serif" font-size="17" font-weight="bold" lengthAdjust="spacing" textLength="12" x="976.5" y="464.9946">4</text><text fill="#000000" font-family="sans-serif" font-size="17" lengthAdjust="spacing" textLength="149" x="992.5" y="455.1001">Nutzerverzeichnis</text><text fill="#000000" font-family="sans-serif" font-size="17" lengthAdjust="spacing" textLength="106" x="992.5" y="474.8892">durchsuchen</text><polygon fill="#000000" points="711,523.6875,701,527.6875,711,531.6875,707,527.6875" style="stroke:#000000;stroke-width:1.0;"/><line style="stroke:#000000;stroke-width:1.0;stroke-dasharray:2.0,2.0;" x1="705" x2="963.5" y1="527.6875" y2="527.6875"/><text fill="#000000" font-family="sans-serif" font-size="17" font-weight="bold" lengthAdjust="spacing" textLength="12" x="894.5" y="521.6782">5</text><text fill="#000000" font-family="sans-serif" font-size="17" lengthAdjust="spacing" textLength="47" x="910.5" y="521.6782">MXID</text><polygon fill="#000000" points="401,557.4766,391,561.4766,401,565.4766,397,561.4766" style="stroke:#000000;stroke-width:1.0;"/><line style="stroke:#000000;stroke-width:1.0;stroke-dasharray:2.0,2.0;" x1="395" x2="689" y1="561.4766" y2="561.4766"/><text fill="#000000" font-family="sans-serif" font-size="17" font-weight="bold" lengthAdjust="spacing" textLength="12" x="525" y="555.4673">6</text><text fill="#000000" font-family="sans-serif" font-size="17" lengthAdjust="spacing" textLength="142" x="541" y="555.4673">HTTP(S) Forward</text><polygon fill="#000000" points="368,648.2656,378,652.2656,368,656.2656,372,652.2656" style="stroke:#000000;stroke-width:1.0;"/><line style="stroke:#000000;stroke-width:1.0;" x1="133" x2="374" y1="652.2656" y2="652.2656"/><text fill="#000000" font-family="sans-serif" font-size="17" font-weight="bold" lengthAdjust="spacing" textLength="12" x="140" y="646.2563">7</text><text fill="#000000" font-family="sans-serif" font-size="17" lengthAdjust="spacing" textLength="150" x="156" y="646.2563">Akteur B einladen</text><polygon fill="#000000" points="678,701.8438,688,705.8438,678,709.8438,682,705.8438" style="stroke:#000000;stroke-width:1.0;"/><line style="stroke:#000000;stroke-width:1.0;" x1="390" x2="684" y1="705.8438" y2="705.8438"/><text fill="#000000" font-family="sans-serif" font-size="17" font-weight="bold" lengthAdjust="spacing" textLength="12" x="397" y="689.9399">8</text><text fill="#000000" font-family="sans-serif" font-size="17" lengthAdjust="spacing" textLength="260" x="413" y="680.0454">POST /_matrix/client/r0/rooms/</text><text fill="#000000" font-family="sans-serif" font-size="17" lengthAdjust="spacing" textLength="215" x="413" y="699.8345">{roomId}/invite (roomId)</text><rect fill="none" height="58.8906" style="stroke:#000000;stroke-width:1.5;" width="535" x="585" y="738.8438"/><path d="M585,738.8438 L651,738.8438 L651,745.8438 L641,755.8438 L585,755.8438 L585,738.8438 " fill="#98FB98" style="stroke:#000000;stroke-width:2.0;"/><text fill="#000000" font-family="sans-serif" font-size="13" font-weight="bold" lengthAdjust="spacing" textLength="21" x="598" y="752.9106">ref</text><text fill="#000000" font-family="sans-serif" font-size="17" font-weight="bold" lengthAdjust="spacing" textLength="207" x="749" y="775.6235">Berechtigungspr&#252;fung</text><text fill="#000000" font-family="sans-serif" font-size="12" lengthAdjust="spacing" textLength="4" x="850.5" y="790.7715">&#160;</text><path d="M10,834.7344 L74,834.7344 L74,841.8672 L64,851.8672 L10,851.8672 L10,834.7344 " fill="#D3D3D3" style="stroke:#000000;stroke-width:1.5;"/><rect fill="none" height="1226.0234" style="stroke:#000000;stroke-width:1.5;" width="1814.5" x="10" y="834.7344"/><text fill="#000000" font-family="sans-serif" font-size="13" font-weight="bold" lengthAdjust="spacing" textLength="19" x="25" y="847.8013">alt</text><text fill="#000000" font-family="sans-serif" font-size="11" font-weight="bold" lengthAdjust="spacing" textLength="5" x="89" y="852.7651">[</text><text fill="#000000" font-family="sans-serif" font-size="16" font-weight="bold" lengthAdjust="spacing" textLength="427" x="94" y="851.5859">Matrix-Domain nicht in der F&#246;deration enthalten</text><text fill="#000000" font-family="sans-serif" font-size="11" font-weight="bold" lengthAdjust="spacing" textLength="5" x="521" y="852.7651">]</text><polygon fill="#000000" points="401,922.0703,391,926.0703,401,930.0703,397,926.0703" style="stroke:#000000;stroke-width:1.0;"/><line style="stroke:#000000;stroke-width:1.0;stroke-dasharray:2.0,2.0;" x1="395" x2="689" y1="926.0703" y2="926.0703"/><text fill="#000000" font-family="sans-serif" font-size="17" font-weight="bold" lengthAdjust="spacing" textLength="12" x="554" y="910.1665">9</text><text fill="#000000" font-family="sans-serif" font-size="17" lengthAdjust="spacing" textLength="81" x="570" y="900.272">HTTP 401</text><text fill="#000000" font-family="sans-serif" font-size="17" lengthAdjust="spacing" textLength="113" x="570" y="920.061">Unauthorized</text><polygon fill="#000000" points="144,975.6484,134,979.6484,144,983.6484,140,979.6484" style="stroke:#000000;stroke-width:1.0;"/><line style="stroke:#000000;stroke-width:1.0;stroke-dasharray:2.0,2.0;" x1="138" x2="379" y1="979.6484" y2="979.6484"/><text fill="#000000" font-family="sans-serif" font-size="17" font-weight="bold" lengthAdjust="spacing" textLength="24" x="209" y="963.7446">10</text><text fill="#000000" font-family="sans-serif" font-size="17" lengthAdjust="spacing" textLength="131" x="237" y="953.8501">Einladung nicht</text><text fill="#000000" font-family="sans-serif" font-size="17" lengthAdjust="spacing" textLength="89" x="237" y="973.6392">erfolgreich</text><line style="stroke:#000000;stroke-width:1.0;stroke-dasharray:2.0,2.0;" x1="10" x2="1824.5" y1="1013.6484" y2="1013.6484"/><text fill="#000000" font-family="sans-serif" font-size="11" font-weight="bold" lengthAdjust="spacing" textLength="5" x="15" y="1029.6792">[</text><text fill="#000000" font-family="sans-serif" font-size="16" font-weight="bold" lengthAdjust="spacing" textLength="377" x="20" y="1028.5">Matrix-Domain in der F&#246;deration enthalten</text><text fill="#000000" font-family="sans-serif" font-size="11" font-weight="bold" lengthAdjust="spacing" textLength="5" x="397" y="1029.6792">]</text><polygon fill="#000000" points="947.5,1055.0625,957.5,1059.0625,947.5,1063.0625,951.5,1059.0625" style="stroke:#000000;stroke-width:1.0;"/><line style="stroke:#000000;stroke-width:1.0;" x1="700" x2="953.5" y1="1059.0625" y2="1059.0625"/><text fill="#000000" font-family="sans-serif" font-size="17" font-weight="bold" lengthAdjust="spacing" textLength="24" x="707" y="1053.0532">11</text><text fill="#000000" font-family="sans-serif" font-size="17" lengthAdjust="spacing" textLength="142" x="735" y="1053.0532">HTTP(S) Forward</text><line style="stroke:#000000;stroke-width:1.0;" x1="969.5" x2="1011.5" y1="1092.8516" y2="1092.8516"/><line style="stroke:#000000;stroke-width:1.0;" x1="1011.5" x2="1011.5" y1="1092.8516" y2="1105.8516"/><line style="stroke:#000000;stroke-width:1.0;" x1="970.5" x2="1011.5" y1="1105.8516" y2="1105.8516"/><polygon fill="#000000" points="980.5,1101.8516,970.5,1105.8516,980.5,1109.8516,976.5,1105.8516" style="stroke:#000000;stroke-width:1.0;"/><text fill="#000000" font-family="sans-serif" font-size="17" font-weight="bold" lengthAdjust="spacing" textLength="24" x="976.5" y="1086.8423">12</text><text fill="#000000" font-family="sans-serif" font-size="17" lengthAdjust="spacing" textLength="151" x="1004.5" y="1086.8423">Invite verarbeiten</text><polygon fill="#000000" points="401,1135.6406,391,1139.6406,401,1143.6406,397,1139.6406" style="stroke:#000000;stroke-width:1.0;"/><line style="stroke:#000000;stroke-width:1.0;stroke-dasharray:2.0,2.0;" x1="395" x2="958.5" y1="1139.6406" y2="1139.6406"/><text fill="#000000" font-family="sans-serif" font-size="17" font-weight="bold" lengthAdjust="spacing" textLength="24" x="843.5" y="1133.6313">13</text><text fill="#000000" font-family="sans-serif" font-size="17" lengthAdjust="spacing" textLength="81" x="871.5" y="1133.6313">HTTP 200</text><path d="M802,1179.6406 L872,1179.6406 L872,1186.7734 L862,1196.7734 L802,1196.7734 L802,1179.6406 " fill="#D3D3D3" style="stroke:#000000;stroke-width:1.5;"/><rect fill="none" height="172.125" style="stroke:#000000;stroke-width:1.5;" width="782.5" x="802" y="1179.6406"/><text fill="#000000" font-family="sans-serif" font-size="13" font-weight="bold" lengthAdjust="spacing" textLength="25" x="817" y="1192.7075">opt</text><text fill="#000000" font-family="sans-serif" font-size="11" font-weight="bold" lengthAdjust="spacing" textLength="5" x="887" y="1197.6714">[</text><text fill="#000000" font-family="sans-serif" font-size="16" font-weight="bold" lengthAdjust="spacing" textLength="205" x="892" y="1196.4922">Push-Benachrichtigung</text><text fill="#000000" font-family="sans-serif" font-size="11" font-weight="bold" lengthAdjust="spacing" textLength="5" x="1097" y="1197.6714">]</text><polygon fill="#000000" points="1225.5,1247.1875,1235.5,1251.1875,1225.5,1255.1875,1229.5,1251.1875" style="stroke:#000000;stroke-width:1.0;"/><line style="stroke:#000000;stroke-width:1.0;" x1="969.5" x2="1231.5" y1="1251.1875" y2="1251.1875"/><text fill="#000000" font-family="sans-serif" font-size="17" font-weight="bold" lengthAdjust="spacing" textLength="24" x="976.5" y="1245.1782">14</text><text fill="#000000" font-family="sans-serif" font-size="17" lengthAdjust="spacing" textLength="221" x="1004.5" y="1245.1782">POST /_matrix/push/notify</text><polygon fill="#000000" points="1450.5,1280.9766,1460.5,1284.9766,1450.5,1288.9766,1454.5,1284.9766" style="stroke:#000000;stroke-width:1.0;"/><line style="stroke:#000000;stroke-width:1.0;" x1="1247.5" x2="1456.5" y1="1284.9766" y2="1284.9766"/><text fill="#000000" font-family="sans-serif" font-size="17" font-weight="bold" lengthAdjust="spacing" textLength="24" x="1254.5" y="1278.9673">15</text><text fill="#000000" font-family="sans-serif" font-size="17" lengthAdjust="spacing" textLength="97" x="1282.5" y="1278.9673">Notification</text><polygon fill="#000000" points="980.5,1314.7656,970.5,1318.7656,980.5,1322.7656,976.5,1318.7656" style="stroke:#000000;stroke-width:1.0;"/><line style="stroke:#000000;stroke-width:1.0;stroke-dasharray:2.0,2.0;" x1="974.5" x2="1241.5" y1="1318.7656" y2="1318.7656"/><text fill="#000000" font-family="sans-serif" font-size="17" font-weight="bold" lengthAdjust="spacing" textLength="24" x="1153.5" y="1312.7563">16</text><text fill="#000000" font-family="sans-serif" font-size="17" lengthAdjust="spacing" textLength="54" x="1181.5" y="1312.7563">Status</text><polygon fill="#000000" points="711,1405.5547,701,1409.5547,711,1413.5547,707,1409.5547" style="stroke:#000000;stroke-width:1.0;"/><line style="stroke:#000000;stroke-width:1.0;" x1="705" x2="1461.5" y1="1409.5547" y2="1409.5547"/><text fill="#000000" font-family="sans-serif" font-size="17" font-weight="bold" lengthAdjust="spacing" textLength="24" x="1314.5" y="1403.5454">17</text><text fill="#000000" font-family="sans-serif" font-size="17" lengthAdjust="spacing" textLength="113" x="1342.5" y="1403.5454">Sync Request</text><polygon fill="#000000" points="947.5,1439.3438,957.5,1443.3438,947.5,1447.3438,951.5,1443.3438" style="stroke:#000000;stroke-width:1.0;"/><line style="stroke:#000000;stroke-width:1.0;" x1="700" x2="953.5" y1="1443.3438" y2="1443.3438"/><text fill="#000000" font-family="sans-serif" font-size="17" font-weight="bold" lengthAdjust="spacing" textLength="24" x="707" y="1437.3345">18</text><text fill="#000000" font-family="sans-serif" font-size="17" lengthAdjust="spacing" textLength="142" x="735" y="1437.3345">HTTP(S) Forward</text><polygon fill="#000000" points="711,1473.1328,701,1477.1328,711,1481.1328,707,1477.1328" style="stroke:#000000;stroke-width:1.0;"/><line style="stroke:#000000;stroke-width:1.0;stroke-dasharray:2.0,2.0;" x1="705" x2="958.5" y1="1477.1328" y2="1477.1328"/><text fill="#000000" font-family="sans-serif" font-size="17" font-weight="bold" lengthAdjust="spacing" textLength="24" x="800.5" y="1471.1235">19</text><text fill="#000000" font-family="sans-serif" font-size="17" lengthAdjust="spacing" textLength="124" x="828.5" y="1471.1235">Sync Response</text><polygon fill="#000000" points="1450.5,1506.9219,1460.5,1510.9219,1450.5,1514.9219,1454.5,1510.9219" style="stroke:#000000;stroke-width:1.0;"/><line style="stroke:#000000;stroke-width:1.0;stroke-dasharray:2.0,2.0;" x1="700" x2="1456.5" y1="1510.9219" y2="1510.9219"/><text fill="#000000" font-family="sans-serif" font-size="17" font-weight="bold" lengthAdjust="spacing" textLength="24" x="707" y="1504.9126">20</text><text fill="#000000" font-family="sans-serif" font-size="17" lengthAdjust="spacing" textLength="142" x="735" y="1504.9126">HTTP(S) Forward</text><polygon fill="#000000" points="1689.5,1540.7109,1699.5,1544.7109,1689.5,1548.7109,1693.5,1544.7109" style="stroke:#000000;stroke-width:1.0;"/><line style="stroke:#000000;stroke-width:1.0;" x1="1472.5" x2="1695.5" y1="1544.7109" y2="1544.7109"/><text fill="#000000" font-family="sans-serif" font-size="17" font-weight="bold" lengthAdjust="spacing" textLength="24" x="1479.5" y="1538.7017">21</text><text fill="#000000" font-family="sans-serif" font-size="17" lengthAdjust="spacing" textLength="164" x="1507.5" y="1538.7017">Einladung anzeigen</text><polygon fill="#000000" points="1483.5,1574.5,1473.5,1578.5,1483.5,1582.5,1479.5,1578.5" style="stroke:#000000;stroke-width:1.0;"/><line style="stroke:#000000;stroke-width:1.0;stroke-dasharray:2.0,2.0;" x1="1477.5" x2="1700.5" y1="1578.5" y2="1578.5"/><text fill="#000000" font-family="sans-serif" font-size="17" font-weight="bold" lengthAdjust="spacing" textLength="24" x="1489.5" y="1572.4907">22</text><text fill="#000000" font-family="sans-serif" font-size="17" lengthAdjust="spacing" textLength="177" x="1517.5" y="1572.4907">Einladung best&#228;tigen</text><polygon fill="#000000" points="711,1608.2891,701,1612.2891,711,1616.2891,707,1612.2891" style="stroke:#000000;stroke-width:1.0;"/><line style="stroke:#000000;stroke-width:1.0;" x1="705" x2="1461.5" y1="1612.2891" y2="1612.2891"/><text fill="#000000" font-family="sans-serif" font-size="17" font-weight="bold" lengthAdjust="spacing" textLength="24" x="1396.5" y="1606.2798">23</text><text fill="#000000" font-family="sans-serif" font-size="17" lengthAdjust="spacing" textLength="31" x="1424.5" y="1606.2798">join</text><polygon fill="#000000" points="947.5,1667.0781,957.5,1671.0781,947.5,1675.0781,951.5,1671.0781" style="stroke:#000000;stroke-width:1.0;"/><line style="stroke:#000000;stroke-width:1.0;stroke-dasharray:2.0,2.0;" x1="700" x2="953.5" y1="1671.0781" y2="1671.0781"/><text fill="#000000" font-family="sans-serif" font-size="17" font-weight="bold" lengthAdjust="spacing" textLength="24" x="707" y="1665.0688">24</text><text fill="#000000" font-family="sans-serif" font-size="17" lengthAdjust="spacing" textLength="142" x="735" y="1665.0688">HTTP(S) Forward</text><line style="stroke:#000000;stroke-width:1.0;" x1="969.5" x2="1011.5" y1="1704.8672" y2="1704.8672"/><line style="stroke:#000000;stroke-width:1.0;" x1="1011.5" x2="1011.5" y1="1704.8672" y2="1717.8672"/><line style="stroke:#000000;stroke-width:1.0;" x1="970.5" x2="1011.5" y1="1717.8672" y2="1717.8672"/><polygon fill="#000000" points="980.5,1713.8672,970.5,1717.8672,980.5,1721.8672,976.5,1717.8672" style="stroke:#000000;stroke-width:1.0;"/><text fill="#000000" font-family="sans-serif" font-size="17" font-weight="bold" lengthAdjust="spacing" textLength="24" x="976.5" y="1698.8579">25</text><text fill="#000000" font-family="sans-serif" font-size="17" lengthAdjust="spacing" textLength="133" x="1004.5" y="1698.8579">join verarbeiten</text><polygon fill="#000000" points="711,1747.6563,701,1751.6563,711,1755.6563,707,1751.6563" style="stroke:#000000;stroke-width:1.0;"/><line style="stroke:#000000;stroke-width:1.0;stroke-dasharray:2.0,2.0;" x1="705" x2="958.5" y1="1751.6563" y2="1751.6563"/><text fill="#000000" font-family="sans-serif" font-size="17" font-weight="bold" lengthAdjust="spacing" textLength="24" x="851.5" y="1745.647">26</text><text fill="#000000" font-family="sans-serif" font-size="17" lengthAdjust="spacing" textLength="73" x="879.5" y="1745.647">Room ID</text><polygon fill="#000000" points="1450.5,1781.4453,1460.5,1785.4453,1450.5,1789.4453,1454.5,1785.4453" style="stroke:#000000;stroke-width:1.0;"/><line style="stroke:#000000;stroke-width:1.0;stroke-dasharray:2.0,2.0;" x1="700" x2="1456.5" y1="1785.4453" y2="1785.4453"/><text fill="#000000" font-family="sans-serif" font-size="17" font-weight="bold" lengthAdjust="spacing" textLength="24" x="707" y="1779.436">27</text><text fill="#000000" font-family="sans-serif" font-size="17" lengthAdjust="spacing" textLength="142" x="735" y="1779.436">HTTP(S) Forward</text><polygon fill="#000000" points="1689.5,1835.0234,1699.5,1839.0234,1689.5,1843.0234,1693.5,1839.0234" style="stroke:#000000;stroke-width:1.0;"/><line style="stroke:#000000;stroke-width:1.0;stroke-dasharray:2.0,2.0;" x1="1467.5" x2="1695.5" y1="1839.0234" y2="1839.0234"/><text fill="#000000" font-family="sans-serif" font-size="17" font-weight="bold" lengthAdjust="spacing" textLength="24" x="1474.5" y="1823.1196">28</text><text fill="#000000" font-family="sans-serif" font-size="17" lengthAdjust="spacing" textLength="123" x="1502.5" y="1813.2251">Nutzer ist dem</text><text fill="#000000" font-family="sans-serif" font-size="17" lengthAdjust="spacing" textLength="152" x="1502.5" y="1833.0142">Raum beigetreten</text><polygon fill="#000000" points="678,1868.8125,688,1872.8125,678,1876.8125,682,1872.8125" style="stroke:#000000;stroke-width:1.0;"/><line style="stroke:#000000;stroke-width:1.0;" x1="390" x2="684" y1="1872.8125" y2="1872.8125"/><text fill="#000000" font-family="sans-serif" font-size="17" font-weight="bold" lengthAdjust="spacing" textLength="24" x="397" y="1866.8032">29</text><text fill="#000000" font-family="sans-serif" font-size="17" lengthAdjust="spacing" textLength="113" x="425" y="1866.8032">Sync Request</text><polygon fill="#000000" points="947.5,1902.6016,957.5,1906.6016,947.5,1910.6016,951.5,1906.6016" style="stroke:#000000;stroke-width:1.0;"/><line style="stroke:#000000;stroke-width:1.0;" x1="700" x2="953.5" y1="1906.6016" y2="1906.6016"/><text fill="#000000" font-family="sans-serif" font-size="17" font-weight="bold" lengthAdjust="spacing" textLength="24" x="707" y="1900.5923">30</text><text fill="#000000" font-family="sans-serif" font-size="17" lengthAdjust="spacing" textLength="142" x="735" y="1900.5923">HTTP(S) Forward</text><polygon fill="#000000" points="711,1936.3906,701,1940.3906,711,1944.3906,707,1940.3906" style="stroke:#000000;stroke-width:1.0;"/><line style="stroke:#000000;stroke-width:1.0;stroke-dasharray:2.0,2.0;" x1="705" x2="963.5" y1="1940.3906" y2="1940.3906"/><text fill="#000000" font-family="sans-serif" font-size="17" font-weight="bold" lengthAdjust="spacing" textLength="24" x="805.5" y="1934.3813">31</text><text fill="#000000" font-family="sans-serif" font-size="17" lengthAdjust="spacing" textLength="124" x="833.5" y="1934.3813">Sync Response</text><polygon fill="#000000" points="401,1970.1797,391,1974.1797,401,1978.1797,397,1974.1797" style="stroke:#000000;stroke-width:1.0;"/><line style="stroke:#000000;stroke-width:1.0;stroke-dasharray:2.0,2.0;" x1="395" x2="694" y1="1974.1797" y2="1974.1797"/><text fill="#000000" font-family="sans-serif" font-size="17" font-weight="bold" lengthAdjust="spacing" textLength="24" x="518" y="1968.1704">32</text><text fill="#000000" font-family="sans-serif" font-size="17" lengthAdjust="spacing" textLength="142" x="546" y="1968.1704">HTTP(S) Forward</text><polygon fill="#000000" points="144,2023.7578,134,2027.7578,144,2031.7578,140,2027.7578" style="stroke:#000000;stroke-width:1.0;"/><line style="stroke:#000000;stroke-width:1.0;stroke-dasharray:2.0,2.0;" x1="138" x2="384" y1="2027.7578" y2="2027.7578"/><text fill="#000000" font-family="sans-serif" font-size="17" font-weight="bold" lengthAdjust="spacing" textLength="24" x="155" y="2011.854">33</text><text fill="#000000" font-family="sans-serif" font-size="17" lengthAdjust="spacing" textLength="195" x="183" y="2001.9595">Akteur B ist dem Raum</text><text fill="#000000" font-family="sans-serif" font-size="17" lengthAdjust="spacing" textLength="152" x="183" y="2021.7485">Raum beigetreten</text></g></svg>