<?xml version="1.0" encoding="us-ascii" standalone="no"?><svg xmlns="http://www.w3.org/2000/svg" xmlns:xlink="http://www.w3.org/1999/xlink" contentStyleType="text/css" height="1296px" preserveAspectRatio="none" style="width:1684px;height:1296px;background:#FFFFFF;" version="1.1" viewBox="0 0 1684 1296" width="1684px" zoomAndPan="magnify"><defs/><g><rect fill="#F5F5F5" height="1284.0859" style="stroke:#181818;stroke-width:0.5;" width="761" x="462" y="6"/><text fill="#000000" font-family="sans-serif" font-size="18" font-weight="bold" lengthAdjust="spacing" textLength="193" x="743.5" y="22.708">Messenger-Service</text><text fill="#000000" font-family="sans-serif" font-size="13" font-weight="bold" lengthAdjust="spacing" textLength="5" x="936.5" y="23.8872">&#160;</text><rect fill="#F0F8FF" height="830.5391" style="stroke:#000000;stroke-width:1.0;" width="10" x="343" y="306.9844"/><rect fill="#DCDCDC" height="762.9609" style="stroke:#000000;stroke-width:1.0;" width="10" x="568" y="340.7734"/><rect fill="#DCDCDC" height="602.8047" style="stroke:#000000;stroke-width:1.0;" width="10" x="837.5" y="374.5625"/><rect fill="#DCDCDC" height="67.5781" style="stroke:#000000;stroke-width:1.0;" width="10" x="1107" y="552.6875"/><rect fill="#C9FFC9" height="305.3125" style="stroke:#000000;stroke-width:1.0;" width="10" x="1332" y="764.6328"/><rect fill="#F0F8FF" height="172.125" style="stroke:#000000;stroke-width:1.5;" width="774" x="680" y="481.1406"/><line style="stroke:#000000;stroke-width:0.5;stroke-dasharray:5.0,5.0;" x1="118" x2="118" y1="111.5625" y2="1180.5234"/><line style="stroke:#000000;stroke-width:0.5;stroke-dasharray:5.0,5.0;" x1="348" x2="348" y1="111.5625" y2="1180.5234"/><line style="stroke:#000000;stroke-width:0.5;stroke-dasharray:5.0,5.0;" x1="573" x2="573" y1="111.5625" y2="1180.5234"/><line style="stroke:#000000;stroke-width:0.5;stroke-dasharray:5.0,5.0;" x1="842" x2="842" y1="111.5625" y2="1180.5234"/><line style="stroke:#000000;stroke-width:0.5;stroke-dasharray:5.0,5.0;" x1="1112" x2="1112" y1="111.5625" y2="1180.5234"/><line style="stroke:#000000;stroke-width:0.5;stroke-dasharray:5.0,5.0;" x1="1337" x2="1337" y1="111.5625" y2="1180.5234"/><line style="stroke:#000000;stroke-width:0.5;stroke-dasharray:5.0,5.0;" x1="1567" x2="1567" y1="111.5625" y2="1180.5234"/><text fill="#000000" font-family="Aapex" font-size="20" lengthAdjust="spacing" textLength="220" x="5" y="83.5645">Akteur - A in der Rolle</text><text fill="#000000" font-family="Aapex" font-size="20" lengthAdjust="spacing" textLength="159" x="35.5" y="106.8457">User / User-HBA</text><ellipse cx="118" cy="13.5" fill="#DCDCDC" rx="8" ry="8" style="stroke:#000000;stroke-width:0.5;"/><path d="M118,21.5 L118,48.5 M105,29.5 L131,29.5 M118,48.5 L105,63.5 M118,48.5 L131,63.5 " fill="none" style="stroke:#000000;stroke-width:0.5;"/><text fill="#000000" font-family="Aapex" font-size="20" lengthAdjust="spacing" textLength="220" x="5" y="1198.0879">Akteur - A in der Rolle</text><text fill="#000000" font-family="Aapex" font-size="20" lengthAdjust="spacing" textLength="159" x="35.5" y="1221.3691">User / User-HBA</text><ellipse cx="118" cy="1234.5859" fill="#DCDCDC" rx="8" ry="8" style="stroke:#000000;stroke-width:0.5;"/><path d="M118,1242.5859 L118,1269.5859 M105,1250.5859 L131,1250.5859 M118,1269.5859 L105,1284.5859 M118,1269.5859 L131,1284.5859 " fill="none" style="stroke:#000000;stroke-width:0.5;"/><rect fill="#F0F8FF" height="60.5625" rx="2.5" ry="2.5" style="stroke:#000000;stroke-width:0.5;" width="214" x="241" y="50"/><text fill="#000000" font-family="Impact" font-size="20" lengthAdjust="spacing" textLength="139" x="278.5" y="75.5645">TI-Messenger-</text><text fill="#000000" font-family="Impact" font-size="20" lengthAdjust="spacing" textLength="79" x="308.5" y="98.8457">Client A</text><rect fill="#F0F8FF" height="60.5625" rx="2.5" ry="2.5" style="stroke:#000000;stroke-width:0.5;" width="214" x="241" y="1179.5234"/><text fill="#000000" font-family="Impact" font-size="20" lengthAdjust="spacing" textLength="139" x="278.5" y="1205.0879">TI-Messenger-</text><text fill="#000000" font-family="Impact" font-size="20" lengthAdjust="spacing" textLength="79" x="308.5" y="1228.3691">Client A</text><rect fill="#EFEFFF" height="60.5625" rx="2.5" ry="2.5" style="stroke:#000000;stroke-width:0.5;" width="214" x="466" y="50"/><text fill="#000000" font-family="Impact" font-size="20" lengthAdjust="spacing" textLength="114" x="516" y="75.5645">Messenger-</text><text fill="#000000" font-family="Impact" font-size="20" lengthAdjust="spacing" textLength="54" x="546" y="98.8457">Proxy</text><rect fill="#EFEFFF" height="60.5625" rx="2.5" ry="2.5" style="stroke:#000000;stroke-width:0.5;" width="214" x="466" y="1179.5234"/><text fill="#000000" font-family="Impact" font-size="20" lengthAdjust="spacing" textLength="114" x="516" y="1205.0879">Messenger-</text><text fill="#000000" font-family="Impact" font-size="20" lengthAdjust="spacing" textLength="54" x="546" y="1228.3691">Proxy</text><rect fill="#EFEFFF" height="60.5625" rx="2.5" ry="2.5" style="stroke:#000000;stroke-width:0.5;" width="305" x="690" y="50"/><text fill="#000000" font-family="Impact" font-size="20" lengthAdjust="spacing" textLength="189" x="745" y="75.5645">Matrix-Homeserver</text><text fill="#000000" font-family="Impact" font-size="20" lengthAdjust="spacing" textLength="291" x="697" y="98.8457">(inklusive Nutzerverzeichnis)</text><rect fill="#EFEFFF" height="60.5625" rx="2.5" ry="2.5" style="stroke:#000000;stroke-width:0.5;" width="305" x="690" y="1179.5234"/><text fill="#000000" font-family="Impact" font-size="20" lengthAdjust="spacing" textLength="189" x="745" y="1205.0879">Matrix-Homeserver</text><text fill="#000000" font-family="Impact" font-size="20" lengthAdjust="spacing" textLength="291" x="697" y="1228.3691">(inklusive Nutzerverzeichnis)</text><rect fill="#EFEFFF" height="37.2813" rx="2.5" ry="2.5" style="stroke:#000000;stroke-width:0.5;" width="214" x="1005" y="73.2813"/><text fill="#000000" font-family="Impact" font-size="20" lengthAdjust="spacing" textLength="143" x="1040.5" y="98.8457">Push-Gateway</text><rect fill="#EFEFFF" height="37.2813" rx="2.5" ry="2.5" style="stroke:#000000;stroke-width:0.5;" width="214" x="1005" y="1179.5234"/><text fill="#000000" font-family="Impact" font-size="20" lengthAdjust="spacing" textLength="143" x="1040.5" y="1205.0879">Push-Gateway</text><rect fill="#C9FFC9" height="60.5625" rx="2.5" ry="2.5" style="stroke:#000000;stroke-width:0.5;" width="214" x="1230" y="50"/><text fill="#000000" font-family="Impact" font-size="20" lengthAdjust="spacing" textLength="139" x="1267.5" y="75.5645">TI-Messenger-</text><text fill="#000000" font-family="Impact" font-size="20" lengthAdjust="spacing" textLength="79" x="1297.5" y="98.8457">Client B</text><rect fill="#C9FFC9" height="60.5625" rx="2.5" ry="2.5" style="stroke:#000000;stroke-width:0.5;" width="214" x="1230" y="1179.5234"/><text fill="#000000" font-family="Impact" font-size="20" lengthAdjust="spacing" textLength="139" x="1267.5" y="1205.0879">TI-Messenger-</text><text fill="#000000" font-family="Impact" font-size="20" lengthAdjust="spacing" textLength="79" x="1297.5" y="1228.3691">Client B</text><text fill="#000000" font-family="Aapex" font-size="20" lengthAdjust="spacing" textLength="220" x="1454" y="83.5645">Akteur - B in der Rolle</text><text fill="#000000" font-family="Aapex" font-size="20" lengthAdjust="spacing" textLength="159" x="1484.5" y="106.8457">User / User-HBA</text><ellipse cx="1567" cy="13.5" fill="#DCDCDC" rx="8" ry="8" style="stroke:#000000;stroke-width:0.5;"/><path d="M1567,21.5 L1567,48.5 M1554,29.5 L1580,29.5 M1567,48.5 L1554,63.5 M1567,48.5 L1580,63.5 " fill="none" style="stroke:#000000;stroke-width:0.5;"/><text fill="#000000" font-family="Aapex" font-size="20" lengthAdjust="spacing" textLength="220" x="1454" y="1198.0879">Akteur - B in der Rolle</text><text fill="#000000" font-family="Aapex" font-size="20" lengthAdjust="spacing" textLength="159" x="1484.5" y="1221.3691">User / User-HBA</text><ellipse cx="1567" cy="1234.5859" fill="#DCDCDC" rx="8" ry="8" style="stroke:#000000;stroke-width:0.5;"/><path d="M1567,1242.5859 L1567,1269.5859 M1554,1250.5859 L1580,1250.5859 M1567,1269.5859 L1554,1284.5859 M1567,1269.5859 L1580,1284.5859 " fill="none" style="stroke:#000000;stroke-width:0.5;"/><rect fill="#F0F8FF" height="830.5391" style="stroke:#000000;stroke-width:1.0;" width="10" x="343" y="306.9844"/><rect fill="#DCDCDC" height="762.9609" style="stroke:#000000;stroke-width:1.0;" width="10" x="568" y="340.7734"/><rect fill="#DCDCDC" height="602.8047" style="stroke:#000000;stroke-width:1.0;" width="10" x="837.5" y="374.5625"/><rect fill="#DCDCDC" height="67.5781" style="stroke:#000000;stroke-width:1.0;" width="10" x="1107" y="552.6875"/><rect fill="#C9FFC9" height="305.3125" style="stroke:#000000;stroke-width:1.0;" width="10" x="1332" y="764.6328"/><path d="M7,151.5625 L7,230.5625 L1677,230.5625 L1677,161.5625 L1667,151.5625 L7,151.5625 " fill="#FEFFDD" style="stroke:#181818;stroke-width:0.5;"/><path d="M1667,151.5625 L1667,161.5625 L1677,161.5625 L1667,151.5625 " fill="#FEFFDD" style="stroke:#181818;stroke-width:0.5;"/><text fill="#000000" font-family="sans-serif" font-size="13" lengthAdjust="spacing" textLength="4" x="334" y="168.6294">&#160;</text><text fill="#000000" font-family="sans-serif" font-size="17" lengthAdjust="spacing" textLength="1007" x="334" y="187.4751">Die Akteure sind auf dem selben Messenger-Service angemeldet und im Besitz eines zugelassenen TI-Messenger-Clients.</text><text fill="#000000" font-family="sans-serif" font-size="17" lengthAdjust="spacing" textLength="580" x="334" y="207.2642">Ebenfalls sind beide Akteure einem gemeinsamen Raum beigetreten.</text><text fill="#000000" font-family="sans-serif" font-size="13" lengthAdjust="spacing" textLength="4" x="334" y="223.3403">&#160;</text><polygon fill="#000000" points="331,302.9844,341,306.9844,331,310.9844,335,306.9844" style="stroke:#000000;stroke-width:1.0;"/><line style="stroke:#000000;stroke-width:1.0;" x1="118" x2="337" y1="306.9844" y2="306.9844"/><text fill="#000000" font-family="sans-serif" font-size="17" lengthAdjust="spacing" textLength="107" x="125" y="281.186">Akteur A l&#246;st</text><text fill="#000000" font-family="sans-serif" font-size="17" lengthAdjust="spacing" textLength="143" x="125" y="300.9751">Matrix-Event aus</text><polygon fill="#FF0000" points="556,336.7734,566,340.7734,556,344.7734,560,340.7734" style="stroke:#FF0000;stroke-width:1.0;"/><line style="stroke:#FF0000;stroke-width:1.0;" x1="353" x2="562" y1="340.7734" y2="340.7734"/><text fill="#000000" font-family="sans-serif" font-size="17" lengthAdjust="spacing" textLength="128" x="360" y="334.7642">Matrix-Request</text><polygon fill="#FF0000" points="825.5,370.5625,835.5,374.5625,825.5,378.5625,829.5,374.5625" style="stroke:#FF0000;stroke-width:1.0;"/><line style="stroke:#FF0000;stroke-width:1.0;" x1="578" x2="831.5" y1="374.5625" y2="374.5625"/><text fill="#000000" font-family="sans-serif" font-size="17" lengthAdjust="spacing" textLength="135" x="585" y="368.5532">HTTP(S) Foward</text><line style="stroke:#000000;stroke-width:1.0;" x1="847.5" x2="889.5" y1="428.1406" y2="428.1406"/><line style="stroke:#000000;stroke-width:1.0;" x1="889.5" x2="889.5" y1="428.1406" y2="441.1406"/><line style="stroke:#000000;stroke-width:1.0;" x1="848.5" x2="889.5" y1="441.1406" y2="441.1406"/><polygon fill="#000000" points="858.5,437.1406,848.5,441.1406,858.5,445.1406,854.5,441.1406" style="stroke:#000000;stroke-width:1.0;"/><text fill="#000000" font-family="sans-serif" font-size="17" lengthAdjust="spacing" textLength="49" x="854.5" y="402.3423">Event</text><text fill="#000000" font-family="sans-serif" font-size="17" lengthAdjust="spacing" textLength="97" x="854.5" y="422.1313">verarbeiten</text><path d="M680,481.1406 L750,481.1406 L750,488.2734 L740,498.2734 L680,498.2734 L680,481.1406 " fill="#D3D3D3" style="stroke:#000000;stroke-width:1.5;"/><rect fill="none" height="172.125" style="stroke:#000000;stroke-width:1.5;" width="774" x="680" y="481.1406"/><text fill="#000000" font-family="sans-serif" font-size="13" font-weight="bold" lengthAdjust="spacing" textLength="25" x="695" y="494.2075">opt</text><text fill="#000000" font-family="sans-serif" font-size="11" font-weight="bold" lengthAdjust="spacing" textLength="5" x="765" y="499.1714">[</text><text fill="#000000" font-family="sans-serif" font-size="16" font-weight="bold" lengthAdjust="spacing" textLength="197" x="770" y="497.9922">Pushbenachrichtigung</text><text fill="#000000" font-family="sans-serif" font-size="11" font-weight="bold" lengthAdjust="spacing" textLength="5" x="967" y="499.1714">]</text><polygon fill="#000000" points="1095,548.6875,1105,552.6875,1095,556.6875,1099,552.6875" style="stroke:#000000;stroke-width:1.0;"/><line style="stroke:#000000;stroke-width:1.0;" x1="847.5" x2="1101" y1="552.6875" y2="552.6875"/><text fill="#000000" font-family="sans-serif" font-size="17" lengthAdjust="spacing" textLength="221" x="854.5" y="546.6782">POST /_matrix/push/notify</text><polygon fill="#000000" points="1325,582.4766,1335,586.4766,1325,590.4766,1329,586.4766" style="stroke:#000000;stroke-width:1.0;"/><line style="stroke:#000000;stroke-width:1.0;" x1="1117" x2="1331" y1="586.4766" y2="586.4766"/><text fill="#000000" font-family="sans-serif" font-size="17" lengthAdjust="spacing" textLength="97" x="1124" y="580.4673">Notification</text><polygon fill="#000000" points="858.5,616.2656,848.5,620.2656,858.5,624.2656,854.5,620.2656" style="stroke:#000000;stroke-width:1.0;"/><line style="stroke:#000000;stroke-width:1.0;stroke-dasharray:2.0,2.0;" x1="852.5" x2="1111" y1="620.2656" y2="620.2656"/><text fill="#000000" font-family="sans-serif" font-size="17" lengthAdjust="spacing" textLength="54" x="1051" y="614.2563">Status</text><polygon fill="#000000" points="589,726.8438,579,730.8438,589,734.8438,585,730.8438" style="stroke:#000000;stroke-width:1.0;"/><line style="stroke:#000000;stroke-width:1.0;" x1="583" x2="836.5" y1="730.8438" y2="730.8438"/><text fill="#000000" font-family="sans-serif" font-size="17" lengthAdjust="spacing" textLength="128" x="697.5" y="705.0454">Matrix-Request</text><text fill="#000000" font-family="sans-serif" font-size="17" lengthAdjust="spacing" textLength="94" x="697.5" y="724.8345">an Client-B</text><polygon fill="#000000" points="1320,760.6328,1330,764.6328,1320,768.6328,1324,764.6328" style="stroke:#000000;stroke-width:1.0;"/><line style="stroke:#000000;stroke-width:1.0;" x1="578" x2="1326" y1="764.6328" y2="764.6328"/><text fill="#000000" font-family="sans-serif" font-size="17" lengthAdjust="spacing" textLength="142" x="585" y="758.6235">HTTP(S) Forward</text><line style="stroke:#000000;stroke-width:1.0;" x1="1342" x2="1384" y1="818.2109" y2="818.2109"/><line style="stroke:#000000;stroke-width:1.0;" x1="1384" x2="1384" y1="818.2109" y2="831.2109"/><line style="stroke:#000000;stroke-width:1.0;" x1="1343" x2="1384" y1="831.2109" y2="831.2109"/><polygon fill="#000000" points="1353,827.2109,1343,831.2109,1353,835.2109,1349,831.2109" style="stroke:#000000;stroke-width:1.0;"/><text fill="#000000" font-family="sans-serif" font-size="17" lengthAdjust="spacing" textLength="49" x="1349" y="792.4126">Event</text><text fill="#000000" font-family="sans-serif" font-size="17" lengthAdjust="spacing" textLength="97" x="1349" y="812.2017">verarbeiten</text><polygon fill="#000000" points="589,861,579,865,589,869,585,865" style="stroke:#000000;stroke-width:1.0;"/><line style="stroke:#000000;stroke-width:1.0;stroke-dasharray:2.0,2.0;" x1="583" x2="1331" y1="865" y2="865"/><text fill="#000000" font-family="sans-serif" font-size="17" lengthAdjust="spacing" textLength="54" x="1271" y="858.9907">Status</text><polygon fill="#000000" points="825.5,914.5781,835.5,918.5781,825.5,922.5781,829.5,918.5781" style="stroke:#000000;stroke-width:1.0;"/><line style="stroke:#000000;stroke-width:1.0;stroke-dasharray:2.0,2.0;" x1="578" x2="831.5" y1="918.5781" y2="918.5781"/><text fill="#000000" font-family="sans-serif" font-size="17" lengthAdjust="spacing" textLength="142" x="585" y="892.7798">HTTP(S) Forward</text><text fill="#000000" font-family="sans-serif" font-size="17" lengthAdjust="spacing" textLength="141" x="585" y="912.5688">(Status Client-B)</text><polygon fill="#FF0000" points="589,973.3672,579,977.3672,589,981.3672,585,977.3672" style="stroke:#FF0000;stroke-width:1.0;"/><line style="stroke:#FF0000;stroke-width:1.0;stroke-dasharray:2.0,2.0;" x1="583" x2="841.5" y1="977.3672" y2="977.3672"/><text fill="#000000" font-family="sans-serif" font-size="17" lengthAdjust="spacing" textLength="201" x="634.5" y="971.3579">Status (Matrix-Request)</text><polygon fill="#000000" points="1320,1032.1563,1330,1036.1563,1320,1040.1563,1324,1036.1563" style="stroke:#000000;stroke-width:1.0;"/><line style="stroke:#000000;stroke-width:1.0;stroke-dasharray:2.0,2.0;" x1="578" x2="1326" y1="1036.1563" y2="1036.1563"/><text fill="#000000" font-family="sans-serif" font-size="17" lengthAdjust="spacing" textLength="142" x="585" y="1030.147">HTTP(S) Forward</text><polygon fill="#000000" points="1555,1065.9453,1565,1069.9453,1555,1073.9453,1559,1069.9453" style="stroke:#000000;stroke-width:1.0;"/><line style="stroke:#000000;stroke-width:1.0;stroke-dasharray:2.0,2.0;" x1="1337" x2="1561" y1="1069.9453" y2="1069.9453"/><text fill="#000000" font-family="sans-serif" font-size="17" lengthAdjust="spacing" textLength="54" x="1344" y="1063.936">Status</text><polygon fill="#000000" points="364,1099.7344,354,1103.7344,364,1107.7344,360,1103.7344" style="stroke:#000000;stroke-width:1.0;"/><line style="stroke:#000000;stroke-width:1.0;stroke-dasharray:2.0,2.0;" x1="358" x2="572" y1="1103.7344" y2="1103.7344"/><text fill="#000000" font-family="sans-serif" font-size="17" lengthAdjust="spacing" textLength="142" x="424" y="1097.7251">HTTP(S) Forward</text><polygon fill="#000000" points="129,1133.5234,119,1137.5234,129,1141.5234,125,1137.5234" style="stroke:#000000;stroke-width:1.0;"/><line style="stroke:#000000;stroke-width:1.0;stroke-dasharray:2.0,2.0;" x1="123" x2="347" y1="1137.5234" y2="1137.5234"/><text fill="#000000" font-family="sans-serif" font-size="17" lengthAdjust="spacing" textLength="54" x="287" y="1131.5142">Status</text></g></svg>