<?xml version="1.0" encoding="us-ascii" standalone="no"?><svg xmlns="http://www.w3.org/2000/svg" xmlns:xlink="http://www.w3.org/1999/xlink" contentStyleType="text/css" height="1968px" preserveAspectRatio="none" style="width:1181px;height:1968px;background:#FFFFFF;" version="1.1" viewBox="0 0 1181 1968" width="1181px" zoomAndPan="magnify"><defs/><g><rect fill="#F5F5F5" height="1956.8281" style="stroke:#181818;stroke-width:0.5;" width="490" x="537.5" y="6"/><text fill="#000000" font-family="sans-serif" font-size="18" font-weight="bold" lengthAdjust="spacing" textLength="193" x="683.5" y="22.708">Messenger-Service</text><text fill="#000000" font-family="sans-serif" font-size="13" font-weight="bold" lengthAdjust="spacing" textLength="5" x="876.5" y="23.8872">&#160;</text><rect fill="#DCDCDC" height="1605.9141" style="stroke:#000000;stroke-width:1.0;" width="10" x="367.5" y="172.3516"/><rect fill="#DCDCDC" height="604.8516" style="stroke:#000000;stroke-width:1.0;" width="10" x="643.5" y="206.1406"/><rect fill="#DCDCDC" height="629.1719" style="stroke:#000000;stroke-width:1.0;" width="10" x="643.5" y="1003.9375"/><rect fill="#DCDCDC" height="182.9453" style="stroke:#000000;stroke-width:1.0;" width="10" x="911.5" y="594.2578"/><rect fill="#DCDCDC" height="561.5938" style="stroke:#000000;stroke-width:1.0;" width="10" x="911.5" y="1037.7266"/><rect fill="#F0F8FF" height="1446.5469" style="stroke:#000000;stroke-width:1.5;" width="1165.5" x="9" y="364.7188"/><rect fill="#F0F8FF" height="1288.4219" style="stroke:none;stroke-width:1.0;" width="1165.5" x="9" y="522.8438"/><rect fill="#FFE4E1" height="186.7031" style="stroke:#000000;stroke-width:1.5;" width="1007.5" x="26" y="1144.3047"/><line style="stroke:#000000;stroke-width:0.5;stroke-dasharray:5.0,5.0;" x1="104" x2="104" y1="111.5625" y2="1853.2656"/><line style="stroke:#000000;stroke-width:0.5;stroke-dasharray:5.0,5.0;" x1="372.5" x2="372.5" y1="111.5625" y2="1853.2656"/><line style="stroke:#000000;stroke-width:0.5;stroke-dasharray:5.0,5.0;" x1="648.5" x2="648.5" y1="111.5625" y2="1853.2656"/><line style="stroke:#000000;stroke-width:0.5;stroke-dasharray:5.0,5.0;" x1="916.5" x2="916.5" y1="111.5625" y2="1853.2656"/><text fill="#000000" font-family="Aapex" font-size="20" lengthAdjust="spacing" textLength="131" x="36" y="83.5645">Akteur in der</text><text fill="#000000" font-family="Aapex" font-size="20" lengthAdjust="spacing" textLength="101" x="51" y="106.8457">Rolle User</text><ellipse cx="104.5" cy="13.5" fill="#DCDCDC" rx="8" ry="8" style="stroke:#000000;stroke-width:0.5;"/><path d="M104.5,21.5 L104.5,48.5 M91.5,29.5 L117.5,29.5 M104.5,48.5 L91.5,63.5 M104.5,48.5 L117.5,63.5 " fill="none" style="stroke:#000000;stroke-width:0.5;"/><text fill="#000000" font-family="Aapex" font-size="20" lengthAdjust="spacing" textLength="131" x="36" y="1870.8301">Akteur in der</text><text fill="#000000" font-family="Aapex" font-size="20" lengthAdjust="spacing" textLength="101" x="51" y="1894.1113">Rolle User</text><ellipse cx="104.5" cy="1907.3281" fill="#DCDCDC" rx="8" ry="8" style="stroke:#000000;stroke-width:0.5;"/><path d="M104.5,1915.3281 L104.5,1942.3281 M91.5,1923.3281 L117.5,1923.3281 M104.5,1942.3281 L91.5,1957.3281 M104.5,1942.3281 L117.5,1957.3281 " fill="none" style="stroke:#000000;stroke-width:0.5;"/><rect fill="#EFEFFF" height="37.2813" rx="2.5" ry="2.5" style="stroke:#000000;stroke-width:0.5;" width="214" x="265.5" y="73.2813"/><text fill="#000000" font-family="sans-serif" font-size="20" lengthAdjust="spacing" textLength="198" x="273.5" y="98.8457">TI-Messenger-Client</text><rect fill="#EFEFFF" height="37.2813" rx="2.5" ry="2.5" style="stroke:#000000;stroke-width:0.5;" width="214" x="265.5" y="1852.2656"/><text fill="#000000" font-family="sans-serif" font-size="20" lengthAdjust="spacing" textLength="198" x="273.5" y="1877.8301">TI-Messenger-Client</text><rect fill="#EFEFFF" height="37.2813" rx="2.5" ry="2.5" style="stroke:#000000;stroke-width:0.5;" width="214" x="541.5" y="73.2813"/><text fill="#000000" font-family="sans-serif" font-size="20" lengthAdjust="spacing" textLength="167" x="565" y="98.8457">Messenger Proxy</text><rect fill="#EFEFFF" height="37.2813" rx="2.5" ry="2.5" style="stroke:#000000;stroke-width:0.5;" width="214" x="541.5" y="1852.2656"/><text fill="#000000" font-family="sans-serif" font-size="20" lengthAdjust="spacing" textLength="167" x="565" y="1877.8301">Messenger Proxy</text><rect fill="#EFEFFF" height="37.2813" rx="2.5" ry="2.5" style="stroke:#000000;stroke-width:0.5;" width="214" x="809.5" y="73.2813"/><text fill="#000000" font-family="sans-serif" font-size="20" lengthAdjust="spacing" textLength="189" x="822" y="98.8457">Matrix-Homeserver</text><rect fill="#EFEFFF" height="37.2813" rx="2.5" ry="2.5" style="stroke:#000000;stroke-width:0.5;" width="214" x="809.5" y="1852.2656"/><text fill="#000000" font-family="sans-serif" font-size="20" lengthAdjust="spacing" textLength="189" x="822" y="1877.8301">Matrix-Homeserver</text><rect fill="#DCDCDC" height="1605.9141" style="stroke:#000000;stroke-width:1.0;" width="10" x="367.5" y="172.3516"/><rect fill="#DCDCDC" height="604.8516" style="stroke:#000000;stroke-width:1.0;" width="10" x="643.5" y="206.1406"/><rect fill="#DCDCDC" height="629.1719" style="stroke:#000000;stroke-width:1.0;" width="10" x="643.5" y="1003.9375"/><rect fill="#DCDCDC" height="182.9453" style="stroke:#000000;stroke-width:1.0;" width="10" x="911.5" y="594.2578"/><rect fill="#DCDCDC" height="561.5938" style="stroke:#000000;stroke-width:1.0;" width="10" x="911.5" y="1037.7266"/><polygon fill="#000000" points="355.5,168.3516,365.5,172.3516,355.5,176.3516,359.5,172.3516" style="stroke:#000000;stroke-width:1.0;"/><line style="stroke:#000000;stroke-width:1.0;" x1="104.5" x2="361.5" y1="172.3516" y2="172.3516"/><text fill="#000000" font-family="sans-serif" font-size="17" font-weight="bold" lengthAdjust="spacing" textLength="12" x="111.5" y="166.3423">1</text><text fill="#000000" font-family="sans-serif" font-size="17" lengthAdjust="spacing" textLength="228" x="127.5" y="166.3423">Eingabe Messenger-Service</text><polygon fill="#000000" points="631.5,202.1406,641.5,206.1406,631.5,210.1406,635.5,206.1406" style="stroke:#000000;stroke-width:1.0;"/><line style="stroke:#000000;stroke-width:1.0;" x1="377.5" x2="637.5" y1="206.1406" y2="206.1406"/><text fill="#000000" font-family="sans-serif" font-size="17" font-weight="bold" lengthAdjust="spacing" textLength="12" x="384.5" y="200.1313">2</text><text fill="#000000" font-family="sans-serif" font-size="17" lengthAdjust="spacing" textLength="209" x="400.5" y="200.1313">GET /_matrix/client/login</text><line style="stroke:#000000;stroke-width:1.0;" x1="653.5" x2="695.5" y1="239.9297" y2="239.9297"/><line style="stroke:#000000;stroke-width:1.0;" x1="695.5" x2="695.5" y1="239.9297" y2="252.9297"/><line style="stroke:#000000;stroke-width:1.0;" x1="654.5" x2="695.5" y1="252.9297" y2="252.9297"/><polygon fill="#000000" points="664.5,248.9297,654.5,252.9297,664.5,256.9297,660.5,252.9297" style="stroke:#000000;stroke-width:1.0;"/><text fill="#000000" font-family="sans-serif" font-size="17" font-weight="bold" lengthAdjust="spacing" textLength="12" x="660.5" y="233.9204">3</text><text fill="#000000" font-family="sans-serif" font-size="17" lengthAdjust="spacing" textLength="150" x="676.5" y="233.9204">TLS-Terminierung</text><line style="stroke:#000000;stroke-width:1.0;" x1="653.5" x2="695.5" y1="311.7188" y2="311.7188"/><line style="stroke:#000000;stroke-width:1.0;" x1="695.5" x2="695.5" y1="311.7188" y2="324.7188"/><line style="stroke:#000000;stroke-width:1.0;" x1="654.5" x2="695.5" y1="324.7188" y2="324.7188"/><polygon fill="#000000" points="664.5,320.7188,654.5,324.7188,664.5,328.7188,660.5,324.7188" style="stroke:#000000;stroke-width:1.0;"/><text fill="#000000" font-family="sans-serif" font-size="17" font-weight="bold" lengthAdjust="spacing" textLength="12" x="660.5" y="305.7095">4</text><text fill="#000000" font-family="sans-serif" font-size="17" lengthAdjust="spacing" textLength="119" x="676.5" y="305.7095">pr&#252;fe client_id</text><path d="M9,364.7188 L73,364.7188 L73,371.8516 L63,381.8516 L9,381.8516 L9,364.7188 " fill="#D3D3D3" style="stroke:#000000;stroke-width:1.5;"/><rect fill="none" height="1446.5469" style="stroke:#000000;stroke-width:1.5;" width="1165.5" x="9" y="364.7188"/><text fill="#000000" font-family="sans-serif" font-size="13" font-weight="bold" lengthAdjust="spacing" textLength="19" x="24" y="377.7856">alt</text><text fill="#000000" font-family="sans-serif" font-size="11" font-weight="bold" lengthAdjust="spacing" textLength="5" x="88" y="382.7495">[</text><text fill="#000000" font-family="sans-serif" font-size="16" font-weight="bold" lengthAdjust="spacing" textLength="760" x="93" y="381.5703">TI-Messenger Client wird vom Anbieter nicht unterst&#252;tzt (kein g&#252;ltiges client_secret)</text><text fill="#000000" font-family="sans-serif" font-size="11" font-weight="bold" lengthAdjust="spacing" textLength="5" x="853" y="382.7495">]</text><polygon fill="#000000" points="388.5,432.2656,378.5,436.2656,388.5,440.2656,384.5,436.2656" style="stroke:#000000;stroke-width:1.0;"/><line style="stroke:#000000;stroke-width:1.0;stroke-dasharray:2.0,2.0;" x1="382.5" x2="642.5" y1="436.2656" y2="436.2656"/><text fill="#000000" font-family="sans-serif" font-size="17" font-weight="bold" lengthAdjust="spacing" textLength="12" x="421.5" y="430.2563">5</text><text fill="#000000" font-family="sans-serif" font-size="17" lengthAdjust="spacing" textLength="199" x="437.5" y="430.2563">HTTP 401 Unauthroized</text><polygon fill="#000000" points="115.5,485.8438,105.5,489.8438,115.5,493.8438,111.5,489.8438" style="stroke:#000000;stroke-width:1.0;"/><line style="stroke:#000000;stroke-width:1.0;stroke-dasharray:2.0,2.0;" x1="109.5" x2="366.5" y1="489.8438" y2="489.8438"/><text fill="#000000" font-family="sans-serif" font-size="17" font-weight="bold" lengthAdjust="spacing" textLength="12" x="208.5" y="473.9399">6</text><text fill="#000000" font-family="sans-serif" font-size="17" lengthAdjust="spacing" textLength="96" x="224.5" y="464.0454">Anmeldung</text><text fill="#000000" font-family="sans-serif" font-size="17" lengthAdjust="spacing" textLength="136" x="224.5" y="483.8345">nicht erfolgreich</text><line style="stroke:#000000;stroke-width:1.0;stroke-dasharray:2.0,2.0;" x1="9" x2="1174.5" y1="523.8438" y2="523.8438"/><text fill="#000000" font-family="sans-serif" font-size="11" font-weight="bold" lengthAdjust="spacing" textLength="5" x="14" y="539.8745">[</text><text fill="#000000" font-family="sans-serif" font-size="16" font-weight="bold" lengthAdjust="spacing" textLength="673" x="19" y="538.6953">TI-Messenger Client wird vom Anbieter unterst&#252;tzt  (g&#252;ltiges client_secret)</text><text fill="#000000" font-family="sans-serif" font-size="11" font-weight="bold" lengthAdjust="spacing" textLength="5" x="692" y="539.8745">]</text><polygon fill="#000000" points="899.5,590.2578,909.5,594.2578,899.5,598.2578,903.5,594.2578" style="stroke:#000000;stroke-width:1.0;"/><line style="stroke:#000000;stroke-width:1.0;" x1="653.5" x2="905.5" y1="594.2578" y2="594.2578"/><text fill="#000000" font-family="sans-serif" font-size="17" font-weight="bold" lengthAdjust="spacing" textLength="12" x="660.5" y="588.2485">7</text><text fill="#000000" font-family="sans-serif" font-size="17" lengthAdjust="spacing" textLength="142" x="676.5" y="588.2485">HTTP(S) Forward</text><path d="M19,632.2578 L19,681.2578 L1001,681.2578 L1001,642.2578 L991,632.2578 L19,632.2578 " fill="#FEFFDD" style="stroke:#181818;stroke-width:0.5;"/><path d="M991,632.2578 L991,642.2578 L1001,642.2578 L991,632.2578 " fill="#FEFFDD" style="stroke:#181818;stroke-width:0.5;"/><text fill="#000000" font-family="sans-serif" font-size="17" lengthAdjust="spacing" textLength="417" x="286.75" y="653.0376">Die Authentifizierungsverfahren werden f&#252;r jeden</text><text fill="#000000" font-family="sans-serif" font-size="17" lengthAdjust="spacing" textLength="438" x="286.75" y="672.8267">Messenger-Service durch die Organisation festgelegt</text><polygon fill="#000000" points="664.5,773.2031,654.5,777.2031,664.5,781.2031,660.5,777.2031" style="stroke:#000000;stroke-width:1.0;"/><line style="stroke:#000000;stroke-width:1.0;stroke-dasharray:2.0,2.0;" x1="658.5" x2="915.5" y1="777.2031" y2="777.2031"/><text fill="#000000" font-family="sans-serif" font-size="17" font-weight="bold" lengthAdjust="spacing" textLength="12" x="733.5" y="751.4048">8</text><text fill="#000000" font-family="sans-serif" font-size="17" lengthAdjust="spacing" textLength="104" x="749.5" y="731.6157">unterst&#252;tzte</text><text fill="#000000" font-family="sans-serif" font-size="17" lengthAdjust="spacing" textLength="160" x="749.5" y="751.4048">Authentifizierungs-</text><text fill="#000000" font-family="sans-serif" font-size="17" lengthAdjust="spacing" textLength="82" x="749.5" y="771.1938">verfahren</text><polygon fill="#000000" points="388.5,806.9922,378.5,810.9922,388.5,814.9922,384.5,810.9922" style="stroke:#000000;stroke-width:1.0;"/><line style="stroke:#000000;stroke-width:1.0;stroke-dasharray:2.0,2.0;" x1="382.5" x2="647.5" y1="810.9922" y2="810.9922"/><text fill="#000000" font-family="sans-serif" font-size="17" font-weight="bold" lengthAdjust="spacing" textLength="12" x="483.5" y="804.9829">9</text><text fill="#000000" font-family="sans-serif" font-size="17" lengthAdjust="spacing" textLength="142" x="499.5" y="804.9829">HTTP(S) Forward</text><polygon fill="#000000" points="115.5,860.5703,105.5,864.5703,115.5,868.5703,111.5,864.5703" style="stroke:#000000;stroke-width:1.0;"/><line style="stroke:#000000;stroke-width:1.0;stroke-dasharray:2.0,2.0;" x1="109.5" x2="366.5" y1="864.5703" y2="864.5703"/><text fill="#000000" font-family="sans-serif" font-size="17" font-weight="bold" lengthAdjust="spacing" textLength="24" x="123.5" y="848.6665">10</text><text fill="#000000" font-family="sans-serif" font-size="17" lengthAdjust="spacing" textLength="47" x="151.5" y="838.772">Zeige</text><text fill="#000000" font-family="sans-serif" font-size="17" lengthAdjust="spacing" textLength="209" x="151.5" y="858.561">Authentifizierungsmaske</text><line style="stroke:#000000;stroke-width:1.0;" x1="104.5" x2="146.5" y1="923.3594" y2="923.3594"/><line style="stroke:#000000;stroke-width:1.0;" x1="146.5" x2="146.5" y1="923.3594" y2="936.3594"/><line style="stroke:#000000;stroke-width:1.0;" x1="105.5" x2="146.5" y1="936.3594" y2="936.3594"/><polygon fill="#000000" points="115.5,932.3594,105.5,936.3594,115.5,940.3594,111.5,936.3594" style="stroke:#000000;stroke-width:1.0;"/><text fill="#000000" font-family="sans-serif" font-size="17" font-weight="bold" lengthAdjust="spacing" textLength="24" x="111.5" y="917.3501">11</text><text fill="#000000" font-family="sans-serif" font-size="17" lengthAdjust="spacing" textLength="203" x="139.5" y="917.3501">Starte Authentifizierung</text><polygon fill="#000000" points="355.5,966.1484,365.5,970.1484,355.5,974.1484,359.5,970.1484" style="stroke:#000000;stroke-width:1.0;"/><line style="stroke:#000000;stroke-width:1.0;" x1="104.5" x2="361.5" y1="970.1484" y2="970.1484"/><text fill="#000000" font-family="sans-serif" font-size="17" font-weight="bold" lengthAdjust="spacing" textLength="24" x="111.5" y="964.1392">12</text><text fill="#000000" font-family="sans-serif" font-size="17" lengthAdjust="spacing" textLength="96" x="139.5" y="964.1392">Anmeldung</text><polygon fill="#000000" points="631.5,999.9375,641.5,1003.9375,631.5,1007.9375,635.5,1003.9375" style="stroke:#000000;stroke-width:1.0;"/><line style="stroke:#000000;stroke-width:1.0;" x1="377.5" x2="637.5" y1="1003.9375" y2="1003.9375"/><text fill="#000000" font-family="sans-serif" font-size="17" font-weight="bold" lengthAdjust="spacing" textLength="24" x="384.5" y="997.9282">13</text><text fill="#000000" font-family="sans-serif" font-size="17" lengthAdjust="spacing" textLength="219" x="412.5" y="997.9282">POST /_matrix/client/login</text><polygon fill="#000000" points="899.5,1033.7266,909.5,1037.7266,899.5,1041.7266,903.5,1037.7266" style="stroke:#000000;stroke-width:1.0;"/><line style="stroke:#000000;stroke-width:1.0;" x1="653.5" x2="905.5" y1="1037.7266" y2="1037.7266"/><text fill="#000000" font-family="sans-serif" font-size="17" font-weight="bold" lengthAdjust="spacing" textLength="24" x="660.5" y="1031.7173">14</text><text fill="#000000" font-family="sans-serif" font-size="17" lengthAdjust="spacing" textLength="142" x="688.5" y="1031.7173">HTTP(S) Forward</text><line style="stroke:#000000;stroke-width:1.0;" x1="921.5" x2="963.5" y1="1091.3047" y2="1091.3047"/><line style="stroke:#000000;stroke-width:1.0;" x1="963.5" x2="963.5" y1="1091.3047" y2="1104.3047"/><line style="stroke:#000000;stroke-width:1.0;" x1="922.5" x2="963.5" y1="1104.3047" y2="1104.3047"/><polygon fill="#000000" points="932.5,1100.3047,922.5,1104.3047,932.5,1108.3047,928.5,1104.3047" style="stroke:#000000;stroke-width:1.0;"/><text fill="#000000" font-family="sans-serif" font-size="17" font-weight="bold" lengthAdjust="spacing" textLength="24" x="928.5" y="1075.4009">15</text><text fill="#000000" font-family="sans-serif" font-size="17" lengthAdjust="spacing" textLength="44" x="956.5" y="1065.5063">pr&#252;fe</text><text fill="#000000" font-family="sans-serif" font-size="17" lengthAdjust="spacing" textLength="151" x="956.5" y="1085.2954">Client-Credentials</text><path d="M26,1144.3047 L96,1144.3047 L96,1151.4375 L86,1161.4375 L26,1161.4375 L26,1144.3047 " fill="#D3D3D3" style="stroke:#000000;stroke-width:1.5;"/><rect fill="none" height="186.7031" style="stroke:#000000;stroke-width:1.5;" width="1007.5" x="26" y="1144.3047"/><text fill="#000000" font-family="sans-serif" font-size="13" font-weight="bold" lengthAdjust="spacing" textLength="25" x="41" y="1157.3716">opt</text><text fill="#000000" font-family="sans-serif" font-size="11" font-weight="bold" lengthAdjust="spacing" textLength="5" x="111" y="1162.3354">[</text><text fill="#000000" font-family="sans-serif" font-size="16" font-weight="bold" lengthAdjust="spacing" textLength="74" x="116" y="1161.1563">Abbruch</text><text fill="#000000" font-family="sans-serif" font-size="11" font-weight="bold" lengthAdjust="spacing" textLength="5" x="190" y="1162.3354">]</text><polygon fill="#000000" points="664.5,1206.6406,654.5,1210.6406,664.5,1214.6406,660.5,1210.6406" style="stroke:#000000;stroke-width:1.0;"/><line style="stroke:#000000;stroke-width:1.0;stroke-dasharray:2.0,2.0;" x1="658.5" x2="910.5" y1="1210.6406" y2="1210.6406"/><text fill="#000000" font-family="sans-serif" font-size="17" font-weight="bold" lengthAdjust="spacing" textLength="24" x="754.5" y="1194.7368">16</text><text fill="#000000" font-family="sans-serif" font-size="17" lengthAdjust="spacing" textLength="97" x="782.5" y="1184.8423">Fehlerhafte</text><text fill="#000000" font-family="sans-serif" font-size="17" lengthAdjust="spacing" textLength="122" x="782.5" y="1204.6313">Anmeldedaten</text><polygon fill="#000000" points="388.5,1240.4297,378.5,1244.4297,388.5,1248.4297,384.5,1244.4297" style="stroke:#000000;stroke-width:1.0;"/><line style="stroke:#000000;stroke-width:1.0;stroke-dasharray:2.0,2.0;" x1="382.5" x2="642.5" y1="1244.4297" y2="1244.4297"/><text fill="#000000" font-family="sans-serif" font-size="17" font-weight="bold" lengthAdjust="spacing" textLength="24" x="466.5" y="1238.4204">17</text><text fill="#000000" font-family="sans-serif" font-size="17" lengthAdjust="spacing" textLength="142" x="494.5" y="1238.4204">HTTP(S) Forward</text><polygon fill="#000000" points="115.5,1294.0078,105.5,1298.0078,115.5,1302.0078,111.5,1298.0078" style="stroke:#000000;stroke-width:1.0;"/><line style="stroke:#000000;stroke-width:1.0;stroke-dasharray:2.0,2.0;" x1="109.5" x2="366.5" y1="1298.0078" y2="1298.0078"/><text fill="#000000" font-family="sans-serif" font-size="17" font-weight="bold" lengthAdjust="spacing" textLength="24" x="185.5" y="1282.104">18</text><text fill="#000000" font-family="sans-serif" font-size="17" lengthAdjust="spacing" textLength="122" x="213.5" y="1272.2095">Anmeldedaten</text><text fill="#000000" font-family="sans-serif" font-size="17" lengthAdjust="spacing" textLength="147" x="213.5" y="1291.9985">sind nicht korrekt</text><path d="M741,1368.0078 L741,1417.0078 L1092,1417.0078 L1092,1378.0078 L1082,1368.0078 L741,1368.0078 " fill="#FEFFDD" style="stroke:#181818;stroke-width:0.5;"/><path d="M1082,1368.0078 L1082,1378.0078 L1092,1378.0078 L1082,1368.0078 " fill="#FEFFDD" style="stroke:#181818;stroke-width:0.5;"/><text fill="#000000" font-family="sans-serif" font-size="17" lengthAdjust="spacing" textLength="288" x="747" y="1388.7876">Die &#220;berpr&#252;fung ist abh&#228;ngig vom</text><text fill="#000000" font-family="sans-serif" font-size="17" lengthAdjust="spacing" textLength="330" x="747" y="1408.5767">gew&#228;hlten Authentifizierungsverfahren</text><line style="stroke:#000000;stroke-width:1.0;" x1="921.5" x2="963.5" y1="1532.7422" y2="1532.7422"/><line style="stroke:#000000;stroke-width:1.0;" x1="963.5" x2="963.5" y1="1532.7422" y2="1545.7422"/><line style="stroke:#000000;stroke-width:1.0;" x1="922.5" x2="963.5" y1="1545.7422" y2="1545.7422"/><polygon fill="#000000" points="932.5,1541.7422,922.5,1545.7422,932.5,1549.7422,928.5,1545.7422" style="stroke:#000000;stroke-width:1.0;"/><text fill="#000000" font-family="sans-serif" font-size="17" font-weight="bold" lengthAdjust="spacing" textLength="24" x="928.5" y="1497.0493">19</text><text fill="#000000" font-family="sans-serif" font-size="17" lengthAdjust="spacing" textLength="62" x="956.5" y="1467.3657">erstelle</text><text fill="#000000" font-family="sans-serif" font-size="17" lengthAdjust="spacing" textLength="201" x="956.5" y="1487.1548">Matrix-ACCESS_TOKEN,</text><text fill="#000000" font-family="sans-serif" font-size="17" lengthAdjust="spacing" textLength="82" x="956.5" y="1506.9438">device_id,</text><text fill="#000000" font-family="sans-serif" font-size="17" lengthAdjust="spacing" textLength="47" x="956.5" y="1526.7329">MXID</text><polygon fill="#000000" points="664.5,1595.3203,654.5,1599.3203,664.5,1603.3203,660.5,1599.3203" style="stroke:#000000;stroke-width:1.0;"/><line style="stroke:#000000;stroke-width:1.0;stroke-dasharray:2.0,2.0;" x1="658.5" x2="915.5" y1="1599.3203" y2="1599.3203"/><text fill="#000000" font-family="sans-serif" font-size="17" font-weight="bold" lengthAdjust="spacing" textLength="24" x="675.5" y="1583.4165">20</text><text fill="#000000" font-family="sans-serif" font-size="17" lengthAdjust="spacing" textLength="201" x="703.5" y="1573.522">Matrix-ACCESS_TOKEN,</text><text fill="#000000" font-family="sans-serif" font-size="17" lengthAdjust="spacing" textLength="138" x="703.5" y="1593.311">device_ID, MXID</text><polygon fill="#000000" points="388.5,1629.1094,378.5,1633.1094,388.5,1637.1094,384.5,1633.1094" style="stroke:#000000;stroke-width:1.0;"/><line style="stroke:#000000;stroke-width:1.0;stroke-dasharray:2.0,2.0;" x1="382.5" x2="647.5" y1="1633.1094" y2="1633.1094"/><text fill="#000000" font-family="sans-serif" font-size="17" font-weight="bold" lengthAdjust="spacing" textLength="24" x="471.5" y="1627.1001">21</text><text fill="#000000" font-family="sans-serif" font-size="17" lengthAdjust="spacing" textLength="142" x="499.5" y="1627.1001">HTTP(S) Forward</text><line style="stroke:#000000;stroke-width:1.0;" x1="377.5" x2="419.5" y1="1711.6875" y2="1711.6875"/><line style="stroke:#000000;stroke-width:1.0;" x1="419.5" x2="419.5" y1="1711.6875" y2="1724.6875"/><line style="stroke:#000000;stroke-width:1.0;" x1="378.5" x2="419.5" y1="1724.6875" y2="1724.6875"/><polygon fill="#000000" points="388.5,1720.6875,378.5,1724.6875,388.5,1728.6875,384.5,1724.6875" style="stroke:#000000;stroke-width:1.0;"/><text fill="#000000" font-family="sans-serif" font-size="17" font-weight="bold" lengthAdjust="spacing" textLength="24" x="384.5" y="1695.7837">22</text><text fill="#000000" font-family="sans-serif" font-size="17" lengthAdjust="spacing" textLength="82" x="412.5" y="1685.8892">Speichere</text><text fill="#000000" font-family="sans-serif" font-size="17" lengthAdjust="spacing" textLength="196" x="412.5" y="1705.6782">Matrix-ACCESS_TOKEN</text><polygon fill="#000000" points="115.5,1774.2656,105.5,1778.2656,115.5,1782.2656,111.5,1778.2656" style="stroke:#000000;stroke-width:1.0;"/><line style="stroke:#000000;stroke-width:1.0;stroke-dasharray:2.0,2.0;" x1="109.5" x2="371.5" y1="1778.2656" y2="1778.2656"/><text fill="#000000" font-family="sans-serif" font-size="17" font-weight="bold" lengthAdjust="spacing" textLength="24" x="236.5" y="1762.3618">23</text><text fill="#000000" font-family="sans-serif" font-size="17" lengthAdjust="spacing" textLength="96" x="264.5" y="1752.4673">Anmeldung</text><text fill="#000000" font-family="sans-serif" font-size="17" lengthAdjust="spacing" textLength="89" x="264.5" y="1772.2563">erfolgreich</text></g></svg>