<?xml version="1.0" encoding="us-ascii" standalone="no"?><svg xmlns="http://www.w3.org/2000/svg" xmlns:xlink="http://www.w3.org/1999/xlink" contentStyleType="text/css" height="1460.3815px" preserveAspectRatio="none" style="width:2048px;height:1460px;background:#FFFFFF;" version="1.1" viewBox="0 0 2048 1460" width="2048.7877px" zoomAndPan="magnify"><defs/><g><rect fill="#F5F5F5" height="1451.5015" style="stroke:#181818;stroke-width:0.3938461538461538;" width="538.7815" x="374.9415" y="4.7262"/><text fill="#000000" font-family="sans-serif" font-size="14.1785" font-weight="bold" lengthAdjust="spacing" textLength="167.7785" x="558.4738" y="17.8869">Messenger-Service A</text><text fill="#000000" font-family="sans-serif" font-size="10.24" font-weight="bold" lengthAdjust="spacing" textLength="3.9385" x="726.2523" y="18.8158">&#160;</text><rect fill="#F5F5F5" height="1451.5015" style="stroke:#181818;stroke-width:0.3938461538461538;" width="735.7046" x="938.9292" y="4.7262"/><text fill="#000000" font-family="sans-serif" font-size="14.1785" font-weight="bold" lengthAdjust="spacing" textLength="167.7785" x="1220.9231" y="17.8869">Messenger-Service B</text><text fill="#000000" font-family="sans-serif" font-size="10.24" font-weight="bold" lengthAdjust="spacing" textLength="3.9385" x="1388.7015" y="18.8158">&#160;</text><rect fill="#F0F8FF" height="1001.2" style="stroke:#000000;stroke-width:0.7876923076923076;" width="7.8769" x="270.1785" y="278.4862"/><rect fill="#DCDCDC" height="974.5846" style="stroke:#000000;stroke-width:0.7876923076923076;" width="7.8769" x="458.4369" y="305.1015"/><rect fill="#DCDCDC" height="98.7508" style="stroke:#000000;stroke-width:0.7876923076923076;" width="7.8769" x="822.3508" y="331.7169"/><rect fill="#DCDCDC" height="690.6892" style="stroke:#000000;stroke-width:0.7876923076923076;" width="7.8769" x="1022.4246" y="562.3815"/><rect fill="#DCDCDC" height="478.9292" style="stroke:#000000;stroke-width:0.7876923076923076;" width="7.8769" x="1386.3385" y="694.2954"/><rect fill="#DCDCDC" height="53.2308" style="stroke:#000000;stroke-width:0.7876923076923076;" width="7.8769" x="1583.2615" y="854.2954"/><rect fill="#C9FFC9" height="205.2123" style="stroke:#000000;stroke-width:0.7876923076923076;" width="7.8769" x="1771.52" y="1021.2431"/><rect fill="#F0F8FF" height="135.5815" style="stroke:#000000;stroke-width:1.1815384615384614;" width="569.5015" x="1298.1169" y="797.9385"/><line style="stroke:#000000;stroke-width:0.3938461538461538;stroke-dasharray:5.0,5.0;" x1="92.9477" x2="92.9477" y1="124.5538" y2="1333.2492"/><line style="stroke:#000000;stroke-width:0.3938461538461538;stroke-dasharray:5.0,5.0;" x1="274.1169" x2="274.1169" y1="124.5538" y2="1333.2492"/><line style="stroke:#000000;stroke-width:0.3938461538461538;stroke-dasharray:5.0,5.0;" x1="462.3754" x2="462.3754" y1="124.5538" y2="1333.2492"/><line style="stroke:#000000;stroke-width:0.3938461538461538;stroke-dasharray:5.0,5.0;" x1="826.2892" x2="826.2892" y1="124.5538" y2="1333.2492"/><line style="stroke:#000000;stroke-width:0.3938461538461538;stroke-dasharray:5.0,5.0;" x1="1026.3631" x2="1026.3631" y1="124.5538" y2="1333.2492"/><line style="stroke:#000000;stroke-width:0.3938461538461538;stroke-dasharray:5.0,5.0;" x1="1390.2769" x2="1390.2769" y1="124.5538" y2="1333.2492"/><line style="stroke:#000000;stroke-width:0.3938461538461538;stroke-dasharray:5.0,5.0;" x1="1587.2" x2="1587.2" y1="124.5538" y2="1333.2492"/><line style="stroke:#000000;stroke-width:0.3938461538461538;stroke-dasharray:5.0,5.0;" x1="1775.4585" x2="1775.4585" y1="124.5538" y2="1333.2492"/><line style="stroke:#000000;stroke-width:0.3938461538461538;stroke-dasharray:5.0,5.0;" x1="1956.6277" x2="1956.6277" y1="124.5538" y2="1333.2492"/><text fill="#000000" font-family="Aapex" font-size="15.7538" lengthAdjust="spacing" textLength="4.7262" x="88.2215" y="65.8231">&#160;</text><text fill="#000000" font-family="Aapex" font-size="15.7538" lengthAdjust="spacing" textLength="173.2923" x="3.9385" y="84.1615">Akteur - A in der Rolle</text><text fill="#000000" font-family="Aapex" font-size="15.7538" lengthAdjust="spacing" textLength="125.2431" x="27.9631" y="102.5">User / User-HBA</text><text fill="#000000" font-family="Aapex" font-size="15.7538" lengthAdjust="spacing" textLength="4.7262" x="88.2215" y="120.8385">&#160;</text><ellipse cx="92.9477" cy="10.6338" fill="#DCDCDC" rx="6.3015" ry="6.3015" style="stroke:#000000;stroke-width:0.3938461538461538;"/><path d="M92.9477,16.9354 L92.9477,38.2031 M82.7077,23.2369 L103.1877,23.2369 M92.9477,38.2031 L82.7077,50.0185 M92.9477,38.2031 L103.1877,50.0185 " fill="none" style="stroke:#000000;stroke-width:0.3938461538461538;"/><text fill="#000000" font-family="Aapex" font-size="15.7538" lengthAdjust="spacing" textLength="4.7262" x="88.2215" y="1347.0846">&#160;</text><text fill="#000000" font-family="Aapex" font-size="15.7538" lengthAdjust="spacing" textLength="173.2923" x="3.9385" y="1365.4231">Akteur - A in der Rolle</text><text fill="#000000" font-family="Aapex" font-size="15.7538" lengthAdjust="spacing" textLength="125.2431" x="27.9631" y="1383.7615">User / User-HBA</text><text fill="#000000" font-family="Aapex" font-size="15.7538" lengthAdjust="spacing" textLength="4.7262" x="88.2215" y="1402.1">&#160;</text><ellipse cx="92.9477" cy="1412.5108" fill="#DCDCDC" rx="6.3015" ry="6.3015" style="stroke:#000000;stroke-width:0.3938461538461538;"/><path d="M92.9477,1418.8123 L92.9477,1440.08 M82.7077,1425.1138 L103.1877,1425.1138 M92.9477,1440.08 L82.7077,1451.8954 M92.9477,1440.08 L103.1877,1451.8954 " fill="none" style="stroke:#000000;stroke-width:0.3938461538461538;"/><rect fill="#F0F8FF" height="47.7046" rx="1.9692" ry="1.9692" style="stroke:#000000;stroke-width:0.3938461538461538;" width="168.5662" x="189.8338" y="76.0615"/><text fill="#000000" font-family="Impact" font-size="15.7538" lengthAdjust="spacing" textLength="109.4892" x="219.3723" y="96.1985">TI-Messenger-</text><text fill="#000000" font-family="Impact" font-size="15.7538" lengthAdjust="spacing" textLength="46.4738" x="250.88" y="114.5369">Client</text><rect fill="#F0F8FF" height="47.7046" rx="1.9692" ry="1.9692" style="stroke:#000000;stroke-width:0.3938461538461538;" width="168.5662" x="189.8338" y="1332.4615"/><text fill="#000000" font-family="Impact" font-size="15.7538" lengthAdjust="spacing" textLength="109.4892" x="219.3723" y="1352.5985">TI-Messenger-</text><text fill="#000000" font-family="Impact" font-size="15.7538" lengthAdjust="spacing" textLength="46.4738" x="250.88" y="1370.9369">Client</text><rect fill="#EFEFFF" height="47.7046" rx="1.9692" ry="1.9692" style="stroke:#000000;stroke-width:0.3938461538461538;" width="168.5662" x="378.0923" y="76.0615"/><text fill="#000000" font-family="Impact" font-size="15.7538" lengthAdjust="spacing" textLength="89.7969" x="417.4769" y="96.1985">Messenger-</text><text fill="#000000" font-family="Impact" font-size="15.7538" lengthAdjust="spacing" textLength="42.5354" x="441.1077" y="114.5369">Proxy</text><rect fill="#EFEFFF" height="47.7046" rx="1.9692" ry="1.9692" style="stroke:#000000;stroke-width:0.3938461538461538;" width="168.5662" x="378.0923" y="1332.4615"/><text fill="#000000" font-family="Impact" font-size="15.7538" lengthAdjust="spacing" textLength="89.7969" x="417.4769" y="1352.5985">Messenger-</text><text fill="#000000" font-family="Impact" font-size="15.7538" lengthAdjust="spacing" textLength="42.5354" x="441.1077" y="1370.9369">Proxy</text><rect fill="#EFEFFF" height="47.7046" rx="1.9692" ry="1.9692" style="stroke:#000000;stroke-width:0.3938461538461538;" width="168.5662" x="742.0062" y="76.0615"/><text fill="#000000" font-family="Impact" font-size="15.7538" lengthAdjust="spacing" textLength="54.3508" x="799.1138" y="96.1985">Matrix-</text><text fill="#000000" font-family="Impact" font-size="15.7538" lengthAdjust="spacing" textLength="94.5231" x="779.0277" y="114.5369">Homeserver</text><rect fill="#EFEFFF" height="47.7046" rx="1.9692" ry="1.9692" style="stroke:#000000;stroke-width:0.3938461538461538;" width="168.5662" x="742.0062" y="1332.4615"/><text fill="#000000" font-family="Impact" font-size="15.7538" lengthAdjust="spacing" textLength="54.3508" x="799.1138" y="1352.5985">Matrix-</text><text fill="#000000" font-family="Impact" font-size="15.7538" lengthAdjust="spacing" textLength="94.5231" x="779.0277" y="1370.9369">Homeserver</text><rect fill="#EFEFFF" height="47.7046" rx="1.9692" ry="1.9692" style="stroke:#000000;stroke-width:0.3938461538461538;" width="168.5662" x="942.08" y="76.0615"/><text fill="#000000" font-family="Impact" font-size="15.7538" lengthAdjust="spacing" textLength="89.7969" x="981.4646" y="96.1985">Messenger-</text><text fill="#000000" font-family="Impact" font-size="15.7538" lengthAdjust="spacing" textLength="42.5354" x="1005.0954" y="114.5369">Proxy</text><rect fill="#EFEFFF" height="47.7046" rx="1.9692" ry="1.9692" style="stroke:#000000;stroke-width:0.3938461538461538;" width="168.5662" x="942.08" y="1332.4615"/><text fill="#000000" font-family="Impact" font-size="15.7538" lengthAdjust="spacing" textLength="89.7969" x="981.4646" y="1352.5985">Messenger-</text><text fill="#000000" font-family="Impact" font-size="15.7538" lengthAdjust="spacing" textLength="42.5354" x="1005.0954" y="1370.9369">Proxy</text><rect fill="#EFEFFF" height="47.7046" rx="1.9692" ry="1.9692" style="stroke:#000000;stroke-width:0.3938461538461538;" width="168.5662" x="1305.9938" y="76.0615"/><text fill="#000000" font-family="Impact" font-size="15.7538" lengthAdjust="spacing" textLength="54.3508" x="1363.1015" y="96.1985">Matrix-</text><text fill="#000000" font-family="Impact" font-size="15.7538" lengthAdjust="spacing" textLength="94.5231" x="1343.0154" y="114.5369">Homeserver</text><rect fill="#EFEFFF" height="47.7046" rx="1.9692" ry="1.9692" style="stroke:#000000;stroke-width:0.3938461538461538;" width="168.5662" x="1305.9938" y="1332.4615"/><text fill="#000000" font-family="Impact" font-size="15.7538" lengthAdjust="spacing" textLength="54.3508" x="1363.1015" y="1352.5985">Matrix-</text><text fill="#000000" font-family="Impact" font-size="15.7538" lengthAdjust="spacing" textLength="94.5231" x="1343.0154" y="1370.9369">Homeserver</text><rect fill="#EFEFFF" height="47.7046" rx="1.9692" ry="1.9692" style="stroke:#000000;stroke-width:0.3938461538461538;" width="168.5662" x="1502.9169" y="76.0615"/><text fill="#000000" font-family="Impact" font-size="15.7538" lengthAdjust="spacing" textLength="43.3231" x="1565.5385" y="96.1985">Push-</text><text fill="#000000" font-family="Impact" font-size="15.7538" lengthAdjust="spacing" textLength="69.3169" x="1552.5415" y="114.5369">Gateway</text><rect fill="#EFEFFF" height="47.7046" rx="1.9692" ry="1.9692" style="stroke:#000000;stroke-width:0.3938461538461538;" width="168.5662" x="1502.9169" y="1332.4615"/><text fill="#000000" font-family="Impact" font-size="15.7538" lengthAdjust="spacing" textLength="43.3231" x="1565.5385" y="1352.5985">Push-</text><text fill="#000000" font-family="Impact" font-size="15.7538" lengthAdjust="spacing" textLength="69.3169" x="1552.5415" y="1370.9369">Gateway</text><rect fill="#C9FFC9" height="47.7046" rx="1.9692" ry="1.9692" style="stroke:#000000;stroke-width:0.3938461538461538;" width="168.5662" x="1691.1754" y="76.0615"/><text fill="#000000" font-family="Impact" font-size="15.7538" lengthAdjust="spacing" textLength="109.4892" x="1720.7138" y="96.1985">TI-Messenger-</text><text fill="#000000" font-family="Impact" font-size="15.7538" lengthAdjust="spacing" textLength="46.4738" x="1752.2215" y="114.5369">Client</text><rect fill="#C9FFC9" height="47.7046" rx="1.9692" ry="1.9692" style="stroke:#000000;stroke-width:0.3938461538461538;" width="168.5662" x="1691.1754" y="1332.4615"/><text fill="#000000" font-family="Impact" font-size="15.7538" lengthAdjust="spacing" textLength="109.4892" x="1720.7138" y="1352.5985">TI-Messenger-</text><text fill="#000000" font-family="Impact" font-size="15.7538" lengthAdjust="spacing" textLength="46.4738" x="1752.2215" y="1370.9369">Client</text><text fill="#000000" font-family="Aapex" font-size="15.7538" lengthAdjust="spacing" textLength="4.7262" x="1951.9015" y="65.8231">&#160;</text><text fill="#000000" font-family="Aapex" font-size="15.7538" lengthAdjust="spacing" textLength="173.2923" x="1867.6185" y="84.1615">Akteur - B in der Rolle</text><text fill="#000000" font-family="Aapex" font-size="15.7538" lengthAdjust="spacing" textLength="125.2431" x="1891.6431" y="102.5">User / User-HBA</text><text fill="#000000" font-family="Aapex" font-size="15.7538" lengthAdjust="spacing" textLength="4.7262" x="1951.9015" y="120.8385">&#160;</text><ellipse cx="1956.6277" cy="10.6338" fill="#DCDCDC" rx="6.3015" ry="6.3015" style="stroke:#000000;stroke-width:0.3938461538461538;"/><path d="M1956.6277,16.9354 L1956.6277,38.2031 M1946.3877,23.2369 L1966.8677,23.2369 M1956.6277,38.2031 L1946.3877,50.0185 M1956.6277,38.2031 L1966.8677,50.0185 " fill="none" style="stroke:#000000;stroke-width:0.3938461538461538;"/><text fill="#000000" font-family="Aapex" font-size="15.7538" lengthAdjust="spacing" textLength="4.7262" x="1951.9015" y="1347.0846">&#160;</text><text fill="#000000" font-family="Aapex" font-size="15.7538" lengthAdjust="spacing" textLength="173.2923" x="1867.6185" y="1365.4231">Akteur - B in der Rolle</text><text fill="#000000" font-family="Aapex" font-size="15.7538" lengthAdjust="spacing" textLength="125.2431" x="1891.6431" y="1383.7615">User / User-HBA</text><text fill="#000000" font-family="Aapex" font-size="15.7538" lengthAdjust="spacing" textLength="4.7262" x="1951.9015" y="1402.1">&#160;</text><ellipse cx="1956.6277" cy="1412.5108" fill="#DCDCDC" rx="6.3015" ry="6.3015" style="stroke:#000000;stroke-width:0.3938461538461538;"/><path d="M1956.6277,1418.8123 L1956.6277,1440.08 M1946.3877,1425.1138 L1966.8677,1425.1138 M1956.6277,1440.08 L1946.3877,1451.8954 M1956.6277,1440.08 L1966.8677,1451.8954 " fill="none" style="stroke:#000000;stroke-width:0.3938461538461538;"/><rect fill="#F0F8FF" height="1001.2" style="stroke:#000000;stroke-width:0.7876923076923076;" width="7.8769" x="270.1785" y="278.4862"/><rect fill="#DCDCDC" height="974.5846" style="stroke:#000000;stroke-width:0.7876923076923076;" width="7.8769" x="458.4369" y="305.1015"/><rect fill="#DCDCDC" height="98.7508" style="stroke:#000000;stroke-width:0.7876923076923076;" width="7.8769" x="822.3508" y="331.7169"/><rect fill="#DCDCDC" height="690.6892" style="stroke:#000000;stroke-width:0.7876923076923076;" width="7.8769" x="1022.4246" y="562.3815"/><rect fill="#DCDCDC" height="478.9292" style="stroke:#000000;stroke-width:0.7876923076923076;" width="7.8769" x="1386.3385" y="694.2954"/><rect fill="#DCDCDC" height="53.2308" style="stroke:#000000;stroke-width:0.7876923076923076;" width="7.8769" x="1583.2615" y="854.2954"/><rect fill="#C9FFC9" height="205.2123" style="stroke:#000000;stroke-width:0.7876923076923076;" width="7.8769" x="1771.52" y="1021.2431"/><path d="M5.5138,156.0615 L5.5138,218.2892 L2043.2738,218.2892 L2043.2738,163.9385 L2035.3969,156.0615 L5.5138,156.0615 " fill="#FEFFDD" style="stroke:#181818;stroke-width:0.3938461538461538;"/><path d="M2035.3969,156.0615 L2035.3969,163.9385 L2043.2738,163.9385 L2035.3969,156.0615 " fill="#FEFFDD" style="stroke:#181818;stroke-width:0.3938461538461538;"/><text fill="#000000" font-family="sans-serif" font-size="10.24" lengthAdjust="spacing" textLength="3.1508" x="624.2462" y="169.505">&#160;</text><text fill="#000000" font-family="sans-serif" font-size="13.3908" lengthAdjust="spacing" textLength="793.2062" x="624.2462" y="184.3496">Die Akteure sind auf dem selben Messenger-Service angemeldet und im Besitz eines zugelassenen TI-Messenger-Clients.</text><text fill="#000000" font-family="sans-serif" font-size="13.3908" lengthAdjust="spacing" textLength="456.8615" x="624.2462" y="199.9373">Ebenfalls sind beide Akteure einem gemeinsamen Raum beigetreten.</text><text fill="#000000" font-family="sans-serif" font-size="10.24" lengthAdjust="spacing" textLength="3.1508" x="624.2462" y="212.6004">&#160;</text><polygon fill="#000000" points="260.7262,275.3354,268.6031,278.4862,260.7262,281.6369,263.8769,278.4862" style="stroke:#000000;stroke-width:0.7876923076923076;"/><line style="stroke:#000000;stroke-width:0.7876923076923076;" x1="92.9477" x2="265.4523" y1="278.4862" y2="278.4862"/><text fill="#000000" font-family="sans-serif" font-size="13.3908" lengthAdjust="spacing" textLength="84.2831" x="98.4615" y="258.165">Akteur A l&#246;st</text><text fill="#000000" font-family="sans-serif" font-size="13.3908" lengthAdjust="spacing" textLength="112.64" x="98.4615" y="273.7527">Matrix-Event aus</text><polygon fill="#FF0000" points="448.9846,301.9508,456.8615,305.1015,448.9846,308.2523,452.1354,305.1015" style="stroke:#FF0000;stroke-width:0.7876923076923076;"/><line style="stroke:#FF0000;stroke-width:0.7876923076923076;" x1="278.0554" x2="453.7108" y1="305.1015" y2="305.1015"/><text fill="#000000" font-family="sans-serif" font-size="13.3908" lengthAdjust="spacing" textLength="100.8246" x="283.5692" y="300.3681">Matrix-Request</text><polygon fill="#FF0000" points="812.8985,328.5662,820.7754,331.7169,812.8985,334.8677,816.0492,331.7169" style="stroke:#FF0000;stroke-width:0.7876923076923076;"/><line style="stroke:#FF0000;stroke-width:0.7876923076923076;" x1="466.3138" x2="817.6246" y1="331.7169" y2="331.7169"/><text fill="#000000" font-family="sans-serif" font-size="13.3908" lengthAdjust="spacing" textLength="111.8523" x="471.8277" y="326.9835">HTTP(S) Forward</text><line style="stroke:#000000;stroke-width:0.7876923076923076;" x1="830.2277" x2="863.3108" y1="373.92" y2="373.92"/><line style="stroke:#000000;stroke-width:0.7876923076923076;" x1="863.3108" x2="863.3108" y1="373.92" y2="384.16"/><line style="stroke:#000000;stroke-width:0.7876923076923076;" x1="831.0154" x2="863.3108" y1="384.16" y2="384.16"/><polygon fill="#000000" points="838.8923,381.0092,831.0154,384.16,838.8923,387.3108,835.7415,384.16" style="stroke:#000000;stroke-width:0.7876923076923076;"/><text fill="#000000" font-family="sans-serif" font-size="13.3908" lengthAdjust="spacing" textLength="38.5969" x="835.7415" y="353.5988">Event</text><text fill="#000000" font-family="sans-serif" font-size="13.3908" lengthAdjust="spacing" textLength="76.4062" x="835.7415" y="369.1865">verarbeiten</text><polygon fill="#000000" points="474.9785,427.3169,467.1015,430.4677,474.9785,433.6185,471.8277,430.4677" style="stroke:#000000;stroke-width:0.7876923076923076;"/><line style="stroke:#000000;stroke-width:0.7876923076923076;" x1="470.2523" x2="825.5015" y1="430.4677" y2="430.4677"/><text fill="#000000" font-family="sans-serif" font-size="13.3908" lengthAdjust="spacing" textLength="100.8246" x="719.9508" y="425.7342">Matrix-Request</text><rect fill="none" height="61.9754" style="stroke:#000000;stroke-width:1.1815384615384614;" width="321.3785" x="375.7292" y="456.4615"/><path d="M375.7292,456.4615 L427.7169,456.4615 L427.7169,461.9754 L419.84,469.8523 L375.7292,469.8523 L375.7292,456.4615 " fill="#98FB98" style="stroke:#000000;stroke-width:1.5753846153846152;"/><text fill="#000000" font-family="sans-serif" font-size="10.24" font-weight="bold" lengthAdjust="spacing" textLength="16.5415" x="385.9692" y="467.5419">ref</text><text fill="#000000" font-family="sans-serif" font-size="13.3908" font-weight="bold" lengthAdjust="spacing" textLength="74.0431" x="378.88" y="485.4327">AF_10064</text><text fill="#000000" font-family="sans-serif" font-size="13.3908" lengthAdjust="spacing" textLength="4.7262" x="456.8615" y="485.4327">-</text><text fill="#000000" font-family="sans-serif" font-size="13.3908" lengthAdjust="spacing" textLength="205.5877" x="484.4308" y="485.4327">F&#246;derationszugeh&#246;rigkeit eines</text><text fill="#000000" font-family="sans-serif" font-size="13.3908" lengthAdjust="spacing" textLength="31.5077" x="419.84" y="501.0204">&#160;&#160;&#160;&#160;&#160;&#160;&#160;&#160;</text><text fill="#000000" font-family="sans-serif" font-size="13.3908" lengthAdjust="spacing" textLength="170.1415" x="482.8554" y="501.0204">Messenger-Service pr&#252;fen</text><text fill="#000000" font-family="sans-serif" font-size="9.4523" lengthAdjust="spacing" textLength="3.1508" x="534.8431" y="512.9523">&#160;</text><path d="M3.9385,460.4 L3.9385,497.4215 L204.0123,497.4215 L204.0123,468.2769 L196.1354,460.4 L3.9385,460.4 " fill="#FEFFDD" style="stroke:#181818;stroke-width:0.3938461538461538;"/><path d="M196.1354,460.4 L196.1354,468.2769 L204.0123,468.2769 L196.1354,460.4 " fill="#FEFFDD" style="stroke:#181818;stroke-width:0.3938461538461538;"/><text fill="#000000" font-family="sans-serif" font-size="12.6031" lengthAdjust="spacing" textLength="152.0246" x="8.6646" y="476.0369">Stufe 1 - Pr&#252;fung gem&#228;&#223;</text><text fill="#000000" font-family="sans-serif" font-size="12.6031" lengthAdjust="spacing" textLength="183.5323" x="8.6646" y="490.7077">Server-Server Kommunikation</text><polygon fill="#FF0000" points="1012.9723,559.2308,1020.8492,562.3815,1012.9723,565.5323,1016.1231,562.3815" style="stroke:#FF0000;stroke-width:0.7876923076923076;"/><line style="stroke:#FF0000;stroke-width:0.7876923076923076;" x1="466.3138" x2="1017.6985" y1="562.3815" y2="562.3815"/><text fill="#000000" font-family="sans-serif" font-size="13.3908" lengthAdjust="spacing" textLength="111.8523" x="471.8277" y="557.6481">HTTP(S) Forward</text><rect fill="none" height="61.9754" style="stroke:#000000;stroke-width:1.1815384615384614;" width="321.3785" x="939.7169" y="588.3754"/><path d="M939.7169,588.3754 L991.7046,588.3754 L991.7046,593.8892 L983.8277,601.7662 L939.7169,601.7662 L939.7169,588.3754 " fill="#98FB98" style="stroke:#000000;stroke-width:1.5753846153846152;"/><text fill="#000000" font-family="sans-serif" font-size="10.24" font-weight="bold" lengthAdjust="spacing" textLength="16.5415" x="949.9569" y="599.4558">ref</text><text fill="#000000" font-family="sans-serif" font-size="13.3908" font-weight="bold" lengthAdjust="spacing" textLength="74.0431" x="942.8677" y="617.3465">AF_10064</text><text fill="#000000" font-family="sans-serif" font-size="13.3908" lengthAdjust="spacing" textLength="4.7262" x="1020.8492" y="617.3465">-</text><text fill="#000000" font-family="sans-serif" font-size="13.3908" lengthAdjust="spacing" textLength="205.5877" x="1048.4185" y="617.3465">F&#246;derationszugeh&#246;rigkeit eines</text><text fill="#000000" font-family="sans-serif" font-size="13.3908" lengthAdjust="spacing" textLength="31.5077" x="983.8277" y="632.9342">&#160;&#160;&#160;&#160;&#160;&#160;&#160;&#160;</text><text fill="#000000" font-family="sans-serif" font-size="13.3908" lengthAdjust="spacing" textLength="170.1415" x="1046.8431" y="632.9342">Messenger-Service pr&#252;fen</text><text fill="#000000" font-family="sans-serif" font-size="9.4523" lengthAdjust="spacing" textLength="3.1508" x="1098.8308" y="644.8662">&#160;</text><path d="M1266.6092,592.3138 L1266.6092,629.3354 L1466.6831,629.3354 L1466.6831,600.1908 L1458.8062,592.3138 L1266.6092,592.3138 " fill="#FEFFDD" style="stroke:#181818;stroke-width:0.3938461538461538;"/><path d="M1458.8062,592.3138 L1458.8062,600.1908 L1466.6831,600.1908 L1458.8062,592.3138 " fill="#FEFFDD" style="stroke:#181818;stroke-width:0.3938461538461538;"/><text fill="#000000" font-family="sans-serif" font-size="12.6031" lengthAdjust="spacing" textLength="152.0246" x="1271.3354" y="607.9508">Stufe 1 - Pr&#252;fung gem&#228;&#223;</text><text fill="#000000" font-family="sans-serif" font-size="12.6031" lengthAdjust="spacing" textLength="183.5323" x="1271.3354" y="622.6215">Server-Server Kommunikation</text><polygon fill="#FF0000" points="1376.8862,691.1446,1384.7631,694.2954,1376.8862,697.4462,1380.0369,694.2954" style="stroke:#FF0000;stroke-width:0.7876923076923076;"/><line style="stroke:#FF0000;stroke-width:0.7876923076923076;" x1="1030.3015" x2="1381.6123" y1="694.2954" y2="694.2954"/><text fill="#000000" font-family="sans-serif" font-size="13.3908" lengthAdjust="spacing" textLength="106.3385" x="1035.8154" y="689.5619">HTTP(S) Foward</text><line style="stroke:#000000;stroke-width:0.7876923076923076;" x1="1394.2154" x2="1427.2985" y1="756.1908" y2="756.1908"/><line style="stroke:#000000;stroke-width:0.7876923076923076;" x1="1427.2985" x2="1427.2985" y1="756.1908" y2="766.4308"/><line style="stroke:#000000;stroke-width:0.7876923076923076;" x1="1395.0031" x2="1427.2985" y1="766.4308" y2="766.4308"/><polygon fill="#000000" points="1402.88,763.28,1395.0031,766.4308,1402.88,769.5815,1399.7292,766.4308" style="stroke:#000000;stroke-width:0.7876923076923076;"/><text fill="#000000" font-family="sans-serif" font-size="13.3908" lengthAdjust="spacing" textLength="38.5969" x="1399.7292" y="735.8696">Event</text><text fill="#000000" font-family="sans-serif" font-size="13.3908" lengthAdjust="spacing" textLength="76.4062" x="1399.7292" y="751.4573">verarbeiten</text><path d="M1298.1169,797.9385 L1353.2554,797.9385 L1353.2554,803.5569 L1345.3785,811.4338 L1298.1169,811.4338 L1298.1169,797.9385 " fill="#D3D3D3" style="stroke:#000000;stroke-width:1.1815384615384614;"/><rect fill="none" height="135.5815" style="stroke:#000000;stroke-width:1.1815384615384614;" width="569.5015" x="1298.1169" y="797.9385"/><text fill="#000000" font-family="sans-serif" font-size="10.24" font-weight="bold" lengthAdjust="spacing" textLength="19.6923" x="1309.9323" y="808.2312">opt</text><text fill="#000000" font-family="sans-serif" font-size="8.6646" font-weight="bold" lengthAdjust="spacing" textLength="3.9385" x="1365.0708" y="812.1412">[</text><text fill="#000000" font-family="sans-serif" font-size="12.6031" font-weight="bold" lengthAdjust="spacing" textLength="155.1754" x="1369.0092" y="811.2123">Pushbenachrichtigung</text><text fill="#000000" font-family="sans-serif" font-size="8.6646" font-weight="bold" lengthAdjust="spacing" textLength="3.9385" x="1524.1846" y="812.1412">]</text><polygon fill="#000000" points="1573.8092,851.1446,1581.6862,854.2954,1573.8092,857.4462,1576.96,854.2954" style="stroke:#000000;stroke-width:0.7876923076923076;"/><line style="stroke:#000000;stroke-width:0.7876923076923076;" x1="1394.2154" x2="1578.5354" y1="854.2954" y2="854.2954"/><text fill="#000000" font-family="sans-serif" font-size="13.3908" lengthAdjust="spacing" textLength="174.08" x="1399.7292" y="849.5619">POST /_matrix/push/notify</text><polygon fill="#000000" points="1766.0062,877.76,1773.8831,880.9108,1766.0062,884.0615,1769.1569,880.9108" style="stroke:#000000;stroke-width:0.7876923076923076;"/><line style="stroke:#000000;stroke-width:0.7876923076923076;" x1="1591.1385" x2="1770.7323" y1="880.9108" y2="880.9108"/><text fill="#000000" font-family="sans-serif" font-size="13.3908" lengthAdjust="spacing" textLength="76.4062" x="1596.6523" y="876.1773">Notification</text><polygon fill="#000000" points="1402.88,904.3754,1395.0031,907.5262,1402.88,910.6769,1399.7292,907.5262" style="stroke:#000000;stroke-width:0.7876923076923076;"/><line style="stroke:#000000;stroke-width:0.7876923076923076;stroke-dasharray:2.0,2.0;" x1="1398.1538" x2="1586.4123" y1="907.5262" y2="907.5262"/><text fill="#000000" font-family="sans-serif" font-size="13.3908" lengthAdjust="spacing" textLength="42.5354" x="1539.1508" y="902.7927">Status</text><polygon fill="#000000" points="1038.9662,991.4769,1031.0892,994.6277,1038.9662,997.7785,1035.8154,994.6277" style="stroke:#000000;stroke-width:0.7876923076923076;"/><line style="stroke:#000000;stroke-width:0.7876923076923076;" x1="1034.24" x2="1385.5508" y1="994.6277" y2="994.6277"/><text fill="#000000" font-family="sans-serif" font-size="13.3908" lengthAdjust="spacing" textLength="100.8246" x="1276.0615" y="974.3065">Matrix-Request</text><text fill="#000000" font-family="sans-serif" font-size="13.3908" lengthAdjust="spacing" textLength="79.5569" x="1276.0615" y="989.8942">an Client-B)</text><polygon fill="#000000" points="1762.0677,1018.0923,1769.9446,1021.2431,1762.0677,1024.3938,1765.2185,1021.2431" style="stroke:#000000;stroke-width:0.7876923076923076;"/><line style="stroke:#000000;stroke-width:0.7876923076923076;" x1="1030.3015" x2="1766.7938" y1="1021.2431" y2="1021.2431"/><text fill="#000000" font-family="sans-serif" font-size="13.3908" lengthAdjust="spacing" textLength="111.8523" x="1035.8154" y="1016.5096">HTTP(S) Forward</text><line style="stroke:#000000;stroke-width:0.7876923076923076;" x1="1779.3969" x2="1812.48" y1="1047.8585" y2="1047.8585"/><line style="stroke:#000000;stroke-width:0.7876923076923076;" x1="1812.48" x2="1812.48" y1="1047.8585" y2="1058.0985"/><line style="stroke:#000000;stroke-width:0.7876923076923076;" x1="1780.1846" x2="1812.48" y1="1058.0985" y2="1058.0985"/><polygon fill="#000000" points="1788.0615,1054.9477,1780.1846,1058.0985,1788.0615,1061.2492,1784.9108,1058.0985" style="stroke:#000000;stroke-width:0.7876923076923076;"/><text fill="#000000" font-family="sans-serif" font-size="13.3908" lengthAdjust="spacing" textLength="118.9415" x="1784.9108" y="1043.125">Event verarbeiten</text><polygon fill="#000000" points="1038.9662,1081.5631,1031.0892,1084.7138,1038.9662,1087.8646,1035.8154,1084.7138" style="stroke:#000000;stroke-width:0.7876923076923076;"/><line style="stroke:#000000;stroke-width:0.7876923076923076;stroke-dasharray:2.0,2.0;" x1="1034.24" x2="1770.7323" y1="1084.7138" y2="1084.7138"/><text fill="#000000" font-family="sans-serif" font-size="13.3908" lengthAdjust="spacing" textLength="42.5354" x="1723.4708" y="1079.9804">Status</text><polygon fill="#000000" points="1376.8862,1143.4585,1384.7631,1146.6092,1376.8862,1149.76,1380.0369,1146.6092" style="stroke:#000000;stroke-width:0.7876923076923076;"/><line style="stroke:#000000;stroke-width:0.7876923076923076;stroke-dasharray:2.0,2.0;" x1="1030.3015" x2="1381.6123" y1="1146.6092" y2="1146.6092"/><text fill="#000000" font-family="sans-serif" font-size="13.3908" lengthAdjust="spacing" textLength="111.8523" x="1035.8154" y="1126.2881">HTTP(S) Forward</text><text fill="#000000" font-family="sans-serif" font-size="13.3908" lengthAdjust="spacing" textLength="111.0646" x="1035.8154" y="1141.8758">(Status Client-B)</text><polygon fill="#FF0000" points="1038.9662,1170.0738,1031.0892,1173.2246,1038.9662,1176.3754,1035.8154,1173.2246" style="stroke:#FF0000;stroke-width:0.7876923076923076;"/><line style="stroke:#FF0000;stroke-width:0.7876923076923076;stroke-dasharray:2.0,2.0;" x1="1034.24" x2="1389.4892" y1="1173.2246" y2="1173.2246"/><text fill="#000000" font-family="sans-serif" font-size="13.3908" lengthAdjust="spacing" textLength="158.3262" x="1226.4369" y="1168.4912">Status (Matrix-Request)</text><polygon fill="#000000" points="1762.0677,1196.6892,1769.9446,1199.84,1762.0677,1202.9908,1765.2185,1199.84" style="stroke:#000000;stroke-width:0.7876923076923076;"/><line style="stroke:#000000;stroke-width:0.7876923076923076;stroke-dasharray:2.0,2.0;" x1="1030.3015" x2="1766.7938" y1="1199.84" y2="1199.84"/><text fill="#000000" font-family="sans-serif" font-size="13.3908" lengthAdjust="spacing" textLength="111.8523" x="1035.8154" y="1195.1065">HTTP(S) Forward</text><polygon fill="#000000" points="1947.1754,1223.3046,1955.0523,1226.4554,1947.1754,1229.6062,1950.3262,1226.4554" style="stroke:#000000;stroke-width:0.7876923076923076;"/><line style="stroke:#000000;stroke-width:0.7876923076923076;" x1="1775.4585" x2="1951.9015" y1="1226.4554" y2="1226.4554"/><text fill="#000000" font-family="sans-serif" font-size="13.3908" lengthAdjust="spacing" textLength="42.5354" x="1780.9723" y="1221.7219">Status</text><polygon fill="#000000" points="474.9785,1249.92,467.1015,1253.0708,474.9785,1256.2215,471.8277,1253.0708" style="stroke:#000000;stroke-width:0.7876923076923076;"/><line style="stroke:#000000;stroke-width:0.7876923076923076;stroke-dasharray:2.0,2.0;" x1="470.2523" x2="1025.5754" y1="1253.0708" y2="1253.0708"/><text fill="#000000" font-family="sans-serif" font-size="13.3908" lengthAdjust="spacing" textLength="111.8523" x="908.9969" y="1248.3373">HTTP(S) Forward</text><polygon fill="#000000" points="282.7815,1276.5354,274.9046,1279.6862,282.7815,1282.8369,279.6308,1279.6862" style="stroke:#000000;stroke-width:0.7876923076923076;"/><line style="stroke:#000000;stroke-width:0.7876923076923076;stroke-dasharray:2.0,2.0;" x1="278.0554" x2="461.5877" y1="1279.6862" y2="1279.6862"/><text fill="#000000" font-family="sans-serif" font-size="13.3908" lengthAdjust="spacing" textLength="42.5354" x="414.3262" y="1274.9527">Status</text></g></svg>