<?xml version="1.0" encoding="us-ascii" standalone="no"?><svg xmlns="http://www.w3.org/2000/svg" xmlns:xlink="http://www.w3.org/1999/xlink" contentStyleType="text/css" height="444px" preserveAspectRatio="none" style="width:1402px;height:444px;background:#FFFFFF;" version="1.1" viewBox="0 0 1402 444" width="1402px" zoomAndPan="magnify"><defs/><g><!--cluster Rolle--><g id="cluster_Rolle"><path d="M190,106 L268,106 A7.5,7.5 0 0 1 273,111 L287,150.5938 L350,150.5938 A5,5 0 0 1 355,155.5938 L355,323 A5,5 0 0 1 350,328 L190,328 A5,5 0 0 1 185,323 L185,111 A5,5 0 0 1 190,106 " fill="none" style="stroke:#000000;stroke-width:3.0;"/><line style="stroke:#000000;stroke-width:3.0;" x1="185" x2="287" y1="150.5938" y2="150.5938"/><text fill="#000000" font-family="sans-serif" font-size="28" font-weight="bold" lengthAdjust="spacing" textLength="76" x="193" y="135.9902">Rolle</text></g><!--cluster Anwendungsf?lle--><g id="cluster_Anwendungsf&#228;lle"><path d="M589,8 L865,8 A7.5,7.5 0 0 1 870,13 L884,52.5938 L1383,52.5938 A5,5 0 0 1 1388,57.5938 L1388,425 A5,5 0 0 1 1383,430 L589,430 A5,5 0 0 1 584,425 L584,13 A5,5 0 0 1 589,8 " fill="none" style="stroke:#000000;stroke-width:3.0;"/><line style="stroke:#000000;stroke-width:3.0;" x1="584" x2="884" y1="52.5938" y2="52.5938"/><text fill="#000000" font-family="sans-serif" font-size="28" font-weight="bold" lengthAdjust="spacing" textLength="274" x="592" y="37.9902">Anwendungsf&#228;lle</text></g><g id="elem_GMN9"><path d="M12,348 L12,428.5313 A0,0 0 0 0 12,428.5313 L528,428.5313 A0,0 0 0 0 528,428.5313 L528,368 L508,348 L278,348 L270,312.7422 L262,348 L12,348 A0,0 0 0 0 12,348 " fill="#FEFFDD" style="stroke:#181818;stroke-width:1.0;"/><path d="M508,348 L508,368 L528,368 L508,348 " fill="#FEFFDD" style="stroke:#181818;stroke-width:1.0;"/><text fill="#000000" font-family="sans-serif" font-size="26" lengthAdjust="spacing" textLength="474" x="24" y="382.1338">z. B. Beauftragter Mitarbeiter in einer</text><text fill="#000000" font-family="sans-serif" font-size="26" lengthAdjust="spacing" textLength="162" x="24" y="412.3994">Organisation</text></g><!--entity oa--><g id="elem_oa"><ellipse cx="270" cy="193" fill="#DCDCDC" rx="32" ry="32" style="stroke:#000000;stroke-width:1.0;"/><path d="M270,233 C278,233 284,233 292,225 C308,225 324,241 324,257 L324,265 C324,273 316,281 308,281 L232,281 C224,281 216,273 216,265 L216,257 C216,241 232,225 248,225 C256,233 262,233 270,233 " fill="#DCDCDC" style="stroke:#000000;stroke-width:1.0;"/><text fill="#000000" font-family="Aapex" font-size="26" lengthAdjust="spacing" textLength="138" x="201" y="306.1338">Org-Admin</text></g><g id="elem_UC1"><ellipse cx="985.5145" cy="137.5029" fill="#F0F8FF" rx="353.5145" ry="75.5029" style="stroke:#181818;stroke-width:1.0;"/><text fill="#000000" font-family="sans-serif" font-size="28" font-weight="bold" lengthAdjust="spacing" textLength="190" x="886.5145" y="110.6025">&#171;AF_10103&#187;</text><text fill="#000000" font-family="sans-serif" font-size="28" lengthAdjust="spacing" textLength="8" x="1076.5145" y="110.6025">&#160;</text><text fill="#000000" font-family="sans-serif" font-size="28" lengthAdjust="spacing" textLength="462" x="750.5145" y="143.1963">Authentisieren einer Organisation</text><text fill="#000000" font-family="sans-serif" font-size="28" lengthAdjust="spacing" textLength="340" x="815.5145" y="175.79">am TI-Messenger-Dienst</text></g><g id="elem_UC2"><ellipse cx="986.0504" cy="332.0101" fill="#F0F8FF" rx="386.0504" ry="82.0101" style="stroke:#181818;stroke-width:1.0;"/><text fill="#000000" font-family="sans-serif" font-size="28" font-weight="bold" lengthAdjust="spacing" textLength="190" x="887.0504" y="305.1097">&#171;AF_10060&#187;</text><text fill="#000000" font-family="sans-serif" font-size="28" lengthAdjust="spacing" textLength="8" x="1077.0504" y="305.1097">&#160;</text><text fill="#000000" font-family="sans-serif" font-size="28" lengthAdjust="spacing" textLength="550" x="707.0504" y="337.7034">Bereitstellung eines Messenger-Service</text><text fill="#000000" font-family="sans-serif" font-size="28" lengthAdjust="spacing" textLength="286" x="843.0504" y="370.2972">f&#252;r eine Organisation</text></g><polygon fill="#000000" points="631.744,186.4847,612.8213,181.0138,621.8374,187.8482,615.003,196.8643,631.744,186.4847" style="stroke:#000000;stroke-width:2.0;"/><path d="M339.6251,226.692 C408.3556,217.232 508.4065,203.4609 619.8561,188.1209 " fill="none" style="stroke:#000000;stroke-width:2.0;"/><polygon fill="#000000" points="599.6852,280.1823,582.9156,269.8488,589.7748,278.846,580.7776,285.7053,599.6852,280.1823" style="stroke:#000000;stroke-width:2.0;"/><path d="M339.6251,245.118 C401.7602,253.4958 487.3167,265.0315 587.7928,278.5788 " fill="none" style="stroke:#000000;stroke-width:2.0;"/></g></svg>