<?xml version="1.0" encoding="us-ascii" standalone="no"?><svg xmlns="http://www.w3.org/2000/svg" xmlns:xlink="http://www.w3.org/1999/xlink" contentStyleType="text/css" height="1262px" preserveAspectRatio="none" style="width:1200px;height:1262px;background:#FFFFFF;" version="1.1" viewBox="0 0 1200 1262" width="1200px" zoomAndPan="magnify"><defs/><g><!--cluster Rolle--><g id="cluster_Rolle"><path d="M157,510 L235,510 A7.5,7.5 0 0 1 240,515 L254,554.5938 L289,554.5938 A5,5 0 0 1 294,559.5938 L294,727 A5,5 0 0 1 289,732 L157,732 A5,5 0 0 1 152,727 L152,515 A5,5 0 0 1 157,510 " fill="none" style="stroke:#000000;stroke-width:3.0;"/><line style="stroke:#000000;stroke-width:3.0;" x1="152" x2="254" y1="554.5938" y2="554.5938"/><text fill="#000000" font-family="sans-serif" font-size="28" font-weight="bold" lengthAdjust="spacing" textLength="76" x="160" y="539.9902">Rolle</text></g><!--cluster Anwendungsf?lle--><g id="cluster_Anwendungsf&#228;lle"><path d="M495,8 L771,8 A7.5,7.5 0 0 1 776,13 L790,52.5938 L1181,52.5938 A5,5 0 0 1 1186,57.5938 L1186,1243 A5,5 0 0 1 1181,1248 L495,1248 A5,5 0 0 1 490,1243 L490,13 A5,5 0 0 1 495,8 " fill="none" style="stroke:#000000;stroke-width:3.0;"/><line style="stroke:#000000;stroke-width:3.0;" x1="490" x2="790" y1="52.5938" y2="52.5938"/><text fill="#000000" font-family="sans-serif" font-size="28" font-weight="bold" lengthAdjust="spacing" textLength="274" x="498" y="37.9902">Anwendungsf&#228;lle</text></g><g id="elem_GMN17"><path d="M12,752 L12,832.5313 A0,0 0 0 0 12,832.5313 L434,832.5313 A0,0 0 0 0 434,832.5313 L434,772 L414,752 L231,752 L223,716.7422 L215,752 L12,752 A0,0 0 0 0 12,752 " fill="#FEFFDD" style="stroke:#181818;stroke-width:1.0;"/><path d="M414,752 L414,772 L434,772 L414,752 " fill="#FEFFDD" style="stroke:#181818;stroke-width:1.0;"/><text fill="#000000" font-family="sans-serif" font-size="26" lengthAdjust="spacing" textLength="380" x="24" y="786.1338">Mitarbeiter einer Organisation</text><text fill="#000000" font-family="sans-serif" font-size="26" lengthAdjust="spacing" textLength="280" x="24" y="816.3994">im Gesundheitswesen</text></g><!--entity u--><g id="elem_u"><ellipse cx="223" cy="597" fill="#DCDCDC" rx="32" ry="32" style="stroke:#000000;stroke-width:1.0;"/><path d="M223,637 C231,637 237,637 245,629 C261,629 277,645 277,661 L277,669 C277,677 269,685 261,685 L185,685 C177,685 169,677 169,669 L169,661 C169,645 185,629 201,629 C209,637 215,637 223,637 " fill="#DCDCDC" style="stroke:#000000;stroke-width:1.0;"/><text fill="#000000" font-family="Aapex" font-size="26" lengthAdjust="spacing" textLength="60" x="193" y="710.1338">User</text></g><g id="elem_UC1"><ellipse cx="837.7128" cy="138.1418" fill="#F1F1F1" rx="315.7128" ry="75.1418" style="stroke:#181818;stroke-width:1.0;"/><text fill="#000000" font-family="sans-serif" font-size="28" font-weight="bold" lengthAdjust="spacing" textLength="190" x="738.7128" y="111.2414">&#171;AF_10057&#187;</text><text fill="#000000" font-family="sans-serif" font-size="28" lengthAdjust="spacing" textLength="8" x="928.7128" y="111.2414">&#160;</text><text fill="#000000" font-family="sans-serif" font-size="28" lengthAdjust="spacing" textLength="406" x="630.7128" y="143.8351">Anmeldung eines Akteurs am</text><text fill="#000000" font-family="sans-serif" font-size="28" lengthAdjust="spacing" textLength="266" x="704.7128" y="176.4289">Messenger-Service</text></g><g id="elem_UC2"><ellipse cx="838.328" cy="324.1418" fill="#F0F8FF" rx="297.328" ry="75.1418" style="stroke:#181818;stroke-width:1.0;"/><text fill="#000000" font-family="sans-serif" font-size="28" font-weight="bold" lengthAdjust="spacing" textLength="190" x="739.328" y="297.2414">&#171;AF_10104&#187;</text><text fill="#000000" font-family="sans-serif" font-size="28" lengthAdjust="spacing" textLength="8" x="929.328" y="297.2414">&#160;</text><text fill="#000000" font-family="sans-serif" font-size="28" lengthAdjust="spacing" textLength="328" x="670.328" y="329.8351">Einladung von Akteuren</text><text fill="#000000" font-family="sans-serif" font-size="28" lengthAdjust="spacing" textLength="388" x="644.328" y="362.4289">innerhalb einer Organisation</text></g><g id="elem_UC3"><ellipse cx="838.328" cy="534.189" fill="#F0F8FF" rx="297.328" ry="98.189" style="stroke:#181818;stroke-width:1.0;"/><text fill="#000000" font-family="sans-serif" font-size="28" font-weight="bold" lengthAdjust="spacing" textLength="190" x="739.328" y="490.9918">&#171;AF_10063&#187;</text><text fill="#000000" font-family="sans-serif" font-size="28" lengthAdjust="spacing" textLength="8" x="929.328" y="490.9918">&#160;</text><text fill="#000000" font-family="sans-serif" font-size="28" lengthAdjust="spacing" textLength="306" x="681.328" y="523.5855">Austausch von Events</text><text fill="#000000" font-family="sans-serif" font-size="28" lengthAdjust="spacing" textLength="264" x="702.328" y="556.1793">zwischen Akteuren</text><text fill="#000000" font-family="sans-serif" font-size="28" lengthAdjust="spacing" textLength="388" x="644.328" y="588.773">innerhalb einer Organisation</text></g><g id="elem_UC4"><ellipse cx="838.3991" cy="744.1418" fill="#FFFFF0" rx="304.3991" ry="75.1418" style="stroke:#181818;stroke-width:1.0;"/><text fill="#000000" font-family="sans-serif" font-size="28" font-weight="bold" lengthAdjust="spacing" textLength="190" x="739.3991" y="717.2414">&#171;AF_10061&#187;</text><text fill="#000000" font-family="sans-serif" font-size="28" lengthAdjust="spacing" textLength="8" x="929.3991" y="717.2414">&#160;</text><text fill="#000000" font-family="sans-serif" font-size="28" lengthAdjust="spacing" textLength="328" x="670.3991" y="749.8351">Einladung von Akteuren</text><text fill="#000000" font-family="sans-serif" font-size="28" lengthAdjust="spacing" textLength="398" x="639.3991" y="782.4289">au&#223;erhalb einer Organisation</text></g><g id="elem_UC5"><ellipse cx="838.3991" cy="954.189" fill="#FFFFF0" rx="304.3991" ry="98.189" style="stroke:#181818;stroke-width:1.0;"/><text fill="#000000" font-family="sans-serif" font-size="28" font-weight="bold" lengthAdjust="spacing" textLength="190" x="739.3991" y="910.9918">&#171;AF_10062&#187;</text><text fill="#000000" font-family="sans-serif" font-size="28" lengthAdjust="spacing" textLength="8" x="929.3991" y="910.9918">&#160;</text><text fill="#000000" font-family="sans-serif" font-size="28" lengthAdjust="spacing" textLength="306" x="681.3991" y="943.5855">Austausch von Events</text><text fill="#000000" font-family="sans-serif" font-size="28" lengthAdjust="spacing" textLength="264" x="702.3991" y="976.1793">zwischen Akteuren</text><text fill="#000000" font-family="sans-serif" font-size="28" lengthAdjust="spacing" textLength="398" x="639.3991" y="1008.773">au&#223;erhalb einer Organisation</text></g><g id="elem_UC6"><ellipse cx="837.7036" cy="1160.1407" fill="#CD5C5C" rx="331.7036" ry="71.1407" style="stroke:#181818;stroke-width:1.0;"/><text fill="#000000" font-family="sans-serif" font-size="28" font-weight="bold" lengthAdjust="spacing" textLength="190" x="738.7036" y="1149.5372">&#171;AF_10235&#187;</text><text fill="#000000" font-family="sans-serif" font-size="28" lengthAdjust="spacing" textLength="8" x="928.7036" y="1149.5372">&#160;</text><text fill="#000000" font-family="sans-serif" font-size="28" lengthAdjust="spacing" textLength="540" x="567.7036" y="1182.1309">Eintr&#228;ge im VZD-FHIR-Directory suchen</text></g><polygon fill="#000000" points="521.6445,209.7705,502.0355,211.6372,512.9324,214.6796,509.8901,225.5766,521.6445,209.7705" style="stroke:#000000;stroke-width:2.0;"/><path d="M254.1237,563.4089 C293.4459,470.4172 372.4167,315.4511 490,230 C500.0563,222.6918 500.1985,221.855 511.19,215.6615 " fill="none" style="stroke:#000000;stroke-width:2.0;"/><polygon fill="#000000" points="540.9493,394.5796,521.2619,393.9417,531.6844,398.3429,527.2832,408.7655,540.9493,394.5796" style="stroke:#000000;stroke-width:2.0;"/><path d="M278.666,582.7331 C328.8172,532.4331 408.0734,460.7876 490,418 C506.2767,409.4992 512.2788,406.2254 529.8315,399.0956 " fill="none" style="stroke:#000000;stroke-width:2.0;"/><polygon fill="#000000" points="540.4905,585.2668,521.3879,580.4613,530.6376,586.9761,524.1228,596.2258,540.4905,585.2668" style="stroke:#000000;stroke-width:2.0;"/><path d="M278.1534,630.7786 C337.9628,620.4025 428.1254,604.7606 528.6671,587.318 " fill="none" style="stroke:#000000;stroke-width:2.0;"/><polygon fill="#000000" points="533.9,692.5787,517.4976,681.6718,524.0418,690.9007,514.8128,697.4449,533.9,692.5787" style="stroke:#000000;stroke-width:2.0;"/><path d="M278.1534,649.0474 C336.6563,659.0053 423.6834,673.8185 522.0701,690.5651 " fill="none" style="stroke:#000000;stroke-width:2.0;"/><polygon fill="#000000" points="533.8912,867.1262,522.6068,850.9811,525.3273,861.9629,514.3456,864.6833,533.8912,867.1262" style="stroke:#000000;stroke-width:2.0;"/><path d="M278.4577,653.6214 C324.2232,667.5243 389.574,692.9699 434,734 C471.9921,769.088 450.4016,802.7354 490,836 C503.6068,847.4303 508.0995,851.576 523.6145,860.9302 " fill="none" style="stroke:#000000;stroke-width:2.0;"/><polygon fill="#000000" points="509.419,1088.5654,500.7689,1070.8686,501.7573,1082.139,490.4868,1083.1273,509.419,1088.5654" style="stroke:#000000;stroke-width:2.0;"/><path d="M278.4137,649.321 C326.7897,660.6889 396.1112,684.8411 434,734 C526.4199,853.9102 387.8353,958.2759 490,1070 C496.0734,1076.6417 493.3748,1075.1081 500.2249,1080.8538 " fill="none" style="stroke:#000000;stroke-width:2.0;"/></g></svg>