<?xml version="1.0" encoding="us-ascii" standalone="no"?><svg xmlns="http://www.w3.org/2000/svg" xmlns:xlink="http://www.w3.org/1999/xlink" contentStyleType="text/css" height="1472px" preserveAspectRatio="none" style="width:1288px;height:1472px;background:#FFFFFF;" version="1.1" viewBox="0 0 1288 1472" width="1288px" zoomAndPan="magnify"><defs/><g><!--cluster Rolle--><g id="cluster_Rolle"><path d="M119,572 L197,572 A7.5,7.5 0 0 1 202,577 L216,616.5938 L383,616.5938 A5,5 0 0 1 388,621.5938 L388,821 A5,5 0 0 1 383,826 L119,826 A5,5 0 0 1 114,821 L114,577 A5,5 0 0 1 119,572 " fill="none" style="stroke:#000000;stroke-width:3.0;"/><line style="stroke:#000000;stroke-width:3.0;" x1="114" x2="216" y1="616.5938" y2="616.5938"/><text fill="#000000" font-family="sans-serif" font-size="28" font-weight="bold" lengthAdjust="spacing" textLength="76" x="122" y="601.9902">Rolle</text></g><!--cluster Anwendungsf?lle--><g id="cluster_Anwendungsf&#228;lle"><path d="M583,12 L859,12 A7.5,7.5 0 0 1 864,17 L878,56.5938 L1269,56.5938 A5,5 0 0 1 1274,61.5938 L1274,1453 A5,5 0 0 1 1269,1458 L583,1458 A5,5 0 0 1 578,1453 L578,17 A5,5 0 0 1 583,12 " fill="none" style="stroke:#000000;stroke-width:3.0;"/><line style="stroke:#000000;stroke-width:3.0;" x1="578" x2="878" y1="56.5938" y2="56.5938"/><text fill="#000000" font-family="sans-serif" font-size="28" font-weight="bold" lengthAdjust="spacing" textLength="274" x="586" y="41.9902">Anwendungsf&#228;lle</text></g><!--entity uuh--><g id="elem_uuh"><ellipse cx="251" cy="675" fill="#DCDCDC" rx="32" ry="32" style="stroke:#000000;stroke-width:1.0;"/><path d="M251,715 C259,715 265,715 273,707 C289,707 305,723 305,739 L305,747 C305,755 297,763 289,763 L213,763 C205,763 197,755 197,747 L197,739 C197,723 213,707 229,707 C237,715 243,715 251,715 " fill="#DCDCDC" style="stroke:#000000;stroke-width:1.0;"/><text fill="#000000" font-family="Aapex" font-size="26" lengthAdjust="spacing" textLength="210" x="146" y="788.1338">User / User-HBA</text></g><g id="elem_UC1"><ellipse cx="925.7128" cy="156.1418" fill="#F1F1F1" rx="315.7128" ry="75.1418" style="stroke:#181818;stroke-width:1.0;"/><text fill="#000000" font-family="sans-serif" font-size="28" font-weight="bold" lengthAdjust="spacing" textLength="190" x="826.7128" y="129.2414">&#171;AF_10057&#187;</text><text fill="#000000" font-family="sans-serif" font-size="28" lengthAdjust="spacing" textLength="8" x="1016.7128" y="129.2414">&#160;</text><text fill="#000000" font-family="sans-serif" font-size="28" lengthAdjust="spacing" textLength="406" x="718.7128" y="161.8351">Anmeldung eines Akteurs am</text><text fill="#000000" font-family="sans-serif" font-size="28" lengthAdjust="spacing" textLength="266" x="792.7128" y="194.4289">Messenger-Service</text></g><g id="elem_UC2"><ellipse cx="925.8843" cy="376.1418" fill="#F1F1F1" rx="312.8843" ry="75.1418" style="stroke:#181818;stroke-width:1.0;"/><text fill="#000000" font-family="sans-serif" font-size="28" font-weight="bold" lengthAdjust="spacing" textLength="190" x="826.8843" y="349.2414">&#171;AF_10058&#187;</text><text fill="#000000" font-family="sans-serif" font-size="28" lengthAdjust="spacing" textLength="8" x="1016.8843" y="349.2414">&#160;</text><text fill="#000000" font-family="sans-serif" font-size="28" lengthAdjust="spacing" textLength="290" x="776.8843" y="381.8351">Akteur (User-HBA) im</text><text fill="#000000" font-family="sans-serif" font-size="28" lengthAdjust="spacing" textLength="410" x="720.8843" y="414.4289">Verzeichnisdienst hinzuf&#252;gen</text></g><g id="elem_UC3"><ellipse cx="926.328" cy="596.1418" fill="#F0F8FF" rx="297.328" ry="75.1418" style="stroke:#181818;stroke-width:1.0;"/><text fill="#000000" font-family="sans-serif" font-size="28" font-weight="bold" lengthAdjust="spacing" textLength="190" x="827.328" y="569.2414">&#171;AF_10104&#187;</text><text fill="#000000" font-family="sans-serif" font-size="28" lengthAdjust="spacing" textLength="8" x="1017.328" y="569.2414">&#160;</text><text fill="#000000" font-family="sans-serif" font-size="28" lengthAdjust="spacing" textLength="328" x="758.328" y="601.8351">Einladung von Akteuren</text><text fill="#000000" font-family="sans-serif" font-size="28" lengthAdjust="spacing" textLength="388" x="732.328" y="634.4289">innerhalb einer Organisation</text></g><g id="elem_UC4"><ellipse cx="926.328" cy="840.189" fill="#F0F8FF" rx="297.328" ry="98.189" style="stroke:#181818;stroke-width:1.0;"/><text fill="#000000" font-family="sans-serif" font-size="28" font-weight="bold" lengthAdjust="spacing" textLength="190" x="827.328" y="796.9918">&#171;AF_10063&#187;</text><text fill="#000000" font-family="sans-serif" font-size="28" lengthAdjust="spacing" textLength="8" x="1017.328" y="796.9918">&#160;</text><text fill="#000000" font-family="sans-serif" font-size="28" lengthAdjust="spacing" textLength="306" x="769.328" y="829.5855">Austausch von Events</text><text fill="#000000" font-family="sans-serif" font-size="28" lengthAdjust="spacing" textLength="264" x="790.328" y="862.1793">zwischen Akteuren</text><text fill="#000000" font-family="sans-serif" font-size="28" lengthAdjust="spacing" textLength="388" x="732.328" y="894.773">innerhalb einer Organisation</text></g><g id="elem_UC5"><ellipse cx="926.3991" cy="1084.1418" fill="#FFFFF0" rx="304.3991" ry="75.1418" style="stroke:#181818;stroke-width:1.0;"/><text fill="#000000" font-family="sans-serif" font-size="28" font-weight="bold" lengthAdjust="spacing" textLength="190" x="827.3991" y="1057.2414">&#171;AF_10061&#187;</text><text fill="#000000" font-family="sans-serif" font-size="28" lengthAdjust="spacing" textLength="8" x="1017.3991" y="1057.2414">&#160;</text><text fill="#000000" font-family="sans-serif" font-size="28" lengthAdjust="spacing" textLength="328" x="758.3991" y="1089.8351">Einladung von Akteuren</text><text fill="#000000" font-family="sans-serif" font-size="28" lengthAdjust="spacing" textLength="398" x="727.3991" y="1122.4289">au&#223;erhalb einer Organisation</text></g><g id="elem_UC6"><ellipse cx="926.3991" cy="1328.189" fill="#FFFFF0" rx="304.3991" ry="98.189" style="stroke:#181818;stroke-width:1.0;"/><text fill="#000000" font-family="sans-serif" font-size="28" font-weight="bold" lengthAdjust="spacing" textLength="190" x="827.3991" y="1284.9918">&#171;AF_10062&#187;</text><text fill="#000000" font-family="sans-serif" font-size="28" lengthAdjust="spacing" textLength="8" x="1017.3991" y="1284.9918">&#160;</text><text fill="#000000" font-family="sans-serif" font-size="28" lengthAdjust="spacing" textLength="306" x="769.3991" y="1317.5855">Austausch von Events</text><text fill="#000000" font-family="sans-serif" font-size="28" lengthAdjust="spacing" textLength="264" x="790.3991" y="1350.1793">zwischen Akteuren</text><text fill="#000000" font-family="sans-serif" font-size="28" lengthAdjust="spacing" textLength="398" x="727.3991" y="1382.773">au&#223;erhalb einer Organisation</text></g><g id="elem_GMN17"><path d="M12,864 L12,944.5313 A0,0 0 0 0 12,944.5313 L490,944.5313 A0,0 0 0 0 490,944.5313 L490,884 L470,864 L259,864 L251,794.06 L243,864 L12,864 A0,0 0 0 0 12,864 " fill="#FEFFDD" style="stroke:#181818;stroke-width:1.0;"/><path d="M470,864 L470,884 L490,884 L470,864 " fill="#FEFFDD" style="stroke:#181818;stroke-width:1.0;"/><text fill="#000000" font-family="sans-serif" font-size="26" lengthAdjust="spacing" textLength="428" x="24" y="898.1338">z. B. Leistungserbringer im Besitz</text><text fill="#000000" font-family="sans-serif" font-size="26" lengthAdjust="spacing" textLength="146" x="24" y="928.3994">eines HBAs</text></g><!--link uuh to UC1--><g id="link_uuh_UC1"><path d="M285.54,641.3 C332.2,540.5 427.5,364.7 562,266 C598.02,239.58 629.1412,223.462 672.0212,208.122 " fill="none" id="uuh-to-UC1" style="stroke:#000000;stroke-width:2.0;"/><polygon fill="#000000" points="683.32,204.08,663.6772,202.6106,673.9044,207.4484,669.0666,217.6756,683.32,204.08" style="stroke:#000000;stroke-width:2.0;"/></g><!--link uuh to UC2--><g id="link_uuh_UC2"><path d="M337.46,641.72 C396.7,591.56 479.74,527.74 562,486 C606.52,463.42 645.0643,448.1767 693.3643,432.8167 " fill="none" id="uuh-to-UC2" style="stroke:#000000;stroke-width:2.0;"/><polygon fill="#000000" points="704.8,429.18,685.222,427.0112,695.2703,432.2106,690.071,442.2588,704.8,429.18" style="stroke:#000000;stroke-width:2.0;"/></g><!--link uuh to UC3--><g id="link_uuh_UC3"><path d="M356.38,699.2 C443.5,683.36 559.7737,662.2275 672.2537,641.7675 " fill="none" id="uuh-to-UC3" style="stroke:#000000;stroke-width:2.0;"/><polygon fill="#000000" points="684.06,639.62,664.9189,634.9705,674.2214,641.4096,667.7823,650.7122,684.06,639.62" style="stroke:#000000;stroke-width:2.0;"/></g><!--link uuh to UC4--><g id="link_uuh_UC4"><path d="M356.38,736.8 C438.54,751.74 545.3136,771.1534 652.8936,790.7134 " fill="none" id="uuh-to-UC4" style="stroke:#000000;stroke-width:2.0;"/><polygon fill="#000000" points="664.7,792.86,648.4214,781.7691,654.8613,791.0711,645.5593,797.511,664.7,792.86" style="stroke:#000000;stroke-width:2.0;"/></g><!--link uuh to UC5--><g id="link_uuh_UC5"><path d="M356.02,748.5 C401.4,765.98 452.74,791.82 490,828 C541.32,877.86 507.44,925.7 562,972 C596.62,1001.36 627.6051,1018.8773 670.8651,1034.8773 " fill="none" id="uuh-to-UC5" style="stroke:#000000;stroke-width:2.0;"/><polygon fill="#000000" points="682.12,1039.04,668.0128,1025.2927,672.7409,1035.5711,662.4626,1040.2992,682.12,1039.04" style="stroke:#000000;stroke-width:2.0;"/></g><!--link uuh to UC6--><g id="link_uuh_UC6"><path d="M356.56,742.72 C404.02,759.22 456.96,785.88 490,828 C592.34,958.44 454.54,1067.76 562,1194 C591.54,1228.7 619.9961,1249.4532 661.9161,1268.5132 " fill="none" id="uuh-to-UC6" style="stroke:#000000;stroke-width:2.0;"/><polygon fill="#000000" points="672.84,1273.48,659.7654,1258.7472,663.7368,1269.341,653.143,1273.3124,672.84,1273.48" style="stroke:#000000;stroke-width:2.0;"/></g></g></svg>