<?xml version="1.0" encoding="us-ascii" standalone="no"?><svg xmlns="http://www.w3.org/2000/svg" xmlns:xlink="http://www.w3.org/1999/xlink" contentStyleType="text/css" height="481px" preserveAspectRatio="none" style="width:1363px;height:481px;background:#FFFFFF;" version="1.1" viewBox="0 0 1363 481" width="1363px" zoomAndPan="magnify"><defs/><g><rect fill="#DCDCDC" height="201.7344" style="stroke:#000000;stroke-width:1.0;" width="10" x="403" y="149.0703"/><rect fill="#DCDCDC" height="33.7891" style="stroke:#000000;stroke-width:1.0;" width="10" x="737" y="182.8594"/><rect fill="#DCDCDC" height="252.5234" style="stroke:#000000;stroke-width:1.0;" width="10" x="1245" y="98.2813"/><line style="stroke:#000000;stroke-width:0.5;stroke-dasharray:5.0,5.0;" x1="69" x2="69" y1="88.2813" y2="393.8047"/><line style="stroke:#000000;stroke-width:0.5;stroke-dasharray:5.0,5.0;" x1="407.5" x2="407.5" y1="88.2813" y2="393.8047"/><line style="stroke:#000000;stroke-width:0.5;stroke-dasharray:5.0,5.0;" x1="742" x2="742" y1="88.2813" y2="393.8047"/><line style="stroke:#000000;stroke-width:0.5;stroke-dasharray:5.0,5.0;" x1="966" x2="966" y1="88.2813" y2="393.8047"/><line style="stroke:#000000;stroke-width:0.5;stroke-dasharray:5.0,5.0;" x1="1250" x2="1250" y1="88.2813" y2="393.8047"/><text fill="#000000" font-family="sans-serif" font-size="20" lengthAdjust="spacing" textLength="122" x="5" y="83.5645">Versicherter</text><ellipse cx="69" cy="13.5" fill="#DCDCDC" rx="8" ry="8" style="stroke:#000000;stroke-width:0.5;"/><path d="M69,21.5 L69,48.5 M56,29.5 L82,29.5 M69,48.5 L56,63.5 M69,48.5 L82,63.5 " fill="none" style="stroke:#000000;stroke-width:0.5;"/><text fill="#000000" font-family="sans-serif" font-size="20" lengthAdjust="spacing" textLength="122" x="5" y="411.3691">Versicherter</text><ellipse cx="69" cy="424.5859" fill="#DCDCDC" rx="8" ry="8" style="stroke:#000000;stroke-width:0.5;"/><path d="M69,432.5859 L69,459.5859 M56,440.5859 L82,440.5859 M69,459.5859 L56,474.5859 M69,459.5859 L82,474.5859 " fill="none" style="stroke:#000000;stroke-width:0.5;"/><rect fill="#EFEFFF" height="37.2813" rx="2.5" ry="2.5" style="stroke:#000000;stroke-width:0.5;" width="279" x="268.5" y="50"/><text fill="#000000" font-family="sans-serif" font-size="20" lengthAdjust="spacing" textLength="265" x="275.5" y="75.5645">Frontend des Versicherten</text><rect fill="#EFEFFF" height="37.2813" rx="2.5" ry="2.5" style="stroke:#000000;stroke-width:0.5;" width="279" x="268.5" y="392.8047"/><text fill="#000000" font-family="sans-serif" font-size="20" lengthAdjust="spacing" textLength="265" x="275.5" y="418.3691">Frontend des Versicherten</text><rect fill="#EFEFFF" height="37.2813" rx="2.5" ry="2.5" style="stroke:#000000;stroke-width:0.5;" width="214" x="635" y="50"/><text fill="#000000" font-family="sans-serif" font-size="20" lengthAdjust="spacing" textLength="141" x="671.5" y="75.5645">Push-Anbieter</text><rect fill="#EFEFFF" height="37.2813" rx="2.5" ry="2.5" style="stroke:#000000;stroke-width:0.5;" width="214" x="635" y="392.8047"/><text fill="#000000" font-family="sans-serif" font-size="20" lengthAdjust="spacing" textLength="141" x="671.5" y="418.3691">Push-Anbieter</text><rect fill="#EFEFFF" height="37.2813" rx="2.5" ry="2.5" style="stroke:#000000;stroke-width:0.5;" width="214" x="859" y="50"/><text fill="#000000" font-family="sans-serif" font-size="20" lengthAdjust="spacing" textLength="143" x="894.5" y="75.5645">Push-Gateway</text><rect fill="#EFEFFF" height="37.2813" rx="2.5" ry="2.5" style="stroke:#000000;stroke-width:0.5;" width="214" x="859" y="392.8047"/><text fill="#000000" font-family="sans-serif" font-size="20" lengthAdjust="spacing" textLength="143" x="894.5" y="418.3691">Push-Gateway</text><rect fill="#EFEFFF" height="37.2813" rx="2.5" ry="2.5" style="stroke:#000000;stroke-width:0.5;" width="214" x="1143" y="50"/><text fill="#000000" font-family="sans-serif" font-size="20" lengthAdjust="spacing" textLength="110" x="1195" y="75.5645">Fachdienst</text><rect fill="#EFEFFF" height="37.2813" rx="2.5" ry="2.5" style="stroke:#000000;stroke-width:0.5;" width="214" x="1143" y="392.8047"/><text fill="#000000" font-family="sans-serif" font-size="20" lengthAdjust="spacing" textLength="110" x="1195" y="418.3691">Fachdienst</text><rect fill="#DCDCDC" height="201.7344" style="stroke:#000000;stroke-width:1.0;" width="10" x="403" y="149.0703"/><rect fill="#DCDCDC" height="33.7891" style="stroke:#000000;stroke-width:1.0;" width="10" x="737" y="182.8594"/><rect fill="#DCDCDC" height="252.5234" style="stroke:#000000;stroke-width:1.0;" width="10" x="1245" y="98.2813"/><polygon fill="#000000" points="391,145.0703,401,149.0703,391,153.0703,395,149.0703" style="stroke:#000000;stroke-width:1.0;"/><line style="stroke:#000000;stroke-width:1.0;" x1="69" x2="397" y1="149.0703" y2="149.0703"/><text fill="#000000" font-family="sans-serif" font-size="17" font-weight="bold" lengthAdjust="spacing" textLength="12" x="76" y="143.061">1</text><text fill="#000000" font-family="sans-serif" font-size="17" lengthAdjust="spacing" textLength="299" x="92" y="143.061">installiert FdV auf dem Smartphone</text><polygon fill="#000000" points="725,178.8594,735,182.8594,725,186.8594,729,182.8594" style="stroke:#000000;stroke-width:1.0;"/><line style="stroke:#000000;stroke-width:1.0;" x1="413" x2="731" y1="182.8594" y2="182.8594"/><text fill="#000000" font-family="sans-serif" font-size="17" font-weight="bold" lengthAdjust="spacing" textLength="12" x="420" y="176.8501">2</text><text fill="#000000" font-family="sans-serif" font-size="17" lengthAdjust="spacing" textLength="289" x="436" y="176.8501">registriert sich beim Push-Anbieter</text><polygon fill="#000000" points="424,212.6484,414,216.6484,424,220.6484,420,216.6484" style="stroke:#000000;stroke-width:1.0;"/><line style="stroke:#000000;stroke-width:1.0;stroke-dasharray:2.0,2.0;" x1="418" x2="741" y1="216.6484" y2="216.6484"/><text fill="#000000" font-family="sans-serif" font-size="17" font-weight="bold" lengthAdjust="spacing" textLength="12" x="459" y="210.6392">3</text><text fill="#000000" font-family="sans-serif" font-size="17" lengthAdjust="spacing" textLength="260" x="475" y="210.6392">:anbieterspezifisches AppToken</text><line style="stroke:#000000;stroke-width:1.0;" x1="413" x2="455" y1="270.2266" y2="270.2266"/><line style="stroke:#000000;stroke-width:1.0;" x1="455" x2="455" y1="270.2266" y2="283.2266"/><line style="stroke:#000000;stroke-width:1.0;" x1="414" x2="455" y1="283.2266" y2="283.2266"/><polygon fill="#000000" points="424,279.2266,414,283.2266,424,287.2266,420,283.2266" style="stroke:#000000;stroke-width:1.0;"/><text fill="#000000" font-family="sans-serif" font-size="17" font-weight="bold" lengthAdjust="spacing" textLength="12" x="420" y="254.3228">4</text><text fill="#000000" font-family="sans-serif" font-size="17" lengthAdjust="spacing" textLength="79" x="436" y="244.4282">speichere</text><text fill="#000000" font-family="sans-serif" font-size="17" lengthAdjust="spacing" textLength="254" x="436" y="264.2173">anbieterspezifisches AppToken</text><polygon fill="#000000" points="1233,313.0156,1243,317.0156,1233,321.0156,1237,317.0156" style="stroke:#000000;stroke-width:1.0;"/><line style="stroke:#000000;stroke-width:1.0;" x1="413" x2="1239" y1="317.0156" y2="317.0156"/><text fill="#000000" font-family="sans-serif" font-size="17" font-weight="bold" lengthAdjust="spacing" textLength="12" x="420" y="311.0063">5</text><text fill="#000000" font-family="sans-serif" font-size="17" lengthAdjust="spacing" textLength="792" x="436" y="311.0063">konfiguriere zu verwendendes Gateway(Gateway-Information, anbieterspezifisches AppToken)</text><polygon fill="#000000" points="419,346.8047,409,350.8047,419,354.8047,415,350.8047" style="stroke:#000000;stroke-width:1.0;"/><line style="stroke:#000000;stroke-width:1.0;stroke-dasharray:2.0,2.0;" x1="413" x2="1249" y1="350.8047" y2="350.8047"/><text fill="#000000" font-family="sans-serif" font-size="17" font-weight="bold" lengthAdjust="spacing" textLength="12" x="987" y="344.7954">6</text><text fill="#000000" font-family="sans-serif" font-size="17" lengthAdjust="spacing" textLength="240" x="1003" y="344.7954">:Konfiguration &#252;bernommen</text><!--SRC=[XLFRRjf047tVhnYb3scb8eMeKYDK8Pb8IL5pKucIbxmCzjYiy5wwkpQKfd_Mj_vOnuj3324fGiQxSywSSsONFvVQeaC5ddvKf5Ew9E-neAIKXOPCEag3D5hu3L19VLgYz_So2pCuFZhgr4PcUODP9dK1_SxsK-_lb9DhNhuIPkH6cCuBPogTdPhIEB1OKk68M2tbLr2uvFwVJc3HI8az3U6NI9mpYpL_MdB3zSQPqM4YLmJzpo99Wt4ZurYnYxkGELr8JMzKTloTezH-QfmHuWPTaAcqg4ENVsc2h34Eh8lOwTD17NPWZUShL0HZPJ4DOgSKunmVxMvtZR_YQlIYk6le-dPybzoEhwz4EwrNayVohkvcyydZuMOd1ahGqbBy5WAhO7IbfkG4y2S-i8523UZXu8wSb-cCN21t4AlssJNasHfrvhWnwGmoyj2Xw3NbS6gMyCMpbK7_PDZSPz85kTw4N2rJUj3lxcSoq4IPERtGi1WbRYe_woLwAccl4riyeyunq09_xhExTelfB9EaVMZjDSxPeX2FZuyYvczk0p6ULtLlo347mFCEM9QISy5PTWTOvHnNmKInWfqPJTlKcfVyx0qj3i1H8NrmaTmC1wOa5Mnbwh8jYiPvhvKUO8lnbbOobvwdwo6nzfO7fXcQqJOrwaOgC-9P43pe_tLfMGEO6vtBechi4gmggCajU4RDrqCxtVVjRs-iS-DK_FDyX3SbFaIDJQXlhKgamjy_V0UrKOgjDCUmdIgUnDQw_WS0]--></g></svg>