<?xml version="1.0" encoding="us-ascii" standalone="no"?><svg xmlns="http://www.w3.org/2000/svg" xmlns:xlink="http://www.w3.org/1999/xlink" contentStyleType="text/css" height="933px" preserveAspectRatio="none" style="width:1301px;height:933px;background:#FFFFFF;" version="1.1" viewBox="0 0 1301 933" width="1301px" zoomAndPan="magnify"><defs/><g><rect fill="#DCDCDC" height="372.4688" style="stroke:#000000;stroke-width:1.0;" width="10" x="320" y="464.3281"/><rect fill="#DCDCDC" height="257.3125" style="stroke:#000000;stroke-width:1.0;" width="10" x="636" y="237.0156"/><rect fill="#DCDCDC" height="140.9453" style="stroke:#000000;stroke-width:1.0;" width="10" x="942" y="163.6484"/><rect fill="#DCDCDC" height="522.9922" style="stroke:#000000;stroke-width:1.0;" width="10" x="1183" y="98.2813"/><line style="stroke:#000000;stroke-width:0.5;stroke-dasharray:5.0,5.0;" x1="69" x2="69" y1="88.2813" y2="845.7969"/><line style="stroke:#000000;stroke-width:0.5;stroke-dasharray:5.0,5.0;" x1="324.5" x2="324.5" y1="88.2813" y2="845.7969"/><line style="stroke:#000000;stroke-width:0.5;stroke-dasharray:5.0,5.0;" x1="641" x2="641" y1="88.2813" y2="845.7969"/><line style="stroke:#000000;stroke-width:0.5;stroke-dasharray:5.0,5.0;" x1="947" x2="947" y1="88.2813" y2="845.7969"/><line style="stroke:#000000;stroke-width:0.5;stroke-dasharray:5.0,5.0;" x1="1188" x2="1188" y1="88.2813" y2="845.7969"/><text fill="#000000" font-family="sans-serif" font-size="20" lengthAdjust="spacing" textLength="122" x="5" y="83.5645">Versicherter</text><ellipse cx="69" cy="13.5" fill="#DCDCDC" rx="8" ry="8" style="stroke:#000000;stroke-width:0.5;"/><path d="M69,21.5 L69,48.5 M56,29.5 L82,29.5 M69,48.5 L56,63.5 M69,48.5 L82,63.5 " fill="none" style="stroke:#000000;stroke-width:0.5;"/><text fill="#000000" font-family="sans-serif" font-size="20" lengthAdjust="spacing" textLength="122" x="5" y="863.3613">Versicherter</text><ellipse cx="69" cy="876.5781" fill="#DCDCDC" rx="8" ry="8" style="stroke:#000000;stroke-width:0.5;"/><path d="M69,884.5781 L69,911.5781 M56,892.5781 L82,892.5781 M69,911.5781 L56,926.5781 M69,911.5781 L82,926.5781 " fill="none" style="stroke:#000000;stroke-width:0.5;"/><rect fill="#EFEFFF" height="70.5625" rx="2.5" ry="2.5" style="stroke:#000000;stroke-width:0.5;" width="279" x="185.5" y="16.7188"/><text fill="#000000" font-family="sans-serif" font-size="20" lengthAdjust="spacing" textLength="265" x="192.5" y="42.2832">Frontend des Versicherten</text><line style="stroke:#000000;stroke-width:1.0;" x1="185.5" x2="464.5" y1="52" y2="52"/><text fill="#000000" font-family="sans-serif" font-size="20" lengthAdjust="spacing" textLength="253" x="198.5" y="75.5645">Inhaber eines AppTokens</text><rect fill="#EFEFFF" height="70.5625" rx="2.5" ry="2.5" style="stroke:#000000;stroke-width:0.5;" width="279" x="185.5" y="844.7969"/><text fill="#000000" font-family="sans-serif" font-size="20" lengthAdjust="spacing" textLength="265" x="192.5" y="870.3613">Frontend des Versicherten</text><line style="stroke:#000000;stroke-width:1.0;" x1="185.5" x2="464.5" y1="880.0781" y2="880.0781"/><text fill="#000000" font-family="sans-serif" font-size="20" lengthAdjust="spacing" textLength="253" x="198.5" y="903.6426">Inhaber eines AppTokens</text><rect fill="#EFEFFF" height="37.2813" rx="2.5" ry="2.5" style="stroke:#000000;stroke-width:0.5;" width="214" x="534" y="50"/><text fill="#000000" font-family="sans-serif" font-size="20" lengthAdjust="spacing" textLength="141" x="570.5" y="75.5645">Push-Anbieter</text><rect fill="#EFEFFF" height="37.2813" rx="2.5" ry="2.5" style="stroke:#000000;stroke-width:0.5;" width="214" x="534" y="844.7969"/><text fill="#000000" font-family="sans-serif" font-size="20" lengthAdjust="spacing" textLength="141" x="570.5" y="870.3613">Push-Anbieter</text><rect fill="#EFEFFF" height="37.2813" rx="2.5" ry="2.5" style="stroke:#000000;stroke-width:0.5;" width="214" x="840" y="50"/><text fill="#000000" font-family="sans-serif" font-size="20" lengthAdjust="spacing" textLength="143" x="875.5" y="75.5645">Push-Gateway</text><rect fill="#EFEFFF" height="37.2813" rx="2.5" ry="2.5" style="stroke:#000000;stroke-width:0.5;" width="214" x="840" y="844.7969"/><text fill="#000000" font-family="sans-serif" font-size="20" lengthAdjust="spacing" textLength="143" x="875.5" y="870.3613">Push-Gateway</text><rect fill="#EFEFFF" height="37.2813" rx="2.5" ry="2.5" style="stroke:#000000;stroke-width:0.5;" width="214" x="1081" y="50"/><text fill="#000000" font-family="sans-serif" font-size="20" lengthAdjust="spacing" textLength="110" x="1133" y="75.5645">Fachdienst</text><rect fill="#EFEFFF" height="37.2813" rx="2.5" ry="2.5" style="stroke:#000000;stroke-width:0.5;" width="214" x="1081" y="844.7969"/><text fill="#000000" font-family="sans-serif" font-size="20" lengthAdjust="spacing" textLength="110" x="1133" y="870.3613">Fachdienst</text><rect fill="#DCDCDC" height="372.4688" style="stroke:#000000;stroke-width:1.0;" width="10" x="320" y="464.3281"/><rect fill="#DCDCDC" height="257.3125" style="stroke:#000000;stroke-width:1.0;" width="10" x="636" y="237.0156"/><rect fill="#DCDCDC" height="140.9453" style="stroke:#000000;stroke-width:1.0;" width="10" x="942" y="163.6484"/><rect fill="#DCDCDC" height="522.9922" style="stroke:#000000;stroke-width:1.0;" width="10" x="1183" y="98.2813"/><polygon fill="#000000" points="963,159.6484,953,163.6484,963,167.6484,959,163.6484" style="stroke:#000000;stroke-width:1.0;"/><line style="stroke:#000000;stroke-width:1.0;" x1="957" x2="1182" y1="163.6484" y2="163.6484"/><text fill="#000000" font-family="sans-serif" font-size="17" font-weight="bold" lengthAdjust="spacing" textLength="12" x="964" y="137.8501">1</text><text fill="#000000" font-family="sans-serif" font-size="17" lengthAdjust="spacing" textLength="147" x="980" y="118.061">Benachrichtigung</text><text fill="#000000" font-family="sans-serif" font-size="17" lengthAdjust="spacing" textLength="24" x="980" y="137.8501">f&#252;r</text><text fill="#000000" font-family="sans-serif" font-size="17" lengthAdjust="spacing" textLength="5" x="1004" y="137.8501">&#160;</text><text fill="#000000" font-family="sans-serif" font-size="17" lengthAdjust="spacing" textLength="167" x="1009" y="137.8501">anbieterspezifisches</text><text fill="#000000" font-family="sans-serif" font-size="17" lengthAdjust="spacing" textLength="164" x="980" y="157.6392">AppToken(EventID)</text><polygon fill="#000000" points="657,233.0156,647,237.0156,657,241.0156,653,237.0156" style="stroke:#000000;stroke-width:1.0;"/><line style="stroke:#000000;stroke-width:1.0;" x1="651" x2="941" y1="237.0156" y2="237.0156"/><text fill="#000000" font-family="sans-serif" font-size="17" font-weight="bold" lengthAdjust="spacing" textLength="12" x="723" y="211.2173">2</text><text fill="#000000" font-family="sans-serif" font-size="17" lengthAdjust="spacing" textLength="147" x="739" y="191.4282">Benachrichtigung</text><text fill="#000000" font-family="sans-serif" font-size="17" lengthAdjust="spacing" textLength="24" x="739" y="211.2173">f&#252;r</text><text fill="#000000" font-family="sans-serif" font-size="17" lengthAdjust="spacing" textLength="5" x="763" y="211.2173">&#160;</text><text fill="#000000" font-family="sans-serif" font-size="17" lengthAdjust="spacing" textLength="167" x="768" y="211.2173">anbieterspezifisches</text><text fill="#000000" font-family="sans-serif" font-size="17" lengthAdjust="spacing" textLength="164" x="739" y="231.0063">AppToken(EventID)</text><polygon fill="#000000" points="930,266.8047,940,270.8047,930,274.8047,934,270.8047" style="stroke:#000000;stroke-width:1.0;"/><line style="stroke:#000000;stroke-width:1.0;stroke-dasharray:2.0,2.0;" x1="646" x2="936" y1="270.8047" y2="270.8047"/><text fill="#000000" font-family="sans-serif" font-size="17" font-weight="bold" lengthAdjust="spacing" textLength="12" x="653" y="264.7954">3</text><text fill="#000000" font-family="sans-serif" font-size="17" lengthAdjust="spacing" textLength="79" x="669" y="264.7954">Response</text><polygon fill="#000000" points="1171,300.5938,1181,304.5938,1171,308.5938,1175,304.5938" style="stroke:#000000;stroke-width:1.0;"/><line style="stroke:#000000;stroke-width:1.0;stroke-dasharray:2.0,2.0;" x1="947" x2="1177" y1="304.5938" y2="304.5938"/><text fill="#000000" font-family="sans-serif" font-size="17" font-weight="bold" lengthAdjust="spacing" textLength="12" x="954" y="298.5845">4</text><text fill="#000000" font-family="sans-serif" font-size="17" lengthAdjust="spacing" textLength="79" x="970" y="298.5845">Response</text><line style="stroke:#000000;stroke-width:1.0;" x1="646" x2="688" y1="377.9609" y2="377.9609"/><line style="stroke:#000000;stroke-width:1.0;" x1="688" x2="688" y1="377.9609" y2="390.9609"/><line style="stroke:#000000;stroke-width:1.0;" x1="647" x2="688" y1="390.9609" y2="390.9609"/><polygon fill="#000000" points="657,386.9609,647,390.9609,657,394.9609,653,390.9609" style="stroke:#000000;stroke-width:1.0;"/><text fill="#000000" font-family="sans-serif" font-size="17" font-weight="bold" lengthAdjust="spacing" textLength="12" x="653" y="352.1626">5</text><text fill="#000000" font-family="sans-serif" font-size="17" lengthAdjust="spacing" textLength="68" x="669" y="332.3735">ermittle</text><text fill="#000000" font-family="sans-serif" font-size="17" lengthAdjust="spacing" textLength="266" x="669" y="352.1626">Empf&#228;nger(anbieterspezifisches</text><text fill="#000000" font-family="sans-serif" font-size="17" lengthAdjust="spacing" textLength="178" x="669" y="371.9517">AppToken):SenderID,</text><text fill="#000000" font-family="sans-serif" font-size="17" lengthAdjust="spacing" textLength="5" x="847" y="371.9517">&#160;</text><text fill="#000000" font-family="sans-serif" font-size="17" lengthAdjust="spacing" textLength="50" x="852" y="371.9517">AppID</text><polygon fill="#000000" points="341,460.3281,331,464.3281,341,468.3281,337,464.3281" style="stroke:#000000;stroke-width:1.0;"/><line style="stroke:#000000;stroke-width:1.0;" x1="335" x2="635" y1="464.3281" y2="464.3281"/><text fill="#000000" font-family="sans-serif" font-size="17" font-weight="bold" lengthAdjust="spacing" textLength="12" x="353" y="438.5298">6</text><text fill="#000000" font-family="sans-serif" font-size="17" lengthAdjust="spacing" textLength="147" x="369" y="418.7407">Benachrichtigung</text><text fill="#000000" font-family="sans-serif" font-size="17" lengthAdjust="spacing" textLength="5" x="516" y="418.7407">&#160;</text><text fill="#000000" font-family="sans-serif" font-size="17" lengthAdjust="spacing" textLength="21" x="521" y="418.7407">an</text><text fill="#000000" font-family="sans-serif" font-size="17" lengthAdjust="spacing" textLength="172" x="369" y="438.5298">Empf&#228;nger(EventID,</text><text fill="#000000" font-family="sans-serif" font-size="17" lengthAdjust="spacing" textLength="5" x="541" y="438.5298">&#160;</text><text fill="#000000" font-family="sans-serif" font-size="17" lengthAdjust="spacing" textLength="83" x="546" y="438.5298">SenderID,</text><text fill="#000000" font-family="sans-serif" font-size="17" lengthAdjust="spacing" textLength="57" x="369" y="458.3188">AppID)</text><polygon fill="#000000" points="1171,563.6953,1181,567.6953,1171,571.6953,1175,567.6953" style="stroke:#000000;stroke-width:1.0;"/><line style="stroke:#000000;stroke-width:1.0;" x1="330" x2="1177" y1="567.6953" y2="567.6953"/><text fill="#000000" font-family="sans-serif" font-size="17" font-weight="bold" lengthAdjust="spacing" textLength="12" x="337" y="541.897">7</text><text fill="#000000" font-family="sans-serif" font-size="17" lengthAdjust="spacing" textLength="64" x="353" y="522.1079">Abfrage</text><text fill="#000000" font-family="sans-serif" font-size="17" lengthAdjust="spacing" textLength="5" x="417" y="522.1079">&#160;</text><text fill="#000000" font-family="sans-serif" font-size="17" lengthAdjust="spacing" textLength="27" x="422" y="522.1079">der</text><text fill="#000000" font-family="sans-serif" font-size="17" lengthAdjust="spacing" textLength="5" x="449" y="522.1079">&#160;</text><text fill="#000000" font-family="sans-serif" font-size="17" lengthAdjust="spacing" textLength="51" x="454" y="522.1079">Daten</text><text fill="#000000" font-family="sans-serif" font-size="17" lengthAdjust="spacing" textLength="5" x="505" y="522.1079">&#160;</text><text fill="#000000" font-family="sans-serif" font-size="17" lengthAdjust="spacing" textLength="19" x="510" y="522.1079">zu</text><text fill="#000000" font-family="sans-serif" font-size="17" lengthAdjust="spacing" textLength="129" x="353" y="541.897">Event(EventID,</text><text fill="#000000" font-family="sans-serif" font-size="17" lengthAdjust="spacing" textLength="167" x="353" y="561.686">anbieterspezifisches</text><text fill="#000000" font-family="sans-serif" font-size="17" lengthAdjust="spacing" textLength="5" x="520" y="561.686">&#160;</text><text fill="#000000" font-family="sans-serif" font-size="17" lengthAdjust="spacing" textLength="89" x="525" y="561.686">AppToken)</text><polygon fill="#000000" points="341,617.2734,331,621.2734,341,625.2734,337,621.2734" style="stroke:#000000;stroke-width:1.0;"/><line style="stroke:#000000;stroke-width:1.0;stroke-dasharray:2.0,2.0;" x1="335" x2="1187" y1="621.2734" y2="621.2734"/><text fill="#000000" font-family="sans-serif" font-size="17" font-weight="bold" lengthAdjust="spacing" textLength="12" x="951" y="605.3696">8</text><text fill="#000000" font-family="sans-serif" font-size="17" lengthAdjust="spacing" textLength="125" x="967" y="595.4751">:Verschl&#252;sselte</text><text fill="#000000" font-family="sans-serif" font-size="17" lengthAdjust="spacing" textLength="214" x="967" y="615.2642">Benachrichtigungsinhalte</text><line style="stroke:#000000;stroke-width:1.0;" x1="330" x2="372" y1="694.6406" y2="694.6406"/><line style="stroke:#000000;stroke-width:1.0;" x1="372" x2="372" y1="694.6406" y2="707.6406"/><line style="stroke:#000000;stroke-width:1.0;" x1="331" x2="372" y1="707.6406" y2="707.6406"/><polygon fill="#000000" points="341,703.6406,331,707.6406,341,711.6406,337,707.6406" style="stroke:#000000;stroke-width:1.0;"/><text fill="#000000" font-family="sans-serif" font-size="17" font-weight="bold" lengthAdjust="spacing" textLength="12" x="337" y="668.8423">9</text><text fill="#000000" font-family="sans-serif" font-size="17" lengthAdjust="spacing" textLength="113" x="353" y="649.0532">Entschl&#252;ssele</text><text fill="#000000" font-family="sans-serif" font-size="17" lengthAdjust="spacing" textLength="126" x="353" y="668.8423">(Verschl&#252;sselte</text><text fill="#000000" font-family="sans-serif" font-size="17" lengthAdjust="spacing" textLength="221" x="353" y="688.6313">Benachrichtigungsinhalte)</text><line style="stroke:#000000;stroke-width:1.0;" x1="330" x2="372" y1="781.0078" y2="781.0078"/><line style="stroke:#000000;stroke-width:1.0;" x1="372" x2="372" y1="781.0078" y2="794.0078"/><line style="stroke:#000000;stroke-width:1.0;" x1="331" x2="372" y1="794.0078" y2="794.0078"/><polygon fill="#000000" points="341,790.0078,331,794.0078,341,798.0078,337,794.0078" style="stroke:#000000;stroke-width:1.0;"/><text fill="#000000" font-family="sans-serif" font-size="17" font-weight="bold" lengthAdjust="spacing" textLength="24" x="337" y="755.2095">10</text><text fill="#000000" font-family="sans-serif" font-size="17" lengthAdjust="spacing" textLength="66" x="365" y="735.4204">erzeuge</text><text fill="#000000" font-family="sans-serif" font-size="17" lengthAdjust="spacing" textLength="230" x="365" y="755.2095">Anwenderbenachrichtigung</text><text fill="#000000" font-family="sans-serif" font-size="17" lengthAdjust="spacing" textLength="5" x="595" y="755.2095">&#160;</text><text fill="#000000" font-family="sans-serif" font-size="17" lengthAdjust="spacing" textLength="29" x="600" y="755.2095">mit</text><text fill="#000000" font-family="sans-serif" font-size="17" lengthAdjust="spacing" textLength="5" x="365" y="774.9985">&#160;</text><text fill="#000000" font-family="sans-serif" font-size="17" lengthAdjust="spacing" textLength="31" x="370" y="774.9985">den</text><text fill="#000000" font-family="sans-serif" font-size="17" lengthAdjust="spacing" textLength="5" x="401" y="774.9985">&#160;</text><text fill="#000000" font-family="sans-serif" font-size="17" lengthAdjust="spacing" textLength="130" x="406" y="774.9985">entschl&#252;sselten</text><text fill="#000000" font-family="sans-serif" font-size="17" lengthAdjust="spacing" textLength="5" x="536" y="774.9985">&#160;</text><text fill="#000000" font-family="sans-serif" font-size="17" lengthAdjust="spacing" textLength="71" x="541" y="774.9985">Inhalten</text><polygon fill="#000000" points="80,823.7969,70,827.7969,80,831.7969,76,827.7969" style="stroke:#000000;stroke-width:1.0;"/><line style="stroke:#000000;stroke-width:1.0;" x1="74" x2="319" y1="827.7969" y2="827.7969"/><text fill="#000000" font-family="sans-serif" font-size="17" font-weight="bold" lengthAdjust="spacing" textLength="24" x="86" y="821.7876">11</text><text fill="#000000" font-family="sans-serif" font-size="17" lengthAdjust="spacing" textLength="47" x="114" y="821.7876">Zeige</text><text fill="#000000" font-family="sans-serif" font-size="17" lengthAdjust="spacing" textLength="5" x="161" y="821.7876">&#160;</text><text fill="#000000" font-family="sans-serif" font-size="17" lengthAdjust="spacing" textLength="147" x="166" y="821.7876">Benachrichtigung</text><!--SRC=[hPJ1Jjj048RlVeeLfqGY4j1AhN90SWXGIr0GH5HgwM5YZvqLpknsT-tGL7sRFWOtNgpZjS762QY7-X1PCxF__ytCnlPEaWO3Is7nHu4KupbQ2nc6kSn89D9WxAIYm3uNBYKTvM3j5vcuXJZOs-la9kh-4f94KYRsE-4dxIjCqLGldn0ID1E8xpAZ2agELAwCq91ZPX3PBUPNiOHxrd__KQmggou2t3UOrtADuXqpR74JluBG6BMgnUSvkzM14qNE7zp_48InKsQY3EDqwyvaYcUIy8rC3_uK9DcvCYe8Bi4u6KiDvBhdpvMJ9VXfTYjwEjkhdf4FzlhXBjmhpfEDPD_qOXRTXBFeudFGJEJLxdowx_iSV6By7GHGE4N5Seuc4Fpu7wZgH2d0YfqRD5R62pGEpOxFwXPGf4afllce42U6bP4IaQ0LdMFKv4VyDAyHBO0T1VA6h0Yrdgax9EkptpTCD7YIoy8kHY7D9Mv5qLbRTGeEL_1p6wylEe5uaKXsT3iyWTYl4ZaPfCdeK6TZCK7Y4iCTE9aL_3-vfVJnmGXexAt6jKobvGvR_i5nYUIYwR2Lr5cWCvQ4_oW9WOPHZNc5LYkoM9cC3jEa4qdm1GJK46YMqZd-qnulTVhuXp8qWpS1XkDhNYcQQBfRnQAfb-ArRsa8g2lRaE-Adi2mE_3o1IVm_CkwZt2U6lvmy5qoOif94kj2UCbM-6tmQfSDwRYwZV4YVtom5dDswgDRoHUI4rqQVnlAMk6ON7iUUNE3VrKSjY9erbXmIo6j_4Jc_VdnQcxvOywzOjUlQZwgrQXMAyTVKMQRfi5V]--></g></svg>