<?xml version="1.0" encoding="us-ascii" standalone="no"?><svg xmlns="http://www.w3.org/2000/svg" xmlns:xlink="http://www.w3.org/1999/xlink" contentStyleType="text/css" height="669px" preserveAspectRatio="none" style="width:1486px;height:669px;background:#FFFFFF;" version="1.1" viewBox="0 0 1486 669" width="1486px" zoomAndPan="magnify"><defs/><g><rect fill="#DCDCDC" height="273.5234" style="stroke:#000000;stroke-width:1.0;" width="10" x="320" y="298.8047"/><rect fill="#DCDCDC" height="131.3672" style="stroke:#000000;stroke-width:1.0;" width="10" x="712" y="197.4375"/><rect fill="#DCDCDC" height="121.1563" style="stroke:#000000;stroke-width:1.0;" width="10" x="1040" y="143.8594"/><rect fill="#DCDCDC" height="298.1016" style="stroke:#000000;stroke-width:1.0;" width="10" x="1368" y="98.2813"/><line style="stroke:#000000;stroke-width:0.5;stroke-dasharray:5.0,5.0;" x1="69" x2="69" y1="88.2813" y2="581.3281"/><line style="stroke:#000000;stroke-width:0.5;stroke-dasharray:5.0,5.0;" x1="324.5" x2="324.5" y1="88.2813" y2="581.3281"/><line style="stroke:#000000;stroke-width:0.5;stroke-dasharray:5.0,5.0;" x1="717" x2="717" y1="88.2813" y2="581.3281"/><line style="stroke:#000000;stroke-width:0.5;stroke-dasharray:5.0,5.0;" x1="1045" x2="1045" y1="88.2813" y2="581.3281"/><line style="stroke:#000000;stroke-width:0.5;stroke-dasharray:5.0,5.0;" x1="1373" x2="1373" y1="88.2813" y2="581.3281"/><text fill="#000000" font-family="sans-serif" font-size="20" lengthAdjust="spacing" textLength="122" x="5" y="83.5645">Versicherter</text><ellipse cx="69" cy="13.5" fill="#DCDCDC" rx="8" ry="8" style="stroke:#000000;stroke-width:0.5;"/><path d="M69,21.5 L69,48.5 M56,29.5 L82,29.5 M69,48.5 L56,63.5 M69,48.5 L82,63.5 " fill="none" style="stroke:#000000;stroke-width:0.5;"/><text fill="#000000" font-family="sans-serif" font-size="20" lengthAdjust="spacing" textLength="122" x="5" y="598.8926">Versicherter</text><ellipse cx="69" cy="612.1094" fill="#DCDCDC" rx="8" ry="8" style="stroke:#000000;stroke-width:0.5;"/><path d="M69,620.1094 L69,647.1094 M56,628.1094 L82,628.1094 M69,647.1094 L56,662.1094 M69,647.1094 L82,662.1094 " fill="none" style="stroke:#000000;stroke-width:0.5;"/><rect fill="#EFEFFF" height="70.5625" rx="2.5" ry="2.5" style="stroke:#000000;stroke-width:0.5;" width="279" x="185.5" y="16.7188"/><text fill="#000000" font-family="sans-serif" font-size="20" lengthAdjust="spacing" textLength="265" x="192.5" y="42.2832">Frontend des Versicherten</text><line style="stroke:#000000;stroke-width:1.0;" x1="185.5" x2="464.5" y1="52" y2="52"/><text fill="#000000" font-family="sans-serif" font-size="20" lengthAdjust="spacing" textLength="253" x="198.5" y="75.5645">Inhaber eines AppTokens</text><rect fill="#EFEFFF" height="70.5625" rx="2.5" ry="2.5" style="stroke:#000000;stroke-width:0.5;" width="279" x="185.5" y="580.3281"/><text fill="#000000" font-family="sans-serif" font-size="20" lengthAdjust="spacing" textLength="265" x="192.5" y="605.8926">Frontend des Versicherten</text><line style="stroke:#000000;stroke-width:1.0;" x1="185.5" x2="464.5" y1="615.6094" y2="615.6094"/><text fill="#000000" font-family="sans-serif" font-size="20" lengthAdjust="spacing" textLength="253" x="198.5" y="639.1738">Inhaber eines AppTokens</text><rect fill="#EFEFFF" height="37.2813" rx="2.5" ry="2.5" style="stroke:#000000;stroke-width:0.5;" width="214" x="610" y="50"/><text fill="#000000" font-family="sans-serif" font-size="20" lengthAdjust="spacing" textLength="141" x="646.5" y="75.5645">Push-Anbieter</text><rect fill="#EFEFFF" height="37.2813" rx="2.5" ry="2.5" style="stroke:#000000;stroke-width:0.5;" width="214" x="610" y="580.3281"/><text fill="#000000" font-family="sans-serif" font-size="20" lengthAdjust="spacing" textLength="141" x="646.5" y="605.8926">Push-Anbieter</text><rect fill="#EFEFFF" height="37.2813" rx="2.5" ry="2.5" style="stroke:#000000;stroke-width:0.5;" width="214" x="938" y="50"/><text fill="#000000" font-family="sans-serif" font-size="20" lengthAdjust="spacing" textLength="143" x="973.5" y="75.5645">Push-Gateway</text><rect fill="#EFEFFF" height="37.2813" rx="2.5" ry="2.5" style="stroke:#000000;stroke-width:0.5;" width="214" x="938" y="580.3281"/><text fill="#000000" font-family="sans-serif" font-size="20" lengthAdjust="spacing" textLength="143" x="973.5" y="605.8926">Push-Gateway</text><rect fill="#EFEFFF" height="37.2813" rx="2.5" ry="2.5" style="stroke:#000000;stroke-width:0.5;" width="214" x="1266" y="50"/><text fill="#000000" font-family="sans-serif" font-size="20" lengthAdjust="spacing" textLength="110" x="1318" y="75.5645">Fachdienst</text><rect fill="#EFEFFF" height="37.2813" rx="2.5" ry="2.5" style="stroke:#000000;stroke-width:0.5;" width="214" x="1266" y="580.3281"/><text fill="#000000" font-family="sans-serif" font-size="20" lengthAdjust="spacing" textLength="110" x="1318" y="605.8926">Fachdienst</text><rect fill="#DCDCDC" height="273.5234" style="stroke:#000000;stroke-width:1.0;" width="10" x="320" y="298.8047"/><rect fill="#DCDCDC" height="131.3672" style="stroke:#000000;stroke-width:1.0;" width="10" x="712" y="197.4375"/><rect fill="#DCDCDC" height="121.1563" style="stroke:#000000;stroke-width:1.0;" width="10" x="1040" y="143.8594"/><rect fill="#DCDCDC" height="298.1016" style="stroke:#000000;stroke-width:1.0;" width="10" x="1368" y="98.2813"/><polygon fill="#000000" points="1061,139.8594,1051,143.8594,1061,147.8594,1057,143.8594" style="stroke:#000000;stroke-width:1.0;"/><line style="stroke:#000000;stroke-width:1.0;" x1="1055" x2="1367" y1="143.8594" y2="143.8594"/><text fill="#000000" font-family="sans-serif" font-size="17" font-weight="bold" lengthAdjust="spacing" textLength="12" x="1062" y="127.9556">1</text><text fill="#000000" font-family="sans-serif" font-size="17" lengthAdjust="spacing" textLength="234" x="1078" y="118.061">Benachrichtigung (EventID)</text><text fill="#000000" font-family="sans-serif" font-size="17" lengthAdjust="spacing" textLength="283" x="1078" y="137.8501">f&#252;r anbieterspezifisches AppToken</text><polygon fill="#000000" points="733,193.4375,723,197.4375,733,201.4375,729,197.4375" style="stroke:#000000;stroke-width:1.0;"/><line style="stroke:#000000;stroke-width:1.0;" x1="727" x2="1039" y1="197.4375" y2="197.4375"/><text fill="#000000" font-family="sans-serif" font-size="17" font-weight="bold" lengthAdjust="spacing" textLength="12" x="734" y="181.5337">2</text><text fill="#000000" font-family="sans-serif" font-size="17" lengthAdjust="spacing" textLength="234" x="750" y="171.6392">Benachrichtigung (EventID)</text><text fill="#000000" font-family="sans-serif" font-size="17" lengthAdjust="spacing" textLength="283" x="750" y="191.4282">f&#252;r anbieterspezifisches AppToken</text><polygon fill="#000000" points="1028,227.2266,1038,231.2266,1028,235.2266,1032,231.2266" style="stroke:#000000;stroke-width:1.0;"/><line style="stroke:#000000;stroke-width:1.0;stroke-dasharray:2.0,2.0;" x1="722" x2="1034" y1="231.2266" y2="231.2266"/><text fill="#000000" font-family="sans-serif" font-size="17" font-weight="bold" lengthAdjust="spacing" textLength="12" x="729" y="225.2173">3</text><text fill="#000000" font-family="sans-serif" font-size="17" lengthAdjust="spacing" textLength="85" x="745" y="225.2173">:Response</text><polygon fill="#000000" points="1356,261.0156,1366,265.0156,1356,269.0156,1360,265.0156" style="stroke:#000000;stroke-width:1.0;"/><line style="stroke:#000000;stroke-width:1.0;stroke-dasharray:2.0,2.0;" x1="1045" x2="1362" y1="265.0156" y2="265.0156"/><text fill="#000000" font-family="sans-serif" font-size="17" font-weight="bold" lengthAdjust="spacing" textLength="12" x="1052" y="259.0063">4</text><text fill="#000000" font-family="sans-serif" font-size="17" lengthAdjust="spacing" textLength="85" x="1068" y="259.0063">:Response</text><polygon fill="#000000" points="341,294.8047,331,298.8047,341,302.8047,337,298.8047" style="stroke:#000000;stroke-width:1.0;"/><line style="stroke:#000000;stroke-width:1.0;" x1="335" x2="711" y1="298.8047" y2="298.8047"/><text fill="#000000" font-family="sans-serif" font-size="17" font-weight="bold" lengthAdjust="spacing" textLength="12" x="455" y="292.7954">5</text><text fill="#000000" font-family="sans-serif" font-size="17" lengthAdjust="spacing" textLength="234" x="471" y="292.7954">Benachrichtigung (EventID)</text><polygon fill="#000000" points="1356,358.5938,1366,362.5938,1356,366.5938,1360,362.5938" style="stroke:#000000;stroke-width:1.0;"/><line style="stroke:#000000;stroke-width:1.0;" x1="330" x2="1362" y1="362.5938" y2="362.5938"/><text fill="#000000" font-family="sans-serif" font-size="17" font-weight="bold" lengthAdjust="spacing" textLength="12" x="337" y="356.5845">6</text><text fill="#000000" font-family="sans-serif" font-size="17" lengthAdjust="spacing" textLength="312" x="353" y="356.5845">Abfrage der Daten zu Event(EventID)</text><polygon fill="#000000" points="341,392.3828,331,396.3828,341,400.3828,337,396.3828" style="stroke:#000000;stroke-width:1.0;"/><line style="stroke:#000000;stroke-width:1.0;stroke-dasharray:2.0,2.0;" x1="335" x2="1372" y1="396.3828" y2="396.3828"/><text fill="#000000" font-family="sans-serif" font-size="17" font-weight="bold" lengthAdjust="spacing" textLength="12" x="1006" y="390.3735">7</text><text fill="#000000" font-family="sans-serif" font-size="17" lengthAdjust="spacing" textLength="344" x="1022" y="390.3735">:Verschl&#252;sselte Benachrichtigungsinhalte</text><line style="stroke:#000000;stroke-width:1.0;" x1="330" x2="372" y1="449.9609" y2="449.9609"/><line style="stroke:#000000;stroke-width:1.0;" x1="372" x2="372" y1="449.9609" y2="462.9609"/><line style="stroke:#000000;stroke-width:1.0;" x1="331" x2="372" y1="462.9609" y2="462.9609"/><polygon fill="#000000" points="341,458.9609,331,462.9609,341,466.9609,337,462.9609" style="stroke:#000000;stroke-width:1.0;"/><text fill="#000000" font-family="sans-serif" font-size="17" font-weight="bold" lengthAdjust="spacing" textLength="12" x="337" y="434.0571">8</text><text fill="#000000" font-family="sans-serif" font-size="17" lengthAdjust="spacing" textLength="113" x="353" y="424.1626">Entschl&#252;ssele</text><text fill="#000000" font-family="sans-serif" font-size="17" lengthAdjust="spacing" textLength="352" x="353" y="443.9517">(Verschl&#252;sselte Benachrichtigungsinhalte)</text><line style="stroke:#000000;stroke-width:1.0;" x1="330" x2="372" y1="516.5391" y2="516.5391"/><line style="stroke:#000000;stroke-width:1.0;" x1="372" x2="372" y1="516.5391" y2="529.5391"/><line style="stroke:#000000;stroke-width:1.0;" x1="331" x2="372" y1="529.5391" y2="529.5391"/><polygon fill="#000000" points="341,525.5391,331,529.5391,341,533.5391,337,529.5391" style="stroke:#000000;stroke-width:1.0;"/><text fill="#000000" font-family="sans-serif" font-size="17" font-weight="bold" lengthAdjust="spacing" textLength="12" x="337" y="500.6353">9</text><text fill="#000000" font-family="sans-serif" font-size="17" lengthAdjust="spacing" textLength="335" x="353" y="490.7407">erzeuge Anwenderbenachrichtigung mit</text><text fill="#000000" font-family="sans-serif" font-size="17" lengthAdjust="spacing" textLength="242" x="358" y="510.5298">den entschl&#252;sselten Inhalten</text><polygon fill="#000000" points="80,559.3281,70,563.3281,80,567.3281,76,563.3281" style="stroke:#000000;stroke-width:1.0;"/><line style="stroke:#000000;stroke-width:1.0;" x1="74" x2="319" y1="563.3281" y2="563.3281"/><text fill="#000000" font-family="sans-serif" font-size="17" font-weight="bold" lengthAdjust="spacing" textLength="24" x="86" y="557.3188">10</text><text fill="#000000" font-family="sans-serif" font-size="17" lengthAdjust="spacing" textLength="199" x="114" y="557.3188">Zeige Benachrichtigung</text><!--SRC=[fLHDJzmm4BtxLuou08UL05LgjGUaB5zTYIzHHAMM7cQJITOYiLtRoTAj-i-uySSwSHPYie0grOV8cZVptfknOtSdbK6B5JZwMPDAwOoSmuAIKXOACcafzL8huPuJAwaEIdJkgypy7FPsTY9iekylCSkaAc0t2ZznNr5Ejjry9ip8JZ2zAwokLNQWIst1O4c59MArbBTGuJtpV_W4YrPAl488lqLYhLvqzREI2Rl0iLR-YrmIx7uKIUgrdMZBYd7UgSpfL2fw1nduEq6ft4nRBSGbMYzJQL3vkFvCUzbW65YSCU29iZQZjDRpELO4qyfWwiK02ktixGp3iV4tN4tMmA6XY-lfJN8zlJWNgsczsNc0XxhFmIUFcy-Hq522Xkx57o6mzbhLrOoi05xXWsqgD80EDcx8EfdEoNgo6m4rlMl8imQ-XoZ0iMLoKXbav20gKojyn6krdQeviY8G7wc3n9XhVKVA1VJ7ceZ1uEIoTlDHecQINhLYYZxh13qjyDThVaFICQRpJBAYt-09fE7iYK6HPwDzKunXGefJB7VWPL7plxDrr93oqyDjk5NvuuC5N1bnXfOobuvxxJk1djGKmXHCYlzD6d6YC3Zgd8wlo1cj7BKoe_qyYqCPlV21BTwyPoGUHlEY77asJSUVp7BBxn6ViuL31XKiQmWCFGyFSYKsRgz2EYyV7voZagc6waxoRM0WbWj7qNGCHyhtzSIZslfNnksUXEoIQlQSg0LVKRApuGWgwM_vTULcADPhkvjsRAfZQyRVI1Rhek8l]--></g></svg>