<?xml version="1.0" encoding="UTF-8" standalone="no"?><svg xmlns="http://www.w3.org/2000/svg" xmlns:xlink="http://www.w3.org/1999/xlink" contentStyleType="text/css" height="866px" preserveAspectRatio="none" style="width:532px;height:866px;background:#FFFFFF;" version="1.1" viewBox="0 0 532 866" width="532px" zoomAndPan="magnify"><defs/><g><!--MD5=[0a005aa698e1f18d1a2bb4de0df49e47]
class Encounter--><g id="elem_Encounter"><rect codeLine="2" fill="#F1F1F1" height="243.5625" id="Encounter" rx="2.5" ry="2.5" style="stroke:#181818;stroke-width:0.5;" width="162" x="132.88" y="7"/><ellipse cx="173.98" cy="23" fill="#C2C2C2" rx="11" ry="11" style="stroke:#181818;stroke-width:1.0;"/><path d="M176.9488,28.6406 Q176.3706,28.9375 175.73,29.0781 Q175.0894,29.2344 174.3863,29.2344 Q171.8863,29.2344 170.5581,27.5938 Q169.2456,25.9375 169.2456,22.8125 Q169.2456,19.6875 170.5581,18.0313 Q171.8863,16.375 174.3863,16.375 Q175.0894,16.375 175.73,16.5313 Q176.3863,16.6875 176.9488,16.9844 L176.9488,19.7031 Q176.3238,19.125 175.73,18.8594 Q175.1363,18.5781 174.5113,18.5781 Q173.1675,18.5781 172.48,19.6563 Q171.7925,20.7188 171.7925,22.8125 Q171.7925,24.9063 172.48,25.9844 Q173.1675,27.0469 174.5113,27.0469 Q175.1363,27.0469 175.73,26.7813 Q176.3238,26.5 176.9488,25.9219 L176.9488,28.6406 Z " fill="#000000"/><text fill="#000000" font-family="sans-serif" font-size="14" lengthAdjust="spacing" textLength="72" x="193.78" y="27.8467">Encounter</text><line style="stroke:#181818;stroke-width:0.5;" x1="133.88" x2="293.88" y1="39" y2="39"/><text fill="#000000" font-family="sans-serif" font-size="14" lengthAdjust="spacing" textLength="119" x="138.88" y="55.9951">identifier (0.., MS)</text><text fill="#000000" font-family="sans-serif" font-size="14" lengthAdjust="spacing" textLength="112" x="138.88" y="72.292">status (1..1, MS)</text><text fill="#000000" font-family="sans-serif" font-size="14" lengthAdjust="spacing" textLength="150" x="138.88" y="88.5889">statusHistory (0.., MS)</text><text fill="#000000" font-family="sans-serif" font-size="14" lengthAdjust="spacing" textLength="95" x="138.88" y="104.8857">class (..1, MS)</text><text fill="#000000" font-family="sans-serif" font-size="14" lengthAdjust="spacing" textLength="142" x="138.88" y="121.1826">classHistory (0.., MS)</text><text fill="#000000" font-family="sans-serif" font-size="14" lengthAdjust="spacing" textLength="143" x="138.88" y="137.4795">serviceType (0.., MS)</text><text fill="#000000" font-family="sans-serif" font-size="14" lengthAdjust="spacing" textLength="106" x="138.88" y="153.7764">priority (0.., MS)</text><text fill="#000000" font-family="sans-serif" font-size="14" lengthAdjust="spacing" textLength="120" x="138.88" y="170.0732">subject (1..1, MS)</text><text fill="#000000" font-family="sans-serif" font-size="14" lengthAdjust="spacing" textLength="104" x="138.88" y="186.3701">period (0.., MS)</text><text fill="#000000" font-family="sans-serif" font-size="14" lengthAdjust="spacing" textLength="104" x="138.88" y="202.667">length (0.., MS)</text><text fill="#000000" font-family="sans-serif" font-size="14" lengthAdjust="spacing" textLength="145" x="138.88" y="218.9639">reasonCode (0.., MS)</text><text fill="#000000" font-family="sans-serif" font-size="14" lengthAdjust="spacing" textLength="126" x="138.88" y="235.2607">diagnosis (0.., MS)</text><line style="stroke:#181818;stroke-width:0.5;" x1="133.88" x2="293.88" y1="242.5625" y2="242.5625"/></g><!--MD5=[9dd4eaa2771a2ff8dbee15cc1e732cab]
class Patient--><g id="elem_Patient"><rect codeLine="16" fill="#F1F1F1" height="194.6719" id="Patient" rx="2.5" ry="2.5" style="stroke:#181818;stroke-width:0.5;" width="211" x="108.38" y="665"/><ellipse cx="185.63" cy="681" fill="#C2C2C2" rx="11" ry="11" style="stroke:#181818;stroke-width:1.0;"/><path d="M188.5988,686.6406 Q188.0206,686.9375 187.38,687.0781 Q186.7394,687.2344 186.0363,687.2344 Q183.5363,687.2344 182.2081,685.5938 Q180.8956,683.9375 180.8956,680.8125 Q180.8956,677.6875 182.2081,676.0313 Q183.5363,674.375 186.0363,674.375 Q186.7394,674.375 187.38,674.5313 Q188.0363,674.6875 188.5988,674.9844 L188.5988,677.7031 Q187.9738,677.125 187.38,676.8594 Q186.7863,676.5781 186.1613,676.5781 Q184.8175,676.5781 184.13,677.6563 Q183.4425,678.7188 183.4425,680.8125 Q183.4425,682.9063 184.13,683.9844 Q184.8175,685.0469 186.1613,685.0469 Q186.7863,685.0469 187.38,684.7813 Q187.9738,684.5 188.5988,683.9219 L188.5988,686.6406 Z " fill="#000000"/><text fill="#000000" font-family="sans-serif" font-size="14" lengthAdjust="spacing" textLength="48" x="206.13" y="685.8467">Patient</text><line style="stroke:#181818;stroke-width:0.5;" x1="109.38" x2="318.38" y1="697" y2="697"/><text fill="#000000" font-family="sans-serif" font-size="14" lengthAdjust="spacing" textLength="119" x="114.38" y="713.9951">identifier (1.., MS)</text><text fill="#000000" font-family="sans-serif" font-size="14" lengthAdjust="spacing" textLength="108" x="114.38" y="730.292">name (1..1, MS)</text><text fill="#000000" font-family="sans-serif" font-size="14" lengthAdjust="spacing" textLength="119" x="114.38" y="746.5889">gender (1..1, MS)</text><text fill="#000000" font-family="sans-serif" font-size="14" lengthAdjust="spacing" textLength="133" x="114.38" y="762.8857">birthDate (1..1, MS)</text><text fill="#000000" font-family="sans-serif" font-size="14" lengthAdjust="spacing" textLength="116" x="114.38" y="779.1826">address (0.., MS)</text><text fill="#000000" font-family="sans-serif" font-size="14" lengthAdjust="spacing" textLength="101" x="114.38" y="795.4795">photo (1.., MS)</text><text fill="#000000" font-family="sans-serif" font-size="14" lengthAdjust="spacing" textLength="121" x="114.38" y="811.7764">contact (1..1, MS)</text><text fill="#000000" font-family="sans-serif" font-size="14" lengthAdjust="spacing" textLength="175" x="114.38" y="828.0732">communication (1..1, MS)</text><text fill="#000000" font-family="sans-serif" font-size="14" lengthAdjust="spacing" textLength="199" x="114.38" y="844.3701">generalPractitioner (1..1, MS)</text><line style="stroke:#181818;stroke-width:0.5;" x1="109.38" x2="318.38" y1="851.6719" y2="851.6719"/></g><!--MD5=[a030fa97ffb865708cae79f6847e8968]
class Condition--><g id="elem_Condition"><rect codeLine="27" fill="#F1F1F1" height="259.8594" id="Condition" rx="2.5" ry="2.5" style="stroke:#181818;stroke-width:0.5;" width="198" x="114.88" y="328"/><ellipse cx="176.63" cy="344" fill="#C2C2C2" rx="11" ry="11" style="stroke:#181818;stroke-width:1.0;"/><path d="M179.5988,349.6406 Q179.0206,349.9375 178.38,350.0781 Q177.7394,350.2344 177.0363,350.2344 Q174.5363,350.2344 173.2081,348.5938 Q171.8956,346.9375 171.8956,343.8125 Q171.8956,340.6875 173.2081,339.0313 Q174.5363,337.375 177.0363,337.375 Q177.7394,337.375 178.38,337.5313 Q179.0363,337.6875 179.5988,337.9844 L179.5988,340.7031 Q178.9738,340.125 178.38,339.8594 Q177.7863,339.5781 177.1613,339.5781 Q175.8175,339.5781 175.13,340.6563 Q174.4425,341.7188 174.4425,343.8125 Q174.4425,345.9063 175.13,346.9844 Q175.8175,348.0469 177.1613,348.0469 Q177.7863,348.0469 178.38,347.7813 Q178.9738,347.5 179.5988,346.9219 L179.5988,349.6406 Z " fill="#000000"/><text fill="#000000" font-family="sans-serif" font-size="14" lengthAdjust="spacing" textLength="66" x="197.13" y="348.8467">Condition</text><line style="stroke:#181818;stroke-width:0.5;" x1="115.88" x2="311.88" y1="360" y2="360"/><text fill="#000000" font-family="sans-serif" font-size="14" lengthAdjust="spacing" textLength="119" x="120.88" y="376.9951">identifier (0.., MS)</text><text fill="#000000" font-family="sans-serif" font-size="14" lengthAdjust="spacing" textLength="149" x="120.88" y="393.292">clinicalStatus (..1, MS)</text><text fill="#000000" font-family="sans-serif" font-size="14" lengthAdjust="spacing" textLength="186" x="120.88" y="409.5889">verificationStatus (0..1, MS)</text><text fill="#000000" font-family="sans-serif" font-size="14" lengthAdjust="spacing" textLength="120" x="120.88" y="425.8857">category (0.., MS)</text><text fill="#000000" font-family="sans-serif" font-size="14" lengthAdjust="spacing" textLength="122" x="120.88" y="442.1826">severity (0..1, MS)</text><text fill="#000000" font-family="sans-serif" font-size="14" lengthAdjust="spacing" textLength="104" x="120.88" y="458.4795">code (0..1, MS)</text><text fill="#000000" font-family="sans-serif" font-size="14" lengthAdjust="spacing" textLength="120" x="120.88" y="474.7764">bodySite (0.., MS)</text><text fill="#000000" font-family="sans-serif" font-size="14" lengthAdjust="spacing" textLength="120" x="120.88" y="491.0732">subject (1..1, MS)</text><text fill="#000000" font-family="sans-serif" font-size="14" lengthAdjust="spacing" textLength="141" x="120.88" y="507.3701">encounter (0..1, MS)</text><text fill="#000000" font-family="sans-serif" font-size="14" lengthAdjust="spacing" textLength="165" x="120.88" y="523.667">recordedDate (0..1, MS)</text><text fill="#000000" font-family="sans-serif" font-size="14" lengthAdjust="spacing" textLength="99" x="120.88" y="539.9639">stage (0.., MS)</text><text fill="#000000" font-family="sans-serif" font-size="14" lengthAdjust="spacing" textLength="123" x="120.88" y="556.2607">evidence (0.., MS)</text><text fill="#000000" font-family="sans-serif" font-size="14" lengthAdjust="spacing" textLength="92" x="120.88" y="572.5576">note (0.., MS)</text><line style="stroke:#181818;stroke-width:0.5;" x1="115.88" x2="311.88" y1="579.8594" y2="579.8594"/></g><!--MD5=[df3fc242ef91a47d9d4eb0969d2a8168]
class Procedure--><g id="elem_Procedure"><rect codeLine="42" fill="#F1F1F1" height="227.2656" id="Procedure" rx="2.5" ry="2.5" style="stroke:#181818;stroke-width:0.5;" width="177" x="348.38" y="344.5"/><ellipse cx="396.63" cy="360.5" fill="#C2C2C2" rx="11" ry="11" style="stroke:#181818;stroke-width:1.0;"/><path d="M399.5988,366.1406 Q399.0206,366.4375 398.38,366.5781 Q397.7394,366.7344 397.0363,366.7344 Q394.5363,366.7344 393.2081,365.0938 Q391.8956,363.4375 391.8956,360.3125 Q391.8956,357.1875 393.2081,355.5313 Q394.5363,353.875 397.0363,353.875 Q397.7394,353.875 398.38,354.0313 Q399.0363,354.1875 399.5988,354.4844 L399.5988,357.2031 Q398.9738,356.625 398.38,356.3594 Q397.7863,356.0781 397.1613,356.0781 Q395.8175,356.0781 395.13,357.1563 Q394.4425,358.2188 394.4425,360.3125 Q394.4425,362.4063 395.13,363.4844 Q395.8175,364.5469 397.1613,364.5469 Q397.7863,364.5469 398.38,364.2813 Q398.9738,364 399.5988,363.4219 L399.5988,366.1406 Z " fill="#000000"/><text fill="#000000" font-family="sans-serif" font-size="14" lengthAdjust="spacing" textLength="72" x="417.13" y="365.3467">Procedure</text><line style="stroke:#181818;stroke-width:0.5;" x1="349.38" x2="524.38" y1="376.5" y2="376.5"/><text fill="#000000" font-family="sans-serif" font-size="14" lengthAdjust="spacing" textLength="119" x="354.38" y="393.4951">identifier (0.., MS)</text><text fill="#000000" font-family="sans-serif" font-size="14" lengthAdjust="spacing" textLength="112" x="354.38" y="409.792">status (1..1, MS)</text><text fill="#000000" font-family="sans-serif" font-size="14" lengthAdjust="spacing" textLength="165" x="354.38" y="426.0889">statusReason (0..1, MS)</text><text fill="#000000" font-family="sans-serif" font-size="14" lengthAdjust="spacing" textLength="129" x="354.38" y="442.3857">category (0..1, MS)</text><text fill="#000000" font-family="sans-serif" font-size="14" lengthAdjust="spacing" textLength="104" x="354.38" y="458.6826">code (0..1, MS)</text><text fill="#000000" font-family="sans-serif" font-size="14" lengthAdjust="spacing" textLength="120" x="354.38" y="474.9795">subject (1..1, MS)</text><text fill="#000000" font-family="sans-serif" font-size="14" lengthAdjust="spacing" textLength="141" x="354.38" y="491.2764">encounter (0..1, MS)</text><text fill="#000000" font-family="sans-serif" font-size="14" lengthAdjust="spacing" textLength="145" x="354.38" y="507.5732">reasonCode (0.., MS)</text><text fill="#000000" font-family="sans-serif" font-size="14" lengthAdjust="spacing" textLength="131" x="354.38" y="523.8701">outcome (0..1, MS)</text><text fill="#000000" font-family="sans-serif" font-size="14" lengthAdjust="spacing" textLength="147" x="354.38" y="540.167">complication (0.., MS)</text><text fill="#000000" font-family="sans-serif" font-size="14" lengthAdjust="spacing" textLength="92" x="354.38" y="556.4639">note (0.., MS)</text><line style="stroke:#181818;stroke-width:0.5;" x1="349.38" x2="524.38" y1="563.7656" y2="563.7656"/></g><!--MD5=[c827e34f2611e26c1020b2ebd2a6f2a0]
reverse link Encounter to Patient--><g id="link_Encounter_Patient"><path codeLine="56" d="M123.42,212.2 C93.74,244.97 64.41,285.1 48.88,328 C9.54,436.65 6,480.69 48.88,588 C61.84,620.42 84.06,650.25 108.06,675.69 " fill="none" id="Encounter-backto-Patient" style="stroke:#181818;stroke-width:1.0;"/><polygon fill="none" points="132.62,202.28,125.608,203.9626,124.4642,211.0824,131.4763,209.3998,132.62,202.28" style="stroke:#181818;stroke-width:1.0;"/><text fill="#000000" font-family="sans-serif" font-size="13" lengthAdjust="spacing" textLength="46" x="49.88" y="462.5669">subject</text></g><!--MD5=[d5187bde563118fb2dacd0369a464c9b]
reverse link Encounter to Condition--><g id="link_Encounter_Condition"><path codeLine="57" d="M213.88,264.59 C213.88,285.54 213.88,307.13 213.88,327.95 " fill="none" id="Encounter-backto-Condition" style="stroke:#181818;stroke-width:1.0;"/><polygon fill="none" points="213.88,251.3,209.88,257.3,213.88,263.3,217.88,257.3,213.88,251.3" style="stroke:#181818;stroke-width:1.0;"/><text fill="#000000" font-family="sans-serif" font-size="13" lengthAdjust="spacing" textLength="122" x="214.88" y="294.0669">diagnosis.condition</text></g><!--MD5=[2093f16872e89b2dd73c0126233648e4]
reverse link Encounter to Procedure--><g id="link_Encounter_Procedure"><path codeLine="58" d="M303.84,226.02 C318.65,243.72 333.27,262.47 345.88,281 C359.34,300.76 372.19,322.76 383.78,344.34 " fill="none" id="Encounter-backto-Procedure" style="stroke:#181818;stroke-width:1.0;"/><polygon fill="none" points="295.11,215.73,295.9427,222.8929,302.8749,224.8791,302.0422,217.7163,295.11,215.73" style="stroke:#181818;stroke-width:1.0;"/><text fill="#000000" font-family="sans-serif" font-size="13" lengthAdjust="spacing" textLength="122" x="354.88" y="294.0669">diagnosis.condition</text></g><!--MD5=[6425178d999975551e348fd5eafbe1b8]
reverse link Condition to Patient--><g id="link_Condition_Patient"><path codeLine="59" d="M213.88,601.17 C213.88,622.72 213.88,644.52 213.88,664.8 " fill="none" id="Condition-backto-Patient" style="stroke:#181818;stroke-width:1.0;"/><polygon fill="none" points="213.88,588.16,209.88,594.16,213.88,600.16,217.88,594.16,213.88,588.16" style="stroke:#181818;stroke-width:1.0;"/><text fill="#000000" font-family="sans-serif" font-size="13" lengthAdjust="spacing" textLength="46" x="214.88" y="631.0669">subject</text></g><!--MD5=[8fe401a668021fb806ea99b130c0c841]
reverse link Procedure to Patient--><g id="link_Procedure_Patient"><path codeLine="60" d="M346.13,582.11 C325.85,609.61 304.63,638.39 285.27,664.66 " fill="none" id="Procedure-backto-Patient" style="stroke:#181818;stroke-width:1.0;"/><polygon fill="none" points="353.84,571.64,347.0592,574.0937,346.7162,581.2967,353.497,578.8429,353.84,571.64" style="stroke:#181818;stroke-width:1.0;"/><text fill="#000000" font-family="sans-serif" font-size="13" lengthAdjust="spacing" textLength="46" x="319.88" y="631.0669">subject</text></g><!--MD5=[8336d2f88fffeddf85ce983487d9ee19]
@startuml ClassDiagram.CaseReference
skinparam monochrome true
class Encounter {
  {field} identifier (0.., MS)
  {field} status (1..1, MS)
  {field} statusHistory (0.., MS)
  {field} class (..1, MS)
  {field} classHistory (0.., MS)
  {field} serviceType (0.., MS)
  {field} priority (0.., MS)
  {field} subject (1..1, MS)
  {field} period (0.., MS)
  {field} length (0.., MS)
  {field} reasonCode (0.., MS)
  {field} diagnosis (0.., MS)
}
class Patient {
  {field} identifier (1.., MS)
  {field} name (1..1, MS)
  {field} gender (1..1, MS)
  {field} birthDate (1..1, MS)
  {field} address (0.., MS)
  {field} photo (1.., MS)
  {field} contact (1..1, MS)
  {field} communication (1..1, MS)
  {field} generalPractitioner (1..1, MS)
}
class Condition {
  {field} identifier (0.., MS)
  {field} clinicalStatus (..1, MS)
  {field} verificationStatus (0..1, MS)
  {field} category (0.., MS)
  {field} severity (0..1, MS)
  {field} code (0..1, MS)
  {field} bodySite (0.., MS)
  {field} subject (1..1, MS)
  {field} encounter (0..1, MS)
  {field} recordedDate (0..1, MS)
  {field} stage (0.., MS)
  {field} evidence (0.., MS)
  {field} note (0.., MS)
}
class Procedure {
  {field} identifier (0.., MS)
  {field} status (1..1, MS)
  {field} statusReason (0..1, MS)
  {field} category (0..1, MS)
  {field} code (0..1, MS)
  {field} subject (1..1, MS)
  {field} encounter (0..1, MS)
  {field} reasonCode (0.., MS)
  {field} outcome (0..1, MS)
  {field} complication (0.., MS)
  {field} note (0.., MS)
}

Encounter o- - Patient: subject
Encounter o- - Condition: diagnosis.condition
Encounter o- - Procedure: diagnosis.condition
Condition o- - Patient: subject
Procedure o- - Patient: subject
@enduml

PlantUML version 1.2022.5(Sat Apr 30 10:55:52 UTC 2022)
(GPL source distribution)
Java Runtime: OpenJDK Runtime Environment
JVM: OpenJDK 64-Bit Server VM
Default Encoding: UTF-8
Language: en
Country: null
--></g></svg>