<?xml version="1.0" encoding="UTF-8" standalone="no"?><svg xmlns="http://www.w3.org/2000/svg" xmlns:xlink="http://www.w3.org/1999/xlink" contentStyleType="text/css" height="866px" preserveAspectRatio="none" style="width:574px;height:866px;background:#FFFFFF;" version="1.1" viewBox="0 0 574 866" width="574px" zoomAndPan="magnify"><defs/><g><!--MD5=[5ac0aeb296f75b494117fb2cd75165ec]
class Encounters--><g id="elem_Encounters"><rect codeLine="2" fill="#F1F1F1" height="243.5625" id="Encounters" rx="2.5" ry="2.5" style="stroke:#181818;stroke-width:0.5;" width="162" x="7" y="7"/><ellipse cx="44.5" cy="23" fill="#C2C2C2" rx="11" ry="11" style="stroke:#181818;stroke-width:1.0;"/><path d="M47.4688,28.6406 Q46.8906,28.9375 46.25,29.0781 Q45.6094,29.2344 44.9063,29.2344 Q42.4063,29.2344 41.0781,27.5938 Q39.7656,25.9375 39.7656,22.8125 Q39.7656,19.6875 41.0781,18.0313 Q42.4063,16.375 44.9063,16.375 Q45.6094,16.375 46.25,16.5313 Q46.9063,16.6875 47.4688,16.9844 L47.4688,19.7031 Q46.8438,19.125 46.25,18.8594 Q45.6563,18.5781 45.0313,18.5781 Q43.6875,18.5781 43,19.6563 Q42.3125,20.7188 42.3125,22.8125 Q42.3125,24.9063 43,25.9844 Q43.6875,27.0469 45.0313,27.0469 Q45.6563,27.0469 46.25,26.7813 Q46.8438,26.5 47.4688,25.9219 L47.4688,28.6406 Z " fill="#000000"/><text fill="#000000" font-family="sans-serif" font-size="14" lengthAdjust="spacing" textLength="80" x="63.5" y="27.8467">Encounters</text><line style="stroke:#181818;stroke-width:0.5;" x1="8" x2="168" y1="39" y2="39"/><text fill="#000000" font-family="sans-serif" font-size="14" lengthAdjust="spacing" textLength="119" x="13" y="55.9951">identifier (0.., MS)</text><text fill="#000000" font-family="sans-serif" font-size="14" lengthAdjust="spacing" textLength="112" x="13" y="72.292">status (1..1, MS)</text><text fill="#000000" font-family="sans-serif" font-size="14" lengthAdjust="spacing" textLength="150" x="13" y="88.5889">statusHistory (0.., MS)</text><text fill="#000000" font-family="sans-serif" font-size="14" lengthAdjust="spacing" textLength="95" x="13" y="104.8857">class (..1, MS)</text><text fill="#000000" font-family="sans-serif" font-size="14" lengthAdjust="spacing" textLength="142" x="13" y="121.1826">classHistory (0.., MS)</text><text fill="#000000" font-family="sans-serif" font-size="14" lengthAdjust="spacing" textLength="143" x="13" y="137.4795">serviceType (0.., MS)</text><text fill="#000000" font-family="sans-serif" font-size="14" lengthAdjust="spacing" textLength="106" x="13" y="153.7764">priority (0.., MS)</text><text fill="#000000" font-family="sans-serif" font-size="14" lengthAdjust="spacing" textLength="120" x="13" y="170.0732">subject (1..1, MS)</text><text fill="#000000" font-family="sans-serif" font-size="14" lengthAdjust="spacing" textLength="104" x="13" y="186.3701">period (0.., MS)</text><text fill="#000000" font-family="sans-serif" font-size="14" lengthAdjust="spacing" textLength="104" x="13" y="202.667">length (0.., MS)</text><text fill="#000000" font-family="sans-serif" font-size="14" lengthAdjust="spacing" textLength="145" x="13" y="218.9639">reasonCode (0.., MS)</text><text fill="#000000" font-family="sans-serif" font-size="14" lengthAdjust="spacing" textLength="126" x="13" y="235.2607">diagnosis (0.., MS)</text><line style="stroke:#181818;stroke-width:0.5;" x1="8" x2="168" y1="242.5625" y2="242.5625"/></g><!--MD5=[9dd4eaa2771a2ff8dbee15cc1e732cab]
class Patient--><g id="elem_Patient"><rect codeLine="16" fill="#F1F1F1" height="194.6719" id="Patient" rx="2.5" ry="2.5" style="stroke:#181818;stroke-width:0.5;" width="202" x="155" y="665"/><ellipse cx="227.75" cy="681" fill="#C2C2C2" rx="11" ry="11" style="stroke:#181818;stroke-width:1.0;"/><path d="M230.7188,686.6406 Q230.1406,686.9375 229.5,687.0781 Q228.8594,687.2344 228.1563,687.2344 Q225.6563,687.2344 224.3281,685.5938 Q223.0156,683.9375 223.0156,680.8125 Q223.0156,677.6875 224.3281,676.0313 Q225.6563,674.375 228.1563,674.375 Q228.8594,674.375 229.5,674.5313 Q230.1563,674.6875 230.7188,674.9844 L230.7188,677.7031 Q230.0938,677.125 229.5,676.8594 Q228.9063,676.5781 228.2813,676.5781 Q226.9375,676.5781 226.25,677.6563 Q225.5625,678.7188 225.5625,680.8125 Q225.5625,682.9063 226.25,683.9844 Q226.9375,685.0469 228.2813,685.0469 Q228.9063,685.0469 229.5,684.7813 Q230.0938,684.5 230.7188,683.9219 L230.7188,686.6406 Z " fill="#000000"/><text fill="#000000" font-family="sans-serif" font-size="14" lengthAdjust="spacing" textLength="48" x="248.25" y="685.8467">Patient</text><line style="stroke:#181818;stroke-width:0.5;" x1="156" x2="356" y1="697" y2="697"/><text fill="#000000" font-family="sans-serif" font-size="14" lengthAdjust="spacing" textLength="119" x="161" y="713.9951">identifier (1.., MS)</text><text fill="#000000" font-family="sans-serif" font-size="14" lengthAdjust="spacing" textLength="108" x="161" y="730.292">name (1..1, MS)</text><text fill="#000000" font-family="sans-serif" font-size="14" lengthAdjust="spacing" textLength="110" x="161" y="746.5889">gender (..1, MS)</text><text fill="#000000" font-family="sans-serif" font-size="14" lengthAdjust="spacing" textLength="124" x="161" y="762.8857">birthDate (..1, MS)</text><text fill="#000000" font-family="sans-serif" font-size="14" lengthAdjust="spacing" textLength="116" x="161" y="779.1826">address (0.., MS)</text><text fill="#000000" font-family="sans-serif" font-size="14" lengthAdjust="spacing" textLength="101" x="161" y="795.4795">photo (1.., MS)</text><text fill="#000000" font-family="sans-serif" font-size="14" lengthAdjust="spacing" textLength="112" x="161" y="811.7764">contact (0.., MS)</text><text fill="#000000" font-family="sans-serif" font-size="14" lengthAdjust="spacing" textLength="166" x="161" y="828.0732">communication (0.., MS)</text><text fill="#000000" font-family="sans-serif" font-size="14" lengthAdjust="spacing" textLength="190" x="161" y="844.3701">generalPractitioner (0.., MS)</text><line style="stroke:#181818;stroke-width:0.5;" x1="156" x2="356" y1="851.6719" y2="851.6719"/></g><!--MD5=[a030fa97ffb865708cae79f6847e8968]
class Condition--><g id="elem_Condition"><rect codeLine="27" fill="#F1F1F1" height="259.8594" id="Condition" rx="2.5" ry="2.5" style="stroke:#181818;stroke-width:0.5;" width="198" x="157" y="328"/><ellipse cx="218.75" cy="344" fill="#C2C2C2" rx="11" ry="11" style="stroke:#181818;stroke-width:1.0;"/><path d="M221.7188,349.6406 Q221.1406,349.9375 220.5,350.0781 Q219.8594,350.2344 219.1563,350.2344 Q216.6563,350.2344 215.3281,348.5938 Q214.0156,346.9375 214.0156,343.8125 Q214.0156,340.6875 215.3281,339.0313 Q216.6563,337.375 219.1563,337.375 Q219.8594,337.375 220.5,337.5313 Q221.1563,337.6875 221.7188,337.9844 L221.7188,340.7031 Q221.0938,340.125 220.5,339.8594 Q219.9063,339.5781 219.2813,339.5781 Q217.9375,339.5781 217.25,340.6563 Q216.5625,341.7188 216.5625,343.8125 Q216.5625,345.9063 217.25,346.9844 Q217.9375,348.0469 219.2813,348.0469 Q219.9063,348.0469 220.5,347.7813 Q221.0938,347.5 221.7188,346.9219 L221.7188,349.6406 Z " fill="#000000"/><text fill="#000000" font-family="sans-serif" font-size="14" lengthAdjust="spacing" textLength="66" x="239.25" y="348.8467">Condition</text><line style="stroke:#181818;stroke-width:0.5;" x1="158" x2="354" y1="360" y2="360"/><text fill="#000000" font-family="sans-serif" font-size="14" lengthAdjust="spacing" textLength="119" x="163" y="376.9951">identifier (0.., MS)</text><text fill="#000000" font-family="sans-serif" font-size="14" lengthAdjust="spacing" textLength="149" x="163" y="393.292">clinicalStatus (..1, MS)</text><text fill="#000000" font-family="sans-serif" font-size="14" lengthAdjust="spacing" textLength="186" x="163" y="409.5889">verificationStatus (0..1, MS)</text><text fill="#000000" font-family="sans-serif" font-size="14" lengthAdjust="spacing" textLength="120" x="163" y="425.8857">category (0.., MS)</text><text fill="#000000" font-family="sans-serif" font-size="14" lengthAdjust="spacing" textLength="122" x="163" y="442.1826">severity (0..1, MS)</text><text fill="#000000" font-family="sans-serif" font-size="14" lengthAdjust="spacing" textLength="104" x="163" y="458.4795">code (0..1, MS)</text><text fill="#000000" font-family="sans-serif" font-size="14" lengthAdjust="spacing" textLength="120" x="163" y="474.7764">bodySite (0.., MS)</text><text fill="#000000" font-family="sans-serif" font-size="14" lengthAdjust="spacing" textLength="120" x="163" y="491.0732">subject (1..1, MS)</text><text fill="#000000" font-family="sans-serif" font-size="14" lengthAdjust="spacing" textLength="141" x="163" y="507.3701">encounter (0..1, MS)</text><text fill="#000000" font-family="sans-serif" font-size="14" lengthAdjust="spacing" textLength="165" x="163" y="523.667">recordedDate (0..1, MS)</text><text fill="#000000" font-family="sans-serif" font-size="14" lengthAdjust="spacing" textLength="99" x="163" y="539.9639">stage (0.., MS)</text><text fill="#000000" font-family="sans-serif" font-size="14" lengthAdjust="spacing" textLength="123" x="163" y="556.2607">evidence (0.., MS)</text><text fill="#000000" font-family="sans-serif" font-size="14" lengthAdjust="spacing" textLength="92" x="163" y="572.5576">note (0.., MS)</text><line style="stroke:#181818;stroke-width:0.5;" x1="158" x2="354" y1="579.8594" y2="579.8594"/></g><!--MD5=[df3fc242ef91a47d9d4eb0969d2a8168]
class Procedure--><g id="elem_Procedure"><rect codeLine="42" fill="#F1F1F1" height="227.2656" id="Procedure" rx="2.5" ry="2.5" style="stroke:#181818;stroke-width:0.5;" width="177" x="390.5" y="344.5"/><ellipse cx="438.75" cy="360.5" fill="#C2C2C2" rx="11" ry="11" style="stroke:#181818;stroke-width:1.0;"/><path d="M441.7188,366.1406 Q441.1406,366.4375 440.5,366.5781 Q439.8594,366.7344 439.1563,366.7344 Q436.6563,366.7344 435.3281,365.0938 Q434.0156,363.4375 434.0156,360.3125 Q434.0156,357.1875 435.3281,355.5313 Q436.6563,353.875 439.1563,353.875 Q439.8594,353.875 440.5,354.0313 Q441.1563,354.1875 441.7188,354.4844 L441.7188,357.2031 Q441.0938,356.625 440.5,356.3594 Q439.9063,356.0781 439.2813,356.0781 Q437.9375,356.0781 437.25,357.1563 Q436.5625,358.2188 436.5625,360.3125 Q436.5625,362.4063 437.25,363.4844 Q437.9375,364.5469 439.2813,364.5469 Q439.9063,364.5469 440.5,364.2813 Q441.0938,364 441.7188,363.4219 L441.7188,366.1406 Z " fill="#000000"/><text fill="#000000" font-family="sans-serif" font-size="14" lengthAdjust="spacing" textLength="72" x="459.25" y="365.3467">Procedure</text><line style="stroke:#181818;stroke-width:0.5;" x1="391.5" x2="566.5" y1="376.5" y2="376.5"/><text fill="#000000" font-family="sans-serif" font-size="14" lengthAdjust="spacing" textLength="119" x="396.5" y="393.4951">identifier (0.., MS)</text><text fill="#000000" font-family="sans-serif" font-size="14" lengthAdjust="spacing" textLength="112" x="396.5" y="409.792">status (1..1, MS)</text><text fill="#000000" font-family="sans-serif" font-size="14" lengthAdjust="spacing" textLength="165" x="396.5" y="426.0889">statusReason (0..1, MS)</text><text fill="#000000" font-family="sans-serif" font-size="14" lengthAdjust="spacing" textLength="129" x="396.5" y="442.3857">category (0..1, MS)</text><text fill="#000000" font-family="sans-serif" font-size="14" lengthAdjust="spacing" textLength="104" x="396.5" y="458.6826">code (0..1, MS)</text><text fill="#000000" font-family="sans-serif" font-size="14" lengthAdjust="spacing" textLength="120" x="396.5" y="474.9795">subject (1..1, MS)</text><text fill="#000000" font-family="sans-serif" font-size="14" lengthAdjust="spacing" textLength="141" x="396.5" y="491.2764">encounter (0..1, MS)</text><text fill="#000000" font-family="sans-serif" font-size="14" lengthAdjust="spacing" textLength="145" x="396.5" y="507.5732">reasonCode (0.., MS)</text><text fill="#000000" font-family="sans-serif" font-size="14" lengthAdjust="spacing" textLength="131" x="396.5" y="523.8701">outcome (0..1, MS)</text><text fill="#000000" font-family="sans-serif" font-size="14" lengthAdjust="spacing" textLength="147" x="396.5" y="540.167">complication (0.., MS)</text><text fill="#000000" font-family="sans-serif" font-size="14" lengthAdjust="spacing" textLength="92" x="396.5" y="556.4639">note (0.., MS)</text><line style="stroke:#181818;stroke-width:0.5;" x1="391.5" x2="566.5" y1="563.7656" y2="563.7656"/></g><!--MD5=[0a005aa698e1f18d1a2bb4de0df49e47]
class Encounter--><g id="elem_Encounter"><rect fill="#F1F1F1" height="48" id="Encounter" rx="2.5" ry="2.5" style="stroke:#181818;stroke-width:0.5;" width="104" x="204" y="105"/><ellipse cx="219" cy="121" fill="#C2C2C2" rx="11" ry="11" style="stroke:#181818;stroke-width:1.0;"/><path d="M221.9688,126.6406 Q221.3906,126.9375 220.75,127.0781 Q220.1094,127.2344 219.4063,127.2344 Q216.9063,127.2344 215.5781,125.5938 Q214.2656,123.9375 214.2656,120.8125 Q214.2656,117.6875 215.5781,116.0313 Q216.9063,114.375 219.4063,114.375 Q220.1094,114.375 220.75,114.5313 Q221.4063,114.6875 221.9688,114.9844 L221.9688,117.7031 Q221.3438,117.125 220.75,116.8594 Q220.1563,116.5781 219.5313,116.5781 Q218.1875,116.5781 217.5,117.6563 Q216.8125,118.7188 216.8125,120.8125 Q216.8125,122.9063 217.5,123.9844 Q218.1875,125.0469 219.5313,125.0469 Q220.1563,125.0469 220.75,124.7813 Q221.3438,124.5 221.9688,123.9219 L221.9688,126.6406 Z " fill="#000000"/><text fill="#000000" font-family="sans-serif" font-size="14" lengthAdjust="spacing" textLength="72" x="233" y="125.8467">Encounter</text><line style="stroke:#181818;stroke-width:0.5;" x1="205" x2="307" y1="137" y2="137"/><line style="stroke:#181818;stroke-width:0.5;" x1="205" x2="307" y1="145" y2="145"/></g><!--MD5=[c827e34f2611e26c1020b2ebd2a6f2a0]
reverse link Encounter to Patient--><g id="link_Encounter_Patient"><path codeLine="56" d="M239.81,165.48 C227.25,190.85 208.25,224.96 186,251 C150.69,292.32 114.39,278.94 91,328 C41.28,432.31 48.12,480.69 91,588 C104.8,622.55 129.12,654.14 154.92,680.63 " fill="none" id="Encounter-backto-Patient" style="stroke:#181818;stroke-width:1.0;"/><polygon fill="none" points="245.61,153.46,239.4007,157.1266,240.3971,164.2686,246.6064,160.6019,245.61,153.46" style="stroke:#181818;stroke-width:1.0;"/><text fill="#000000" font-family="sans-serif" font-size="13" lengthAdjust="spacing" textLength="46" x="92" y="462.5669">subject</text></g><!--MD5=[d5187bde563118fb2dacd0369a464c9b]
reverse link Encounter to Condition--><g id="link_Encounter_Condition"><path codeLine="57" d="M256,166.43 C256,205.43 256,269.56 256,327.66 " fill="none" id="Encounter-backto-Condition" style="stroke:#181818;stroke-width:1.0;"/><polygon fill="none" points="256,153.25,252,159.25,256,165.25,260,159.25,256,153.25" style="stroke:#181818;stroke-width:1.0;"/><text fill="#000000" font-family="sans-serif" font-size="13" lengthAdjust="spacing" textLength="122" x="257" y="294.0669">diagnosis.condition</text></g><!--MD5=[2093f16872e89b2dd73c0126233648e4]
reverse link Encounter to Procedure--><g id="link_Encounter_Procedure"><path codeLine="58" d="M288.5,162.43 C316.87,191.79 358.07,237.04 388,281 C401.45,300.76 414.31,322.76 425.9,344.34 " fill="none" id="Encounter-backto-Procedure" style="stroke:#181818;stroke-width:1.0;"/><polygon fill="none" points="279.4,153.11,280.7207,160.1991,287.7725,161.7066,286.4518,154.6175,279.4,153.11" style="stroke:#181818;stroke-width:1.0;"/><text fill="#000000" font-family="sans-serif" font-size="13" lengthAdjust="spacing" textLength="122" x="398" y="294.0669">diagnosis.condition</text></g><!--MD5=[6425178d999975551e348fd5eafbe1b8]
reverse link Condition to Patient--><g id="link_Condition_Patient"><path codeLine="59" d="M256,601.17 C256,622.72 256,644.52 256,664.8 " fill="none" id="Condition-backto-Patient" style="stroke:#181818;stroke-width:1.0;"/><polygon fill="none" points="256,588.16,252,594.16,256,600.16,260,594.16,256,588.16" style="stroke:#181818;stroke-width:1.0;"/><text fill="#000000" font-family="sans-serif" font-size="13" lengthAdjust="spacing" textLength="46" x="257" y="631.0669">subject</text></g><!--MD5=[8fe401a668021fb806ea99b130c0c841]
reverse link Procedure to Patient--><g id="link_Procedure_Patient"><path codeLine="60" d="M388.25,582.11 C367.97,609.61 346.75,638.39 327.39,664.66 " fill="none" id="Procedure-backto-Patient" style="stroke:#181818;stroke-width:1.0;"/><polygon fill="none" points="395.96,571.64,389.1792,574.0937,388.8362,581.2967,395.617,578.8429,395.96,571.64" style="stroke:#181818;stroke-width:1.0;"/><text fill="#000000" font-family="sans-serif" font-size="13" lengthAdjust="spacing" textLength="46" x="362" y="631.0669">subject</text></g><!--MD5=[c48bf22ea7520aab7f49dc7466086338]
@startuml ClassDiagram.CaseReference
skinparam monochrome true
class Encounters {
  {field} identifier (0.., MS)
  {field} status (1..1, MS)
  {field} statusHistory (0.., MS)
  {field} class (..1, MS)
  {field} classHistory (0.., MS)
  {field} serviceType (0.., MS)
  {field} priority (0.., MS)
  {field} subject (1..1, MS)
  {field} period (0.., MS)
  {field} length (0.., MS)
  {field} reasonCode (0.., MS)
  {field} diagnosis (0.., MS)
}
class Patient {
  {field} identifier (1.., MS)
  {field} name (1..1, MS)
  {field} gender (..1, MS)
  {field} birthDate (..1, MS)
  {field} address (0.., MS)
  {field} photo (1.., MS)
  {field} contact (0.., MS)
  {field} communication (0.., MS)
  {field} generalPractitioner (0.., MS)
}
class Condition {
  {field} identifier (0.., MS)
  {field} clinicalStatus (..1, MS)
  {field} verificationStatus (0..1, MS)
  {field} category (0.., MS)
  {field} severity (0..1, MS)
  {field} code (0..1, MS)
  {field} bodySite (0.., MS)
  {field} subject (1..1, MS)
  {field} encounter (0..1, MS)
  {field} recordedDate (0..1, MS)
  {field} stage (0.., MS)
  {field} evidence (0.., MS)
  {field} note (0.., MS)
}
class Procedure {
  {field} identifier (0.., MS)
  {field} status (1..1, MS)
  {field} statusReason (0..1, MS)
  {field} category (0..1, MS)
  {field} code (0..1, MS)
  {field} subject (1..1, MS)
  {field} encounter (0..1, MS)
  {field} reasonCode (0.., MS)
  {field} outcome (0..1, MS)
  {field} complication (0.., MS)
  {field} note (0.., MS)
}

Encounter o- - Patient: subject
Encounter o- - Condition: diagnosis.condition
Encounter o- - Procedure: diagnosis.condition
Condition o- - Patient: subject
Procedure o- - Patient: subject
@enduml

PlantUML version 1.2022.5(Sat Apr 30 10:55:52 UTC 2022)
(GPL source distribution)
Java Runtime: OpenJDK Runtime Environment
JVM: OpenJDK 64-Bit Server VM
Default Encoding: UTF-8
Language: en
Country: null
--></g></svg>