<?xml version="1.0" encoding="us-ascii" standalone="no"?><svg xmlns="http://www.w3.org/2000/svg" xmlns:xlink="http://www.w3.org/1999/xlink" contentStyleType="text/css" height="512px" preserveAspectRatio="none" style="width:880px;height:512px;background:#FFFFFF;" version="1.1" viewBox="0 0 880 512" width="880px" zoomAndPan="magnify"><defs/><g><text fill="#000000" font-family="sans-serif" font-size="14" font-weight="bold" lengthAdjust="spacing" textLength="293" x="292" y="32.9951">Setzen von Berechtigungen im Client</text><ellipse cx="427.25" cy="57.2969" fill="#222222" rx="10" ry="10" style="stroke:#222222;stroke-width:1.0;"/><rect fill="#F1F1F1" height="33.9688" rx="12.5" ry="12.5" style="stroke:#181818;stroke-width:0.5;" width="117" x="368.75" y="87.2969"/><text fill="#000000" font-family="sans-serif" font-size="12" lengthAdjust="spacing" textLength="97" x="378.75" y="108.4355">FDV installieren</text><rect fill="#F1F1F1" height="33.9688" rx="12.5" ry="12.5" style="stroke:#181818;stroke-width:0.5;" width="187" x="333.75" y="141.2656"/><text fill="#000000" font-family="sans-serif" font-size="12" lengthAdjust="spacing" textLength="167" x="343.75" y="162.4043">Berechtigungen einrichten</text><polygon fill="#F1F1F1" points="360.75,195.2344,493.75,195.2344,505.75,207.2344,493.75,219.2344,360.75,219.2344,348.75,207.2344,360.75,195.2344" style="stroke:#181818;stroke-width:0.5;"/><text fill="#000000" font-family="sans-serif" font-size="11" lengthAdjust="spacing" textLength="133" x="360.75" y="211.0425">"Allow all" or "Block all"</text><text fill="#000000" font-family="sans-serif" font-size="11" lengthAdjust="spacing" textLength="46" x="302.75" y="204.6401">Allow all</text><text fill="#000000" font-family="sans-serif" font-size="11" lengthAdjust="spacing" textLength="47" x="505.75" y="204.6401">Block all</text><polygon fill="#F1F1F1" points="118.5,277.6367,285.5,277.6367,297.5,289.6367,285.5,301.6367,118.5,301.6367,106.5,289.6367,118.5,277.6367" style="stroke:#181818;stroke-width:0.5;"/><text fill="#000000" font-family="sans-serif" font-size="11" lengthAdjust="spacing" textLength="167" x="118.5" y="293.4448">BlockedUser-Liste bearbeiten</text><text fill="#000000" font-family="sans-serif" font-size="11" lengthAdjust="spacing" textLength="62" x="44.5" y="287.0425">Hinzuf&#252;gen</text><text fill="#000000" font-family="sans-serif" font-size="11" lengthAdjust="spacing" textLength="55" x="297.5" y="287.0425">Entfernen</text><rect fill="#F1F1F1" height="33.9688" rx="12.5" ry="12.5" style="stroke:#181818;stroke-width:0.5;" width="171" x="11" y="311.6367"/><text fill="#000000" font-family="sans-serif" font-size="12" lengthAdjust="spacing" textLength="151" x="21" y="332.7754">User/Gruppe hinzuf&#252;gen</text><rect fill="#F1F1F1" height="33.9688" rx="12.5" ry="12.5" style="stroke:#181818;stroke-width:0.5;" width="165" x="225" y="311.6367"/><text fill="#000000" font-family="sans-serif" font-size="12" lengthAdjust="spacing" textLength="145" x="235" y="332.7754">User/Gruppe entfernen</text><polygon fill="#F1F1F1" points="124.5,229.2344,279.5,229.2344,291.5,241.2344,279.5,253.2344,124.5,253.2344,112.5,241.2344,124.5,229.2344" style="stroke:#181818;stroke-width:0.5;"/><text fill="#000000" font-family="sans-serif" font-size="11" lengthAdjust="spacing" textLength="10" x="206" y="263.4448">Ja</text><text fill="#000000" font-family="sans-serif" font-size="11" lengthAdjust="spacing" textLength="155" x="124.5" y="245.0425">Beschr&#228;nkungen einrichten</text><text fill="#000000" font-family="sans-serif" font-size="11" lengthAdjust="spacing" textLength="25" x="291.5" y="238.6401">Nein</text><polygon fill="#F1F1F1" points="569.5,277.6367,735.5,277.6367,747.5,289.6367,735.5,301.6367,569.5,301.6367,557.5,289.6367,569.5,277.6367" style="stroke:#181818;stroke-width:0.5;"/><text fill="#000000" font-family="sans-serif" font-size="11" lengthAdjust="spacing" textLength="166" x="569.5" y="293.4448">AllowedUser-Liste bearbeiten</text><text fill="#000000" font-family="sans-serif" font-size="11" lengthAdjust="spacing" textLength="62" x="495.5" y="287.0425">Hinzuf&#252;gen</text><text fill="#000000" font-family="sans-serif" font-size="11" lengthAdjust="spacing" textLength="55" x="747.5" y="287.0425">Entfernen</text><rect fill="#F1F1F1" height="33.9688" rx="12.5" ry="12.5" style="stroke:#181818;stroke-width:0.5;" width="171" x="462" y="311.6367"/><text fill="#000000" font-family="sans-serif" font-size="12" lengthAdjust="spacing" textLength="151" x="472" y="332.7754">User/Gruppe hinzuf&#252;gen</text><rect fill="#F1F1F1" height="33.9688" rx="12.5" ry="12.5" style="stroke:#181818;stroke-width:0.5;" width="165" x="675" y="311.6367"/><text fill="#000000" font-family="sans-serif" font-size="12" lengthAdjust="spacing" textLength="145" x="685" y="332.7754">User/Gruppe entfernen</text><polygon fill="#F1F1F1" points="589,229.2344,716,229.2344,728,241.2344,716,253.2344,589,253.2344,577,241.2344,589,229.2344" style="stroke:#181818;stroke-width:0.5;"/><text fill="#000000" font-family="sans-serif" font-size="11" lengthAdjust="spacing" textLength="10" x="656.5" y="263.4448">Ja</text><text fill="#000000" font-family="sans-serif" font-size="11" lengthAdjust="spacing" textLength="127" x="589" y="245.0425">Erlaubnisse einrichten</text><text fill="#000000" font-family="sans-serif" font-size="11" lengthAdjust="spacing" textLength="25" x="728" y="238.6401">Nein</text><rect fill="#F1F1F1" height="33.9688" rx="12.5" ry="12.5" style="stroke:#181818;stroke-width:0.5;" width="252" x="301.25" y="425.6055"/><text fill="#000000" font-family="sans-serif" font-size="12" lengthAdjust="spacing" textLength="232" x="311.25" y="446.7441">Konfiguration auf dem Server sichern</text><ellipse cx="427.25" cy="490.5742" fill="none" rx="11" ry="11" style="stroke:#222222;stroke-width:1.0;"/><ellipse cx="427.25" cy="490.5742" fill="#222222" rx="6" ry="6" style="stroke:#111111;stroke-width:1.0;"/><line style="stroke:#181818;stroke-width:1.0;" x1="427.25" x2="427.25" y1="67.2969" y2="87.2969"/><polygon fill="#181818" points="423.25,77.2969,427.25,87.2969,431.25,77.2969,427.25,81.2969" style="stroke:#181818;stroke-width:1.0;"/><line style="stroke:#181818;stroke-width:1.0;" x1="427.25" x2="427.25" y1="121.2656" y2="141.2656"/><polygon fill="#181818" points="423.25,131.2656,427.25,141.2656,431.25,131.2656,427.25,135.2656" style="stroke:#181818;stroke-width:1.0;"/><line style="stroke:#181818;stroke-width:1.0;" x1="106.5" x2="96.5" y1="289.6367" y2="289.6367"/><line style="stroke:#181818;stroke-width:1.0;" x1="96.5" x2="96.5" y1="289.6367" y2="311.6367"/><polygon fill="#181818" points="92.5,301.6367,96.5,311.6367,100.5,301.6367,96.5,305.6367" style="stroke:#181818;stroke-width:1.0;"/><line style="stroke:#181818;stroke-width:1.0;" x1="297.5" x2="307.5" y1="289.6367" y2="289.6367"/><line style="stroke:#181818;stroke-width:1.0;" x1="307.5" x2="307.5" y1="289.6367" y2="311.6367"/><polygon fill="#181818" points="303.5,301.6367,307.5,311.6367,311.5,301.6367,307.5,305.6367" style="stroke:#181818;stroke-width:1.0;"/><line style="stroke:#181818;stroke-width:1.0;" x1="96.5" x2="96.5" y1="345.6055" y2="363.6055"/><polygon fill="#181818" points="92.5,353.6055,96.5,363.6055,100.5,353.6055,96.5,357.6055" style="stroke:#181818;stroke-width:1.0;"/><line style="stroke:#181818;stroke-width:1.0;" x1="307.5" x2="307.5" y1="345.6055" y2="363.6055"/><polygon fill="#181818" points="303.5,353.6055,307.5,363.6055,311.5,353.6055,307.5,357.6055" style="stroke:#181818;stroke-width:1.0;"/><line style="stroke:#181818;stroke-width:1.0;" x1="96.5" x2="307.5" y1="363.6055" y2="363.6055"/><line style="stroke:#181818;stroke-width:1.0;" x1="202" x2="202" y1="253.2344" y2="277.6367"/><polygon fill="#181818" points="198,267.6367,202,277.6367,206,267.6367,202,271.6367" style="stroke:#181818;stroke-width:1.0;"/><line style="stroke:#181818;stroke-width:1.0;" x1="291.5" x2="410" y1="241.2344" y2="241.2344"/><line style="stroke:#181818;stroke-width:1.0;" x1="410" x2="410" y1="241.2344" y2="385.6055"/><polygon fill="#181818" points="406,375.6055,410,385.6055,414,375.6055,410,379.6055" style="stroke:#181818;stroke-width:1.0;"/><line style="stroke:#181818;stroke-width:1.0;" x1="410" x2="202" y1="385.6055" y2="385.6055"/><line style="stroke:#181818;stroke-width:1.0;" x1="202" x2="202" y1="385.6055" y2="390.6055"/><line style="stroke:#181818;stroke-width:1.0;" x1="202" x2="202" y1="363.6055" y2="385.6055"/><polygon fill="#181818" points="198,375.6055,202,385.6055,206,375.6055,202,379.6055" style="stroke:#181818;stroke-width:1.0;"/><line style="stroke:#181818;stroke-width:1.0;" x1="557.5" x2="547.5" y1="289.6367" y2="289.6367"/><line style="stroke:#181818;stroke-width:1.0;" x1="547.5" x2="547.5" y1="289.6367" y2="311.6367"/><polygon fill="#181818" points="543.5,301.6367,547.5,311.6367,551.5,301.6367,547.5,305.6367" style="stroke:#181818;stroke-width:1.0;"/><line style="stroke:#181818;stroke-width:1.0;" x1="747.5" x2="757.5" y1="289.6367" y2="289.6367"/><line style="stroke:#181818;stroke-width:1.0;" x1="757.5" x2="757.5" y1="289.6367" y2="311.6367"/><polygon fill="#181818" points="753.5,301.6367,757.5,311.6367,761.5,301.6367,757.5,305.6367" style="stroke:#181818;stroke-width:1.0;"/><line style="stroke:#181818;stroke-width:1.0;" x1="547.5" x2="547.5" y1="345.6055" y2="363.6055"/><polygon fill="#181818" points="543.5,353.6055,547.5,363.6055,551.5,353.6055,547.5,357.6055" style="stroke:#181818;stroke-width:1.0;"/><line style="stroke:#181818;stroke-width:1.0;" x1="757.5" x2="757.5" y1="345.6055" y2="363.6055"/><polygon fill="#181818" points="753.5,353.6055,757.5,363.6055,761.5,353.6055,757.5,357.6055" style="stroke:#181818;stroke-width:1.0;"/><line style="stroke:#181818;stroke-width:1.0;" x1="547.5" x2="757.5" y1="363.6055" y2="363.6055"/><line style="stroke:#181818;stroke-width:1.0;" x1="652.5" x2="652.5" y1="253.2344" y2="277.6367"/><polygon fill="#181818" points="648.5,267.6367,652.5,277.6367,656.5,267.6367,652.5,271.6367" style="stroke:#181818;stroke-width:1.0;"/><line style="stroke:#181818;stroke-width:1.0;" x1="728" x2="854" y1="241.2344" y2="241.2344"/><line style="stroke:#181818;stroke-width:1.0;" x1="854" x2="854" y1="241.2344" y2="385.6055"/><polygon fill="#181818" points="850,375.6055,854,385.6055,858,375.6055,854,379.6055" style="stroke:#181818;stroke-width:1.0;"/><line style="stroke:#181818;stroke-width:1.0;" x1="854" x2="652.5" y1="385.6055" y2="385.6055"/><line style="stroke:#181818;stroke-width:1.0;" x1="652.5" x2="652.5" y1="385.6055" y2="390.6055"/><line style="stroke:#181818;stroke-width:1.0;" x1="652.5" x2="652.5" y1="363.6055" y2="385.6055"/><polygon fill="#181818" points="648.5,375.6055,652.5,385.6055,656.5,375.6055,652.5,379.6055" style="stroke:#181818;stroke-width:1.0;"/><line style="stroke:#181818;stroke-width:1.0;" x1="348.75" x2="202" y1="207.2344" y2="207.2344"/><line style="stroke:#181818;stroke-width:1.0;" x1="202" x2="202" y1="207.2344" y2="229.2344"/><polygon fill="#181818" points="198,219.2344,202,229.2344,206,219.2344,202,223.2344" style="stroke:#181818;stroke-width:1.0;"/><line style="stroke:#181818;stroke-width:1.0;" x1="505.75" x2="652.5" y1="207.2344" y2="207.2344"/><line style="stroke:#181818;stroke-width:1.0;" x1="652.5" x2="652.5" y1="207.2344" y2="229.2344"/><polygon fill="#181818" points="648.5,219.2344,652.5,229.2344,656.5,219.2344,652.5,223.2344" style="stroke:#181818;stroke-width:1.0;"/><line style="stroke:#181818;stroke-width:1.0;" x1="202" x2="202" y1="390.6055" y2="405.6055"/><polygon fill="#181818" points="198,395.6055,202,405.6055,206,395.6055,202,399.6055" style="stroke:#181818;stroke-width:1.0;"/><line style="stroke:#181818;stroke-width:1.0;" x1="652.5" x2="652.5" y1="390.6055" y2="405.6055"/><polygon fill="#181818" points="648.5,395.6055,652.5,405.6055,656.5,395.6055,652.5,399.6055" style="stroke:#181818;stroke-width:1.0;"/><line style="stroke:#181818;stroke-width:1.0;" x1="202" x2="652.5" y1="405.6055" y2="405.6055"/><line style="stroke:#181818;stroke-width:1.0;" x1="427.25" x2="427.25" y1="175.2344" y2="195.2344"/><polygon fill="#181818" points="423.25,185.2344,427.25,195.2344,431.25,185.2344,427.25,189.2344" style="stroke:#181818;stroke-width:1.0;"/><line style="stroke:#181818;stroke-width:1.0;" x1="427.25" x2="427.25" y1="405.6055" y2="425.6055"/><polygon fill="#181818" points="423.25,415.6055,427.25,425.6055,431.25,415.6055,427.25,419.6055" style="stroke:#181818;stroke-width:1.0;"/><line style="stroke:#181818;stroke-width:1.0;" x1="427.25" x2="427.25" y1="459.5742" y2="479.5742"/><polygon fill="#181818" points="423.25,469.5742,427.25,479.5742,431.25,469.5742,427.25,473.5742" style="stroke:#181818;stroke-width:1.0;"/><!--SRC=[pPAnJWCn38RtF8LrqtL0xDU9GW41OgbWJ- -SdjNKEJcv8leyF0PRNmpdhYseGimiaUpVtw_yYHCbZx30j4E6RM2OeM3T9bhrlD8MRU3Q4t8oSKtSMR7Q2DnGei1pRXRfNVdM4wE9oKeorUtDAn1huHKKvAcfpaoHM4Zhh1boK1PNteStKAA0853CVAZNGpc1r2fHdWOc1e1SESDOjxB_uFMvvP5ui7bq7CvssBn4b8idYWbXYLQMI3_6xubtlTj_gjd8LNdyyaxwhjE0t-fqKD57X7BEoQ7mhmWUjGEWR-RC29RFUjsCZCtHwvJva70ktlPBfgZYd-c6f_d7wOQpUWpizF_5viK1spjeSAEB9riKY1fEtQQwGg4pNm00]--></g></svg>