<?xml version="1.0" encoding="us-ascii" standalone="no"?><svg xmlns="http://www.w3.org/2000/svg" xmlns:xlink="http://www.w3.org/1999/xlink" contentStyleType="text/css" height="512px" preserveAspectRatio="none" style="width:879px;height:512px;background:#FFFFFF;" version="1.1" viewBox="0 0 879 512" width="879px" zoomAndPan="magnify"><defs/><g><text fill="#000000" font-family="sans-serif" font-size="14" font-weight="bold" lengthAdjust="spacing" textLength="293" x="291.5" y="32.9951">Setzen von Berechtigungen im Client</text><ellipse cx="426.5" cy="57.2969" fill="#222222" rx="10" ry="10" style="stroke:#222222;stroke-width:1.0;"/><rect fill="#F1F1F1" height="33.9688" rx="12.5" ry="12.5" style="stroke:#181818;stroke-width:0.5;" width="117" x="368" y="87.2969"/><text fill="#000000" font-family="sans-serif" font-size="12" lengthAdjust="spacing" textLength="97" x="378" y="108.4355">FDV installieren</text><rect fill="#F1F1F1" height="33.9688" rx="12.5" ry="12.5" style="stroke:#181818;stroke-width:0.5;" width="187" x="333" y="141.2656"/><text fill="#000000" font-family="sans-serif" font-size="12" lengthAdjust="spacing" textLength="167" x="343" y="162.4043">Berechtigungen einrichten</text><polygon fill="#F1F1F1" points="363,195.2344,490,195.2344,502,207.2344,490,219.2344,363,219.2344,351,207.2344,363,195.2344" style="stroke:#181818;stroke-width:0.5;"/><text fill="#000000" font-family="sans-serif" font-size="11" lengthAdjust="spacing" textLength="127" x="363" y="211.0425">"Allow all" or "nobody"</text><text fill="#000000" font-family="sans-serif" font-size="11" lengthAdjust="spacing" textLength="46" x="305" y="204.6401">Allow all</text><text fill="#000000" font-family="sans-serif" font-size="11" lengthAdjust="spacing" textLength="41" x="502" y="204.6401">nobody</text><polygon fill="#F1F1F1" points="118.5,277.6367,284.5,277.6367,296.5,289.6367,284.5,301.6367,118.5,301.6367,106.5,289.6367,118.5,277.6367" style="stroke:#181818;stroke-width:0.5;"/><text fill="#000000" font-family="sans-serif" font-size="11" lengthAdjust="spacing" textLength="166" x="118.5" y="293.4448">IgnoredUser-Liste bearbeiten</text><text fill="#000000" font-family="sans-serif" font-size="11" lengthAdjust="spacing" textLength="62" x="44.5" y="287.0425">Hinzuf&#252;gen</text><text fill="#000000" font-family="sans-serif" font-size="11" lengthAdjust="spacing" textLength="55" x="296.5" y="287.0425">Entfernen</text><rect fill="#F1F1F1" height="33.9688" rx="12.5" ry="12.5" style="stroke:#181818;stroke-width:0.5;" width="171" x="11" y="311.6367"/><text fill="#000000" font-family="sans-serif" font-size="12" lengthAdjust="spacing" textLength="151" x="21" y="332.7754">User/Gruppe hinzuf&#252;gen</text><rect fill="#F1F1F1" height="33.9688" rx="12.5" ry="12.5" style="stroke:#181818;stroke-width:0.5;" width="165" x="224" y="311.6367"/><text fill="#000000" font-family="sans-serif" font-size="12" lengthAdjust="spacing" textLength="145" x="234" y="332.7754">User/Gruppe entfernen</text><polygon fill="#F1F1F1" points="124,229.2344,279,229.2344,291,241.2344,279,253.2344,124,253.2344,112,241.2344,124,229.2344" style="stroke:#181818;stroke-width:0.5;"/><text fill="#000000" font-family="sans-serif" font-size="11" lengthAdjust="spacing" textLength="10" x="205.5" y="263.4448">Ja</text><text fill="#000000" font-family="sans-serif" font-size="11" lengthAdjust="spacing" textLength="155" x="124" y="245.0425">Beschr&#228;nkungen einrichten</text><text fill="#000000" font-family="sans-serif" font-size="11" lengthAdjust="spacing" textLength="25" x="291" y="238.6401">Nein</text><polygon fill="#F1F1F1" points="568.5,277.6367,734.5,277.6367,746.5,289.6367,734.5,301.6367,568.5,301.6367,556.5,289.6367,568.5,277.6367" style="stroke:#181818;stroke-width:0.5;"/><text fill="#000000" font-family="sans-serif" font-size="11" lengthAdjust="spacing" textLength="166" x="568.5" y="293.4448">AllowedUser-Liste bearbeiten</text><text fill="#000000" font-family="sans-serif" font-size="11" lengthAdjust="spacing" textLength="62" x="494.5" y="287.0425">Hinzuf&#252;gen</text><text fill="#000000" font-family="sans-serif" font-size="11" lengthAdjust="spacing" textLength="55" x="746.5" y="287.0425">Entfernen</text><rect fill="#F1F1F1" height="33.9688" rx="12.5" ry="12.5" style="stroke:#181818;stroke-width:0.5;" width="171" x="461" y="311.6367"/><text fill="#000000" font-family="sans-serif" font-size="12" lengthAdjust="spacing" textLength="151" x="471" y="332.7754">User/Gruppe hinzuf&#252;gen</text><rect fill="#F1F1F1" height="33.9688" rx="12.5" ry="12.5" style="stroke:#181818;stroke-width:0.5;" width="165" x="674" y="311.6367"/><text fill="#000000" font-family="sans-serif" font-size="12" lengthAdjust="spacing" textLength="145" x="684" y="332.7754">User/Gruppe entfernen</text><polygon fill="#F1F1F1" points="588,229.2344,715,229.2344,727,241.2344,715,253.2344,588,253.2344,576,241.2344,588,229.2344" style="stroke:#181818;stroke-width:0.5;"/><text fill="#000000" font-family="sans-serif" font-size="11" lengthAdjust="spacing" textLength="10" x="655.5" y="263.4448">Ja</text><text fill="#000000" font-family="sans-serif" font-size="11" lengthAdjust="spacing" textLength="127" x="588" y="245.0425">Erlaubnisse einrichten</text><text fill="#000000" font-family="sans-serif" font-size="11" lengthAdjust="spacing" textLength="25" x="727" y="238.6401">Nein</text><rect fill="#F1F1F1" height="33.9688" rx="12.5" ry="12.5" style="stroke:#181818;stroke-width:0.5;" width="252" x="300.5" y="425.6055"/><text fill="#000000" font-family="sans-serif" font-size="12" lengthAdjust="spacing" textLength="232" x="310.5" y="446.7441">Konfiguration auf dem Server sichern</text><ellipse cx="426.5" cy="490.5742" fill="none" rx="11" ry="11" style="stroke:#222222;stroke-width:1.0;"/><ellipse cx="426.5" cy="490.5742" fill="#222222" rx="6" ry="6" style="stroke:#111111;stroke-width:1.0;"/><line style="stroke:#181818;stroke-width:1.0;" x1="426.5" x2="426.5" y1="67.2969" y2="87.2969"/><polygon fill="#181818" points="422.5,77.2969,426.5,87.2969,430.5,77.2969,426.5,81.2969" style="stroke:#181818;stroke-width:1.0;"/><line style="stroke:#181818;stroke-width:1.0;" x1="426.5" x2="426.5" y1="121.2656" y2="141.2656"/><polygon fill="#181818" points="422.5,131.2656,426.5,141.2656,430.5,131.2656,426.5,135.2656" style="stroke:#181818;stroke-width:1.0;"/><line style="stroke:#181818;stroke-width:1.0;" x1="106.5" x2="96.5" y1="289.6367" y2="289.6367"/><line style="stroke:#181818;stroke-width:1.0;" x1="96.5" x2="96.5" y1="289.6367" y2="311.6367"/><polygon fill="#181818" points="92.5,301.6367,96.5,311.6367,100.5,301.6367,96.5,305.6367" style="stroke:#181818;stroke-width:1.0;"/><line style="stroke:#181818;stroke-width:1.0;" x1="296.5" x2="306.5" y1="289.6367" y2="289.6367"/><line style="stroke:#181818;stroke-width:1.0;" x1="306.5" x2="306.5" y1="289.6367" y2="311.6367"/><polygon fill="#181818" points="302.5,301.6367,306.5,311.6367,310.5,301.6367,306.5,305.6367" style="stroke:#181818;stroke-width:1.0;"/><line style="stroke:#181818;stroke-width:1.0;" x1="96.5" x2="96.5" y1="345.6055" y2="363.6055"/><polygon fill="#181818" points="92.5,353.6055,96.5,363.6055,100.5,353.6055,96.5,357.6055" style="stroke:#181818;stroke-width:1.0;"/><line style="stroke:#181818;stroke-width:1.0;" x1="306.5" x2="306.5" y1="345.6055" y2="363.6055"/><polygon fill="#181818" points="302.5,353.6055,306.5,363.6055,310.5,353.6055,306.5,357.6055" style="stroke:#181818;stroke-width:1.0;"/><line style="stroke:#181818;stroke-width:1.0;" x1="96.5" x2="306.5" y1="363.6055" y2="363.6055"/><line style="stroke:#181818;stroke-width:1.0;" x1="201.5" x2="201.5" y1="253.2344" y2="277.6367"/><polygon fill="#181818" points="197.5,267.6367,201.5,277.6367,205.5,267.6367,201.5,271.6367" style="stroke:#181818;stroke-width:1.0;"/><line style="stroke:#181818;stroke-width:1.0;" x1="291" x2="409" y1="241.2344" y2="241.2344"/><line style="stroke:#181818;stroke-width:1.0;" x1="409" x2="409" y1="241.2344" y2="385.6055"/><polygon fill="#181818" points="405,375.6055,409,385.6055,413,375.6055,409,379.6055" style="stroke:#181818;stroke-width:1.0;"/><line style="stroke:#181818;stroke-width:1.0;" x1="409" x2="201.5" y1="385.6055" y2="385.6055"/><line style="stroke:#181818;stroke-width:1.0;" x1="201.5" x2="201.5" y1="385.6055" y2="390.6055"/><line style="stroke:#181818;stroke-width:1.0;" x1="201.5" x2="201.5" y1="363.6055" y2="385.6055"/><polygon fill="#181818" points="197.5,375.6055,201.5,385.6055,205.5,375.6055,201.5,379.6055" style="stroke:#181818;stroke-width:1.0;"/><line style="stroke:#181818;stroke-width:1.0;" x1="556.5" x2="546.5" y1="289.6367" y2="289.6367"/><line style="stroke:#181818;stroke-width:1.0;" x1="546.5" x2="546.5" y1="289.6367" y2="311.6367"/><polygon fill="#181818" points="542.5,301.6367,546.5,311.6367,550.5,301.6367,546.5,305.6367" style="stroke:#181818;stroke-width:1.0;"/><line style="stroke:#181818;stroke-width:1.0;" x1="746.5" x2="756.5" y1="289.6367" y2="289.6367"/><line style="stroke:#181818;stroke-width:1.0;" x1="756.5" x2="756.5" y1="289.6367" y2="311.6367"/><polygon fill="#181818" points="752.5,301.6367,756.5,311.6367,760.5,301.6367,756.5,305.6367" style="stroke:#181818;stroke-width:1.0;"/><line style="stroke:#181818;stroke-width:1.0;" x1="546.5" x2="546.5" y1="345.6055" y2="363.6055"/><polygon fill="#181818" points="542.5,353.6055,546.5,363.6055,550.5,353.6055,546.5,357.6055" style="stroke:#181818;stroke-width:1.0;"/><line style="stroke:#181818;stroke-width:1.0;" x1="756.5" x2="756.5" y1="345.6055" y2="363.6055"/><polygon fill="#181818" points="752.5,353.6055,756.5,363.6055,760.5,353.6055,756.5,357.6055" style="stroke:#181818;stroke-width:1.0;"/><line style="stroke:#181818;stroke-width:1.0;" x1="546.5" x2="756.5" y1="363.6055" y2="363.6055"/><line style="stroke:#181818;stroke-width:1.0;" x1="651.5" x2="651.5" y1="253.2344" y2="277.6367"/><polygon fill="#181818" points="647.5,267.6367,651.5,277.6367,655.5,267.6367,651.5,271.6367" style="stroke:#181818;stroke-width:1.0;"/><line style="stroke:#181818;stroke-width:1.0;" x1="727" x2="853" y1="241.2344" y2="241.2344"/><line style="stroke:#181818;stroke-width:1.0;" x1="853" x2="853" y1="241.2344" y2="385.6055"/><polygon fill="#181818" points="849,375.6055,853,385.6055,857,375.6055,853,379.6055" style="stroke:#181818;stroke-width:1.0;"/><line style="stroke:#181818;stroke-width:1.0;" x1="853" x2="651.5" y1="385.6055" y2="385.6055"/><line style="stroke:#181818;stroke-width:1.0;" x1="651.5" x2="651.5" y1="385.6055" y2="390.6055"/><line style="stroke:#181818;stroke-width:1.0;" x1="651.5" x2="651.5" y1="363.6055" y2="385.6055"/><polygon fill="#181818" points="647.5,375.6055,651.5,385.6055,655.5,375.6055,651.5,379.6055" style="stroke:#181818;stroke-width:1.0;"/><line style="stroke:#181818;stroke-width:1.0;" x1="351" x2="201.5" y1="207.2344" y2="207.2344"/><line style="stroke:#181818;stroke-width:1.0;" x1="201.5" x2="201.5" y1="207.2344" y2="229.2344"/><polygon fill="#181818" points="197.5,219.2344,201.5,229.2344,205.5,219.2344,201.5,223.2344" style="stroke:#181818;stroke-width:1.0;"/><line style="stroke:#181818;stroke-width:1.0;" x1="502" x2="651.5" y1="207.2344" y2="207.2344"/><line style="stroke:#181818;stroke-width:1.0;" x1="651.5" x2="651.5" y1="207.2344" y2="229.2344"/><polygon fill="#181818" points="647.5,219.2344,651.5,229.2344,655.5,219.2344,651.5,223.2344" style="stroke:#181818;stroke-width:1.0;"/><line style="stroke:#181818;stroke-width:1.0;" x1="201.5" x2="201.5" y1="390.6055" y2="405.6055"/><polygon fill="#181818" points="197.5,395.6055,201.5,405.6055,205.5,395.6055,201.5,399.6055" style="stroke:#181818;stroke-width:1.0;"/><line style="stroke:#181818;stroke-width:1.0;" x1="651.5" x2="651.5" y1="390.6055" y2="405.6055"/><polygon fill="#181818" points="647.5,395.6055,651.5,405.6055,655.5,395.6055,651.5,399.6055" style="stroke:#181818;stroke-width:1.0;"/><line style="stroke:#181818;stroke-width:1.0;" x1="201.5" x2="651.5" y1="405.6055" y2="405.6055"/><line style="stroke:#181818;stroke-width:1.0;" x1="426.5" x2="426.5" y1="175.2344" y2="195.2344"/><polygon fill="#181818" points="422.5,185.2344,426.5,195.2344,430.5,185.2344,426.5,189.2344" style="stroke:#181818;stroke-width:1.0;"/><line style="stroke:#181818;stroke-width:1.0;" x1="426.5" x2="426.5" y1="405.6055" y2="425.6055"/><polygon fill="#181818" points="422.5,415.6055,426.5,425.6055,430.5,415.6055,426.5,419.6055" style="stroke:#181818;stroke-width:1.0;"/><line style="stroke:#181818;stroke-width:1.0;" x1="426.5" x2="426.5" y1="459.5742" y2="479.5742"/><polygon fill="#181818" points="422.5,469.5742,426.5,479.5742,430.5,469.5742,426.5,473.5742" style="stroke:#181818;stroke-width:1.0;"/><!--SRC=[pP8zRiCm38LtdOBmv0n5TtjgslGVNO9sbsCg9g9G1YMdICxJOtJBnKhRILi4HUSi1iJtlWSzcOcIHvXZsY739Z1CKN3H95fslDGHhU7Q4t8oSKNSMh4w25nJei0phkTfgtpZYT74P2MPulRc3OZru1KKvD8K9w58BAJdNZFa8C-kl0_le4G6GI3ZK8LwcqqWDMhFlzM90I2NJp4k6jb_yEeqxqWysjuwc1-M70JhruXoyKmn8LHefKBwPRydtdLk_wbX8rVqziixwTfMs_sevQ2YZmZvZ9D3uJyHF6e7G1_CcH7CN_IwFJ8EnwonyA7UJBpjAgQeoh_LXdSvush3jtWAxFJFY-rN1cpdeCQrhfniK21gEKqhTNb2Qxu0]--></g></svg>