<?xml version="1.0" encoding="us-ascii" standalone="no"?><svg xmlns="http://www.w3.org/2000/svg" xmlns:xlink="http://www.w3.org/1999/xlink" contentStyleType="text/css" height="512px" preserveAspectRatio="none" style="width:1039px;height:512px;background:#FFFFFF;" version="1.1" viewBox="0 0 1039 512" width="1039px" zoomAndPan="magnify"><defs/><g><text fill="#000000" font-family="sans-serif" font-size="14" font-weight="bold" lengthAdjust="spacing" textLength="293" x="371.5" y="32.9951">Setzen von Berechtigungen im Client</text><ellipse cx="506.5" cy="57.2969" fill="#222222" rx="10" ry="10" style="stroke:#222222;stroke-width:1.0;"/><rect fill="#F1F1F1" height="33.9688" rx="12.5" ry="12.5" style="stroke:#181818;stroke-width:0.5;" width="105" x="454" y="87.2969"/><text fill="#000000" font-family="sans-serif" font-size="12" lengthAdjust="spacing" textLength="85" x="464" y="108.4355">Client starten</text><rect fill="#F1F1F1" height="33.9688" rx="12.5" ry="12.5" style="stroke:#181818;stroke-width:0.5;" width="187" x="413" y="141.2656"/><text fill="#000000" font-family="sans-serif" font-size="12" lengthAdjust="spacing" textLength="167" x="423" y="162.4043">Berechtigungen einrichten</text><polygon fill="#F1F1F1" points="440,195.2344,573,195.2344,585,207.2344,573,219.2344,440,219.2344,428,207.2344,440,195.2344" style="stroke:#181818;stroke-width:0.5;"/><text fill="#000000" font-family="sans-serif" font-size="11" lengthAdjust="spacing" textLength="133" x="440" y="211.0425">"Allow all" or "Block all"</text><text fill="#000000" font-family="sans-serif" font-size="11" lengthAdjust="spacing" textLength="46" x="382" y="204.6401">Allow all</text><text fill="#000000" font-family="sans-serif" font-size="11" lengthAdjust="spacing" textLength="47" x="585" y="204.6401">Block all</text><polygon fill="#F1F1F1" points="158,277.6367,325,277.6367,337,289.6367,325,301.6367,158,301.6367,146,289.6367,158,277.6367" style="stroke:#181818;stroke-width:0.5;"/><text fill="#000000" font-family="sans-serif" font-size="11" lengthAdjust="spacing" textLength="167" x="158" y="293.4448">BlockedUser-Liste bearbeiten</text><text fill="#000000" font-family="sans-serif" font-size="11" lengthAdjust="spacing" textLength="62" x="84" y="287.0425">Hinzuf&#252;gen</text><text fill="#000000" font-family="sans-serif" font-size="11" lengthAdjust="spacing" textLength="55" x="337" y="287.0425">Entfernen</text><rect fill="#F1F1F1" height="33.9688" rx="12.5" ry="12.5" style="stroke:#181818;stroke-width:0.5;" width="222" x="11" y="311.6367"/><text fill="#000000" font-family="sans-serif" font-size="12" lengthAdjust="spacing" textLength="202" x="21" y="332.7754">User/Gruppe/Domain hinzuf&#252;gen</text><rect fill="#F1F1F1" height="33.9688" rx="12.5" ry="12.5" style="stroke:#181818;stroke-width:0.5;" width="216" x="253" y="311.6367"/><text fill="#000000" font-family="sans-serif" font-size="12" lengthAdjust="spacing" textLength="196" x="263" y="332.7754">User/Gruppe/Domain entfernen</text><polygon fill="#F1F1F1" points="164,229.2344,319,229.2344,331,241.2344,319,253.2344,164,253.2344,152,241.2344,164,229.2344" style="stroke:#181818;stroke-width:0.5;"/><text fill="#000000" font-family="sans-serif" font-size="11" lengthAdjust="spacing" textLength="10" x="245.5" y="263.4448">Ja</text><text fill="#000000" font-family="sans-serif" font-size="11" lengthAdjust="spacing" textLength="155" x="164" y="245.0425">Beschr&#228;nkungen einrichten</text><text fill="#000000" font-family="sans-serif" font-size="11" lengthAdjust="spacing" textLength="25" x="331" y="238.6401">Nein</text><polygon fill="#F1F1F1" points="688.5,277.6367,854.5,277.6367,866.5,289.6367,854.5,301.6367,688.5,301.6367,676.5,289.6367,688.5,277.6367" style="stroke:#181818;stroke-width:0.5;"/><text fill="#000000" font-family="sans-serif" font-size="11" lengthAdjust="spacing" textLength="166" x="688.5" y="293.4448">AllowedUser-Liste bearbeiten</text><text fill="#000000" font-family="sans-serif" font-size="11" lengthAdjust="spacing" textLength="62" x="614.5" y="287.0425">Hinzuf&#252;gen</text><text fill="#000000" font-family="sans-serif" font-size="11" lengthAdjust="spacing" textLength="55" x="866.5" y="287.0425">Entfernen</text><rect fill="#F1F1F1" height="33.9688" rx="12.5" ry="12.5" style="stroke:#181818;stroke-width:0.5;" width="222" x="541" y="311.6367"/><text fill="#000000" font-family="sans-serif" font-size="12" lengthAdjust="spacing" textLength="202" x="551" y="332.7754">User/Gruppe/Domain hinzuf&#252;gen</text><rect fill="#F1F1F1" height="33.9688" rx="12.5" ry="12.5" style="stroke:#181818;stroke-width:0.5;" width="216" x="783" y="311.6367"/><text fill="#000000" font-family="sans-serif" font-size="12" lengthAdjust="spacing" textLength="196" x="793" y="332.7754">User/Gruppe/Domain entfernen</text><polygon fill="#F1F1F1" points="708,229.2344,835,229.2344,847,241.2344,835,253.2344,708,253.2344,696,241.2344,708,229.2344" style="stroke:#181818;stroke-width:0.5;"/><text fill="#000000" font-family="sans-serif" font-size="11" lengthAdjust="spacing" textLength="10" x="775.5" y="263.4448">Ja</text><text fill="#000000" font-family="sans-serif" font-size="11" lengthAdjust="spacing" textLength="127" x="708" y="245.0425">Erlaubnisse einrichten</text><text fill="#000000" font-family="sans-serif" font-size="11" lengthAdjust="spacing" textLength="25" x="847" y="238.6401">Nein</text><rect fill="#F1F1F1" height="33.9688" rx="12.5" ry="12.5" style="stroke:#181818;stroke-width:0.5;" width="252" x="380.5" y="425.6055"/><text fill="#000000" font-family="sans-serif" font-size="12" lengthAdjust="spacing" textLength="232" x="390.5" y="446.7441">Konfiguration auf dem Server sichern</text><ellipse cx="506.5" cy="490.5742" fill="none" rx="11" ry="11" style="stroke:#222222;stroke-width:1.0;"/><ellipse cx="506.5" cy="490.5742" fill="#222222" rx="6" ry="6" style="stroke:#222222;stroke-width:1.0;"/><line style="stroke:#181818;stroke-width:1.0;" x1="506.5" x2="506.5" y1="67.2969" y2="87.2969"/><polygon fill="#181818" points="502.5,77.2969,506.5,87.2969,510.5,77.2969,506.5,81.2969" style="stroke:#181818;stroke-width:1.0;"/><line style="stroke:#181818;stroke-width:1.0;" x1="506.5" x2="506.5" y1="121.2656" y2="141.2656"/><polygon fill="#181818" points="502.5,131.2656,506.5,141.2656,510.5,131.2656,506.5,135.2656" style="stroke:#181818;stroke-width:1.0;"/><line style="stroke:#181818;stroke-width:1.0;" x1="146" x2="122" y1="289.6367" y2="289.6367"/><line style="stroke:#181818;stroke-width:1.0;" x1="122" x2="122" y1="289.6367" y2="311.6367"/><polygon fill="#181818" points="118,301.6367,122,311.6367,126,301.6367,122,305.6367" style="stroke:#181818;stroke-width:1.0;"/><line style="stroke:#181818;stroke-width:1.0;" x1="337" x2="361" y1="289.6367" y2="289.6367"/><line style="stroke:#181818;stroke-width:1.0;" x1="361" x2="361" y1="289.6367" y2="311.6367"/><polygon fill="#181818" points="357,301.6367,361,311.6367,365,301.6367,361,305.6367" style="stroke:#181818;stroke-width:1.0;"/><line style="stroke:#181818;stroke-width:1.0;" x1="122" x2="122" y1="345.6055" y2="363.6055"/><polygon fill="#181818" points="118,353.6055,122,363.6055,126,353.6055,122,357.6055" style="stroke:#181818;stroke-width:1.0;"/><line style="stroke:#181818;stroke-width:1.0;" x1="361" x2="361" y1="345.6055" y2="363.6055"/><polygon fill="#181818" points="357,353.6055,361,363.6055,365,353.6055,361,357.6055" style="stroke:#181818;stroke-width:1.0;"/><line style="stroke:#181818;stroke-width:1.0;" x1="122" x2="361" y1="363.6055" y2="363.6055"/><line style="stroke:#181818;stroke-width:1.0;" x1="241.5" x2="241.5" y1="253.2344" y2="277.6367"/><polygon fill="#181818" points="237.5,267.6367,241.5,277.6367,245.5,267.6367,241.5,271.6367" style="stroke:#181818;stroke-width:1.0;"/><line style="stroke:#181818;stroke-width:1.0;" x1="331" x2="489" y1="241.2344" y2="241.2344"/><line style="stroke:#181818;stroke-width:1.0;" x1="489" x2="489" y1="241.2344" y2="385.6055"/><polygon fill="#181818" points="485,375.6055,489,385.6055,493,375.6055,489,379.6055" style="stroke:#181818;stroke-width:1.0;"/><line style="stroke:#181818;stroke-width:1.0;" x1="489" x2="241.5" y1="385.6055" y2="385.6055"/><line style="stroke:#181818;stroke-width:1.0;" x1="241.5" x2="241.5" y1="385.6055" y2="390.6055"/><line style="stroke:#181818;stroke-width:1.0;" x1="241.5" x2="241.5" y1="363.6055" y2="385.6055"/><polygon fill="#181818" points="237.5,375.6055,241.5,385.6055,245.5,375.6055,241.5,379.6055" style="stroke:#181818;stroke-width:1.0;"/><line style="stroke:#181818;stroke-width:1.0;" x1="676.5" x2="652" y1="289.6367" y2="289.6367"/><line style="stroke:#181818;stroke-width:1.0;" x1="652" x2="652" y1="289.6367" y2="311.6367"/><polygon fill="#181818" points="648,301.6367,652,311.6367,656,301.6367,652,305.6367" style="stroke:#181818;stroke-width:1.0;"/><line style="stroke:#181818;stroke-width:1.0;" x1="866.5" x2="891" y1="289.6367" y2="289.6367"/><line style="stroke:#181818;stroke-width:1.0;" x1="891" x2="891" y1="289.6367" y2="311.6367"/><polygon fill="#181818" points="887,301.6367,891,311.6367,895,301.6367,891,305.6367" style="stroke:#181818;stroke-width:1.0;"/><line style="stroke:#181818;stroke-width:1.0;" x1="652" x2="652" y1="345.6055" y2="363.6055"/><polygon fill="#181818" points="648,353.6055,652,363.6055,656,353.6055,652,357.6055" style="stroke:#181818;stroke-width:1.0;"/><line style="stroke:#181818;stroke-width:1.0;" x1="891" x2="891" y1="345.6055" y2="363.6055"/><polygon fill="#181818" points="887,353.6055,891,363.6055,895,353.6055,891,357.6055" style="stroke:#181818;stroke-width:1.0;"/><line style="stroke:#181818;stroke-width:1.0;" x1="652" x2="891" y1="363.6055" y2="363.6055"/><line style="stroke:#181818;stroke-width:1.0;" x1="771.5" x2="771.5" y1="253.2344" y2="277.6367"/><polygon fill="#181818" points="767.5,267.6367,771.5,277.6367,775.5,267.6367,771.5,271.6367" style="stroke:#181818;stroke-width:1.0;"/><line style="stroke:#181818;stroke-width:1.0;" x1="847" x2="1013" y1="241.2344" y2="241.2344"/><line style="stroke:#181818;stroke-width:1.0;" x1="1013" x2="1013" y1="241.2344" y2="385.6055"/><polygon fill="#181818" points="1009,375.6055,1013,385.6055,1017,375.6055,1013,379.6055" style="stroke:#181818;stroke-width:1.0;"/><line style="stroke:#181818;stroke-width:1.0;" x1="1013" x2="771.5" y1="385.6055" y2="385.6055"/><line style="stroke:#181818;stroke-width:1.0;" x1="771.5" x2="771.5" y1="385.6055" y2="390.6055"/><line style="stroke:#181818;stroke-width:1.0;" x1="771.5" x2="771.5" y1="363.6055" y2="385.6055"/><polygon fill="#181818" points="767.5,375.6055,771.5,385.6055,775.5,375.6055,771.5,379.6055" style="stroke:#181818;stroke-width:1.0;"/><line style="stroke:#181818;stroke-width:1.0;" x1="428" x2="241.5" y1="207.2344" y2="207.2344"/><line style="stroke:#181818;stroke-width:1.0;" x1="241.5" x2="241.5" y1="207.2344" y2="229.2344"/><polygon fill="#181818" points="237.5,219.2344,241.5,229.2344,245.5,219.2344,241.5,223.2344" style="stroke:#181818;stroke-width:1.0;"/><line style="stroke:#181818;stroke-width:1.0;" x1="585" x2="771.5" y1="207.2344" y2="207.2344"/><line style="stroke:#181818;stroke-width:1.0;" x1="771.5" x2="771.5" y1="207.2344" y2="229.2344"/><polygon fill="#181818" points="767.5,219.2344,771.5,229.2344,775.5,219.2344,771.5,223.2344" style="stroke:#181818;stroke-width:1.0;"/><line style="stroke:#181818;stroke-width:1.0;" x1="241.5" x2="241.5" y1="390.6055" y2="405.6055"/><polygon fill="#181818" points="237.5,395.6055,241.5,405.6055,245.5,395.6055,241.5,399.6055" style="stroke:#181818;stroke-width:1.0;"/><line style="stroke:#181818;stroke-width:1.0;" x1="771.5" x2="771.5" y1="390.6055" y2="405.6055"/><polygon fill="#181818" points="767.5,395.6055,771.5,405.6055,775.5,395.6055,771.5,399.6055" style="stroke:#181818;stroke-width:1.0;"/><line style="stroke:#181818;stroke-width:1.0;" x1="241.5" x2="771.5" y1="405.6055" y2="405.6055"/><line style="stroke:#181818;stroke-width:1.0;" x1="506.5" x2="506.5" y1="175.2344" y2="195.2344"/><polygon fill="#181818" points="502.5,185.2344,506.5,195.2344,510.5,185.2344,506.5,189.2344" style="stroke:#181818;stroke-width:1.0;"/><line style="stroke:#181818;stroke-width:1.0;" x1="506.5" x2="506.5" y1="405.6055" y2="425.6055"/><polygon fill="#181818" points="502.5,415.6055,506.5,425.6055,510.5,415.6055,506.5,419.6055" style="stroke:#181818;stroke-width:1.0;"/><line style="stroke:#181818;stroke-width:1.0;" x1="506.5" x2="506.5" y1="459.5742" y2="479.5742"/><polygon fill="#181818" points="502.5,469.5742,506.5,479.5742,510.5,469.5742,506.5,473.5742" style="stroke:#181818;stroke-width:1.0;"/></g></svg>