<svg width="252" height="72" viewBox="0 0 252 72" fill="none" xmlns="http://www.w3.org/2000/svg">
<path d="M0 16C0 7.16344 7.16344 0 16 0H236C244.837 0 252 7.16344 252 16V56C252 64.8366 244.837 72 236 72H16C7.16344 72 0 64.8366 0 56V16Z" fill="#F5F5F5"/>
<path d="M221.014 34.1597H220.844V16.4405H216.351V47.2187H220.844V38.3388H220.974L229.921 47.2187H236L224.824 36.0493L235.915 26.1145H229.876L221.014 34.1597ZM204.831 47.2187H209.324V26.1145H204.831V47.2187ZM207.06 16C205.26 16 203.933 17.4491 203.933 19.2517C203.933 21.1007 205.26 22.4628 207.06 22.4628C208.861 22.4628 210.227 21.1007 210.227 19.2517C210.227 17.4549 208.855 16 207.06 16ZM191.515 30.2936H199.395V26.1145H191.515V19.785H187.022V39.4401C187.022 45.0682 189.76 47.6592 194.388 47.6592C197.002 47.6592 199.057 46.6912 200.682 45.5493L198.927 41.8571C197.685 42.6512 196.189 43.3062 194.772 43.3062C192.972 43.3062 191.521 42.1643 191.521 39.3473V30.2936H191.515ZM171.951 44.0539C168.57 44.0539 167.458 42.6454 167.458 41.2833C167.458 39.9212 168.401 38.646 171.483 38.3388L177.133 37.765V43.3062C175.891 43.7467 173.961 44.0539 171.951 44.0539ZM172.38 25.674C169.598 25.674 166.555 26.2884 163.688 28.1374L165.359 31.876C167.199 30.7747 169.812 29.7661 172.211 29.7661C175.338 29.7661 177.133 30.9949 177.133 33.8119V34.1655L172.036 34.6929C166.386 35.2668 162.96 37.3302 162.96 41.2427C162.96 45.1146 165.573 47.6592 172.166 47.6592C175.508 47.6592 179.357 46.8245 181.626 45.5899V33.5453C181.626 28.3576 178.245 25.7203 172.38 25.674ZM149.859 25.674C147.29 25.674 144.547 26.468 142.493 27.7838C140.867 26.3753 138.553 25.674 135.77 25.674C132.344 25.674 128.664 27.0825 126.733 29.1459V47.2187H131.226L131.181 31.5688C132.807 30.2472 134.523 29.9864 136.188 29.9864C139.016 29.9864 140.681 31.7021 140.681 34.6929V47.2187H145.174V34.6871C145.174 33.5453 145.044 32.5309 144.79 31.6093C146.077 30.6414 147.872 29.9806 149.712 29.9806C152.41 29.9806 154.205 31.4296 154.205 34.6871V47.2187H158.698V34.6871C158.721 28.7054 155.34 25.674 149.859 25.674ZM106.87 34.5538C107.429 31.6093 109.483 29.6734 112.565 29.6734C115.433 29.6734 117.273 31.3891 117.786 34.5538H106.87ZM122.37 36.3159C122.37 29.8531 118.39 25.674 112.65 25.674C106.61 25.674 102.162 30.027 102.162 36.4898C102.162 43.4801 106.785 47.6592 112.955 47.6592C116.037 47.6592 118.865 46.8651 121.388 44.7147L119.164 41.063C117.453 42.8657 115.269 43.7003 113.214 43.7003C110.217 43.7003 107.135 42.1643 106.751 38.0258H122.285C122.325 37.5041 122.37 36.8839 122.37 36.3159ZM96.9356 29.1459C94.2826 26.3753 90.3428 25.674 87.7745 25.674C80.3689 25.674 76 30.0733 76 36.71C76 43.0396 80.1544 47.2187 86.1037 47.2187C87.814 47.2187 88.7567 46.384 88.7567 44.9755C88.7567 43.654 87.814 42.9062 86.1037 42.9062C82.8073 42.9062 80.493 40.4892 80.493 36.7042C80.493 32.6179 83.0218 29.9748 87.5149 29.9748C88.9711 29.9748 91.0709 30.3689 92.2675 31.5572L92.2224 46.9462C92.2224 50.1979 89.355 51.6934 85.7989 51.6934C82.5477 51.6934 80.4027 50.1979 79.9738 49.9777C78.2183 49.0967 76.508 49.9313 76.508 51.647C76.508 54.5509 81.6445 56 85.8441 56C92.0926 56 96.9356 53.1888 96.9356 46.9404V29.1459Z" fill="#2A4365"/>
<path d="M31.931 28.3057C31.931 27.0312 32.9642 25.998 34.2387 25.998H56.9337C58.2082 25.998 59.2414 27.0312 59.2414 28.3057C59.2414 29.5802 58.2082 30.6134 56.9337 30.6134H34.2387C32.9642 30.6134 31.931 29.5802 31.931 28.3057Z" fill="black"/>
<path d="M21.3103 36.7662C21.3103 35.4917 22.3435 34.4585 23.618 34.4585H57.6923C58.9668 34.4585 60 35.4917 60 36.7662C60 38.0407 58.9668 39.0739 57.6923 39.0739H23.618C22.3435 39.0739 21.3103 38.0407 21.3103 36.7662Z" fill="#DD0B1A"/>
<path d="M16 45.2299C16 43.9554 17.0332 42.9222 18.3077 42.9222H57.6923C58.9668 42.9222 60 43.9554 60 45.2299C60 46.5044 58.9668 47.5376 57.6923 47.5376H18.3077C17.0332 47.5376 16 46.5044 16 45.2299Z" fill="#FEC40E"/>
</svg>
