<?xml version="1.0" encoding="us-ascii" standalone="no"?><svg xmlns="http://www.w3.org/2000/svg" xmlns:xlink="http://www.w3.org/1999/xlink" contentStyleType="text/css" height="1206px" preserveAspectRatio="none" style="width:1283px;height:1206px;background:#FFFFFF;" version="1.1" viewBox="0 0 1283 1206" width="1283px" zoomAndPan="magnify"><defs/><g><rect fill="#F5F5F5" height="1194.3281" style="stroke:#181818;stroke-width:0.5;" width="808" x="237" y="6"/><text fill="#000000" font-family="sans-serif" font-size="18" font-weight="bold" lengthAdjust="spacing" textLength="193" x="544.5" y="22.708">Messenger-Service</text><text fill="#000000" font-family="sans-serif" font-size="13" font-weight="bold" lengthAdjust="spacing" textLength="5" x="544.5" y="39.02">&#160;</text><rect fill="#DCDCDC" height="1055.6797" style="stroke:#000000;stroke-width:1.0;" width="10" x="343" y="94.3672"/><rect fill="#DCDCDC" height="33.7891" style="stroke:#000000;stroke-width:1.0;" width="10" x="688" y="409.4531"/><rect fill="#DCDCDC" height="33.7891" style="stroke:#000000;stroke-width:1.0;" width="10" x="688" y="1018.2578"/><rect fill="none" height="859.5234" style="stroke:#000000;stroke-width:1.5;" width="1065" x="211" y="257.5234"/><rect fill="none" height="66.3828" style="stroke:#000000;stroke-width:1.5;" width="830" x="231" y="310.2813"/><rect fill="#ADD8E6" height="336.1328" style="stroke:#000000;stroke-width:1.5;" width="850" x="221" y="748.9141"/><rect fill="#ADD8E6" height="218.5859" style="stroke:none;stroke-width:1.0;" width="850" x="221" y="866.4609"/><rect fill="none" height="66.3828" style="stroke:#000000;stroke-width:1.5;" width="830" x="231" y="919.0859"/><line style="stroke:#000000;stroke-width:0.5;stroke-dasharray:5.0,5.0;" x1="117" x2="117" y1="84.3672" y2="1159.0469"/><line style="stroke:#000000;stroke-width:0.5;stroke-dasharray:5.0,5.0;" x1="348" x2="348" y1="84.3672" y2="1159.0469"/><line style="stroke:#000000;stroke-width:0.5;stroke-dasharray:5.0,5.0;" x1="693" x2="693" y1="84.3672" y2="1159.0469"/><line style="stroke:#000000;stroke-width:0.5;stroke-dasharray:5.0,5.0;" x1="925" x2="925" y1="84.3672" y2="1159.0469"/><line style="stroke:#000000;stroke-width:0.5;stroke-dasharray:5.0,5.0;" x1="1159" x2="1159" y1="84.3672" y2="1159.0469"/><rect fill="#EFEFFF" height="37.2813" rx="2.5" ry="2.5" style="stroke:#000000;stroke-width:0.5;" width="225" x="5" y="46.0859"/><text fill="#000000" font-family="sans-serif" font-size="20" lengthAdjust="spacing" textLength="211" x="12" y="71.6504">TI-Messenger Actor A</text><rect fill="#EFEFFF" height="37.2813" rx="2.5" ry="2.5" style="stroke:#000000;stroke-width:0.5;" width="225" x="5" y="1158.0469"/><text fill="#000000" font-family="sans-serif" font-size="20" lengthAdjust="spacing" textLength="211" x="12" y="1183.6113">TI-Messenger Actor A</text><rect fill="#EFEFFF" height="37.2813" rx="2.5" ry="2.5" style="stroke:#000000;stroke-width:0.5;" width="214" x="241" y="46.0859"/><text fill="#000000" font-family="sans-serif" font-size="20" lengthAdjust="spacing" textLength="168" x="264" y="71.6504">Messenger-Proxy</text><rect fill="#EFEFFF" height="37.2813" rx="2.5" ry="2.5" style="stroke:#000000;stroke-width:0.5;" width="214" x="241" y="1158.0469"/><text fill="#000000" font-family="sans-serif" font-size="20" lengthAdjust="spacing" textLength="168" x="264" y="1183.6113">Messenger-Proxy</text><rect fill="#EFEFFF" height="37.2813" rx="2.5" ry="2.5" style="stroke:#000000;stroke-width:0.5;" width="214" x="586" y="46.0859"/><text fill="#000000" font-family="sans-serif" font-size="20" lengthAdjust="spacing" textLength="189" x="598.5" y="71.6504">Matrix-Homeserver</text><rect fill="#EFEFFF" height="37.2813" rx="2.5" ry="2.5" style="stroke:#000000;stroke-width:0.5;" width="214" x="586" y="1158.0469"/><text fill="#000000" font-family="sans-serif" font-size="20" lengthAdjust="spacing" textLength="189" x="598.5" y="1183.6113">Matrix-Homeserver</text><rect fill="#EFEFFF" height="37.2813" rx="2.5" ry="2.5" style="stroke:#000000;stroke-width:0.5;" width="231" x="810" y="46.0859"/><text fill="#000000" font-family="sans-serif" font-size="20" lengthAdjust="spacing" textLength="217" x="817" y="71.6504">Registrierungs-Dienst</text><rect fill="#EFEFFF" height="37.2813" rx="2.5" ry="2.5" style="stroke:#000000;stroke-width:0.5;" width="231" x="810" y="1158.0469"/><text fill="#000000" font-family="sans-serif" font-size="20" lengthAdjust="spacing" textLength="217" x="817" y="1183.6113">Registrierungs-Dienst</text><rect fill="#EFEFFF" height="37.2813" rx="2.5" ry="2.5" style="stroke:#000000;stroke-width:0.5;" width="214" x="1052" y="46.0859"/><text fill="#000000" font-family="sans-serif" font-size="20" lengthAdjust="spacing" textLength="195" x="1061.5" y="71.6504">VZD-FHIR-Directory</text><rect fill="#EFEFFF" height="37.2813" rx="2.5" ry="2.5" style="stroke:#000000;stroke-width:0.5;" width="214" x="1052" y="1158.0469"/><text fill="#000000" font-family="sans-serif" font-size="20" lengthAdjust="spacing" textLength="195" x="1061.5" y="1183.6113">VZD-FHIR-Directory</text><rect fill="#DCDCDC" height="1055.6797" style="stroke:#000000;stroke-width:1.0;" width="10" x="343" y="94.3672"/><rect fill="#DCDCDC" height="33.7891" style="stroke:#000000;stroke-width:1.0;" width="10" x="688" y="409.4531"/><rect fill="#DCDCDC" height="33.7891" style="stroke:#000000;stroke-width:1.0;" width="10" x="688" y="1018.2578"/><line style="stroke:#000000;stroke-width:1.0;" x1="353" x2="395" y1="204.5234" y2="204.5234"/><line style="stroke:#000000;stroke-width:1.0;" x1="395" x2="395" y1="204.5234" y2="217.5234"/><line style="stroke:#000000;stroke-width:1.0;" x1="354" x2="395" y1="217.5234" y2="217.5234"/><polygon fill="#000000" points="364,213.5234,354,217.5234,364,221.5234,360,217.5234" style="stroke:#000000;stroke-width:1.0;"/><text fill="#000000" font-family="sans-serif" font-size="17" font-weight="bold" lengthAdjust="spacing" textLength="12" x="360" y="168.8306">1</text><text fill="#000000" font-family="sans-serif" font-size="17" lengthAdjust="spacing" textLength="125" x="376" y="139.147">pr&#252;fe im Event</text><text fill="#000000" font-family="sans-serif" font-size="17" lengthAdjust="spacing" textLength="173" x="376" y="158.936">ob Matrix-Domain(s)</text><text fill="#000000" font-family="sans-serif" font-size="17" lengthAdjust="spacing" textLength="186" x="376" y="178.7251">in der F&#246;derationsliste</text><text fill="#000000" font-family="sans-serif" font-size="17" lengthAdjust="spacing" textLength="155" x="376" y="198.5142">vorhanden ist/sind</text><path d="M211,257.5234 L275,257.5234 L275,264.6563 L265,274.6563 L211,274.6563 L211,257.5234 " fill="#D3D3D3" style="stroke:#000000;stroke-width:1.5;"/><rect fill="none" height="859.5234" style="stroke:#000000;stroke-width:1.5;" width="1065" x="211" y="257.5234"/><text fill="#000000" font-family="sans-serif" font-size="13" font-weight="bold" lengthAdjust="spacing" textLength="19" x="226" y="270.5903">alt</text><text fill="#000000" font-family="sans-serif" font-size="11" font-weight="bold" lengthAdjust="spacing" textLength="5" x="290" y="275.5542">[</text><text fill="#000000" font-family="sans-serif" font-size="16" font-weight="bold" lengthAdjust="spacing" textLength="452" x="295" y="274.375">Matrix-Domain ist in der F&#246;derationsliste enthalten</text><text fill="#000000" font-family="sans-serif" font-size="11" font-weight="bold" lengthAdjust="spacing" textLength="5" x="747" y="275.5542">]</text><path d="M231,310.2813 L319,310.2813 L319,317.4141 L309,327.4141 L231,327.4141 L231,310.2813 " fill="#FFE4E1" style="stroke:#000000;stroke-width:1.5;"/><rect fill="none" height="66.3828" style="stroke:#000000;stroke-width:1.5;" width="830" x="231" y="310.2813"/><text fill="#000000" font-family="sans-serif" font-size="13" font-weight="bold" lengthAdjust="spacing" textLength="43" x="246" y="323.3481">break</text><text fill="#000000" font-family="sans-serif" font-size="11" font-weight="bold" lengthAdjust="spacing" textLength="5" x="334" y="327.1479">[</text><text fill="#000000" font-family="sans-serif" font-size="15" font-weight="bold" lengthAdjust="spacing" textLength="712" x="339" y="326.2046">Matrix-Domain des Senders und Empf&#228;ngers sind beide von einem Versicherten-Server</text><text fill="#000000" font-family="sans-serif" font-size="11" font-weight="bold" lengthAdjust="spacing" textLength="5" x="1051" y="327.1479">]</text><line style="stroke:#000000;stroke-width:1.0;" x1="353" x2="395" y1="355.6641" y2="355.6641"/><line style="stroke:#000000;stroke-width:1.0;" x1="395" x2="395" y1="355.6641" y2="368.6641"/><line style="stroke:#000000;stroke-width:1.0;" x1="354" x2="395" y1="368.6641" y2="368.6641"/><polygon fill="#000000" points="364,364.6641,354,368.6641,364,372.6641,360,368.6641" style="stroke:#000000;stroke-width:1.0;"/><text fill="#000000" font-family="sans-serif" font-size="17" font-weight="bold" lengthAdjust="spacing" textLength="12" x="360" y="349.6548">2</text><text fill="#FF0000" font-family="sans-serif" font-size="17" lengthAdjust="spacing" textLength="305" x="376" y="349.6548">Abbruch, Verbindung wird abgelehnt</text><polygon fill="#000000" points="676,405.4531,686,409.4531,676,413.4531,680,409.4531" style="stroke:#000000;stroke-width:1.0;"/><line style="stroke:#000000;stroke-width:1.0;" x1="353" x2="682" y1="409.4531" y2="409.4531"/><text fill="#000000" font-family="sans-serif" font-size="17" font-weight="bold" lengthAdjust="spacing" textLength="12" x="360" y="403.4438">3</text><text fill="#000000" font-family="sans-serif" font-size="17" lengthAdjust="spacing" textLength="142" x="376" y="403.4438">HTTP(S) Forward</text><polygon fill="#000000" points="364,439.2422,354,443.2422,364,447.2422,360,443.2422" style="stroke:#000000;stroke-width:1.0;"/><line style="stroke:#000000;stroke-width:1.0;stroke-dasharray:2.0,2.0;" x1="358" x2="692" y1="443.2422" y2="443.2422"/><text fill="#000000" font-family="sans-serif" font-size="17" font-weight="bold" lengthAdjust="spacing" textLength="12" x="616" y="437.2329">4</text><text fill="#000000" font-family="sans-serif" font-size="17" lengthAdjust="spacing" textLength="54" x="632" y="437.2329">Status</text><line style="stroke:#000000;stroke-width:1.0;stroke-dasharray:2.0,2.0;" x1="211" x2="1276" y1="477.2422" y2="477.2422"/><text fill="#000000" font-family="sans-serif" font-size="11" font-weight="bold" lengthAdjust="spacing" textLength="5" x="216" y="493.2729">[</text><text fill="#000000" font-family="sans-serif" font-size="16" font-weight="bold" lengthAdjust="spacing" textLength="502" x="221" y="492.0938">Matrix-Domain ist nicht in der F&#246;derationsliste enthalten</text><text fill="#000000" font-family="sans-serif" font-size="11" font-weight="bold" lengthAdjust="spacing" textLength="5" x="723" y="493.2729">]</text><rect fill="none" height="58.8906" style="stroke:#000000;stroke-width:1.5;" width="1031" x="238" y="521.8672"/><path d="M238,521.8672 L304,521.8672 L304,528.8672 L294,538.8672 L238,538.8672 L238,521.8672 " fill="#98FB98" style="stroke:#000000;stroke-width:2.0;"/><text fill="#000000" font-family="sans-serif" font-size="13" font-weight="bold" lengthAdjust="spacing" textLength="21" x="251" y="535.9341">ref</text><text fill="#000000" font-family="sans-serif" font-size="17" font-weight="bold" lengthAdjust="spacing" textLength="88" x="556" y="558.647">Anhang B</text><text fill="#000000" font-family="sans-serif" font-size="17" lengthAdjust="spacing" textLength="302" x="649" y="558.647">- Aktualisierung der F&#246;derationsliste</text><text fill="#000000" font-family="sans-serif" font-size="12" lengthAdjust="spacing" textLength="4" x="751.5" y="573.7949">&#160;</text><line style="stroke:#000000;stroke-width:1.0;" x1="353" x2="395" y1="695.9141" y2="695.9141"/><line style="stroke:#000000;stroke-width:1.0;" x1="395" x2="395" y1="695.9141" y2="708.9141"/><line style="stroke:#000000;stroke-width:1.0;" x1="354" x2="395" y1="708.9141" y2="708.9141"/><polygon fill="#000000" points="364,704.9141,354,708.9141,364,712.9141,360,708.9141" style="stroke:#000000;stroke-width:1.0;"/><text fill="#000000" font-family="sans-serif" font-size="17" font-weight="bold" lengthAdjust="spacing" textLength="12" x="360" y="660.2212">5</text><text fill="#000000" font-family="sans-serif" font-size="17" lengthAdjust="spacing" textLength="200" x="376" y="630.5376">pr&#252;fe ob Matrix-Domain</text><text fill="#000000" font-family="sans-serif" font-size="17" lengthAdjust="spacing" textLength="79" x="376" y="650.3267">der MXID</text><text fill="#000000" font-family="sans-serif" font-size="17" lengthAdjust="spacing" textLength="48" x="376" y="670.1157">in der</text><text fill="#000000" font-family="sans-serif" font-size="17" font-weight="bold" lengthAdjust="spacing" textLength="128" x="429" y="670.1157">aktualisierten</text><text fill="#000000" font-family="sans-serif" font-size="17" lengthAdjust="spacing" textLength="5" x="557" y="670.1157">&#160;</text><text fill="#000000" font-family="sans-serif" font-size="17" lengthAdjust="spacing" textLength="253" x="376" y="689.9048">F&#246;derationsliste vorhanden ist</text><path d="M221,748.9141 L285,748.9141 L285,756.0469 L275,766.0469 L221,766.0469 L221,748.9141 " fill="#D3D3D3" style="stroke:#000000;stroke-width:1.5;"/><rect fill="none" height="336.1328" style="stroke:#000000;stroke-width:1.5;" width="850" x="221" y="748.9141"/><text fill="#000000" font-family="sans-serif" font-size="13" font-weight="bold" lengthAdjust="spacing" textLength="19" x="236" y="761.981">alt</text><text fill="#000000" font-family="sans-serif" font-size="11" font-weight="bold" lengthAdjust="spacing" textLength="5" x="300" y="766.9448">[</text><text fill="#000000" font-family="sans-serif" font-size="16" font-weight="bold" lengthAdjust="spacing" textLength="629" x="305" y="765.7656">Matrix-Domain ist nicht in der aktualisierten F&#246;derationsliste enthalten</text><text fill="#000000" font-family="sans-serif" font-size="11" font-weight="bold" lengthAdjust="spacing" textLength="5" x="934" y="766.9448">]</text><line style="stroke:#000000;stroke-width:1.0;" x1="353" x2="395" y1="820.4609" y2="820.4609"/><line style="stroke:#000000;stroke-width:1.0;" x1="395" x2="395" y1="820.4609" y2="833.4609"/><line style="stroke:#000000;stroke-width:1.0;" x1="354" x2="395" y1="833.4609" y2="833.4609"/><polygon fill="#000000" points="364,829.4609,354,833.4609,364,837.4609,360,833.4609" style="stroke:#000000;stroke-width:1.0;"/><text fill="#000000" font-family="sans-serif" font-size="17" font-weight="bold" lengthAdjust="spacing" textLength="12" x="360" y="814.4517">6</text><text fill="#FF0000" font-family="sans-serif" font-size="17" lengthAdjust="spacing" textLength="305" x="376" y="814.4517">Abbruch, Verbindung wird abgelehnt</text><line style="stroke:#000000;stroke-width:1.0;stroke-dasharray:2.0,2.0;" x1="221" x2="1071" y1="867.4609" y2="867.4609"/><text fill="#000000" font-family="sans-serif" font-size="11" font-weight="bold" lengthAdjust="spacing" textLength="5" x="226" y="883.4917">[</text><text fill="#000000" font-family="sans-serif" font-size="16" font-weight="bold" lengthAdjust="spacing" textLength="579" x="231" y="882.3125">Matrix-Domain ist in der aktualisierten F&#246;derationsliste enthalten</text><text fill="#000000" font-family="sans-serif" font-size="11" font-weight="bold" lengthAdjust="spacing" textLength="5" x="810" y="883.4917">]</text><path d="M231,919.0859 L319,919.0859 L319,926.2188 L309,936.2188 L231,936.2188 L231,919.0859 " fill="#FFE4E1" style="stroke:#000000;stroke-width:1.5;"/><rect fill="none" height="66.3828" style="stroke:#000000;stroke-width:1.5;" width="830" x="231" y="919.0859"/><text fill="#000000" font-family="sans-serif" font-size="13" font-weight="bold" lengthAdjust="spacing" textLength="43" x="246" y="932.1528">break</text><text fill="#000000" font-family="sans-serif" font-size="11" font-weight="bold" lengthAdjust="spacing" textLength="5" x="334" y="935.9526">[</text><text fill="#000000" font-family="sans-serif" font-size="15" font-weight="bold" lengthAdjust="spacing" textLength="712" x="339" y="935.0093">Matrix-Domain des Senders und Empf&#228;ngers sind beide von einem Versicherten-Server</text><text fill="#000000" font-family="sans-serif" font-size="11" font-weight="bold" lengthAdjust="spacing" textLength="5" x="1051" y="935.9526">]</text><line style="stroke:#000000;stroke-width:1.0;" x1="353" x2="395" y1="964.4688" y2="964.4688"/><line style="stroke:#000000;stroke-width:1.0;" x1="395" x2="395" y1="964.4688" y2="977.4688"/><line style="stroke:#000000;stroke-width:1.0;" x1="354" x2="395" y1="977.4688" y2="977.4688"/><polygon fill="#000000" points="364,973.4688,354,977.4688,364,981.4688,360,977.4688" style="stroke:#000000;stroke-width:1.0;"/><text fill="#000000" font-family="sans-serif" font-size="17" font-weight="bold" lengthAdjust="spacing" textLength="12" x="360" y="958.4595">7</text><text fill="#FF0000" font-family="sans-serif" font-size="17" lengthAdjust="spacing" textLength="305" x="376" y="958.4595">Abbruch, Verbindung wird abgelehnt</text><polygon fill="#000000" points="676,1014.2578,686,1018.2578,676,1022.2578,680,1018.2578" style="stroke:#000000;stroke-width:1.0;"/><line style="stroke:#000000;stroke-width:1.0;" x1="353" x2="682" y1="1018.2578" y2="1018.2578"/><text fill="#000000" font-family="sans-serif" font-size="17" font-weight="bold" lengthAdjust="spacing" textLength="12" x="360" y="1012.2485">8</text><text fill="#000000" font-family="sans-serif" font-size="17" lengthAdjust="spacing" textLength="142" x="376" y="1012.2485">HTTP(S) Forward</text><polygon fill="#000000" points="364,1048.0469,354,1052.0469,364,1056.0469,360,1052.0469" style="stroke:#000000;stroke-width:1.0;"/><line style="stroke:#000000;stroke-width:1.0;stroke-dasharray:2.0,2.0;" x1="358" x2="692" y1="1052.0469" y2="1052.0469"/><text fill="#000000" font-family="sans-serif" font-size="17" font-weight="bold" lengthAdjust="spacing" textLength="12" x="616" y="1046.0376">9</text><text fill="#000000" font-family="sans-serif" font-size="17" lengthAdjust="spacing" textLength="54" x="632" y="1046.0376">Status</text><!--SRC=[nLHDRziu4BthLmoIGrgZHfAYNmYo1kIugGt4hM4RwMBX2oMDPS8IwGufnsdJVzFVqDFUyiTsA5cs8iVRBX1WSn53lddlSVZ6PYxLGf18mU2N35M8VJH6nEWdCbOGISBGIgqyim6cKbqamfZFCh8pU7boKZbhwzL0H95KCPnMjalk8KwHtAAB8a9gYt0UayvKTA4JJR0G2SQ4o6eXBo4LA-P_zGvkd9Jt225yytmYVLFK1maJ5XkNMjcH_8fm-jRpGwkfhOaLgxWhESKhgV1VJch-FWYfJA19Uzv0a9MXN0Xbg_LzRULIv0sh8cey5THH1UOyVnGfGYzTYD1wjQFyEYzFwjjLutjSjNSEwuO-ZNlN_hZtwQEtxjRUc-V7TTtDPkdnQBEJNyWN2rnvtprFP5QhB0sGF0_uRx7r1FqB40OEnhscYo2g60bo6l0FSd2WLt1kME7iz5rhWscEa9Oon8aw_3oJ5aUfdkCk-I0dtrODIAzk3tPntG8dBCbLiwjJD4oFj8iSTdBa46Df68oKgTWqEnALiGKQLUGyxrHU_rMKyhTvsUqDkSXDcIRsuztTtUK5V7EN4MJd_7z_q6pr1sUmeFk_fmWoXVTBL7QYT01hhnsTyYCzCyzXeYHFBdVlyludV_AWcOHT8XyjDSs4Yb01RnmRgQ92KoJsy4h6C_k1n2sKVNxJUi3kQc0lEHkQCGsgysDNtShlKTud81Jpmpu3RuVQO2dmkYOGeO4HDmx90ASFtgUBwVqFzs86d5a8K4O8Iwq0UK9JkEOJ6SwGM3UF0b9LlcpS-PIp2A7Bx1-4KSiF0ih2sGjN7p0lFnx_ob048eWnmPcovyUkf5M-PFw5BMVt3BhZyU3Pw3bSQheHj4PK7gvReBlDmiB82fkPDQg3eeO3EAfk3ihkWUT61PDjpnvx5CKz-0zFuoxYkDsNS0gQsyQQBrmspqgTjwr6mrUSbXZQZGOqmP_RJ31X4VR7fTO24xMMs0rlFR8SIiVK_xFNsKQtqH1RCVRD-XErUwy7QLuBveshn1bleLYsa-ptU_XG_dVJlitxKqLldO5Y-QiKF9dt_sbQdx9jcvdzzSW-DhRxHtVV-9RTSy9b5DsQ5_y0]--></g></svg>