<?xml version="1.0" encoding="us-ascii" standalone="no"?><svg xmlns="http://www.w3.org/2000/svg" xmlns:xlink="http://www.w3.org/1999/xlink" contentStyleType="text/css" height="1500px" preserveAspectRatio="none" style="width:1652px;height:1500px;background:#FFFFFF;" version="1.1" viewBox="0 0 1652 1500" width="1652px" zoomAndPan="magnify"><defs/><g><rect fill="#F5F5F5" height="1488.5859" style="stroke:#181818;stroke-width:0.5;" width="690.5" x="569" y="6"/><text fill="#000000" font-family="sans-serif" font-size="18" font-weight="bold" lengthAdjust="spacing" textLength="193" x="815.25" y="22.708">Messenger-Service</text><text fill="#000000" font-family="sans-serif" font-size="13" font-weight="bold" lengthAdjust="spacing" textLength="5" x="1008.25" y="23.8872">&#160;</text><rect fill="#DCDCDC" height="1097.3672" style="stroke:#000000;stroke-width:1.0;" width="10" x="675" y="301.9375"/><rect fill="#DCDCDC" height="333.3125" style="stroke:#000000;stroke-width:1.0;" width="10" x="1098" y="912.625"/><rect fill="#C9FFC9" height="347.3125" style="stroke:#000000;stroke-width:1.0;" width="10" x="1368.5" y="1051.9922"/><rect fill="#FFB6C1" height="905.7891" style="stroke:#000000;stroke-width:1.5;" width="1635.5" x="10" y="460.5156"/><rect fill="#FFB6C1" height="202.7813" style="stroke:none;stroke-width:1.0;" width="1635.5" x="10" y="663.4297"/><rect fill="#F0F8FF" height="500.0938" style="stroke:none;stroke-width:1.0;" width="1635.5" x="10" y="866.2109"/><line style="stroke:#000000;stroke-width:0.5;stroke-dasharray:5.0,5.0;" x1="73" x2="73" y1="92.5156" y2="1408.3047"/><line style="stroke:#000000;stroke-width:0.5;stroke-dasharray:5.0,5.0;" x1="252" x2="252" y1="92.5156" y2="1408.3047"/><line style="stroke:#000000;stroke-width:0.5;stroke-dasharray:5.0,5.0;" x1="680" x2="680" y1="92.5156" y2="1408.3047"/><line style="stroke:#000000;stroke-width:0.5;stroke-dasharray:5.0,5.0;" x1="1102.5" x2="1102.5" y1="92.5156" y2="1408.3047"/><line style="stroke:#000000;stroke-width:0.5;stroke-dasharray:5.0,5.0;" x1="1373.5" x2="1373.5" y1="92.5156" y2="1408.3047"/><line style="stroke:#000000;stroke-width:0.5;stroke-dasharray:5.0,5.0;" x1="1582.5" x2="1582.5" y1="92.5156" y2="1408.3047"/><text fill="#000000" font-family="Aapex" font-size="20" lengthAdjust="spacing" textLength="100" x="20" y="87.7988">Akteur - A</text><ellipse cx="73" cy="17.7344" fill="#DCDCDC" rx="8" ry="8" style="stroke:#000000;stroke-width:0.5;"/><path d="M73,25.7344 L73,52.7344 M60,33.7344 L86,33.7344 M73,52.7344 L60,67.7344 M73,52.7344 L86,67.7344 " fill="none" style="stroke:#000000;stroke-width:0.5;"/><text fill="#000000" font-family="Aapex" font-size="20" lengthAdjust="spacing" textLength="100" x="20" y="1425.8691">Akteur - A</text><ellipse cx="73" cy="1439.0859" fill="#DCDCDC" rx="8" ry="8" style="stroke:#000000;stroke-width:0.5;"/><path d="M73,1447.0859 L73,1474.0859 M60,1455.0859 L86,1455.0859 M73,1474.0859 L60,1489.0859 M73,1474.0859 L86,1489.0859 " fill="none" style="stroke:#000000;stroke-width:0.5;"/><rect fill="#F0F8FF" height="60.5625" rx="2.5" ry="2.5" style="stroke:#000000;stroke-width:0.5;" width="214" x="145" y="30.9531"/><text fill="#000000" font-family="Impact" font-size="20" lengthAdjust="spacing" textLength="139" x="182.5" y="56.5176">TI-Messenger-</text><text fill="#000000" font-family="Impact" font-size="20" lengthAdjust="spacing" textLength="79" x="212.5" y="79.7988">Client A</text><rect fill="#F0F8FF" height="60.5625" rx="2.5" ry="2.5" style="stroke:#000000;stroke-width:0.5;" width="214" x="145" y="1407.3047"/><text fill="#000000" font-family="Impact" font-size="20" lengthAdjust="spacing" textLength="139" x="182.5" y="1432.8691">TI-Messenger-</text><text fill="#000000" font-family="Impact" font-size="20" lengthAdjust="spacing" textLength="79" x="212.5" y="1456.1504">Client A</text><rect fill="#EFEFFF" height="60.5625" rx="2.5" ry="2.5" style="stroke:#000000;stroke-width:0.5;" width="214" x="573" y="30.9531"/><text fill="#000000" font-family="Impact" font-size="20" lengthAdjust="spacing" textLength="114" x="623" y="56.5176">Messenger-</text><text fill="#000000" font-family="Impact" font-size="20" lengthAdjust="spacing" textLength="54" x="653" y="79.7988">Proxy</text><rect fill="#EFEFFF" height="60.5625" rx="2.5" ry="2.5" style="stroke:#000000;stroke-width:0.5;" width="214" x="573" y="1407.3047"/><text fill="#000000" font-family="Impact" font-size="20" lengthAdjust="spacing" textLength="114" x="623" y="1432.8691">Messenger-</text><text fill="#000000" font-family="Impact" font-size="20" lengthAdjust="spacing" textLength="54" x="653" y="1456.1504">Proxy</text><rect fill="#EFEFFF" height="60.5625" rx="2.5" ry="2.5" style="stroke:#000000;stroke-width:0.5;" width="305" x="950.5" y="30.9531"/><text fill="#000000" font-family="Impact" font-size="20" lengthAdjust="spacing" textLength="189" x="1005.5" y="56.5176">Matrix-Homeserver</text><text fill="#000000" font-family="Impact" font-size="20" lengthAdjust="spacing" textLength="291" x="957.5" y="79.7988">(inklusive Nutzerverzeichnis)</text><rect fill="#EFEFFF" height="60.5625" rx="2.5" ry="2.5" style="stroke:#000000;stroke-width:0.5;" width="305" x="950.5" y="1407.3047"/><text fill="#000000" font-family="Impact" font-size="20" lengthAdjust="spacing" textLength="189" x="1005.5" y="1432.8691">Matrix-Homeserver</text><text fill="#000000" font-family="Impact" font-size="20" lengthAdjust="spacing" textLength="291" x="957.5" y="1456.1504">(inklusive Nutzerverzeichnis)</text><rect fill="#C9FFC9" height="60.5625" rx="2.5" ry="2.5" style="stroke:#000000;stroke-width:0.5;" width="214" x="1266.5" y="30.9531"/><text fill="#000000" font-family="Impact" font-size="20" lengthAdjust="spacing" textLength="139" x="1304" y="56.5176">TI-Messenger-</text><text fill="#000000" font-family="Impact" font-size="20" lengthAdjust="spacing" textLength="79" x="1334" y="79.7988">Client B</text><rect fill="#C9FFC9" height="60.5625" rx="2.5" ry="2.5" style="stroke:#000000;stroke-width:0.5;" width="214" x="1266.5" y="1407.3047"/><text fill="#000000" font-family="Impact" font-size="20" lengthAdjust="spacing" textLength="139" x="1304" y="1432.8691">TI-Messenger-</text><text fill="#000000" font-family="Impact" font-size="20" lengthAdjust="spacing" textLength="79" x="1334" y="1456.1504">Client B</text><text fill="#000000" font-family="Aapex" font-size="20" lengthAdjust="spacing" textLength="100" x="1529.5" y="87.7988">Akteur - B</text><ellipse cx="1582.5" cy="17.7344" fill="#DCDCDC" rx="8" ry="8" style="stroke:#000000;stroke-width:0.5;"/><path d="M1582.5,25.7344 L1582.5,52.7344 M1569.5,33.7344 L1595.5,33.7344 M1582.5,52.7344 L1569.5,67.7344 M1582.5,52.7344 L1595.5,67.7344 " fill="none" style="stroke:#000000;stroke-width:0.5;"/><text fill="#000000" font-family="Aapex" font-size="20" lengthAdjust="spacing" textLength="100" x="1529.5" y="1425.8691">Akteur - B</text><ellipse cx="1582.5" cy="1439.0859" fill="#DCDCDC" rx="8" ry="8" style="stroke:#000000;stroke-width:0.5;"/><path d="M1582.5,1447.0859 L1582.5,1474.0859 M1569.5,1455.0859 L1595.5,1455.0859 M1582.5,1474.0859 L1569.5,1489.0859 M1582.5,1474.0859 L1595.5,1489.0859 " fill="none" style="stroke:#000000;stroke-width:0.5;"/><rect fill="#DCDCDC" height="1097.3672" style="stroke:#000000;stroke-width:1.0;" width="10" x="675" y="301.9375"/><rect fill="#DCDCDC" height="333.3125" style="stroke:#000000;stroke-width:1.0;" width="10" x="1098" y="912.625"/><rect fill="#C9FFC9" height="347.3125" style="stroke:#000000;stroke-width:1.0;" width="10" x="1368.5" y="1051.9922"/><path d="M22,132.5156 L22,211.5156 L1632,211.5156 L1632,142.5156 L1622,132.5156 L22,132.5156 " fill="#FEFFDD" style="stroke:#181818;stroke-width:0.5;"/><path d="M1622,132.5156 L1622,142.5156 L1632,142.5156 L1622,132.5156 " fill="#FEFFDD" style="stroke:#181818;stroke-width:0.5;"/><text fill="#000000" font-family="sans-serif" font-size="13" lengthAdjust="spacing" textLength="4" x="319.25" y="149.5825">&#160;</text><text fill="#000000" font-family="sans-serif" font-size="17" lengthAdjust="spacing" textLength="1007" x="319.25" y="168.4282">Die Akteure sind auf dem selben Messenger-Service angemeldet und im Besitz eines zugelassenen TI-Messenger-Clients.</text><text fill="#000000" font-family="sans-serif" font-size="17" lengthAdjust="spacing" textLength="473" x="319.25" y="188.2173">Ein Chatraum wurde durch den Einladenen eingerichtet.</text><text fill="#000000" font-family="sans-serif" font-size="13" lengthAdjust="spacing" textLength="4" x="319.25" y="204.2935">&#160;</text><polygon fill="#000000" points="240,264.1484,250,268.1484,240,272.1484,244,268.1484" style="stroke:#000000;stroke-width:1.0;"/><line style="stroke:#000000;stroke-width:1.0;" x1="73" x2="246" y1="268.1484" y2="268.1484"/><text fill="#000000" font-family="sans-serif" font-size="17" lengthAdjust="spacing" textLength="150" x="80" y="262.1392">Akteur B einladen</text><polygon fill="#000000" points="663,297.9375,673,301.9375,663,305.9375,667,301.9375" style="stroke:#000000;stroke-width:1.0;"/><line style="stroke:#000000;stroke-width:1.0;" x1="252" x2="669" y1="301.9375" y2="301.9375"/><text fill="#000000" font-family="sans-serif" font-size="17" lengthAdjust="spacing" textLength="404" x="259" y="295.9282">POST  /_matrix/client/v3/rooms/{roomId}/invite</text><line style="stroke:#000000;stroke-width:1.0;" x1="685" x2="727" y1="360.7266" y2="360.7266"/><line style="stroke:#000000;stroke-width:1.0;" x1="727" x2="727" y1="360.7266" y2="373.7266"/><line style="stroke:#000000;stroke-width:1.0;" x1="686" x2="727" y1="373.7266" y2="373.7266"/><polygon fill="#000000" points="696,369.7266,686,373.7266,696,377.7266,692,373.7266" style="stroke:#000000;stroke-width:1.0;"/><text fill="#000000" font-family="sans-serif" font-size="17" lengthAdjust="spacing" textLength="293" x="692" y="354.7173">Pr&#252;fe auf F&#246;derationszugeh&#246;rigkeit</text><line style="stroke:#000000;stroke-width:1.0;" x1="685" x2="727" y1="407.5156" y2="407.5156"/><line style="stroke:#000000;stroke-width:1.0;" x1="727" x2="727" y1="407.5156" y2="420.5156"/><line style="stroke:#000000;stroke-width:1.0;" x1="686" x2="727" y1="420.5156" y2="420.5156"/><polygon fill="#000000" points="696,416.5156,686,420.5156,696,424.5156,692,420.5156" style="stroke:#000000;stroke-width:1.0;"/><text fill="#FF0000" font-family="sans-serif" font-size="17" lengthAdjust="spacing" textLength="5" x="692" y="401.5063">&#160;</text><text fill="#FF0000" font-family="sans-serif" font-size="17" font-weight="bold" lengthAdjust="spacing" textLength="394" x="697" y="401.5063">NEU: Pr&#252;fe auf Versichertenzugeh&#246;rigkeit</text><path d="M10,460.5156 L74,460.5156 L74,467.6484 L64,477.6484 L10,477.6484 L10,460.5156 " fill="#D3D3D3" style="stroke:#000000;stroke-width:1.5;"/><rect fill="none" height="905.7891" style="stroke:#000000;stroke-width:1.5;" width="1635.5" x="10" y="460.5156"/><text fill="#000000" font-family="sans-serif" font-size="13" font-weight="bold" lengthAdjust="spacing" textLength="19" x="25" y="473.5825">alt</text><text fill="#000000" font-family="sans-serif" font-size="11" font-weight="bold" lengthAdjust="spacing" textLength="5" x="89" y="478.5464">[</text><text fill="#000000" font-family="sans-serif" font-size="16" font-weight="bold" lengthAdjust="spacing" textLength="427" x="94" y="477.3672">Matrix-Domain nicht in der F&#246;deration enthalten</text><text fill="#000000" font-family="sans-serif" font-size="11" font-weight="bold" lengthAdjust="spacing" textLength="5" x="521" y="478.5464">]</text><polygon fill="#000000" points="263,547.8516,253,551.8516,263,555.8516,259,551.8516" style="stroke:#000000;stroke-width:1.0;"/><line style="stroke:#000000;stroke-width:1.0;stroke-dasharray:2.0,2.0;" x1="257" x2="674" y1="551.8516" y2="551.8516"/><text fill="#000000" font-family="sans-serif" font-size="17" lengthAdjust="spacing" textLength="81" x="555" y="526.0532">HTTP 401</text><text fill="#000000" font-family="sans-serif" font-size="17" lengthAdjust="spacing" textLength="113" x="555" y="545.8423">Unauthorized</text><polygon fill="#000000" points="84,626.4297,74,630.4297,84,634.4297,80,630.4297" style="stroke:#000000;stroke-width:1.0;"/><line style="stroke:#000000;stroke-width:1.0;stroke-dasharray:2.0,2.0;" x1="78" x2="251" y1="630.4297" y2="630.4297"/><text fill="#000000" font-family="sans-serif" font-size="17" lengthAdjust="spacing" textLength="131" x="109" y="604.6313">Einladung nicht</text><text fill="#000000" font-family="sans-serif" font-size="17" lengthAdjust="spacing" textLength="89" x="109" y="624.4204">erfolgreich</text><line style="stroke:#000000;stroke-width:1.0;stroke-dasharray:2.0,2.0;" x1="10" x2="1645.5" y1="664.4297" y2="664.4297"/><text fill="#000000" font-family="sans-serif" font-size="11" font-weight="bold" lengthAdjust="spacing" textLength="5" x="15" y="680.4604">[</text><text fill="#000000" font-family="sans-serif" font-size="16" font-weight="bold" lengthAdjust="spacing" textLength="681" x="20" y="679.2813">Matrix-Domain in der F&#246;deration enthalten &amp; beide Akteure sind Versicherte</text><text fill="#000000" font-family="sans-serif" font-size="11" font-weight="bold" lengthAdjust="spacing" textLength="5" x="701" y="680.4604">]</text><polygon fill="#000000" points="263,750.6328,253,754.6328,263,758.6328,259,754.6328" style="stroke:#000000;stroke-width:1.0;"/><line style="stroke:#000000;stroke-width:1.0;stroke-dasharray:2.0,2.0;" x1="257" x2="674" y1="754.6328" y2="754.6328"/><text fill="#000000" font-family="sans-serif" font-size="17" lengthAdjust="spacing" textLength="81" x="555" y="728.8345">HTTP 401</text><text fill="#000000" font-family="sans-serif" font-size="17" lengthAdjust="spacing" textLength="113" x="555" y="748.6235">Unauthorized</text><polygon fill="#000000" points="84,829.2109,74,833.2109,84,837.2109,80,833.2109" style="stroke:#000000;stroke-width:1.0;"/><line style="stroke:#000000;stroke-width:1.0;stroke-dasharray:2.0,2.0;" x1="78" x2="251" y1="833.2109" y2="833.2109"/><text fill="#000000" font-family="sans-serif" font-size="17" lengthAdjust="spacing" textLength="131" x="109" y="807.4126">Einladung nicht</text><text fill="#000000" font-family="sans-serif" font-size="17" lengthAdjust="spacing" textLength="89" x="109" y="827.2017">erfolgreich</text><line style="stroke:#000000;stroke-width:1.0;stroke-dasharray:2.0,2.0;" x1="10" x2="1645.5" y1="867.2109" y2="867.2109"/><text fill="#000000" font-family="sans-serif" font-size="11" font-weight="bold" lengthAdjust="spacing" textLength="5" x="15" y="883.2417">[</text><text fill="#000000" font-family="sans-serif" font-size="16" font-weight="bold" lengthAdjust="spacing" textLength="846" x="20" y="882.0625">Matrix-Domain in der F&#246;deration enthalten und nur maximal einer der Akteure ist Versicherter]</text><polygon fill="#000000" points="1086,908.625,1096,912.625,1086,916.625,1090,912.625" style="stroke:#000000;stroke-width:1.0;"/><line style="stroke:#000000;stroke-width:1.0;" x1="685" x2="1092" y1="912.625" y2="912.625"/><text fill="#000000" font-family="sans-serif" font-size="17" lengthAdjust="spacing" textLength="135" x="692" y="906.6157">HTTP(S) Foward</text><line style="stroke:#000000;stroke-width:1.0;" x1="1108" x2="1150" y1="946.4141" y2="946.4141"/><line style="stroke:#000000;stroke-width:1.0;" x1="1150" x2="1150" y1="946.4141" y2="959.4141"/><line style="stroke:#000000;stroke-width:1.0;" x1="1109" x2="1150" y1="959.4141" y2="959.4141"/><polygon fill="#000000" points="1119,955.4141,1109,959.4141,1119,963.4141,1115,959.4141" style="stroke:#000000;stroke-width:1.0;"/><text fill="#000000" font-family="sans-serif" font-size="17" lengthAdjust="spacing" textLength="151" x="1115" y="940.4048">Invite verarbeiten</text><polygon fill="#000000" points="696,1014.2031,686,1018.2031,696,1022.2031,692,1018.2031" style="stroke:#000000;stroke-width:1.0;"/><line style="stroke:#000000;stroke-width:1.0;" x1="690" x2="1097" y1="1018.2031" y2="1018.2031"/><text fill="#000000" font-family="sans-serif" font-size="17" lengthAdjust="spacing" textLength="122" x="969" y="1012.1938">Invite Request</text><polygon fill="#000000" points="1356.5,1047.9922,1366.5,1051.9922,1356.5,1055.9922,1360.5,1051.9922" style="stroke:#000000;stroke-width:1.0;"/><line style="stroke:#000000;stroke-width:1.0;" x1="685" x2="1362.5" y1="1051.9922" y2="1051.9922"/><text fill="#000000" font-family="sans-serif" font-size="17" lengthAdjust="spacing" textLength="142" x="692" y="1045.9829">HTTP(S) Forward</text><polygon fill="#000000" points="1570.5,1081.7813,1580.5,1085.7813,1570.5,1089.7813,1574.5,1085.7813" style="stroke:#000000;stroke-width:1.0;"/><line style="stroke:#000000;stroke-width:1.0;" x1="1378.5" x2="1576.5" y1="1085.7813" y2="1085.7813"/><text fill="#000000" font-family="sans-serif" font-size="17" lengthAdjust="spacing" textLength="164" x="1385.5" y="1079.772">Einladung anzeigen</text><polygon fill="#000000" points="1389.5,1115.5703,1379.5,1119.5703,1389.5,1123.5703,1385.5,1119.5703" style="stroke:#000000;stroke-width:1.0;"/><line style="stroke:#000000;stroke-width:1.0;stroke-dasharray:2.0,2.0;" x1="1383.5" x2="1581.5" y1="1119.5703" y2="1119.5703"/><text fill="#000000" font-family="sans-serif" font-size="17" lengthAdjust="spacing" textLength="180" x="1395.5" y="1113.561">Einladung annehmen</text><polygon fill="#000000" points="696,1149.3594,686,1153.3594,696,1157.3594,692,1153.3594" style="stroke:#000000;stroke-width:1.0;"/><line style="stroke:#000000;stroke-width:1.0;" x1="690" x2="1367.5" y1="1153.3594" y2="1153.3594"/><text fill="#000000" font-family="sans-serif" font-size="17" lengthAdjust="spacing" textLength="206" x="1155.5" y="1147.3501">Einladung angenommen</text><polygon fill="#000000" points="1086,1208.1484,1096,1212.1484,1086,1216.1484,1090,1212.1484" style="stroke:#000000;stroke-width:1.0;"/><line style="stroke:#000000;stroke-width:1.0;stroke-dasharray:2.0,2.0;" x1="685" x2="1092" y1="1212.1484" y2="1212.1484"/><text fill="#000000" font-family="sans-serif" font-size="17" lengthAdjust="spacing" textLength="142" x="692" y="1206.1392">HTTP(S) Forward</text><polygon fill="#000000" points="696,1241.9375,686,1245.9375,696,1249.9375,692,1245.9375" style="stroke:#000000;stroke-width:1.0;"/><line style="stroke:#000000;stroke-width:1.0;stroke-dasharray:2.0,2.0;" x1="690" x2="1102" y1="1245.9375" y2="1245.9375"/><text fill="#000000" font-family="sans-serif" font-size="17" lengthAdjust="spacing" textLength="54" x="1042" y="1239.9282">Status</text><polygon fill="#000000" points="263,1275.7266,253,1279.7266,263,1283.7266,259,1279.7266" style="stroke:#000000;stroke-width:1.0;"/><line style="stroke:#000000;stroke-width:1.0;stroke-dasharray:2.0,2.0;" x1="257" x2="674" y1="1279.7266" y2="1279.7266"/><text fill="#000000" font-family="sans-serif" font-size="17" lengthAdjust="spacing" textLength="54" x="614" y="1273.7173">Status</text><polygon fill="#000000" points="84,1329.3047,74,1333.3047,84,1337.3047,80,1333.3047" style="stroke:#000000;stroke-width:1.0;"/><line style="stroke:#000000;stroke-width:1.0;stroke-dasharray:2.0,2.0;" x1="78" x2="251" y1="1333.3047" y2="1333.3047"/><text fill="#000000" font-family="sans-serif" font-size="17" lengthAdjust="spacing" textLength="113" x="90" y="1307.5063">Nutzer in den</text><text fill="#000000" font-family="sans-serif" font-size="17" lengthAdjust="spacing" textLength="155" x="90" y="1327.2954">Raum hinzugef&#252;gt</text><!--SRC=[nLLTRzf857tthxWYqggLbXBOggsYB1BG920b0GLejLAarM1Vx17s33ip9ZHD_rQV-fO_jdV6XenDaeTzMLwmvtwTStpl7RtYOiqKoq3ZFpcA4AzGQnPZB-MnW8Wh30sN8j1xnuoBGSgq_ieZaq3d-DYpzULsmgA8YnZQtl4kzmqkKTc78R88LP-5grZ9N4G3cKe5QvPYh12fMaYFaB4jvN__2UvigU2PXF0zw2abxuhuHKe9YuDpASoKtoEqFmQzq4ZLbueg-dwNV8cNNE0hbXg-2yQ5NaWbWs32bE4XNpDX_FWhQVY6ES5yZrgUvxqiv6kM8OooDGjDtUJOT8xhnpxk5q3r3unrFEFPw4jlDXfV1wLOBn9tvdhT_U4Eu_x0yUcnDMw37m7GZraBpDl0D3HwAuEvWYRq6iwuVe88Wy9bDchQXaGHeshUKkDn96El0KVKe27sqnnTw49kuLHJ-PFsf-vJn1JLXjnEMzRKXQEl2JSupUIgYAgMl9guadwzYPBRRutdV8U5BpEARvj3cQ6cKgZWLhpXOfNcccyGhdDpxuxlaOU9uFfjaGj5P14VakwyGhhVE9gT3ORNuylnnL- -c9sgcFsYHl3my108QH2anJLl_qwU9uIlbEbZzpEdR-EY43GdI2nVGeHskj852ZYG4HYzPPX6Q81w0pWDF6fkxW5fMZJSvp7QpO22eYia2WhwdLVzZ0iO9AGVopEuowbT8SfLc1020MHCQKFOF9IQCf1y1isxyaFU2iVEqfotczr1-wGa0dthxqATTK3Mgya9JCRJ6K3hxynzhrReuBGsVxIKb9bkVRT_e-X7YuiDDSXEN3kaI6tXtdS5WGxAfEhnrnATQkUFFsdSt4XhgqBo-5FnU8NSr69EbpGL4DhX-LDXr8NJHVVwR5v9zWML9hwe38fgCgWWAM2cvkYInucvKFWDYiS9TU1k6ZvqonxzB3EQOX1MIQ07mkl3ffuq2IL3KMfS0g_GBgGUpcOJU7_SfbwQ2vQRH2eAY0u2IFncTqu1nTVCwL8egjyAL4kPqggdrrfO-OgfnfSel0OUVeC5ygZMs9wY_nyxdzdJzlfF9Etm2UfskY1vnb8tVihvxsXpRNpMoc_3OK7opVGjdCixfdRS_9uVxWA6HS383GRG9c6A13RbVFc2xDqdU_SRUqrhupiGW4771w0g22eeQ1tMLrwfVOUax_ZICq4hDjwZSfkXqong-Lu2awpYPLDPnBuJvP5PrQr6qpPBLSSw3LAYI3mrpEIwGZ32Gw4hFNWGis-suaOfkaDGgztOxPbmjoUMZx_Y9wrzn7JV1FRWNm00]--></g></svg>