<?xml version="1.0" encoding="us-ascii" standalone="no"?><svg xmlns="http://www.w3.org/2000/svg" xmlns:xlink="http://www.w3.org/1999/xlink" contentStyleType="text/css" height="1520px" preserveAspectRatio="none" style="width:1409px;height:1520px;background:#FFFFFF;" version="1.1" viewBox="0 0 1409 1520" width="1409px" zoomAndPan="magnify"><defs/><g><rect fill="#F5F5F5" height="1508.375" style="stroke:#181818;stroke-width:0.5;" width="591.5" x="425" y="6"/><text fill="#000000" font-family="sans-serif" font-size="18" font-weight="bold" lengthAdjust="spacing" textLength="193" x="621.75" y="22.708">Messenger-Service</text><text fill="#000000" font-family="sans-serif" font-size="13" font-weight="bold" lengthAdjust="spacing" textLength="5" x="814.75" y="23.8872">&#160;</text><rect fill="#DCDCDC" height="1097.3672" style="stroke:#000000;stroke-width:1.0;" width="10" x="531" y="321.7266"/><rect fill="#DCDCDC" height="333.3125" style="stroke:#000000;stroke-width:1.0;" width="10" x="855" y="932.4141"/><rect fill="#C9FFC9" height="347.3125" style="stroke:#000000;stroke-width:1.0;" width="10" x="1125.5" y="1071.7813"/><rect fill="#FFB6C1" height="905.7891" style="stroke:#000000;stroke-width:1.5;" width="1392.5" x="10" y="480.3047"/><rect fill="#FFB6C1" height="202.7813" style="stroke:none;stroke-width:1.0;" width="1392.5" x="10" y="683.2188"/><rect fill="#F0F8FF" height="500.0938" style="stroke:none;stroke-width:1.0;" width="1392.5" x="10" y="886"/><line style="stroke:#000000;stroke-width:0.5;stroke-dasharray:5.0,5.0;" x1="73" x2="73" y1="92.5156" y2="1428.0938"/><line style="stroke:#000000;stroke-width:0.5;stroke-dasharray:5.0,5.0;" x1="252" x2="252" y1="92.5156" y2="1428.0938"/><line style="stroke:#000000;stroke-width:0.5;stroke-dasharray:5.0,5.0;" x1="536" x2="536" y1="92.5156" y2="1428.0938"/><line style="stroke:#000000;stroke-width:0.5;stroke-dasharray:5.0,5.0;" x1="859.5" x2="859.5" y1="92.5156" y2="1428.0938"/><line style="stroke:#000000;stroke-width:0.5;stroke-dasharray:5.0,5.0;" x1="1130.5" x2="1130.5" y1="92.5156" y2="1428.0938"/><line style="stroke:#000000;stroke-width:0.5;stroke-dasharray:5.0,5.0;" x1="1339.5" x2="1339.5" y1="92.5156" y2="1428.0938"/><text fill="#000000" font-family="Aapex" font-size="20" lengthAdjust="spacing" textLength="100" x="20" y="87.7988">Akteur - A</text><ellipse cx="73" cy="17.7344" fill="#DCDCDC" rx="8" ry="8" style="stroke:#000000;stroke-width:0.5;"/><path d="M73,25.7344 L73,52.7344 M60,33.7344 L86,33.7344 M73,52.7344 L60,67.7344 M73,52.7344 L86,67.7344 " fill="none" style="stroke:#000000;stroke-width:0.5;"/><text fill="#000000" font-family="Aapex" font-size="20" lengthAdjust="spacing" textLength="100" x="20" y="1445.6582">Akteur - A</text><ellipse cx="73" cy="1458.875" fill="#DCDCDC" rx="8" ry="8" style="stroke:#000000;stroke-width:0.5;"/><path d="M73,1466.875 L73,1493.875 M60,1474.875 L86,1474.875 M73,1493.875 L60,1508.875 M73,1493.875 L86,1508.875 " fill="none" style="stroke:#000000;stroke-width:0.5;"/><rect fill="#F0F8FF" height="60.5625" rx="2.5" ry="2.5" style="stroke:#000000;stroke-width:0.5;" width="214" x="145" y="30.9531"/><text fill="#000000" font-family="Impact" font-size="20" lengthAdjust="spacing" textLength="139" x="182.5" y="56.5176">TI-Messenger-</text><text fill="#000000" font-family="Impact" font-size="20" lengthAdjust="spacing" textLength="79" x="212.5" y="79.7988">Client A</text><rect fill="#F0F8FF" height="60.5625" rx="2.5" ry="2.5" style="stroke:#000000;stroke-width:0.5;" width="214" x="145" y="1427.0938"/><text fill="#000000" font-family="Impact" font-size="20" lengthAdjust="spacing" textLength="139" x="182.5" y="1452.6582">TI-Messenger-</text><text fill="#000000" font-family="Impact" font-size="20" lengthAdjust="spacing" textLength="79" x="212.5" y="1475.9395">Client A</text><rect fill="#EFEFFF" height="60.5625" rx="2.5" ry="2.5" style="stroke:#000000;stroke-width:0.5;" width="214" x="429" y="30.9531"/><text fill="#000000" font-family="Impact" font-size="20" lengthAdjust="spacing" textLength="114" x="479" y="56.5176">Messenger-</text><text fill="#000000" font-family="Impact" font-size="20" lengthAdjust="spacing" textLength="54" x="509" y="79.7988">Proxy</text><rect fill="#EFEFFF" height="60.5625" rx="2.5" ry="2.5" style="stroke:#000000;stroke-width:0.5;" width="214" x="429" y="1427.0938"/><text fill="#000000" font-family="Impact" font-size="20" lengthAdjust="spacing" textLength="114" x="479" y="1452.6582">Messenger-</text><text fill="#000000" font-family="Impact" font-size="20" lengthAdjust="spacing" textLength="54" x="509" y="1475.9395">Proxy</text><rect fill="#EFEFFF" height="60.5625" rx="2.5" ry="2.5" style="stroke:#000000;stroke-width:0.5;" width="305" x="707.5" y="30.9531"/><text fill="#000000" font-family="Impact" font-size="20" lengthAdjust="spacing" textLength="189" x="762.5" y="56.5176">Matrix-Homeserver</text><text fill="#000000" font-family="Impact" font-size="20" lengthAdjust="spacing" textLength="291" x="714.5" y="79.7988">(inklusive Nutzerverzeichnis)</text><rect fill="#EFEFFF" height="60.5625" rx="2.5" ry="2.5" style="stroke:#000000;stroke-width:0.5;" width="305" x="707.5" y="1427.0938"/><text fill="#000000" font-family="Impact" font-size="20" lengthAdjust="spacing" textLength="189" x="762.5" y="1452.6582">Matrix-Homeserver</text><text fill="#000000" font-family="Impact" font-size="20" lengthAdjust="spacing" textLength="291" x="714.5" y="1475.9395">(inklusive Nutzerverzeichnis)</text><rect fill="#C9FFC9" height="60.5625" rx="2.5" ry="2.5" style="stroke:#000000;stroke-width:0.5;" width="214" x="1023.5" y="30.9531"/><text fill="#000000" font-family="Impact" font-size="20" lengthAdjust="spacing" textLength="139" x="1061" y="56.5176">TI-Messenger-</text><text fill="#000000" font-family="Impact" font-size="20" lengthAdjust="spacing" textLength="79" x="1091" y="79.7988">Client B</text><rect fill="#C9FFC9" height="60.5625" rx="2.5" ry="2.5" style="stroke:#000000;stroke-width:0.5;" width="214" x="1023.5" y="1427.0938"/><text fill="#000000" font-family="Impact" font-size="20" lengthAdjust="spacing" textLength="139" x="1061" y="1452.6582">TI-Messenger-</text><text fill="#000000" font-family="Impact" font-size="20" lengthAdjust="spacing" textLength="79" x="1091" y="1475.9395">Client B</text><text fill="#000000" font-family="Aapex" font-size="20" lengthAdjust="spacing" textLength="100" x="1286.5" y="87.7988">Akteur - B</text><ellipse cx="1339.5" cy="17.7344" fill="#DCDCDC" rx="8" ry="8" style="stroke:#000000;stroke-width:0.5;"/><path d="M1339.5,25.7344 L1339.5,52.7344 M1326.5,33.7344 L1352.5,33.7344 M1339.5,52.7344 L1326.5,67.7344 M1339.5,52.7344 L1352.5,67.7344 " fill="none" style="stroke:#000000;stroke-width:0.5;"/><text fill="#000000" font-family="Aapex" font-size="20" lengthAdjust="spacing" textLength="100" x="1286.5" y="1445.6582">Akteur - B</text><ellipse cx="1339.5" cy="1458.875" fill="#DCDCDC" rx="8" ry="8" style="stroke:#000000;stroke-width:0.5;"/><path d="M1339.5,1466.875 L1339.5,1493.875 M1326.5,1474.875 L1352.5,1474.875 M1339.5,1493.875 L1326.5,1508.875 M1339.5,1493.875 L1352.5,1508.875 " fill="none" style="stroke:#000000;stroke-width:0.5;"/><rect fill="#DCDCDC" height="1097.3672" style="stroke:#000000;stroke-width:1.0;" width="10" x="531" y="321.7266"/><rect fill="#DCDCDC" height="333.3125" style="stroke:#000000;stroke-width:1.0;" width="10" x="855" y="932.4141"/><rect fill="#C9FFC9" height="347.3125" style="stroke:#000000;stroke-width:1.0;" width="10" x="1125.5" y="1071.7813"/><path d="M22,132.5156 L22,211.5156 L1389,211.5156 L1389,142.5156 L1379,132.5156 L22,132.5156 " fill="#FEFFDD" style="stroke:#181818;stroke-width:0.5;"/><path d="M1379,132.5156 L1379,142.5156 L1389,142.5156 L1379,132.5156 " fill="#FEFFDD" style="stroke:#181818;stroke-width:0.5;"/><text fill="#000000" font-family="sans-serif" font-size="13" lengthAdjust="spacing" textLength="4" x="197.75" y="149.5825">&#160;</text><text fill="#000000" font-family="sans-serif" font-size="17" lengthAdjust="spacing" textLength="1007" x="197.75" y="168.4282">Die Akteure sind auf dem selben Messenger-Service angemeldet und im Besitz eines zugelassenen TI-Messenger-Clients.</text><text fill="#000000" font-family="sans-serif" font-size="17" lengthAdjust="spacing" textLength="473" x="197.75" y="188.2173">Ein Chatraum wurde durch den Einladenen eingerichtet.</text><text fill="#000000" font-family="sans-serif" font-size="13" lengthAdjust="spacing" textLength="4" x="197.75" y="204.2935">&#160;</text><polygon fill="#000000" points="240,264.1484,250,268.1484,240,272.1484,244,268.1484" style="stroke:#000000;stroke-width:1.0;"/><line style="stroke:#000000;stroke-width:1.0;" x1="73" x2="246" y1="268.1484" y2="268.1484"/><text fill="#000000" font-family="sans-serif" font-size="17" lengthAdjust="spacing" textLength="150" x="80" y="262.1392">Akteur B einladen</text><polygon fill="#000000" points="519,317.7266,529,321.7266,519,325.7266,523,321.7266" style="stroke:#000000;stroke-width:1.0;"/><line style="stroke:#000000;stroke-width:1.0;" x1="252" x2="525" y1="321.7266" y2="321.7266"/><text fill="#000000" font-family="sans-serif" font-size="17" lengthAdjust="spacing" textLength="260" x="259" y="295.9282">POST /_matrix/client/r0/rooms/</text><text fill="#000000" font-family="sans-serif" font-size="17" lengthAdjust="spacing" textLength="215" x="259" y="315.7173">{roomId}/invite (roomId)</text><line style="stroke:#000000;stroke-width:1.0;" x1="541" x2="583" y1="380.5156" y2="380.5156"/><line style="stroke:#000000;stroke-width:1.0;" x1="583" x2="583" y1="380.5156" y2="393.5156"/><line style="stroke:#000000;stroke-width:1.0;" x1="542" x2="583" y1="393.5156" y2="393.5156"/><polygon fill="#000000" points="552,389.5156,542,393.5156,552,397.5156,548,393.5156" style="stroke:#000000;stroke-width:1.0;"/><text fill="#000000" font-family="sans-serif" font-size="17" lengthAdjust="spacing" textLength="293" x="548" y="374.5063">Pr&#252;fe auf F&#246;derationszugeh&#246;rigkeit</text><line style="stroke:#000000;stroke-width:1.0;" x1="541" x2="583" y1="427.3047" y2="427.3047"/><line style="stroke:#000000;stroke-width:1.0;" x1="583" x2="583" y1="427.3047" y2="440.3047"/><line style="stroke:#000000;stroke-width:1.0;" x1="542" x2="583" y1="440.3047" y2="440.3047"/><polygon fill="#000000" points="552,436.3047,542,440.3047,552,444.3047,548,440.3047" style="stroke:#000000;stroke-width:1.0;"/><text fill="#000000" font-family="sans-serif" font-size="17" lengthAdjust="spacing" textLength="300" x="548" y="421.2954">Pr&#252;fe auf Versichertenzugeh&#246;rigkeit</text><path d="M10,480.3047 L74,480.3047 L74,487.4375 L64,497.4375 L10,497.4375 L10,480.3047 " fill="#D3D3D3" style="stroke:#000000;stroke-width:1.5;"/><rect fill="none" height="905.7891" style="stroke:#000000;stroke-width:1.5;" width="1392.5" x="10" y="480.3047"/><text fill="#000000" font-family="sans-serif" font-size="13" font-weight="bold" lengthAdjust="spacing" textLength="19" x="25" y="493.3716">alt</text><text fill="#000000" font-family="sans-serif" font-size="11" font-weight="bold" lengthAdjust="spacing" textLength="5" x="89" y="498.3354">[</text><text fill="#000000" font-family="sans-serif" font-size="16" font-weight="bold" lengthAdjust="spacing" textLength="427" x="94" y="497.1563">Matrix-Domain nicht in der F&#246;deration enthalten</text><text fill="#000000" font-family="sans-serif" font-size="11" font-weight="bold" lengthAdjust="spacing" textLength="5" x="521" y="498.3354">]</text><polygon fill="#000000" points="263,567.6406,253,571.6406,263,575.6406,259,571.6406" style="stroke:#000000;stroke-width:1.0;"/><line style="stroke:#000000;stroke-width:1.0;stroke-dasharray:2.0,2.0;" x1="257" x2="530" y1="571.6406" y2="571.6406"/><text fill="#000000" font-family="sans-serif" font-size="17" lengthAdjust="spacing" textLength="81" x="411" y="545.8423">HTTP 401</text><text fill="#000000" font-family="sans-serif" font-size="17" lengthAdjust="spacing" textLength="113" x="411" y="565.6313">Unauthorized</text><polygon fill="#000000" points="84,646.2188,74,650.2188,84,654.2188,80,650.2188" style="stroke:#000000;stroke-width:1.0;"/><line style="stroke:#000000;stroke-width:1.0;stroke-dasharray:2.0,2.0;" x1="78" x2="251" y1="650.2188" y2="650.2188"/><text fill="#000000" font-family="sans-serif" font-size="17" lengthAdjust="spacing" textLength="131" x="109" y="624.4204">Einladung nicht</text><text fill="#000000" font-family="sans-serif" font-size="17" lengthAdjust="spacing" textLength="89" x="109" y="644.2095">erfolgreich</text><line style="stroke:#000000;stroke-width:1.0;stroke-dasharray:2.0,2.0;" x1="10" x2="1402.5" y1="684.2188" y2="684.2188"/><text fill="#000000" font-family="sans-serif" font-size="11" font-weight="bold" lengthAdjust="spacing" textLength="5" x="15" y="700.2495">[</text><text fill="#000000" font-family="sans-serif" font-size="16" font-weight="bold" lengthAdjust="spacing" textLength="681" x="20" y="699.0703">Matrix-Domain in der F&#246;deration enthalten &amp; beide Akteure sind Versicherte</text><text fill="#000000" font-family="sans-serif" font-size="11" font-weight="bold" lengthAdjust="spacing" textLength="5" x="701" y="700.2495">]</text><polygon fill="#000000" points="263,770.4219,253,774.4219,263,778.4219,259,774.4219" style="stroke:#000000;stroke-width:1.0;"/><line style="stroke:#000000;stroke-width:1.0;stroke-dasharray:2.0,2.0;" x1="257" x2="530" y1="774.4219" y2="774.4219"/><text fill="#000000" font-family="sans-serif" font-size="17" lengthAdjust="spacing" textLength="81" x="411" y="748.6235">HTTP 401</text><text fill="#000000" font-family="sans-serif" font-size="17" lengthAdjust="spacing" textLength="113" x="411" y="768.4126">Unauthorized</text><polygon fill="#000000" points="84,849,74,853,84,857,80,853" style="stroke:#000000;stroke-width:1.0;"/><line style="stroke:#000000;stroke-width:1.0;stroke-dasharray:2.0,2.0;" x1="78" x2="251" y1="853" y2="853"/><text fill="#000000" font-family="sans-serif" font-size="17" lengthAdjust="spacing" textLength="131" x="109" y="827.2017">Einladung nicht</text><text fill="#000000" font-family="sans-serif" font-size="17" lengthAdjust="spacing" textLength="89" x="109" y="846.9907">erfolgreich</text><line style="stroke:#000000;stroke-width:1.0;stroke-dasharray:2.0,2.0;" x1="10" x2="1402.5" y1="887" y2="887"/><text fill="#000000" font-family="sans-serif" font-size="11" font-weight="bold" lengthAdjust="spacing" textLength="5" x="15" y="903.0308">[</text><text fill="#000000" font-family="sans-serif" font-size="16" font-weight="bold" lengthAdjust="spacing" textLength="846" x="20" y="901.8516">Matrix-Domain in der F&#246;deration enthalten und nur maximal einer der Akteure ist Versicherter]</text><polygon fill="#000000" points="843,928.4141,853,932.4141,843,936.4141,847,932.4141" style="stroke:#000000;stroke-width:1.0;"/><line style="stroke:#000000;stroke-width:1.0;" x1="541" x2="849" y1="932.4141" y2="932.4141"/><text fill="#000000" font-family="sans-serif" font-size="17" lengthAdjust="spacing" textLength="135" x="548" y="926.4048">HTTP(S) Foward</text><line style="stroke:#000000;stroke-width:1.0;" x1="865" x2="907" y1="966.2031" y2="966.2031"/><line style="stroke:#000000;stroke-width:1.0;" x1="907" x2="907" y1="966.2031" y2="979.2031"/><line style="stroke:#000000;stroke-width:1.0;" x1="866" x2="907" y1="979.2031" y2="979.2031"/><polygon fill="#000000" points="876,975.2031,866,979.2031,876,983.2031,872,979.2031" style="stroke:#000000;stroke-width:1.0;"/><text fill="#000000" font-family="sans-serif" font-size="17" lengthAdjust="spacing" textLength="151" x="872" y="960.1938">Invite verarbeiten</text><polygon fill="#000000" points="552,1033.9922,542,1037.9922,552,1041.9922,548,1037.9922" style="stroke:#000000;stroke-width:1.0;"/><line style="stroke:#000000;stroke-width:1.0;" x1="546" x2="854" y1="1037.9922" y2="1037.9922"/><text fill="#000000" font-family="sans-serif" font-size="17" lengthAdjust="spacing" textLength="122" x="726" y="1031.9829">Invite Request</text><polygon fill="#000000" points="1113.5,1067.7813,1123.5,1071.7813,1113.5,1075.7813,1117.5,1071.7813" style="stroke:#000000;stroke-width:1.0;"/><line style="stroke:#000000;stroke-width:1.0;" x1="541" x2="1119.5" y1="1071.7813" y2="1071.7813"/><text fill="#000000" font-family="sans-serif" font-size="17" lengthAdjust="spacing" textLength="142" x="548" y="1065.772">HTTP(S) Forward</text><polygon fill="#000000" points="1327.5,1101.5703,1337.5,1105.5703,1327.5,1109.5703,1331.5,1105.5703" style="stroke:#000000;stroke-width:1.0;"/><line style="stroke:#000000;stroke-width:1.0;" x1="1135.5" x2="1333.5" y1="1105.5703" y2="1105.5703"/><text fill="#000000" font-family="sans-serif" font-size="17" lengthAdjust="spacing" textLength="164" x="1142.5" y="1099.561">Einladung anzeigen</text><polygon fill="#000000" points="1146.5,1135.3594,1136.5,1139.3594,1146.5,1143.3594,1142.5,1139.3594" style="stroke:#000000;stroke-width:1.0;"/><line style="stroke:#000000;stroke-width:1.0;stroke-dasharray:2.0,2.0;" x1="1140.5" x2="1338.5" y1="1139.3594" y2="1139.3594"/><text fill="#000000" font-family="sans-serif" font-size="17" lengthAdjust="spacing" textLength="180" x="1152.5" y="1133.3501">Einladung annehmen</text><polygon fill="#000000" points="552,1169.1484,542,1173.1484,552,1177.1484,548,1173.1484" style="stroke:#000000;stroke-width:1.0;"/><line style="stroke:#000000;stroke-width:1.0;" x1="546" x2="1124.5" y1="1173.1484" y2="1173.1484"/><text fill="#000000" font-family="sans-serif" font-size="17" lengthAdjust="spacing" textLength="206" x="912.5" y="1167.1392">Einladung angenommen</text><polygon fill="#000000" points="843,1227.9375,853,1231.9375,843,1235.9375,847,1231.9375" style="stroke:#000000;stroke-width:1.0;"/><line style="stroke:#000000;stroke-width:1.0;stroke-dasharray:2.0,2.0;" x1="541" x2="849" y1="1231.9375" y2="1231.9375"/><text fill="#000000" font-family="sans-serif" font-size="17" lengthAdjust="spacing" textLength="142" x="548" y="1225.9282">HTTP(S) Forward</text><polygon fill="#000000" points="552,1261.7266,542,1265.7266,552,1269.7266,548,1265.7266" style="stroke:#000000;stroke-width:1.0;"/><line style="stroke:#000000;stroke-width:1.0;stroke-dasharray:2.0,2.0;" x1="546" x2="859" y1="1265.7266" y2="1265.7266"/><text fill="#000000" font-family="sans-serif" font-size="17" lengthAdjust="spacing" textLength="54" x="799" y="1259.7173">Status</text><polygon fill="#000000" points="263,1295.5156,253,1299.5156,263,1303.5156,259,1299.5156" style="stroke:#000000;stroke-width:1.0;"/><line style="stroke:#000000;stroke-width:1.0;stroke-dasharray:2.0,2.0;" x1="257" x2="530" y1="1299.5156" y2="1299.5156"/><text fill="#000000" font-family="sans-serif" font-size="17" lengthAdjust="spacing" textLength="54" x="470" y="1293.5063">Status</text><polygon fill="#000000" points="84,1349.0938,74,1353.0938,84,1357.0938,80,1353.0938" style="stroke:#000000;stroke-width:1.0;"/><line style="stroke:#000000;stroke-width:1.0;stroke-dasharray:2.0,2.0;" x1="78" x2="251" y1="1353.0938" y2="1353.0938"/><text fill="#000000" font-family="sans-serif" font-size="17" lengthAdjust="spacing" textLength="113" x="90" y="1327.2954">Nutzer in den</text><text fill="#000000" font-family="sans-serif" font-size="17" lengthAdjust="spacing" textLength="155" x="90" y="1347.0845">Raum hinzugef&#252;gt</text><!--SRC=[nLLDRziu4BthLmmIO940wpesYhO82WEssyG6ajY8dHO50XICD9O8IwINf18tJVzMJxtbZ-sGb1rAJdBOo-eaSRxUUvePwYKNAwPO0Hh_AL74U8vQinJxEKy595nXRBWKaTuw5bmCSwRrLvwO3Bf7Hu5j8DTJbYHSfD09ZZUvBt61ohwCa2Me1YnUfagM8XdAN2fOiHnJXKZLOdg5Wgqf_ziFS6TBHSyaX9zHNobvv-DlSahe3qwaC3D-Zz1v7_LZ8zL0AgeO-ftn1PvnWQzO6lXE6HVwHYePHLEc38_vYWaJnfzBms-P4opqQEHvtij2lc05mhXOiTWqJOvDzwXv7E9-0THWnzZ4CvcFl_Jduyb5L8dr8d5dRjRT7cumRWySdpvRuJhw5G4zp5hWgWDCmrv_QR1Kq8B-dZEkdY32qBlCnotRa2XILArhQZoEPEplmJurQ8o3l4GNUYFNy55J-UFEXzvJn0pLBRbzR5jJ3_Q_PjpWh91B7rKlUJvr9SDwKoNNF_QUynrvNsOKNxT6ia1DfL31jJZWOfcNcjyYN9JctXtV8uypmVMXpuKYiOXtINTV8JtOsvz_7euk9cUJqs-XcDswc0DV8tfuU8Y4D0ZIuhhg_4sUnuIlakbzxnEdV-EY43GdIAnSG89skl8R5B0Z8p3wAZ1Fq03r1d0QUDJSt0FIj6YuBrEqcm45HTT8U0hwJL3zCnSmp4W_LXPmLrAxGbAgE2C40iYOquQmUIWrPI3v39etrO-y5ewTfNdLQVM6dUEA20oilmjrrY5PpwV7C9tCvj3-NhZVrOuTchOwQYif2zs-5Z_jopZvrURYbZe43lptuKPcEwv83UA-DwM13ghqwl7F0fr-9u-_QV3SS6khH_RuM_5qYToy7FC5bIQ2g0oAPs8szJoOtEoVyJGpfmf_W7-TKiTjklzTh-h9JxAWgGLXbGDw8LGXEEf1ar4o59Mc5RmQEI_jQ3wVmjkZ3lNEbM2boQIYW6GdWCHkzQuemF-zaYu1N_rQe5h8d5OxVJR2ga_CDRv4uJNmy1VS84yQZHm8-l-n2vazRQl_HD8Ecw3kfWkH5ontuwQS_uOsroPahS9c6tcI1xD3E95tJ6suXPqzsWICVC3Opm5j3gP8O5FDKoZ8rdswTR-qrx8seGC167P30Ag6e8Q2rbzpnLNQTqdwRYWz4xHIqoqgjmcwBLyhz1AO5JKlcyeY3fqeZopgRWsQjbdgEZPfa18-ySmmK-eQmGHtXQxru4xCjjdy3UAxGr2hNTfjcN6t9XQFVz8dhKF4TBz4zk1V]--></g></svg>