<?xml version="1.0" encoding="us-ascii" standalone="no"?><svg xmlns="http://www.w3.org/2000/svg" xmlns:xlink="http://www.w3.org/1999/xlink" contentStyleType="text/css" height="845px" preserveAspectRatio="none" style="width:1802px;height:845px;background:#FFFFFF;" version="1.1" viewBox="0 0 1802 845" width="1802px" zoomAndPan="magnify"><defs/><g><rect fill="#DCDCDC" height="599.4609" style="stroke:#000000;stroke-width:1.0;" width="10" x="403" y="149.0703"/><rect fill="#DCDCDC" height="33.7891" style="stroke:#000000;stroke-width:1.0;" width="10" x="790" y="182.8594"/><rect fill="#DCDCDC" height="101.3672" style="stroke:#000000;stroke-width:1.0;" width="10" x="790" y="423.4297"/><rect fill="#DCDCDC" height="101.3672" style="stroke:#000000;stroke-width:1.0;" width="10" x="1234" y="389.6406"/><rect fill="#DCDCDC" height="650.25" style="stroke:#000000;stroke-width:1.0;" width="10" x="1678" y="98.2813"/><line style="stroke:#000000;stroke-width:0.5;stroke-dasharray:5.0,5.0;" x1="69" x2="69" y1="88.2813" y2="757.5313"/><line style="stroke:#000000;stroke-width:0.5;stroke-dasharray:5.0,5.0;" x1="407.5" x2="407.5" y1="88.2813" y2="757.5313"/><line style="stroke:#000000;stroke-width:0.5;stroke-dasharray:5.0,5.0;" x1="795" x2="795" y1="88.2813" y2="757.5313"/><line style="stroke:#000000;stroke-width:0.5;stroke-dasharray:5.0,5.0;" x1="1239" x2="1239" y1="88.2813" y2="757.5313"/><line style="stroke:#000000;stroke-width:0.5;stroke-dasharray:5.0,5.0;" x1="1683" x2="1683" y1="88.2813" y2="757.5313"/><text fill="#000000" font-family="sans-serif" font-size="20" lengthAdjust="spacing" textLength="122" x="5" y="83.5645">Versicherter</text><ellipse cx="69" cy="13.5" fill="#DCDCDC" rx="8" ry="8" style="stroke:#000000;stroke-width:0.5;"/><path d="M69,21.5 L69,48.5 M56,29.5 L82,29.5 M69,48.5 L56,63.5 M69,48.5 L82,63.5 " fill="none" style="stroke:#000000;stroke-width:0.5;"/><text fill="#000000" font-family="sans-serif" font-size="20" lengthAdjust="spacing" textLength="122" x="5" y="775.0957">Versicherter</text><ellipse cx="69" cy="788.3125" fill="#DCDCDC" rx="8" ry="8" style="stroke:#000000;stroke-width:0.5;"/><path d="M69,796.3125 L69,823.3125 M56,804.3125 L82,804.3125 M69,823.3125 L56,838.3125 M69,823.3125 L82,838.3125 " fill="none" style="stroke:#000000;stroke-width:0.5;"/><rect fill="#EFEFFF" height="37.2813" rx="2.5" ry="2.5" style="stroke:#000000;stroke-width:0.5;" width="279" x="268.5" y="50"/><text fill="#000000" font-family="sans-serif" font-size="20" lengthAdjust="spacing" textLength="265" x="275.5" y="75.5645">Frontend des Versicherten</text><rect fill="#EFEFFF" height="37.2813" rx="2.5" ry="2.5" style="stroke:#000000;stroke-width:0.5;" width="279" x="268.5" y="756.5313"/><text fill="#000000" font-family="sans-serif" font-size="20" lengthAdjust="spacing" textLength="265" x="275.5" y="782.0957">Frontend des Versicherten</text><rect fill="#EFEFFF" height="37.2813" rx="2.5" ry="2.5" style="stroke:#000000;stroke-width:0.5;" width="214" x="688" y="50"/><text fill="#000000" font-family="sans-serif" font-size="20" lengthAdjust="spacing" textLength="141" x="724.5" y="75.5645">Push-Anbieter</text><rect fill="#EFEFFF" height="37.2813" rx="2.5" ry="2.5" style="stroke:#000000;stroke-width:0.5;" width="214" x="688" y="756.5313"/><text fill="#000000" font-family="sans-serif" font-size="20" lengthAdjust="spacing" textLength="141" x="724.5" y="782.0957">Push-Anbieter</text><rect fill="#EFEFFF" height="37.2813" rx="2.5" ry="2.5" style="stroke:#000000;stroke-width:0.5;" width="214" x="1132" y="50"/><text fill="#000000" font-family="sans-serif" font-size="20" lengthAdjust="spacing" textLength="143" x="1167.5" y="75.5645">Push-Gateway</text><rect fill="#EFEFFF" height="37.2813" rx="2.5" ry="2.5" style="stroke:#000000;stroke-width:0.5;" width="214" x="1132" y="756.5313"/><text fill="#000000" font-family="sans-serif" font-size="20" lengthAdjust="spacing" textLength="143" x="1167.5" y="782.0957">Push-Gateway</text><rect fill="#EFEFFF" height="37.2813" rx="2.5" ry="2.5" style="stroke:#000000;stroke-width:0.5;" width="214" x="1576" y="50"/><text fill="#000000" font-family="sans-serif" font-size="20" lengthAdjust="spacing" textLength="110" x="1628" y="75.5645">Fachdienst</text><rect fill="#EFEFFF" height="37.2813" rx="2.5" ry="2.5" style="stroke:#000000;stroke-width:0.5;" width="214" x="1576" y="756.5313"/><text fill="#000000" font-family="sans-serif" font-size="20" lengthAdjust="spacing" textLength="110" x="1628" y="782.0957">Fachdienst</text><rect fill="#DCDCDC" height="599.4609" style="stroke:#000000;stroke-width:1.0;" width="10" x="403" y="149.0703"/><rect fill="#DCDCDC" height="33.7891" style="stroke:#000000;stroke-width:1.0;" width="10" x="790" y="182.8594"/><rect fill="#DCDCDC" height="101.3672" style="stroke:#000000;stroke-width:1.0;" width="10" x="790" y="423.4297"/><rect fill="#DCDCDC" height="101.3672" style="stroke:#000000;stroke-width:1.0;" width="10" x="1234" y="389.6406"/><rect fill="#DCDCDC" height="650.25" style="stroke:#000000;stroke-width:1.0;" width="10" x="1678" y="98.2813"/><polygon fill="#000000" points="391,145.0703,401,149.0703,391,153.0703,395,149.0703" style="stroke:#000000;stroke-width:1.0;"/><line style="stroke:#000000;stroke-width:1.0;" x1="69" x2="397" y1="149.0703" y2="149.0703"/><text fill="#000000" font-family="sans-serif" font-size="17" font-weight="bold" lengthAdjust="spacing" textLength="12" x="76" y="143.061">1</text><text fill="#000000" font-family="sans-serif" font-size="17" lengthAdjust="spacing" textLength="299" x="92" y="143.061">installiert FdV auf dem Smartphone</text><polygon fill="#000000" points="778,178.8594,788,182.8594,778,186.8594,782,182.8594" style="stroke:#000000;stroke-width:1.0;"/><line style="stroke:#000000;stroke-width:1.0;" x1="413" x2="784" y1="182.8594" y2="182.8594"/><text fill="#000000" font-family="sans-serif" font-size="17" font-weight="bold" lengthAdjust="spacing" textLength="12" x="420" y="176.8501">2</text><text fill="#000000" font-family="sans-serif" font-size="17" lengthAdjust="spacing" textLength="289" x="436" y="176.8501">registriert sich beim Push-Anbieter</text><polygon fill="#000000" points="424,212.6484,414,216.6484,424,220.6484,420,216.6484" style="stroke:#000000;stroke-width:1.0;"/><line style="stroke:#000000;stroke-width:1.0;stroke-dasharray:2.0,2.0;" x1="418" x2="794" y1="216.6484" y2="216.6484"/><text fill="#000000" font-family="sans-serif" font-size="17" font-weight="bold" lengthAdjust="spacing" textLength="12" x="690" y="210.6392">3</text><text fill="#000000" font-family="sans-serif" font-size="17" lengthAdjust="spacing" textLength="82" x="706" y="210.6392">AppToken</text><polygon fill="#000000" points="1666,246.4375,1676,250.4375,1666,254.4375,1670,250.4375" style="stroke:#000000;stroke-width:1.0;"/><line style="stroke:#000000;stroke-width:1.0;" x1="413" x2="1672" y1="250.4375" y2="250.4375"/><text fill="#000000" font-family="sans-serif" font-size="17" font-weight="bold" lengthAdjust="spacing" textLength="12" x="420" y="244.4282">4</text><text fill="#000000" font-family="sans-serif" font-size="17" lengthAdjust="spacing" textLength="460" x="436" y="244.4282">konfiguriert zu verwendendes Gateway und App-Token</text><polygon fill="#000000" points="424,280.2266,414,284.2266,424,288.2266,420,284.2266" style="stroke:#000000;stroke-width:1.0;"/><line style="stroke:#000000;stroke-width:1.0;stroke-dasharray:2.0,2.0;" x1="418" x2="1677" y1="284.2266" y2="284.2266"/><text fill="#000000" font-family="sans-serif" font-size="17" font-weight="bold" lengthAdjust="spacing" textLength="12" x="1421" y="278.2173">5</text><text fill="#000000" font-family="sans-serif" font-size="17" lengthAdjust="spacing" textLength="234" x="1437" y="278.2173">Konfiguration &#252;bernommen</text><rect fill="#EEEEEE" height="3" style="stroke:#EEEEEE;stroke-width:1.0;" width="1795" x="0" y="339.5391"/><line style="stroke:#000000;stroke-width:1.0;" x1="0" x2="1795" y1="339.5391" y2="339.5391"/><line style="stroke:#000000;stroke-width:1.0;" x1="0" x2="1795" y1="342.5391" y2="342.5391"/><rect fill="#EEEEEE" height="26.625" style="stroke:#000000;stroke-width:2.0;" width="663" x="566" y="327.2266"/><text fill="#008000" font-family="sans-serif" font-size="16" font-weight="bold" lengthAdjust="spacing" textLength="639" x="572" y="346.0781">Vom Fachdienst wird eine Benachrichtigung des Versicherten ausgel&#246;st</text><text fill="#000000" font-family="sans-serif" font-size="13" font-weight="bold" lengthAdjust="spacing" textLength="10" x="1211" y="346.7856">&#160;&#160;</text><polygon fill="#000000" points="1255,385.6406,1245,389.6406,1255,393.6406,1251,389.6406" style="stroke:#000000;stroke-width:1.0;"/><line style="stroke:#000000;stroke-width:1.0;" x1="1249" x2="1677" y1="389.6406" y2="389.6406"/><text fill="#000000" font-family="sans-serif" font-size="17" font-weight="bold" lengthAdjust="spacing" textLength="12" x="1256" y="383.6313">6</text><text fill="#000000" font-family="sans-serif" font-size="17" lengthAdjust="spacing" textLength="399" x="1272" y="383.6313">Benachrichtigung (EventID 4711) f&#252;r AppToken</text><polygon fill="#000000" points="811,419.4297,801,423.4297,811,427.4297,807,423.4297" style="stroke:#000000;stroke-width:1.0;"/><line style="stroke:#000000;stroke-width:1.0;" x1="805" x2="1233" y1="423.4297" y2="423.4297"/><text fill="#000000" font-family="sans-serif" font-size="17" font-weight="bold" lengthAdjust="spacing" textLength="12" x="812" y="417.4204">7</text><text fill="#000000" font-family="sans-serif" font-size="17" lengthAdjust="spacing" textLength="399" x="828" y="417.4204">Benachrichtigung (EventID 4711) f&#252;r AppToken</text><polygon fill="#000000" points="1222,453.2188,1232,457.2188,1222,461.2188,1226,457.2188" style="stroke:#000000;stroke-width:1.0;"/><line style="stroke:#000000;stroke-width:1.0;stroke-dasharray:2.0,2.0;" x1="800" x2="1228" y1="457.2188" y2="457.2188"/><text fill="#000000" font-family="sans-serif" font-size="17" font-weight="bold" lengthAdjust="spacing" textLength="12" x="807" y="451.2095">8</text><text fill="#000000" font-family="sans-serif" font-size="17" lengthAdjust="spacing" textLength="79" x="823" y="451.2095">Response</text><polygon fill="#000000" points="1666,487.0078,1676,491.0078,1666,495.0078,1670,491.0078" style="stroke:#000000;stroke-width:1.0;"/><line style="stroke:#000000;stroke-width:1.0;stroke-dasharray:2.0,2.0;" x1="1239" x2="1672" y1="491.0078" y2="491.0078"/><text fill="#000000" font-family="sans-serif" font-size="17" font-weight="bold" lengthAdjust="spacing" textLength="12" x="1246" y="484.9985">9</text><text fill="#000000" font-family="sans-serif" font-size="17" lengthAdjust="spacing" textLength="79" x="1262" y="484.9985">Response</text><polygon fill="#000000" points="424,520.7969,414,524.7969,424,528.7969,420,524.7969" style="stroke:#000000;stroke-width:1.0;"/><line style="stroke:#000000;stroke-width:1.0;" x1="418" x2="794" y1="524.7969" y2="524.7969"/><text fill="#000000" font-family="sans-serif" font-size="17" font-weight="bold" lengthAdjust="spacing" textLength="24" x="477" y="518.7876">10</text><text fill="#000000" font-family="sans-serif" font-size="17" lengthAdjust="spacing" textLength="283" x="505" y="518.7876">Benachrichtigung (EventID 4711)</text><polygon fill="#000000" points="1666,554.5859,1676,558.5859,1666,562.5859,1670,558.5859" style="stroke:#000000;stroke-width:1.0;"/><line style="stroke:#000000;stroke-width:1.0;" x1="413" x2="1672" y1="558.5859" y2="558.5859"/><text fill="#000000" font-family="sans-serif" font-size="17" font-weight="bold" lengthAdjust="spacing" textLength="24" x="420" y="552.5767">11</text><text fill="#000000" font-family="sans-serif" font-size="17" lengthAdjust="spacing" textLength="298" x="448" y="552.5767">Abfrage der Daten zu EventID 4711</text><polygon fill="#000000" points="424,588.375,414,592.375,424,596.375,420,592.375" style="stroke:#000000;stroke-width:1.0;"/><line style="stroke:#000000;stroke-width:1.0;stroke-dasharray:2.0,2.0;" x1="418" x2="1677" y1="592.375" y2="592.375"/><text fill="#000000" font-family="sans-serif" font-size="17" font-weight="bold" lengthAdjust="spacing" textLength="24" x="1305" y="586.3657">12</text><text fill="#000000" font-family="sans-serif" font-size="17" lengthAdjust="spacing" textLength="338" x="1333" y="586.3657">Verschl&#252;sselte Benachrichtigungsinhalte</text><line style="stroke:#000000;stroke-width:1.0;" x1="413" x2="455" y1="626.1641" y2="626.1641"/><line style="stroke:#000000;stroke-width:1.0;" x1="455" x2="455" y1="626.1641" y2="639.1641"/><line style="stroke:#000000;stroke-width:1.0;" x1="414" x2="455" y1="639.1641" y2="639.1641"/><polygon fill="#000000" points="424,635.1641,414,639.1641,424,643.1641,420,639.1641" style="stroke:#000000;stroke-width:1.0;"/><text fill="#000000" font-family="sans-serif" font-size="17" font-weight="bold" lengthAdjust="spacing" textLength="24" x="420" y="620.1548">13</text><text fill="#000000" font-family="sans-serif" font-size="17" lengthAdjust="spacing" textLength="178" x="448" y="620.1548">Entschl&#252;ssele Inhalte</text><line style="stroke:#000000;stroke-width:1.0;" x1="413" x2="455" y1="692.7422" y2="692.7422"/><line style="stroke:#000000;stroke-width:1.0;" x1="455" x2="455" y1="692.7422" y2="705.7422"/><line style="stroke:#000000;stroke-width:1.0;" x1="414" x2="455" y1="705.7422" y2="705.7422"/><polygon fill="#000000" points="424,701.7422,414,705.7422,424,709.7422,420,705.7422" style="stroke:#000000;stroke-width:1.0;"/><text fill="#000000" font-family="sans-serif" font-size="17" font-weight="bold" lengthAdjust="spacing" textLength="24" x="420" y="676.8384">14</text><text fill="#000000" font-family="sans-serif" font-size="17" lengthAdjust="spacing" textLength="335" x="448" y="666.9438">erzeuge Anwenderbenachrichtigung mit</text><text fill="#000000" font-family="sans-serif" font-size="17" lengthAdjust="spacing" textLength="242" x="453" y="686.7329">den entschl&#252;sselten Inhalten</text><polygon fill="#000000" points="80,735.5313,70,739.5313,80,743.5313,76,739.5313" style="stroke:#000000;stroke-width:1.0;"/><line style="stroke:#000000;stroke-width:1.0;" x1="74" x2="402" y1="739.5313" y2="739.5313"/><text fill="#000000" font-family="sans-serif" font-size="17" font-weight="bold" lengthAdjust="spacing" textLength="24" x="169" y="733.522">15</text><text fill="#000000" font-family="sans-serif" font-size="17" lengthAdjust="spacing" textLength="199" x="197" y="733.522">Zeige Benachrichtigung</text><!--SRC=[bLN9Rjim4BtpAmRf8Ut1I1m4JM3O1kHi3PeDSU00HIwqD988IwHAKhARfh_LKsx-iGubBxASjAXX2D8iRzwy6L5c8cJ6DK_1uFSSfO_NQ0oFq4j4924G6dqhb6Hc5PWAUP9mOnv5O6CusD-l-GPgTiU3GCW8sZNp4liUGzJkvWlo0FM0-vD8grm69ofH6ZAUOAGHgPfFjv3o6U4V7iFKbM9l0C9FvccjfbN-E270od2kf1sAPuJs4VDyg_H0QQfOZxiI8Lu9YN_nDFXTS27DM6d5s1tNLlWYuzBMyw-L5GKl1Qj7D71gKRkrCCVvXgS8bsd6VSiQhhATW_sckKxy7LQ3BMUJqEt3vSXxkBozOGkrtksyT3VhhenBZhihIzcGnpESiL-CyTmgcQTZr0peLrwu2uK2k86T4MeZ_1YrHRrJUhCrQmY3AkfS4p3A008qK4kHLShkMCsWQuXAfttST_kCCaBT6g8kX8zFyiDZB2mEKpN1hHePBqlSvIPkUN8iy4qcMRIEkk0Mf_p7MtGhjjoF0u7Is0KznvmeClRoyiBA_jqs8CNJKz7gKviT8BqjJn91VS5vC0AUXzHk2iEKAcInahYPMj0ZNLlzZ7T0OoICrMMo4mV6A5BOwAcUdN7ccBSMfRqiUo1f91a3t0mgAuH11oPAXYBAgnBFEHIefzIN-njOA0AqFWwijKGBWsM9hulqyYM0-IijX5HfIb5EaruFkY6D67otOxtoIEWl1lgvFr8fh3Mbiq47WFIsmW0bcJNrQmcRZg3cUf289i9a_jlOxfw3wtVtN9q-GA_7Y5q_YphRC1_F2fJsyXGEZzhjJn3EN_LA8s1hWIAMHPN-_mN1wXANKt0ixj5aIXfqcANaAqDz9f5Bg2JzHqssEShL8BrngEcu9wqqd78d4aspdibMKtDI-d4oVwKNAh7RUXiXOqwE9NZHEPDsdK7dMjEF-XbpAkx9SddqkDb3AkmJVOM85TQX7Cq5cApGYiut5D4s9_O7]--></g></svg>