<?xml version="1.0" encoding="us-ascii" standalone="no"?><svg xmlns="http://www.w3.org/2000/svg" xmlns:xlink="http://www.w3.org/1999/xlink" contentStyleType="text/css" height="2514px" preserveAspectRatio="none" style="width:1848px;height:2514px;background:#FFFFFF;" version="1.1" viewBox="0 0 1848 2514" width="1848px" zoomAndPan="magnify"><defs/><g><rect fill="#F5F5F5" height="2502.3672" style="stroke:#181818;stroke-width:0.5;" width="222" x="261.5" y="6"/><text fill="#000000" font-family="sans-serif" font-size="18" font-weight="bold" lengthAdjust="spacing" textLength="93" x="326" y="22.708">Endger&#228;t</text><text fill="#000000" font-family="sans-serif" font-size="13" font-weight="bold" lengthAdjust="spacing" textLength="5" x="326" y="39.02">&#160;</text><rect fill="#F5F5F5" height="2502.3672" style="stroke:#181818;stroke-width:0.5;" width="670" x="754.5" y="6"/><text fill="#000000" font-family="sans-serif" font-size="18" font-weight="bold" lengthAdjust="spacing" textLength="200" x="987" y="22.708">VZD-FHIR-Directory</text><text fill="#000000" font-family="sans-serif" font-size="13" font-weight="bold" lengthAdjust="spacing" textLength="5" x="1187" y="23.8872">&#160;</text><rect fill="#F5F5F5" height="2502.3672" style="stroke:#181818;stroke-width:0.5;" width="266" x="1436.5" y="6"/><text fill="#000000" font-family="sans-serif" font-size="18" font-weight="bold" lengthAdjust="spacing" textLength="255" x="1439.5" y="22.708">Ti-Messenger-Fachdienst</text><text fill="#000000" font-family="sans-serif" font-size="13" font-weight="bold" lengthAdjust="spacing" textLength="5" x="1694.5" y="23.8872">&#160;</text><rect fill="#DCDCDC" height="2072.9297" style="stroke:#000000;stroke-width:1.0;" width="10" x="367.5" y="315.875"/><rect fill="#DCDCDC" height="214.7344" style="stroke:#000000;stroke-width:1.0;" width="10" x="860.5" y="1665.3438"/><rect fill="#DCDCDC" height="214.7344" style="stroke:#000000;stroke-width:1.0;" width="10" x="860.5" y="2043.2813"/><rect fill="#DCDCDC" height="378.5781" style="stroke:#000000;stroke-width:1.0;" width="10" x="1084.5" y="1070.9375"/><rect fill="#DCDCDC" height="80.5781" style="stroke:#000000;stroke-width:1.0;" width="10" x="1308.5" y="1765.7109"/><rect fill="#DCDCDC" height="80.5781" style="stroke:#000000;stroke-width:1.0;" width="10" x="1308.5" y="2143.6484"/><rect fill="#DCDCDC" height="112.0977" style="stroke:#000000;stroke-width:1.0;" width="10" x="1564.5" y="651.6445"/><rect fill="#DCDCDC" height="112.0977" style="stroke:#000000;stroke-width:1.0;" width="10" x="1564.5" y="900.0508"/><rect fill="#F0F8FF" height="1040.2734" style="stroke:#000000;stroke-width:1.5;" width="1832.5" x="10" y="442.2422"/><rect fill="#ADD8E6" height="335.5313" style="stroke:#000000;stroke-width:1.5;" width="1812.5" x="20" y="495"/><rect fill="#FFE4E1" height="113.3359" style="stroke:#000000;stroke-width:1.5;" width="1186.5" x="20" y="1211.8125"/><rect fill="none" height="835.2891" style="stroke:#000000;stroke-width:1.5;" width="1483.5" x="20" y="1521.5156"/><rect fill="none" height="338.9375" style="stroke:#000000;stroke-width:1.5;" width="1207" x="255.5" y="1574.1406"/><rect fill="none" height="338.9375" style="stroke:#000000;stroke-width:1.5;" width="1238" x="255.5" y="1952.0781"/><line style="stroke:#000000;stroke-width:0.5;stroke-dasharray:5.0,5.0;" x1="125" x2="125" y1="130.9297" y2="2398.8047"/><line style="stroke:#000000;stroke-width:0.5;stroke-dasharray:5.0,5.0;" x1="372.5" x2="372.5" y1="130.9297" y2="2398.8047"/><line style="stroke:#000000;stroke-width:0.5;stroke-dasharray:5.0,5.0;" x1="865.5" x2="865.5" y1="130.9297" y2="2398.8047"/><line style="stroke:#000000;stroke-width:0.5;stroke-dasharray:5.0,5.0;" x1="1089.5" x2="1089.5" y1="130.9297" y2="2398.8047"/><line style="stroke:#000000;stroke-width:0.5;stroke-dasharray:5.0,5.0;" x1="1313.5" x2="1313.5" y1="130.9297" y2="2398.8047"/><line style="stroke:#000000;stroke-width:0.5;stroke-dasharray:5.0,5.0;" x1="1569" x2="1569" y1="130.9297" y2="2398.8047"/><text fill="#000000" font-family="Aapex" font-size="20" lengthAdjust="spacing" textLength="185" x="30" y="102.9316">Akteur in der Rolle</text><text fill="#000000" font-family="Aapex" font-size="20" lengthAdjust="spacing" textLength="108" x="68.5" y="126.2129">Org-Admin</text><ellipse cx="125.5" cy="32.8672" fill="#DCDCDC" rx="8" ry="8" style="stroke:#000000;stroke-width:0.5;"/><path d="M125.5,40.8672 L125.5,67.8672 M112.5,48.8672 L138.5,48.8672 M125.5,67.8672 L112.5,82.8672 M125.5,67.8672 L138.5,82.8672 " fill="none" style="stroke:#000000;stroke-width:0.5;"/><text fill="#000000" font-family="Aapex" font-size="20" lengthAdjust="spacing" textLength="185" x="30" y="2416.3691">Akteur in der Rolle</text><text fill="#000000" font-family="Aapex" font-size="20" lengthAdjust="spacing" textLength="108" x="68.5" y="2439.6504">Org-Admin</text><ellipse cx="125.5" cy="2452.8672" fill="#DCDCDC" rx="8" ry="8" style="stroke:#000000;stroke-width:0.5;"/><path d="M125.5,2460.8672 L125.5,2487.8672 M112.5,2468.8672 L138.5,2468.8672 M125.5,2487.8672 L112.5,2502.8672 M125.5,2487.8672 L138.5,2502.8672 " fill="none" style="stroke:#000000;stroke-width:0.5;"/><rect fill="#EFEFFF" height="83.8438" rx="2.5" ry="2.5" style="stroke:#000000;stroke-width:0.5;" width="214" x="265.5" y="46.0859"/><text fill="#000000" font-family="sans-serif" font-size="20" lengthAdjust="spacing" textLength="198" x="273.5" y="71.6504">TI-Messenger-Client</text><text fill="#000000" font-family="sans-serif" font-size="20" lengthAdjust="spacing" textLength="150" x="297.5" y="94.9316">mit Org-Admin</text><text fill="#000000" font-family="sans-serif" font-size="20" lengthAdjust="spacing" textLength="141" x="302" y="118.2129">Funktionalit&#228;t</text><rect fill="#EFEFFF" height="83.8438" rx="2.5" ry="2.5" style="stroke:#000000;stroke-width:0.5;" width="214" x="265.5" y="2397.8047"/><text fill="#000000" font-family="sans-serif" font-size="20" lengthAdjust="spacing" textLength="198" x="273.5" y="2423.3691">TI-Messenger-Client</text><text fill="#000000" font-family="sans-serif" font-size="20" lengthAdjust="spacing" textLength="150" x="297.5" y="2446.6504">mit Org-Admin</text><text fill="#000000" font-family="sans-serif" font-size="20" lengthAdjust="spacing" textLength="141" x="302" y="2469.9316">Funktionalit&#228;t</text><rect fill="#EFEFFF" height="37.2813" rx="2.5" ry="2.5" style="stroke:#000000;stroke-width:0.5;" width="214" x="758.5" y="92.6484"/><text fill="#000000" font-family="sans-serif" font-size="20" lengthAdjust="spacing" textLength="108" x="811.5" y="118.2129">FHIR-Proxy</text><rect fill="#EFEFFF" height="37.2813" rx="2.5" ry="2.5" style="stroke:#000000;stroke-width:0.5;" width="214" x="758.5" y="2397.8047"/><text fill="#000000" font-family="sans-serif" font-size="20" lengthAdjust="spacing" textLength="108" x="811.5" y="2423.3691">FHIR-Proxy</text><rect fill="#EFEFFF" height="37.2813" rx="2.5" ry="2.5" style="stroke:#000000;stroke-width:0.5;" width="214" x="982.5" y="92.6484"/><text fill="#000000" font-family="sans-serif" font-size="20" lengthAdjust="spacing" textLength="128" x="1025.5" y="118.2129">Auth-Service</text><rect fill="#EFEFFF" height="37.2813" rx="2.5" ry="2.5" style="stroke:#000000;stroke-width:0.5;" width="214" x="982.5" y="2397.8047"/><text fill="#000000" font-family="sans-serif" font-size="20" lengthAdjust="spacing" textLength="128" x="1025.5" y="2423.3691">Auth-Service</text><rect fill="#EFEFFF" height="37.2813" rx="2.5" ry="2.5" style="stroke:#000000;stroke-width:0.5;" width="214" x="1206.5" y="92.6484"/><text fill="#000000" font-family="sans-serif" font-size="20" lengthAdjust="spacing" textLength="145" x="1241" y="118.2129">FHIR-Directory</text><rect fill="#EFEFFF" height="37.2813" rx="2.5" ry="2.5" style="stroke:#000000;stroke-width:0.5;" width="214" x="1206.5" y="2397.8047"/><text fill="#000000" font-family="sans-serif" font-size="20" lengthAdjust="spacing" textLength="145" x="1241" y="2423.3691">FHIR-Directory</text><rect fill="#EFEFFF" height="37.2813" rx="2.5" ry="2.5" style="stroke:#000000;stroke-width:0.5;" width="231" x="1454" y="92.6484"/><text fill="#000000" font-family="sans-serif" font-size="20" lengthAdjust="spacing" textLength="217" x="1461" y="118.2129">Registrierungs-Dienst</text><rect fill="#EFEFFF" height="37.2813" rx="2.5" ry="2.5" style="stroke:#000000;stroke-width:0.5;" width="231" x="1454" y="2397.8047"/><text fill="#000000" font-family="sans-serif" font-size="20" lengthAdjust="spacing" textLength="217" x="1461" y="2423.3691">Registrierungs-Dienst</text><rect fill="#DCDCDC" height="2072.9297" style="stroke:#000000;stroke-width:1.0;" width="10" x="367.5" y="315.875"/><rect fill="#DCDCDC" height="214.7344" style="stroke:#000000;stroke-width:1.0;" width="10" x="860.5" y="1665.3438"/><rect fill="#DCDCDC" height="214.7344" style="stroke:#000000;stroke-width:1.0;" width="10" x="860.5" y="2043.2813"/><rect fill="#DCDCDC" height="378.5781" style="stroke:#000000;stroke-width:1.0;" width="10" x="1084.5" y="1070.9375"/><rect fill="#DCDCDC" height="80.5781" style="stroke:#000000;stroke-width:1.0;" width="10" x="1308.5" y="1765.7109"/><rect fill="#DCDCDC" height="80.5781" style="stroke:#000000;stroke-width:1.0;" width="10" x="1308.5" y="2143.6484"/><rect fill="#DCDCDC" height="112.0977" style="stroke:#000000;stroke-width:1.0;" width="10" x="1564.5" y="651.6445"/><rect fill="#DCDCDC" height="112.0977" style="stroke:#000000;stroke-width:1.0;" width="10" x="1564.5" y="900.0508"/><path d="M21,170.9297 L21,219.9297 L477,219.9297 L477,180.9297 L467,170.9297 L21,170.9297 " fill="#FEFFDD" style="stroke:#181818;stroke-width:0.5;"/><path d="M467,170.9297 L467,180.9297 L477,180.9297 L467,170.9297 " fill="#FEFFDD" style="stroke:#181818;stroke-width:0.5;"/><text fill="#000000" font-family="sans-serif" font-size="17" lengthAdjust="spacing" textLength="386" x="27" y="191.7095">Die Organisation hat einen Messenger-Service</text><text fill="#000000" font-family="sans-serif" font-size="17" lengthAdjust="spacing" textLength="435" x="27" y="211.4985">bereitgestellt bekommen, der Teil der F&#246;deration ist</text><polygon fill="#000000" points="355.5,311.875,365.5,315.875,355.5,319.875,359.5,315.875" style="stroke:#000000;stroke-width:1.0;"/><line style="stroke:#000000;stroke-width:1.0;" x1="125.5" x2="361.5" y1="315.875" y2="315.875"/><text fill="#000000" font-family="sans-serif" font-size="17" lengthAdjust="spacing" textLength="168" x="132.5" y="270.2876">FHIR Ressourcen im</text><text fill="#000000" font-family="sans-serif" font-size="17" lengthAdjust="spacing" textLength="166" x="132.5" y="290.0767">VZD-FHIR-Directory</text><text fill="#000000" font-family="sans-serif" font-size="17" lengthAdjust="spacing" textLength="94" x="132.5" y="309.8657">hinzuf&#252;gen</text><line style="stroke:#000000;stroke-width:1.0;" x1="377.5" x2="419.5" y1="389.2422" y2="389.2422"/><line style="stroke:#000000;stroke-width:1.0;" x1="419.5" x2="419.5" y1="389.2422" y2="402.2422"/><line style="stroke:#000000;stroke-width:1.0;" x1="378.5" x2="419.5" y1="402.2422" y2="402.2422"/><polygon fill="#000000" points="388.5,398.2422,378.5,402.2422,388.5,406.2422,384.5,402.2422" style="stroke:#000000;stroke-width:1.0;"/><text fill="#000000" font-family="sans-serif" font-size="17" lengthAdjust="spacing" textLength="167" x="384.5" y="343.6548">Pr&#252;fung, ob g&#252;ltiges</text><text fill="#000000" font-family="sans-serif" font-size="17" lengthAdjust="spacing" textLength="159" x="384.5" y="363.4438">owner-accesstoken</text><text fill="#000000" font-family="sans-serif" font-size="17" lengthAdjust="spacing" textLength="64" x="384.5" y="383.2329">vorliegt</text><path d="M10,442.2422 L74,442.2422 L74,449.375 L64,459.375 L10,459.375 L10,442.2422 " fill="#D3D3D3" style="stroke:#000000;stroke-width:1.5;"/><rect fill="none" height="1040.2734" style="stroke:#000000;stroke-width:1.5;" width="1832.5" x="10" y="442.2422"/><text fill="#000000" font-family="sans-serif" font-size="13" font-weight="bold" lengthAdjust="spacing" textLength="19" x="25" y="455.3091">alt</text><text fill="#000000" font-family="sans-serif" font-size="11" font-weight="bold" lengthAdjust="spacing" textLength="5" x="89" y="460.2729">[</text><text fill="#000000" font-family="sans-serif" font-size="16" font-weight="bold" lengthAdjust="spacing" textLength="395" x="94" y="459.0938">kein g&#252;ltiges owner-accesstoken vorhanden</text><text fill="#000000" font-family="sans-serif" font-size="11" font-weight="bold" lengthAdjust="spacing" textLength="5" x="489" y="460.2729">]</text><path d="M20,495 L84,495 L84,502.1328 L74,512.1328 L20,512.1328 L20,495 " fill="#D3D3D3" style="stroke:#000000;stroke-width:1.5;"/><rect fill="none" height="335.5313" style="stroke:#000000;stroke-width:1.5;" width="1812.5" x="20" y="495"/><text fill="#000000" font-family="sans-serif" font-size="13" font-weight="bold" lengthAdjust="spacing" textLength="19" x="35" y="508.0669">alt</text><text fill="#000000" font-family="sans-serif" font-size="11" font-weight="bold" lengthAdjust="spacing" textLength="5" x="99" y="513.0308">[</text><text fill="#000000" font-family="sans-serif" font-size="16" font-weight="bold" lengthAdjust="spacing" textLength="481" x="104" y="511.8516">Akteur ist nicht am Registrierungs-Dienst angemeldet</text><text fill="#000000" font-family="sans-serif" font-size="11" font-weight="bold" lengthAdjust="spacing" textLength="5" x="585" y="513.0308">]</text><polygon fill="#000000" points="355.5,602.125,365.5,606.125,355.5,610.125,359.5,606.125" style="stroke:#000000;stroke-width:1.0;"/><line style="stroke:#000000;stroke-width:1.0;" x1="125.5" x2="361.5" y1="606.125" y2="606.125"/><text fill="#000000" font-family="sans-serif" font-size="17" lengthAdjust="spacing" textLength="158" x="132.5" y="560.5376">Mit Admin-Account</text><text fill="#000000" font-family="sans-serif" font-size="17" lengthAdjust="spacing" textLength="213" x="132.5" y="580.3267">am Registrierungs-Dienst</text><text fill="#000000" font-family="sans-serif" font-size="17" lengthAdjust="spacing" textLength="84" x="132.5" y="600.1157">anmelden</text><polygon fill="#000000" points="1552.5,647.6445,1562.5,651.6445,1552.5,655.6445,1556.5,651.6445" style="stroke:#000000;stroke-width:1.0;"/><line style="stroke:#000000;stroke-width:1.0;" x1="377.5" x2="1558.5" y1="651.6445" y2="651.6445"/><text fill="#000000" font-family="sans-serif" font-size="17" lengthAdjust="spacing" textLength="329" x="384.5" y="645.6353">Login mit Client-Credentials + 2.Faktor</text><path d="M1579,619.125 L1579,666.125 L1827,666.125 L1827,629.125 L1817,619.125 L1579,619.125 " fill="#FEFFDD" style="stroke:#181818;stroke-width:0.5;"/><path d="M1817,619.125 L1817,629.125 L1827,629.125 L1817,619.125 " fill="#FEFFDD" style="stroke:#181818;stroke-width:0.5;"/><text fill="#000000" font-family="sans-serif" font-size="16" lengthAdjust="spacing" textLength="174" x="1585" y="638.9766">Schnittstelle wird nicht</text><text fill="#000000" font-family="sans-serif" font-size="16" lengthAdjust="spacing" textLength="227" x="1585" y="657.6016">durch die gematik spezifiziert</text><line style="stroke:#000000;stroke-width:1.0;" x1="1574.5" x2="1616.5" y1="716.9531" y2="716.9531"/><line style="stroke:#000000;stroke-width:1.0;" x1="1616.5" x2="1616.5" y1="716.9531" y2="729.9531"/><line style="stroke:#000000;stroke-width:1.0;" x1="1575.5" x2="1616.5" y1="729.9531" y2="729.9531"/><polygon fill="#000000" points="1585.5,725.9531,1575.5,729.9531,1585.5,733.9531,1581.5,729.9531" style="stroke:#000000;stroke-width:1.0;"/><text fill="#000000" font-family="sans-serif" font-size="17" lengthAdjust="spacing" textLength="200" x="1581.5" y="691.1548">pr&#252;fe Client-Credentials</text><text fill="#000000" font-family="sans-serif" font-size="17" lengthAdjust="spacing" textLength="112" x="1581.5" y="710.9438">und 2. Faktor</text><polygon fill="#000000" points="388.5,759.7422,378.5,763.7422,388.5,767.7422,384.5,763.7422" style="stroke:#000000;stroke-width:1.0;"/><line style="stroke:#000000;stroke-width:1.0;stroke-dasharray:2.0,2.0;" x1="382.5" x2="1568.5" y1="763.7422" y2="763.7422"/><text fill="#000000" font-family="sans-serif" font-size="17" lengthAdjust="spacing" textLength="51" x="1511.5" y="757.7329">status</text><polygon fill="#000000" points="136.5,793.5313,126.5,797.5313,136.5,801.5313,132.5,797.5313" style="stroke:#000000;stroke-width:1.0;"/><line style="stroke:#000000;stroke-width:1.0;stroke-dasharray:2.0,2.0;" x1="130.5" x2="366.5" y1="797.5313" y2="797.5313"/><text fill="#000000" font-family="sans-serif" font-size="17" lengthAdjust="spacing" textLength="195" x="165.5" y="791.522">Erfolgreich angemeldet</text><polygon fill="#000000" points="1552.5,896.0508,1562.5,900.0508,1552.5,904.0508,1556.5,900.0508" style="stroke:#000000;stroke-width:1.0;"/><line style="stroke:#000000;stroke-width:1.0;" x1="377.5" x2="1558.5" y1="900.0508" y2="900.0508"/><text fill="#000000" font-family="sans-serif" font-size="17" lengthAdjust="spacing" textLength="594" x="384.5" y="894.0415">RegService-OpenID-Token anfragen (z. B. GET /regserv/request_Token)</text><path d="M1579,867.5313 L1579,914.5313 L1827,914.5313 L1827,877.5313 L1817,867.5313 L1579,867.5313 " fill="#FEFFDD" style="stroke:#181818;stroke-width:0.5;"/><path d="M1817,867.5313 L1817,877.5313 L1827,877.5313 L1817,867.5313 " fill="#FEFFDD" style="stroke:#181818;stroke-width:0.5;"/><text fill="#000000" font-family="sans-serif" font-size="16" lengthAdjust="spacing" textLength="174" x="1585" y="887.3828">Schnittstelle wird nicht</text><text fill="#000000" font-family="sans-serif" font-size="16" lengthAdjust="spacing" textLength="227" x="1585" y="906.0078">durch die gematik spezifiziert</text><line style="stroke:#000000;stroke-width:1.0;" x1="1574.5" x2="1616.5" y1="965.3594" y2="965.3594"/><line style="stroke:#000000;stroke-width:1.0;" x1="1616.5" x2="1616.5" y1="965.3594" y2="978.3594"/><line style="stroke:#000000;stroke-width:1.0;" x1="1575.5" x2="1616.5" y1="978.3594" y2="978.3594"/><polygon fill="#000000" points="1585.5,974.3594,1575.5,978.3594,1585.5,982.3594,1581.5,978.3594" style="stroke:#000000;stroke-width:1.0;"/><text fill="#000000" font-family="sans-serif" font-size="17" lengthAdjust="spacing" textLength="139" x="1581.5" y="939.561">Verifizierung des</text><text fill="#000000" font-family="sans-serif" font-size="17" lengthAdjust="spacing" textLength="190" x="1581.5" y="959.3501">angemeldeten Akteurs</text><polygon fill="#000000" points="388.5,1008.1484,378.5,1012.1484,388.5,1016.1484,384.5,1012.1484" style="stroke:#000000;stroke-width:1.0;"/><line style="stroke:#000000;stroke-width:1.0;stroke-dasharray:2.0,2.0;" x1="382.5" x2="1568.5" y1="1012.1484" y2="1012.1484"/><text fill="#000000" font-family="sans-serif" font-size="17" lengthAdjust="spacing" textLength="678" x="884.5" y="1006.1392">RegService-OpenID-Token {telematikID, professionOID, Signaturzertifikat (x5c)}</text><polygon fill="#000000" points="1072.5,1066.9375,1082.5,1070.9375,1072.5,1074.9375,1076.5,1070.9375" style="stroke:#000000;stroke-width:1.0;"/><line style="stroke:#000000;stroke-width:1.0;" x1="377.5" x2="1078.5" y1="1070.9375" y2="1070.9375"/><text fill="#000000" font-family="sans-serif" font-size="17" lengthAdjust="spacing" textLength="593" x="384.5" y="1064.9282">GET /owner-authenticate (Auth Header mit RegService-OpenID-Token)</text><line style="stroke:#000000;stroke-width:1.0;" x1="1094.5" x2="1136.5" y1="1144.2695" y2="1144.2695"/><line style="stroke:#000000;stroke-width:1.0;" x1="1136.5" x2="1136.5" y1="1144.2695" y2="1157.2695"/><line style="stroke:#000000;stroke-width:1.0;" x1="1095.5" x2="1136.5" y1="1157.2695" y2="1157.2695"/><polygon fill="#000000" points="1105.5,1153.2695,1095.5,1157.2695,1105.5,1161.2695,1101.5,1157.2695" style="stroke:#000000;stroke-width:1.0;"/><text fill="#000000" font-family="sans-serif" font-size="17" lengthAdjust="spacing" textLength="155" x="1101.5" y="1138.2603">Pr&#252;fung des Token</text><path d="M1268,1108.9375 L1268,1173.9375 L1534,1173.9375 L1534,1118.9375 L1524,1108.9375 L1268,1108.9375 " fill="#FEFFDD" style="stroke:#181818;stroke-width:0.5;"/><path d="M1524,1108.9375 L1524,1118.9375 L1534,1118.9375 L1524,1108.9375 " fill="#FEFFDD" style="stroke:#181818;stroke-width:0.5;"/><text fill="#000000" font-family="sans-serif" font-size="16" lengthAdjust="spacing" textLength="189" x="1274" y="1128.7891">Die Pr&#252;fschritte sind der</text><text fill="#000000" font-family="sans-serif" font-size="16" lengthAdjust="spacing" textLength="240" x="1274" y="1147.4141">gemSpec_VZD_FHIR_Directory</text><text fill="#000000" font-family="sans-serif" font-size="16" lengthAdjust="spacing" textLength="112" x="1274" y="1166.0391">zu entnehmen</text><path d="M20,1211.8125 L90,1211.8125 L90,1218.9453 L80,1228.9453 L20,1228.9453 L20,1211.8125 " fill="#D3D3D3" style="stroke:#000000;stroke-width:1.5;"/><rect fill="none" height="113.3359" style="stroke:#000000;stroke-width:1.5;" width="1186.5" x="20" y="1211.8125"/><text fill="#000000" font-family="sans-serif" font-size="13" font-weight="bold" lengthAdjust="spacing" textLength="25" x="35" y="1224.8794">opt</text><text fill="#000000" font-family="sans-serif" font-size="11" font-weight="bold" lengthAdjust="spacing" textLength="5" x="105" y="1229.8433">[</text><text fill="#000000" font-family="sans-serif" font-size="16" font-weight="bold" lengthAdjust="spacing" textLength="74" x="110" y="1228.6641">Abbruch</text><text fill="#000000" font-family="sans-serif" font-size="11" font-weight="bold" lengthAdjust="spacing" textLength="5" x="184" y="1229.8433">]</text><polygon fill="#000000" points="388.5,1254.3594,378.5,1258.3594,388.5,1262.3594,384.5,1258.3594" style="stroke:#000000;stroke-width:1.0;"/><line style="stroke:#000000;stroke-width:1.0;stroke-dasharray:2.0,2.0;" x1="382.5" x2="1083.5" y1="1258.3594" y2="1258.3594"/><text fill="#000000" font-family="sans-serif" font-size="17" lengthAdjust="spacing" textLength="247" x="830.5" y="1252.3501">Tokenpr&#252;fung fehlgeschlagen</text><polygon fill="#000000" points="136.5,1288.1484,126.5,1292.1484,136.5,1296.1484,132.5,1292.1484" style="stroke:#000000;stroke-width:1.0;"/><line style="stroke:#000000;stroke-width:1.0;stroke-dasharray:2.0,2.0;" x1="130.5" x2="366.5" y1="1292.1484" y2="1292.1484"/><text fill="#000000" font-family="sans-serif" font-size="17" lengthAdjust="spacing" textLength="163" x="197.5" y="1286.1392">keine Berechtigung</text><line style="stroke:#000000;stroke-width:1.0;" x1="1094.5" x2="1136.5" y1="1402.7266" y2="1402.7266"/><line style="stroke:#000000;stroke-width:1.0;" x1="1136.5" x2="1136.5" y1="1402.7266" y2="1415.7266"/><line style="stroke:#000000;stroke-width:1.0;" x1="1095.5" x2="1136.5" y1="1415.7266" y2="1415.7266"/><polygon fill="#000000" points="1105.5,1411.7266,1095.5,1415.7266,1105.5,1419.7266,1101.5,1415.7266" style="stroke:#000000;stroke-width:1.0;"/><text fill="#000000" font-family="sans-serif" font-size="17" lengthAdjust="spacing" textLength="66" x="1101.5" y="1376.9282">erzeuge</text><text fill="#000000" font-family="sans-serif" font-size="17" lengthAdjust="spacing" textLength="159" x="1101.5" y="1396.7173">owner-accesstoken</text><polygon fill="#000000" points="388.5,1445.5156,378.5,1449.5156,388.5,1453.5156,384.5,1449.5156" style="stroke:#000000;stroke-width:1.0;"/><line style="stroke:#000000;stroke-width:1.0;stroke-dasharray:2.0,2.0;" x1="382.5" x2="1088.5" y1="1449.5156" y2="1449.5156"/><text fill="#000000" font-family="sans-serif" font-size="17" lengthAdjust="spacing" textLength="159" x="923.5" y="1443.5063">owner-accesstoken</text><path d="M20,1521.5156 L347,1521.5156 L347,1532.1406 L337,1542.1406 L20,1542.1406 L20,1521.5156 " fill="#EEEEEE" style="stroke:#000000;stroke-width:1.5;"/><rect fill="none" height="835.2891" style="stroke:#000000;stroke-width:1.5;" width="1483.5" x="20" y="1521.5156"/><text fill="#000000" font-family="sans-serif" font-size="16" font-weight="bold" lengthAdjust="spacing" textLength="282" x="35" y="1537.3672">FHIR-Directory Eintrag erstellen</text><path d="M255.5,1574.1406 L679.5,1574.1406 L679.5,1584.7656 L669.5,1594.7656 L255.5,1594.7656 L255.5,1574.1406 " fill="#EEEEEE" style="stroke:#000000;stroke-width:1.5;"/><rect fill="none" height="338.9375" style="stroke:#000000;stroke-width:1.5;" width="1207" x="255.5" y="1574.1406"/><text fill="#000000" font-family="sans-serif" font-size="16" font-weight="bold" lengthAdjust="spacing" textLength="379" x="270.5" y="1589.9922">FHIR-Ressource der Organisation anzeigen</text><polygon fill="#000000" points="848.5,1661.3438,858.5,1665.3438,848.5,1669.3438,852.5,1665.3438" style="stroke:#000000;stroke-width:1.0;"/><line style="stroke:#000000;stroke-width:1.0;" x1="377.5" x2="854.5" y1="1665.3438" y2="1665.3438"/><text fill="#000000" font-family="sans-serif" font-size="17" lengthAdjust="spacing" textLength="423" x="384.5" y="1639.5454">FHIR-Operation um eigenen Datensatz anzuzeigen</text><text fill="#000000" font-family="sans-serif" font-size="17" lengthAdjust="spacing" textLength="338" x="384.5" y="1659.3345">Authorization Bearer owner-accesstoken</text><line style="stroke:#000000;stroke-width:1.0;" x1="870.5" x2="912.5" y1="1718.9219" y2="1718.9219"/><line style="stroke:#000000;stroke-width:1.0;" x1="912.5" x2="912.5" y1="1718.9219" y2="1731.9219"/><line style="stroke:#000000;stroke-width:1.0;" x1="871.5" x2="912.5" y1="1731.9219" y2="1731.9219"/><polygon fill="#000000" points="881.5,1727.9219,871.5,1731.9219,881.5,1735.9219,877.5,1731.9219" style="stroke:#000000;stroke-width:1.0;"/><text fill="#000000" font-family="sans-serif" font-size="17" lengthAdjust="spacing" textLength="44" x="877.5" y="1693.1235">pr&#252;fe</text><text fill="#000000" font-family="sans-serif" font-size="17" lengthAdjust="spacing" textLength="159" x="877.5" y="1712.9126">owner-accesstoken</text><polygon fill="#000000" points="1296.5,1761.7109,1306.5,1765.7109,1296.5,1769.7109,1300.5,1765.7109" style="stroke:#000000;stroke-width:1.0;"/><line style="stroke:#000000;stroke-width:1.0;" x1="870.5" x2="1302.5" y1="1765.7109" y2="1765.7109"/><text fill="#000000" font-family="sans-serif" font-size="17" lengthAdjust="spacing" textLength="128" x="877.5" y="1759.7017">HTTPS Forward</text><line style="stroke:#000000;stroke-width:1.0;" x1="1318.5" x2="1360.5" y1="1799.5" y2="1799.5"/><line style="stroke:#000000;stroke-width:1.0;" x1="1360.5" x2="1360.5" y1="1799.5" y2="1812.5"/><line style="stroke:#000000;stroke-width:1.0;" x1="1319.5" x2="1360.5" y1="1812.5" y2="1812.5"/><polygon fill="#000000" points="1329.5,1808.5,1319.5,1812.5,1329.5,1816.5,1325.5,1812.5" style="stroke:#000000;stroke-width:1.0;"/><text fill="#000000" font-family="sans-serif" font-size="17" lengthAdjust="spacing" textLength="125" x="1325.5" y="1793.4907">Eintrag suchen</text><polygon fill="#000000" points="881.5,1842.2891,871.5,1846.2891,881.5,1850.2891,877.5,1846.2891" style="stroke:#000000;stroke-width:1.0;"/><line style="stroke:#000000;stroke-width:1.0;stroke-dasharray:2.0,2.0;" x1="875.5" x2="1312.5" y1="1846.2891" y2="1846.2891"/><text fill="#000000" font-family="sans-serif" font-size="17" lengthAdjust="spacing" textLength="105" x="1201.5" y="1840.2798">FHIR Bundle</text><polygon fill="#000000" points="388.5,1876.0781,378.5,1880.0781,388.5,1884.0781,384.5,1880.0781" style="stroke:#000000;stroke-width:1.0;"/><line style="stroke:#000000;stroke-width:1.0;stroke-dasharray:2.0,2.0;" x1="382.5" x2="864.5" y1="1880.0781" y2="1880.0781"/><text fill="#000000" font-family="sans-serif" font-size="17" lengthAdjust="spacing" textLength="128" x="730.5" y="1874.0688">HTTPS Forward</text><path d="M255.5,1952.0781 L747.5,1952.0781 L747.5,1962.7031 L737.5,1972.7031 L255.5,1972.7031 L255.5,1952.0781 " fill="#EEEEEE" style="stroke:#000000;stroke-width:1.5;"/><rect fill="none" height="338.9375" style="stroke:#000000;stroke-width:1.5;" width="1238" x="255.5" y="1952.0781"/><text fill="#000000" font-family="sans-serif" font-size="16" font-weight="bold" lengthAdjust="spacing" textLength="447" x="270.5" y="1967.9297">FHIR-Ressource der Organisation erstellen/&#228;ndern</text><polygon fill="#000000" points="848.5,2039.2813,858.5,2043.2813,848.5,2047.2813,852.5,2043.2813" style="stroke:#000000;stroke-width:1.0;"/><line style="stroke:#000000;stroke-width:1.0;" x1="377.5" x2="854.5" y1="2043.2813" y2="2043.2813"/><text fill="#000000" font-family="sans-serif" font-size="17" lengthAdjust="spacing" textLength="464" x="384.5" y="2017.4829">FHIR-Operationen um eigenen Datensatz zu bearbeiten</text><text fill="#000000" font-family="sans-serif" font-size="17" lengthAdjust="spacing" textLength="338" x="384.5" y="2037.272">Authorization Bearer owner-accesstoken</text><line style="stroke:#000000;stroke-width:1.0;" x1="870.5" x2="912.5" y1="2096.8594" y2="2096.8594"/><line style="stroke:#000000;stroke-width:1.0;" x1="912.5" x2="912.5" y1="2096.8594" y2="2109.8594"/><line style="stroke:#000000;stroke-width:1.0;" x1="871.5" x2="912.5" y1="2109.8594" y2="2109.8594"/><polygon fill="#000000" points="881.5,2105.8594,871.5,2109.8594,881.5,2113.8594,877.5,2109.8594" style="stroke:#000000;stroke-width:1.0;"/><text fill="#000000" font-family="sans-serif" font-size="17" lengthAdjust="spacing" textLength="44" x="877.5" y="2071.061">pr&#252;fe</text><text fill="#000000" font-family="sans-serif" font-size="17" lengthAdjust="spacing" textLength="159" x="877.5" y="2090.8501">owner-accesstoken</text><polygon fill="#000000" points="1296.5,2139.6484,1306.5,2143.6484,1296.5,2147.6484,1300.5,2143.6484" style="stroke:#000000;stroke-width:1.0;"/><line style="stroke:#000000;stroke-width:1.0;" x1="870.5" x2="1302.5" y1="2143.6484" y2="2143.6484"/><text fill="#000000" font-family="sans-serif" font-size="17" lengthAdjust="spacing" textLength="128" x="877.5" y="2137.6392">HTTPS Forward</text><line style="stroke:#000000;stroke-width:1.0;" x1="1318.5" x2="1360.5" y1="2177.4375" y2="2177.4375"/><line style="stroke:#000000;stroke-width:1.0;" x1="1360.5" x2="1360.5" y1="2177.4375" y2="2190.4375"/><line style="stroke:#000000;stroke-width:1.0;" x1="1319.5" x2="1360.5" y1="2190.4375" y2="2190.4375"/><polygon fill="#000000" points="1329.5,2186.4375,1319.5,2190.4375,1329.5,2194.4375,1325.5,2190.4375" style="stroke:#000000;stroke-width:1.0;"/><text fill="#000000" font-family="sans-serif" font-size="17" lengthAdjust="spacing" textLength="156" x="1325.5" y="2171.4282">Eintrag bearbeiten</text><polygon fill="#000000" points="881.5,2220.2266,871.5,2224.2266,881.5,2228.2266,877.5,2224.2266" style="stroke:#000000;stroke-width:1.0;"/><line style="stroke:#000000;stroke-width:1.0;stroke-dasharray:2.0,2.0;" x1="875.5" x2="1312.5" y1="2224.2266" y2="2224.2266"/><text fill="#000000" font-family="sans-serif" font-size="17" lengthAdjust="spacing" textLength="54" x="1252.5" y="2218.2173">Status</text><polygon fill="#000000" points="388.5,2254.0156,378.5,2258.0156,388.5,2262.0156,384.5,2258.0156" style="stroke:#000000;stroke-width:1.0;"/><line style="stroke:#000000;stroke-width:1.0;stroke-dasharray:2.0,2.0;" x1="382.5" x2="864.5" y1="2258.0156" y2="2258.0156"/><text fill="#000000" font-family="sans-serif" font-size="17" lengthAdjust="spacing" textLength="128" x="730.5" y="2252.0063">HTTPS Forward</text><polygon fill="#000000" points="136.5,2319.8047,126.5,2323.8047,136.5,2327.8047,132.5,2323.8047" style="stroke:#000000;stroke-width:1.0;"/><line style="stroke:#000000;stroke-width:1.0;stroke-dasharray:2.0,2.0;" x1="130.5" x2="366.5" y1="2323.8047" y2="2323.8047"/><text fill="#000000" font-family="sans-serif" font-size="17" lengthAdjust="spacing" textLength="51" x="309.5" y="2317.7954">status</text></g></svg>