<?xml version="1.0" encoding="us-ascii" standalone="no"?><svg xmlns="http://www.w3.org/2000/svg" xmlns:xlink="http://www.w3.org/1999/xlink" contentStyleType="text/css" height="2165px" preserveAspectRatio="none" style="width:2041px;height:2165px;background:#FFFFFF;" version="1.1" viewBox="0 0 2041 2165" width="2041px" zoomAndPan="magnify"><defs/><g><rect fill="#F5F5F5" height="2153.1641" style="stroke:#181818;stroke-width:0.5;" width="493" x="220" y="6"/><text fill="#000000" font-family="sans-serif" font-size="18" font-weight="bold" lengthAdjust="spacing" textLength="93" x="417.5" y="22.708">Endger&#228;t</text><text fill="#000000" font-family="sans-serif" font-size="13" font-weight="bold" lengthAdjust="spacing" textLength="5" x="510.5" y="23.8872">&#160;</text><rect fill="#F5F5F5" height="2153.1641" style="stroke:#181818;stroke-width:0.5;" width="759" x="1260" y="6"/><text fill="#000000" font-family="sans-serif" font-size="18" font-weight="bold" lengthAdjust="spacing" textLength="200" x="1537" y="22.708">VZD-FHIR-Directory</text><text fill="#000000" font-family="sans-serif" font-size="13" font-weight="bold" lengthAdjust="spacing" textLength="5" x="1737" y="23.8872">&#160;</text><rect fill="#DCDCDC" height="1667.6172" style="stroke:#000000;stroke-width:1.0;" width="10" x="326" y="306.9844"/><rect fill="#DCDCDC" height="256.3125" style="stroke:#000000;stroke-width:1.0;" width="10" x="597" y="639.0547"/><rect fill="#DCDCDC" height="33.7891" style="stroke:#000000;stroke-width:1.0;" width="10" x="917" y="740.4219"/><rect fill="#DCDCDC" height="168.9453" style="stroke:#000000;stroke-width:1.0;" width="10" x="1141" y="672.8438"/><rect fill="#DCDCDC" height="33.7891" style="stroke:#000000;stroke-width:1.0;" width="10" x="1141" y="1012.9453"/><rect fill="#DCDCDC" height="167.9453" style="stroke:#000000;stroke-width:1.0;" width="10" x="1366" y="1409.7188"/><rect fill="#DCDCDC" height="167.9453" style="stroke:#000000;stroke-width:1.0;" width="10" x="1366" y="1740.8672"/><rect fill="#DCDCDC" height="100.3672" style="stroke:#000000;stroke-width:1.0;" width="10" x="1590" y="504.8984"/><rect fill="#DCDCDC" height="239.7344" style="stroke:#000000;stroke-width:1.0;" width="10" x="1590" y="954.1563"/><rect fill="#DCDCDC" height="33.7891" style="stroke:#000000;stroke-width:1.0;" width="10" x="1903" y="1510.0859"/><rect fill="#DCDCDC" height="33.7891" style="stroke:#000000;stroke-width:1.0;" width="10" x="1903" y="1841.2344"/><rect fill="#F0F8FF" height="793.5391" style="stroke:#000000;stroke-width:1.5;" width="1694" x="214" y="433.3516"/><rect fill="none" height="741.7109" style="stroke:#000000;stroke-width:1.5;" width="2025" x="10" y="1265.8906"/><rect fill="none" height="292.1484" style="stroke:#000000;stroke-width:1.5;" width="1811" x="214" y="1318.5156"/><rect fill="none" height="292.1484" style="stroke:#000000;stroke-width:1.5;" width="1811" x="214" y="1649.6641"/><line style="stroke:#000000;stroke-width:0.5;stroke-dasharray:5.0,5.0;" x1="116" x2="116" y1="111.5625" y2="2049.6016"/><line style="stroke:#000000;stroke-width:0.5;stroke-dasharray:5.0,5.0;" x1="331" x2="331" y1="111.5625" y2="2049.6016"/><line style="stroke:#000000;stroke-width:0.5;stroke-dasharray:5.0,5.0;" x1="602" x2="602" y1="111.5625" y2="2049.6016"/><line style="stroke:#000000;stroke-width:0.5;stroke-dasharray:5.0,5.0;" x1="922" x2="922" y1="111.5625" y2="2049.6016"/><line style="stroke:#000000;stroke-width:0.5;stroke-dasharray:5.0,5.0;" x1="1146" x2="1146" y1="111.5625" y2="2049.6016"/><line style="stroke:#000000;stroke-width:0.5;stroke-dasharray:5.0,5.0;" x1="1371" x2="1371" y1="111.5625" y2="2049.6016"/><line style="stroke:#000000;stroke-width:0.5;stroke-dasharray:5.0,5.0;" x1="1595" x2="1595" y1="111.5625" y2="2049.6016"/><line style="stroke:#000000;stroke-width:0.5;stroke-dasharray:5.0,5.0;" x1="1908" x2="1908" y1="111.5625" y2="2049.6016"/><text fill="#000000" font-family="sans-serif" font-size="20" lengthAdjust="spacing" textLength="187" x="20" y="83.5645">Akteur in der Rolle</text><text fill="#000000" font-family="sans-serif" font-size="20" lengthAdjust="spacing" textLength="95" x="66" y="106.8457">User-HBA</text><ellipse cx="116.5" cy="13.5" fill="#DCDCDC" rx="8" ry="8" style="stroke:#000000;stroke-width:0.5;"/><path d="M116.5,21.5 L116.5,48.5 M103.5,29.5 L129.5,29.5 M116.5,48.5 L103.5,63.5 M116.5,48.5 L129.5,63.5 " fill="none" style="stroke:#000000;stroke-width:0.5;"/><text fill="#000000" font-family="sans-serif" font-size="20" lengthAdjust="spacing" textLength="187" x="20" y="2067.166">Akteur in der Rolle</text><text fill="#000000" font-family="sans-serif" font-size="20" lengthAdjust="spacing" textLength="95" x="66" y="2090.4473">User-HBA</text><ellipse cx="116.5" cy="2103.6641" fill="#DCDCDC" rx="8" ry="8" style="stroke:#000000;stroke-width:0.5;"/><path d="M116.5,2111.6641 L116.5,2138.6641 M103.5,2119.6641 L129.5,2119.6641 M116.5,2138.6641 L103.5,2153.6641 M116.5,2138.6641 L129.5,2153.6641 " fill="none" style="stroke:#000000;stroke-width:0.5;"/><rect fill="#EFEFFF" height="37.2813" rx="2.5" ry="2.5" style="stroke:#000000;stroke-width:0.5;" width="214" x="224" y="73.2813"/><text fill="#000000" font-family="sans-serif" font-size="20" lengthAdjust="spacing" textLength="198" x="232" y="98.8457">TI-Messenger-Client</text><rect fill="#EFEFFF" height="37.2813" rx="2.5" ry="2.5" style="stroke:#000000;stroke-width:0.5;" width="214" x="224" y="2048.6016"/><text fill="#000000" font-family="sans-serif" font-size="20" lengthAdjust="spacing" textLength="198" x="232" y="2074.166">TI-Messenger-Client</text><rect fill="#EFEFFF" height="37.2813" rx="2.5" ry="2.5" style="stroke:#000000;stroke-width:0.5;" width="214" x="495" y="73.2813"/><text fill="#000000" font-family="sans-serif" font-size="20" lengthAdjust="spacing" textLength="138" x="533" y="98.8457">Authenticator</text><rect fill="#EFEFFF" height="37.2813" rx="2.5" ry="2.5" style="stroke:#000000;stroke-width:0.5;" width="214" x="495" y="2048.6016"/><text fill="#000000" font-family="sans-serif" font-size="20" lengthAdjust="spacing" textLength="138" x="533" y="2074.166">Authenticator</text><rect fill="#EFEFFF" height="37.2813" rx="2.5" ry="2.5" style="stroke:#000000;stroke-width:0.5;" width="214" x="815" y="73.2813"/><text fill="#000000" font-family="sans-serif" font-size="20" lengthAdjust="spacing" textLength="103" x="870.5" y="98.8457">Konnektor</text><rect fill="#EFEFFF" height="37.2813" rx="2.5" ry="2.5" style="stroke:#000000;stroke-width:0.5;" width="214" x="815" y="2048.6016"/><text fill="#000000" font-family="sans-serif" font-size="20" lengthAdjust="spacing" textLength="103" x="870.5" y="2074.166">Konnektor</text><rect fill="#EFEFFF" height="37.2813" rx="2.5" ry="2.5" style="stroke:#000000;stroke-width:0.5;" width="214" x="1039" y="73.2813"/><text fill="#000000" font-family="sans-serif" font-size="20" lengthAdjust="spacing" textLength="200" x="1046" y="98.8457">zentraler IDP-Dienst</text><rect fill="#EFEFFF" height="37.2813" rx="2.5" ry="2.5" style="stroke:#000000;stroke-width:0.5;" width="214" x="1039" y="2048.6016"/><text fill="#000000" font-family="sans-serif" font-size="20" lengthAdjust="spacing" textLength="200" x="1046" y="2074.166">zentraler IDP-Dienst</text><rect fill="#EFEFFF" height="37.2813" rx="2.5" ry="2.5" style="stroke:#000000;stroke-width:0.5;" width="214" x="1264" y="73.2813"/><text fill="#000000" font-family="sans-serif" font-size="20" lengthAdjust="spacing" textLength="108" x="1317" y="98.8457">FHIR-Proxy</text><rect fill="#EFEFFF" height="37.2813" rx="2.5" ry="2.5" style="stroke:#000000;stroke-width:0.5;" width="214" x="1264" y="2048.6016"/><text fill="#000000" font-family="sans-serif" font-size="20" lengthAdjust="spacing" textLength="108" x="1317" y="2074.166">FHIR-Proxy</text><rect fill="#EFEFFF" height="37.2813" rx="2.5" ry="2.5" style="stroke:#000000;stroke-width:0.5;" width="214" x="1488" y="73.2813"/><text fill="#000000" font-family="sans-serif" font-size="20" lengthAdjust="spacing" textLength="128" x="1531" y="98.8457">Auth-Service</text><rect fill="#EFEFFF" height="37.2813" rx="2.5" ry="2.5" style="stroke:#000000;stroke-width:0.5;" width="214" x="1488" y="2048.6016"/><text fill="#000000" font-family="sans-serif" font-size="20" lengthAdjust="spacing" textLength="128" x="1531" y="2074.166">Auth-Service</text><rect fill="#EFEFFF" height="37.2813" rx="2.5" ry="2.5" style="stroke:#000000;stroke-width:0.5;" width="214" x="1801" y="73.2813"/><text fill="#000000" font-family="sans-serif" font-size="20" lengthAdjust="spacing" textLength="145" x="1835.5" y="98.8457">FHIR-Directory</text><rect fill="#EFEFFF" height="37.2813" rx="2.5" ry="2.5" style="stroke:#000000;stroke-width:0.5;" width="214" x="1801" y="2048.6016"/><text fill="#000000" font-family="sans-serif" font-size="20" lengthAdjust="spacing" textLength="145" x="1835.5" y="2074.166">FHIR-Directory</text><rect fill="#DCDCDC" height="1667.6172" style="stroke:#000000;stroke-width:1.0;" width="10" x="326" y="306.9844"/><rect fill="#DCDCDC" height="256.3125" style="stroke:#000000;stroke-width:1.0;" width="10" x="597" y="639.0547"/><rect fill="#DCDCDC" height="33.7891" style="stroke:#000000;stroke-width:1.0;" width="10" x="917" y="740.4219"/><rect fill="#DCDCDC" height="168.9453" style="stroke:#000000;stroke-width:1.0;" width="10" x="1141" y="672.8438"/><rect fill="#DCDCDC" height="33.7891" style="stroke:#000000;stroke-width:1.0;" width="10" x="1141" y="1012.9453"/><rect fill="#DCDCDC" height="167.9453" style="stroke:#000000;stroke-width:1.0;" width="10" x="1366" y="1409.7188"/><rect fill="#DCDCDC" height="167.9453" style="stroke:#000000;stroke-width:1.0;" width="10" x="1366" y="1740.8672"/><rect fill="#DCDCDC" height="100.3672" style="stroke:#000000;stroke-width:1.0;" width="10" x="1590" y="504.8984"/><rect fill="#DCDCDC" height="239.7344" style="stroke:#000000;stroke-width:1.0;" width="10" x="1590" y="954.1563"/><rect fill="#DCDCDC" height="33.7891" style="stroke:#000000;stroke-width:1.0;" width="10" x="1903" y="1510.0859"/><rect fill="#DCDCDC" height="33.7891" style="stroke:#000000;stroke-width:1.0;" width="10" x="1903" y="1841.2344"/><path d="M17,151.5625 L17,211.5625 L1245,211.5625 L1245,161.5625 L1235,151.5625 L17,151.5625 " fill="#FEFFDD" style="stroke:#181818;stroke-width:0.5;"/><path d="M1235,151.5625 L1235,161.5625 L1245,161.5625 L1235,151.5625 " fill="#FEFFDD" style="stroke:#181818;stroke-width:0.5;"/><text fill="#000000" font-family="sans-serif" font-size="13" lengthAdjust="spacing" textLength="4" x="315.5" y="168.6294">&#160;</text><text fill="#000000" font-family="sans-serif" font-size="17" lengthAdjust="spacing" textLength="622" x="315.5" y="187.4751">Der Akteur ist bei einem Messenger Service angemeldet (siehe AF_10057)</text><text fill="#000000" font-family="sans-serif" font-size="13" lengthAdjust="spacing" textLength="4" x="315.5" y="203.5513">&#160;</text><polygon fill="#000000" points="314,302.9844,324,306.9844,314,310.9844,318,306.9844" style="stroke:#000000;stroke-width:1.0;"/><line style="stroke:#000000;stroke-width:1.0;" x1="116.5" x2="320" y1="306.9844" y2="306.9844"/><text fill="#000000" font-family="sans-serif" font-size="17" font-weight="bold" lengthAdjust="spacing" textLength="12" x="123.5" y="281.186">1</text><text fill="#000000" font-family="sans-serif" font-size="17" lengthAdjust="spacing" textLength="168" x="139.5" y="261.397">FHIR Ressourcen im</text><text fill="#000000" font-family="sans-serif" font-size="17" lengthAdjust="spacing" textLength="166" x="139.5" y="281.186">VZD-FHIR-Directory</text><text fill="#000000" font-family="sans-serif" font-size="17" lengthAdjust="spacing" textLength="160" x="139.5" y="300.9751">hinzuf&#252;gen (MXID)</text><line style="stroke:#000000;stroke-width:1.0;" x1="336" x2="378" y1="380.3516" y2="380.3516"/><line style="stroke:#000000;stroke-width:1.0;" x1="378" x2="378" y1="380.3516" y2="393.3516"/><line style="stroke:#000000;stroke-width:1.0;" x1="337" x2="378" y1="393.3516" y2="393.3516"/><polygon fill="#000000" points="347,389.3516,337,393.3516,347,397.3516,343,393.3516" style="stroke:#000000;stroke-width:1.0;"/><text fill="#000000" font-family="sans-serif" font-size="17" font-weight="bold" lengthAdjust="spacing" textLength="12" x="343" y="354.5532">2</text><text fill="#000000" font-family="sans-serif" font-size="17" lengthAdjust="spacing" textLength="167" x="359" y="334.7642">Pr&#252;fung, ob g&#252;ltiges</text><text fill="#000000" font-family="sans-serif" font-size="17" lengthAdjust="spacing" textLength="159" x="359" y="354.5532">owner-accesstoken</text><text fill="#000000" font-family="sans-serif" font-size="17" lengthAdjust="spacing" textLength="64" x="359" y="374.3423">vorliegt</text><path d="M214,433.3516 L278,433.3516 L278,440.4844 L268,450.4844 L214,450.4844 L214,433.3516 " fill="#D3D3D3" style="stroke:#000000;stroke-width:1.5;"/><rect fill="none" height="793.5391" style="stroke:#000000;stroke-width:1.5;" width="1694" x="214" y="433.3516"/><text fill="#000000" font-family="sans-serif" font-size="13" font-weight="bold" lengthAdjust="spacing" textLength="19" x="229" y="446.4185">alt</text><text fill="#000000" font-family="sans-serif" font-size="11" font-weight="bold" lengthAdjust="spacing" textLength="5" x="293" y="451.3823">[</text><text fill="#000000" font-family="sans-serif" font-size="16" font-weight="bold" lengthAdjust="spacing" textLength="395" x="298" y="450.2031">kein g&#252;ltiges owner-accesstoken vorhanden</text><text fill="#000000" font-family="sans-serif" font-size="11" font-weight="bold" lengthAdjust="spacing" textLength="5" x="693" y="451.3823">]</text><polygon fill="#000000" points="1578,500.8984,1588,504.8984,1578,508.8984,1582,504.8984" style="stroke:#000000;stroke-width:1.0;"/><line style="stroke:#000000;stroke-width:1.0;" x1="336" x2="1584" y1="504.8984" y2="504.8984"/><text fill="#000000" font-family="sans-serif" font-size="17" font-weight="bold" lengthAdjust="spacing" textLength="12" x="343" y="498.8892">3</text><text fill="#000000" font-family="sans-serif" font-size="17" lengthAdjust="spacing" textLength="211" x="359" y="498.8892">GET /owner-authenticate</text><line style="stroke:#000000;stroke-width:1.0;" x1="1600" x2="1642" y1="558.4766" y2="558.4766"/><line style="stroke:#000000;stroke-width:1.0;" x1="1642" x2="1642" y1="558.4766" y2="571.4766"/><line style="stroke:#000000;stroke-width:1.0;" x1="1601" x2="1642" y1="571.4766" y2="571.4766"/><polygon fill="#000000" points="1611,567.4766,1601,571.4766,1611,575.4766,1607,571.4766" style="stroke:#000000;stroke-width:1.0;"/><text fill="#000000" font-family="sans-serif" font-size="17" font-weight="bold" lengthAdjust="spacing" textLength="12" x="1607" y="542.5728">4</text><text fill="#000000" font-family="sans-serif" font-size="17" lengthAdjust="spacing" textLength="164" x="1623" y="532.6782">Erzeuge PKCE Code</text><text fill="#000000" font-family="sans-serif" font-size="17" lengthAdjust="spacing" textLength="211" x="1623" y="552.4673">f&#252;r verifier und challenge</text><polygon fill="#000000" points="347,601.2656,337,605.2656,347,609.2656,343,605.2656" style="stroke:#000000;stroke-width:1.0;"/><line style="stroke:#000000;stroke-width:1.0;stroke-dasharray:2.0,2.0;" x1="341" x2="1594" y1="605.2656" y2="605.2656"/><text fill="#000000" font-family="sans-serif" font-size="17" font-weight="bold" lengthAdjust="spacing" textLength="12" x="1163" y="599.2563">5</text><text fill="#000000" font-family="sans-serif" font-size="17" lengthAdjust="spacing" textLength="409" x="1179" y="599.2563">HTTP 302 Redirect to IDP Authorization Endpoint</text><polygon fill="#000000" points="585,635.0547,595,639.0547,585,643.0547,589,639.0547" style="stroke:#000000;stroke-width:1.0;"/><line style="stroke:#000000;stroke-width:1.0;" x1="336" x2="591" y1="639.0547" y2="639.0547"/><text fill="#000000" font-family="sans-serif" font-size="17" font-weight="bold" lengthAdjust="spacing" textLength="12" x="343" y="633.0454">6</text><text fill="#000000" font-family="sans-serif" font-size="17" lengthAdjust="spacing" textLength="226" x="359" y="633.0454">Deeplink authenticator://...</text><polygon fill="#000000" points="1129,668.8438,1139,672.8438,1129,676.8438,1133,672.8438" style="stroke:#000000;stroke-width:1.0;"/><line style="stroke:#000000;stroke-width:1.0;" x1="607" x2="1135" y1="672.8438" y2="672.8438"/><text fill="#000000" font-family="sans-serif" font-size="17" font-weight="bold" lengthAdjust="spacing" textLength="12" x="614" y="666.8345">7</text><text fill="#000000" font-family="sans-serif" font-size="17" lengthAdjust="spacing" textLength="256" x="630" y="666.8345">GET {authorization_endpoint}</text><polygon fill="#000000" points="618,702.6328,608,706.6328,618,710.6328,614,706.6328" style="stroke:#000000;stroke-width:1.0;"/><line style="stroke:#000000;stroke-width:1.0;stroke-dasharray:2.0,2.0;" x1="612" x2="1140" y1="706.6328" y2="706.6328"/><text fill="#000000" font-family="sans-serif" font-size="17" font-weight="bold" lengthAdjust="spacing" textLength="12" x="909" y="700.6235">8</text><text fill="#000000" font-family="sans-serif" font-size="17" lengthAdjust="spacing" textLength="209" x="925" y="700.6235">Authentication challenge</text><polygon fill="#000000" points="905,736.4219,915,740.4219,905,744.4219,909,740.4219" style="stroke:#000000;stroke-width:1.0;"/><line style="stroke:#000000;stroke-width:1.0;" x1="607" x2="911" y1="740.4219" y2="740.4219"/><text fill="#000000" font-family="sans-serif" font-size="17" font-weight="bold" lengthAdjust="spacing" textLength="12" x="614" y="734.4126">9</text><text fill="#000000" font-family="sans-serif" font-size="17" lengthAdjust="spacing" textLength="179" x="630" y="734.4126">ExternalAuthenticate</text><polygon fill="#000000" points="618,770.2109,608,774.2109,618,778.2109,614,774.2109" style="stroke:#000000;stroke-width:1.0;"/><line style="stroke:#000000;stroke-width:1.0;stroke-dasharray:2.0,2.0;" x1="612" x2="921" y1="774.2109" y2="774.2109"/><text fill="#000000" font-family="sans-serif" font-size="17" font-weight="bold" lengthAdjust="spacing" textLength="24" x="629" y="768.2017">10</text><text fill="#000000" font-family="sans-serif" font-size="17" lengthAdjust="spacing" textLength="258" x="657" y="768.2017">ExternalAuthenticateResponse</text><polygon fill="#000000" points="1129,804,1139,808,1129,812,1133,808" style="stroke:#000000;stroke-width:1.0;"/><line style="stroke:#000000;stroke-width:1.0;" x1="607" x2="1135" y1="808" y2="808"/><text fill="#000000" font-family="sans-serif" font-size="17" font-weight="bold" lengthAdjust="spacing" textLength="24" x="614" y="801.9907">11</text><text fill="#000000" font-family="sans-serif" font-size="17" lengthAdjust="spacing" textLength="288" x="642" y="801.9907">Authentication challenge response</text><polygon fill="#000000" points="618,837.7891,608,841.7891,618,845.7891,614,841.7891" style="stroke:#000000;stroke-width:1.0;"/><line style="stroke:#000000;stroke-width:1.0;stroke-dasharray:2.0,2.0;" x1="612" x2="1145" y1="841.7891" y2="841.7891"/><text fill="#000000" font-family="sans-serif" font-size="17" font-weight="bold" lengthAdjust="spacing" textLength="24" x="856" y="835.7798">12</text><text fill="#000000" font-family="sans-serif" font-size="17" lengthAdjust="spacing" textLength="255" x="884" y="835.7798">HTTP 302 Redirect(auth_code)</text><polygon fill="#000000" points="347,891.3672,337,895.3672,347,899.3672,343,895.3672" style="stroke:#000000;stroke-width:1.0;"/><line style="stroke:#000000;stroke-width:1.0;stroke-dasharray:2.0,2.0;" x1="341" x2="601" y1="895.3672" y2="895.3672"/><text fill="#000000" font-family="sans-serif" font-size="17" font-weight="bold" lengthAdjust="spacing" textLength="24" x="392" y="879.4634">13</text><text fill="#000000" font-family="sans-serif" font-size="17" lengthAdjust="spacing" textLength="175" x="420" y="869.5688">{client_callback_uri}</text><text fill="#000000" font-family="sans-serif" font-size="17" lengthAdjust="spacing" textLength="169" x="420" y="889.3579">Redirect(auth_code)</text><polygon fill="#000000" points="1578,950.1563,1588,954.1563,1578,958.1563,1582,954.1563" style="stroke:#000000;stroke-width:1.0;"/><line style="stroke:#000000;stroke-width:1.0;" x1="336" x2="1584" y1="954.1563" y2="954.1563"/><text fill="#000000" font-family="sans-serif" font-size="17" font-weight="bold" lengthAdjust="spacing" textLength="24" x="343" y="948.147">14</text><text fill="#000000" font-family="sans-serif" font-size="17" lengthAdjust="spacing" textLength="358" x="371" y="948.147">GET /signin-gematik-idp-dienst(auth_code)</text><polygon fill="#000000" points="1162,1008.9453,1152,1012.9453,1162,1016.9453,1158,1012.9453" style="stroke:#000000;stroke-width:1.0;"/><line style="stroke:#000000;stroke-width:1.0;" x1="1156" x2="1589" y1="1012.9453" y2="1012.9453"/><text fill="#000000" font-family="sans-serif" font-size="17" font-weight="bold" lengthAdjust="spacing" textLength="24" x="1183" y="1006.936">15</text><text fill="#000000" font-family="sans-serif" font-size="17" lengthAdjust="spacing" textLength="372" x="1211" y="1006.936">POST {token_endpoint}(auth_code, verifier)</text><polygon fill="#000000" points="1578,1042.7344,1588,1046.7344,1578,1050.7344,1582,1046.7344" style="stroke:#000000;stroke-width:1.0;"/><line style="stroke:#000000;stroke-width:1.0;stroke-dasharray:2.0,2.0;" x1="1146" x2="1584" y1="1046.7344" y2="1046.7344"/><text fill="#000000" font-family="sans-serif" font-size="17" font-weight="bold" lengthAdjust="spacing" textLength="24" x="1153" y="1040.7251">16</text><text fill="#000000" font-family="sans-serif" font-size="17" lengthAdjust="spacing" textLength="72" x="1181" y="1040.7251">id_token</text><line style="stroke:#000000;stroke-width:1.0;" x1="1600" x2="1642" y1="1080.5234" y2="1080.5234"/><line style="stroke:#000000;stroke-width:1.0;" x1="1642" x2="1642" y1="1080.5234" y2="1093.5234"/><line style="stroke:#000000;stroke-width:1.0;" x1="1601" x2="1642" y1="1093.5234" y2="1093.5234"/><polygon fill="#000000" points="1611,1089.5234,1601,1093.5234,1611,1097.5234,1607,1093.5234" style="stroke:#000000;stroke-width:1.0;"/><text fill="#000000" font-family="sans-serif" font-size="17" font-weight="bold" lengthAdjust="spacing" textLength="24" x="1607" y="1074.5142">17</text><text fill="#000000" font-family="sans-serif" font-size="17" lengthAdjust="spacing" textLength="261" x="1635" y="1074.5142">ID_TOKEN validieren(id_token)</text><line style="stroke:#000000;stroke-width:1.0;" x1="1600" x2="1642" y1="1147.1016" y2="1147.1016"/><line style="stroke:#000000;stroke-width:1.0;" x1="1642" x2="1642" y1="1147.1016" y2="1160.1016"/><line style="stroke:#000000;stroke-width:1.0;" x1="1601" x2="1642" y1="1160.1016" y2="1160.1016"/><polygon fill="#000000" points="1611,1156.1016,1601,1160.1016,1611,1164.1016,1607,1160.1016" style="stroke:#000000;stroke-width:1.0;"/><text fill="#000000" font-family="sans-serif" font-size="17" font-weight="bold" lengthAdjust="spacing" textLength="24" x="1607" y="1131.1978">18</text><text fill="#000000" font-family="sans-serif" font-size="17" lengthAdjust="spacing" textLength="66" x="1635" y="1121.3032">erzeuge</text><text fill="#000000" font-family="sans-serif" font-size="17" lengthAdjust="spacing" textLength="245" x="1635" y="1141.0923">owner-accesstoken(id_token)</text><polygon fill="#000000" points="347,1189.8906,337,1193.8906,347,1197.8906,343,1193.8906" style="stroke:#000000;stroke-width:1.0;"/><line style="stroke:#000000;stroke-width:1.0;stroke-dasharray:2.0,2.0;" x1="341" x2="1594" y1="1193.8906" y2="1193.8906"/><text fill="#000000" font-family="sans-serif" font-size="17" font-weight="bold" lengthAdjust="spacing" textLength="24" x="1401" y="1187.8813">19</text><text fill="#000000" font-family="sans-serif" font-size="17" lengthAdjust="spacing" textLength="159" x="1429" y="1187.8813">owner-accesstoken</text><path d="M10,1265.8906 L297,1265.8906 L297,1276.5156 L287,1286.5156 L10,1286.5156 L10,1265.8906 " fill="#EEEEEE" style="stroke:#000000;stroke-width:1.5;"/><rect fill="none" height="741.7109" style="stroke:#000000;stroke-width:1.5;" width="2025" x="10" y="1265.8906"/><text fill="#000000" font-family="sans-serif" font-size="16" font-weight="bold" lengthAdjust="spacing" textLength="242" x="25" y="1281.7422">VZD-FHIR-Directory Eintrag</text><path d="M214,1318.5156 L464,1318.5156 L464,1329.1406 L454,1339.1406 L214,1339.1406 L214,1318.5156 " fill="#EEEEEE" style="stroke:#000000;stroke-width:1.5;"/><rect fill="none" height="292.1484" style="stroke:#000000;stroke-width:1.5;" width="1811" x="214" y="1318.5156"/><text fill="#000000" font-family="sans-serif" font-size="16" font-weight="bold" lengthAdjust="spacing" textLength="205" x="229" y="1334.3672">FHIR-Ressourcen lesen</text><polygon fill="#000000" points="1354,1405.7188,1364,1409.7188,1354,1413.7188,1358,1409.7188" style="stroke:#000000;stroke-width:1.0;"/><line style="stroke:#000000;stroke-width:1.0;" x1="336" x2="1360" y1="1409.7188" y2="1409.7188"/><text fill="#000000" font-family="sans-serif" font-size="17" font-weight="bold" lengthAdjust="spacing" textLength="24" x="343" y="1393.8149">20</text><text fill="#000000" font-family="sans-serif" font-size="17" lengthAdjust="spacing" textLength="268" x="371" y="1383.9204">GET /owner/PractitionerRole/?...</text><text fill="#000000" font-family="sans-serif" font-size="17" lengthAdjust="spacing" textLength="506" x="371" y="1403.7095">Finde Datensatz f&#252;r eigene TelematikID(owner-accesstoken)</text><line style="stroke:#000000;stroke-width:1.0;" x1="1376" x2="1418" y1="1463.2969" y2="1463.2969"/><line style="stroke:#000000;stroke-width:1.0;" x1="1418" x2="1418" y1="1463.2969" y2="1476.2969"/><line style="stroke:#000000;stroke-width:1.0;" x1="1377" x2="1418" y1="1476.2969" y2="1476.2969"/><polygon fill="#000000" points="1387,1472.2969,1377,1476.2969,1387,1480.2969,1383,1476.2969" style="stroke:#000000;stroke-width:1.0;"/><text fill="#000000" font-family="sans-serif" font-size="17" font-weight="bold" lengthAdjust="spacing" textLength="24" x="1383" y="1447.3931">21</text><text fill="#000000" font-family="sans-serif" font-size="17" lengthAdjust="spacing" textLength="44" x="1411" y="1437.4985">pr&#252;fe</text><text fill="#000000" font-family="sans-serif" font-size="17" lengthAdjust="spacing" textLength="159" x="1411" y="1457.2876">owner-accesstoken</text><polygon fill="#000000" points="1891,1506.0859,1901,1510.0859,1891,1514.0859,1895,1510.0859" style="stroke:#000000;stroke-width:1.0;"/><line style="stroke:#000000;stroke-width:1.0;" x1="1376" x2="1897" y1="1510.0859" y2="1510.0859"/><text fill="#000000" font-family="sans-serif" font-size="17" font-weight="bold" lengthAdjust="spacing" textLength="24" x="1383" y="1504.0767">22</text><text fill="#000000" font-family="sans-serif" font-size="17" lengthAdjust="spacing" textLength="128" x="1411" y="1504.0767">HTTPS Forward</text><polygon fill="#000000" points="1387,1539.875,1377,1543.875,1387,1547.875,1383,1543.875" style="stroke:#000000;stroke-width:1.0;"/><line style="stroke:#000000;stroke-width:1.0;stroke-dasharray:2.0,2.0;" x1="1381" x2="1907" y1="1543.875" y2="1543.875"/><text fill="#000000" font-family="sans-serif" font-size="17" font-weight="bold" lengthAdjust="spacing" textLength="24" x="1741" y="1537.8657">23</text><text fill="#000000" font-family="sans-serif" font-size="17" lengthAdjust="spacing" textLength="132" x="1769" y="1537.8657">result body json</text><polygon fill="#000000" points="347,1573.6641,337,1577.6641,347,1581.6641,343,1577.6641" style="stroke:#000000;stroke-width:1.0;"/><line style="stroke:#000000;stroke-width:1.0;stroke-dasharray:2.0,2.0;" x1="341" x2="1370" y1="1577.6641" y2="1577.6641"/><text fill="#000000" font-family="sans-serif" font-size="17" font-weight="bold" lengthAdjust="spacing" textLength="24" x="1204" y="1571.6548">24</text><text fill="#000000" font-family="sans-serif" font-size="17" lengthAdjust="spacing" textLength="132" x="1232" y="1571.6548">result body json</text><path d="M214,1649.6641 L504,1649.6641 L504,1660.2891 L494,1670.2891 L214,1670.2891 L214,1649.6641 " fill="#EEEEEE" style="stroke:#000000;stroke-width:1.5;"/><rect fill="none" height="292.1484" style="stroke:#000000;stroke-width:1.5;" width="1811" x="214" y="1649.6641"/><text fill="#000000" font-family="sans-serif" font-size="16" font-weight="bold" lengthAdjust="spacing" textLength="245" x="229" y="1665.5156">FHIR-Ressourcen schreiben</text><polygon fill="#000000" points="1354,1736.8672,1364,1740.8672,1354,1744.8672,1358,1740.8672" style="stroke:#000000;stroke-width:1.0;"/><line style="stroke:#000000;stroke-width:1.0;" x1="336" x2="1360" y1="1740.8672" y2="1740.8672"/><text fill="#000000" font-family="sans-serif" font-size="17" font-weight="bold" lengthAdjust="spacing" textLength="24" x="343" y="1724.9634">25</text><text fill="#000000" font-family="sans-serif" font-size="17" lengthAdjust="spacing" textLength="459" x="371" y="1715.0688">FHIR-Operationen um eigenen Datensatz zu verwalten</text><text fill="#000000" font-family="sans-serif" font-size="17" lengthAdjust="spacing" textLength="474" x="371" y="1734.8579">(owner-accesstoken, Flag f&#252;r Sichtbarkeit des Endpoints)</text><line style="stroke:#000000;stroke-width:1.0;" x1="1376" x2="1418" y1="1794.4453" y2="1794.4453"/><line style="stroke:#000000;stroke-width:1.0;" x1="1418" x2="1418" y1="1794.4453" y2="1807.4453"/><line style="stroke:#000000;stroke-width:1.0;" x1="1377" x2="1418" y1="1807.4453" y2="1807.4453"/><polygon fill="#000000" points="1387,1803.4453,1377,1807.4453,1387,1811.4453,1383,1807.4453" style="stroke:#000000;stroke-width:1.0;"/><text fill="#000000" font-family="sans-serif" font-size="17" font-weight="bold" lengthAdjust="spacing" textLength="24" x="1383" y="1778.5415">26</text><text fill="#000000" font-family="sans-serif" font-size="17" lengthAdjust="spacing" textLength="44" x="1411" y="1768.647">pr&#252;fe</text><text fill="#000000" font-family="sans-serif" font-size="17" lengthAdjust="spacing" textLength="159" x="1411" y="1788.436">owner-accesstoken</text><polygon fill="#000000" points="1891,1837.2344,1901,1841.2344,1891,1845.2344,1895,1841.2344" style="stroke:#000000;stroke-width:1.0;"/><line style="stroke:#000000;stroke-width:1.0;" x1="1376" x2="1897" y1="1841.2344" y2="1841.2344"/><text fill="#000000" font-family="sans-serif" font-size="17" font-weight="bold" lengthAdjust="spacing" textLength="24" x="1383" y="1835.2251">27</text><text fill="#000000" font-family="sans-serif" font-size="17" lengthAdjust="spacing" textLength="128" x="1411" y="1835.2251">HTTPS Forward</text><polygon fill="#000000" points="1387,1871.0234,1377,1875.0234,1387,1879.0234,1383,1875.0234" style="stroke:#000000;stroke-width:1.0;"/><line style="stroke:#000000;stroke-width:1.0;stroke-dasharray:2.0,2.0;" x1="1381" x2="1907" y1="1875.0234" y2="1875.0234"/><text fill="#000000" font-family="sans-serif" font-size="17" font-weight="bold" lengthAdjust="spacing" textLength="24" x="1741" y="1869.0142">28</text><text fill="#000000" font-family="sans-serif" font-size="17" lengthAdjust="spacing" textLength="132" x="1769" y="1869.0142">result body json</text><polygon fill="#000000" points="347,1904.8125,337,1908.8125,347,1912.8125,343,1908.8125" style="stroke:#000000;stroke-width:1.0;"/><line style="stroke:#000000;stroke-width:1.0;stroke-dasharray:2.0,2.0;" x1="341" x2="1370" y1="1908.8125" y2="1908.8125"/><text fill="#000000" font-family="sans-serif" font-size="17" font-weight="bold" lengthAdjust="spacing" textLength="24" x="1204" y="1902.8032">29</text><text fill="#000000" font-family="sans-serif" font-size="17" lengthAdjust="spacing" textLength="132" x="1232" y="1902.8032">result body json</text><polygon fill="#000000" points="127.5,1970.6016,117.5,1974.6016,127.5,1978.6016,123.5,1974.6016" style="stroke:#000000;stroke-width:1.0;"/><line style="stroke:#000000;stroke-width:1.0;stroke-dasharray:2.0,2.0;" x1="121.5" x2="330" y1="1974.6016" y2="1974.6016"/><text fill="#000000" font-family="sans-serif" font-size="17" font-weight="bold" lengthAdjust="spacing" textLength="24" x="242" y="1968.5923">30</text><text fill="#000000" font-family="sans-serif" font-size="17" lengthAdjust="spacing" textLength="54" x="270" y="1968.5923">Status</text><!--SRC=[rLNRRkCs47tNLmoSbmGRnKvwoS9OkF1r8oHfXDZf5aK0WvOcCckPT2ag5oVvctv6tl9Z7LAoB5jEjw_raqpEd9bpvi9aniM2AJQ71FzAKGHuYKd28cp7F18GSeM1vb8uIM4uvw8RioJvnaCzXPD6etJNaOy-2qCk8ZWk7Q-mh_4EbVauGnQYwh1W5YcPYh0hOwbWmMAC52952-WJvkoHy7_y30ycbBC349wTjbBo8VEVn0IO7Goaq4E-H3W-TTg1bgeZ5KKisrtmExpW0l_bPYk_huoBP2ALT1oVASq3lc12b_qlfURtp0fMjjZ2sMrLf7pIs3uk9_T1v8wzpBb-cBUztaOi3bVHNns7fLgAT3v1HT_c7cw09L1hppIc2ZYr1Ygubd6Cj-8cGUMUTTerPo8VuKj2CCtZpws-22DKxt_hBtLpr8AzRrEkSJYNCtI0gbqGWQu57tckwJuKvEPsOuv2rxOCsraMgPxI9GyOPLPpK8H0aPsouKmAWJEJk74uN_shRHXvzd99K8hwJO7NyzqUXKrq3JQv_FP7pnsSUTTqRIP2ggVlanhu5jww-Ke-FbN848s2Zpj4TSy3t3QYo6kO8lgQjFFoyk88gH7aFL6uEGIl2RSYp_oqrQF3LTKI3HFaWDJRSoYaXZmoCFetnpX43Vi9nob2Up0-RZH-EZt8sTuA6ywvSLlT9fYKu9fWPAe25C3d5BYg51rEkLYcT-zl4LdjN_xkzGw89VMT6GE4hjErUBvwVxjBHNG8SWBH-rkiUOG9kSi7GHt1We1YQH9QqDczLDGXaSu4OB7Uk-3HL7zL-0HxjBq2xCGfhYhuSsj6h4kWLKW2d38HeiYvPam1A3TJdoPyxO-Wdlkj6z1KlSJ5c1fkfgAvNryjCOqG_FDk7xeoHCgUj510zU9td0f0amh1bD4mKGLMtbQIiz78XnyQ9oHpjej1IzEcraGglhHh16ZK5f8BJRuzP1kvv0m-VMhI5IvYBcR0olFJhDUFZevCLBVbPIoVMHbzZ3dwQxbeda7sACjs4qhpQBBPeEAsYb4qEVGVDIh1udPPGR9Rpoj1Gdkt8VNQGeh4u8PhceKh7HSqFae9r1eZpxwYyRwXFmweKWURWdeMtXRcER3xQKmFLJoXBJfE5N-z5RiWR8EKos8Fm2PBFGR5hz9i2Rt1NBWqbSHYvl9muOPsFMrcM6q_qxgh9YGn_AiX5TMs-RgOQup3eXCFDYiCf9PE5KrsEBRUE-GeDRhN6u-kplk_mZsBEILAJ_t-olDWonRpeTWnt5KVgtZ5hgBhcZkHp4NEfjYyXelrBjYne_hSF0BHQlPN4cuvMgVIneinMU-BbG_LSE2NrqNTLoP9quYewCt4-YyqSKHzm6dVG8-I5mdJIx1R0Ma_2OGHnbdPlTv-XVfMrGS-_H_uMTo5sQ8xXSsDY7tMz4COIFN0LBY9HlTqO3JA06bYqfXU3Xa-mP-9hEYUsHEoBTFth6skcL2hAlrNjPDWgf1FFbJSsbyjKDcP9uTqdgifIY8lKzFk3_HYeBWLLMqFOH2pAAl5a0TJFM6A7WzDAoSf5ctoVwz0MNPJ1wkYsxffmb0pdIQvmOPZjpHT-UDOllq7]--></g></svg>