<?xml version="1.0" encoding="us-ascii" standalone="no"?><svg xmlns="http://www.w3.org/2000/svg" xmlns:xlink="http://www.w3.org/1999/xlink" contentStyleType="text/css" height="1500px" preserveAspectRatio="none" style="width:1617px;height:1500px;background:#FFFFFF;" version="1.1" viewBox="0 0 1617 1500" width="1617px" zoomAndPan="magnify"><defs/><g><rect fill="#F5F5F5" height="1488.5859" style="stroke:#181818;stroke-width:0.5;" width="645" x="579" y="6"/><text fill="#000000" font-family="sans-serif" font-size="18" font-weight="bold" lengthAdjust="spacing" textLength="193" x="802.5" y="22.708">Messenger-Service</text><text fill="#000000" font-family="sans-serif" font-size="13" font-weight="bold" lengthAdjust="spacing" textLength="5" x="995.5" y="23.8872">&#160;</text><rect fill="#DCDCDC" height="1065.1563" style="stroke:#000000;stroke-width:1.0;" width="10" x="252" y="268.1484"/><rect fill="#DCDCDC" height="977.7891" style="stroke:#000000;stroke-width:1.0;" width="10" x="685" y="301.9375"/><rect fill="#DCDCDC" height="333.3125" style="stroke:#000000;stroke-width:1.0;" width="10" x="1108" y="912.625"/><rect fill="#DCDCDC" height="101.3672" style="stroke:#000000;stroke-width:1.0;" width="10" x="1333" y="1051.9922"/><rect fill="#FFB6C1" height="905.7891" style="stroke:#000000;stroke-width:1.5;" width="1600" x="10" y="460.5156"/><rect fill="#FFB6C1" height="202.7813" style="stroke:none;stroke-width:1.0;" width="1600" x="10" y="663.4297"/><rect fill="#F0F8FF" height="500.0938" style="stroke:none;stroke-width:1.0;" width="1600" x="10" y="866.2109"/><line style="stroke:#000000;stroke-width:0.5;stroke-dasharray:5.0,5.0;" x1="73" x2="73" y1="92.5156" y2="1408.3047"/><line style="stroke:#000000;stroke-width:0.5;stroke-dasharray:5.0,5.0;" x1="257" x2="257" y1="92.5156" y2="1408.3047"/><line style="stroke:#000000;stroke-width:0.5;stroke-dasharray:5.0,5.0;" x1="690" x2="690" y1="92.5156" y2="1408.3047"/><line style="stroke:#000000;stroke-width:0.5;stroke-dasharray:5.0,5.0;" x1="1113" x2="1113" y1="92.5156" y2="1408.3047"/><line style="stroke:#000000;stroke-width:0.5;stroke-dasharray:5.0,5.0;" x1="1338" x2="1338" y1="92.5156" y2="1408.3047"/><line style="stroke:#000000;stroke-width:0.5;stroke-dasharray:5.0,5.0;" x1="1547" x2="1547" y1="92.5156" y2="1408.3047"/><text fill="#000000" font-family="Aapex" font-size="20" lengthAdjust="spacing" textLength="100" x="20" y="87.7988">Akteur - A</text><ellipse cx="73" cy="17.7344" fill="#DCDCDC" rx="8" ry="8" style="stroke:#000000;stroke-width:0.5;"/><path d="M73,25.7344 L73,52.7344 M60,33.7344 L86,33.7344 M73,52.7344 L60,67.7344 M73,52.7344 L86,67.7344 " fill="none" style="stroke:#000000;stroke-width:0.5;"/><text fill="#000000" font-family="Aapex" font-size="20" lengthAdjust="spacing" textLength="100" x="20" y="1425.8691">Akteur - A</text><ellipse cx="73" cy="1439.0859" fill="#DCDCDC" rx="8" ry="8" style="stroke:#000000;stroke-width:0.5;"/><path d="M73,1447.0859 L73,1474.0859 M60,1455.0859 L86,1455.0859 M73,1474.0859 L60,1489.0859 M73,1474.0859 L86,1489.0859 " fill="none" style="stroke:#000000;stroke-width:0.5;"/><rect fill="#F0F8FF" height="60.5625" rx="2.5" ry="2.5" style="stroke:#000000;stroke-width:0.5;" width="214" x="150" y="30.9531"/><text fill="#000000" font-family="Impact" font-size="20" lengthAdjust="spacing" textLength="139" x="187.5" y="56.5176">TI-Messenger-</text><text fill="#000000" font-family="Impact" font-size="20" lengthAdjust="spacing" textLength="79" x="217.5" y="79.7988">Client A</text><rect fill="#F0F8FF" height="60.5625" rx="2.5" ry="2.5" style="stroke:#000000;stroke-width:0.5;" width="214" x="150" y="1407.3047"/><text fill="#000000" font-family="Impact" font-size="20" lengthAdjust="spacing" textLength="139" x="187.5" y="1432.8691">TI-Messenger-</text><text fill="#000000" font-family="Impact" font-size="20" lengthAdjust="spacing" textLength="79" x="217.5" y="1456.1504">Client A</text><rect fill="#EFEFFF" height="60.5625" rx="2.5" ry="2.5" style="stroke:#000000;stroke-width:0.5;" width="214" x="583" y="30.9531"/><text fill="#000000" font-family="Impact" font-size="20" lengthAdjust="spacing" textLength="114" x="633" y="56.5176">Messenger-</text><text fill="#000000" font-family="Impact" font-size="20" lengthAdjust="spacing" textLength="54" x="663" y="79.7988">Proxy</text><rect fill="#EFEFFF" height="60.5625" rx="2.5" ry="2.5" style="stroke:#000000;stroke-width:0.5;" width="214" x="583" y="1407.3047"/><text fill="#000000" font-family="Impact" font-size="20" lengthAdjust="spacing" textLength="114" x="633" y="1432.8691">Messenger-</text><text fill="#000000" font-family="Impact" font-size="20" lengthAdjust="spacing" textLength="54" x="663" y="1456.1504">Proxy</text><rect fill="#EFEFFF" height="60.5625" rx="2.5" ry="2.5" style="stroke:#000000;stroke-width:0.5;" width="214" x="1006" y="30.9531"/><text fill="#000000" font-family="Impact" font-size="20" lengthAdjust="spacing" textLength="69" x="1078.5" y="56.5176">Matrix-</text><text fill="#000000" font-family="Impact" font-size="20" lengthAdjust="spacing" textLength="120" x="1053" y="79.7988">Homeserver</text><rect fill="#EFEFFF" height="60.5625" rx="2.5" ry="2.5" style="stroke:#000000;stroke-width:0.5;" width="214" x="1006" y="1407.3047"/><text fill="#000000" font-family="Impact" font-size="20" lengthAdjust="spacing" textLength="69" x="1078.5" y="1432.8691">Matrix-</text><text fill="#000000" font-family="Impact" font-size="20" lengthAdjust="spacing" textLength="120" x="1053" y="1456.1504">Homeserver</text><rect fill="#F0F8FF" height="60.5625" rx="2.5" ry="2.5" style="stroke:#000000;stroke-width:0.5;" width="214" x="1231" y="30.9531"/><text fill="#000000" font-family="Impact" font-size="20" lengthAdjust="spacing" textLength="139" x="1268.5" y="56.5176">TI-Messenger-</text><text fill="#000000" font-family="Impact" font-size="20" lengthAdjust="spacing" textLength="79" x="1298.5" y="79.7988">Client B</text><rect fill="#F0F8FF" height="60.5625" rx="2.5" ry="2.5" style="stroke:#000000;stroke-width:0.5;" width="214" x="1231" y="1407.3047"/><text fill="#000000" font-family="Impact" font-size="20" lengthAdjust="spacing" textLength="139" x="1268.5" y="1432.8691">TI-Messenger-</text><text fill="#000000" font-family="Impact" font-size="20" lengthAdjust="spacing" textLength="79" x="1298.5" y="1456.1504">Client B</text><text fill="#000000" font-family="Aapex" font-size="20" lengthAdjust="spacing" textLength="100" x="1494" y="87.7988">Akteur - B</text><ellipse cx="1547" cy="17.7344" fill="#DCDCDC" rx="8" ry="8" style="stroke:#000000;stroke-width:0.5;"/><path d="M1547,25.7344 L1547,52.7344 M1534,33.7344 L1560,33.7344 M1547,52.7344 L1534,67.7344 M1547,52.7344 L1560,67.7344 " fill="none" style="stroke:#000000;stroke-width:0.5;"/><text fill="#000000" font-family="Aapex" font-size="20" lengthAdjust="spacing" textLength="100" x="1494" y="1425.8691">Akteur - B</text><ellipse cx="1547" cy="1439.0859" fill="#DCDCDC" rx="8" ry="8" style="stroke:#000000;stroke-width:0.5;"/><path d="M1547,1447.0859 L1547,1474.0859 M1534,1455.0859 L1560,1455.0859 M1547,1474.0859 L1534,1489.0859 M1547,1474.0859 L1560,1489.0859 " fill="none" style="stroke:#000000;stroke-width:0.5;"/><rect fill="#DCDCDC" height="1065.1563" style="stroke:#000000;stroke-width:1.0;" width="10" x="252" y="268.1484"/><rect fill="#DCDCDC" height="977.7891" style="stroke:#000000;stroke-width:1.0;" width="10" x="685" y="301.9375"/><rect fill="#DCDCDC" height="333.3125" style="stroke:#000000;stroke-width:1.0;" width="10" x="1108" y="912.625"/><rect fill="#DCDCDC" height="101.3672" style="stroke:#000000;stroke-width:1.0;" width="10" x="1333" y="1051.9922"/><path d="M22,132.5156 L22,211.5156 L1597,211.5156 L1597,142.5156 L1587,132.5156 L22,132.5156 " fill="#FEFFDD" style="stroke:#181818;stroke-width:0.5;"/><path d="M1587,132.5156 L1587,142.5156 L1597,142.5156 L1587,132.5156 " fill="#FEFFDD" style="stroke:#181818;stroke-width:0.5;"/><text fill="#000000" font-family="sans-serif" font-size="13" lengthAdjust="spacing" textLength="4" x="304" y="149.5825">&#160;</text><text fill="#000000" font-family="sans-serif" font-size="17" lengthAdjust="spacing" textLength="1002" x="304" y="168.4282">Die Akteure sind auf demselben Messenger-Service angemeldet und im Besitz eines zugelassenen TI-Messenger-Clients.</text><text fill="#000000" font-family="sans-serif" font-size="17" lengthAdjust="spacing" textLength="473" x="304" y="188.2173">Ein Chatraum wurde durch den Einladenen eingerichtet.</text><text fill="#000000" font-family="sans-serif" font-size="13" lengthAdjust="spacing" textLength="4" x="304" y="204.2935">&#160;</text><polygon fill="#000000" points="240,264.1484,250,268.1484,240,272.1484,244,268.1484" style="stroke:#000000;stroke-width:1.0;"/><line style="stroke:#000000;stroke-width:1.0;" x1="73" x2="246" y1="268.1484" y2="268.1484"/><text fill="#000000" font-family="sans-serif" font-size="17" lengthAdjust="spacing" textLength="150" x="80" y="262.1392">Akteur B einladen</text><polygon fill="#000000" points="673,297.9375,683,301.9375,673,305.9375,677,301.9375" style="stroke:#000000;stroke-width:1.0;"/><line style="stroke:#000000;stroke-width:1.0;" x1="262" x2="679" y1="301.9375" y2="301.9375"/><text fill="#000000" font-family="sans-serif" font-size="17" lengthAdjust="spacing" textLength="404" x="269" y="295.9282">POST  /_matrix/client/v3/rooms/{roomId}/invite</text><line style="stroke:#000000;stroke-width:1.0;" x1="695" x2="737" y1="360.7266" y2="360.7266"/><line style="stroke:#000000;stroke-width:1.0;" x1="737" x2="737" y1="360.7266" y2="373.7266"/><line style="stroke:#000000;stroke-width:1.0;" x1="696" x2="737" y1="373.7266" y2="373.7266"/><polygon fill="#000000" points="706,369.7266,696,373.7266,706,377.7266,702,373.7266" style="stroke:#000000;stroke-width:1.0;"/><text fill="#000000" font-family="sans-serif" font-size="17" lengthAdjust="spacing" textLength="293" x="702" y="354.7173">Pr&#252;fe auf F&#246;derationszugeh&#246;rigkeit</text><line style="stroke:#000000;stroke-width:1.0;" x1="695" x2="737" y1="407.5156" y2="407.5156"/><line style="stroke:#000000;stroke-width:1.0;" x1="737" x2="737" y1="407.5156" y2="420.5156"/><line style="stroke:#000000;stroke-width:1.0;" x1="696" x2="737" y1="420.5156" y2="420.5156"/><polygon fill="#000000" points="706,416.5156,696,420.5156,706,424.5156,702,420.5156" style="stroke:#000000;stroke-width:1.0;"/><text fill="#FF0000" font-family="sans-serif" font-size="17" lengthAdjust="spacing" textLength="5" x="702" y="401.5063">&#160;</text><text fill="#FF0000" font-family="sans-serif" font-size="17" font-weight="bold" lengthAdjust="spacing" textLength="394" x="707" y="401.5063">NEU: Pr&#252;fe auf Versichertenzugeh&#246;rigkeit</text><path d="M10,460.5156 L74,460.5156 L74,467.6484 L64,477.6484 L10,477.6484 L10,460.5156 " fill="#D3D3D3" style="stroke:#000000;stroke-width:1.5;"/><rect fill="none" height="905.7891" style="stroke:#000000;stroke-width:1.5;" width="1600" x="10" y="460.5156"/><text fill="#000000" font-family="sans-serif" font-size="13" font-weight="bold" lengthAdjust="spacing" textLength="19" x="25" y="473.5825">alt</text><text fill="#000000" font-family="sans-serif" font-size="11" font-weight="bold" lengthAdjust="spacing" textLength="5" x="89" y="478.5464">[</text><text fill="#000000" font-family="sans-serif" font-size="16" font-weight="bold" lengthAdjust="spacing" textLength="427" x="94" y="477.3672">Matrix-Domain nicht in der F&#246;deration enthalten</text><text fill="#000000" font-family="sans-serif" font-size="11" font-weight="bold" lengthAdjust="spacing" textLength="5" x="521" y="478.5464">]</text><polygon fill="#000000" points="273,547.8516,263,551.8516,273,555.8516,269,551.8516" style="stroke:#000000;stroke-width:1.0;"/><line style="stroke:#000000;stroke-width:1.0;stroke-dasharray:2.0,2.0;" x1="267" x2="684" y1="551.8516" y2="551.8516"/><text fill="#000000" font-family="sans-serif" font-size="17" lengthAdjust="spacing" textLength="81" x="565" y="526.0532">HTTP 401</text><text fill="#000000" font-family="sans-serif" font-size="17" lengthAdjust="spacing" textLength="113" x="565" y="545.8423">Unauthorized</text><polygon fill="#000000" points="84,626.4297,74,630.4297,84,634.4297,80,630.4297" style="stroke:#000000;stroke-width:1.0;"/><line style="stroke:#000000;stroke-width:1.0;stroke-dasharray:2.0,2.0;" x1="78" x2="251" y1="630.4297" y2="630.4297"/><text fill="#000000" font-family="sans-serif" font-size="17" lengthAdjust="spacing" textLength="131" x="109" y="604.6313">Einladung nicht</text><text fill="#000000" font-family="sans-serif" font-size="17" lengthAdjust="spacing" textLength="89" x="109" y="624.4204">erfolgreich</text><line style="stroke:#000000;stroke-width:1.0;stroke-dasharray:2.0,2.0;" x1="10" x2="1610" y1="664.4297" y2="664.4297"/><text fill="#000000" font-family="sans-serif" font-size="11" font-weight="bold" lengthAdjust="spacing" textLength="5" x="15" y="680.4604">[</text><text fill="#000000" font-family="sans-serif" font-size="16" font-weight="bold" lengthAdjust="spacing" textLength="681" x="20" y="679.2813">Matrix-Domain in der F&#246;deration enthalten &amp; beide Akteure sind Versicherte</text><text fill="#000000" font-family="sans-serif" font-size="11" font-weight="bold" lengthAdjust="spacing" textLength="5" x="701" y="680.4604">]</text><polygon fill="#000000" points="273,750.6328,263,754.6328,273,758.6328,269,754.6328" style="stroke:#000000;stroke-width:1.0;"/><line style="stroke:#000000;stroke-width:1.0;stroke-dasharray:2.0,2.0;" x1="267" x2="684" y1="754.6328" y2="754.6328"/><text fill="#000000" font-family="sans-serif" font-size="17" lengthAdjust="spacing" textLength="81" x="565" y="728.8345">HTTP 401</text><text fill="#000000" font-family="sans-serif" font-size="17" lengthAdjust="spacing" textLength="113" x="565" y="748.6235">Unauthorized</text><polygon fill="#000000" points="84,829.2109,74,833.2109,84,837.2109,80,833.2109" style="stroke:#000000;stroke-width:1.0;"/><line style="stroke:#000000;stroke-width:1.0;stroke-dasharray:2.0,2.0;" x1="78" x2="251" y1="833.2109" y2="833.2109"/><text fill="#000000" font-family="sans-serif" font-size="17" lengthAdjust="spacing" textLength="131" x="109" y="807.4126">Einladung nicht</text><text fill="#000000" font-family="sans-serif" font-size="17" lengthAdjust="spacing" textLength="89" x="109" y="827.2017">erfolgreich</text><line style="stroke:#000000;stroke-width:1.0;stroke-dasharray:2.0,2.0;" x1="10" x2="1610" y1="867.2109" y2="867.2109"/><text fill="#000000" font-family="sans-serif" font-size="11" font-weight="bold" lengthAdjust="spacing" textLength="5" x="15" y="883.2417">[</text><text fill="#000000" font-family="sans-serif" font-size="16" font-weight="bold" lengthAdjust="spacing" textLength="846" x="20" y="882.0625">Matrix-Domain in der F&#246;deration enthalten und nur maximal einer der Akteure ist Versicherter]</text><polygon fill="#000000" points="1096,908.625,1106,912.625,1096,916.625,1100,912.625" style="stroke:#000000;stroke-width:1.0;"/><line style="stroke:#000000;stroke-width:1.0;" x1="695" x2="1102" y1="912.625" y2="912.625"/><text fill="#000000" font-family="sans-serif" font-size="17" lengthAdjust="spacing" textLength="135" x="702" y="906.6157">HTTP(S) Foward</text><line style="stroke:#000000;stroke-width:1.0;" x1="1118" x2="1160" y1="946.4141" y2="946.4141"/><line style="stroke:#000000;stroke-width:1.0;" x1="1160" x2="1160" y1="946.4141" y2="959.4141"/><line style="stroke:#000000;stroke-width:1.0;" x1="1119" x2="1160" y1="959.4141" y2="959.4141"/><polygon fill="#000000" points="1129,955.4141,1119,959.4141,1129,963.4141,1125,959.4141" style="stroke:#000000;stroke-width:1.0;"/><text fill="#000000" font-family="sans-serif" font-size="17" lengthAdjust="spacing" textLength="151" x="1125" y="940.4048">Invite verarbeiten</text><polygon fill="#000000" points="706,1014.2031,696,1018.2031,706,1022.2031,702,1018.2031" style="stroke:#000000;stroke-width:1.0;"/><line style="stroke:#000000;stroke-width:1.0;stroke-dasharray:2.0,2.0;" x1="700" x2="1107" y1="1018.2031" y2="1018.2031"/><text fill="#000000" font-family="sans-serif" font-size="17" lengthAdjust="spacing" textLength="122" x="979" y="1012.1938">Invite Request</text><polygon fill="#000000" points="1321,1047.9922,1331,1051.9922,1321,1055.9922,1325,1051.9922" style="stroke:#000000;stroke-width:1.0;"/><line style="stroke:#000000;stroke-width:1.0;" x1="695" x2="1327" y1="1051.9922" y2="1051.9922"/><text fill="#000000" font-family="sans-serif" font-size="17" lengthAdjust="spacing" textLength="142" x="702" y="1045.9829">HTTP(S) Forward</text><polygon fill="#000000" points="1535,1081.7813,1545,1085.7813,1535,1089.7813,1539,1085.7813" style="stroke:#000000;stroke-width:1.0;"/><line style="stroke:#000000;stroke-width:1.0;" x1="1343" x2="1541" y1="1085.7813" y2="1085.7813"/><text fill="#000000" font-family="sans-serif" font-size="17" lengthAdjust="spacing" textLength="164" x="1350" y="1079.772">Einladung anzeigen</text><polygon fill="#000000" points="1354,1115.5703,1344,1119.5703,1354,1123.5703,1350,1119.5703" style="stroke:#000000;stroke-width:1.0;"/><line style="stroke:#000000;stroke-width:1.0;stroke-dasharray:2.0,2.0;" x1="1348" x2="1546" y1="1119.5703" y2="1119.5703"/><text fill="#000000" font-family="sans-serif" font-size="17" lengthAdjust="spacing" textLength="180" x="1360" y="1113.561">Einladung annehmen</text><polygon fill="#000000" points="706,1149.3594,696,1153.3594,706,1157.3594,702,1153.3594" style="stroke:#000000;stroke-width:1.0;"/><line style="stroke:#000000;stroke-width:1.0;stroke-dasharray:2.0,2.0;" x1="700" x2="1337" y1="1153.3594" y2="1153.3594"/><text fill="#000000" font-family="sans-serif" font-size="17" lengthAdjust="spacing" textLength="206" x="1125" y="1147.3501">Einladung angenommen</text><polygon fill="#000000" points="1096,1208.1484,1106,1212.1484,1096,1216.1484,1100,1212.1484" style="stroke:#000000;stroke-width:1.0;"/><line style="stroke:#000000;stroke-width:1.0;" x1="695" x2="1102" y1="1212.1484" y2="1212.1484"/><text fill="#000000" font-family="sans-serif" font-size="17" lengthAdjust="spacing" textLength="142" x="702" y="1206.1392">HTTP(S) Forward</text><polygon fill="#000000" points="706,1241.9375,696,1245.9375,706,1249.9375,702,1245.9375" style="stroke:#000000;stroke-width:1.0;"/><line style="stroke:#000000;stroke-width:1.0;stroke-dasharray:2.0,2.0;" x1="700" x2="1112" y1="1245.9375" y2="1245.9375"/><text fill="#000000" font-family="sans-serif" font-size="17" lengthAdjust="spacing" textLength="54" x="1052" y="1239.9282">Status</text><polygon fill="#000000" points="273,1275.7266,263,1279.7266,273,1283.7266,269,1279.7266" style="stroke:#000000;stroke-width:1.0;"/><line style="stroke:#000000;stroke-width:1.0;stroke-dasharray:2.0,2.0;" x1="267" x2="689" y1="1279.7266" y2="1279.7266"/><text fill="#000000" font-family="sans-serif" font-size="17" lengthAdjust="spacing" textLength="54" x="629" y="1273.7173">Status</text><polygon fill="#000000" points="84,1329.3047,74,1333.3047,84,1337.3047,80,1333.3047" style="stroke:#000000;stroke-width:1.0;"/><line style="stroke:#000000;stroke-width:1.0;stroke-dasharray:2.0,2.0;" x1="78" x2="256" y1="1333.3047" y2="1333.3047"/><text fill="#000000" font-family="sans-serif" font-size="17" lengthAdjust="spacing" textLength="113" x="95" y="1307.5063">Nutzer in den</text><text fill="#000000" font-family="sans-serif" font-size="17" lengthAdjust="spacing" textLength="155" x="95" y="1327.2954">Raum hinzugef&#252;gt</text><!--SRC=[nLN1Rjiu4BthAmO9iDW5rdMiBRP5a3LWkqrj84w4s6al0HQqD9O8IwINf1BNJN-hfzxoOpkaP8UIanpsihvO9D_ClFSqG-aL5skcM04Q_obHn3X5hLcAWvod0XAkC3PSYa3lWGKNevnf_OKd9eFmvCGx6yfDn9A4YnHwtlOkzpKkKTc7CR84rP35grJ9KYGZcKi5QvPZgX2fMaoFKB0DvN_x7kvjgU2PXF0j62WbxwluHKu9gurpASoCRn5wxu91RAGQIaKLVTm5N-855_ZAIOlV9yQ5NaWbWo1Yol2OhvamVlnK6dx7d64-efNdUPIbVCaAX4cnPh5f7paruKbxs-Vz0gdXmM6RpzLyydamdrnT1hLPBmftn-sw-yqTn_s6qpDWQzm4tmEW7xCdSDC3fk5ei39OAkZ0uCWThfyemgY2p2STsv0eKbITMseyZdGuE89ZQj0OXtc9BdGXDt2cgVnfxtt_AMA6wevWPrrxr8VZBnatE2lagefgbfn6hgHVBr9oy_NeEUoumZAZ-8Q0OrcWfcAeAZIAn78wb1M-8cju8AksAspQDQng10yF3u6G1a5INJBrTqAUmgseZNZN_y39VHU5e3bHOkKI4YmqvWiKSE0JC5eLc2TeW5u-S9ferDni0MaSD6pB5Eteew3eXePAWNxZ5V_81OmoCeYL1ToNr8-Gb2hEY800Eipf2h1vA3Lbu75cqBoftzIjSEAiofjUfp_gdTOwO6ZnBdHda1qbf7vnwn6Xfz4fH5UpEK3txyAze6xiw7Nl_kWgAGlT_MR_9idtBXTtr17DLDF8hNS4W3RgfEhnvnATYUUFFsY-t0nhwqhs-4FnT8NSj6BEbZG64Djf-KjXqeUpHV_ouqqZsMTKclIZCYYQoQ31fAAPc-CBdcRcayAlK3r6NAnsxVzdlsxA3xAWiGLXdGLw8Bu-RMfHar4o5BNdDV66xChwyNmUmTkJ7hNMZM2boQIYWEGWWCplz6yee7gx9Nq5gkgt0jLIvdItqx8LLYynr_YIXDV8mo-mG9wq-jnpzFzJvojxckl_9D8Eew3kfoyYBrZknb4v_4usryPNhVms75SYVvtz1kVodgcTDh_dnxk0SHKmSOC1TB4mHGQRUjvyGsfurUSr_jf-cBNn4SHW5FeCL8D2Suf3y0v68HaU-eOpiKMUxhcu-o7iL0LybC2iQA16OStJHr4YMJHn2NfSlFsMwWDNsvhslimCCwLkgFLgx6rlTEH1Z1yH-QfsBNbPcYqrW-iXGGrvRU_SZBlRPFduCpKlIEm5pmcaZrTWD_u5]--></g></svg>