<?xml version="1.0" encoding="us-ascii" standalone="no"?><svg xmlns="http://www.w3.org/2000/svg" xmlns:xlink="http://www.w3.org/1999/xlink" contentStyleType="text/css" height="1463.7594px" preserveAspectRatio="none" style="width:2048px;height:1463px;background:#FFFFFF;" version="1.1" viewBox="0 0 2048 1463" width="2048.7895px" zoomAndPan="magnify"><defs/><g><rect fill="#F5F5F5" height="1454.8589" style="stroke:#181818;stroke-width:0.39475713184271394;" width="540.0278" x="372.6507" y="4.7371"/><text fill="#000000" font-family="sans-serif" font-size="14.2113" font-weight="bold" lengthAdjust="spacing" textLength="168.1665" x="556.6076" y="17.9283">Messenger-Service A</text><text fill="#000000" font-family="sans-serif" font-size="10.2637" font-weight="bold" lengthAdjust="spacing" textLength="3.9476" x="724.7741" y="18.8593">&#160;</text><rect fill="#F5F5F5" height="1454.8589" style="stroke:#181818;stroke-width:0.39475713184271394;" width="737.4063" x="937.9429" y="4.7371"/><text fill="#000000" font-family="sans-serif" font-size="14.2113" font-weight="bold" lengthAdjust="spacing" textLength="168.1665" x="1220.5891" y="17.9283">Messenger-Service B</text><text fill="#000000" font-family="sans-serif" font-size="10.2637" font-weight="bold" lengthAdjust="spacing" textLength="3.9476" x="1388.7556" y="18.8593">&#160;</text><rect fill="#F0F8FF" height="1003.5158" style="stroke:#000000;stroke-width:0.7895142636854279;" width="7.8951" x="267.6453" y="279.1303"/><rect fill="#DCDCDC" height="976.8389" style="stroke:#000000;stroke-width:0.7895142636854279;" width="7.8951" x="456.3392" y="305.8072"/><rect fill="#DCDCDC" height="98.9792" style="stroke:#000000;stroke-width:0.7895142636854279;" width="7.8951" x="821.0948" y="332.4842"/><rect fill="#DCDCDC" height="692.2868" style="stroke:#000000;stroke-width:0.7895142636854279;" width="7.8951" x="1021.6315" y="563.6823"/><rect fill="#DCDCDC" height="480.037" style="stroke:#000000;stroke-width:0.7895142636854279;" width="7.8951" x="1386.387" y="695.9013"/><rect fill="#DCDCDC" height="53.3539" style="stroke:#000000;stroke-width:0.7895142636854279;" width="7.8951" x="1583.7656" y="856.2714"/><rect fill="#C9FFC9" height="205.687" style="stroke:#000000;stroke-width:0.7895142636854279;" width="7.8951" x="1772.4595" y="1023.6052"/><rect fill="#F0F8FF" height="135.8951" style="stroke:#000000;stroke-width:1.1842713955281419;" width="570.8188" x="1297.9614" y="799.7841"/><line style="stroke:#000000;stroke-width:0.39475713184271394;stroke-dasharray:5.0,5.0;" x1="91.5837" x2="91.5837" y1="124.8419" y2="1336.3331"/><line style="stroke:#000000;stroke-width:0.39475713184271394;stroke-dasharray:5.0,5.0;" x1="271.5929" x2="271.5929" y1="124.8419" y2="1336.3331"/><line style="stroke:#000000;stroke-width:0.39475713184271394;stroke-dasharray:5.0,5.0;" x1="460.2868" x2="460.2868" y1="124.8419" y2="1336.3331"/><line style="stroke:#000000;stroke-width:0.39475713184271394;stroke-dasharray:5.0,5.0;" x1="825.0424" x2="825.0424" y1="124.8419" y2="1336.3331"/><line style="stroke:#000000;stroke-width:0.39475713184271394;stroke-dasharray:5.0,5.0;" x1="1025.579" x2="1025.579" y1="124.8419" y2="1336.3331"/><line style="stroke:#000000;stroke-width:0.39475713184271394;stroke-dasharray:5.0,5.0;" x1="1390.3346" x2="1390.3346" y1="124.8419" y2="1336.3331"/><line style="stroke:#000000;stroke-width:0.39475713184271394;stroke-dasharray:5.0,5.0;" x1="1587.7132" x2="1587.7132" y1="124.8419" y2="1336.3331"/><line style="stroke:#000000;stroke-width:0.39475713184271394;stroke-dasharray:5.0,5.0;" x1="1776.4071" x2="1776.4071" y1="124.8419" y2="1336.3331"/><line style="stroke:#000000;stroke-width:0.39475713184271394;stroke-dasharray:5.0,5.0;" x1="1957.2059" x2="1957.2059" y1="124.8419" y2="1336.3331"/><text fill="#000000" font-family="Aapex" font-size="15.7903" lengthAdjust="spacing" textLength="4.7371" x="86.8466" y="65.9753">&#160;</text><text fill="#000000" font-family="Aapex" font-size="15.7903" lengthAdjust="spacing" textLength="170.5351" x="3.9476" y="84.3562">Akteur - A in der Rolle</text><text fill="#000000" font-family="Aapex" font-size="15.7903" lengthAdjust="spacing" textLength="123.9537" x="27.2382" y="102.7371">User / User-HBA</text><text fill="#000000" font-family="Aapex" font-size="15.7903" lengthAdjust="spacing" textLength="4.7371" x="86.8466" y="121.118">&#160;</text><ellipse cx="91.5837" cy="10.6584" fill="#DCDCDC" rx="6.3161" ry="6.3161" style="stroke:#000000;stroke-width:0.39475713184271394;"/><path d="M91.5837,16.9746 L91.5837,38.2914 M81.32,23.2907 L101.8473,23.2907 M91.5837,38.2914 L81.32,50.1342 M91.5837,38.2914 L101.8473,50.1342 " fill="none" style="stroke:#000000;stroke-width:0.39475713184271394;"/><text fill="#000000" font-family="Aapex" font-size="15.7903" lengthAdjust="spacing" textLength="4.7371" x="86.8466" y="1350.2005">&#160;</text><text fill="#000000" font-family="Aapex" font-size="15.7903" lengthAdjust="spacing" textLength="170.5351" x="3.9476" y="1368.5813">Akteur - A in der Rolle</text><text fill="#000000" font-family="Aapex" font-size="15.7903" lengthAdjust="spacing" textLength="123.9537" x="27.2382" y="1386.9622">User / User-HBA</text><text fill="#000000" font-family="Aapex" font-size="15.7903" lengthAdjust="spacing" textLength="4.7371" x="86.8466" y="1405.3431">&#160;</text><ellipse cx="91.5837" cy="1415.7779" fill="#DCDCDC" rx="6.3161" ry="6.3161" style="stroke:#000000;stroke-width:0.39475713184271394;"/><path d="M91.5837,1422.0941 L91.5837,1443.4109 M81.32,1428.4102 L101.8473,1428.4102 M91.5837,1443.4109 L81.32,1455.2537 M91.5837,1443.4109 L101.8473,1455.2537 " fill="none" style="stroke:#000000;stroke-width:0.39475713184271394;"/><rect fill="#F0F8FF" height="47.815" rx="1.9738" ry="1.9738" style="stroke:#000000;stroke-width:0.39475713184271394;" width="168.9561" x="187.1149" y="76.2375"/><text fill="#000000" font-family="Impact" font-size="15.7903" lengthAdjust="spacing" textLength="109.7425" x="216.7217" y="96.421">TI-Messenger-</text><text fill="#000000" font-family="Impact" font-size="15.7903" lengthAdjust="spacing" textLength="46.5813" x="248.3022" y="114.8019">Client</text><rect fill="#F0F8FF" height="47.815" rx="1.9738" ry="1.9738" style="stroke:#000000;stroke-width:0.39475713184271394;" width="168.9561" x="187.1149" y="1335.5436"/><text fill="#000000" font-family="Impact" font-size="15.7903" lengthAdjust="spacing" textLength="109.7425" x="216.7217" y="1355.7271">TI-Messenger-</text><text fill="#000000" font-family="Impact" font-size="15.7903" lengthAdjust="spacing" textLength="46.5813" x="248.3022" y="1374.1079">Client</text><rect fill="#EFEFFF" height="47.815" rx="1.9738" ry="1.9738" style="stroke:#000000;stroke-width:0.39475713184271394;" width="168.9561" x="375.8088" y="76.2375"/><text fill="#000000" font-family="Impact" font-size="15.7903" lengthAdjust="spacing" textLength="90.0046" x="415.2845" y="96.421">Messenger-</text><text fill="#000000" font-family="Impact" font-size="15.7903" lengthAdjust="spacing" textLength="42.6338" x="438.9699" y="114.8019">Proxy</text><rect fill="#EFEFFF" height="47.815" rx="1.9738" ry="1.9738" style="stroke:#000000;stroke-width:0.39475713184271394;" width="168.9561" x="375.8088" y="1335.5436"/><text fill="#000000" font-family="Impact" font-size="15.7903" lengthAdjust="spacing" textLength="90.0046" x="415.2845" y="1355.7271">Messenger-</text><text fill="#000000" font-family="Impact" font-size="15.7903" lengthAdjust="spacing" textLength="42.6338" x="438.9699" y="1374.1079">Proxy</text><rect fill="#EFEFFF" height="47.815" rx="1.9738" ry="1.9738" style="stroke:#000000;stroke-width:0.39475713184271394;" width="168.9561" x="740.5644" y="76.2375"/><text fill="#000000" font-family="Impact" font-size="15.7903" lengthAdjust="spacing" textLength="54.4765" x="797.8042" y="96.421">Matrix-</text><text fill="#000000" font-family="Impact" font-size="15.7903" lengthAdjust="spacing" textLength="94.7417" x="777.6715" y="114.8019">Homeserver</text><rect fill="#EFEFFF" height="47.815" rx="1.9738" ry="1.9738" style="stroke:#000000;stroke-width:0.39475713184271394;" width="168.9561" x="740.5644" y="1335.5436"/><text fill="#000000" font-family="Impact" font-size="15.7903" lengthAdjust="spacing" textLength="54.4765" x="797.8042" y="1355.7271">Matrix-</text><text fill="#000000" font-family="Impact" font-size="15.7903" lengthAdjust="spacing" textLength="94.7417" x="777.6715" y="1374.1079">Homeserver</text><rect fill="#EFEFFF" height="47.815" rx="1.9738" ry="1.9738" style="stroke:#000000;stroke-width:0.39475713184271394;" width="168.9561" x="941.101" y="76.2375"/><text fill="#000000" font-family="Impact" font-size="15.7903" lengthAdjust="spacing" textLength="90.0046" x="980.5767" y="96.421">Messenger-</text><text fill="#000000" font-family="Impact" font-size="15.7903" lengthAdjust="spacing" textLength="42.6338" x="1004.2621" y="114.8019">Proxy</text><rect fill="#EFEFFF" height="47.815" rx="1.9738" ry="1.9738" style="stroke:#000000;stroke-width:0.39475713184271394;" width="168.9561" x="941.101" y="1335.5436"/><text fill="#000000" font-family="Impact" font-size="15.7903" lengthAdjust="spacing" textLength="90.0046" x="980.5767" y="1355.7271">Messenger-</text><text fill="#000000" font-family="Impact" font-size="15.7903" lengthAdjust="spacing" textLength="42.6338" x="1004.2621" y="1374.1079">Proxy</text><rect fill="#EFEFFF" height="47.815" rx="1.9738" ry="1.9738" style="stroke:#000000;stroke-width:0.39475713184271394;" width="168.9561" x="1305.8566" y="76.2375"/><text fill="#000000" font-family="Impact" font-size="15.7903" lengthAdjust="spacing" textLength="54.4765" x="1363.0964" y="96.421">Matrix-</text><text fill="#000000" font-family="Impact" font-size="15.7903" lengthAdjust="spacing" textLength="94.7417" x="1342.9638" y="114.8019">Homeserver</text><rect fill="#EFEFFF" height="47.815" rx="1.9738" ry="1.9738" style="stroke:#000000;stroke-width:0.39475713184271394;" width="168.9561" x="1305.8566" y="1335.5436"/><text fill="#000000" font-family="Impact" font-size="15.7903" lengthAdjust="spacing" textLength="54.4765" x="1363.0964" y="1355.7271">Matrix-</text><text fill="#000000" font-family="Impact" font-size="15.7903" lengthAdjust="spacing" textLength="94.7417" x="1342.9638" y="1374.1079">Homeserver</text><rect fill="#EFEFFF" height="47.815" rx="1.9738" ry="1.9738" style="stroke:#000000;stroke-width:0.39475713184271394;" width="168.9561" x="1503.2352" y="76.2375"/><text fill="#000000" font-family="Impact" font-size="15.7903" lengthAdjust="spacing" textLength="43.4233" x="1566.0015" y="96.421">Push-</text><text fill="#000000" font-family="Impact" font-size="15.7903" lengthAdjust="spacing" textLength="69.4773" x="1552.9746" y="114.8019">Gateway</text><rect fill="#EFEFFF" height="47.815" rx="1.9738" ry="1.9738" style="stroke:#000000;stroke-width:0.39475713184271394;" width="168.9561" x="1503.2352" y="1335.5436"/><text fill="#000000" font-family="Impact" font-size="15.7903" lengthAdjust="spacing" textLength="43.4233" x="1566.0015" y="1355.7271">Push-</text><text fill="#000000" font-family="Impact" font-size="15.7903" lengthAdjust="spacing" textLength="69.4773" x="1552.9746" y="1374.1079">Gateway</text><rect fill="#C9FFC9" height="47.815" rx="1.9738" ry="1.9738" style="stroke:#000000;stroke-width:0.39475713184271394;" width="168.9561" x="1691.9291" y="76.2375"/><text fill="#000000" font-family="Impact" font-size="15.7903" lengthAdjust="spacing" textLength="109.7425" x="1721.5359" y="96.421">TI-Messenger-</text><text fill="#000000" font-family="Impact" font-size="15.7903" lengthAdjust="spacing" textLength="46.5813" x="1753.1164" y="114.8019">Client</text><rect fill="#C9FFC9" height="47.815" rx="1.9738" ry="1.9738" style="stroke:#000000;stroke-width:0.39475713184271394;" width="168.9561" x="1691.9291" y="1335.5436"/><text fill="#000000" font-family="Impact" font-size="15.7903" lengthAdjust="spacing" textLength="109.7425" x="1721.5359" y="1355.7271">TI-Messenger-</text><text fill="#000000" font-family="Impact" font-size="15.7903" lengthAdjust="spacing" textLength="46.5813" x="1753.1164" y="1374.1079">Client</text><text fill="#000000" font-family="Aapex" font-size="15.7903" lengthAdjust="spacing" textLength="4.7371" x="1952.4688" y="65.9753">&#160;</text><text fill="#000000" font-family="Aapex" font-size="15.7903" lengthAdjust="spacing" textLength="172.1141" x="1868.7803" y="84.3562">Akteur - B in der Rolle</text><text fill="#000000" font-family="Aapex" font-size="15.7903" lengthAdjust="spacing" textLength="123.9537" x="1892.8604" y="102.7371">User / User-HBA</text><text fill="#000000" font-family="Aapex" font-size="15.7903" lengthAdjust="spacing" textLength="4.7371" x="1952.4688" y="121.118">&#160;</text><ellipse cx="1957.2059" cy="10.6584" fill="#DCDCDC" rx="6.3161" ry="6.3161" style="stroke:#000000;stroke-width:0.39475713184271394;"/><path d="M1957.2059,16.9746 L1957.2059,38.2914 M1946.9422,23.2907 L1967.4695,23.2907 M1957.2059,38.2914 L1946.9422,50.1342 M1957.2059,38.2914 L1967.4695,50.1342 " fill="none" style="stroke:#000000;stroke-width:0.39475713184271394;"/><text fill="#000000" font-family="Aapex" font-size="15.7903" lengthAdjust="spacing" textLength="4.7371" x="1952.4688" y="1350.2005">&#160;</text><text fill="#000000" font-family="Aapex" font-size="15.7903" lengthAdjust="spacing" textLength="172.1141" x="1868.7803" y="1368.5813">Akteur - B in der Rolle</text><text fill="#000000" font-family="Aapex" font-size="15.7903" lengthAdjust="spacing" textLength="123.9537" x="1892.8604" y="1386.9622">User / User-HBA</text><text fill="#000000" font-family="Aapex" font-size="15.7903" lengthAdjust="spacing" textLength="4.7371" x="1952.4688" y="1405.3431">&#160;</text><ellipse cx="1957.2059" cy="1415.7779" fill="#DCDCDC" rx="6.3161" ry="6.3161" style="stroke:#000000;stroke-width:0.39475713184271394;"/><path d="M1957.2059,1422.0941 L1957.2059,1443.4109 M1946.9422,1428.4102 L1967.4695,1428.4102 M1957.2059,1443.4109 L1946.9422,1455.2537 M1957.2059,1443.4109 L1967.4695,1455.2537 " fill="none" style="stroke:#000000;stroke-width:0.39475713184271394;"/><rect fill="#F0F8FF" height="1003.5158" style="stroke:#000000;stroke-width:0.7895142636854279;" width="7.8951" x="267.6453" y="279.1303"/><rect fill="#DCDCDC" height="976.8389" style="stroke:#000000;stroke-width:0.7895142636854279;" width="7.8951" x="456.3392" y="305.8072"/><rect fill="#DCDCDC" height="98.9792" style="stroke:#000000;stroke-width:0.7895142636854279;" width="7.8951" x="821.0948" y="332.4842"/><rect fill="#DCDCDC" height="692.2868" style="stroke:#000000;stroke-width:0.7895142636854279;" width="7.8951" x="1021.6315" y="563.6823"/><rect fill="#DCDCDC" height="480.037" style="stroke:#000000;stroke-width:0.7895142636854279;" width="7.8951" x="1386.387" y="695.9013"/><rect fill="#DCDCDC" height="53.3539" style="stroke:#000000;stroke-width:0.7895142636854279;" width="7.8951" x="1583.7656" y="856.2714"/><rect fill="#C9FFC9" height="205.687" style="stroke:#000000;stroke-width:0.7895142636854279;" width="7.8951" x="1772.4595" y="1023.6052"/><path d="M5.5266,156.4225 L5.5266,218.7941 L2043.2629,218.7941 L2043.2629,164.3177 L2035.3678,156.4225 L5.5266,156.4225 " fill="#FEFFDD" style="stroke:#181818;stroke-width:0.39475713184271394;"/><path d="M2035.3678,156.4225 L2035.3678,164.3177 L2043.2629,164.3177 L2035.3678,156.4225 " fill="#FEFFDD" style="stroke:#181818;stroke-width:0.39475713184271394;"/><text fill="#000000" font-family="sans-serif" font-size="10.2637" lengthAdjust="spacing" textLength="3.1581" x="623.3215" y="169.8971">&#160;</text><text fill="#000000" font-family="sans-serif" font-size="13.4217" lengthAdjust="spacing" textLength="795.0409" x="623.3215" y="184.776">Die Akteure sind auf dem selben Messenger-Service angemeldet und im Besitz eines zugelassenen TI-Messenger-Clients.</text><text fill="#000000" font-family="sans-serif" font-size="13.4217" lengthAdjust="spacing" textLength="457.9183" x="623.3215" y="200.3998">Ebenfalls sind beide Akteure einem gemeinsamen Raum beigetreten.</text><text fill="#000000" font-family="sans-serif" font-size="10.2637" lengthAdjust="spacing" textLength="3.1581" x="623.3215" y="213.0921">&#160;</text><polygon fill="#000000" points="258.1712,275.9722,266.0663,279.1303,258.1712,282.2884,261.3292,279.1303" style="stroke:#000000;stroke-width:0.7895142636854279;"/><line style="stroke:#000000;stroke-width:0.7895142636854279;" x1="91.5837" x2="262.9082" y1="279.1303" y2="279.1303"/><text fill="#000000" font-family="sans-serif" font-size="13.4217" lengthAdjust="spacing" textLength="84.478" x="97.1103" y="258.7621">Akteur A l&#246;st</text><text fill="#000000" font-family="sans-serif" font-size="13.4217" lengthAdjust="spacing" textLength="112.9005" x="97.1103" y="274.3859">Matrix-Event aus</text><polygon fill="#FF0000" points="446.8651,302.6492,454.7602,305.8072,446.8651,308.9653,450.0231,305.8072" style="stroke:#FF0000;stroke-width:0.7895142636854279;"/><line style="stroke:#FF0000;stroke-width:0.7895142636854279;" x1="275.5405" x2="451.6022" y1="305.8072" y2="305.8072"/><text fill="#000000" font-family="sans-serif" font-size="13.4217" lengthAdjust="spacing" textLength="101.0578" x="281.0671" y="301.0628">Matrix-Request</text><polygon fill="#FF0000" points="811.6207,329.3261,819.5158,332.4842,811.6207,335.6423,814.7787,332.4842" style="stroke:#FF0000;stroke-width:0.7895142636854279;"/><line style="stroke:#FF0000;stroke-width:0.7895142636854279;" x1="464.2344" x2="816.3577" y1="332.4842" y2="332.4842"/><text fill="#000000" font-family="sans-serif" font-size="13.4217" lengthAdjust="spacing" textLength="112.111" x="469.761" y="327.7398">HTTP(S) Forward</text><line style="stroke:#000000;stroke-width:0.7895142636854279;" x1="828.99" x2="862.1496" y1="374.7849" y2="374.7849"/><line style="stroke:#000000;stroke-width:0.7895142636854279;" x1="862.1496" x2="862.1496" y1="374.7849" y2="385.0486"/><line style="stroke:#000000;stroke-width:0.7895142636854279;" x1="829.7795" x2="862.1496" y1="385.0486" y2="385.0486"/><polygon fill="#000000" points="837.6746,381.8905,829.7795,385.0486,837.6746,388.2066,834.5166,385.0486" style="stroke:#000000;stroke-width:0.7895142636854279;"/><text fill="#000000" font-family="sans-serif" font-size="13.4217" lengthAdjust="spacing" textLength="38.6862" x="834.5166" y="354.4167">Event</text><text fill="#000000" font-family="sans-serif" font-size="13.4217" lengthAdjust="spacing" textLength="76.5829" x="834.5166" y="370.0405">verarbeiten</text><polygon fill="#000000" points="472.919,428.3053,465.0239,431.4634,472.919,434.6214,469.761,431.4634" style="stroke:#000000;stroke-width:0.7895142636854279;"/><line style="stroke:#000000;stroke-width:0.7895142636854279;" x1="468.182" x2="824.2529" y1="431.4634" y2="431.4634"/><text fill="#000000" font-family="sans-serif" font-size="13.4217" lengthAdjust="spacing" textLength="101.0578" x="718.458" y="426.719">Matrix-Request</text><rect fill="none" height="62.1187" style="stroke:#000000;stroke-width:1.1842713955281419;" width="322.1218" x="373.4402" y="457.5173"/><path d="M373.4402,457.5173 L425.5482,457.5173 L425.5482,463.0439 L417.653,470.9391 L373.4402,470.9391 L373.4402,457.5173 " fill="#98FB98" style="stroke:#000000;stroke-width:1.5790285273708558;"/><text fill="#000000" font-family="sans-serif" font-size="10.2637" font-weight="bold" lengthAdjust="spacing" textLength="16.5798" x="383.7039" y="468.6234">ref</text><text fill="#000000" font-family="sans-serif" font-size="13.4217" font-weight="bold" lengthAdjust="spacing" textLength="74.2143" x="376.5983" y="486.5555">AF_10064</text><text fill="#000000" font-family="sans-serif" font-size="13.4217" lengthAdjust="spacing" textLength="4.7371" x="454.7602" y="486.5555">-</text><text fill="#000000" font-family="sans-serif" font-size="13.4217" lengthAdjust="spacing" textLength="206.0632" x="482.3932" y="486.5555">F&#246;derationszugeh&#246;rigkeit eines</text><text fill="#000000" font-family="sans-serif" font-size="13.4217" lengthAdjust="spacing" textLength="31.5806" x="417.653" y="502.1793">&#160;&#160;&#160;&#160;&#160;&#160;&#160;&#160;</text><text fill="#000000" font-family="sans-serif" font-size="13.4217" lengthAdjust="spacing" textLength="170.5351" x="480.8142" y="502.1793">Messenger-Service pr&#252;fen</text><text fill="#000000" font-family="sans-serif" font-size="9.4742" lengthAdjust="spacing" textLength="3.1581" x="532.9221" y="514.1388">&#160;</text><path d="M3.9476,461.4649 L3.9476,498.5721 L204.4842,498.5721 L204.4842,469.3601 L196.5891,461.4649 L3.9476,461.4649 " fill="#FEFFDD" style="stroke:#181818;stroke-width:0.39475713184271394;"/><path d="M196.5891,461.4649 L196.5891,469.3601 L204.4842,469.3601 L196.5891,461.4649 " fill="#FEFFDD" style="stroke:#181818;stroke-width:0.39475713184271394;"/><text fill="#000000" font-family="sans-serif" font-size="12.6322" lengthAdjust="spacing" textLength="152.3763" x="8.6847" y="477.138">Stufe 1 - Pr&#252;fung gem&#228;&#223;</text><text fill="#000000" font-family="sans-serif" font-size="12.6322" lengthAdjust="spacing" textLength="183.9568" x="8.6847" y="491.8427">Server-Server Kommunikation</text><polygon fill="#FF0000" points="1012.1573,560.5243,1020.0524,563.6823,1012.1573,566.8404,1015.3153,563.6823" style="stroke:#FF0000;stroke-width:0.7895142636854279;"/><line style="stroke:#FF0000;stroke-width:0.7895142636854279;" x1="464.2344" x2="1016.8944" y1="563.6823" y2="563.6823"/><text fill="#000000" font-family="sans-serif" font-size="13.4217" lengthAdjust="spacing" textLength="112.111" x="469.761" y="558.9379">HTTP(S) Forward</text><rect fill="none" height="62.1187" style="stroke:#000000;stroke-width:1.1842713955281419;" width="322.1218" x="938.7325" y="589.7363"/><path d="M938.7325,589.7363 L990.8404,589.7363 L990.8404,595.2629 L982.9453,603.1581 L938.7325,603.1581 L938.7325,589.7363 " fill="#98FB98" style="stroke:#000000;stroke-width:1.5790285273708558;"/><text fill="#000000" font-family="sans-serif" font-size="10.2637" font-weight="bold" lengthAdjust="spacing" textLength="16.5798" x="948.9961" y="600.8423">ref</text><text fill="#000000" font-family="sans-serif" font-size="13.4217" font-weight="bold" lengthAdjust="spacing" textLength="74.2143" x="941.8905" y="618.7745">AF_10064</text><text fill="#000000" font-family="sans-serif" font-size="13.4217" lengthAdjust="spacing" textLength="4.7371" x="1020.0524" y="618.7745">-</text><text fill="#000000" font-family="sans-serif" font-size="13.4217" lengthAdjust="spacing" textLength="206.0632" x="1047.6854" y="618.7745">F&#246;derationszugeh&#246;rigkeit eines</text><text fill="#000000" font-family="sans-serif" font-size="13.4217" lengthAdjust="spacing" textLength="31.5806" x="982.9453" y="634.3982">&#160;&#160;&#160;&#160;&#160;&#160;&#160;&#160;</text><text fill="#000000" font-family="sans-serif" font-size="13.4217" lengthAdjust="spacing" textLength="170.5351" x="1046.1064" y="634.3982">Messenger-Service pr&#252;fen</text><text fill="#000000" font-family="sans-serif" font-size="9.4742" lengthAdjust="spacing" textLength="3.1581" x="1098.2143" y="646.3577">&#160;</text><path d="M1266.3809,593.6839 L1266.3809,630.7911 L1466.9175,630.7911 L1466.9175,601.579 L1459.0224,593.6839 L1266.3809,593.6839 " fill="#FEFFDD" style="stroke:#181818;stroke-width:0.39475713184271394;"/><path d="M1459.0224,593.6839 L1459.0224,601.579 L1466.9175,601.579 L1459.0224,593.6839 " fill="#FEFFDD" style="stroke:#181818;stroke-width:0.39475713184271394;"/><text fill="#000000" font-family="sans-serif" font-size="12.6322" lengthAdjust="spacing" textLength="152.3763" x="1271.118" y="609.357">Stufe 1 - Pr&#252;fung gem&#228;&#223;</text><text fill="#000000" font-family="sans-serif" font-size="12.6322" lengthAdjust="spacing" textLength="183.9568" x="1271.118" y="624.0617">Server-Server Kommunikation</text><polygon fill="#FF0000" points="1376.9129,692.7433,1384.808,695.9013,1376.9129,699.0594,1380.0709,695.9013" style="stroke:#FF0000;stroke-width:0.7895142636854279;"/><line style="stroke:#FF0000;stroke-width:0.7895142636854279;" x1="1029.5266" x2="1381.65" y1="695.9013" y2="695.9013"/><text fill="#000000" font-family="sans-serif" font-size="13.4217" lengthAdjust="spacing" textLength="106.5844" x="1035.0532" y="691.1569">HTTP(S) Foward</text><line style="stroke:#000000;stroke-width:0.7895142636854279;" x1="1394.2822" x2="1427.4418" y1="757.9399" y2="757.9399"/><line style="stroke:#000000;stroke-width:0.7895142636854279;" x1="1427.4418" x2="1427.4418" y1="757.9399" y2="768.2035"/><line style="stroke:#000000;stroke-width:0.7895142636854279;" x1="1395.0717" x2="1427.4418" y1="768.2035" y2="768.2035"/><polygon fill="#000000" points="1402.9668,765.0455,1395.0717,768.2035,1402.9668,771.3616,1399.8088,768.2035" style="stroke:#000000;stroke-width:0.7895142636854279;"/><text fill="#000000" font-family="sans-serif" font-size="13.4217" lengthAdjust="spacing" textLength="38.6862" x="1399.8088" y="737.5717">Event</text><text fill="#000000" font-family="sans-serif" font-size="13.4217" lengthAdjust="spacing" textLength="76.5829" x="1399.8088" y="753.1955">verarbeiten</text><path d="M1297.9614,799.7841 L1353.2274,799.7841 L1353.2274,805.4156 L1345.3323,813.3107 L1297.9614,813.3107 L1297.9614,799.7841 " fill="#D3D3D3" style="stroke:#000000;stroke-width:1.1842713955281419;"/><rect fill="none" height="135.8951" style="stroke:#000000;stroke-width:1.1842713955281419;" width="570.8188" x="1297.9614" y="799.7841"/><text fill="#000000" font-family="sans-serif" font-size="10.2637" font-weight="bold" lengthAdjust="spacing" textLength="19.7379" x="1309.8042" y="810.1006">opt</text><text fill="#000000" font-family="sans-serif" font-size="8.6847" font-weight="bold" lengthAdjust="spacing" textLength="3.9476" x="1365.0702" y="814.0197">[</text><text fill="#000000" font-family="sans-serif" font-size="12.6322" font-weight="bold" lengthAdjust="spacing" textLength="155.5343" x="1369.0177" y="813.0887">Pushbenachrichtigung</text><text fill="#000000" font-family="sans-serif" font-size="8.6847" font-weight="bold" lengthAdjust="spacing" textLength="3.9476" x="1524.552" y="814.0197">]</text><polygon fill="#000000" points="1574.2914,853.1133,1582.1866,856.2714,1574.2914,859.4295,1577.4495,856.2714" style="stroke:#000000;stroke-width:0.7895142636854279;"/><line style="stroke:#000000;stroke-width:0.7895142636854279;" x1="1394.2822" x2="1579.0285" y1="856.2714" y2="856.2714"/><text fill="#000000" font-family="sans-serif" font-size="13.4217" lengthAdjust="spacing" textLength="174.4827" x="1399.8088" y="851.527">POST /_matrix/push/notify</text><polygon fill="#000000" points="1766.9329,879.7903,1774.8281,882.9483,1766.9329,886.1064,1770.091,882.9483" style="stroke:#000000;stroke-width:0.7895142636854279;"/><line style="stroke:#000000;stroke-width:0.7895142636854279;" x1="1591.6608" x2="1771.67" y1="882.9483" y2="882.9483"/><text fill="#000000" font-family="sans-serif" font-size="13.4217" lengthAdjust="spacing" textLength="76.5829" x="1597.1874" y="878.2039">Notification</text><polygon fill="#000000" points="1402.9668,906.4672,1395.0717,909.6253,1402.9668,912.7833,1399.8088,909.6253" style="stroke:#000000;stroke-width:0.7895142636854279;"/><line style="stroke:#000000;stroke-width:0.7895142636854279;stroke-dasharray:2.0,2.0;" x1="1398.2298" x2="1586.9237" y1="909.6253" y2="909.6253"/><text fill="#000000" font-family="sans-serif" font-size="13.4217" lengthAdjust="spacing" textLength="42.6338" x="1539.5528" y="904.8809">Status</text><polygon fill="#000000" points="1038.2113,993.7702,1030.3161,996.9283,1038.2113,1000.0864,1035.0532,996.9283" style="stroke:#000000;stroke-width:0.7895142636854279;"/><line style="stroke:#000000;stroke-width:0.7895142636854279;" x1="1033.4742" x2="1385.5975" y1="996.9283" y2="996.9283"/><text fill="#000000" font-family="sans-serif" font-size="13.4217" lengthAdjust="spacing" textLength="101.0578" x="1275.8551" y="976.5601">Matrix-Request</text><text fill="#000000" font-family="sans-serif" font-size="13.4217" lengthAdjust="spacing" textLength="79.7409" x="1275.8551" y="992.1839">an Client-B)</text><polygon fill="#000000" points="1762.9854,1020.4472,1770.8805,1023.6052,1762.9854,1026.7633,1766.1434,1023.6052" style="stroke:#000000;stroke-width:0.7895142636854279;"/><line style="stroke:#000000;stroke-width:0.7895142636854279;" x1="1029.5266" x2="1767.7224" y1="1023.6052" y2="1023.6052"/><text fill="#000000" font-family="sans-serif" font-size="13.4217" lengthAdjust="spacing" textLength="112.111" x="1035.0532" y="1018.8608">HTTP(S) Forward</text><line style="stroke:#000000;stroke-width:0.7895142636854279;" x1="1780.3547" x2="1813.5143" y1="1050.2822" y2="1050.2822"/><line style="stroke:#000000;stroke-width:0.7895142636854279;" x1="1813.5143" x2="1813.5143" y1="1050.2822" y2="1060.5459"/><line style="stroke:#000000;stroke-width:0.7895142636854279;" x1="1781.1442" x2="1813.5143" y1="1060.5459" y2="1060.5459"/><polygon fill="#000000" points="1789.0393,1057.3878,1781.1442,1060.5459,1789.0393,1063.7039,1785.8813,1060.5459" style="stroke:#000000;stroke-width:0.7895142636854279;"/><text fill="#000000" font-family="sans-serif" font-size="13.4217" lengthAdjust="spacing" textLength="119.2167" x="1785.8813" y="1045.5378">Event verarbeiten</text><polygon fill="#000000" points="1038.2113,1084.0648,1030.3161,1087.2228,1038.2113,1090.3809,1035.0532,1087.2228" style="stroke:#000000;stroke-width:0.7895142636854279;"/><line style="stroke:#000000;stroke-width:0.7895142636854279;stroke-dasharray:2.0,2.0;" x1="1033.4742" x2="1771.67" y1="1087.2228" y2="1087.2228"/><text fill="#000000" font-family="sans-serif" font-size="13.4217" lengthAdjust="spacing" textLength="42.6338" x="1724.2992" y="1082.4784">Status</text><polygon fill="#000000" points="1376.9129,1146.1033,1384.808,1149.2614,1376.9129,1152.4194,1380.0709,1149.2614" style="stroke:#000000;stroke-width:0.7895142636854279;"/><line style="stroke:#000000;stroke-width:0.7895142636854279;stroke-dasharray:2.0,2.0;" x1="1029.5266" x2="1381.65" y1="1149.2614" y2="1149.2614"/><text fill="#000000" font-family="sans-serif" font-size="13.4217" lengthAdjust="spacing" textLength="112.111" x="1035.0532" y="1128.8932">HTTP(S) Forward</text><text fill="#000000" font-family="sans-serif" font-size="13.4217" lengthAdjust="spacing" textLength="111.3215" x="1035.0532" y="1144.517">(Status Client-B)</text><polygon fill="#FF0000" points="1038.2113,1172.7803,1030.3161,1175.9383,1038.2113,1179.0964,1035.0532,1175.9383" style="stroke:#FF0000;stroke-width:0.7895142636854279;"/><line style="stroke:#FF0000;stroke-width:0.7895142636854279;stroke-dasharray:2.0,2.0;" x1="1033.4742" x2="1389.5451" y1="1175.9383" y2="1175.9383"/><text fill="#000000" font-family="sans-serif" font-size="13.4217" lengthAdjust="spacing" textLength="158.6924" x="1226.1157" y="1171.1939">Status (Matrix-Request)</text><polygon fill="#000000" points="1762.9854,1199.4572,1770.8805,1202.6153,1762.9854,1205.7733,1766.1434,1202.6153" style="stroke:#000000;stroke-width:0.7895142636854279;"/><line style="stroke:#000000;stroke-width:0.7895142636854279;stroke-dasharray:2.0,2.0;" x1="1029.5266" x2="1767.7224" y1="1202.6153" y2="1202.6153"/><text fill="#000000" font-family="sans-serif" font-size="13.4217" lengthAdjust="spacing" textLength="112.111" x="1035.0532" y="1197.8709">HTTP(S) Forward</text><polygon fill="#000000" points="1947.7317,1226.1342,1955.6268,1229.2922,1947.7317,1232.4503,1950.8897,1229.2922" style="stroke:#000000;stroke-width:0.7895142636854279;"/><line style="stroke:#000000;stroke-width:0.7895142636854279;" x1="1776.4071" x2="1952.4688" y1="1229.2922" y2="1229.2922"/><text fill="#000000" font-family="sans-serif" font-size="13.4217" lengthAdjust="spacing" textLength="42.6338" x="1781.9337" y="1224.5478">Status</text><polygon fill="#000000" points="472.919,1252.8111,465.0239,1255.9692,472.919,1259.1272,469.761,1255.9692" style="stroke:#000000;stroke-width:0.7895142636854279;"/><line style="stroke:#000000;stroke-width:0.7895142636854279;stroke-dasharray:2.0,2.0;" x1="468.182" x2="1024.7895" y1="1255.9692" y2="1255.9692"/><text fill="#000000" font-family="sans-serif" font-size="13.4217" lengthAdjust="spacing" textLength="112.111" x="907.9414" y="1251.2247">HTTP(S) Forward</text><polygon fill="#000000" points="280.2776,1279.488,272.3824,1282.6461,280.2776,1285.8042,277.1195,1282.6461" style="stroke:#000000;stroke-width:0.7895142636854279;"/><line style="stroke:#000000;stroke-width:0.7895142636854279;stroke-dasharray:2.0,2.0;" x1="275.5405" x2="459.4973" y1="1282.6461" y2="1282.6461"/><text fill="#000000" font-family="sans-serif" font-size="13.4217" lengthAdjust="spacing" textLength="42.6338" x="412.1264" y="1277.9017">Status</text></g></svg>