<?xml version="1.0" encoding="us-ascii" standalone="no"?><svg xmlns="http://www.w3.org/2000/svg" xmlns:xlink="http://www.w3.org/1999/xlink" contentStyleType="text/css" height="1778.4506px" preserveAspectRatio="none" style="width:2048px;height:1778px;background:#FFFFFF;" version="1.1" viewBox="0 0 2048 1778" width="2048.9593px" zoomAndPan="magnify"><defs/><g><rect fill="#F5F5F5" height="1767.6365" style="stroke:#181818;stroke-width:0.47962529274004684;" width="427.8258" x="456.6033" y="5.7555"/><text fill="#000000" font-family="sans-serif" font-size="17.2665" font-weight="bold" lengthAdjust="spacing" textLength="204.3204" x="565.9578" y="21.7827">Messenger-Service A</text><text fill="#000000" font-family="sans-serif" font-size="12.4703" font-weight="bold" lengthAdjust="spacing" textLength="4.7963" x="770.2782" y="22.9138">&#160;</text><rect fill="#F5F5F5" height="1767.6365" style="stroke:#181818;stroke-width:0.47962529274004684;" width="678.1902" x="915.1251" y="5.7555"/><text fill="#000000" font-family="sans-serif" font-size="17.2665" font-weight="bold" lengthAdjust="spacing" textLength="204.3204" x="1149.6618" y="21.7827">Messenger-Service B</text><text fill="#000000" font-family="sans-serif" font-size="12.4703" font-weight="bold" lengthAdjust="spacing" textLength="4.7963" x="1353.9822" y="22.9138">&#160;</text><rect fill="#F0F8FF" height="1219.26" style="stroke:#000000;stroke-width:0.9592505854800937;" width="9.5925" x="329.023" y="339.14"/><rect fill="#DCDCDC" height="1186.8478" style="stroke:#000000;stroke-width:0.9592505854800937;" width="9.5925" x="558.2838" y="371.5522"/><rect fill="#DCDCDC" height="120.2585" style="stroke:#000000;stroke-width:0.9592505854800937;" width="9.5925" x="773.156" y="403.9644"/><rect fill="#DCDCDC" height="841.1204" style="stroke:#000000;stroke-width:0.9592505854800937;" width="9.5925" x="1016.8056" y="684.8674"/><rect fill="#DCDCDC" height="583.2393" style="stroke:#000000;stroke-width:0.9592505854800937;" width="9.5925" x="1242.2295" y="845.5119"/><rect fill="#DCDCDC" height="64.8244" style="stroke:#000000;stroke-width:0.9592505854800937;" width="9.5925" x="1482.0422" y="1040.3597"/><rect fill="#C9FFC9" height="249.9073" style="stroke:#000000;stroke-width:0.9592505854800937;" width="9.5925" x="1711.303" y="1243.6684"/><rect fill="#F0F8FF" height="165.111" style="stroke:#000000;stroke-width:1.4388758782201405;" width="693.5382" x="1134.7934" y="971.7283"/><line style="stroke:#000000;stroke-width:0.47962529274004684;stroke-dasharray:5.0,5.0;" x1="113.1916" x2="113.1916" y1="151.6815" y2="1623.629"/><line style="stroke:#000000;stroke-width:0.47962529274004684;stroke-dasharray:5.0,5.0;" x1="333.8192" x2="333.8192" y1="151.6815" y2="1623.629"/><line style="stroke:#000000;stroke-width:0.47962529274004684;stroke-dasharray:5.0,5.0;" x1="563.0801" x2="563.0801" y1="151.6815" y2="1623.629"/><line style="stroke:#000000;stroke-width:0.47962529274004684;stroke-dasharray:5.0,5.0;" x1="777.9522" x2="777.9522" y1="151.6815" y2="1623.629"/><line style="stroke:#000000;stroke-width:0.47962529274004684;stroke-dasharray:5.0,5.0;" x1="1021.6019" x2="1021.6019" y1="151.6815" y2="1623.629"/><line style="stroke:#000000;stroke-width:0.47962529274004684;stroke-dasharray:5.0,5.0;" x1="1247.0258" x2="1247.0258" y1="151.6815" y2="1623.629"/><line style="stroke:#000000;stroke-width:0.47962529274004684;stroke-dasharray:5.0,5.0;" x1="1486.8384" x2="1486.8384" y1="151.6815" y2="1623.629"/><line style="stroke:#000000;stroke-width:0.47962529274004684;stroke-dasharray:5.0,5.0;" x1="1716.0993" x2="1716.0993" y1="151.6815" y2="1623.629"/><line style="stroke:#000000;stroke-width:0.47962529274004684;stroke-dasharray:5.0,5.0;" x1="1936.7269" x2="1936.7269" y1="151.6815" y2="1623.629"/><text fill="#000000" font-family="Aapex" font-size="19.185" lengthAdjust="spacing" textLength="5.7555" x="107.4361" y="80.1593">&#160;</text><text fill="#000000" font-family="Aapex" font-size="19.185" lengthAdjust="spacing" textLength="211.0351" x="4.7963" y="102.4918">Akteur - A in der Rolle</text><text fill="#000000" font-family="Aapex" font-size="19.185" lengthAdjust="spacing" textLength="152.5208" x="34.0534" y="124.8244">User / User-HBA</text><text fill="#000000" font-family="Aapex" font-size="19.185" lengthAdjust="spacing" textLength="5.7555" x="107.4361" y="147.1569">&#160;</text><ellipse cx="113.1916" cy="12.9499" fill="#DCDCDC" rx="7.674" ry="7.674" style="stroke:#000000;stroke-width:0.47962529274004684;"/><path d="M113.1916,20.6239 L113.1916,46.5237 M100.7213,28.2979 L125.6618,28.2979 M113.1916,46.5237 L100.7213,60.9124 M113.1916,46.5237 L125.6618,60.9124 " fill="none" style="stroke:#000000;stroke-width:0.47962529274004684;"/><text fill="#000000" font-family="Aapex" font-size="19.185" lengthAdjust="spacing" textLength="5.7555" x="107.4361" y="1640.4778">&#160;</text><text fill="#000000" font-family="Aapex" font-size="19.185" lengthAdjust="spacing" textLength="211.0351" x="4.7963" y="1662.8103">Akteur - A in der Rolle</text><text fill="#000000" font-family="Aapex" font-size="19.185" lengthAdjust="spacing" textLength="152.5208" x="34.0534" y="1685.1429">User / User-HBA</text><text fill="#000000" font-family="Aapex" font-size="19.185" lengthAdjust="spacing" textLength="5.7555" x="107.4361" y="1707.4754">&#160;</text><ellipse cx="113.1916" cy="1720.1536" fill="#DCDCDC" rx="7.674" ry="7.674" style="stroke:#000000;stroke-width:0.47962529274004684;"/><path d="M113.1916,1727.8276 L113.1916,1753.7274 M100.7213,1735.5016 L125.6618,1735.5016 M113.1916,1753.7274 L100.7213,1768.1162 M113.1916,1753.7274 L125.6618,1768.1162 " fill="none" style="stroke:#000000;stroke-width:0.47962529274004684;"/><rect fill="#F0F8FF" height="58.0946" rx="2.3981" ry="2.3981" style="stroke:#000000;stroke-width:0.47962529274004684;" width="205.2796" x="231.1794" y="92.6276"/><text fill="#000000" font-family="Impact" font-size="19.185" lengthAdjust="spacing" textLength="133.3358" x="267.1513" y="117.1504">TI-Messenger-</text><text fill="#000000" font-family="Impact" font-size="19.185" lengthAdjust="spacing" textLength="56.5958" x="305.5213" y="139.4829">Client</text><rect fill="#F0F8FF" height="58.0946" rx="2.3981" ry="2.3981" style="stroke:#000000;stroke-width:0.47962529274004684;" width="205.2796" x="231.1794" y="1622.6698"/><text fill="#000000" font-family="Impact" font-size="19.185" lengthAdjust="spacing" textLength="133.3358" x="267.1513" y="1647.1925">TI-Messenger-</text><text fill="#000000" font-family="Impact" font-size="19.185" lengthAdjust="spacing" textLength="56.5958" x="305.5213" y="1669.5251">Client</text><rect fill="#EFEFFF" height="58.0946" rx="2.3981" ry="2.3981" style="stroke:#000000;stroke-width:0.47962529274004684;" width="205.2796" x="460.4403" y="92.6276"/><text fill="#000000" font-family="Impact" font-size="19.185" lengthAdjust="spacing" textLength="109.3546" x="508.4028" y="117.1504">Messenger-</text><text fill="#000000" font-family="Impact" font-size="19.185" lengthAdjust="spacing" textLength="51.7995" x="537.1803" y="139.4829">Proxy</text><rect fill="#EFEFFF" height="58.0946" rx="2.3981" ry="2.3981" style="stroke:#000000;stroke-width:0.47962529274004684;" width="205.2796" x="460.4403" y="1622.6698"/><text fill="#000000" font-family="Impact" font-size="19.185" lengthAdjust="spacing" textLength="109.3546" x="508.4028" y="1647.1925">Messenger-</text><text fill="#000000" font-family="Impact" font-size="19.185" lengthAdjust="spacing" textLength="51.7995" x="537.1803" y="1669.5251">Proxy</text><rect fill="#EFEFFF" height="58.0946" rx="2.3981" ry="2.3981" style="stroke:#000000;stroke-width:0.47962529274004684;" width="205.2796" x="675.3124" y="92.6276"/><text fill="#000000" font-family="Impact" font-size="19.185" lengthAdjust="spacing" textLength="66.1883" x="744.8581" y="117.1504">Matrix-</text><text fill="#000000" font-family="Impact" font-size="19.185" lengthAdjust="spacing" textLength="115.1101" x="720.3972" y="139.4829">Homeserver</text><rect fill="#EFEFFF" height="58.0946" rx="2.3981" ry="2.3981" style="stroke:#000000;stroke-width:0.47962529274004684;" width="205.2796" x="675.3124" y="1622.6698"/><text fill="#000000" font-family="Impact" font-size="19.185" lengthAdjust="spacing" textLength="66.1883" x="744.8581" y="1647.1925">Matrix-</text><text fill="#000000" font-family="Impact" font-size="19.185" lengthAdjust="spacing" textLength="115.1101" x="720.3972" y="1669.5251">Homeserver</text><rect fill="#EFEFFF" height="58.0946" rx="2.3981" ry="2.3981" style="stroke:#000000;stroke-width:0.47962529274004684;" width="205.2796" x="918.9621" y="92.6276"/><text fill="#000000" font-family="Impact" font-size="19.185" lengthAdjust="spacing" textLength="109.3546" x="966.9246" y="117.1504">Messenger-</text><text fill="#000000" font-family="Impact" font-size="19.185" lengthAdjust="spacing" textLength="51.7995" x="995.7021" y="139.4829">Proxy</text><rect fill="#EFEFFF" height="58.0946" rx="2.3981" ry="2.3981" style="stroke:#000000;stroke-width:0.47962529274004684;" width="205.2796" x="918.9621" y="1622.6698"/><text fill="#000000" font-family="Impact" font-size="19.185" lengthAdjust="spacing" textLength="109.3546" x="966.9246" y="1647.1925">Messenger-</text><text fill="#000000" font-family="Impact" font-size="19.185" lengthAdjust="spacing" textLength="51.7995" x="995.7021" y="1669.5251">Proxy</text><rect fill="#EFEFFF" height="58.0946" rx="2.3981" ry="2.3981" style="stroke:#000000;stroke-width:0.47962529274004684;" width="205.2796" x="1144.3859" y="92.6276"/><text fill="#000000" font-family="Impact" font-size="19.185" lengthAdjust="spacing" textLength="66.1883" x="1213.9316" y="117.1504">Matrix-</text><text fill="#000000" font-family="Impact" font-size="19.185" lengthAdjust="spacing" textLength="115.1101" x="1189.4707" y="139.4829">Homeserver</text><rect fill="#EFEFFF" height="58.0946" rx="2.3981" ry="2.3981" style="stroke:#000000;stroke-width:0.47962529274004684;" width="205.2796" x="1144.3859" y="1622.6698"/><text fill="#000000" font-family="Impact" font-size="19.185" lengthAdjust="spacing" textLength="66.1883" x="1213.9316" y="1647.1925">Matrix-</text><text fill="#000000" font-family="Impact" font-size="19.185" lengthAdjust="spacing" textLength="115.1101" x="1189.4707" y="1669.5251">Homeserver</text><rect fill="#EFEFFF" height="58.0946" rx="2.3981" ry="2.3981" style="stroke:#000000;stroke-width:0.47962529274004684;" width="205.2796" x="1384.1986" y="92.6276"/><text fill="#000000" font-family="Impact" font-size="19.185" lengthAdjust="spacing" textLength="52.7588" x="1460.459" y="117.1504">Push-</text><text fill="#000000" font-family="Impact" font-size="19.185" lengthAdjust="spacing" textLength="84.4141" x="1444.6314" y="139.4829">Gateway</text><rect fill="#EFEFFF" height="58.0946" rx="2.3981" ry="2.3981" style="stroke:#000000;stroke-width:0.47962529274004684;" width="205.2796" x="1384.1986" y="1622.6698"/><text fill="#000000" font-family="Impact" font-size="19.185" lengthAdjust="spacing" textLength="52.7588" x="1460.459" y="1647.1925">Push-</text><text fill="#000000" font-family="Impact" font-size="19.185" lengthAdjust="spacing" textLength="84.4141" x="1444.6314" y="1669.5251">Gateway</text><rect fill="#C9FFC9" height="58.0946" rx="2.3981" ry="2.3981" style="stroke:#000000;stroke-width:0.47962529274004684;" width="205.2796" x="1613.4595" y="92.6276"/><text fill="#000000" font-family="Impact" font-size="19.185" lengthAdjust="spacing" textLength="133.3358" x="1649.4314" y="117.1504">TI-Messenger-</text><text fill="#000000" font-family="Impact" font-size="19.185" lengthAdjust="spacing" textLength="56.5958" x="1687.8014" y="139.4829">Client</text><rect fill="#C9FFC9" height="58.0946" rx="2.3981" ry="2.3981" style="stroke:#000000;stroke-width:0.47962529274004684;" width="205.2796" x="1613.4595" y="1622.6698"/><text fill="#000000" font-family="Impact" font-size="19.185" lengthAdjust="spacing" textLength="133.3358" x="1649.4314" y="1647.1925">TI-Messenger-</text><text fill="#000000" font-family="Impact" font-size="19.185" lengthAdjust="spacing" textLength="56.5958" x="1687.8014" y="1669.5251">Client</text><text fill="#000000" font-family="Aapex" font-size="19.185" lengthAdjust="spacing" textLength="5.7555" x="1930.9714" y="80.1593">&#160;</text><text fill="#000000" font-family="Aapex" font-size="19.185" lengthAdjust="spacing" textLength="211.0351" x="1828.3316" y="102.4918">Akteur - B in der Rolle</text><text fill="#000000" font-family="Aapex" font-size="19.185" lengthAdjust="spacing" textLength="152.5208" x="1857.5888" y="124.8244">User / User-HBA</text><text fill="#000000" font-family="Aapex" font-size="19.185" lengthAdjust="spacing" textLength="5.7555" x="1930.9714" y="147.1569">&#160;</text><ellipse cx="1936.7269" cy="12.9499" fill="#DCDCDC" rx="7.674" ry="7.674" style="stroke:#000000;stroke-width:0.47962529274004684;"/><path d="M1936.7269,20.6239 L1936.7269,46.5237 M1924.2567,28.2979 L1949.1972,28.2979 M1936.7269,46.5237 L1924.2567,60.9124 M1936.7269,46.5237 L1949.1972,60.9124 " fill="none" style="stroke:#000000;stroke-width:0.47962529274004684;"/><text fill="#000000" font-family="Aapex" font-size="19.185" lengthAdjust="spacing" textLength="5.7555" x="1930.9714" y="1640.4778">&#160;</text><text fill="#000000" font-family="Aapex" font-size="19.185" lengthAdjust="spacing" textLength="211.0351" x="1828.3316" y="1662.8103">Akteur - B in der Rolle</text><text fill="#000000" font-family="Aapex" font-size="19.185" lengthAdjust="spacing" textLength="152.5208" x="1857.5888" y="1685.1429">User / User-HBA</text><text fill="#000000" font-family="Aapex" font-size="19.185" lengthAdjust="spacing" textLength="5.7555" x="1930.9714" y="1707.4754">&#160;</text><ellipse cx="1936.7269" cy="1720.1536" fill="#DCDCDC" rx="7.674" ry="7.674" style="stroke:#000000;stroke-width:0.47962529274004684;"/><path d="M1936.7269,1727.8276 L1936.7269,1753.7274 M1924.2567,1735.5016 L1949.1972,1735.5016 M1936.7269,1753.7274 L1924.2567,1768.1162 M1936.7269,1753.7274 L1949.1972,1768.1162 " fill="none" style="stroke:#000000;stroke-width:0.47962529274004684;"/><rect fill="#F0F8FF" height="1219.26" style="stroke:#000000;stroke-width:0.9592505854800937;" width="9.5925" x="329.023" y="339.14"/><rect fill="#DCDCDC" height="1186.8478" style="stroke:#000000;stroke-width:0.9592505854800937;" width="9.5925" x="558.2838" y="371.5522"/><rect fill="#DCDCDC" height="120.2585" style="stroke:#000000;stroke-width:0.9592505854800937;" width="9.5925" x="773.156" y="403.9644"/><rect fill="#DCDCDC" height="841.1204" style="stroke:#000000;stroke-width:0.9592505854800937;" width="9.5925" x="1016.8056" y="684.8674"/><rect fill="#DCDCDC" height="583.2393" style="stroke:#000000;stroke-width:0.9592505854800937;" width="9.5925" x="1242.2295" y="845.5119"/><rect fill="#DCDCDC" height="64.8244" style="stroke:#000000;stroke-width:0.9592505854800937;" width="9.5925" x="1482.0422" y="1040.3597"/><rect fill="#C9FFC9" height="249.9073" style="stroke:#000000;stroke-width:0.9592505854800937;" width="9.5925" x="1711.303" y="1243.6684"/><path d="M6.7148,190.0515 L6.7148,265.8323 L2042.2445,265.8323 L2042.2445,199.644 L2032.652,190.0515 L6.7148,190.0515 " fill="#FEFFDD" style="stroke:#181818;stroke-width:0.47962529274004684;"/><path d="M2032.652,190.0515 L2032.652,199.644 L2042.2445,199.644 L2032.652,190.0515 " fill="#FEFFDD" style="stroke:#181818;stroke-width:0.47962529274004684;"/><text fill="#000000" font-family="sans-serif" font-size="12.4703" lengthAdjust="spacing" textLength="3.837" x="537.1803" y="206.423">&#160;</text><text fill="#000000" font-family="sans-serif" font-size="16.3073" lengthAdjust="spacing" textLength="965.9653" x="537.1803" y="224.5007">Die Akteure sind auf dem selben Messenger-Service angemeldet und im Besitz eines zugelassenen TI-Messenger-Clients.</text><text fill="#000000" font-family="sans-serif" font-size="16.3073" lengthAdjust="spacing" textLength="556.3653" x="537.1803" y="243.4834">Ebenfalls sind beide Akteure einem gemeinsamen Raum beigetreten.</text><text fill="#000000" font-family="sans-serif" font-size="12.4703" lengthAdjust="spacing" textLength="3.837" x="537.1803" y="258.9044">&#160;</text><polygon fill="#000000" points="317.5119,335.303,327.1044,339.14,317.5119,342.977,321.3489,339.14" style="stroke:#000000;stroke-width:0.9592505854800937;"/><line style="stroke:#000000;stroke-width:0.9592505854800937;" x1="113.1916" x2="323.2674" y1="339.14" y2="339.14"/><text fill="#000000" font-family="sans-serif" font-size="16.3073" lengthAdjust="spacing" textLength="102.6398" x="119.9063" y="314.393">Akteur A l&#246;st</text><text fill="#000000" font-family="sans-serif" font-size="16.3073" lengthAdjust="spacing" textLength="137.1728" x="119.9063" y="333.3756">Matrix-Event aus</text><polygon fill="#FF0000" points="546.7728,367.7152,556.3653,371.5522,546.7728,375.3892,550.6098,371.5522" style="stroke:#FF0000;stroke-width:0.9592505854800937;"/><line style="stroke:#FF0000;stroke-width:0.9592505854800937;" x1="338.6155" x2="552.5283" y1="371.5522" y2="371.5522"/><text fill="#000000" font-family="sans-serif" font-size="16.3073" lengthAdjust="spacing" textLength="122.7841" x="345.3302" y="365.7878">Matrix-Request</text><polygon fill="#FF0000" points="761.645,400.1274,771.2375,403.9644,761.645,407.8014,765.482,403.9644" style="stroke:#FF0000;stroke-width:0.9592505854800937;"/><line style="stroke:#FF0000;stroke-width:0.9592505854800937;" x1="567.8763" x2="767.4005" y1="403.9644" y2="403.9644"/><text fill="#000000" font-family="sans-serif" font-size="16.3073" lengthAdjust="spacing" textLength="136.2136" x="574.5911" y="398.2">HTTP(S) Forward</text><line style="stroke:#000000;stroke-width:0.9592505854800937;" x1="782.7485" x2="823.037" y1="455.3593" y2="455.3593"/><line style="stroke:#000000;stroke-width:0.9592505854800937;" x1="823.037" x2="823.037" y1="455.3593" y2="467.8295"/><line style="stroke:#000000;stroke-width:0.9592505854800937;" x1="783.7077" x2="823.037" y1="467.8295" y2="467.8295"/><polygon fill="#000000" points="793.3002,463.9925,783.7077,467.8295,793.3002,471.6665,789.4632,467.8295" style="stroke:#000000;stroke-width:0.9592505854800937;"/><text fill="#000000" font-family="sans-serif" font-size="16.3073" lengthAdjust="spacing" textLength="47.0033" x="789.4632" y="430.6122">Event</text><text fill="#000000" font-family="sans-serif" font-size="16.3073" lengthAdjust="spacing" textLength="93.0473" x="789.4632" y="449.5948">verarbeiten</text><polygon fill="#000000" points="578.4281,520.3859,568.8356,524.223,578.4281,528.06,574.5911,524.223" style="stroke:#000000;stroke-width:0.9592505854800937;"/><line style="stroke:#000000;stroke-width:0.9592505854800937;" x1="572.6726" x2="776.993" y1="524.223" y2="524.223"/><text fill="#000000" font-family="sans-serif" font-size="16.3073" lengthAdjust="spacing" textLength="122.7841" x="648.4534" y="518.4585">Matrix-Request</text><rect fill="none" height="75.4735" style="stroke:#000000;stroke-width:1.4388758782201405;" width="254.2014" x="457.5625" y="555.8782"/><path d="M457.5625,555.8782 L520.8731,555.8782 L520.8731,562.593 L511.2806,572.1855 L457.5625,572.1855 L457.5625,555.8782 " fill="#98FB98" style="stroke:#000000;stroke-width:1.9185011709601874;"/><text fill="#000000" font-family="sans-serif" font-size="12.4703" font-weight="bold" lengthAdjust="spacing" textLength="20.1443" x="470.0328" y="569.3719">ref</text><text fill="#000000" font-family="sans-serif" font-size="16.3073" lengthAdjust="spacing" textLength="137.1728" x="513.6787" y="591.1593">Stufe 1 - Pr&#252;fung</text><text fill="#000000" font-family="sans-serif" font-size="16.3073" lengthAdjust="spacing" textLength="246.5274" x="461.3995" y="610.1419">Server-Server Kommunikation</text><text fill="#000000" font-family="sans-serif" font-size="11.511" lengthAdjust="spacing" textLength="3.837" x="582.7447" y="624.6726">&#160;</text><polygon fill="#FF0000" points="1005.2946,681.0304,1014.8871,684.8674,1005.2946,688.7044,1009.1316,684.8674" style="stroke:#FF0000;stroke-width:0.9592505854800937;"/><line style="stroke:#FF0000;stroke-width:0.9592505854800937;" x1="567.8763" x2="1011.0501" y1="684.8674" y2="684.8674"/><text fill="#000000" font-family="sans-serif" font-size="16.3073" lengthAdjust="spacing" textLength="136.2136" x="574.5911" y="679.103">HTTP(S) Forward</text><rect fill="none" height="75.4735" style="stroke:#000000;stroke-width:1.4388758782201405;" width="254.2014" x="916.0843" y="716.5227"/><path d="M916.0843,716.5227 L979.3948,716.5227 L979.3948,723.2375 L969.8023,732.83 L916.0843,732.83 L916.0843,716.5227 " fill="#98FB98" style="stroke:#000000;stroke-width:1.9185011709601874;"/><text fill="#000000" font-family="sans-serif" font-size="12.4703" font-weight="bold" lengthAdjust="spacing" textLength="20.1443" x="928.5546" y="730.0164">ref</text><text fill="#000000" font-family="sans-serif" font-size="16.3073" lengthAdjust="spacing" textLength="137.1728" x="972.2005" y="751.8037">Stufe 1 - Pr&#252;fung</text><text fill="#000000" font-family="sans-serif" font-size="16.3073" lengthAdjust="spacing" textLength="246.5274" x="919.9213" y="770.7864">Server-Server Kommunikation</text><text fill="#000000" font-family="sans-serif" font-size="11.511" lengthAdjust="spacing" textLength="3.837" x="1041.2665" y="785.3171">&#160;</text><polygon fill="#FF0000" points="1230.7185,841.6749,1240.311,845.5119,1230.7185,849.3489,1234.5555,845.5119" style="stroke:#FF0000;stroke-width:0.9592505854800937;"/><line style="stroke:#FF0000;stroke-width:0.9592505854800937;" x1="1026.3981" x2="1236.474" y1="845.5119" y2="845.5119"/><text fill="#000000" font-family="sans-serif" font-size="16.3073" lengthAdjust="spacing" textLength="129.4988" x="1033.1129" y="839.7475">HTTP(S) Foward</text><line style="stroke:#000000;stroke-width:0.9592505854800937;" x1="1251.822" x2="1292.1105" y1="920.8881" y2="920.8881"/><line style="stroke:#000000;stroke-width:0.9592505854800937;" x1="1292.1105" x2="1292.1105" y1="920.8881" y2="933.3583"/><line style="stroke:#000000;stroke-width:0.9592505854800937;" x1="1252.7813" x2="1292.1105" y1="933.3583" y2="933.3583"/><polygon fill="#000000" points="1262.3738,929.5213,1252.7813,933.3583,1262.3738,937.1953,1258.5368,933.3583" style="stroke:#000000;stroke-width:0.9592505854800937;"/><text fill="#000000" font-family="sans-serif" font-size="16.3073" lengthAdjust="spacing" textLength="47.0033" x="1258.5368" y="896.141">Event</text><text fill="#000000" font-family="sans-serif" font-size="16.3073" lengthAdjust="spacing" textLength="93.0473" x="1258.5368" y="915.1237">verarbeiten</text><path d="M1134.7934,971.7283 L1201.941,971.7283 L1201.941,978.5705 L1192.3485,988.163 L1134.7934,988.163 L1134.7934,971.7283 " fill="#D3D3D3" style="stroke:#000000;stroke-width:1.4388758782201405;"/><rect fill="none" height="165.111" style="stroke:#000000;stroke-width:1.4388758782201405;" width="693.5382" x="1134.7934" y="971.7283"/><text fill="#000000" font-family="sans-serif" font-size="12.4703" font-weight="bold" lengthAdjust="spacing" textLength="23.9813" x="1149.1822" y="984.2628">opt</text><text fill="#000000" font-family="sans-serif" font-size="10.5518" font-weight="bold" lengthAdjust="spacing" textLength="4.7963" x="1216.3297" y="989.0244">[</text><text fill="#000000" font-family="sans-serif" font-size="15.348" font-weight="bold" lengthAdjust="spacing" textLength="188.9724" x="1221.126" y="987.8932">Pushbenachrichtigung</text><text fill="#000000" font-family="sans-serif" font-size="10.5518" font-weight="bold" lengthAdjust="spacing" textLength="4.7963" x="1410.0984" y="989.0244">]</text><polygon fill="#000000" points="1470.5311,1036.5227,1480.1237,1040.3597,1470.5311,1044.1967,1474.3681,1040.3597" style="stroke:#000000;stroke-width:0.9592505854800937;"/><line style="stroke:#000000;stroke-width:0.9592505854800937;" x1="1251.822" x2="1476.2867" y1="1040.3597" y2="1040.3597"/><text fill="#000000" font-family="sans-serif" font-size="16.3073" lengthAdjust="spacing" textLength="211.9944" x="1258.5368" y="1034.5953">POST /_matrix/push/notify</text><polygon fill="#000000" points="1704.5883,1068.9349,1714.1808,1072.7719,1704.5883,1076.6089,1708.4253,1072.7719" style="stroke:#000000;stroke-width:0.9592505854800937;"/><line style="stroke:#000000;stroke-width:0.9592505854800937;" x1="1491.6347" x2="1710.3438" y1="1072.7719" y2="1072.7719"/><text fill="#000000" font-family="sans-serif" font-size="16.3073" lengthAdjust="spacing" textLength="93.0473" x="1498.3494" y="1067.0075">Notification</text><polygon fill="#000000" points="1262.3738,1101.3471,1252.7813,1105.1841,1262.3738,1109.0211,1258.5368,1105.1841" style="stroke:#000000;stroke-width:0.9592505854800937;"/><line style="stroke:#000000;stroke-width:0.9592505854800937;stroke-dasharray:2.0,2.0;" x1="1256.6183" x2="1485.8792" y1="1105.1841" y2="1105.1841"/><text fill="#000000" font-family="sans-serif" font-size="16.3073" lengthAdjust="spacing" textLength="51.7995" x="1428.3241" y="1099.4197">Status</text><polygon fill="#000000" points="1036.9499,1207.4192,1027.3574,1211.2562,1036.9499,1215.0932,1033.1129,1211.2562" style="stroke:#000000;stroke-width:0.9592505854800937;"/><line style="stroke:#000000;stroke-width:0.9592505854800937;" x1="1031.1944" x2="1241.2703" y1="1211.2562" y2="1211.2562"/><text fill="#000000" font-family="sans-serif" font-size="16.3073" lengthAdjust="spacing" textLength="122.7841" x="1107.9344" y="1186.5091">Matrix-Request</text><text fill="#000000" font-family="sans-serif" font-size="16.3073" lengthAdjust="spacing" textLength="96.8843" x="1107.9344" y="1205.4918">an Client-B)</text><polygon fill="#000000" points="1699.792,1239.8314,1709.3845,1243.6684,1699.792,1247.5054,1703.629,1243.6684" style="stroke:#000000;stroke-width:0.9592505854800937;"/><line style="stroke:#000000;stroke-width:0.9592505854800937;" x1="1026.3981" x2="1705.5475" y1="1243.6684" y2="1243.6684"/><text fill="#000000" font-family="sans-serif" font-size="16.3073" lengthAdjust="spacing" textLength="136.2136" x="1033.1129" y="1237.904">HTTP(S) Forward</text><line style="stroke:#000000;stroke-width:0.9592505854800937;" x1="1720.8956" x2="1761.1841" y1="1276.0806" y2="1276.0806"/><line style="stroke:#000000;stroke-width:0.9592505854800937;" x1="1761.1841" x2="1761.1841" y1="1276.0806" y2="1288.5508"/><line style="stroke:#000000;stroke-width:0.9592505854800937;" x1="1721.8548" x2="1761.1841" y1="1288.5508" y2="1288.5508"/><polygon fill="#000000" points="1731.4473,1284.7138,1721.8548,1288.5508,1731.4473,1292.3878,1727.6103,1288.5508" style="stroke:#000000;stroke-width:0.9592505854800937;"/><text fill="#000000" font-family="sans-serif" font-size="16.3073" lengthAdjust="spacing" textLength="144.8468" x="1727.6103" y="1270.3162">Event verarbeiten</text><polygon fill="#000000" points="1036.9499,1317.126,1027.3574,1320.963,1036.9499,1324.8,1033.1129,1320.963" style="stroke:#000000;stroke-width:0.9592505854800937;"/><line style="stroke:#000000;stroke-width:0.9592505854800937;stroke-dasharray:2.0,2.0;" x1="1031.1944" x2="1710.3438" y1="1320.963" y2="1320.963"/><text fill="#000000" font-family="sans-serif" font-size="16.3073" lengthAdjust="spacing" textLength="51.7995" x="1652.7888" y="1315.1986">Status</text><polygon fill="#000000" points="1230.7185,1392.5021,1240.311,1396.3391,1230.7185,1400.1761,1234.5555,1396.3391" style="stroke:#000000;stroke-width:0.9592505854800937;"/><line style="stroke:#000000;stroke-width:0.9592505854800937;stroke-dasharray:2.0,2.0;" x1="1026.3981" x2="1236.474" y1="1396.3391" y2="1396.3391"/><text fill="#000000" font-family="sans-serif" font-size="16.3073" lengthAdjust="spacing" textLength="136.2136" x="1033.1129" y="1371.592">HTTP(S) Forward</text><text fill="#000000" font-family="sans-serif" font-size="16.3073" lengthAdjust="spacing" textLength="135.2543" x="1033.1129" y="1390.5747">(Status Client-B)</text><polygon fill="#FF0000" points="1036.9499,1424.9143,1027.3574,1428.7513,1036.9499,1432.5883,1033.1129,1428.7513" style="stroke:#FF0000;stroke-width:0.9592505854800937;"/><line style="stroke:#FF0000;stroke-width:0.9592505854800937;stroke-dasharray:2.0,2.0;" x1="1031.1944" x2="1246.0665" y1="1428.7513" y2="1428.7513"/><text fill="#000000" font-family="sans-serif" font-size="16.3073" lengthAdjust="spacing" textLength="192.8094" x="1047.5016" y="1422.9869">Status (Matrix-Request)</text><polygon fill="#000000" points="1699.792,1457.3265,1709.3845,1461.1635,1699.792,1465.0005,1703.629,1461.1635" style="stroke:#000000;stroke-width:0.9592505854800937;"/><line style="stroke:#000000;stroke-width:0.9592505854800937;stroke-dasharray:2.0,2.0;" x1="1026.3981" x2="1705.5475" y1="1461.1635" y2="1461.1635"/><text fill="#000000" font-family="sans-serif" font-size="16.3073" lengthAdjust="spacing" textLength="136.2136" x="1033.1129" y="1455.3991">HTTP(S) Forward</text><polygon fill="#000000" points="1925.2159,1489.7386,1934.8084,1493.5756,1925.2159,1497.4126,1929.0529,1493.5756" style="stroke:#000000;stroke-width:0.9592505854800937;"/><line style="stroke:#000000;stroke-width:0.9592505854800937;" x1="1716.0993" x2="1930.9714" y1="1493.5756" y2="1493.5756"/><text fill="#000000" font-family="sans-serif" font-size="16.3073" lengthAdjust="spacing" textLength="51.7995" x="1722.8141" y="1487.8112">Status</text><polygon fill="#000000" points="578.4281,1522.1508,568.8356,1525.9878,578.4281,1529.8248,574.5911,1525.9878" style="stroke:#000000;stroke-width:0.9592505854800937;"/><line style="stroke:#000000;stroke-width:0.9592505854800937;stroke-dasharray:2.0,2.0;" x1="572.6726" x2="1020.6426" y1="1525.9878" y2="1525.9878"/><text fill="#000000" font-family="sans-serif" font-size="16.3073" lengthAdjust="spacing" textLength="136.2136" x="878.6735" y="1520.2234">HTTP(S) Forward</text><polygon fill="#000000" points="344.371,1554.563,334.7785,1558.4,344.371,1562.237,340.534,1558.4" style="stroke:#000000;stroke-width:0.9592505854800937;"/><line style="stroke:#000000;stroke-width:0.9592505854800937;stroke-dasharray:2.0,2.0;" x1="338.6155" x2="562.1208" y1="1558.4" y2="1558.4"/><text fill="#000000" font-family="sans-serif" font-size="16.3073" lengthAdjust="spacing" textLength="51.7995" x="504.5658" y="1552.6356">Status</text><!--SRC=[hLLTR-9657tthxXANX9fAS5gTrTeXGGq2r6JO0NILLMgQh0lPeGzGyVZXAJft-fJt_QFzSwCmHyXT1yQAR4pS-wzvzmlPsikDaon53By8qSHuWrc6Oknd_1OGCGLXffBuMLxOCh5C65PzeL7UWN-nKNbRY2t0OiYBcBe_50vtpc_moKgyp965g4Qi70TAvcBQ2WJgM334emL8eKBwHLIjgK0tt-4HnFBE-0G_lJwIib7Pxz8oA4x-2o5dl9dXCu7hnzggGPIKSGgxfelyPeBF7BJu3TYN6GBgQJd1Knf7l8D4xfgVoCrVs0sOrL4myzXbA5yorA4gtJ3GjsyichyY-PnbVSRf0QlBfjy9hEhd_kpgycjLoJhJU7skXbtVxZZk3-mUlfiWrllBm_eXvaRkEy0o-1aBlfhZRc25lI1KxkXWZkP93WNznczjy4yMkD1VovEhFcc5053vsHsrJ8zYo8cw9nwawFG9t1A7HpY8CdH6Yxa5ZvbHA_R-TWhyLDK3mI3_gUskUp1wPSLrpXDvThPrKFU12vcDM2WvFRfv11uN82PLdnBoB5CaVGye79m597XzIty1c_ngxFpZx6hS_EFSwk2Wv431tcs8kY8QNnaJwyrr8hZ7otEx78ulfrSJqQ_LBl2RtR5uDkwmdjvUV64r0YI151tlIDVNPYB8gCVUZzogh7rYf1nuipo9JasYoHPe83N6MVqNuf9X1fe383JSiECwsT0MWmPFESncYs8WgnhAft6xBkYOXKIbnHfoP8aSnGMoAEIbN6RWeb9eqPJ8-2EvQa1nQWLQXIbHwkNbDztMhrXfrlue1bAllwTwRaegdhvG4H8QRRBiLawQEQcDXp3JklNKuNHRprgxouKndTcmsQwRae0Eg2_UuinMOndi-1iUWwVfNfaAcgOZAt9cAXQi2Cr5rGefaWT2QDx8sY7UeD4X0sVEoi0XKjNUR9z1zR1FkbJdI_fAq3D5AYl_onp-ZHLIZArBTzo3_X9fcak-DgkvdssROVPOFPPLH_u_wK-yFVgAYnzmzB_VrcMMGpyiZmrWWM_edjgHV9j-lsMCpbI97hAZJwzvl5AZnG-LNff9-TzpsmAQdOMhXGFLvh79AXWwfLbi_5ekNGXc4ndqFuzjLLlRyYwJUFCbq_5MjqJ9RGzeYUrFbdU6XWFtSTqTrEec6gcY-QljOzpubZG_YepuX9W2bFlFye44-06kpKuBt9iupUg3urHynkhRbYOkGHNq-ikY_1xvcL5MyrYkdXpSUR0TNeafDQa1UQihklyzM3v-t33Wxrj1DpNSrkn7vRcTWeFpKOrNE0N0-Nss66dRkdKutIAtD3llm00]--></g></svg>