<?xml version="1.0" encoding="UTF-8" standalone="no"?><svg xmlns="http://www.w3.org/2000/svg" xmlns:xlink="http://www.w3.org/1999/xlink" contentScriptType="application/ecmascript" contentStyleType="text/css" height="1680px" preserveAspectRatio="none" style="width:1662px;height:1680px;background:#FFFFFF;" version="1.1" viewBox="0 0 1662 1680" width="1662px" zoomAndPan="magnify"><defs><filter height="300%" id="f7dx3w3214qzn" width="300%" x="-1" y="-1"><feGaussianBlur result="blurOut" stdDeviation="2.0"/><feColorMatrix in="blurOut" result="blurOut2" type="matrix" values="0 0 0 0 0 0 0 0 0 0 0 0 0 0 0 0 0 0 .4 0"/><feOffset dx="4.0" dy="4.0" in="blurOut2" result="blurOut3"/><feBlend in="SourceGraphic" in2="blurOut3" mode="normal"/></filter></defs><g><rect fill="#F5F5F5" height="1668.7734" style="stroke:#A80036;stroke-width:1.0;" width="265" x="241" y="6"/><text fill="#000000" font-family="sans-serif" font-size="18" font-weight="bold" lengthAdjust="spacing" textLength="93" x="324.5" y="22.708">Endgerät</text><text fill="#000000" font-family="sans-serif" font-size="13" font-weight="bold" lengthAdjust="spacing" textLength="0" x="422.5" y="23.8872"/><rect fill="#F5F5F5" height="1668.7734" style="stroke:#A80036;stroke-width:1.0;" width="539" x="877.5" y="6"/><text fill="#000000" font-family="sans-serif" font-size="18" font-weight="bold" lengthAdjust="spacing" textLength="200" x="1044.5" y="22.708">VZD-FHIR-Directory</text><text fill="#000000" font-family="sans-serif" font-size="13" font-weight="bold" lengthAdjust="spacing" textLength="0" x="1249.5" y="23.8872"/><rect fill="#DCDCDC" filter="url(#f7dx3w3214qzn)" height="1161.0469" style="stroke:#000000;stroke-width:1.0;" width="10" x="368.5" y="322.1641"/><rect fill="#DCDCDC" filter="url(#f7dx3w3214qzn)" height="1053.8906" style="stroke:#000000;stroke-width:1.0;" width="10" x="625.5" y="395.5313"/><rect fill="#DCDCDC" filter="url(#f7dx3w3214qzn)" height="100.3672" style="stroke:#000000;stroke-width:1.0;" width="10" x="960.5" y="905.5859"/><rect fill="#DCDCDC" filter="url(#f7dx3w3214qzn)" height="254.3125" style="stroke:#000000;stroke-width:1.0;" width="10" x="1145.5" y="1104.3203"/><rect fill="#DCDCDC" filter="url(#f7dx3w3214qzn)" height="186.7344" style="stroke:#000000;stroke-width:1.0;" width="10" x="1323.5" y="1138.1094"/><rect fill="#DCDCDC" filter="url(#f7dx3w3214qzn)" height="133.8594" style="stroke:#000000;stroke-width:1.0;" width="10" x="1521" y="583.5234"/><rect fill="#FFFFFF" filter="url(#f7dx3w3214qzn)" height="1265.5938" style="stroke:#000000;stroke-width:2.0;" width="1638.5" x="10" y="250.6172"/><rect fill="#FFFFFF" filter="url(#f7dx3w3214qzn)" height="339.8516" style="stroke:#000000;stroke-width:2.0;" width="1135.5" x="503" y="435.5313"/><rect fill="#FFFFFF" filter="url(#f7dx3w3214qzn)" height="577.25" style="stroke:#000000;stroke-width:2.0;" width="986.5" x="503" y="814.3828"/><line style="stroke:#000000;stroke-width:1.0;stroke-dasharray:5.0,5.0;" x1="116" x2="116" y1="118.5625" y2="1558.2109"/><line style="stroke:#000000;stroke-width:1.0;stroke-dasharray:5.0,5.0;" x1="373" x2="373" y1="118.5625" y2="1558.2109"/><line style="stroke:#000000;stroke-width:1.0;stroke-dasharray:5.0,5.0;" x1="630" x2="630" y1="118.5625" y2="1558.2109"/><line style="stroke:#000000;stroke-width:1.0;stroke-dasharray:5.0,5.0;" x1="965.5" x2="965.5" y1="118.5625" y2="1558.2109"/><line style="stroke:#000000;stroke-width:1.0;stroke-dasharray:5.0,5.0;" x1="1150.5" x2="1150.5" y1="118.5625" y2="1558.2109"/><line style="stroke:#000000;stroke-width:1.0;stroke-dasharray:5.0,5.0;" x1="1328.5" x2="1328.5" y1="118.5625" y2="1558.2109"/><line style="stroke:#000000;stroke-width:1.0;stroke-dasharray:5.0,5.0;" x1="1525.5" x2="1525.5" y1="583.875" y2="1558.2109"/><text fill="#000000" font-family="Aapex" font-size="20" lengthAdjust="spacing" textLength="187" x="20" y="90.5645">Akteur in der Rolle</text><text fill="#000000" font-family="Aapex" font-size="20" lengthAdjust="spacing" textLength="110" x="58.5" y="113.8457">Org-Admin</text><ellipse cx="116.5" cy="15" fill="#DCDCDC" filter="url(#f7dx3w3214qzn)" rx="8" ry="8" style="stroke:#000000;stroke-width:2.0;"/><path d="M116.5,23 L116.5,50 M103.5,31 L129.5,31 M116.5,50 L103.5,65 M116.5,50 L129.5,65 " fill="none" filter="url(#f7dx3w3214qzn)" style="stroke:#000000;stroke-width:2.0;"/><text fill="#000000" font-family="Aapex" font-size="20" lengthAdjust="spacing" textLength="187" x="20" y="1575.7754">Akteur in der Rolle</text><text fill="#000000" font-family="Aapex" font-size="20" lengthAdjust="spacing" textLength="110" x="58.5" y="1599.0566">Org-Admin</text><ellipse cx="116.5" cy="1613.7734" fill="#DCDCDC" filter="url(#f7dx3w3214qzn)" rx="8" ry="8" style="stroke:#000000;stroke-width:2.0;"/><path d="M116.5,1621.7734 L116.5,1648.7734 M103.5,1629.7734 L129.5,1629.7734 M116.5,1648.7734 L103.5,1663.7734 M116.5,1648.7734 L129.5,1663.7734 " fill="none" filter="url(#f7dx3w3214qzn)" style="stroke:#000000;stroke-width:2.0;"/><rect fill="#EFEFFF" filter="url(#f7dx3w3214qzn)" height="60.5625" style="stroke:#000000;stroke-width:1.5;" width="253" x="245" y="53"/><text fill="#000000" font-family="Impact" font-size="20" lengthAdjust="spacing" textLength="132" x="305.5" y="78.5645">Frontend des</text><text fill="#000000" font-family="Impact" font-size="20" lengthAdjust="spacing" textLength="239" x="252" y="101.8457">Registrierungs-Dienstes</text><rect fill="#EFEFFF" filter="url(#f7dx3w3214qzn)" height="60.5625" style="stroke:#000000;stroke-width:1.5;" width="253" x="245" y="1557.2109"/><text fill="#000000" font-family="Impact" font-size="20" lengthAdjust="spacing" textLength="132" x="305.5" y="1582.7754">Frontend des</text><text fill="#000000" font-family="Impact" font-size="20" lengthAdjust="spacing" textLength="239" x="252" y="1606.0566">Registrierungs-Dienstes</text><rect fill="#EFEFFF" filter="url(#f7dx3w3214qzn)" height="37.2813" style="stroke:#000000;stroke-width:1.5;" width="231" x="513" y="76.2813"/><text fill="#000000" font-family="Impact" font-size="20" lengthAdjust="spacing" textLength="217" x="520" y="101.8457">Registrierungs-Dienst</text><rect fill="#EFEFFF" filter="url(#f7dx3w3214qzn)" height="37.2813" style="stroke:#000000;stroke-width:1.5;" width="231" x="513" y="1557.2109"/><text fill="#000000" font-family="Impact" font-size="20" lengthAdjust="spacing" textLength="217" x="520" y="1582.7754">Registrierungs-Dienst</text><rect fill="#EFEFFF" filter="url(#f7dx3w3214qzn)" height="37.2813" style="stroke:#000000;stroke-width:1.5;" width="164" x="881.5" y="76.2813"/><text fill="#000000" font-family="Impact" font-size="20" lengthAdjust="spacing" textLength="128" x="899.5" y="101.8457">Auth-Service</text><rect fill="#EFEFFF" filter="url(#f7dx3w3214qzn)" height="37.2813" style="stroke:#000000;stroke-width:1.5;" width="164" x="881.5" y="1557.2109"/><text fill="#000000" font-family="Impact" font-size="20" lengthAdjust="spacing" textLength="128" x="899.5" y="1582.7754">Auth-Service</text><rect fill="#EFEFFF" filter="url(#f7dx3w3214qzn)" height="37.2813" style="stroke:#000000;stroke-width:1.5;" width="164" x="1066.5" y="76.2813"/><text fill="#000000" font-family="Impact" font-size="20" lengthAdjust="spacing" textLength="108" x="1094.5" y="101.8457">FHIR-Proxy</text><rect fill="#EFEFFF" filter="url(#f7dx3w3214qzn)" height="37.2813" style="stroke:#000000;stroke-width:1.5;" width="164" x="1066.5" y="1557.2109"/><text fill="#000000" font-family="Impact" font-size="20" lengthAdjust="spacing" textLength="108" x="1094.5" y="1582.7754">FHIR-Proxy</text><rect fill="#EFEFFF" filter="url(#f7dx3w3214qzn)" height="37.2813" style="stroke:#000000;stroke-width:1.5;" width="164" x="1244.5" y="76.2813"/><text fill="#000000" font-family="Impact" font-size="20" lengthAdjust="spacing" textLength="145" x="1254" y="101.8457">FHIR-Directory</text><rect fill="#EFEFFF" filter="url(#f7dx3w3214qzn)" height="37.2813" style="stroke:#000000;stroke-width:1.5;" width="164" x="1244.5" y="1557.2109"/><text fill="#000000" font-family="Impact" font-size="20" lengthAdjust="spacing" textLength="145" x="1254" y="1582.7754">FHIR-Directory</text><rect fill="#EFEFFF" filter="url(#f7dx3w3214qzn)" height="37.2813" style="stroke:#000000;stroke-width:1.5;" width="201" x="1423.5" y="1557.2109"/><text fill="#000000" font-family="Impact" font-size="20" lengthAdjust="spacing" textLength="187" x="1430.5" y="1582.7754">Messenger-Service</text><rect fill="#DCDCDC" filter="url(#f7dx3w3214qzn)" height="1161.0469" style="stroke:#000000;stroke-width:1.0;" width="10" x="368.5" y="322.1641"/><rect fill="#DCDCDC" filter="url(#f7dx3w3214qzn)" height="1053.8906" style="stroke:#000000;stroke-width:1.0;" width="10" x="625.5" y="395.5313"/><rect fill="#DCDCDC" filter="url(#f7dx3w3214qzn)" height="100.3672" style="stroke:#000000;stroke-width:1.0;" width="10" x="960.5" y="905.5859"/><rect fill="#DCDCDC" filter="url(#f7dx3w3214qzn)" height="254.3125" style="stroke:#000000;stroke-width:1.0;" width="10" x="1145.5" y="1104.3203"/><rect fill="#DCDCDC" filter="url(#f7dx3w3214qzn)" height="186.7344" style="stroke:#000000;stroke-width:1.0;" width="10" x="1323.5" y="1138.1094"/><rect fill="#DCDCDC" filter="url(#f7dx3w3214qzn)" height="133.8594" style="stroke:#000000;stroke-width:1.0;" width="10" x="1521" y="583.5234"/><rect fill="#FFFFFF" filter="url(#f7dx3w3214qzn)" height="60.0547" style="stroke:#000000;stroke-width:2.0;" width="730" x="17" y="153.5625"/><path d="M17,153.5625 L83,153.5625 L83,160.5625 L73,170.5625 L17,170.5625 L17,153.5625 " fill="#98FB98" style="stroke:#000000;stroke-width:2.0;"/><text fill="#000000" font-family="sans-serif" font-size="13" font-weight="bold" lengthAdjust="spacing" textLength="21" x="30" y="167.6294">ref</text><text fill="#000000" font-family="sans-serif" font-size="17" font-weight="bold" lengthAdjust="spacing" textLength="98" x="81" y="190.3423">AF: 10103</text><text fill="#000000" font-family="sans-serif" font-size="17" lengthAdjust="spacing" textLength="503" x="184" y="190.3423">- Authentisieren einer Organisation am TI-Messenger-Dienst</text><text fill="#000000" font-family="sans-serif" font-size="13" lengthAdjust="spacing" textLength="0" x="85" y="206.4185"/><path d="M10,250.6172 L87,250.6172 L87,257.6172 L77,267.6172 L10,267.6172 L10,250.6172 " fill="#EEEEEE" style="stroke:#000000;stroke-width:1.0;"/><rect fill="none" height="1265.5938" style="stroke:#000000;stroke-width:2.0;" width="1638.5" x="10" y="250.6172"/><text fill="#000000" font-family="sans-serif" font-size="13" font-weight="bold" lengthAdjust="spacing" textLength="32" x="25" y="263.6841">loop</text><text fill="#000000" font-family="sans-serif" font-size="11" font-weight="bold" lengthAdjust="spacing" textLength="5" x="102" y="268.6479">[</text><text fill="#000000" font-family="sans-serif" font-size="16" font-weight="bold" lengthAdjust="spacing" textLength="34" x="107" y="267.4688">1..n</text><text fill="#000000" font-family="sans-serif" font-size="11" font-weight="bold" lengthAdjust="spacing" textLength="5" x="141" y="268.6479">]</text><polygon fill="#000000" points="356.5,318.1641,366.5,322.1641,356.5,326.1641,360.5,322.1641" style="stroke:#000000;stroke-width:1.0;"/><line style="stroke:#000000;stroke-width:1.0;" x1="116.5" x2="362.5" y1="322.1641" y2="322.1641"/><text fill="#000000" font-family="sans-serif" font-size="17" lengthAdjust="spacing" textLength="233" x="123.5" y="316.1548">Messenger Service erstellen</text><polygon fill="#000000" points="613.5,391.5313,623.5,395.5313,613.5,399.5313,617.5,395.5313" style="stroke:#000000;stroke-width:1.0;"/><line style="stroke:#000000;stroke-width:1.0;" x1="378.5" x2="619.5" y1="395.5313" y2="395.5313"/><text fill="#000000" font-family="sans-serif" font-size="17" lengthAdjust="spacing" textLength="196" x="385.5" y="349.9438">POST /create (id_token,</text><text fill="#000000" font-family="sans-serif" font-size="17" lengthAdjust="spacing" textLength="114" x="385.5" y="369.7329">access_token,</text><text fill="#000000" font-family="sans-serif" font-size="17" lengthAdjust="spacing" textLength="133" x="385.5" y="389.522">Matrix-Domain)</text><path d="M503,435.5313 L798,435.5313 L798,445.5313 L788,455.5313 L503,455.5313 L503,435.5313 " fill="#EEEEEE" style="stroke:#000000;stroke-width:1.0;"/><rect fill="none" height="339.8516" style="stroke:#000000;stroke-width:2.0;" width="1135.5" x="503" y="435.5313"/><text fill="#000000" font-family="sans-serif" font-size="16" font-weight="bold" lengthAdjust="spacing" textLength="250" x="518" y="451.3828">Messaging-Service erstellen</text><line style="stroke:#000000;stroke-width:1.0;" x1="635.5" x2="677.5" y1="526.7344" y2="526.7344"/><line style="stroke:#000000;stroke-width:1.0;" x1="677.5" x2="677.5" y1="526.7344" y2="539.7344"/><line style="stroke:#000000;stroke-width:1.0;" x1="636.5" x2="677.5" y1="539.7344" y2="539.7344"/><polygon fill="#000000" points="646.5,535.7344,636.5,539.7344,646.5,543.7344,642.5,539.7344" style="stroke:#000000;stroke-width:1.0;"/><text fill="#000000" font-family="sans-serif" font-size="17" lengthAdjust="spacing" textLength="271" x="642.5" y="500.936">Starte neuen Messenger-Service</text><text fill="#000000" font-family="sans-serif" font-size="17" lengthAdjust="spacing" textLength="311" x="642.5" y="520.7251">für die Organisation (Matrix-Domain)</text><polygon fill="#000000" points="1411.5,569.5234,1421.5,573.5234,1411.5,577.5234,1415.5,573.5234" style="stroke:#000000;stroke-width:1.0;"/><line style="stroke:#000000;stroke-width:1.0;stroke-dasharray:2.0,2.0;" x1="635.5" x2="1417.5" y1="573.5234" y2="573.5234"/><text fill="#000000" font-family="sans-serif" font-size="17" lengthAdjust="spacing" textLength="234" x="642.5" y="567.5142">Messenger-Service erstellen</text><rect fill="#EFEFFF" filter="url(#f7dx3w3214qzn)" height="37.2813" style="stroke:#000000;stroke-width:1.5;" width="201" x="1423.5" y="547.7344"/><text fill="#000000" font-family="Impact" font-size="20" lengthAdjust="spacing" textLength="187" x="1430.5" y="573.2988">Messenger-Service</text><line style="stroke:#000000;stroke-width:1.0;" x1="1531" x2="1573" y1="670.5938" y2="670.5938"/><line style="stroke:#000000;stroke-width:1.0;" x1="1573" x2="1573" y1="670.5938" y2="683.5938"/><line style="stroke:#000000;stroke-width:1.0;" x1="1532" x2="1573" y1="683.5938" y2="683.5938"/><polygon fill="#000000" points="1542,679.5938,1532,683.5938,1542,687.5938,1538,683.5938" style="stroke:#000000;stroke-width:1.0;"/><text fill="#000000" font-family="sans-serif" font-size="17" lengthAdjust="spacing" textLength="66" x="1538" y="644.7954">Account</text><text fill="#000000" font-family="sans-serif" font-size="17" lengthAdjust="spacing" textLength="73" x="1538" y="664.5845">erstellen</text><polygon fill="#000000" points="646.5,713.3828,636.5,717.3828,646.5,721.3828,642.5,717.3828" style="stroke:#000000;stroke-width:1.0;"/><line style="stroke:#000000;stroke-width:1.0;stroke-dasharray:2.0,2.0;" x1="640.5" x2="1525" y1="717.3828" y2="717.3828"/><text fill="#000000" font-family="sans-serif" font-size="17" lengthAdjust="spacing" textLength="186" x="1333" y="711.3735">Status, Account Daten</text><path d="M503,814.3828 L830,814.3828 L830,824.3828 L820,834.3828 L503,834.3828 L503,814.3828 " fill="#EEEEEE" style="stroke:#000000;stroke-width:1.0;"/><rect fill="none" height="577.25" style="stroke:#000000;stroke-width:2.0;" width="986.5" x="503" y="814.3828"/><text fill="#000000" font-family="sans-serif" font-size="16" font-weight="bold" lengthAdjust="spacing" textLength="282" x="518" y="830.2344">FHIR-Directory Eintrag erstellen</text><polygon fill="#000000" points="948.5,901.5859,958.5,905.5859,948.5,909.5859,952.5,905.5859" style="stroke:#000000;stroke-width:1.0;"/><line style="stroke:#000000;stroke-width:1.0;" x1="635.5" x2="954.5" y1="905.5859" y2="905.5859"/><text fill="#000000" font-family="sans-serif" font-size="17" lengthAdjust="spacing" textLength="297" x="642.5" y="879.7876">GET /token (client_id, client_secret)</text><text fill="#000000" font-family="sans-serif" font-size="17" lengthAdjust="spacing" textLength="259" x="642.5" y="899.5767">(OAuth Client credentials flow)</text><line style="stroke:#000000;stroke-width:1.0;" x1="970.5" x2="1012.5" y1="959.1641" y2="959.1641"/><line style="stroke:#000000;stroke-width:1.0;" x1="1012.5" x2="1012.5" y1="959.1641" y2="972.1641"/><line style="stroke:#000000;stroke-width:1.0;" x1="971.5" x2="1012.5" y1="972.1641" y2="972.1641"/><polygon fill="#000000" points="981.5,968.1641,971.5,972.1641,981.5,976.1641,977.5,972.1641" style="stroke:#000000;stroke-width:1.0;"/><text fill="#000000" font-family="sans-serif" font-size="17" lengthAdjust="spacing" textLength="156" x="977.5" y="933.3657">prüfe client_id und</text><text fill="#000000" font-family="sans-serif" font-size="17" lengthAdjust="spacing" textLength="105" x="977.5" y="953.1548">client_secret</text><polygon fill="#000000" points="646.5,1001.9531,636.5,1005.9531,646.5,1009.9531,642.5,1005.9531" style="stroke:#000000;stroke-width:1.0;"/><line style="stroke:#000000;stroke-width:1.0;stroke-dasharray:2.0,2.0;" x1="640.5" x2="964.5" y1="1005.9531" y2="1005.9531"/><text fill="#000000" font-family="sans-serif" font-size="17" lengthAdjust="spacing" textLength="165" x="793.5" y="999.9438">admin-access-token</text><polygon fill="#000000" points="1133.5,1100.3203,1143.5,1104.3203,1133.5,1108.3203,1137.5,1104.3203" style="stroke:#000000;stroke-width:1.0;"/><line style="stroke:#000000;stroke-width:1.0;" x1="635.5" x2="1139.5" y1="1104.3203" y2="1104.3203"/><text fill="#000000" font-family="sans-serif" font-size="17" lengthAdjust="spacing" textLength="114" x="642.5" y="1058.7329">FHIR Request</text><text fill="#000000" font-family="sans-serif" font-size="17" lengthAdjust="spacing" textLength="315" x="642.5" y="1078.522">(admin-access-token, Matrix-Domain)</text><text fill="#000000" font-family="sans-serif" font-size="17" lengthAdjust="spacing" textLength="192" x="642.5" y="1098.311">Endpoint (tim-domain)</text><polygon fill="#000000" points="1311.5,1134.1094,1321.5,1138.1094,1311.5,1142.1094,1315.5,1138.1094" style="stroke:#000000;stroke-width:1.0;"/><line style="stroke:#000000;stroke-width:1.0;" x1="1155.5" x2="1317.5" y1="1138.1094" y2="1138.1094"/><text fill="#000000" font-family="sans-serif" font-size="17" lengthAdjust="spacing" textLength="117" x="1162.5" y="1132.1001">HTTP Forward</text><line style="stroke:#000000;stroke-width:1.0;stroke-dasharray:2.0,2.0;" x1="1333.5" x2="1375.5" y1="1211.4766" y2="1211.4766"/><line style="stroke:#000000;stroke-width:1.0;stroke-dasharray:2.0,2.0;" x1="1375.5" x2="1375.5" y1="1211.4766" y2="1224.4766"/><line style="stroke:#000000;stroke-width:1.0;stroke-dasharray:2.0,2.0;" x1="1334.5" x2="1375.5" y1="1224.4766" y2="1224.4766"/><polygon fill="#000000" points="1344.5,1220.4766,1334.5,1224.4766,1344.5,1228.4766,1340.5,1224.4766" style="stroke:#000000;stroke-width:1.0;"/><text fill="#000000" font-family="sans-serif" font-size="17" lengthAdjust="spacing" textLength="131" x="1340.5" y="1165.8892">FHIR-Ressource</text><text fill="#000000" font-family="sans-serif" font-size="17" lengthAdjust="spacing" textLength="77" x="1340.5" y="1185.6782">erzeugen</text><text fill="#000000" font-family="sans-serif" font-size="17" lengthAdjust="spacing" textLength="137" x="1340.5" y="1205.4673">(TIOrganisation)</text><line style="stroke:#000000;stroke-width:1.0;stroke-dasharray:2.0,2.0;" x1="1333.5" x2="1375.5" y1="1278.0547" y2="1278.0547"/><line style="stroke:#000000;stroke-width:1.0;stroke-dasharray:2.0,2.0;" x1="1375.5" x2="1375.5" y1="1278.0547" y2="1291.0547"/><line style="stroke:#000000;stroke-width:1.0;stroke-dasharray:2.0,2.0;" x1="1334.5" x2="1375.5" y1="1291.0547" y2="1291.0547"/><polygon fill="#000000" points="1344.5,1287.0547,1334.5,1291.0547,1344.5,1295.0547,1340.5,1291.0547" style="stroke:#000000;stroke-width:1.0;"/><text fill="#000000" font-family="sans-serif" font-size="17" lengthAdjust="spacing" textLength="133" x="1340.5" y="1252.2563">Föderationsliste</text><text fill="#000000" font-family="sans-serif" font-size="17" lengthAdjust="spacing" textLength="109" x="1340.5" y="1272.0454">aktualisieren</text><polygon fill="#000000" points="1166.5,1320.8438,1156.5,1324.8438,1166.5,1328.8438,1162.5,1324.8438" style="stroke:#000000;stroke-width:1.0;"/><line style="stroke:#000000;stroke-width:1.0;stroke-dasharray:2.0,2.0;" x1="1160.5" x2="1327.5" y1="1324.8438" y2="1324.8438"/><text fill="#000000" font-family="sans-serif" font-size="17" lengthAdjust="spacing" textLength="54" x="1267.5" y="1318.8345">Status</text><polygon fill="#000000" points="646.5,1354.6328,636.5,1358.6328,646.5,1362.6328,642.5,1358.6328" style="stroke:#000000;stroke-width:1.0;"/><line style="stroke:#000000;stroke-width:1.0;stroke-dasharray:2.0,2.0;" x1="640.5" x2="1149.5" y1="1358.6328" y2="1358.6328"/><text fill="#000000" font-family="sans-serif" font-size="17" lengthAdjust="spacing" textLength="117" x="1026.5" y="1352.6235">HTTP Forward</text><polygon fill="#000000" points="389.5,1445.4219,379.5,1449.4219,389.5,1453.4219,385.5,1449.4219" style="stroke:#000000;stroke-width:1.0;"/><line style="stroke:#000000;stroke-width:1.0;" x1="383.5" x2="629.5" y1="1449.4219" y2="1449.4219"/><text fill="#000000" font-family="sans-serif" font-size="17" lengthAdjust="spacing" textLength="186" x="437.5" y="1443.4126">Status, Account Daten</text><polygon fill="#000000" points="127.5,1479.2109,117.5,1483.2109,127.5,1487.2109,123.5,1483.2109" style="stroke:#000000;stroke-width:1.0;"/><line style="stroke:#000000;stroke-width:1.0;" x1="121.5" x2="372.5" y1="1483.2109" y2="1483.2109"/><text fill="#000000" font-family="sans-serif" font-size="17" lengthAdjust="spacing" textLength="186" x="180.5" y="1477.2017">Status, Account Daten</text><!--MD5=[4c547ac28d4f4fba1ec4c1c5ad777319]
@startuml
skinparam sequenceMessageAlign direction
skinparam WrapWidth 300
skinparam minClassWidth 150
skinparam BoxPadding 1
skinparam sequenceReferenceHeaderBackgroundColor palegreen
scale max 2048 width

skinparam sequence {
ArrowColor black
ArrowFontSize 17
ActorBorderColor black
LifeLineBorderColor black
LifeLineBackgroundColor Gainsboro

ParticipantBorderColor Motivation
ParticipantBackgroundColor Motivation
ParticipantFontName Impact
ParticipantFontSize 20
ParticipantFontColor black
ParticipantBorderColor Black
ParticipantBackgroundColor MOTIVATION

ActorBackgroundColor Gainsboro
ActorFontColor black
ActorFontSize 20
ActorFontName Aapex
}
    actor U as "Akteur in der Rolle\nOrg-Admin"
    box <size:18>Endgerät</size> #WhiteSmoke
      participant C as "Frontend des\nRegistrierungs-Dienstes"
    end box
    participant R as "Registrierungs-Dienst"
    box <size:18>VZD-FHIR-Directory</size> #WhiteSmoke
    participant Auth as "Auth-Service"
    participant FP as "FHIR-Proxy"
    participant VZD as "FHIR-Directory"
    end box

|||
ref over U, R: <size:17>**AF: 10103** - Authentisieren einer Organisation am TI-Messenger-Dienst</size>\n 
|||

loop <size:16>1..n</size>
  |||
  U->C: Messenger Service erstellen
  Activate C
  C->R: POST /create (id_token, \naccess_token, \nMatrix-Domain)
    Activate R
    
    |||
    group <size:16>Messaging-Service erstellen</size>
    |||
      R->R: Starte neuen Messenger-Service \nfür die Organisation (Matrix-Domain)
        create "Messenger-Service"
          R- ->"Messenger-Service" : Messenger-Service erstellen 
        Activate "Messenger-Service"
      |||
      "Messenger-Service"->"Messenger-Service": Account \nerstellen
      "Messenger-Service"- ->R: Status, Account Daten
      |||
        Deactivate "Messenger-Service"
    |||
    end
    
    |||
    
    group <size:16>FHIR-Directory Eintrag erstellen</size>
    |||
      R->Auth: GET /token (client_id, client_secret) \n(OAuth Client credentials flow)
        Activate Auth
      Auth->Auth: prüfe client_id und \nclient_secret
      Auth- ->R: admin-access-token
        Deactivate Auth
      |||
      R->FP: FHIR Request \n(admin-access-token, Matrix-Domain)\nEndpoint (tim-domain)
        Activate FP
      FP->VZD: HTTP Forward
        Activate VZD
      VZD- ->VZD: FHIR-Ressource \nerzeugen \n(TIOrganisation)
      VZD- ->VZD: Föderationsliste\naktualisieren
      VZD- ->FP: Status
        Deactivate VZD
      FP- ->R: HTTP Forward
        Deactivate FP

    |||
    end

  |||
  R->C: Status, Account Daten
    Deactivate R
  C->U: Status, Account Daten
    Deactivate C
  |||
end
|||
@enduml

PlantUML version 1.2021.16(Wed Dec 08 17:25:22 UTC 2021)
(GPL source distribution)
Java Runtime: OpenJDK Runtime Environment
JVM: OpenJDK 64-Bit Server VM
Default Encoding: UTF-8
Language: en
Country: null
--></g></svg>