<?xml version="1.0" encoding="UTF-8" standalone="no"?><svg xmlns="http://www.w3.org/2000/svg" xmlns:xlink="http://www.w3.org/1999/xlink" contentScriptType="application/ecmascript" contentStyleType="text/css" height="1451px" preserveAspectRatio="none" style="width:1721px;height:1451px;background:#FFFFFF;" version="1.1" viewBox="0 0 1721 1451" width="1721px" zoomAndPan="magnify"><defs><filter height="300%" id="f17ya89beettzt" width="300%" x="-1" y="-1"><feGaussianBlur result="blurOut" stdDeviation="2.0"/><feColorMatrix in="blurOut" result="blurOut2" type="matrix" values="0 0 0 0 0 0 0 0 0 0 0 0 0 0 0 0 0 0 .4 0"/><feOffset dx="4.0" dy="4.0" in="blurOut2" result="blurOut3"/><feBlend in="SourceGraphic" in2="blurOut3" mode="normal"/></filter></defs><g><rect fill="#F5F5F5" height="1439.2891" style="stroke:#A80036;stroke-width:1.0;" width="773" x="481" y="6"/><text fill="#000000" font-family="sans-serif" font-size="18" font-weight="bold" lengthAdjust="spacing" textLength="193" x="768.5" y="22.708">Messenger-Service</text><text fill="#000000" font-family="sans-serif" font-size="13" font-weight="bold" lengthAdjust="spacing" textLength="0" x="966.5" y="23.8872"/><rect fill="#F0F8FF" filter="url(#f17ya89beettzt)" height="890.2969" style="stroke:#000000;stroke-width:1.0;" width="10" x="360" y="302.8516"/><rect fill="#DCDCDC" filter="url(#f17ya89beettzt)" height="890.2969" style="stroke:#000000;stroke-width:1.0;" width="10" x="589" y="336.6406"/><rect fill="#DCDCDC" filter="url(#f17ya89beettzt)" height="476.8594" style="stroke:#000000;stroke-width:1.0;" width="10" x="862.5" y="648.7109"/><rect fill="#DCDCDC" filter="url(#f17ya89beettzt)" height="67.5781" style="stroke:#000000;stroke-width:1.0;" width="10" x="1136" y="782.0469"/><rect fill="#C9FFC9" filter="url(#f17ya89beettzt)" height="261.5234" style="stroke:#000000;stroke-width:1.0;" width="10" x="1365" y="999.2031"/><rect fill="#FFE4E1" filter="url(#f17ya89beettzt)" height="147.7031" style="stroke:#000000;stroke-width:2.0;" width="703" x="10" y="443.2188"/><rect fill="#FFFFFF" filter="url(#f17ya89beettzt)" height="147.125" style="stroke:#000000;stroke-width:2.0;" width="786" x="703" y="735.5"/><line style="stroke:#000000;stroke-width:1.0;stroke-dasharray:5.0,5.0;" x1="133" x2="133" y1="118.5625" y2="1328.7266"/><line style="stroke:#000000;stroke-width:1.0;stroke-dasharray:5.0,5.0;" x1="365" x2="365" y1="118.5625" y2="1328.7266"/><line style="stroke:#000000;stroke-width:1.0;stroke-dasharray:5.0,5.0;" x1="594" x2="594" y1="118.5625" y2="1328.7266"/><line style="stroke:#000000;stroke-width:1.0;stroke-dasharray:5.0,5.0;" x1="867" x2="867" y1="118.5625" y2="1328.7266"/><line style="stroke:#000000;stroke-width:1.0;stroke-dasharray:5.0,5.0;" x1="1141" x2="1141" y1="118.5625" y2="1328.7266"/><line style="stroke:#000000;stroke-width:1.0;stroke-dasharray:5.0,5.0;" x1="1370" x2="1370" y1="118.5625" y2="1328.7266"/><line style="stroke:#000000;stroke-width:1.0;stroke-dasharray:5.0,5.0;" x1="1602" x2="1602" y1="118.5625" y2="1328.7266"/><text fill="#000000" font-family="Aapex" font-size="20" lengthAdjust="spacing" textLength="220" x="20" y="90.5645">Akteur - A in der Rolle</text><text fill="#000000" font-family="Aapex" font-size="20" lengthAdjust="spacing" textLength="159" x="50.5" y="113.8457">User / User-HBA</text><ellipse cx="133" cy="15" fill="#DCDCDC" filter="url(#f17ya89beettzt)" rx="8" ry="8" style="stroke:#000000;stroke-width:2.0;"/><path d="M133,23 L133,50 M120,31 L146,31 M133,50 L120,65 M133,50 L146,65 " fill="none" filter="url(#f17ya89beettzt)" style="stroke:#000000;stroke-width:2.0;"/><text fill="#000000" font-family="Aapex" font-size="20" lengthAdjust="spacing" textLength="220" x="20" y="1346.291">Akteur - A in der Rolle</text><text fill="#000000" font-family="Aapex" font-size="20" lengthAdjust="spacing" textLength="159" x="50.5" y="1369.5723">User / User-HBA</text><ellipse cx="133" cy="1384.2891" fill="#DCDCDC" filter="url(#f17ya89beettzt)" rx="8" ry="8" style="stroke:#000000;stroke-width:2.0;"/><path d="M133,1392.2891 L133,1419.2891 M120,1400.2891 L146,1400.2891 M133,1419.2891 L120,1434.2891 M133,1419.2891 L146,1434.2891 " fill="none" filter="url(#f17ya89beettzt)" style="stroke:#000000;stroke-width:2.0;"/><rect fill="#F0F8FF" filter="url(#f17ya89beettzt)" height="60.5625" style="stroke:#000000;stroke-width:1.5;" width="214" x="256" y="53"/><text fill="#000000" font-family="Impact" font-size="20" lengthAdjust="spacing" textLength="139" x="293.5" y="78.5645">TI-Messenger-</text><text fill="#000000" font-family="Impact" font-size="20" lengthAdjust="spacing" textLength="79" x="323.5" y="101.8457">Client A</text><rect fill="#F0F8FF" filter="url(#f17ya89beettzt)" height="60.5625" style="stroke:#000000;stroke-width:1.5;" width="214" x="256" y="1327.7266"/><text fill="#000000" font-family="Impact" font-size="20" lengthAdjust="spacing" textLength="139" x="293.5" y="1353.291">TI-Messenger-</text><text fill="#000000" font-family="Impact" font-size="20" lengthAdjust="spacing" textLength="79" x="323.5" y="1376.5723">Client A</text><rect fill="#EFEFFF" filter="url(#f17ya89beettzt)" height="60.5625" style="stroke:#000000;stroke-width:1.5;" width="214" x="485" y="53"/><text fill="#000000" font-family="Impact" font-size="20" lengthAdjust="spacing" textLength="114" x="535" y="78.5645">Messenger-</text><text fill="#000000" font-family="Impact" font-size="20" lengthAdjust="spacing" textLength="54" x="565" y="101.8457">Proxy</text><rect fill="#EFEFFF" filter="url(#f17ya89beettzt)" height="60.5625" style="stroke:#000000;stroke-width:1.5;" width="214" x="485" y="1327.7266"/><text fill="#000000" font-family="Impact" font-size="20" lengthAdjust="spacing" textLength="114" x="535" y="1353.291">Messenger-</text><text fill="#000000" font-family="Impact" font-size="20" lengthAdjust="spacing" textLength="54" x="565" y="1376.5723">Proxy</text><rect fill="#EFEFFF" filter="url(#f17ya89beettzt)" height="60.5625" style="stroke:#000000;stroke-width:1.5;" width="305" x="713" y="53"/><text fill="#000000" font-family="Impact" font-size="20" lengthAdjust="spacing" textLength="189" x="768" y="78.5645">Matrix-Homeserver</text><text fill="#000000" font-family="Impact" font-size="20" lengthAdjust="spacing" textLength="291" x="720" y="101.8457">(inklusive Nutzerverzeichnis)</text><rect fill="#EFEFFF" filter="url(#f17ya89beettzt)" height="60.5625" style="stroke:#000000;stroke-width:1.5;" width="305" x="713" y="1327.7266"/><text fill="#000000" font-family="Impact" font-size="20" lengthAdjust="spacing" textLength="189" x="768" y="1353.291">Matrix-Homeserver</text><text fill="#000000" font-family="Impact" font-size="20" lengthAdjust="spacing" textLength="291" x="720" y="1376.5723">(inklusive Nutzerverzeichnis)</text><rect fill="#EFEFFF" filter="url(#f17ya89beettzt)" height="37.2813" style="stroke:#000000;stroke-width:1.5;" width="214" x="1032" y="76.2813"/><text fill="#000000" font-family="Impact" font-size="20" lengthAdjust="spacing" textLength="143" x="1067.5" y="101.8457">Push-Gateway</text><rect fill="#EFEFFF" filter="url(#f17ya89beettzt)" height="37.2813" style="stroke:#000000;stroke-width:1.5;" width="214" x="1032" y="1327.7266"/><text fill="#000000" font-family="Impact" font-size="20" lengthAdjust="spacing" textLength="143" x="1067.5" y="1353.291">Push-Gateway</text><rect fill="#C9FFC9" filter="url(#f17ya89beettzt)" height="60.5625" style="stroke:#000000;stroke-width:1.5;" width="214" x="1261" y="53"/><text fill="#000000" font-family="Impact" font-size="20" lengthAdjust="spacing" textLength="139" x="1298.5" y="78.5645">TI-Messenger-</text><text fill="#000000" font-family="Impact" font-size="20" lengthAdjust="spacing" textLength="79" x="1328.5" y="101.8457">Client B</text><rect fill="#C9FFC9" filter="url(#f17ya89beettzt)" height="60.5625" style="stroke:#000000;stroke-width:1.5;" width="214" x="1261" y="1327.7266"/><text fill="#000000" font-family="Impact" font-size="20" lengthAdjust="spacing" textLength="139" x="1298.5" y="1353.291">TI-Messenger-</text><text fill="#000000" font-family="Impact" font-size="20" lengthAdjust="spacing" textLength="79" x="1328.5" y="1376.5723">Client B</text><text fill="#000000" font-family="Aapex" font-size="20" lengthAdjust="spacing" textLength="220" x="1489" y="90.5645">Akteur - B in der Rolle</text><text fill="#000000" font-family="Aapex" font-size="20" lengthAdjust="spacing" textLength="159" x="1519.5" y="113.8457">User / User-HBA</text><ellipse cx="1602" cy="15" fill="#DCDCDC" filter="url(#f17ya89beettzt)" rx="8" ry="8" style="stroke:#000000;stroke-width:2.0;"/><path d="M1602,23 L1602,50 M1589,31 L1615,31 M1602,50 L1589,65 M1602,50 L1615,65 " fill="none" filter="url(#f17ya89beettzt)" style="stroke:#000000;stroke-width:2.0;"/><text fill="#000000" font-family="Aapex" font-size="20" lengthAdjust="spacing" textLength="220" x="1489" y="1346.291">Akteur - B in der Rolle</text><text fill="#000000" font-family="Aapex" font-size="20" lengthAdjust="spacing" textLength="159" x="1519.5" y="1369.5723">User / User-HBA</text><ellipse cx="1602" cy="1384.2891" fill="#DCDCDC" filter="url(#f17ya89beettzt)" rx="8" ry="8" style="stroke:#000000;stroke-width:2.0;"/><path d="M1602,1392.2891 L1602,1419.2891 M1589,1400.2891 L1615,1400.2891 M1602,1419.2891 L1589,1434.2891 M1602,1419.2891 L1615,1434.2891 " fill="none" filter="url(#f17ya89beettzt)" style="stroke:#000000;stroke-width:2.0;"/><rect fill="#F0F8FF" filter="url(#f17ya89beettzt)" height="890.2969" style="stroke:#000000;stroke-width:1.0;" width="10" x="360" y="302.8516"/><rect fill="#DCDCDC" filter="url(#f17ya89beettzt)" height="890.2969" style="stroke:#000000;stroke-width:1.0;" width="10" x="589" y="336.6406"/><rect fill="#DCDCDC" filter="url(#f17ya89beettzt)" height="476.8594" style="stroke:#000000;stroke-width:1.0;" width="10" x="862.5" y="648.7109"/><rect fill="#DCDCDC" filter="url(#f17ya89beettzt)" height="67.5781" style="stroke:#000000;stroke-width:1.0;" width="10" x="1136" y="782.0469"/><rect fill="#C9FFC9" filter="url(#f17ya89beettzt)" height="261.5234" style="stroke:#000000;stroke-width:1.0;" width="10" x="1365" y="999.2031"/><path d="M22,158.5625 L22,222.5625 L1712,222.5625 L1712,168.5625 L1702,158.5625 L22,158.5625 " fill="#FBFB77" filter="url(#f17ya89beettzt)" style="stroke:#A80036;stroke-width:1.0;"/><path d="M1702,158.5625 L1702,168.5625 L1712,168.5625 L1702,158.5625 " fill="#FBFB77" style="stroke:#A80036;stroke-width:1.0;"/><text fill="#000000" font-family="sans-serif" font-size="13" lengthAdjust="spacing" textLength="0" x="363.5" y="175.6294"/><text fill="#000000" font-family="sans-serif" font-size="17" lengthAdjust="spacing" textLength="1002" x="359.5" y="194.4751">Die Akteure sind auf dem selben Messenger-Service angemeldet und im Besitz eines zugelassenen TI-Messenger-Clients</text><text fill="#000000" font-family="sans-serif" font-size="17" lengthAdjust="spacing" textLength="575" x="359.5" y="214.2642">Ebenfalls sind beide Akteure einem gemeinsamen Raum beigetreten</text><polygon fill="#000000" points="348,298.8516,358,302.8516,348,306.8516,352,302.8516" style="stroke:#000000;stroke-width:1.0;"/><line style="stroke:#000000;stroke-width:1.0;" x1="133" x2="354" y1="302.8516" y2="302.8516"/><text fill="#000000" font-family="sans-serif" font-size="17" lengthAdjust="spacing" textLength="91" x="140" y="277.0532">Akteur löst</text><text fill="#000000" font-family="sans-serif" font-size="17" lengthAdjust="spacing" textLength="143" x="140" y="296.8423">Matrix-Event aus</text><polygon fill="#000000" points="577,332.6406,587,336.6406,577,340.6406,581,336.6406" style="stroke:#000000;stroke-width:1.0;"/><line style="stroke:#000000;stroke-width:1.0;" x1="370" x2="583" y1="336.6406" y2="336.6406"/><text fill="#000000" font-family="sans-serif" font-size="17" lengthAdjust="spacing" textLength="128" x="377" y="330.6313">Matrix-Request</text><line style="stroke:#000000;stroke-width:1.0;" x1="599" x2="641" y1="390.2188" y2="390.2188"/><line style="stroke:#000000;stroke-width:1.0;" x1="641" x2="641" y1="390.2188" y2="403.2188"/><line style="stroke:#000000;stroke-width:1.0;" x1="600" x2="641" y1="403.2188" y2="403.2188"/><polygon fill="#000000" points="610,399.2188,600,403.2188,610,407.2188,606,403.2188" style="stroke:#000000;stroke-width:1.0;"/><text fill="#000000" font-family="sans-serif" font-size="17" lengthAdjust="spacing" textLength="180" x="606" y="364.4204">Domainzugehörigkeit</text><text fill="#000000" font-family="sans-serif" font-size="17" lengthAdjust="spacing" textLength="55" x="606" y="384.2095">prüfen</text><path d="M10,443.2188 L80,443.2188 L80,450.2188 L70,460.2188 L10,460.2188 L10,443.2188 " fill="#D3D3D3" style="stroke:#000000;stroke-width:1.0;"/><rect fill="none" height="147.7031" style="stroke:#000000;stroke-width:2.0;" width="703" x="10" y="443.2188"/><text fill="#000000" font-family="sans-serif" font-size="13" font-weight="bold" lengthAdjust="spacing" textLength="25" x="25" y="456.2856">opt</text><text fill="#000000" font-family="sans-serif" font-size="11" font-weight="bold" lengthAdjust="spacing" textLength="5" x="95" y="461.2495">[</text><text fill="#000000" font-family="sans-serif" font-size="16" font-weight="bold" lengthAdjust="spacing" textLength="74" x="100" y="460.0703">Abbruch</text><text fill="#000000" font-family="sans-serif" font-size="11" font-weight="bold" lengthAdjust="spacing" textLength="5" x="174" y="461.2495">]</text><polygon fill="#000000" points="381,525.3438,371,529.3438,381,533.3438,377,529.3438" style="stroke:#000000;stroke-width:1.0;"/><line style="stroke:#000000;stroke-width:1.0;stroke-dasharray:2.0,2.0;" x1="375" x2="588" y1="529.3438" y2="529.3438"/><text fill="#000000" font-family="sans-serif" font-size="17" lengthAdjust="spacing" textLength="145" x="432" y="483.7563">Domain nicht auf</text><text fill="#000000" font-family="sans-serif" font-size="17" lengthAdjust="spacing" textLength="112" x="465" y="503.5454">dem gleichen</text><text fill="#000000" font-family="sans-serif" font-size="17" lengthAdjust="spacing" textLength="162" x="420" y="523.3345">Matrix-Homeserver</text><polygon fill="#000000" points="144,578.9219,134,582.9219,144,586.9219,140,582.9219" style="stroke:#000000;stroke-width:1.0;"/><line style="stroke:#000000;stroke-width:1.0;stroke-dasharray:2.0,2.0;" x1="138" x2="359" y1="582.9219" y2="582.9219"/><text fill="#000000" font-family="sans-serif" font-size="17" lengthAdjust="spacing" textLength="160" x="188" y="557.1235">Event konnte nicht</text><text fill="#000000" font-family="sans-serif" font-size="17" lengthAdjust="spacing" textLength="161" x="192" y="576.9126">verarbeitet werden</text><polygon fill="#000000" points="850.5,644.7109,860.5,648.7109,850.5,652.7109,854.5,648.7109" style="stroke:#000000;stroke-width:1.0;"/><line style="stroke:#000000;stroke-width:1.0;" x1="599" x2="856.5" y1="648.7109" y2="648.7109"/><text fill="#000000" font-family="sans-serif" font-size="17" lengthAdjust="spacing" textLength="110" x="606" y="642.7017">HTTP Foward</text><line style="stroke:#000000;stroke-width:1.0;" x1="872.5" x2="914.5" y1="682.5" y2="682.5"/><line style="stroke:#000000;stroke-width:1.0;" x1="914.5" x2="914.5" y1="682.5" y2="695.5"/><line style="stroke:#000000;stroke-width:1.0;" x1="873.5" x2="914.5" y1="695.5" y2="695.5"/><polygon fill="#000000" points="883.5,691.5,873.5,695.5,883.5,699.5,879.5,695.5" style="stroke:#000000;stroke-width:1.0;"/><text fill="#000000" font-family="sans-serif" font-size="17" lengthAdjust="spacing" textLength="151" x="879.5" y="676.4907">Event verarbeiten</text><path d="M703,735.5 L773,735.5 L773,742.5 L763,752.5 L703,752.5 L703,735.5 " fill="#EEEEEE" style="stroke:#000000;stroke-width:1.0;"/><rect fill="none" height="147.125" style="stroke:#000000;stroke-width:2.0;" width="786" x="703" y="735.5"/><text fill="#000000" font-family="sans-serif" font-size="13" font-weight="bold" lengthAdjust="spacing" textLength="25" x="718" y="748.5669">opt</text><text fill="#000000" font-family="sans-serif" font-size="11" font-weight="bold" lengthAdjust="spacing" textLength="5" x="788" y="753.5308">[</text><text fill="#000000" font-family="sans-serif" font-size="16" font-weight="bold" lengthAdjust="spacing" textLength="43" x="793" y="752.3516">push</text><text fill="#000000" font-family="sans-serif" font-size="11" font-weight="bold" lengthAdjust="spacing" textLength="5" x="836" y="753.5308">]</text><polygon fill="#000000" points="1124,778.0469,1134,782.0469,1124,786.0469,1128,782.0469" style="stroke:#000000;stroke-width:1.0;"/><line style="stroke:#000000;stroke-width:1.0;" x1="872.5" x2="1130" y1="782.0469" y2="782.0469"/><text fill="#000000" font-family="sans-serif" font-size="17" lengthAdjust="spacing" textLength="97" x="879.5" y="776.0376">Notification</text><polygon fill="#000000" points="1358,811.8359,1368,815.8359,1358,819.8359,1362,815.8359" style="stroke:#000000;stroke-width:1.0;"/><line style="stroke:#000000;stroke-width:1.0;" x1="1146" x2="1364" y1="815.8359" y2="815.8359"/><text fill="#000000" font-family="sans-serif" font-size="17" lengthAdjust="spacing" textLength="97" x="1153" y="809.8267">Notification</text><polygon fill="#000000" points="883.5,845.625,873.5,849.625,883.5,853.625,879.5,849.625" style="stroke:#000000;stroke-width:1.0;"/><line style="stroke:#000000;stroke-width:1.0;stroke-dasharray:2.0,2.0;" x1="877.5" x2="1140" y1="849.625" y2="849.625"/><text fill="#000000" font-family="sans-serif" font-size="17" lengthAdjust="spacing" textLength="54" x="1080" y="843.6157">Status</text><polygon fill="#000000" points="610,936.4141,600,940.4141,610,944.4141,606,940.4141" style="stroke:#000000;stroke-width:1.0;"/><line style="stroke:#000000;stroke-width:1.0;" x1="604" x2="861.5" y1="940.4141" y2="940.4141"/><text fill="#000000" font-family="sans-serif" font-size="17" lengthAdjust="spacing" textLength="128" x="727.5" y="934.4048">Matrix-Request</text><polygon fill="#000000" points="1353,995.2031,1363,999.2031,1353,1003.2031,1357,999.2031" style="stroke:#000000;stroke-width:1.0;"/><line style="stroke:#000000;stroke-width:1.0;" x1="599" x2="1359" y1="999.2031" y2="999.2031"/><text fill="#000000" font-family="sans-serif" font-size="17" lengthAdjust="spacing" textLength="117" x="606" y="993.1938">HTTP Forward</text><polygon fill="#000000" points="610,1028.9922,600,1032.9922,610,1036.9922,606,1032.9922" style="stroke:#000000;stroke-width:1.0;"/><line style="stroke:#000000;stroke-width:1.0;stroke-dasharray:2.0,2.0;" x1="604" x2="1364" y1="1032.9922" y2="1032.9922"/><text fill="#000000" font-family="sans-serif" font-size="17" lengthAdjust="spacing" textLength="54" x="1304" y="1026.9829">Status</text><polygon fill="#000000" points="850.5,1087.7813,860.5,1091.7813,850.5,1095.7813,854.5,1091.7813" style="stroke:#000000;stroke-width:1.0;"/><line style="stroke:#000000;stroke-width:1.0;stroke-dasharray:2.0,2.0;" x1="599" x2="856.5" y1="1091.7813" y2="1091.7813"/><text fill="#000000" font-family="sans-serif" font-size="17" lengthAdjust="spacing" textLength="190" x="606" y="1085.772">HTTP Forward (Status)</text><polygon fill="#000000" points="610,1121.5703,600,1125.5703,610,1129.5703,606,1125.5703" style="stroke:#000000;stroke-width:1.0;"/><line style="stroke:#000000;stroke-width:1.0;" x1="604" x2="866.5" y1="1125.5703" y2="1125.5703"/><text fill="#000000" font-family="sans-serif" font-size="17" lengthAdjust="spacing" textLength="201" x="659.5" y="1119.561">Status (Matrix-Request)</text><polygon fill="#000000" points="381,1155.3594,371,1159.3594,381,1163.3594,377,1159.3594" style="stroke:#000000;stroke-width:1.0;"/><line style="stroke:#000000;stroke-width:1.0;stroke-dasharray:2.0,2.0;" x1="375" x2="588" y1="1159.3594" y2="1159.3594"/><text fill="#000000" font-family="sans-serif" font-size="17" lengthAdjust="spacing" textLength="117" x="465" y="1153.3501">HTTP Forward</text><polygon fill="#000000" points="144,1189.1484,134,1193.1484,144,1197.1484,140,1193.1484" style="stroke:#000000;stroke-width:1.0;"/><line style="stroke:#000000;stroke-width:1.0;stroke-dasharray:2.0,2.0;" x1="138" x2="364" y1="1193.1484" y2="1193.1484"/><text fill="#000000" font-family="sans-serif" font-size="17" lengthAdjust="spacing" textLength="54" x="304" y="1187.1392">Status</text><polygon fill="#000000" points="1353,1222.9375,1363,1226.9375,1353,1230.9375,1357,1226.9375" style="stroke:#000000;stroke-width:1.0;"/><line style="stroke:#000000;stroke-width:1.0;stroke-dasharray:2.0,2.0;" x1="594" x2="1359" y1="1226.9375" y2="1226.9375"/><text fill="#000000" font-family="sans-serif" font-size="17" lengthAdjust="spacing" textLength="117" x="601" y="1220.9282">HTTP Forward</text><polygon fill="#000000" points="1590,1256.7266,1600,1260.7266,1590,1264.7266,1594,1260.7266" style="stroke:#000000;stroke-width:1.0;"/><line style="stroke:#000000;stroke-width:1.0;stroke-dasharray:2.0,2.0;" x1="1370" x2="1596" y1="1260.7266" y2="1260.7266"/><text fill="#000000" font-family="sans-serif" font-size="17" lengthAdjust="spacing" textLength="54" x="1377" y="1254.7173">Status</text><!--MD5=[f5df67ddb3f4c3ecc36fdbd090af3c9c]
@startuml
skinparam sequenceMessageAlign direction
skinparam minClassWidth 200
skinparam BoxPadding 1
skinparam sequenceReferenceHeaderBackgroundColor palegreen
scale max 2048 width

skinparam sequence {
ArrowColor black
ArrowFontSize 17
ActorBorderColor black
LifeLineBorderColor black
LifeLineBackgroundColor Gainsboro

ParticipantBorderColor Motivation
ParticipantBackgroundColor Motivation
ParticipantFontName Impact
ParticipantFontSize 20
ParticipantFontColor black
ParticipantBorderColor Black
ParticipantBackgroundColor MOTIVATION

ActorBackgroundColor Gainsboro
ActorFontColor black
ActorFontSize 20
ActorFontName Aapex
}
    actor U1 as "Akteur - A in der Rolle\nUser / User-HBA"
    participant C1 as "TI-Messenger-\nClient A" #AliceBlue
    box <size:18>Messenger-Service</size> #WhiteSmoke
      participant MP as "Messenger-\nProxy"
      participant MH as "Matrix-Homeserver \n(inklusive Nutzerverzeichnis)"
      participant PG as "Push-Gateway"
    end box
    participant C2 as "TI-Messenger-\nClient B" #TECHNOLOGY
    actor U2 as "Akteur - B in der Rolle\nUser / User-HBA"
    
|||
note over U1, U2: \n<size:17>Die Akteure sind auf dem selben Messenger-Service angemeldet und im Besitz eines zugelassenen TI-Messenger-Clients</size>\n<size:17>Ebenfalls sind beide Akteure einem gemeinsamen Raum beigetreten</size>
|||

    U1->C1: Akteur löst \nMatrix-Event aus
      activate C1 #AliceBlue
    C1->MP: Matrix-Request
      activate MP
    MP->MP: Domainzugehörigkeit \nprüfen
    
    |||
    opt#LightGrey #MistyRose <size:16>Abbruch</size>
      MP- ->C1: Domain nicht auf \ndem gleichen \nMatrix-Homeserver
      C1- ->U1: Event konnte nicht \nverarbeitet werden
    end
    
    |||
    MP->MH: HTTP Foward
      activate MH
    MH->MH: Event verarbeiten
    
    |||
    opt <size:16>push</size>
    MH->PG: Notification
      activate PG
    PG->C2: Notification
    PG- ->MH: Status
      deactivate PG
    |||
    end
    
    |||
    MH->MP: Matrix-Request
    |||
    MP->C2: HTTP Forward
      activate C2 #TECHNOLOGY
    C2- ->MP: Status
    |||
    MP- ->MH: HTTP Forward (Status)
    MH->MP: Status (Matrix-Request)
      deactivate MH
    MP- ->C1: HTTP Forward
    C1- ->U1: Status
      deactivate C1
    MP- ->C2: HTTP Forward
      deactivate MP
    C2- ->U2: Status
    deactivate C2
  |||
|||
@enduml

PlantUML version 1.2021.16(Wed Dec 08 17:25:22 UTC 2021)
(GPL source distribution)
Java Runtime: OpenJDK Runtime Environment
JVM: OpenJDK 64-Bit Server VM
Default Encoding: UTF-8
Language: en
Country: null
--></g></svg>