<?xml version="1.0" encoding="UTF-8" standalone="no"?><svg xmlns="http://www.w3.org/2000/svg" xmlns:xlink="http://www.w3.org/1999/xlink" contentStyleType="text/css" height="1638px" preserveAspectRatio="none" style="width:1699px;height:1638px;background:#FFFFFF;" version="1.1" viewBox="0 0 1699 1638" width="1699px" zoomAndPan="magnify"><defs/><g><rect fill="#F5F5F5" height="1626.9453" style="stroke:#181818;stroke-width:0.5;" width="761" x="477" y="6"/><text fill="#000000" font-family="sans-serif" font-size="18" font-weight="bold" lengthAdjust="spacing" textLength="193" x="758.5" y="22.708">Messenger-Service</text><text fill="#000000" font-family="sans-serif" font-size="13" font-weight="bold" lengthAdjust="spacing" textLength="5" x="951.5" y="23.8872"> </text><rect fill="#F0F8FF" height="1173.3984" style="stroke:#000000;stroke-width:1.0;" width="10" x="358" y="306.9844"/><rect fill="#DCDCDC" height="1105.8203" style="stroke:#000000;stroke-width:1.0;" width="10" x="583" y="340.7734"/><rect fill="#DCDCDC" height="602.8047" style="stroke:#000000;stroke-width:1.0;" width="10" x="852.5" y="717.4219"/><rect fill="#DCDCDC" height="67.5781" style="stroke:#000000;stroke-width:1.0;" width="10" x="1122" y="895.5469"/><rect fill="#C9FFC9" height="305.3125" style="stroke:#000000;stroke-width:1.0;" width="10" x="1347" y="1107.4922"/><rect fill="#FFE4E1" height="172.7031" style="stroke:#000000;stroke-width:1.5;" width="695" x="10" y="486.9297"/><rect fill="#F0F8FF" height="172.125" style="stroke:#000000;stroke-width:1.5;" width="774" x="695" y="824"/><line style="stroke:#000000;stroke-width:0.5;stroke-dasharray:5.0,5.0;" x1="133" x2="133" y1="111.5625" y2="1523.3828"/><line style="stroke:#000000;stroke-width:0.5;stroke-dasharray:5.0,5.0;" x1="363" x2="363" y1="111.5625" y2="1523.3828"/><line style="stroke:#000000;stroke-width:0.5;stroke-dasharray:5.0,5.0;" x1="588" x2="588" y1="111.5625" y2="1523.3828"/><line style="stroke:#000000;stroke-width:0.5;stroke-dasharray:5.0,5.0;" x1="857" x2="857" y1="111.5625" y2="1523.3828"/><line style="stroke:#000000;stroke-width:0.5;stroke-dasharray:5.0,5.0;" x1="1127" x2="1127" y1="111.5625" y2="1523.3828"/><line style="stroke:#000000;stroke-width:0.5;stroke-dasharray:5.0,5.0;" x1="1352" x2="1352" y1="111.5625" y2="1523.3828"/><line style="stroke:#000000;stroke-width:0.5;stroke-dasharray:5.0,5.0;" x1="1582" x2="1582" y1="111.5625" y2="1523.3828"/><text fill="#000000" font-family="Aapex" font-size="20" lengthAdjust="spacing" textLength="220" x="20" y="83.5645">Akteur - A in der Rolle</text><text fill="#000000" font-family="Aapex" font-size="20" lengthAdjust="spacing" textLength="159" x="50.5" y="106.8457">User / User-HBA</text><ellipse cx="133" cy="13.5" fill="#DCDCDC" rx="8" ry="8" style="stroke:#000000;stroke-width:0.5;"/><path d="M133,21.5 L133,48.5 M120,29.5 L146,29.5 M133,48.5 L120,63.5 M133,48.5 L146,63.5 " fill="none" style="stroke:#000000;stroke-width:0.5;"/><text fill="#000000" font-family="Aapex" font-size="20" lengthAdjust="spacing" textLength="220" x="20" y="1540.9473">Akteur - A in der Rolle</text><text fill="#000000" font-family="Aapex" font-size="20" lengthAdjust="spacing" textLength="159" x="50.5" y="1564.2285">User / User-HBA</text><ellipse cx="133" cy="1577.4453" fill="#DCDCDC" rx="8" ry="8" style="stroke:#000000;stroke-width:0.5;"/><path d="M133,1585.4453 L133,1612.4453 M120,1593.4453 L146,1593.4453 M133,1612.4453 L120,1627.4453 M133,1612.4453 L146,1627.4453 " fill="none" style="stroke:#000000;stroke-width:0.5;"/><rect fill="#F0F8FF" height="60.5625" rx="2.5" ry="2.5" style="stroke:#000000;stroke-width:0.5;" width="214" x="256" y="50"/><text fill="#000000" font-family="Impact" font-size="20" lengthAdjust="spacing" textLength="139" x="293.5" y="75.5645">TI-Messenger-</text><text fill="#000000" font-family="Impact" font-size="20" lengthAdjust="spacing" textLength="79" x="323.5" y="98.8457">Client A</text><rect fill="#F0F8FF" height="60.5625" rx="2.5" ry="2.5" style="stroke:#000000;stroke-width:0.5;" width="214" x="256" y="1522.3828"/><text fill="#000000" font-family="Impact" font-size="20" lengthAdjust="spacing" textLength="139" x="293.5" y="1547.9473">TI-Messenger-</text><text fill="#000000" font-family="Impact" font-size="20" lengthAdjust="spacing" textLength="79" x="323.5" y="1571.2285">Client A</text><rect fill="#EFEFFF" height="60.5625" rx="2.5" ry="2.5" style="stroke:#000000;stroke-width:0.5;" width="214" x="481" y="50"/><text fill="#000000" font-family="Impact" font-size="20" lengthAdjust="spacing" textLength="114" x="531" y="75.5645">Messenger-</text><text fill="#000000" font-family="Impact" font-size="20" lengthAdjust="spacing" textLength="54" x="561" y="98.8457">Proxy</text><rect fill="#EFEFFF" height="60.5625" rx="2.5" ry="2.5" style="stroke:#000000;stroke-width:0.5;" width="214" x="481" y="1522.3828"/><text fill="#000000" font-family="Impact" font-size="20" lengthAdjust="spacing" textLength="114" x="531" y="1547.9473">Messenger-</text><text fill="#000000" font-family="Impact" font-size="20" lengthAdjust="spacing" textLength="54" x="561" y="1571.2285">Proxy</text><rect fill="#EFEFFF" height="60.5625" rx="2.5" ry="2.5" style="stroke:#000000;stroke-width:0.5;" width="305" x="705" y="50"/><text fill="#000000" font-family="Impact" font-size="20" lengthAdjust="spacing" textLength="189" x="760" y="75.5645">Matrix-Homeserver</text><text fill="#000000" font-family="Impact" font-size="20" lengthAdjust="spacing" textLength="291" x="712" y="98.8457">(inklusive Nutzerverzeichnis)</text><rect fill="#EFEFFF" height="60.5625" rx="2.5" ry="2.5" style="stroke:#000000;stroke-width:0.5;" width="305" x="705" y="1522.3828"/><text fill="#000000" font-family="Impact" font-size="20" lengthAdjust="spacing" textLength="189" x="760" y="1547.9473">Matrix-Homeserver</text><text fill="#000000" font-family="Impact" font-size="20" lengthAdjust="spacing" textLength="291" x="712" y="1571.2285">(inklusive Nutzerverzeichnis)</text><rect fill="#EFEFFF" height="37.2813" rx="2.5" ry="2.5" style="stroke:#000000;stroke-width:0.5;" width="214" x="1020" y="73.2813"/><text fill="#000000" font-family="Impact" font-size="20" lengthAdjust="spacing" textLength="143" x="1055.5" y="98.8457">Push-Gateway</text><rect fill="#EFEFFF" height="37.2813" rx="2.5" ry="2.5" style="stroke:#000000;stroke-width:0.5;" width="214" x="1020" y="1522.3828"/><text fill="#000000" font-family="Impact" font-size="20" lengthAdjust="spacing" textLength="143" x="1055.5" y="1547.9473">Push-Gateway</text><rect fill="#C9FFC9" height="60.5625" rx="2.5" ry="2.5" style="stroke:#000000;stroke-width:0.5;" width="214" x="1245" y="50"/><text fill="#000000" font-family="Impact" font-size="20" lengthAdjust="spacing" textLength="139" x="1282.5" y="75.5645">TI-Messenger-</text><text fill="#000000" font-family="Impact" font-size="20" lengthAdjust="spacing" textLength="79" x="1312.5" y="98.8457">Client B</text><rect fill="#C9FFC9" height="60.5625" rx="2.5" ry="2.5" style="stroke:#000000;stroke-width:0.5;" width="214" x="1245" y="1522.3828"/><text fill="#000000" font-family="Impact" font-size="20" lengthAdjust="spacing" textLength="139" x="1282.5" y="1547.9473">TI-Messenger-</text><text fill="#000000" font-family="Impact" font-size="20" lengthAdjust="spacing" textLength="79" x="1312.5" y="1571.2285">Client B</text><text fill="#000000" font-family="Aapex" font-size="20" lengthAdjust="spacing" textLength="220" x="1469" y="83.5645">Akteur - B in der Rolle</text><text fill="#000000" font-family="Aapex" font-size="20" lengthAdjust="spacing" textLength="159" x="1499.5" y="106.8457">User / User-HBA</text><ellipse cx="1582" cy="13.5" fill="#DCDCDC" rx="8" ry="8" style="stroke:#000000;stroke-width:0.5;"/><path d="M1582,21.5 L1582,48.5 M1569,29.5 L1595,29.5 M1582,48.5 L1569,63.5 M1582,48.5 L1595,63.5 " fill="none" style="stroke:#000000;stroke-width:0.5;"/><text fill="#000000" font-family="Aapex" font-size="20" lengthAdjust="spacing" textLength="220" x="1469" y="1540.9473">Akteur - B in der Rolle</text><text fill="#000000" font-family="Aapex" font-size="20" lengthAdjust="spacing" textLength="159" x="1499.5" y="1564.2285">User / User-HBA</text><ellipse cx="1582" cy="1577.4453" fill="#DCDCDC" rx="8" ry="8" style="stroke:#000000;stroke-width:0.5;"/><path d="M1582,1585.4453 L1582,1612.4453 M1569,1593.4453 L1595,1593.4453 M1582,1612.4453 L1569,1627.4453 M1582,1612.4453 L1595,1627.4453 " fill="none" style="stroke:#000000;stroke-width:0.5;"/><rect fill="#F0F8FF" height="1173.3984" style="stroke:#000000;stroke-width:1.0;" width="10" x="358" y="306.9844"/><rect fill="#DCDCDC" height="1105.8203" style="stroke:#000000;stroke-width:1.0;" width="10" x="583" y="340.7734"/><rect fill="#DCDCDC" height="602.8047" style="stroke:#000000;stroke-width:1.0;" width="10" x="852.5" y="717.4219"/><rect fill="#DCDCDC" height="67.5781" style="stroke:#000000;stroke-width:1.0;" width="10" x="1122" y="895.5469"/><rect fill="#C9FFC9" height="305.3125" style="stroke:#000000;stroke-width:1.0;" width="10" x="1347" y="1107.4922"/><path d="M22,151.5625 L22,230.5625 L1692,230.5625 L1692,161.5625 L1682,151.5625 L22,151.5625 " fill="#FEFFDD" style="stroke:#181818;stroke-width:0.5;"/><path d="M1682,151.5625 L1682,161.5625 L1692,161.5625 L1682,151.5625 " fill="#FEFFDD" style="stroke:#181818;stroke-width:0.5;"/><text fill="#000000" font-family="sans-serif" font-size="13" lengthAdjust="spacing" textLength="4" x="349" y="168.6294"> </text><text fill="#000000" font-family="sans-serif" font-size="17" lengthAdjust="spacing" textLength="1007" x="349" y="187.4751">Die Akteure sind auf dem selben Messenger-Service angemeldet und im Besitz eines zugelassenen TI-Messenger-Clients.</text><text fill="#000000" font-family="sans-serif" font-size="17" lengthAdjust="spacing" textLength="580" x="349" y="207.2642">Ebenfalls sind beide Akteure einem gemeinsamen Raum beigetreten.</text><text fill="#000000" font-family="sans-serif" font-size="13" lengthAdjust="spacing" textLength="4" x="349" y="223.3403"> </text><polygon fill="#000000" points="346,302.9844,356,306.9844,346,310.9844,350,306.9844" style="stroke:#000000;stroke-width:1.0;"/><line style="stroke:#000000;stroke-width:1.0;" x1="133" x2="352" y1="306.9844" y2="306.9844"/><text fill="#000000" font-family="sans-serif" font-size="17" lengthAdjust="spacing" textLength="107" x="140" y="281.186">Akteur A löst</text><text fill="#000000" font-family="sans-serif" font-size="17" lengthAdjust="spacing" textLength="143" x="140" y="300.9751">Matrix-Event aus</text><polygon fill="#FF0000" points="571,336.7734,581,340.7734,571,344.7734,575,340.7734" style="stroke:#FF0000;stroke-width:1.0;"/><line style="stroke:#FF0000;stroke-width:1.0;" x1="368" x2="577" y1="340.7734" y2="340.7734"/><text fill="#000000" font-family="sans-serif" font-size="17" lengthAdjust="spacing" textLength="128" x="375" y="334.7642">Matrix-Request</text><line style="stroke:#000000;stroke-width:1.0;" x1="593" x2="635" y1="433.9297" y2="433.9297"/><line style="stroke:#000000;stroke-width:1.0;" x1="635" x2="635" y1="433.9297" y2="446.9297"/><line style="stroke:#000000;stroke-width:1.0;" x1="594" x2="635" y1="446.9297" y2="446.9297"/><polygon fill="#000000" points="604,442.9297,594,446.9297,604,450.9297,600,446.9297" style="stroke:#000000;stroke-width:1.0;"/><text fill="#000000" font-family="sans-serif" font-size="17" lengthAdjust="spacing" textLength="128" x="600" y="368.5532">Prüfung, ob der</text><text fill="#000000" font-family="sans-serif" font-size="17" lengthAdjust="spacing" textLength="166" x="600" y="388.3423">Empfänger auf dem</text><text fill="#000000" font-family="sans-serif" font-size="17" lengthAdjust="spacing" textLength="215" x="600" y="408.1313">selben Messenger-Service</text><text fill="#000000" font-family="sans-serif" font-size="17" lengthAdjust="spacing" textLength="108" x="600" y="427.9204">registriert ist</text><path d="M10,486.9297 L80,486.9297 L80,494.0625 L70,504.0625 L10,504.0625 L10,486.9297 " fill="#D3D3D3" style="stroke:#000000;stroke-width:1.5;"/><rect fill="none" height="172.7031" style="stroke:#000000;stroke-width:1.5;" width="695" x="10" y="486.9297"/><text fill="#000000" font-family="sans-serif" font-size="13" font-weight="bold" lengthAdjust="spacing" textLength="25" x="25" y="499.9966">opt</text><text fill="#000000" font-family="sans-serif" font-size="11" font-weight="bold" lengthAdjust="spacing" textLength="5" x="95" y="504.9604">[</text><text fill="#000000" font-family="sans-serif" font-size="16" font-weight="bold" lengthAdjust="spacing" textLength="74" x="100" y="503.7813">Abbruch</text><text fill="#000000" font-family="sans-serif" font-size="11" font-weight="bold" lengthAdjust="spacing" textLength="5" x="174" y="504.9604">]</text><polygon fill="#000000" points="379,569.0547,369,573.0547,379,577.0547,375,573.0547" style="stroke:#000000;stroke-width:1.0;"/><line style="stroke:#000000;stroke-width:1.0;stroke-dasharray:2.0,2.0;" x1="373" x2="582" y1="573.0547" y2="573.0547"/><text fill="#000000" font-family="sans-serif" font-size="17" lengthAdjust="spacing" textLength="164" x="407" y="527.4673">Empfänger ist nicht</text><text fill="#000000" font-family="sans-serif" font-size="17" lengthAdjust="spacing" textLength="144" x="407" y="547.2563">auf dem gleichen</text><text fill="#000000" font-family="sans-serif" font-size="17" lengthAdjust="spacing" textLength="162" x="407" y="567.0454">Matrix-Homeserver</text><polygon fill="#000000" points="144,622.6328,134,626.6328,144,630.6328,140,626.6328" style="stroke:#000000;stroke-width:1.0;"/><line style="stroke:#000000;stroke-width:1.0;stroke-dasharray:2.0,2.0;" x1="138" x2="357" y1="626.6328" y2="626.6328"/><text fill="#000000" font-family="sans-serif" font-size="17" lengthAdjust="spacing" textLength="160" x="186" y="600.8345">Event konnte nicht</text><text fill="#000000" font-family="sans-serif" font-size="17" lengthAdjust="spacing" textLength="161" x="186" y="620.6235">verarbeitet werden</text><polygon fill="#FF0000" points="840.5,713.4219,850.5,717.4219,840.5,721.4219,844.5,717.4219" style="stroke:#FF0000;stroke-width:1.0;"/><line style="stroke:#FF0000;stroke-width:1.0;" x1="593" x2="846.5" y1="717.4219" y2="717.4219"/><text fill="#000000" font-family="sans-serif" font-size="17" lengthAdjust="spacing" textLength="135" x="600" y="711.4126">HTTP(S) Foward</text><line style="stroke:#000000;stroke-width:1.0;" x1="862.5" x2="904.5" y1="771" y2="771"/><line style="stroke:#000000;stroke-width:1.0;" x1="904.5" x2="904.5" y1="771" y2="784"/><line style="stroke:#000000;stroke-width:1.0;" x1="863.5" x2="904.5" y1="784" y2="784"/><polygon fill="#000000" points="873.5,780,863.5,784,873.5,788,869.5,784" style="stroke:#000000;stroke-width:1.0;"/><text fill="#000000" font-family="sans-serif" font-size="17" lengthAdjust="spacing" textLength="49" x="869.5" y="745.2017">Event</text><text fill="#000000" font-family="sans-serif" font-size="17" lengthAdjust="spacing" textLength="97" x="869.5" y="764.9907">verarbeiten</text><path d="M695,824 L765,824 L765,831.1328 L755,841.1328 L695,841.1328 L695,824 " fill="#D3D3D3" style="stroke:#000000;stroke-width:1.5;"/><rect fill="none" height="172.125" style="stroke:#000000;stroke-width:1.5;" width="774" x="695" y="824"/><text fill="#000000" font-family="sans-serif" font-size="13" font-weight="bold" lengthAdjust="spacing" textLength="25" x="710" y="837.0669">opt</text><text fill="#000000" font-family="sans-serif" font-size="11" font-weight="bold" lengthAdjust="spacing" textLength="5" x="780" y="842.0308">[</text><text fill="#000000" font-family="sans-serif" font-size="16" font-weight="bold" lengthAdjust="spacing" textLength="197" x="785" y="840.8516">Pushbenachrichtigung</text><text fill="#000000" font-family="sans-serif" font-size="11" font-weight="bold" lengthAdjust="spacing" textLength="5" x="982" y="842.0308">]</text><polygon fill="#000000" points="1110,891.5469,1120,895.5469,1110,899.5469,1114,895.5469" style="stroke:#000000;stroke-width:1.0;"/><line style="stroke:#000000;stroke-width:1.0;" x1="862.5" x2="1116" y1="895.5469" y2="895.5469"/><text fill="#000000" font-family="sans-serif" font-size="17" lengthAdjust="spacing" textLength="221" x="869.5" y="889.5376">POST /_matrix/push/notify</text><polygon fill="#000000" points="1340,925.3359,1350,929.3359,1340,933.3359,1344,929.3359" style="stroke:#000000;stroke-width:1.0;"/><line style="stroke:#000000;stroke-width:1.0;" x1="1132" x2="1346" y1="929.3359" y2="929.3359"/><text fill="#000000" font-family="sans-serif" font-size="17" lengthAdjust="spacing" textLength="97" x="1139" y="923.3267">Notification</text><polygon fill="#000000" points="873.5,959.125,863.5,963.125,873.5,967.125,869.5,963.125" style="stroke:#000000;stroke-width:1.0;"/><line style="stroke:#000000;stroke-width:1.0;stroke-dasharray:2.0,2.0;" x1="867.5" x2="1126" y1="963.125" y2="963.125"/><text fill="#000000" font-family="sans-serif" font-size="17" lengthAdjust="spacing" textLength="54" x="1066" y="957.1157">Status</text><polygon fill="#000000" points="604,1069.7031,594,1073.7031,604,1077.7031,600,1073.7031" style="stroke:#000000;stroke-width:1.0;"/><line style="stroke:#000000;stroke-width:1.0;" x1="598" x2="851.5" y1="1073.7031" y2="1073.7031"/><text fill="#000000" font-family="sans-serif" font-size="17" lengthAdjust="spacing" textLength="128" x="712.5" y="1047.9048">Matrix-Request</text><text fill="#000000" font-family="sans-serif" font-size="17" lengthAdjust="spacing" textLength="94" x="712.5" y="1067.6938">an Client-B</text><polygon fill="#000000" points="1335,1103.4922,1345,1107.4922,1335,1111.4922,1339,1107.4922" style="stroke:#000000;stroke-width:1.0;"/><line style="stroke:#000000;stroke-width:1.0;" x1="593" x2="1341" y1="1107.4922" y2="1107.4922"/><text fill="#000000" font-family="sans-serif" font-size="17" lengthAdjust="spacing" textLength="142" x="600" y="1101.4829">HTTP(S) Forward</text><line style="stroke:#000000;stroke-width:1.0;" x1="1357" x2="1399" y1="1161.0703" y2="1161.0703"/><line style="stroke:#000000;stroke-width:1.0;" x1="1399" x2="1399" y1="1161.0703" y2="1174.0703"/><line style="stroke:#000000;stroke-width:1.0;" x1="1358" x2="1399" y1="1174.0703" y2="1174.0703"/><polygon fill="#000000" points="1368,1170.0703,1358,1174.0703,1368,1178.0703,1364,1174.0703" style="stroke:#000000;stroke-width:1.0;"/><text fill="#000000" font-family="sans-serif" font-size="17" lengthAdjust="spacing" textLength="49" x="1364" y="1135.272">Event</text><text fill="#000000" font-family="sans-serif" font-size="17" lengthAdjust="spacing" textLength="97" x="1364" y="1155.061">verarbeiten</text><polygon fill="#000000" points="604,1203.8594,594,1207.8594,604,1211.8594,600,1207.8594" style="stroke:#000000;stroke-width:1.0;"/><line style="stroke:#000000;stroke-width:1.0;stroke-dasharray:2.0,2.0;" x1="598" x2="1346" y1="1207.8594" y2="1207.8594"/><text fill="#000000" font-family="sans-serif" font-size="17" lengthAdjust="spacing" textLength="54" x="1286" y="1201.8501">Status</text><polygon fill="#000000" points="840.5,1257.4375,850.5,1261.4375,840.5,1265.4375,844.5,1261.4375" style="stroke:#000000;stroke-width:1.0;"/><line style="stroke:#000000;stroke-width:1.0;stroke-dasharray:2.0,2.0;" x1="593" x2="846.5" y1="1261.4375" y2="1261.4375"/><text fill="#000000" font-family="sans-serif" font-size="17" lengthAdjust="spacing" textLength="142" x="600" y="1235.6392">HTTP(S) Forward</text><text fill="#000000" font-family="sans-serif" font-size="17" lengthAdjust="spacing" textLength="141" x="600" y="1255.4282">(Status Client-B)</text><polygon fill="#FF0000" points="604,1316.2266,594,1320.2266,604,1324.2266,600,1320.2266" style="stroke:#FF0000;stroke-width:1.0;"/><line style="stroke:#FF0000;stroke-width:1.0;stroke-dasharray:2.0,2.0;" x1="598" x2="856.5" y1="1320.2266" y2="1320.2266"/><text fill="#000000" font-family="sans-serif" font-size="17" lengthAdjust="spacing" textLength="201" x="649.5" y="1314.2173">Status (Matrix-Request)</text><polygon fill="#000000" points="1335,1375.0156,1345,1379.0156,1335,1383.0156,1339,1379.0156" style="stroke:#000000;stroke-width:1.0;"/><line style="stroke:#000000;stroke-width:1.0;stroke-dasharray:2.0,2.0;" x1="593" x2="1341" y1="1379.0156" y2="1379.0156"/><text fill="#000000" font-family="sans-serif" font-size="17" lengthAdjust="spacing" textLength="142" x="600" y="1373.0063">HTTP(S) Forward</text><polygon fill="#000000" points="1570,1408.8047,1580,1412.8047,1570,1416.8047,1574,1412.8047" style="stroke:#000000;stroke-width:1.0;"/><line style="stroke:#000000;stroke-width:1.0;stroke-dasharray:2.0,2.0;" x1="1352" x2="1576" y1="1412.8047" y2="1412.8047"/><text fill="#000000" font-family="sans-serif" font-size="17" lengthAdjust="spacing" textLength="54" x="1359" y="1406.7954">Status</text><polygon fill="#000000" points="379,1442.5938,369,1446.5938,379,1450.5938,375,1446.5938" style="stroke:#000000;stroke-width:1.0;"/><line style="stroke:#000000;stroke-width:1.0;stroke-dasharray:2.0,2.0;" x1="373" x2="587" y1="1446.5938" y2="1446.5938"/><text fill="#000000" font-family="sans-serif" font-size="17" lengthAdjust="spacing" textLength="142" x="439" y="1440.5845">HTTP(S) Forward</text><polygon fill="#000000" points="144,1476.3828,134,1480.3828,144,1484.3828,140,1480.3828" style="stroke:#000000;stroke-width:1.0;"/><line style="stroke:#000000;stroke-width:1.0;stroke-dasharray:2.0,2.0;" x1="138" x2="362" y1="1480.3828" y2="1480.3828"/><text fill="#000000" font-family="sans-serif" font-size="17" lengthAdjust="spacing" textLength="54" x="302" y="1474.3735">Status</text><!--MD5=[e9858312e307259ee650dc0b31a93626]
@startuml
skinparam sequenceMessageAlign direction
skinparam minClassWidth 200
skinparam BoxPadding 1
skinparam sequenceReferenceHeaderBackgroundColor palegreen
scale max 2048 width

skinparam sequence {
ArrowColor black
ArrowFontSize 17
ActorBorderColor black
LifeLineBorderColor black
LifeLineBackgroundColor Gainsboro

ParticipantBorderColor Motivation
ParticipantBackgroundColor Motivation
ParticipantFontName Impact
ParticipantFontSize 20
ParticipantFontColor black
ParticipantBorderColor Black
ParticipantBackgroundColor MOTIVATION

ActorBackgroundColor Gainsboro
ActorFontColor black
ActorFontSize 20
ActorFontName Aapex
}
    actor U1 as "Akteur - A in der Rolle\nUser / User-HBA"
    participant C1 as "TI-Messenger-\nClient A" #AliceBlue
    box <size:18>Messenger-Service</size> #WhiteSmoke
      participant MP as "Messenger-\nProxy"
      participant MH as "Matrix-Homeserver \n(inklusive Nutzerverzeichnis)"
      participant PG as "Push-Gateway"
    end box
    participant C2 as "TI-Messenger-\nClient B" #TECHNOLOGY
    actor U2 as "Akteur - B in der Rolle\nUser / User-HBA"
    
|||
note over U1, U2: \n<size:17>Die Akteure sind auf dem selben Messenger-Service angemeldet und im Besitz eines zugelassenen TI-Messenger-Clients.</size>\n<size:17>Ebenfalls sind beide Akteure einem gemeinsamen Raum beigetreten.</size>\n
|||

    U1->C1: Akteur A löst \nMatrix-Event aus
      activate C1 #AliceBlue
    C1-[#red]>MP: Matrix-Request
      activate MP
    MP->MP: Prüfung, ob der \nEmpfänger auf dem \nselben Messenger-Service \nregistriert ist
    
    |||
    opt#LightGrey #MistyRose <size:16>Abbruch</size>
      MP- ->C1: Empfänger ist nicht \nauf dem gleichen \nMatrix-Homeserver
      C1- ->U1: Event konnte nicht \nverarbeitet werden
    |||
    end
    
    |||
    MP-[#red]>MH: HTTP(S) Foward
      activate MH
    MH->MH: Event \nverarbeiten
    
    |||
    opt#LightGrey #AliceBlue <size:16>Pushbenachrichtigung</size>
    |||
    MH->PG: POST /_matrix/push/notify
      activate PG
    PG->C2: Notification
    PG- ->MH: Status
      deactivate PG
    |||
    end
    
    |||
    MH->MP: Matrix-Request \nan Client-B
    MP->C2: HTTP(S) Forward
      activate C2 #TECHNOLOGY
    C2->C2: Event \nverarbeiten
    C2- ->MP: Status
    MP- ->MH: HTTP(S) Forward \n(Status Client-B)
    |||
    MH-[#red]->MP: Status (Matrix-Request)
      deactivate MH
    |||
    MP- ->C2: HTTP(S) Forward
    C2- ->U2: Status
      deactivate C2
    MP- ->C1: HTTP(S) Forward
      deactivate MP
    C1- ->U1: Status
      deactivate C1
|||
@enduml

PlantUML version 1.2022.5(Sat Apr 30 10:55:52 UTC 2022)
(GPL source distribution)
Java Runtime: OpenJDK Runtime Environment
JVM: OpenJDK 64-Bit Server VM
Default Encoding: UTF-8
Language: en
Country: null
--></g></svg>