<?xml version="1.0" encoding="us-ascii" standalone="no"?><svg xmlns="http://www.w3.org/2000/svg" xmlns:xlink="http://www.w3.org/1999/xlink" contentStyleType="text/css" height="2187px" preserveAspectRatio="none" style="width:1894px;height:2187px;background:#FFFFFF;" version="1.1" viewBox="0 0 1894 2187" width="1894px" zoomAndPan="magnify"><defs/><g><rect fill="#F5F5F5" height="2175.0859" style="stroke:#181818;stroke-width:0.5;" width="844.5" x="572" y="6"/><text fill="#000000" font-family="sans-serif" font-size="18" font-weight="bold" lengthAdjust="spacing" textLength="193" x="895.25" y="22.708">Messenger-Service</text><text fill="#000000" font-family="sans-serif" font-size="13" font-weight="bold" lengthAdjust="spacing" textLength="5" x="1088.25" y="23.8872">&#160;</text><rect fill="#F0F8FF" height="1569.2031" style="stroke:#000000;stroke-width:1.0;" width="10" x="368" y="339.9531"/><rect fill="#DCDCDC" height="1549.4141" style="stroke:#000000;stroke-width:1.0;" width="10" x="678" y="393.5313"/><rect fill="#DCDCDC" height="100.3672" style="stroke:#000000;stroke-width:1.0;" width="10" x="1022.5" y="474.1094"/><rect fill="#DCDCDC" height="638.0156" style="stroke:#000000;stroke-width:1.0;" width="10" x="1022.5" y="1183.7734"/><rect fill="#DCDCDC" height="67.5781" style="stroke:#000000;stroke-width:1.0;" width="10" x="1300.5" y="1342.1094"/><rect fill="#C9FFC9" height="462.2578" style="stroke:#000000;stroke-width:1.0;" width="10" x="1525.5" y="1534.2656"/><rect fill="#F0F8FF" height="372.8594" style="stroke:#000000;stroke-width:1.5;" width="1201.5" x="20" y="268.4063"/><rect fill="#F0F8FF" height="1148" style="stroke:#000000;stroke-width:1.5;" width="1877.5" x="10" y="881.5234"/><rect fill="#FFE4E1" height="142.5" style="stroke:#000000;stroke-width:1.5;" width="600" x="20" y="987.8594"/><rect fill="#F0F8FF" height="892.1641" style="stroke:none;stroke-width:1.0;" width="1877.5" x="10" y="1137.3594"/><rect fill="#ADD8E6" height="172.125" style="stroke:#000000;stroke-width:1.5;" width="782.5" x="865" y="1270.5625"/><line style="stroke:#000000;stroke-width:0.5;stroke-dasharray:5.0,5.0;" x1="143" x2="143" y1="111.5625" y2="2071.5234"/><line style="stroke:#000000;stroke-width:0.5;stroke-dasharray:5.0,5.0;" x1="373" x2="373" y1="111.5625" y2="2071.5234"/><line style="stroke:#000000;stroke-width:0.5;stroke-dasharray:5.0,5.0;" x1="683" x2="683" y1="111.5625" y2="2071.5234"/><line style="stroke:#000000;stroke-width:0.5;stroke-dasharray:5.0,5.0;" x1="1027" x2="1027" y1="111.5625" y2="2071.5234"/><line style="stroke:#000000;stroke-width:0.5;stroke-dasharray:5.0,5.0;" x1="1305.5" x2="1305.5" y1="111.5625" y2="2071.5234"/><line style="stroke:#000000;stroke-width:0.5;stroke-dasharray:5.0,5.0;" x1="1530.5" x2="1530.5" y1="111.5625" y2="2071.5234"/><line style="stroke:#000000;stroke-width:0.5;stroke-dasharray:5.0,5.0;" x1="1764.5" x2="1764.5" y1="111.5625" y2="2071.5234"/><text fill="#000000" font-family="sans-serif" font-size="20" lengthAdjust="spacing" textLength="220" x="30" y="83.5645">Akteur - A in der Rolle</text><text fill="#000000" font-family="sans-serif" font-size="20" lengthAdjust="spacing" textLength="45" x="117.5" y="106.8457">User</text><ellipse cx="143" cy="13.5" fill="#DCDCDC" rx="8" ry="8" style="stroke:#000000;stroke-width:0.5;"/><path d="M143,21.5 L143,48.5 M130,29.5 L156,29.5 M143,48.5 L130,63.5 M143,48.5 L156,63.5 " fill="none" style="stroke:#000000;stroke-width:0.5;"/><text fill="#000000" font-family="sans-serif" font-size="20" lengthAdjust="spacing" textLength="220" x="30" y="2089.0879">Akteur - A in der Rolle</text><text fill="#000000" font-family="sans-serif" font-size="20" lengthAdjust="spacing" textLength="45" x="117.5" y="2112.3691">User</text><ellipse cx="143" cy="2125.5859" fill="#DCDCDC" rx="8" ry="8" style="stroke:#000000;stroke-width:0.5;"/><path d="M143,2133.5859 L143,2160.5859 M130,2141.5859 L156,2141.5859 M143,2160.5859 L130,2175.5859 M143,2160.5859 L156,2175.5859 " fill="none" style="stroke:#000000;stroke-width:0.5;"/><rect fill="#F0F8FF" height="60.5625" rx="2.5" ry="2.5" style="stroke:#000000;stroke-width:0.5;" width="214" x="266" y="50"/><text fill="#000000" font-family="sans-serif" font-size="20" lengthAdjust="spacing" textLength="139" x="303.5" y="75.5645">TI-Messenger-</text><text fill="#000000" font-family="sans-serif" font-size="20" lengthAdjust="spacing" textLength="79" x="333.5" y="98.8457">Client A</text><rect fill="#F0F8FF" height="60.5625" rx="2.5" ry="2.5" style="stroke:#000000;stroke-width:0.5;" width="214" x="266" y="2070.5234"/><text fill="#000000" font-family="sans-serif" font-size="20" lengthAdjust="spacing" textLength="139" x="303.5" y="2096.0879">TI-Messenger-</text><text fill="#000000" font-family="sans-serif" font-size="20" lengthAdjust="spacing" textLength="79" x="333.5" y="2119.3691">Client A</text><rect fill="#EFEFFF" height="60.5625" rx="2.5" ry="2.5" style="stroke:#000000;stroke-width:0.5;" width="214" x="576" y="50"/><text fill="#000000" font-family="sans-serif" font-size="20" lengthAdjust="spacing" textLength="114" x="626" y="75.5645">Messenger-</text><text fill="#000000" font-family="sans-serif" font-size="20" lengthAdjust="spacing" textLength="54" x="656" y="98.8457">Proxy</text><rect fill="#EFEFFF" height="60.5625" rx="2.5" ry="2.5" style="stroke:#000000;stroke-width:0.5;" width="214" x="576" y="2070.5234"/><text fill="#000000" font-family="sans-serif" font-size="20" lengthAdjust="spacing" textLength="114" x="626" y="2096.0879">Messenger-</text><text fill="#000000" font-family="sans-serif" font-size="20" lengthAdjust="spacing" textLength="54" x="656" y="2119.3691">Proxy</text><rect fill="#EFEFFF" height="60.5625" rx="2.5" ry="2.5" style="stroke:#000000;stroke-width:0.5;" width="305" x="875" y="50"/><text fill="#000000" font-family="sans-serif" font-size="20" lengthAdjust="spacing" textLength="189" x="930" y="75.5645">Matrix-Homeserver</text><text fill="#000000" font-family="sans-serif" font-size="20" lengthAdjust="spacing" textLength="291" x="882" y="98.8457">(inklusive Nutzerverzeichnis)</text><rect fill="#EFEFFF" height="60.5625" rx="2.5" ry="2.5" style="stroke:#000000;stroke-width:0.5;" width="305" x="875" y="2070.5234"/><text fill="#000000" font-family="sans-serif" font-size="20" lengthAdjust="spacing" textLength="189" x="930" y="2096.0879">Matrix-Homeserver</text><text fill="#000000" font-family="sans-serif" font-size="20" lengthAdjust="spacing" textLength="291" x="882" y="2119.3691">(inklusive Nutzerverzeichnis)</text><rect fill="#EFEFFF" height="37.2813" rx="2.5" ry="2.5" style="stroke:#000000;stroke-width:0.5;" width="214" x="1198.5" y="73.2813"/><text fill="#000000" font-family="sans-serif" font-size="20" lengthAdjust="spacing" textLength="143" x="1234" y="98.8457">Push-Gateway</text><rect fill="#EFEFFF" height="37.2813" rx="2.5" ry="2.5" style="stroke:#000000;stroke-width:0.5;" width="214" x="1198.5" y="2070.5234"/><text fill="#000000" font-family="sans-serif" font-size="20" lengthAdjust="spacing" textLength="143" x="1234" y="2096.0879">Push-Gateway</text><rect fill="#C9FFC9" height="60.5625" rx="2.5" ry="2.5" style="stroke:#000000;stroke-width:0.5;" width="214" x="1423.5" y="50"/><text fill="#000000" font-family="sans-serif" font-size="20" lengthAdjust="spacing" textLength="139" x="1461" y="75.5645">TI-Messenger-</text><text fill="#000000" font-family="sans-serif" font-size="20" lengthAdjust="spacing" textLength="79" x="1491" y="98.8457">Client B</text><rect fill="#C9FFC9" height="60.5625" rx="2.5" ry="2.5" style="stroke:#000000;stroke-width:0.5;" width="214" x="1423.5" y="2070.5234"/><text fill="#000000" font-family="sans-serif" font-size="20" lengthAdjust="spacing" textLength="139" x="1461" y="2096.0879">TI-Messenger-</text><text fill="#000000" font-family="sans-serif" font-size="20" lengthAdjust="spacing" textLength="79" x="1491" y="2119.3691">Client B</text><text fill="#000000" font-family="sans-serif" font-size="20" lengthAdjust="spacing" textLength="220" x="1651.5" y="83.5645">Akteur - B in der Rolle</text><text fill="#000000" font-family="sans-serif" font-size="20" lengthAdjust="spacing" textLength="45" x="1739" y="106.8457">User</text><ellipse cx="1764.5" cy="13.5" fill="#DCDCDC" rx="8" ry="8" style="stroke:#000000;stroke-width:0.5;"/><path d="M1764.5,21.5 L1764.5,48.5 M1751.5,29.5 L1777.5,29.5 M1764.5,48.5 L1751.5,63.5 M1764.5,48.5 L1777.5,63.5 " fill="none" style="stroke:#000000;stroke-width:0.5;"/><text fill="#000000" font-family="sans-serif" font-size="20" lengthAdjust="spacing" textLength="220" x="1651.5" y="2089.0879">Akteur - B in der Rolle</text><text fill="#000000" font-family="sans-serif" font-size="20" lengthAdjust="spacing" textLength="45" x="1739" y="2112.3691">User</text><ellipse cx="1764.5" cy="2125.5859" fill="#DCDCDC" rx="8" ry="8" style="stroke:#000000;stroke-width:0.5;"/><path d="M1764.5,2133.5859 L1764.5,2160.5859 M1751.5,2141.5859 L1777.5,2141.5859 M1764.5,2160.5859 L1751.5,2175.5859 M1764.5,2160.5859 L1777.5,2175.5859 " fill="none" style="stroke:#000000;stroke-width:0.5;"/><rect fill="#F0F8FF" height="1569.2031" style="stroke:#000000;stroke-width:1.0;" width="10" x="368" y="339.9531"/><rect fill="#DCDCDC" height="1549.4141" style="stroke:#000000;stroke-width:1.0;" width="10" x="678" y="393.5313"/><rect fill="#DCDCDC" height="100.3672" style="stroke:#000000;stroke-width:1.0;" width="10" x="1022.5" y="474.1094"/><rect fill="#DCDCDC" height="638.0156" style="stroke:#000000;stroke-width:1.0;" width="10" x="1022.5" y="1183.7734"/><rect fill="#DCDCDC" height="67.5781" style="stroke:#000000;stroke-width:1.0;" width="10" x="1300.5" y="1342.1094"/><rect fill="#C9FFC9" height="462.2578" style="stroke:#000000;stroke-width:1.0;" width="10" x="1525.5" y="1534.2656"/><path d="M32,151.5625 L32,230.5625 L1874,230.5625 L1874,161.5625 L1864,151.5625 L32,151.5625 " fill="#FEFFDD" style="stroke:#181818;stroke-width:0.5;"/><path d="M1864,151.5625 L1864,161.5625 L1874,161.5625 L1864,151.5625 " fill="#FEFFDD" style="stroke:#181818;stroke-width:0.5;"/><text fill="#000000" font-family="sans-serif" font-size="13" lengthAdjust="spacing" textLength="4" x="445.25" y="168.6294">&#160;</text><text fill="#000000" font-family="sans-serif" font-size="17" lengthAdjust="spacing" textLength="1007" x="445.25" y="187.4751">Die Akteure sind auf dem selben Messenger-Service angemeldet und im Besitz eines zugelassenen TI-Messenger-Clients.</text><text fill="#000000" font-family="sans-serif" font-size="17" lengthAdjust="spacing" textLength="473" x="445.25" y="207.2642">Ein Chatraum wurde durch den Einladenen eingerichtet.</text><text fill="#000000" font-family="sans-serif" font-size="13" lengthAdjust="spacing" textLength="4" x="445.25" y="223.3403">&#160;</text><path d="M20,268.4063 L90,268.4063 L90,275.5391 L80,285.5391 L20,285.5391 L20,268.4063 " fill="#D3D3D3" style="stroke:#000000;stroke-width:1.5;"/><rect fill="none" height="372.8594" style="stroke:#000000;stroke-width:1.5;" width="1201.5" x="20" y="268.4063"/><text fill="#000000" font-family="sans-serif" font-size="13" font-weight="bold" lengthAdjust="spacing" textLength="25" x="35" y="281.4731">opt</text><text fill="#000000" font-family="sans-serif" font-size="11" font-weight="bold" lengthAdjust="spacing" textLength="5" x="105" y="286.437">[</text><text fill="#000000" font-family="sans-serif" font-size="16" font-weight="bold" lengthAdjust="spacing" textLength="131" x="110" y="285.2578">Akteur suchen</text><text fill="#000000" font-family="sans-serif" font-size="11" font-weight="bold" lengthAdjust="spacing" textLength="5" x="241" y="286.437">]</text><polygon fill="#000000" points="356,335.9531,366,339.9531,356,343.9531,360,339.9531" style="stroke:#000000;stroke-width:1.0;"/><line style="stroke:#000000;stroke-width:1.0;" x1="143" x2="362" y1="339.9531" y2="339.9531"/><text fill="#000000" font-family="sans-serif" font-size="17" font-weight="bold" lengthAdjust="spacing" textLength="12" x="150" y="333.9438">1</text><text fill="#000000" font-family="sans-serif" font-size="17" lengthAdjust="spacing" textLength="129" x="166" y="333.9438">Suche Akteur B</text><polygon fill="#000000" points="666,389.5313,676,393.5313,666,397.5313,670,393.5313" style="stroke:#000000;stroke-width:1.0;"/><line style="stroke:#000000;stroke-width:1.0;" x1="378" x2="672" y1="393.5313" y2="393.5313"/><text fill="#000000" font-family="sans-serif" font-size="17" font-weight="bold" lengthAdjust="spacing" textLength="12" x="385" y="377.6274">2</text><text fill="#000000" font-family="sans-serif" font-size="17" lengthAdjust="spacing" textLength="178" x="401" y="367.7329">POST /_matrix/client/</text><text fill="#000000" font-family="sans-serif" font-size="17" lengthAdjust="spacing" textLength="179" x="401" y="387.522">user_directory/search</text><line style="stroke:#000000;stroke-width:1.0;" x1="688" x2="730" y1="427.3203" y2="427.3203"/><line style="stroke:#000000;stroke-width:1.0;" x1="730" x2="730" y1="427.3203" y2="440.3203"/><line style="stroke:#000000;stroke-width:1.0;" x1="689" x2="730" y1="440.3203" y2="440.3203"/><polygon fill="#000000" points="699,436.3203,689,440.3203,699,444.3203,695,440.3203" style="stroke:#000000;stroke-width:1.0;"/><text fill="#000000" font-family="sans-serif" font-size="17" font-weight="bold" lengthAdjust="spacing" textLength="12" x="695" y="421.311">3</text><text fill="#000000" font-family="sans-serif" font-size="17" lengthAdjust="spacing" textLength="150" x="711" y="421.311">TLS-Terminierung</text><polygon fill="#000000" points="1010.5,470.1094,1020.5,474.1094,1010.5,478.1094,1014.5,474.1094" style="stroke:#000000;stroke-width:1.0;"/><line style="stroke:#000000;stroke-width:1.0;" x1="688" x2="1016.5" y1="474.1094" y2="474.1094"/><text fill="#000000" font-family="sans-serif" font-size="17" font-weight="bold" lengthAdjust="spacing" textLength="12" x="695" y="468.1001">4</text><text fill="#000000" font-family="sans-serif" font-size="17" lengthAdjust="spacing" textLength="142" x="711" y="468.1001">HTTP(S) Forward</text><line style="stroke:#000000;stroke-width:1.0;stroke-dasharray:2.0,2.0;" x1="1032.5" x2="1074.5" y1="527.6875" y2="527.6875"/><line style="stroke:#000000;stroke-width:1.0;stroke-dasharray:2.0,2.0;" x1="1074.5" x2="1074.5" y1="527.6875" y2="540.6875"/><line style="stroke:#000000;stroke-width:1.0;stroke-dasharray:2.0,2.0;" x1="1033.5" x2="1074.5" y1="540.6875" y2="540.6875"/><polygon fill="#000000" points="1043.5,536.6875,1033.5,540.6875,1043.5,544.6875,1039.5,540.6875" style="stroke:#000000;stroke-width:1.0;"/><text fill="#000000" font-family="sans-serif" font-size="17" font-weight="bold" lengthAdjust="spacing" textLength="12" x="1039.5" y="511.7837">5</text><text fill="#000000" font-family="sans-serif" font-size="17" lengthAdjust="spacing" textLength="149" x="1055.5" y="501.8892">Nutzerverzeichnis</text><text fill="#000000" font-family="sans-serif" font-size="17" lengthAdjust="spacing" textLength="106" x="1055.5" y="521.6782">durchsuchen</text><polygon fill="#000000" points="699,570.4766,689,574.4766,699,578.4766,695,574.4766" style="stroke:#000000;stroke-width:1.0;"/><line style="stroke:#000000;stroke-width:1.0;stroke-dasharray:2.0,2.0;" x1="693" x2="1026.5" y1="574.4766" y2="574.4766"/><text fill="#000000" font-family="sans-serif" font-size="17" font-weight="bold" lengthAdjust="spacing" textLength="12" x="957.5" y="568.4673">6</text><text fill="#000000" font-family="sans-serif" font-size="17" lengthAdjust="spacing" textLength="47" x="973.5" y="568.4673">MXID</text><polygon fill="#000000" points="389,604.2656,379,608.2656,389,612.2656,385,608.2656" style="stroke:#000000;stroke-width:1.0;"/><line style="stroke:#000000;stroke-width:1.0;stroke-dasharray:2.0,2.0;" x1="383" x2="677" y1="608.2656" y2="608.2656"/><text fill="#000000" font-family="sans-serif" font-size="17" font-weight="bold" lengthAdjust="spacing" textLength="12" x="513" y="602.2563">7</text><text fill="#000000" font-family="sans-serif" font-size="17" lengthAdjust="spacing" textLength="142" x="529" y="602.2563">HTTP(S) Forward</text><polygon fill="#000000" points="356,695.0547,366,699.0547,356,703.0547,360,699.0547" style="stroke:#000000;stroke-width:1.0;"/><line style="stroke:#000000;stroke-width:1.0;" x1="143" x2="362" y1="699.0547" y2="699.0547"/><text fill="#000000" font-family="sans-serif" font-size="17" font-weight="bold" lengthAdjust="spacing" textLength="12" x="150" y="693.0454">8</text><text fill="#000000" font-family="sans-serif" font-size="17" lengthAdjust="spacing" textLength="150" x="166" y="693.0454">Akteur B einladen</text><polygon fill="#000000" points="666,748.6328,676,752.6328,666,756.6328,670,752.6328" style="stroke:#000000;stroke-width:1.0;"/><line style="stroke:#000000;stroke-width:1.0;" x1="378" x2="672" y1="752.6328" y2="752.6328"/><text fill="#000000" font-family="sans-serif" font-size="17" font-weight="bold" lengthAdjust="spacing" textLength="12" x="385" y="736.729">9</text><text fill="#000000" font-family="sans-serif" font-size="17" lengthAdjust="spacing" textLength="260" x="401" y="726.8345">POST /_matrix/client/r0/rooms/</text><text fill="#000000" font-family="sans-serif" font-size="17" lengthAdjust="spacing" textLength="215" x="401" y="746.6235">{roomId}/invite (roomId)</text><rect fill="none" height="58.8906" style="stroke:#000000;stroke-width:1.5;" width="610" x="573" y="785.6328"/><path d="M573,785.6328 L639,785.6328 L639,792.6328 L629,802.6328 L573,802.6328 L573,785.6328 " fill="#98FB98" style="stroke:#000000;stroke-width:2.0;"/><text fill="#000000" font-family="sans-serif" font-size="13" font-weight="bold" lengthAdjust="spacing" textLength="21" x="586" y="799.6997">ref</text><text fill="#000000" font-family="sans-serif" font-size="17" font-weight="bold" lengthAdjust="spacing" textLength="94" x="582" y="822.4126">AF_10064</text><text fill="#000000" font-family="sans-serif" font-size="17" lengthAdjust="spacing" textLength="493" x="681" y="822.4126">- F&#246;derationszugeh&#246;rigkeit eines Messenger-Service pr&#252;fen</text><text fill="#000000" font-family="sans-serif" font-size="12" lengthAdjust="spacing" textLength="4" x="876" y="837.5605">&#160;</text><path d="M10,881.5234 L74,881.5234 L74,888.6563 L64,898.6563 L10,898.6563 L10,881.5234 " fill="#D3D3D3" style="stroke:#000000;stroke-width:1.5;"/><rect fill="none" height="1148" style="stroke:#000000;stroke-width:1.5;" width="1877.5" x="10" y="881.5234"/><text fill="#000000" font-family="sans-serif" font-size="13" font-weight="bold" lengthAdjust="spacing" textLength="19" x="25" y="894.5903">alt</text><text fill="#000000" font-family="sans-serif" font-size="11" font-weight="bold" lengthAdjust="spacing" textLength="5" x="89" y="899.5542">[</text><text fill="#000000" font-family="sans-serif" font-size="16" font-weight="bold" lengthAdjust="spacing" textLength="427" x="94" y="898.375">Matrix-Domain nicht in der F&#246;deration enthalten</text><text fill="#000000" font-family="sans-serif" font-size="11" font-weight="bold" lengthAdjust="spacing" textLength="5" x="521" y="899.5542">]</text><polygon fill="#000000" points="389,968.8594,379,972.8594,389,976.8594,385,972.8594" style="stroke:#000000;stroke-width:1.0;"/><line style="stroke:#000000;stroke-width:1.0;stroke-dasharray:2.0,2.0;" x1="383" x2="677" y1="972.8594" y2="972.8594"/><text fill="#000000" font-family="sans-serif" font-size="17" font-weight="bold" lengthAdjust="spacing" textLength="24" x="530" y="956.9556">10</text><text fill="#000000" font-family="sans-serif" font-size="17" lengthAdjust="spacing" textLength="81" x="558" y="947.061">HTTP 401</text><text fill="#000000" font-family="sans-serif" font-size="17" lengthAdjust="spacing" textLength="113" x="558" y="966.8501">Unauthorized</text><path d="M20,987.8594 L108,987.8594 L108,994.9922 L98,1004.9922 L20,1004.9922 L20,987.8594 " fill="#D3D3D3" style="stroke:#000000;stroke-width:1.5;"/><rect fill="none" height="142.5" style="stroke:#000000;stroke-width:1.5;" width="600" x="20" y="987.8594"/><text fill="#000000" font-family="sans-serif" font-size="13" font-weight="bold" lengthAdjust="spacing" textLength="43" x="35" y="1000.9263">break</text><line style="stroke:#000000;stroke-width:1.0;stroke-dasharray:2.0,2.0;" x1="378" x2="420" y1="1030.7813" y2="1030.7813"/><line style="stroke:#000000;stroke-width:1.0;stroke-dasharray:2.0,2.0;" x1="420" x2="420" y1="1030.7813" y2="1043.7813"/><line style="stroke:#000000;stroke-width:1.0;stroke-dasharray:2.0,2.0;" x1="379" x2="420" y1="1043.7813" y2="1043.7813"/><polygon fill="#000000" points="389,1039.7813,379,1043.7813,389,1047.7813,385,1043.7813" style="stroke:#000000;stroke-width:1.0;"/><text fill="#000000" font-family="sans-serif" font-size="17" font-weight="bold" lengthAdjust="spacing" textLength="24" x="385" y="1024.772">11</text><text fill="#000000" font-family="sans-serif" font-size="17" lengthAdjust="spacing" textLength="195" x="413" y="1024.772">Abmeldung der Session</text><polygon fill="#000000" points="154,1093.3594,144,1097.3594,154,1101.3594,150,1097.3594" style="stroke:#000000;stroke-width:1.0;"/><line style="stroke:#000000;stroke-width:1.0;stroke-dasharray:2.0,2.0;" x1="148" x2="367" y1="1097.3594" y2="1097.3594"/><text fill="#000000" font-family="sans-serif" font-size="17" font-weight="bold" lengthAdjust="spacing" textLength="24" x="185" y="1081.4556">12</text><text fill="#000000" font-family="sans-serif" font-size="17" lengthAdjust="spacing" textLength="143" x="213" y="1071.561">Anmeldung nicht</text><text fill="#000000" font-family="sans-serif" font-size="17" lengthAdjust="spacing" textLength="89" x="213" y="1091.3501">erfolgreich</text><line style="stroke:#000000;stroke-width:1.0;stroke-dasharray:2.0,2.0;" x1="10" x2="1887.5" y1="1138.3594" y2="1138.3594"/><text fill="#000000" font-family="sans-serif" font-size="11" font-weight="bold" lengthAdjust="spacing" textLength="5" x="15" y="1154.3901">[</text><text fill="#000000" font-family="sans-serif" font-size="16" font-weight="bold" lengthAdjust="spacing" textLength="377" x="20" y="1153.2109">Matrix-Domain in der F&#246;deration enthalten</text><text fill="#000000" font-family="sans-serif" font-size="11" font-weight="bold" lengthAdjust="spacing" textLength="5" x="397" y="1154.3901">]</text><polygon fill="#000000" points="1010.5,1179.7734,1020.5,1183.7734,1010.5,1187.7734,1014.5,1183.7734" style="stroke:#000000;stroke-width:1.0;"/><line style="stroke:#000000;stroke-width:1.0;" x1="688" x2="1016.5" y1="1183.7734" y2="1183.7734"/><text fill="#000000" font-family="sans-serif" font-size="17" font-weight="bold" lengthAdjust="spacing" textLength="24" x="695" y="1177.7642">13</text><text fill="#000000" font-family="sans-serif" font-size="17" lengthAdjust="spacing" textLength="142" x="723" y="1177.7642">HTTP(S) Forward</text><line style="stroke:#000000;stroke-width:1.0;" x1="1032.5" x2="1074.5" y1="1217.5625" y2="1217.5625"/><line style="stroke:#000000;stroke-width:1.0;" x1="1074.5" x2="1074.5" y1="1217.5625" y2="1230.5625"/><line style="stroke:#000000;stroke-width:1.0;" x1="1033.5" x2="1074.5" y1="1230.5625" y2="1230.5625"/><polygon fill="#000000" points="1043.5,1226.5625,1033.5,1230.5625,1043.5,1234.5625,1039.5,1230.5625" style="stroke:#000000;stroke-width:1.0;"/><text fill="#000000" font-family="sans-serif" font-size="17" font-weight="bold" lengthAdjust="spacing" textLength="24" x="1039.5" y="1211.5532">14</text><text fill="#000000" font-family="sans-serif" font-size="17" lengthAdjust="spacing" textLength="151" x="1067.5" y="1211.5532">Invite verarbeiten</text><path d="M865,1270.5625 L935,1270.5625 L935,1277.6953 L925,1287.6953 L865,1287.6953 L865,1270.5625 " fill="#D3D3D3" style="stroke:#000000;stroke-width:1.5;"/><rect fill="none" height="172.125" style="stroke:#000000;stroke-width:1.5;" width="782.5" x="865" y="1270.5625"/><text fill="#000000" font-family="sans-serif" font-size="13" font-weight="bold" lengthAdjust="spacing" textLength="25" x="880" y="1283.6294">opt</text><text fill="#000000" font-family="sans-serif" font-size="11" font-weight="bold" lengthAdjust="spacing" textLength="5" x="950" y="1288.5933">[</text><text fill="#000000" font-family="sans-serif" font-size="16" font-weight="bold" lengthAdjust="spacing" textLength="205" x="955" y="1287.4141">Push-Benachrichtigung</text><text fill="#000000" font-family="sans-serif" font-size="11" font-weight="bold" lengthAdjust="spacing" textLength="5" x="1160" y="1288.5933">]</text><polygon fill="#000000" points="1288.5,1338.1094,1298.5,1342.1094,1288.5,1346.1094,1292.5,1342.1094" style="stroke:#000000;stroke-width:1.0;"/><line style="stroke:#000000;stroke-width:1.0;" x1="1032.5" x2="1294.5" y1="1342.1094" y2="1342.1094"/><text fill="#000000" font-family="sans-serif" font-size="17" font-weight="bold" lengthAdjust="spacing" textLength="24" x="1039.5" y="1336.1001">15</text><text fill="#000000" font-family="sans-serif" font-size="17" lengthAdjust="spacing" textLength="221" x="1067.5" y="1336.1001">POST /_matrix/push/notify</text><polygon fill="#000000" points="1518.5,1371.8984,1528.5,1375.8984,1518.5,1379.8984,1522.5,1375.8984" style="stroke:#000000;stroke-width:1.0;"/><line style="stroke:#000000;stroke-width:1.0;" x1="1310.5" x2="1524.5" y1="1375.8984" y2="1375.8984"/><text fill="#000000" font-family="sans-serif" font-size="17" font-weight="bold" lengthAdjust="spacing" textLength="24" x="1317.5" y="1369.8892">16</text><text fill="#000000" font-family="sans-serif" font-size="17" lengthAdjust="spacing" textLength="97" x="1345.5" y="1369.8892">Notification</text><polygon fill="#000000" points="1043.5,1405.6875,1033.5,1409.6875,1043.5,1413.6875,1039.5,1409.6875" style="stroke:#000000;stroke-width:1.0;"/><line style="stroke:#000000;stroke-width:1.0;stroke-dasharray:2.0,2.0;" x1="1037.5" x2="1304.5" y1="1409.6875" y2="1409.6875"/><text fill="#000000" font-family="sans-serif" font-size="17" font-weight="bold" lengthAdjust="spacing" textLength="24" x="1216.5" y="1403.6782">17</text><text fill="#000000" font-family="sans-serif" font-size="17" lengthAdjust="spacing" textLength="54" x="1244.5" y="1403.6782">Status</text><polygon fill="#000000" points="699,1496.4766,689,1500.4766,699,1504.4766,695,1500.4766" style="stroke:#000000;stroke-width:1.0;"/><line style="stroke:#000000;stroke-width:1.0;" x1="693" x2="1021.5" y1="1500.4766" y2="1500.4766"/><text fill="#000000" font-family="sans-serif" font-size="17" font-weight="bold" lengthAdjust="spacing" textLength="24" x="865.5" y="1494.4673">18</text><text fill="#000000" font-family="sans-serif" font-size="17" lengthAdjust="spacing" textLength="122" x="893.5" y="1494.4673">Invite Request</text><polygon fill="#000000" points="1513.5,1530.2656,1523.5,1534.2656,1513.5,1538.2656,1517.5,1534.2656" style="stroke:#000000;stroke-width:1.0;"/><line style="stroke:#000000;stroke-width:1.0;" x1="688" x2="1519.5" y1="1534.2656" y2="1534.2656"/><text fill="#000000" font-family="sans-serif" font-size="17" font-weight="bold" lengthAdjust="spacing" textLength="24" x="695" y="1528.2563">19</text><text fill="#000000" font-family="sans-serif" font-size="17" lengthAdjust="spacing" textLength="142" x="723" y="1528.2563">HTTP(S) Forward</text><polygon fill="#000000" points="1752.5,1564.0547,1762.5,1568.0547,1752.5,1572.0547,1756.5,1568.0547" style="stroke:#000000;stroke-width:1.0;"/><line style="stroke:#000000;stroke-width:1.0;" x1="1535.5" x2="1758.5" y1="1568.0547" y2="1568.0547"/><text fill="#000000" font-family="sans-serif" font-size="17" font-weight="bold" lengthAdjust="spacing" textLength="24" x="1542.5" y="1562.0454">20</text><text fill="#000000" font-family="sans-serif" font-size="17" lengthAdjust="spacing" textLength="164" x="1570.5" y="1562.0454">Einladung anzeigen</text><polygon fill="#000000" points="1546.5,1597.8438,1536.5,1601.8438,1546.5,1605.8438,1542.5,1601.8438" style="stroke:#000000;stroke-width:1.0;"/><line style="stroke:#000000;stroke-width:1.0;stroke-dasharray:2.0,2.0;" x1="1540.5" x2="1763.5" y1="1601.8438" y2="1601.8438"/><text fill="#000000" font-family="sans-serif" font-size="17" font-weight="bold" lengthAdjust="spacing" textLength="24" x="1552.5" y="1595.8345">21</text><text fill="#000000" font-family="sans-serif" font-size="17" lengthAdjust="spacing" textLength="177" x="1580.5" y="1595.8345">Einladung best&#228;tigen</text><polygon fill="#000000" points="699,1631.6328,689,1635.6328,699,1639.6328,695,1635.6328" style="stroke:#000000;stroke-width:1.0;"/><line style="stroke:#000000;stroke-width:1.0;" x1="693" x2="1524.5" y1="1635.6328" y2="1635.6328"/><text fill="#000000" font-family="sans-serif" font-size="17" font-weight="bold" lengthAdjust="spacing" textLength="24" x="1426.5" y="1629.6235">22</text><text fill="#000000" font-family="sans-serif" font-size="17" lengthAdjust="spacing" textLength="64" x="1454.5" y="1629.6235">commit</text><line style="stroke:#000000;stroke-width:1.0;" x1="688" x2="730" y1="1694.4219" y2="1694.4219"/><line style="stroke:#000000;stroke-width:1.0;" x1="730" x2="730" y1="1694.4219" y2="1707.4219"/><line style="stroke:#000000;stroke-width:1.0;" x1="689" x2="730" y1="1707.4219" y2="1707.4219"/><polygon fill="#000000" points="699,1703.4219,689,1707.4219,699,1711.4219,695,1707.4219" style="stroke:#000000;stroke-width:1.0;"/><text fill="#000000" font-family="sans-serif" font-size="17" font-weight="bold" lengthAdjust="spacing" textLength="24" x="695" y="1688.4126">23</text><text fill="#000000" font-family="sans-serif" font-size="17" lengthAdjust="spacing" textLength="149" x="723" y="1688.4126">TLS Terminierung</text><polygon fill="#000000" points="1010.5,1737.2109,1020.5,1741.2109,1010.5,1745.2109,1014.5,1741.2109" style="stroke:#000000;stroke-width:1.0;"/><line style="stroke:#000000;stroke-width:1.0;stroke-dasharray:2.0,2.0;" x1="688" x2="1016.5" y1="1741.2109" y2="1741.2109"/><text fill="#000000" font-family="sans-serif" font-size="17" font-weight="bold" lengthAdjust="spacing" textLength="24" x="695" y="1735.2017">24</text><text fill="#000000" font-family="sans-serif" font-size="17" lengthAdjust="spacing" textLength="142" x="723" y="1735.2017">HTTP(S) Forward</text><line style="stroke:#000000;stroke-width:1.0;stroke-dasharray:2.0,2.0;" x1="1032.5" x2="1074.5" y1="1775" y2="1775"/><line style="stroke:#000000;stroke-width:1.0;stroke-dasharray:2.0,2.0;" x1="1074.5" x2="1074.5" y1="1775" y2="1788"/><line style="stroke:#000000;stroke-width:1.0;stroke-dasharray:2.0,2.0;" x1="1033.5" x2="1074.5" y1="1788" y2="1788"/><polygon fill="#000000" points="1043.5,1784,1033.5,1788,1043.5,1792,1039.5,1788" style="stroke:#000000;stroke-width:1.0;"/><text fill="#000000" font-family="sans-serif" font-size="17" font-weight="bold" lengthAdjust="spacing" textLength="24" x="1039.5" y="1768.9907">25</text><text fill="#000000" font-family="sans-serif" font-size="17" lengthAdjust="spacing" textLength="127" x="1067.5" y="1768.9907">Invite ausl&#246;sen</text><polygon fill="#000000" points="699,1817.7891,689,1821.7891,699,1825.7891,695,1821.7891" style="stroke:#000000;stroke-width:1.0;"/><line style="stroke:#000000;stroke-width:1.0;stroke-dasharray:2.0,2.0;" x1="693" x2="1026.5" y1="1821.7891" y2="1821.7891"/><text fill="#000000" font-family="sans-serif" font-size="17" font-weight="bold" lengthAdjust="spacing" textLength="24" x="938.5" y="1815.7798">26</text><text fill="#000000" font-family="sans-serif" font-size="17" lengthAdjust="spacing" textLength="54" x="966.5" y="1815.7798">Status</text><polygon fill="#000000" points="389,1851.5781,379,1855.5781,389,1859.5781,385,1855.5781" style="stroke:#000000;stroke-width:1.0;"/><line style="stroke:#000000;stroke-width:1.0;stroke-dasharray:2.0,2.0;" x1="383" x2="677" y1="1855.5781" y2="1855.5781"/><text fill="#000000" font-family="sans-serif" font-size="17" font-weight="bold" lengthAdjust="spacing" textLength="24" x="589" y="1849.5688">27</text><text fill="#000000" font-family="sans-serif" font-size="17" lengthAdjust="spacing" textLength="54" x="617" y="1849.5688">Status</text><polygon fill="#000000" points="154,1905.1563,144,1909.1563,154,1913.1563,150,1909.1563" style="stroke:#000000;stroke-width:1.0;"/><line style="stroke:#000000;stroke-width:1.0;stroke-dasharray:2.0,2.0;" x1="148" x2="372" y1="1909.1563" y2="1909.1563"/><text fill="#000000" font-family="sans-serif" font-size="17" font-weight="bold" lengthAdjust="spacing" textLength="24" x="183" y="1893.2524">28</text><text fill="#000000" font-family="sans-serif" font-size="17" lengthAdjust="spacing" textLength="113" x="211" y="1883.3579">Nutzer in den</text><text fill="#000000" font-family="sans-serif" font-size="17" lengthAdjust="spacing" textLength="155" x="211" y="1903.147">Raum hinzugef&#252;gt</text><polygon fill="#000000" points="1513.5,1938.9453,1523.5,1942.9453,1513.5,1946.9453,1517.5,1942.9453" style="stroke:#000000;stroke-width:1.0;"/><line style="stroke:#000000;stroke-width:1.0;stroke-dasharray:2.0,2.0;" x1="683" x2="1519.5" y1="1942.9453" y2="1942.9453"/><text fill="#000000" font-family="sans-serif" font-size="17" font-weight="bold" lengthAdjust="spacing" textLength="24" x="690" y="1936.936">29</text><text fill="#000000" font-family="sans-serif" font-size="17" lengthAdjust="spacing" textLength="54" x="718" y="1936.936">Status</text><polygon fill="#000000" points="1752.5,1992.5234,1762.5,1996.5234,1752.5,2000.5234,1756.5,1996.5234" style="stroke:#000000;stroke-width:1.0;"/><line style="stroke:#000000;stroke-width:1.0;stroke-dasharray:2.0,2.0;" x1="1530.5" x2="1758.5" y1="1996.5234" y2="1996.5234"/><text fill="#000000" font-family="sans-serif" font-size="17" font-weight="bold" lengthAdjust="spacing" textLength="24" x="1537.5" y="1980.6196">30</text><text fill="#000000" font-family="sans-serif" font-size="17" lengthAdjust="spacing" textLength="123" x="1565.5" y="1970.7251">Nutzer ist dem</text><text fill="#000000" font-family="sans-serif" font-size="17" lengthAdjust="spacing" textLength="152" x="1565.5" y="1990.5142">Raum beigetreten</text><!--SRC=[ZLRTRk8w4BxFKrZjJIijou-gtLLL8G7TGgNIHWNEdYCXLIOP4el4vjXE_xRxDliClTexNkoCuq0T0ktfJOCzyytCDzzCeXQCBwcaAL7mRmOyW24eHIFe92pY96GI0iq4zzJ6C6Mybr2bVh1GnwJLQ3XtNV7eqp1aF29DvtYDVGjpaEPX03G4sQN18f8Yus5F94AI9KqWaW0OBS17aj97n3_vHXvCA6y78FdfTQGK3zP_bY2WFRWGN8_OCv3cLwyJQ26xGc94r-wApU6ASNZdPYk_FcLSpOGKdkTJgLd0bfHhrtyeDBkdEM6knHRERgjDogt6zh6Rt9x8tShbTj2RyULVdV7bpRLNCBAtklnwE-xcS9tZBuzcMl0idO7qF89_r9YGIPDGHGuw2msP93NI8Go519BSYYI1APyea0Uv_V8jMzApNkFBcX4Wy0XaROf2Ou2NdGDoY88Ce9jaaBlEn2CvKvZ9QVDR-yrZ1F8UpSxgvgfD3d_4JCCe5GlhLGuvzFEGRZnVYiUdWrss0sjBjMIFjO580QkunwAc_8ZnHP8fTW_aEjFF-V4pi23cJ1tlmlBxEPQVgRZMfneUQ14IU6WAgtBJUeURxi7X-7jlS7rpTTF_nsr3gzo6xjusU2ylBnuN6eWm5KsQdz3v52ih2FxQFcT0B10GnJ1BciqHoynXCWDEAWqW57-ba8IW2GgCC5mDe9X-9e1pfSXp5e7P8S3HkrINhKfzTg9_nyHxCJ9FivGyPAXv4cOoY343Jl0omLrYS10Q4P1u3Vfp8O4fpwlBwnHBVNZ5ebZt9JmvWbeBwKkx84jbGGoyGCXT3ORvFsdMshtcAHaPYu8IqYrwZBoRiGQZvIsvzj1lw9yI_sOq9lMxD9THFSXhhKzvXhsuixjMoAUw0ehbRQCE_Vnaw5keyTMeDWQ9svY1p7ZqTZau9OFns3yQ7PCB8H-e32jG0sizg5dpYcwn-Jd5bWd760CF_xuyBm13g43wDSlGhWpMBABEhV1sKRicrRGpx-p71Cf6NGgHAcJoftcu37_L6R_7qIT7zlTnDHuX4kPMyKF_4p4qR1HtDcjtBkwQZSQNaxFwh8tJSx5wnTd9TxOouerNhv952s2wK7Hr19PozMU-aT6KbyFRIKq-KcInSCv5YjkPS2FkzHmxAI6ZEaQmicZTMajz8IUD9dPumd61nqAYG-WLTZC9TE7cD6HAFzqAjLwWUIkAJitCXAFqydH6I81vevNC9iQChyri-bCESYuIVD6pZSZTL4lgm9-9sil7_sNYZOHtfgCw7xdeSuzBgoOK2vKpR3hm2iEL_P8_bhkPh_mkS1h4-PvY4T9IRjasgCt1xszBVubGTLpQRFxas3er-7tdtEzZot2dNni75jXlZzArhNEagSvK2T2PSGVIJN7TiDsfcwajwBirNsrAkmQ-pMjVHyfhjKMsNtM5r5geD4InxmAZDCfnaqNWrZXfrMoiDwiP9hFwhRSC3Pf9EX1folJ-jhpjOLBPmyxGlISuPmKN5D5C9QjNLKfeitdVxyv6jALvh_Xivj8kVJj37AVorhnUOyRDUfkl_aHwNw1UinAezM5oVfbXsx1r2ahdNnD53ZFJEYr1brWefz3ozaiH3_u3]--></g></svg>