<?xml version="1.0" encoding="us-ascii" standalone="no"?><svg xmlns="http://www.w3.org/2000/svg" xmlns:xlink="http://www.w3.org/1999/xlink" contentStyleType="text/css" height="2205px" preserveAspectRatio="none" style="width:1901px;height:2205px;background:#FFFFFF;" version="1.1" viewBox="0 0 1901 2205" width="1901px" zoomAndPan="magnify"><defs/><g><rect fill="#F5F5F5" height="2193.9531" style="stroke:#181818;stroke-width:0.5;" width="881.5" x="546" y="6"/><text fill="#000000" font-family="sans-serif" font-size="18" font-weight="bold" lengthAdjust="spacing" textLength="193" x="887.75" y="22.708">Messenger-Service</text><text fill="#000000" font-family="sans-serif" font-size="13" font-weight="bold" lengthAdjust="spacing" textLength="5" x="1080.75" y="23.8872">&#160;</text><rect fill="#F0F8FF" height="1588.0703" style="stroke:#000000;stroke-width:1.0;" width="10" x="358" y="339.9531"/><rect fill="#DCDCDC" height="1568.2813" style="stroke:#000000;stroke-width:1.0;" width="10" x="652" y="393.5313"/><rect fill="#DCDCDC" height="100.3672" style="stroke:#000000;stroke-width:1.0;" width="10" x="1042" y="474.1094"/><rect fill="#DCDCDC" height="638.0156" style="stroke:#000000;stroke-width:1.0;" width="10" x="1042" y="1202.6406"/><rect fill="#DCDCDC" height="67.5781" style="stroke:#000000;stroke-width:1.0;" width="10" x="1311.5" y="1360.9766"/><rect fill="#C9FFC9" height="462.2578" style="stroke:#000000;stroke-width:1.0;" width="10" x="1536.5" y="1553.1328"/><rect fill="#F0F8FF" height="372.8594" style="stroke:#000000;stroke-width:1.5;" width="1215" x="10" y="268.4063"/><rect fill="#F0F8FF" height="1166.8672" style="stroke:#000000;stroke-width:1.5;" width="1884.5" x="10" y="881.5234"/><rect fill="#F0F8FF" height="892.1641" style="stroke:none;stroke-width:1.0;" width="1884.5" x="10" y="1156.2266"/><rect fill="#ADD8E6" height="172.125" style="stroke:#000000;stroke-width:1.5;" width="774" x="884.5" y="1289.4297"/><line style="stroke:#000000;stroke-width:0.5;stroke-dasharray:5.0,5.0;" x1="133" x2="133" y1="111.5625" y2="2090.3906"/><line style="stroke:#000000;stroke-width:0.5;stroke-dasharray:5.0,5.0;" x1="363" x2="363" y1="111.5625" y2="2090.3906"/><line style="stroke:#000000;stroke-width:0.5;stroke-dasharray:5.0,5.0;" x1="657" x2="657" y1="111.5625" y2="2090.3906"/><line style="stroke:#000000;stroke-width:0.5;stroke-dasharray:5.0,5.0;" x1="1046.5" x2="1046.5" y1="111.5625" y2="2090.3906"/><line style="stroke:#000000;stroke-width:0.5;stroke-dasharray:5.0,5.0;" x1="1316.5" x2="1316.5" y1="111.5625" y2="2090.3906"/><line style="stroke:#000000;stroke-width:0.5;stroke-dasharray:5.0,5.0;" x1="1541.5" x2="1541.5" y1="111.5625" y2="2090.3906"/><line style="stroke:#000000;stroke-width:0.5;stroke-dasharray:5.0,5.0;" x1="1771.5" x2="1771.5" y1="111.5625" y2="2090.3906"/><text fill="#000000" font-family="Aapex" font-size="20" lengthAdjust="spacing" textLength="220" x="20" y="83.5645">Akteur - A in der Rolle</text><text fill="#000000" font-family="Aapex" font-size="20" lengthAdjust="spacing" textLength="159" x="50.5" y="106.8457">User / User-HBA</text><ellipse cx="133" cy="13.5" fill="#DCDCDC" rx="8" ry="8" style="stroke:#000000;stroke-width:0.5;"/><path d="M133,21.5 L133,48.5 M120,29.5 L146,29.5 M133,48.5 L120,63.5 M133,48.5 L146,63.5 " fill="none" style="stroke:#000000;stroke-width:0.5;"/><text fill="#000000" font-family="Aapex" font-size="20" lengthAdjust="spacing" textLength="220" x="20" y="2107.9551">Akteur - A in der Rolle</text><text fill="#000000" font-family="Aapex" font-size="20" lengthAdjust="spacing" textLength="159" x="50.5" y="2131.2363">User / User-HBA</text><ellipse cx="133" cy="2144.4531" fill="#DCDCDC" rx="8" ry="8" style="stroke:#000000;stroke-width:0.5;"/><path d="M133,2152.4531 L133,2179.4531 M120,2160.4531 L146,2160.4531 M133,2179.4531 L120,2194.4531 M133,2179.4531 L146,2194.4531 " fill="none" style="stroke:#000000;stroke-width:0.5;"/><rect fill="#F0F8FF" height="60.5625" rx="2.5" ry="2.5" style="stroke:#000000;stroke-width:0.5;" width="214" x="256" y="50"/><text fill="#000000" font-family="Impact" font-size="20" lengthAdjust="spacing" textLength="139" x="293.5" y="75.5645">TI-Messenger-</text><text fill="#000000" font-family="Impact" font-size="20" lengthAdjust="spacing" textLength="79" x="323.5" y="98.8457">Client A</text><rect fill="#F0F8FF" height="60.5625" rx="2.5" ry="2.5" style="stroke:#000000;stroke-width:0.5;" width="214" x="256" y="2089.3906"/><text fill="#000000" font-family="Impact" font-size="20" lengthAdjust="spacing" textLength="139" x="293.5" y="2114.9551">TI-Messenger-</text><text fill="#000000" font-family="Impact" font-size="20" lengthAdjust="spacing" textLength="79" x="323.5" y="2138.2363">Client A</text><rect fill="#EFEFFF" height="60.5625" rx="2.5" ry="2.5" style="stroke:#000000;stroke-width:0.5;" width="214" x="550" y="50"/><text fill="#000000" font-family="Impact" font-size="20" lengthAdjust="spacing" textLength="114" x="600" y="75.5645">Messenger-</text><text fill="#000000" font-family="Impact" font-size="20" lengthAdjust="spacing" textLength="54" x="630" y="98.8457">Proxy</text><rect fill="#EFEFFF" height="60.5625" rx="2.5" ry="2.5" style="stroke:#000000;stroke-width:0.5;" width="214" x="550" y="2089.3906"/><text fill="#000000" font-family="Impact" font-size="20" lengthAdjust="spacing" textLength="114" x="600" y="2114.9551">Messenger-</text><text fill="#000000" font-family="Impact" font-size="20" lengthAdjust="spacing" textLength="54" x="630" y="2138.2363">Proxy</text><rect fill="#EFEFFF" height="60.5625" rx="2.5" ry="2.5" style="stroke:#000000;stroke-width:0.5;" width="305" x="894.5" y="50"/><text fill="#000000" font-family="Impact" font-size="20" lengthAdjust="spacing" textLength="189" x="949.5" y="75.5645">Matrix-Homeserver</text><text fill="#000000" font-family="Impact" font-size="20" lengthAdjust="spacing" textLength="291" x="901.5" y="98.8457">(inklusive Nutzerverzeichnis)</text><rect fill="#EFEFFF" height="60.5625" rx="2.5" ry="2.5" style="stroke:#000000;stroke-width:0.5;" width="305" x="894.5" y="2089.3906"/><text fill="#000000" font-family="Impact" font-size="20" lengthAdjust="spacing" textLength="189" x="949.5" y="2114.9551">Matrix-Homeserver</text><text fill="#000000" font-family="Impact" font-size="20" lengthAdjust="spacing" textLength="291" x="901.5" y="2138.2363">(inklusive Nutzerverzeichnis)</text><rect fill="#EFEFFF" height="37.2813" rx="2.5" ry="2.5" style="stroke:#000000;stroke-width:0.5;" width="214" x="1209.5" y="73.2813"/><text fill="#000000" font-family="Impact" font-size="20" lengthAdjust="spacing" textLength="143" x="1245" y="98.8457">Push-Gateway</text><rect fill="#EFEFFF" height="37.2813" rx="2.5" ry="2.5" style="stroke:#000000;stroke-width:0.5;" width="214" x="1209.5" y="2089.3906"/><text fill="#000000" font-family="Impact" font-size="20" lengthAdjust="spacing" textLength="143" x="1245" y="2114.9551">Push-Gateway</text><rect fill="#C9FFC9" height="60.5625" rx="2.5" ry="2.5" style="stroke:#000000;stroke-width:0.5;" width="214" x="1434.5" y="50"/><text fill="#000000" font-family="Impact" font-size="20" lengthAdjust="spacing" textLength="139" x="1472" y="75.5645">TI-Messenger-</text><text fill="#000000" font-family="Impact" font-size="20" lengthAdjust="spacing" textLength="79" x="1502" y="98.8457">Client B</text><rect fill="#C9FFC9" height="60.5625" rx="2.5" ry="2.5" style="stroke:#000000;stroke-width:0.5;" width="214" x="1434.5" y="2089.3906"/><text fill="#000000" font-family="Impact" font-size="20" lengthAdjust="spacing" textLength="139" x="1472" y="2114.9551">TI-Messenger-</text><text fill="#000000" font-family="Impact" font-size="20" lengthAdjust="spacing" textLength="79" x="1502" y="2138.2363">Client B</text><text fill="#000000" font-family="Aapex" font-size="20" lengthAdjust="spacing" textLength="220" x="1658.5" y="83.5645">Akteur - B in der Rolle</text><text fill="#000000" font-family="Aapex" font-size="20" lengthAdjust="spacing" textLength="159" x="1689" y="106.8457">User / User-HBA</text><ellipse cx="1771.5" cy="13.5" fill="#DCDCDC" rx="8" ry="8" style="stroke:#000000;stroke-width:0.5;"/><path d="M1771.5,21.5 L1771.5,48.5 M1758.5,29.5 L1784.5,29.5 M1771.5,48.5 L1758.5,63.5 M1771.5,48.5 L1784.5,63.5 " fill="none" style="stroke:#000000;stroke-width:0.5;"/><text fill="#000000" font-family="Aapex" font-size="20" lengthAdjust="spacing" textLength="220" x="1658.5" y="2107.9551">Akteur - B in der Rolle</text><text fill="#000000" font-family="Aapex" font-size="20" lengthAdjust="spacing" textLength="159" x="1689" y="2131.2363">User / User-HBA</text><ellipse cx="1771.5" cy="2144.4531" fill="#DCDCDC" rx="8" ry="8" style="stroke:#000000;stroke-width:0.5;"/><path d="M1771.5,2152.4531 L1771.5,2179.4531 M1758.5,2160.4531 L1784.5,2160.4531 M1771.5,2179.4531 L1758.5,2194.4531 M1771.5,2179.4531 L1784.5,2194.4531 " fill="none" style="stroke:#000000;stroke-width:0.5;"/><rect fill="#F0F8FF" height="1588.0703" style="stroke:#000000;stroke-width:1.0;" width="10" x="358" y="339.9531"/><rect fill="#DCDCDC" height="1568.2813" style="stroke:#000000;stroke-width:1.0;" width="10" x="652" y="393.5313"/><rect fill="#DCDCDC" height="100.3672" style="stroke:#000000;stroke-width:1.0;" width="10" x="1042" y="474.1094"/><rect fill="#DCDCDC" height="638.0156" style="stroke:#000000;stroke-width:1.0;" width="10" x="1042" y="1202.6406"/><rect fill="#DCDCDC" height="67.5781" style="stroke:#000000;stroke-width:1.0;" width="10" x="1311.5" y="1360.9766"/><rect fill="#C9FFC9" height="462.2578" style="stroke:#000000;stroke-width:1.0;" width="10" x="1536.5" y="1553.1328"/><path d="M22,151.5625 L22,230.5625 L1881,230.5625 L1881,161.5625 L1871,151.5625 L22,151.5625 " fill="#FEFFDD" style="stroke:#181818;stroke-width:0.5;"/><path d="M1871,151.5625 L1871,161.5625 L1881,161.5625 L1871,151.5625 " fill="#FEFFDD" style="stroke:#181818;stroke-width:0.5;"/><text fill="#000000" font-family="sans-serif" font-size="13" lengthAdjust="spacing" textLength="4" x="443.75" y="168.6294">&#160;</text><text fill="#000000" font-family="sans-serif" font-size="17" lengthAdjust="spacing" textLength="1007" x="443.75" y="187.4751">Die Akteure sind auf dem selben Messenger-Service angemeldet und im Besitz eines zugelassenen TI-Messenger-Clients.</text><text fill="#000000" font-family="sans-serif" font-size="17" lengthAdjust="spacing" textLength="473" x="443.75" y="207.2642">Ein Chatraum wurde durch den Einladenen eingerichtet.</text><text fill="#000000" font-family="sans-serif" font-size="13" lengthAdjust="spacing" textLength="4" x="443.75" y="223.3403">&#160;</text><path d="M10,268.4063 L80,268.4063 L80,275.5391 L70,285.5391 L10,285.5391 L10,268.4063 " fill="#D3D3D3" style="stroke:#000000;stroke-width:1.5;"/><rect fill="none" height="372.8594" style="stroke:#000000;stroke-width:1.5;" width="1215" x="10" y="268.4063"/><text fill="#000000" font-family="sans-serif" font-size="13" font-weight="bold" lengthAdjust="spacing" textLength="25" x="25" y="281.4731">opt</text><text fill="#000000" font-family="sans-serif" font-size="11" font-weight="bold" lengthAdjust="spacing" textLength="5" x="95" y="286.437">[</text><text fill="#000000" font-family="sans-serif" font-size="16" font-weight="bold" lengthAdjust="spacing" textLength="131" x="100" y="285.2578">Akteur suchen</text><text fill="#000000" font-family="sans-serif" font-size="11" font-weight="bold" lengthAdjust="spacing" textLength="5" x="231" y="286.437">]</text><polygon fill="#000000" points="346,335.9531,356,339.9531,346,343.9531,350,339.9531" style="stroke:#000000;stroke-width:1.0;"/><line style="stroke:#000000;stroke-width:1.0;" x1="133" x2="352" y1="339.9531" y2="339.9531"/><text fill="#000000" font-family="sans-serif" font-size="17" lengthAdjust="spacing" textLength="129" x="140" y="333.9438">Suche Akteur B</text><polygon fill="#000000" points="640,389.5313,650,393.5313,640,397.5313,644,393.5313" style="stroke:#000000;stroke-width:1.0;"/><line style="stroke:#000000;stroke-width:1.0;" x1="368" x2="646" y1="393.5313" y2="393.5313"/><text fill="#000000" font-family="sans-serif" font-size="17" lengthAdjust="spacing" textLength="178" x="375" y="367.7329">POST /_matrix/client/</text><text fill="#000000" font-family="sans-serif" font-size="17" lengthAdjust="spacing" textLength="179" x="375" y="387.522">user_directory/search</text><line style="stroke:#000000;stroke-width:1.0;" x1="662" x2="704" y1="427.3203" y2="427.3203"/><line style="stroke:#000000;stroke-width:1.0;" x1="704" x2="704" y1="427.3203" y2="440.3203"/><line style="stroke:#000000;stroke-width:1.0;" x1="663" x2="704" y1="440.3203" y2="440.3203"/><polygon fill="#000000" points="673,436.3203,663,440.3203,673,444.3203,669,440.3203" style="stroke:#000000;stroke-width:1.0;"/><text fill="#000000" font-family="sans-serif" font-size="17" lengthAdjust="spacing" textLength="150" x="669" y="421.311">TLS-Terminierung</text><polygon fill="#000000" points="1030,470.1094,1040,474.1094,1030,478.1094,1034,474.1094" style="stroke:#000000;stroke-width:1.0;"/><line style="stroke:#000000;stroke-width:1.0;" x1="662" x2="1036" y1="474.1094" y2="474.1094"/><text fill="#000000" font-family="sans-serif" font-size="17" lengthAdjust="spacing" textLength="142" x="669" y="468.1001">HTTP(S) Forward</text><line style="stroke:#000000;stroke-width:1.0;stroke-dasharray:2.0,2.0;" x1="1052" x2="1094" y1="527.6875" y2="527.6875"/><line style="stroke:#000000;stroke-width:1.0;stroke-dasharray:2.0,2.0;" x1="1094" x2="1094" y1="527.6875" y2="540.6875"/><line style="stroke:#000000;stroke-width:1.0;stroke-dasharray:2.0,2.0;" x1="1053" x2="1094" y1="540.6875" y2="540.6875"/><polygon fill="#000000" points="1063,536.6875,1053,540.6875,1063,544.6875,1059,540.6875" style="stroke:#000000;stroke-width:1.0;"/><text fill="#000000" font-family="sans-serif" font-size="17" lengthAdjust="spacing" textLength="149" x="1059" y="501.8892">Nutzerverzeichnis</text><text fill="#000000" font-family="sans-serif" font-size="17" lengthAdjust="spacing" textLength="106" x="1059" y="521.6782">durchsuchen</text><polygon fill="#000000" points="673,570.4766,663,574.4766,673,578.4766,669,574.4766" style="stroke:#000000;stroke-width:1.0;"/><line style="stroke:#000000;stroke-width:1.0;stroke-dasharray:2.0,2.0;" x1="667" x2="1046" y1="574.4766" y2="574.4766"/><text fill="#000000" font-family="sans-serif" font-size="17" lengthAdjust="spacing" textLength="47" x="993" y="568.4673">MXID</text><polygon fill="#000000" points="379,604.2656,369,608.2656,379,612.2656,375,608.2656" style="stroke:#000000;stroke-width:1.0;"/><line style="stroke:#000000;stroke-width:1.0;stroke-dasharray:2.0,2.0;" x1="373" x2="651" y1="608.2656" y2="608.2656"/><text fill="#000000" font-family="sans-serif" font-size="17" lengthAdjust="spacing" textLength="142" x="503" y="602.2563">HTTP(S) Forward</text><polygon fill="#000000" points="346,695.0547,356,699.0547,346,703.0547,350,699.0547" style="stroke:#000000;stroke-width:1.0;"/><line style="stroke:#000000;stroke-width:1.0;" x1="133" x2="352" y1="699.0547" y2="699.0547"/><text fill="#000000" font-family="sans-serif" font-size="17" lengthAdjust="spacing" textLength="150" x="140" y="693.0454">Akteur B einladen</text><polygon fill="#000000" points="640,748.6328,650,752.6328,640,756.6328,644,752.6328" style="stroke:#000000;stroke-width:1.0;"/><line style="stroke:#000000;stroke-width:1.0;" x1="368" x2="646" y1="752.6328" y2="752.6328"/><text fill="#000000" font-family="sans-serif" font-size="17" lengthAdjust="spacing" textLength="260" x="375" y="726.8345">POST /_matrix/client/r0/rooms/</text><text fill="#000000" font-family="sans-serif" font-size="17" lengthAdjust="spacing" textLength="215" x="375" y="746.6235">{roomId}/invite (roomId)</text><rect fill="none" height="58.8906" style="stroke:#000000;stroke-width:1.5;" width="600" x="547" y="785.6328"/><path d="M547,785.6328 L613,785.6328 L613,792.6328 L603,802.6328 L547,802.6328 L547,785.6328 " fill="#98FB98" style="stroke:#000000;stroke-width:2.0;"/><text fill="#000000" font-family="sans-serif" font-size="13" font-weight="bold" lengthAdjust="spacing" textLength="21" x="560" y="799.6997">ref</text><text fill="#000000" font-family="sans-serif" font-size="17" font-weight="bold" lengthAdjust="spacing" textLength="94" x="551" y="822.4126">AF_10064</text><text fill="#000000" font-family="sans-serif" font-size="17" lengthAdjust="spacing" textLength="493" x="650" y="822.4126">- F&#246;derationszugeh&#246;rigkeit eines Messenger-Service pr&#252;fen</text><text fill="#000000" font-family="sans-serif" font-size="12" lengthAdjust="spacing" textLength="4" x="845" y="837.5605">&#160;</text><path d="M10,881.5234 L74,881.5234 L74,888.6563 L64,898.6563 L10,898.6563 L10,881.5234 " fill="#D3D3D3" style="stroke:#000000;stroke-width:1.5;"/><rect fill="none" height="1166.8672" style="stroke:#000000;stroke-width:1.5;" width="1884.5" x="10" y="881.5234"/><text fill="#000000" font-family="sans-serif" font-size="13" font-weight="bold" lengthAdjust="spacing" textLength="19" x="25" y="894.5903">alt</text><text fill="#000000" font-family="sans-serif" font-size="11" font-weight="bold" lengthAdjust="spacing" textLength="5" x="89" y="899.5542">[</text><text fill="#000000" font-family="sans-serif" font-size="16" font-weight="bold" lengthAdjust="spacing" textLength="427" x="94" y="898.375">Matrix-Domain nicht in der F&#246;deration enthalten</text><text fill="#000000" font-family="sans-serif" font-size="11" font-weight="bold" lengthAdjust="spacing" textLength="5" x="521" y="899.5542">]</text><polygon fill="#000000" points="379,968.8594,369,972.8594,379,976.8594,375,972.8594" style="stroke:#000000;stroke-width:1.0;"/><line style="stroke:#000000;stroke-width:1.0;stroke-dasharray:2.0,2.0;" x1="373" x2="651" y1="972.8594" y2="972.8594"/><text fill="#000000" font-family="sans-serif" font-size="17" lengthAdjust="spacing" textLength="81" x="532" y="947.061">HTTP 401</text><text fill="#000000" font-family="sans-serif" font-size="17" lengthAdjust="spacing" textLength="113" x="532" y="966.8501">Unauthorized</text><line style="stroke:#000000;stroke-width:1.0;stroke-dasharray:2.0,2.0;" x1="368" x2="410" y1="1031.6484" y2="1031.6484"/><line style="stroke:#000000;stroke-width:1.0;stroke-dasharray:2.0,2.0;" x1="410" x2="410" y1="1031.6484" y2="1044.6484"/><line style="stroke:#000000;stroke-width:1.0;stroke-dasharray:2.0,2.0;" x1="369" x2="410" y1="1044.6484" y2="1044.6484"/><polygon fill="#000000" points="379,1040.6484,369,1044.6484,379,1048.6484,375,1044.6484" style="stroke:#000000;stroke-width:1.0;"/><text fill="#000000" font-family="sans-serif" font-size="17" lengthAdjust="spacing" textLength="195" x="375" y="1025.6392">Abmeldung der Session</text><polygon fill="#000000" points="144,1119.2266,134,1123.2266,144,1127.2266,140,1123.2266" style="stroke:#000000;stroke-width:1.0;"/><line style="stroke:#000000;stroke-width:1.0;stroke-dasharray:2.0,2.0;" x1="138" x2="357" y1="1123.2266" y2="1123.2266"/><text fill="#000000" font-family="sans-serif" font-size="17" lengthAdjust="spacing" textLength="143" x="203" y="1097.4282">Anmeldung nicht</text><text fill="#000000" font-family="sans-serif" font-size="17" lengthAdjust="spacing" textLength="89" x="203" y="1117.2173">erfolgreich</text><line style="stroke:#000000;stroke-width:1.0;stroke-dasharray:2.0,2.0;" x1="10" x2="1894.5" y1="1157.2266" y2="1157.2266"/><text fill="#000000" font-family="sans-serif" font-size="11" font-weight="bold" lengthAdjust="spacing" textLength="5" x="15" y="1173.2573">[</text><text fill="#000000" font-family="sans-serif" font-size="16" font-weight="bold" lengthAdjust="spacing" textLength="377" x="20" y="1172.0781">Matrix-Domain in der F&#246;deration enthalten</text><text fill="#000000" font-family="sans-serif" font-size="11" font-weight="bold" lengthAdjust="spacing" textLength="5" x="397" y="1173.2573">]</text><polygon fill="#000000" points="1030,1198.6406,1040,1202.6406,1030,1206.6406,1034,1202.6406" style="stroke:#000000;stroke-width:1.0;"/><line style="stroke:#000000;stroke-width:1.0;" x1="662" x2="1036" y1="1202.6406" y2="1202.6406"/><text fill="#000000" font-family="sans-serif" font-size="17" lengthAdjust="spacing" textLength="135" x="669" y="1196.6313">HTTP(S) Foward</text><line style="stroke:#000000;stroke-width:1.0;" x1="1052" x2="1094" y1="1236.4297" y2="1236.4297"/><line style="stroke:#000000;stroke-width:1.0;" x1="1094" x2="1094" y1="1236.4297" y2="1249.4297"/><line style="stroke:#000000;stroke-width:1.0;" x1="1053" x2="1094" y1="1249.4297" y2="1249.4297"/><polygon fill="#000000" points="1063,1245.4297,1053,1249.4297,1063,1253.4297,1059,1249.4297" style="stroke:#000000;stroke-width:1.0;"/><text fill="#000000" font-family="sans-serif" font-size="17" lengthAdjust="spacing" textLength="151" x="1059" y="1230.4204">Invite verarbeiten</text><path d="M884.5,1289.4297 L954.5,1289.4297 L954.5,1296.5625 L944.5,1306.5625 L884.5,1306.5625 L884.5,1289.4297 " fill="#D3D3D3" style="stroke:#000000;stroke-width:1.5;"/><rect fill="none" height="172.125" style="stroke:#000000;stroke-width:1.5;" width="774" x="884.5" y="1289.4297"/><text fill="#000000" font-family="sans-serif" font-size="13" font-weight="bold" lengthAdjust="spacing" textLength="25" x="899.5" y="1302.4966">opt</text><text fill="#000000" font-family="sans-serif" font-size="11" font-weight="bold" lengthAdjust="spacing" textLength="5" x="969.5" y="1307.4604">[</text><text fill="#000000" font-family="sans-serif" font-size="16" font-weight="bold" lengthAdjust="spacing" textLength="197" x="974.5" y="1306.2813">Pushbenachrichtigung</text><text fill="#000000" font-family="sans-serif" font-size="11" font-weight="bold" lengthAdjust="spacing" textLength="5" x="1171.5" y="1307.4604">]</text><polygon fill="#000000" points="1299.5,1356.9766,1309.5,1360.9766,1299.5,1364.9766,1303.5,1360.9766" style="stroke:#000000;stroke-width:1.0;"/><line style="stroke:#000000;stroke-width:1.0;" x1="1052" x2="1305.5" y1="1360.9766" y2="1360.9766"/><text fill="#000000" font-family="sans-serif" font-size="17" lengthAdjust="spacing" textLength="221" x="1059" y="1354.9673">POST /_matrix/push/notify</text><polygon fill="#000000" points="1529.5,1390.7656,1539.5,1394.7656,1529.5,1398.7656,1533.5,1394.7656" style="stroke:#000000;stroke-width:1.0;"/><line style="stroke:#000000;stroke-width:1.0;" x1="1321.5" x2="1535.5" y1="1394.7656" y2="1394.7656"/><text fill="#000000" font-family="sans-serif" font-size="17" lengthAdjust="spacing" textLength="97" x="1328.5" y="1388.7563">Notification</text><polygon fill="#000000" points="1063,1424.5547,1053,1428.5547,1063,1432.5547,1059,1428.5547" style="stroke:#000000;stroke-width:1.0;"/><line style="stroke:#000000;stroke-width:1.0;stroke-dasharray:2.0,2.0;" x1="1057" x2="1315.5" y1="1428.5547" y2="1428.5547"/><text fill="#000000" font-family="sans-serif" font-size="17" lengthAdjust="spacing" textLength="54" x="1255.5" y="1422.5454">Status</text><polygon fill="#000000" points="673,1515.3438,663,1519.3438,673,1523.3438,669,1519.3438" style="stroke:#000000;stroke-width:1.0;"/><line style="stroke:#000000;stroke-width:1.0;" x1="667" x2="1041" y1="1519.3438" y2="1519.3438"/><text fill="#000000" font-family="sans-serif" font-size="17" lengthAdjust="spacing" textLength="122" x="913" y="1513.3345">Invite Request</text><polygon fill="#000000" points="1524.5,1549.1328,1534.5,1553.1328,1524.5,1557.1328,1528.5,1553.1328" style="stroke:#000000;stroke-width:1.0;"/><line style="stroke:#000000;stroke-width:1.0;" x1="662" x2="1530.5" y1="1553.1328" y2="1553.1328"/><text fill="#000000" font-family="sans-serif" font-size="17" lengthAdjust="spacing" textLength="142" x="669" y="1547.1235">HTTP(S) Forward</text><polygon fill="#000000" points="1759.5,1582.9219,1769.5,1586.9219,1759.5,1590.9219,1763.5,1586.9219" style="stroke:#000000;stroke-width:1.0;"/><line style="stroke:#000000;stroke-width:1.0;" x1="1546.5" x2="1765.5" y1="1586.9219" y2="1586.9219"/><text fill="#000000" font-family="sans-serif" font-size="17" lengthAdjust="spacing" textLength="164" x="1553.5" y="1580.9126">Einladung anzeigen</text><polygon fill="#000000" points="1557.5,1616.7109,1547.5,1620.7109,1557.5,1624.7109,1553.5,1620.7109" style="stroke:#000000;stroke-width:1.0;"/><line style="stroke:#000000;stroke-width:1.0;stroke-dasharray:2.0,2.0;" x1="1551.5" x2="1770.5" y1="1620.7109" y2="1620.7109"/><text fill="#000000" font-family="sans-serif" font-size="17" lengthAdjust="spacing" textLength="177" x="1587.5" y="1614.7017">Einladung best&#228;tigen</text><polygon fill="#000000" points="673,1650.5,663,1654.5,673,1658.5,669,1654.5" style="stroke:#000000;stroke-width:1.0;"/><line style="stroke:#000000;stroke-width:1.0;" x1="667" x2="1535.5" y1="1654.5" y2="1654.5"/><text fill="#000000" font-family="sans-serif" font-size="17" lengthAdjust="spacing" textLength="64" x="1465.5" y="1648.4907">commit</text><line style="stroke:#000000;stroke-width:1.0;" x1="662" x2="704" y1="1713.2891" y2="1713.2891"/><line style="stroke:#000000;stroke-width:1.0;" x1="704" x2="704" y1="1713.2891" y2="1726.2891"/><line style="stroke:#000000;stroke-width:1.0;" x1="663" x2="704" y1="1726.2891" y2="1726.2891"/><polygon fill="#000000" points="673,1722.2891,663,1726.2891,673,1730.2891,669,1726.2891" style="stroke:#000000;stroke-width:1.0;"/><text fill="#000000" font-family="sans-serif" font-size="17" lengthAdjust="spacing" textLength="149" x="669" y="1707.2798">TLS Terminierung</text><polygon fill="#000000" points="1030,1756.0781,1040,1760.0781,1030,1764.0781,1034,1760.0781" style="stroke:#000000;stroke-width:1.0;"/><line style="stroke:#000000;stroke-width:1.0;stroke-dasharray:2.0,2.0;" x1="662" x2="1036" y1="1760.0781" y2="1760.0781"/><text fill="#000000" font-family="sans-serif" font-size="17" lengthAdjust="spacing" textLength="142" x="669" y="1754.0688">HTTP(S) Forward</text><line style="stroke:#000000;stroke-width:1.0;stroke-dasharray:2.0,2.0;" x1="1052" x2="1094" y1="1793.8672" y2="1793.8672"/><line style="stroke:#000000;stroke-width:1.0;stroke-dasharray:2.0,2.0;" x1="1094" x2="1094" y1="1793.8672" y2="1806.8672"/><line style="stroke:#000000;stroke-width:1.0;stroke-dasharray:2.0,2.0;" x1="1053" x2="1094" y1="1806.8672" y2="1806.8672"/><polygon fill="#000000" points="1063,1802.8672,1053,1806.8672,1063,1810.8672,1059,1806.8672" style="stroke:#000000;stroke-width:1.0;"/><text fill="#000000" font-family="sans-serif" font-size="17" lengthAdjust="spacing" textLength="127" x="1059" y="1787.8579">Invite ausl&#246;sen</text><polygon fill="#000000" points="673,1836.6563,663,1840.6563,673,1844.6563,669,1840.6563" style="stroke:#000000;stroke-width:1.0;"/><line style="stroke:#000000;stroke-width:1.0;stroke-dasharray:2.0,2.0;" x1="667" x2="1046" y1="1840.6563" y2="1840.6563"/><text fill="#000000" font-family="sans-serif" font-size="17" lengthAdjust="spacing" textLength="54" x="986" y="1834.647">Status</text><polygon fill="#000000" points="379,1870.4453,369,1874.4453,379,1878.4453,375,1874.4453" style="stroke:#000000;stroke-width:1.0;"/><line style="stroke:#000000;stroke-width:1.0;stroke-dasharray:2.0,2.0;" x1="373" x2="651" y1="1874.4453" y2="1874.4453"/><text fill="#000000" font-family="sans-serif" font-size="17" lengthAdjust="spacing" textLength="54" x="591" y="1868.436">Status</text><polygon fill="#000000" points="144,1924.0234,134,1928.0234,144,1932.0234,140,1928.0234" style="stroke:#000000;stroke-width:1.0;"/><line style="stroke:#000000;stroke-width:1.0;stroke-dasharray:2.0,2.0;" x1="138" x2="362" y1="1928.0234" y2="1928.0234"/><text fill="#000000" font-family="sans-serif" font-size="17" lengthAdjust="spacing" textLength="113" x="201" y="1902.2251">Nutzer in den</text><text fill="#000000" font-family="sans-serif" font-size="17" lengthAdjust="spacing" textLength="155" x="201" y="1922.0142">Raum hinzugef&#252;gt</text><polygon fill="#000000" points="1524.5,1957.8125,1534.5,1961.8125,1524.5,1965.8125,1528.5,1961.8125" style="stroke:#000000;stroke-width:1.0;"/><line style="stroke:#000000;stroke-width:1.0;stroke-dasharray:2.0,2.0;" x1="657" x2="1530.5" y1="1961.8125" y2="1961.8125"/><text fill="#000000" font-family="sans-serif" font-size="17" lengthAdjust="spacing" textLength="54" x="664" y="1955.8032">Status</text><polygon fill="#000000" points="1759.5,2011.3906,1769.5,2015.3906,1759.5,2019.3906,1763.5,2015.3906" style="stroke:#000000;stroke-width:1.0;"/><line style="stroke:#000000;stroke-width:1.0;stroke-dasharray:2.0,2.0;" x1="1541.5" x2="1765.5" y1="2015.3906" y2="2015.3906"/><text fill="#000000" font-family="sans-serif" font-size="17" lengthAdjust="spacing" textLength="123" x="1548.5" y="1989.5923">Nutzer ist dem</text><text fill="#000000" font-family="sans-serif" font-size="17" lengthAdjust="spacing" textLength="152" x="1548.5" y="2009.3813">Raum beigetreten</text><!--SRC=[ZLRRRXex57tdAwpa9ObAkQXggwYA1AG1f92C0foU8o55PcOpOp5ZSsnFRat_vdn3dlh6ZvrjUo1pWQIyCDXxhtrRUp5goVYAIfeG1V-cm7qOWL8qX4xCGau29i7NJF2QsXecZFTYgjGF5kY8j9lDt5rNF7Wq21WFIIjtlC6-WGL8yp006e3iKdyPIf7oe2TY8ScAnX1A08pcuoD9w0FYV_fAxasesWv0yhFMaLBSE_zvZ83ku49mFMPFG5fVQXrV2zaL4YFcxIxP0YuPXpTkIldrAUDgBgIerJmgDVFPYdATzny9pUweRLZUeeIpsygaV4KJ8CDaHNrTlhBLj9lbutpUUvBgLYxB-LnFXdzr9iFhgrhMhBs5s-jotEtX9iVjWQsdGrVmKFjL8_YXvePCMuGgSj1PQaWbgPCEOSWraEH6n37C-5JXSuEOh_gWspcmhglN0aZF0Ko6TKDNu24Qpf2M3F2oSq0EaRu-TECKhEjSF91l2fCxRNqzU_KOWxn3isyDStL63dz4JCCu4KldLGmvycp8V3nFYeV7Wrss0sTBjMGFzO5802kvmvfc_8ZnPPmgTWVaAjLFzlW9c1znfevtONbzY-MbAghtgOPxceK47fZ2ghrflz6Rxi7Xv7jlS7LzUTt_9p-HTd4YtJ-PIEtv-Rd6XGOYJ77JrWV4ESKYirv_EJjdE7wB2KGnJ9Yc2uGr2npFWPFAB0Z5Nmd40MY2z2CCDGKKqqy4S24LUKf3CE837BqB9Re2rSTSzEzOGo_28T0q8VSfRWG9Kkb7c04dU1cZ21aSX4O4d846_J5ZmupRwcoTOgKFBraOwRw4nnotDfpwV9RrJQL-13n3iAu6mtnFM_MpNkkKZ8r5rXBIpSQD8p1w08RM9URsq6_adHBlUZmXZTl4CghXsreRCvxYF6wTI0lvs510iRmowiYp9oFFGKqkn_K9I9Hn1ZBbuUlbu9GC9XFlQ7nCBeIyfpAeG0sSzQ3kp2iKnk7R5hjEv8mnyEZluNa66405qgkx3ktAODD5fBmZtgxMRffgncad-tu3PRCXXKWKTlAdUHW6lngCtw4Aa2Ft-xWQZn092yVuaVU16F0juqvEEXUthMRpywUJ4zoYY_KBxf1LUcMO6wrV90kNm7H6voh_LtBzUx7bq8mNOxkDZT-ZOoOyvo91uIRSC7kppxcKi9qwGh0YO_E55eP2FZLREDuffwcEX4I7eEA0tSw6CJTBZEooGSTOflctssa-DUPyO-wIdN6G2n7Zom3RyhdG0-H2hFPM_AUrlfPP8d-E-rNsMqfRXw7Z2bA1oZbE5QebLjJ3FXR7PRGTrP3waHKX5c8ZYYCfOxeKl7wProj4Qg0YiyLZpZPNWjVFdNjz71OAzfLnOBvx8obSkpB7ckfK5G1p2vo3pAUusTNTgPkjoRftOzxbbCuRU2wltM9KrimsAV-bPUHg8xSGnGczuHRbA5CXv6kSjkikrglL79DP_wTBXWRD9EsB965w_rXUHPPKH3QtLFkrjg2lMOjegkBrYoeaj9NLjwUpvMnXdoi-sqrqYkusYECUtfZ_peXn8r-BzUzGxmlKQrK2jTzDpYjss0riauBIzbKXos5kHgSbw48NYYcqQ_kfY0V_0m00]--></g></svg>