<?xml version="1.0" encoding="us-ascii" standalone="no"?><svg xmlns="http://www.w3.org/2000/svg" xmlns:xlink="http://www.w3.org/1999/xlink" contentStyleType="text/css" height="2225px" preserveAspectRatio="none" style="width:1781px;height:2225px;background:#FFFFFF;" version="1.1" viewBox="0 0 1781 2225" width="1781px" zoomAndPan="magnify"><defs/><g><rect fill="#F5F5F5" height="2213.7422" style="stroke:#181818;stroke-width:0.5;" width="761" x="546" y="6"/><text fill="#000000" font-family="sans-serif" font-size="18" font-weight="bold" lengthAdjust="spacing" textLength="193" x="827.5" y="22.708">Messenger-Service</text><text fill="#000000" font-family="sans-serif" font-size="13" font-weight="bold" lengthAdjust="spacing" textLength="5" x="1020.5" y="23.8872">&#160;</text><rect fill="#F0F8FF" height="1607.8594" style="stroke:#000000;stroke-width:1.0;" width="10" x="358" y="339.9531"/><rect fill="#DCDCDC" height="1588.0703" style="stroke:#000000;stroke-width:1.0;" width="10" x="652" y="393.5313"/><rect fill="#DCDCDC" height="100.3672" style="stroke:#000000;stroke-width:1.0;" width="10" x="921.5" y="474.1094"/><rect fill="#DCDCDC" height="638.0156" style="stroke:#000000;stroke-width:1.0;" width="10" x="921.5" y="1222.4297"/><rect fill="#DCDCDC" height="67.5781" style="stroke:#000000;stroke-width:1.0;" width="10" x="1191" y="1380.7656"/><rect fill="#C9FFC9" height="462.2578" style="stroke:#000000;stroke-width:1.0;" width="10" x="1416" y="1572.9219"/><rect fill="#F0F8FF" height="372.8594" style="stroke:#000000;stroke-width:1.5;" width="1094.5" x="10" y="268.4063"/><rect fill="#F0F8FF" height="1166.8672" style="stroke:#000000;stroke-width:1.5;" width="1764" x="10" y="901.3125"/><rect fill="#F0F8FF" height="892.1641" style="stroke:none;stroke-width:1.0;" width="1764" x="10" y="1176.0156"/><rect fill="#ADD8E6" height="172.125" style="stroke:#000000;stroke-width:1.5;" width="774" x="764" y="1309.2188"/><line style="stroke:#000000;stroke-width:0.5;stroke-dasharray:5.0,5.0;" x1="133" x2="133" y1="111.5625" y2="2110.1797"/><line style="stroke:#000000;stroke-width:0.5;stroke-dasharray:5.0,5.0;" x1="363" x2="363" y1="111.5625" y2="2110.1797"/><line style="stroke:#000000;stroke-width:0.5;stroke-dasharray:5.0,5.0;" x1="657" x2="657" y1="111.5625" y2="2110.1797"/><line style="stroke:#000000;stroke-width:0.5;stroke-dasharray:5.0,5.0;" x1="926" x2="926" y1="111.5625" y2="2110.1797"/><line style="stroke:#000000;stroke-width:0.5;stroke-dasharray:5.0,5.0;" x1="1196" x2="1196" y1="111.5625" y2="2110.1797"/><line style="stroke:#000000;stroke-width:0.5;stroke-dasharray:5.0,5.0;" x1="1421" x2="1421" y1="111.5625" y2="2110.1797"/><line style="stroke:#000000;stroke-width:0.5;stroke-dasharray:5.0,5.0;" x1="1651" x2="1651" y1="111.5625" y2="2110.1797"/><text fill="#000000" font-family="Aapex" font-size="20" lengthAdjust="spacing" textLength="220" x="20" y="83.5645">Akteur - A in der Rolle</text><text fill="#000000" font-family="Aapex" font-size="20" lengthAdjust="spacing" textLength="159" x="50.5" y="106.8457">User / User-HBA</text><ellipse cx="133" cy="13.5" fill="#DCDCDC" rx="8" ry="8" style="stroke:#000000;stroke-width:0.5;"/><path d="M133,21.5 L133,48.5 M120,29.5 L146,29.5 M133,48.5 L120,63.5 M133,48.5 L146,63.5 " fill="none" style="stroke:#000000;stroke-width:0.5;"/><text fill="#000000" font-family="Aapex" font-size="20" lengthAdjust="spacing" textLength="220" x="20" y="2127.7441">Akteur - A in der Rolle</text><text fill="#000000" font-family="Aapex" font-size="20" lengthAdjust="spacing" textLength="159" x="50.5" y="2151.0254">User / User-HBA</text><ellipse cx="133" cy="2164.2422" fill="#DCDCDC" rx="8" ry="8" style="stroke:#000000;stroke-width:0.5;"/><path d="M133,2172.2422 L133,2199.2422 M120,2180.2422 L146,2180.2422 M133,2199.2422 L120,2214.2422 M133,2199.2422 L146,2214.2422 " fill="none" style="stroke:#000000;stroke-width:0.5;"/><rect fill="#F0F8FF" height="60.5625" rx="2.5" ry="2.5" style="stroke:#000000;stroke-width:0.5;" width="214" x="256" y="50"/><text fill="#000000" font-family="Impact" font-size="20" lengthAdjust="spacing" textLength="139" x="293.5" y="75.5645">TI-Messenger-</text><text fill="#000000" font-family="Impact" font-size="20" lengthAdjust="spacing" textLength="79" x="323.5" y="98.8457">Client A</text><rect fill="#F0F8FF" height="60.5625" rx="2.5" ry="2.5" style="stroke:#000000;stroke-width:0.5;" width="214" x="256" y="2109.1797"/><text fill="#000000" font-family="Impact" font-size="20" lengthAdjust="spacing" textLength="139" x="293.5" y="2134.7441">TI-Messenger-</text><text fill="#000000" font-family="Impact" font-size="20" lengthAdjust="spacing" textLength="79" x="323.5" y="2158.0254">Client A</text><rect fill="#EFEFFF" height="60.5625" rx="2.5" ry="2.5" style="stroke:#000000;stroke-width:0.5;" width="214" x="550" y="50"/><text fill="#000000" font-family="Impact" font-size="20" lengthAdjust="spacing" textLength="114" x="600" y="75.5645">Messenger-</text><text fill="#000000" font-family="Impact" font-size="20" lengthAdjust="spacing" textLength="54" x="630" y="98.8457">Proxy</text><rect fill="#EFEFFF" height="60.5625" rx="2.5" ry="2.5" style="stroke:#000000;stroke-width:0.5;" width="214" x="550" y="2109.1797"/><text fill="#000000" font-family="Impact" font-size="20" lengthAdjust="spacing" textLength="114" x="600" y="2134.7441">Messenger-</text><text fill="#000000" font-family="Impact" font-size="20" lengthAdjust="spacing" textLength="54" x="630" y="2158.0254">Proxy</text><rect fill="#EFEFFF" height="60.5625" rx="2.5" ry="2.5" style="stroke:#000000;stroke-width:0.5;" width="305" x="774" y="50"/><text fill="#000000" font-family="Impact" font-size="20" lengthAdjust="spacing" textLength="189" x="829" y="75.5645">Matrix-Homeserver</text><text fill="#000000" font-family="Impact" font-size="20" lengthAdjust="spacing" textLength="291" x="781" y="98.8457">(inklusive Nutzerverzeichnis)</text><rect fill="#EFEFFF" height="60.5625" rx="2.5" ry="2.5" style="stroke:#000000;stroke-width:0.5;" width="305" x="774" y="2109.1797"/><text fill="#000000" font-family="Impact" font-size="20" lengthAdjust="spacing" textLength="189" x="829" y="2134.7441">Matrix-Homeserver</text><text fill="#000000" font-family="Impact" font-size="20" lengthAdjust="spacing" textLength="291" x="781" y="2158.0254">(inklusive Nutzerverzeichnis)</text><rect fill="#EFEFFF" height="37.2813" rx="2.5" ry="2.5" style="stroke:#000000;stroke-width:0.5;" width="214" x="1089" y="73.2813"/><text fill="#000000" font-family="Impact" font-size="20" lengthAdjust="spacing" textLength="143" x="1124.5" y="98.8457">Push-Gateway</text><rect fill="#EFEFFF" height="37.2813" rx="2.5" ry="2.5" style="stroke:#000000;stroke-width:0.5;" width="214" x="1089" y="2109.1797"/><text fill="#000000" font-family="Impact" font-size="20" lengthAdjust="spacing" textLength="143" x="1124.5" y="2134.7441">Push-Gateway</text><rect fill="#C9FFC9" height="60.5625" rx="2.5" ry="2.5" style="stroke:#000000;stroke-width:0.5;" width="214" x="1314" y="50"/><text fill="#000000" font-family="Impact" font-size="20" lengthAdjust="spacing" textLength="139" x="1351.5" y="75.5645">TI-Messenger-</text><text fill="#000000" font-family="Impact" font-size="20" lengthAdjust="spacing" textLength="79" x="1381.5" y="98.8457">Client B</text><rect fill="#C9FFC9" height="60.5625" rx="2.5" ry="2.5" style="stroke:#000000;stroke-width:0.5;" width="214" x="1314" y="2109.1797"/><text fill="#000000" font-family="Impact" font-size="20" lengthAdjust="spacing" textLength="139" x="1351.5" y="2134.7441">TI-Messenger-</text><text fill="#000000" font-family="Impact" font-size="20" lengthAdjust="spacing" textLength="79" x="1381.5" y="2158.0254">Client B</text><text fill="#000000" font-family="Aapex" font-size="20" lengthAdjust="spacing" textLength="220" x="1538" y="83.5645">Akteur - B in der Rolle</text><text fill="#000000" font-family="Aapex" font-size="20" lengthAdjust="spacing" textLength="159" x="1568.5" y="106.8457">User / User-HBA</text><ellipse cx="1651" cy="13.5" fill="#DCDCDC" rx="8" ry="8" style="stroke:#000000;stroke-width:0.5;"/><path d="M1651,21.5 L1651,48.5 M1638,29.5 L1664,29.5 M1651,48.5 L1638,63.5 M1651,48.5 L1664,63.5 " fill="none" style="stroke:#000000;stroke-width:0.5;"/><text fill="#000000" font-family="Aapex" font-size="20" lengthAdjust="spacing" textLength="220" x="1538" y="2127.7441">Akteur - B in der Rolle</text><text fill="#000000" font-family="Aapex" font-size="20" lengthAdjust="spacing" textLength="159" x="1568.5" y="2151.0254">User / User-HBA</text><ellipse cx="1651" cy="2164.2422" fill="#DCDCDC" rx="8" ry="8" style="stroke:#000000;stroke-width:0.5;"/><path d="M1651,2172.2422 L1651,2199.2422 M1638,2180.2422 L1664,2180.2422 M1651,2199.2422 L1638,2214.2422 M1651,2199.2422 L1664,2214.2422 " fill="none" style="stroke:#000000;stroke-width:0.5;"/><rect fill="#F0F8FF" height="1607.8594" style="stroke:#000000;stroke-width:1.0;" width="10" x="358" y="339.9531"/><rect fill="#DCDCDC" height="1588.0703" style="stroke:#000000;stroke-width:1.0;" width="10" x="652" y="393.5313"/><rect fill="#DCDCDC" height="100.3672" style="stroke:#000000;stroke-width:1.0;" width="10" x="921.5" y="474.1094"/><rect fill="#DCDCDC" height="638.0156" style="stroke:#000000;stroke-width:1.0;" width="10" x="921.5" y="1222.4297"/><rect fill="#DCDCDC" height="67.5781" style="stroke:#000000;stroke-width:1.0;" width="10" x="1191" y="1380.7656"/><rect fill="#C9FFC9" height="462.2578" style="stroke:#000000;stroke-width:1.0;" width="10" x="1416" y="1572.9219"/><path d="M22,151.5625 L22,230.5625 L1761,230.5625 L1761,161.5625 L1751,151.5625 L22,151.5625 " fill="#FEFFDD" style="stroke:#181818;stroke-width:0.5;"/><path d="M1751,151.5625 L1751,161.5625 L1761,161.5625 L1751,151.5625 " fill="#FEFFDD" style="stroke:#181818;stroke-width:0.5;"/><text fill="#000000" font-family="sans-serif" font-size="13" lengthAdjust="spacing" textLength="4" x="383.5" y="168.6294">&#160;</text><text fill="#000000" font-family="sans-serif" font-size="17" lengthAdjust="spacing" textLength="1007" x="383.5" y="187.4751">Die Akteure sind auf dem selben Messenger-Service angemeldet und im Besitz eines zugelassenen TI-Messenger-Clients.</text><text fill="#000000" font-family="sans-serif" font-size="17" lengthAdjust="spacing" textLength="473" x="383.5" y="207.2642">Ein Chatraum wurde durch den Einladenen eingerichtet.</text><text fill="#000000" font-family="sans-serif" font-size="13" lengthAdjust="spacing" textLength="4" x="383.5" y="223.3403">&#160;</text><path d="M10,268.4063 L80,268.4063 L80,275.5391 L70,285.5391 L10,285.5391 L10,268.4063 " fill="#D3D3D3" style="stroke:#000000;stroke-width:1.5;"/><rect fill="none" height="372.8594" style="stroke:#000000;stroke-width:1.5;" width="1094.5" x="10" y="268.4063"/><text fill="#000000" font-family="sans-serif" font-size="13" font-weight="bold" lengthAdjust="spacing" textLength="25" x="25" y="281.4731">opt</text><text fill="#000000" font-family="sans-serif" font-size="11" font-weight="bold" lengthAdjust="spacing" textLength="5" x="95" y="286.437">[</text><text fill="#000000" font-family="sans-serif" font-size="16" font-weight="bold" lengthAdjust="spacing" textLength="131" x="100" y="285.2578">Akteur suchen</text><text fill="#000000" font-family="sans-serif" font-size="11" font-weight="bold" lengthAdjust="spacing" textLength="5" x="231" y="286.437">]</text><polygon fill="#000000" points="346,335.9531,356,339.9531,346,343.9531,350,339.9531" style="stroke:#000000;stroke-width:1.0;"/><line style="stroke:#000000;stroke-width:1.0;" x1="133" x2="352" y1="339.9531" y2="339.9531"/><text fill="#000000" font-family="sans-serif" font-size="17" lengthAdjust="spacing" textLength="129" x="140" y="333.9438">Suche Akteur B</text><polygon fill="#000000" points="640,389.5313,650,393.5313,640,397.5313,644,393.5313" style="stroke:#000000;stroke-width:1.0;"/><line style="stroke:#000000;stroke-width:1.0;" x1="368" x2="646" y1="393.5313" y2="393.5313"/><text fill="#000000" font-family="sans-serif" font-size="17" lengthAdjust="spacing" textLength="178" x="375" y="367.7329">POST /_matrix/client/</text><text fill="#000000" font-family="sans-serif" font-size="17" lengthAdjust="spacing" textLength="179" x="375" y="387.522">user_directory/search</text><line style="stroke:#000000;stroke-width:1.0;" x1="662" x2="704" y1="427.3203" y2="427.3203"/><line style="stroke:#000000;stroke-width:1.0;" x1="704" x2="704" y1="427.3203" y2="440.3203"/><line style="stroke:#000000;stroke-width:1.0;" x1="663" x2="704" y1="440.3203" y2="440.3203"/><polygon fill="#000000" points="673,436.3203,663,440.3203,673,444.3203,669,440.3203" style="stroke:#000000;stroke-width:1.0;"/><text fill="#000000" font-family="sans-serif" font-size="17" lengthAdjust="spacing" textLength="150" x="669" y="421.311">TLS-Terminierung</text><polygon fill="#000000" points="909.5,470.1094,919.5,474.1094,909.5,478.1094,913.5,474.1094" style="stroke:#000000;stroke-width:1.0;"/><line style="stroke:#000000;stroke-width:1.0;" x1="662" x2="915.5" y1="474.1094" y2="474.1094"/><text fill="#000000" font-family="sans-serif" font-size="17" lengthAdjust="spacing" textLength="142" x="669" y="468.1001">HTTP(S) Forward</text><line style="stroke:#000000;stroke-width:1.0;stroke-dasharray:2.0,2.0;" x1="931.5" x2="973.5" y1="527.6875" y2="527.6875"/><line style="stroke:#000000;stroke-width:1.0;stroke-dasharray:2.0,2.0;" x1="973.5" x2="973.5" y1="527.6875" y2="540.6875"/><line style="stroke:#000000;stroke-width:1.0;stroke-dasharray:2.0,2.0;" x1="932.5" x2="973.5" y1="540.6875" y2="540.6875"/><polygon fill="#000000" points="942.5,536.6875,932.5,540.6875,942.5,544.6875,938.5,540.6875" style="stroke:#000000;stroke-width:1.0;"/><text fill="#000000" font-family="sans-serif" font-size="17" lengthAdjust="spacing" textLength="149" x="938.5" y="501.8892">Nutzerverzeichnis</text><text fill="#000000" font-family="sans-serif" font-size="17" lengthAdjust="spacing" textLength="106" x="938.5" y="521.6782">durchsuchen</text><polygon fill="#000000" points="673,570.4766,663,574.4766,673,578.4766,669,574.4766" style="stroke:#000000;stroke-width:1.0;"/><line style="stroke:#000000;stroke-width:1.0;stroke-dasharray:2.0,2.0;" x1="667" x2="925.5" y1="574.4766" y2="574.4766"/><text fill="#000000" font-family="sans-serif" font-size="17" lengthAdjust="spacing" textLength="47" x="872.5" y="568.4673">MXID</text><polygon fill="#000000" points="379,604.2656,369,608.2656,379,612.2656,375,608.2656" style="stroke:#000000;stroke-width:1.0;"/><line style="stroke:#000000;stroke-width:1.0;stroke-dasharray:2.0,2.0;" x1="373" x2="651" y1="608.2656" y2="608.2656"/><text fill="#000000" font-family="sans-serif" font-size="17" lengthAdjust="spacing" textLength="142" x="503" y="602.2563">HTTP(S) Forward</text><polygon fill="#000000" points="346,695.0547,356,699.0547,346,703.0547,350,699.0547" style="stroke:#000000;stroke-width:1.0;"/><line style="stroke:#000000;stroke-width:1.0;" x1="133" x2="352" y1="699.0547" y2="699.0547"/><text fill="#000000" font-family="sans-serif" font-size="17" lengthAdjust="spacing" textLength="150" x="140" y="693.0454">Akteur B einladen</text><polygon fill="#000000" points="640,748.6328,650,752.6328,640,756.6328,644,752.6328" style="stroke:#000000;stroke-width:1.0;"/><line style="stroke:#000000;stroke-width:1.0;" x1="368" x2="646" y1="752.6328" y2="752.6328"/><text fill="#000000" font-family="sans-serif" font-size="17" lengthAdjust="spacing" textLength="260" x="375" y="726.8345">POST /_matrix/client/r0/rooms/</text><text fill="#000000" font-family="sans-serif" font-size="17" lengthAdjust="spacing" textLength="215" x="375" y="746.6235">{roomId}/invite (roomId)</text><rect fill="none" height="78.6797" style="stroke:#000000;stroke-width:1.5;" width="260" x="547" y="785.6328"/><path d="M547,785.6328 L613,785.6328 L613,792.6328 L603,802.6328 L547,802.6328 L547,785.6328 " fill="#98FB98" style="stroke:#000000;stroke-width:2.0;"/><text fill="#000000" font-family="sans-serif" font-size="13" font-weight="bold" lengthAdjust="spacing" textLength="21" x="560" y="799.6997">ref</text><text fill="#000000" font-family="sans-serif" font-size="17" lengthAdjust="spacing" textLength="143" x="603" y="822.4126">Stufe 1 - Pr&#252;fung</text><text fill="#000000" font-family="sans-serif" font-size="17" lengthAdjust="spacing" textLength="252" x="551" y="842.2017">Client-Server Kommunikation</text><text fill="#000000" font-family="sans-serif" font-size="12" lengthAdjust="spacing" textLength="4" x="675" y="857.3496">&#160;</text><path d="M10,901.3125 L74,901.3125 L74,908.4453 L64,918.4453 L10,918.4453 L10,901.3125 " fill="#D3D3D3" style="stroke:#000000;stroke-width:1.5;"/><rect fill="none" height="1166.8672" style="stroke:#000000;stroke-width:1.5;" width="1764" x="10" y="901.3125"/><text fill="#000000" font-family="sans-serif" font-size="13" font-weight="bold" lengthAdjust="spacing" textLength="19" x="25" y="914.3794">alt</text><text fill="#000000" font-family="sans-serif" font-size="11" font-weight="bold" lengthAdjust="spacing" textLength="5" x="89" y="919.3433">[</text><text fill="#000000" font-family="sans-serif" font-size="16" font-weight="bold" lengthAdjust="spacing" textLength="427" x="94" y="918.1641">Matrix-Domain nicht in der F&#246;deration enthalten</text><text fill="#000000" font-family="sans-serif" font-size="11" font-weight="bold" lengthAdjust="spacing" textLength="5" x="521" y="919.3433">]</text><polygon fill="#000000" points="379,988.6484,369,992.6484,379,996.6484,375,992.6484" style="stroke:#000000;stroke-width:1.0;"/><line style="stroke:#000000;stroke-width:1.0;stroke-dasharray:2.0,2.0;" x1="373" x2="651" y1="992.6484" y2="992.6484"/><text fill="#000000" font-family="sans-serif" font-size="17" lengthAdjust="spacing" textLength="81" x="532" y="966.8501">HTTP 401</text><text fill="#000000" font-family="sans-serif" font-size="17" lengthAdjust="spacing" textLength="113" x="532" y="986.6392">Unauthorized</text><line style="stroke:#000000;stroke-width:1.0;stroke-dasharray:2.0,2.0;" x1="368" x2="410" y1="1051.4375" y2="1051.4375"/><line style="stroke:#000000;stroke-width:1.0;stroke-dasharray:2.0,2.0;" x1="410" x2="410" y1="1051.4375" y2="1064.4375"/><line style="stroke:#000000;stroke-width:1.0;stroke-dasharray:2.0,2.0;" x1="369" x2="410" y1="1064.4375" y2="1064.4375"/><polygon fill="#000000" points="379,1060.4375,369,1064.4375,379,1068.4375,375,1064.4375" style="stroke:#000000;stroke-width:1.0;"/><text fill="#000000" font-family="sans-serif" font-size="17" lengthAdjust="spacing" textLength="195" x="375" y="1045.4282">Abmeldung der Session</text><polygon fill="#000000" points="144,1139.0156,134,1143.0156,144,1147.0156,140,1143.0156" style="stroke:#000000;stroke-width:1.0;"/><line style="stroke:#000000;stroke-width:1.0;stroke-dasharray:2.0,2.0;" x1="138" x2="357" y1="1143.0156" y2="1143.0156"/><text fill="#000000" font-family="sans-serif" font-size="17" lengthAdjust="spacing" textLength="143" x="203" y="1117.2173">Anmeldung nicht</text><text fill="#000000" font-family="sans-serif" font-size="17" lengthAdjust="spacing" textLength="89" x="203" y="1137.0063">erfolgreich</text><line style="stroke:#000000;stroke-width:1.0;stroke-dasharray:2.0,2.0;" x1="10" x2="1774" y1="1177.0156" y2="1177.0156"/><text fill="#000000" font-family="sans-serif" font-size="11" font-weight="bold" lengthAdjust="spacing" textLength="5" x="15" y="1193.0464">[</text><text fill="#000000" font-family="sans-serif" font-size="16" font-weight="bold" lengthAdjust="spacing" textLength="377" x="20" y="1191.8672">Matrix-Domain in der F&#246;deration enthalten</text><text fill="#000000" font-family="sans-serif" font-size="11" font-weight="bold" lengthAdjust="spacing" textLength="5" x="397" y="1193.0464">]</text><polygon fill="#000000" points="909.5,1218.4297,919.5,1222.4297,909.5,1226.4297,913.5,1222.4297" style="stroke:#000000;stroke-width:1.0;"/><line style="stroke:#000000;stroke-width:1.0;" x1="662" x2="915.5" y1="1222.4297" y2="1222.4297"/><text fill="#000000" font-family="sans-serif" font-size="17" lengthAdjust="spacing" textLength="135" x="669" y="1216.4204">HTTP(S) Foward</text><line style="stroke:#000000;stroke-width:1.0;" x1="931.5" x2="973.5" y1="1256.2188" y2="1256.2188"/><line style="stroke:#000000;stroke-width:1.0;" x1="973.5" x2="973.5" y1="1256.2188" y2="1269.2188"/><line style="stroke:#000000;stroke-width:1.0;" x1="932.5" x2="973.5" y1="1269.2188" y2="1269.2188"/><polygon fill="#000000" points="942.5,1265.2188,932.5,1269.2188,942.5,1273.2188,938.5,1269.2188" style="stroke:#000000;stroke-width:1.0;"/><text fill="#000000" font-family="sans-serif" font-size="17" lengthAdjust="spacing" textLength="151" x="938.5" y="1250.2095">Invite verarbeiten</text><path d="M764,1309.2188 L834,1309.2188 L834,1316.3516 L824,1326.3516 L764,1326.3516 L764,1309.2188 " fill="#D3D3D3" style="stroke:#000000;stroke-width:1.5;"/><rect fill="none" height="172.125" style="stroke:#000000;stroke-width:1.5;" width="774" x="764" y="1309.2188"/><text fill="#000000" font-family="sans-serif" font-size="13" font-weight="bold" lengthAdjust="spacing" textLength="25" x="779" y="1322.2856">opt</text><text fill="#000000" font-family="sans-serif" font-size="11" font-weight="bold" lengthAdjust="spacing" textLength="5" x="849" y="1327.2495">[</text><text fill="#000000" font-family="sans-serif" font-size="16" font-weight="bold" lengthAdjust="spacing" textLength="197" x="854" y="1326.0703">Pushbenachrichtigung</text><text fill="#000000" font-family="sans-serif" font-size="11" font-weight="bold" lengthAdjust="spacing" textLength="5" x="1051" y="1327.2495">]</text><polygon fill="#000000" points="1179,1376.7656,1189,1380.7656,1179,1384.7656,1183,1380.7656" style="stroke:#000000;stroke-width:1.0;"/><line style="stroke:#000000;stroke-width:1.0;" x1="931.5" x2="1185" y1="1380.7656" y2="1380.7656"/><text fill="#000000" font-family="sans-serif" font-size="17" lengthAdjust="spacing" textLength="221" x="938.5" y="1374.7563">POST /_matrix/push/notify</text><polygon fill="#000000" points="1409,1410.5547,1419,1414.5547,1409,1418.5547,1413,1414.5547" style="stroke:#000000;stroke-width:1.0;"/><line style="stroke:#000000;stroke-width:1.0;" x1="1201" x2="1415" y1="1414.5547" y2="1414.5547"/><text fill="#000000" font-family="sans-serif" font-size="17" lengthAdjust="spacing" textLength="97" x="1208" y="1408.5454">Notification</text><polygon fill="#000000" points="942.5,1444.3438,932.5,1448.3438,942.5,1452.3438,938.5,1448.3438" style="stroke:#000000;stroke-width:1.0;"/><line style="stroke:#000000;stroke-width:1.0;stroke-dasharray:2.0,2.0;" x1="936.5" x2="1195" y1="1448.3438" y2="1448.3438"/><text fill="#000000" font-family="sans-serif" font-size="17" lengthAdjust="spacing" textLength="54" x="1135" y="1442.3345">Status</text><polygon fill="#000000" points="673,1535.1328,663,1539.1328,673,1543.1328,669,1539.1328" style="stroke:#000000;stroke-width:1.0;"/><line style="stroke:#000000;stroke-width:1.0;" x1="667" x2="920.5" y1="1539.1328" y2="1539.1328"/><text fill="#000000" font-family="sans-serif" font-size="17" lengthAdjust="spacing" textLength="122" x="792.5" y="1533.1235">Invite Request</text><polygon fill="#000000" points="1404,1568.9219,1414,1572.9219,1404,1576.9219,1408,1572.9219" style="stroke:#000000;stroke-width:1.0;"/><line style="stroke:#000000;stroke-width:1.0;" x1="662" x2="1410" y1="1572.9219" y2="1572.9219"/><text fill="#000000" font-family="sans-serif" font-size="17" lengthAdjust="spacing" textLength="142" x="669" y="1566.9126">HTTP(S) Forward</text><polygon fill="#000000" points="1639,1602.7109,1649,1606.7109,1639,1610.7109,1643,1606.7109" style="stroke:#000000;stroke-width:1.0;"/><line style="stroke:#000000;stroke-width:1.0;" x1="1426" x2="1645" y1="1606.7109" y2="1606.7109"/><text fill="#000000" font-family="sans-serif" font-size="17" lengthAdjust="spacing" textLength="164" x="1433" y="1600.7017">Einladung anzeigen</text><polygon fill="#000000" points="1437,1636.5,1427,1640.5,1437,1644.5,1433,1640.5" style="stroke:#000000;stroke-width:1.0;"/><line style="stroke:#000000;stroke-width:1.0;stroke-dasharray:2.0,2.0;" x1="1431" x2="1650" y1="1640.5" y2="1640.5"/><text fill="#000000" font-family="sans-serif" font-size="17" lengthAdjust="spacing" textLength="177" x="1467" y="1634.4907">Einladung best&#228;tigen</text><polygon fill="#000000" points="673,1670.2891,663,1674.2891,673,1678.2891,669,1674.2891" style="stroke:#000000;stroke-width:1.0;"/><line style="stroke:#000000;stroke-width:1.0;" x1="667" x2="1415" y1="1674.2891" y2="1674.2891"/><text fill="#000000" font-family="sans-serif" font-size="17" lengthAdjust="spacing" textLength="64" x="1345" y="1668.2798">commit</text><line style="stroke:#000000;stroke-width:1.0;" x1="662" x2="704" y1="1733.0781" y2="1733.0781"/><line style="stroke:#000000;stroke-width:1.0;" x1="704" x2="704" y1="1733.0781" y2="1746.0781"/><line style="stroke:#000000;stroke-width:1.0;" x1="663" x2="704" y1="1746.0781" y2="1746.0781"/><polygon fill="#000000" points="673,1742.0781,663,1746.0781,673,1750.0781,669,1746.0781" style="stroke:#000000;stroke-width:1.0;"/><text fill="#000000" font-family="sans-serif" font-size="17" lengthAdjust="spacing" textLength="149" x="669" y="1727.0688">TLS Terminierung</text><polygon fill="#000000" points="909.5,1775.8672,919.5,1779.8672,909.5,1783.8672,913.5,1779.8672" style="stroke:#000000;stroke-width:1.0;"/><line style="stroke:#000000;stroke-width:1.0;stroke-dasharray:2.0,2.0;" x1="662" x2="915.5" y1="1779.8672" y2="1779.8672"/><text fill="#000000" font-family="sans-serif" font-size="17" lengthAdjust="spacing" textLength="142" x="669" y="1773.8579">HTTP(S) Forward</text><line style="stroke:#000000;stroke-width:1.0;stroke-dasharray:2.0,2.0;" x1="931.5" x2="973.5" y1="1813.6563" y2="1813.6563"/><line style="stroke:#000000;stroke-width:1.0;stroke-dasharray:2.0,2.0;" x1="973.5" x2="973.5" y1="1813.6563" y2="1826.6563"/><line style="stroke:#000000;stroke-width:1.0;stroke-dasharray:2.0,2.0;" x1="932.5" x2="973.5" y1="1826.6563" y2="1826.6563"/><polygon fill="#000000" points="942.5,1822.6563,932.5,1826.6563,942.5,1830.6563,938.5,1826.6563" style="stroke:#000000;stroke-width:1.0;"/><text fill="#000000" font-family="sans-serif" font-size="17" lengthAdjust="spacing" textLength="127" x="938.5" y="1807.647">Invite ausl&#246;sen</text><polygon fill="#000000" points="673,1856.4453,663,1860.4453,673,1864.4453,669,1860.4453" style="stroke:#000000;stroke-width:1.0;"/><line style="stroke:#000000;stroke-width:1.0;stroke-dasharray:2.0,2.0;" x1="667" x2="925.5" y1="1860.4453" y2="1860.4453"/><text fill="#000000" font-family="sans-serif" font-size="17" lengthAdjust="spacing" textLength="54" x="865.5" y="1854.436">Status</text><polygon fill="#000000" points="379,1890.2344,369,1894.2344,379,1898.2344,375,1894.2344" style="stroke:#000000;stroke-width:1.0;"/><line style="stroke:#000000;stroke-width:1.0;stroke-dasharray:2.0,2.0;" x1="373" x2="651" y1="1894.2344" y2="1894.2344"/><text fill="#000000" font-family="sans-serif" font-size="17" lengthAdjust="spacing" textLength="54" x="591" y="1888.2251">Status</text><polygon fill="#000000" points="144,1943.8125,134,1947.8125,144,1951.8125,140,1947.8125" style="stroke:#000000;stroke-width:1.0;"/><line style="stroke:#000000;stroke-width:1.0;stroke-dasharray:2.0,2.0;" x1="138" x2="362" y1="1947.8125" y2="1947.8125"/><text fill="#000000" font-family="sans-serif" font-size="17" lengthAdjust="spacing" textLength="113" x="201" y="1922.0142">Nutzer in den</text><text fill="#000000" font-family="sans-serif" font-size="17" lengthAdjust="spacing" textLength="155" x="201" y="1941.8032">Raum hinzugef&#252;gt</text><polygon fill="#000000" points="1404,1977.6016,1414,1981.6016,1404,1985.6016,1408,1981.6016" style="stroke:#000000;stroke-width:1.0;"/><line style="stroke:#000000;stroke-width:1.0;stroke-dasharray:2.0,2.0;" x1="657" x2="1410" y1="1981.6016" y2="1981.6016"/><text fill="#000000" font-family="sans-serif" font-size="17" lengthAdjust="spacing" textLength="54" x="664" y="1975.5923">Status</text><polygon fill="#000000" points="1639,2031.1797,1649,2035.1797,1639,2039.1797,1643,2035.1797" style="stroke:#000000;stroke-width:1.0;"/><line style="stroke:#000000;stroke-width:1.0;stroke-dasharray:2.0,2.0;" x1="1421" x2="1645" y1="2035.1797" y2="2035.1797"/><text fill="#000000" font-family="sans-serif" font-size="17" lengthAdjust="spacing" textLength="123" x="1428" y="2009.3813">Nutzer ist dem</text><text fill="#000000" font-family="sans-serif" font-size="17" lengthAdjust="spacing" textLength="152" x="1428" y="2029.1704">Raum beigetreten</text><!--SRC=[ZLRRRXf947tdAqhsYos5O52qYQp84k0Oq1fxP62pAo55pKm1BMQwsUuUt-BypNv3dlBc7zlgxW7F1Upmmj1TTQhgrAaQz8gBDLCi0Ot_fYX27ABMR87jc2y4H5nXQBWKDRqrJBZenaphhpmoIsYTdEJkEl8-O574nGAQkUCDzWtEKTc7Fh88LOU5guMIgOYwCfOArYp6XKAaQ24zGiBk2V_39xYpeMex0E5xhQsKlFF-ivW0_S6556R47n6Q7sljq4ZLaOeYvkqk-HmlkS1NRahvzHWNUYQLhDK2fWmF-Pe9a_SVIiDlcICiRr72sMrbKxvY2S8WMRFGbAzSDQsJyd4-xpr9TIgNvNoknuE_skF1zLKj8sjluUww77TxkCbnU-3gQRCrtjT-r80-pDx0f0bCmq5xPJ1LK8SsSD8QAhYHSOnJCT7qt03xLUztsWVETVrI07Gzm7XGjt95iI33AScI8rss3-2Gv1jY9qxHkSxaFNpMbDnfyzFPYyS8rIsPVMxOgpCu_Bha1aU9N7clOiXXu4BcumLAtZySxBBjUrjc5B-lzsM2LCajrJGLHroiubJpMuIhr3owuqVauL9mVRmBA-Wvh23LotgF6RnZMKWKaIsioath5Muw1uVZBzt-rVNbTU-VV4TQnOvqVgSZjQUdfvgG1a7QuYRDTuHpIaLcN7yyE-VKVeU9e3abpD8vmTe1ZcSeeD8BOFGhmJX20oG_uBHJK7Fp24W3gU4nNQ1TFYZ8kr2YBr2_pqN_GZLqbzG4bYPmbz94G9IgS4aP2A3Bc9QGnI5eGg0U63JlCpLCXQlErIdNvl2IBvQcf_0XfwsDfluuotZJQRX4aI4uLujXloVD-bctUGeZQv5H0fsitTG2km_Gohgat2xv3ODJ2Av7OsXyIvoY6g6hjJ4LAVNZcr_IKZqqD38ghumw3Dp9CF1GuyjHVOoArZX7bOh5osN_5FhZSN0qEeOBgUwOYYfGVM_ThtlpYeIf-OvYpqJEc08F_nwSPu0HLY23kcTeLmOR5adoNdYxgDsGQjlfElisWUgaeQHCD37vtJuCeXyDBcvf2y2H_trSZGUWSEuLFmpUWGNVAcvaqZczSsY00lNyQqxivgV1IzH9dPp_b4cI2hvoBuAjwegn_8J6RyalMpJdCg553S8gUJE_5yy_wSl58FhCai2A2iqNLcW2V3XfKlOJmLApb8eSeee3iPkHFxD3Q-krGKSqbVRjjjDyOit5njmdEnMevZAcbp_VwhV00VK-rdih_jrQNyeiYJsdzQhQdOITmy1hWxh7r0pfiLfYPLkunsAxx2wdxSV2fLiwV45455jInlGf1BsoZjU4rA0DpESFETjS2K4lTnxqg5cqeA-i0m_zFv32jIzpP9X9TG4mDx0vo7oAczdSdRgTaeoz6_lVJPkyGU3pshryoZko1ULNM2Qk5ccBKFnYjzfYWjRI0lCrJbfr7-l5QaR9FFzdIeOMpIOTqfHoixyjBqiLAairDrJxTsjXdsOKiLJ7ppzr8Q7j6dszErlD5kQvuhETHB_1_GG9ciCR-wvSSc5VjFFdNmkpBr2tMGdKUZEveCYmRzWc1MtSNuCiXvbjdL5e2YmKKsZLzakH3lu7]--></g></svg>