<?xml version="1.0" encoding="UTF-8" standalone="no"?><svg xmlns="http://www.w3.org/2000/svg" xmlns:xlink="http://www.w3.org/1999/xlink" contentStyleType="text/css" height="1988px" preserveAspectRatio="none" style="width:1769px;height:1988px;background:#FFFFFF;" version="1.1" viewBox="0 0 1769 1988" width="1769px" zoomAndPan="magnify"><defs/><g><rect fill="#F5F5F5" height="1976.8047" style="stroke:#181818;stroke-width:0.5;" width="261" x="248" y="6"/><text fill="#000000" font-family="sans-serif" font-size="18" font-weight="bold" lengthAdjust="spacing" textLength="93" x="329.5" y="22.708">Endgerät</text><text fill="#000000" font-family="sans-serif" font-size="13" font-weight="bold" lengthAdjust="spacing" textLength="5" x="422.5" y="23.8872"> </text><rect fill="#F5F5F5" height="1976.8047" style="stroke:#181818;stroke-width:0.5;" width="556" x="979.5" y="6"/><text fill="#000000" font-family="sans-serif" font-size="18" font-weight="bold" lengthAdjust="spacing" textLength="200" x="1155" y="22.708">VZD-FHIR-Directory</text><text fill="#000000" font-family="sans-serif" font-size="13" font-weight="bold" lengthAdjust="spacing" textLength="5" x="1355" y="23.8872"> </text><rect fill="#DCDCDC" height="1444.6641" style="stroke:#000000;stroke-width:1.0;" width="10" x="373.5" y="353.5781"/><rect fill="#DCDCDC" height="112.0977" style="stroke:#000000;stroke-width:1.0;" width="10" x="660.5" y="399.0977"/><rect fill="#DCDCDC" height="1107.1016" style="stroke:#000000;stroke-width:1.0;" width="10" x="660.5" y="637.5625"/><rect fill="#DCDCDC" height="100.3672" style="stroke:#000000;stroke-width:1.0;" width="10" x="1060.5" y="1240.4063"/><rect fill="#DCDCDC" height="234.5234" style="stroke:#000000;stroke-width:1.0;" width="10" x="1245.5" y="1419.3516"/><rect fill="#DCDCDC" height="100.3672" style="stroke:#000000;stroke-width:1.0;" width="10" x="1444.5" y="1519.7188"/><rect fill="#DCDCDC" height="129.8594" style="stroke:#000000;stroke-width:1.0;" width="10" x="1638" y="922.3438"/><rect height="1588.7891" style="stroke:#000000;stroke-width:1.5;fill:none;" width="1753.5" x="10" y="242.4531"/><rect height="432.6406" style="stroke:#000000;stroke-width:1.5;fill:none;" width="1213.5" x="540" y="677.5625"/><rect height="537.6719" style="stroke:#000000;stroke-width:1.5;fill:none;" width="1066.5" x="540" y="1149.2031"/><line style="stroke:#000000;stroke-width:0.5;fill:none;stroke-dasharray:5.0,5.0;" x1="116" x2="116" y1="111.5625" y2="1873.2422"/><line style="stroke:#000000;stroke-width:0.5;fill:none;stroke-dasharray:5.0,5.0;" x1="378" x2="378" y1="111.5625" y2="1873.2422"/><line style="stroke:#000000;stroke-width:0.5;fill:none;stroke-dasharray:5.0,5.0;" x1="665" x2="665" y1="111.5625" y2="1873.2422"/><line style="stroke:#000000;stroke-width:0.5;fill:none;stroke-dasharray:5.0,5.0;" x1="1065.5" x2="1065.5" y1="111.5625" y2="1873.2422"/><line style="stroke:#000000;stroke-width:0.5;fill:none;stroke-dasharray:5.0,5.0;" x1="1250.5" x2="1250.5" y1="111.5625" y2="1873.2422"/><line style="stroke:#000000;stroke-width:0.5;fill:none;stroke-dasharray:5.0,5.0;" x1="1449.5" x2="1449.5" y1="111.5625" y2="1873.2422"/><line style="stroke:#000000;stroke-width:0.5;fill:none;stroke-dasharray:5.0,5.0;" x1="1642.5" x2="1642.5" y1="920.6953" y2="1873.2422"/><text fill="#000000" font-family="Aapex" font-size="20" lengthAdjust="spacing" textLength="187" x="20" y="83.5645">Akteur in der Rolle</text><text fill="#000000" font-family="Aapex" font-size="20" lengthAdjust="spacing" textLength="110" x="58.5" y="106.8457">Org-Admin</text><ellipse cx="116.5" cy="13.5" fill="#DCDCDC" rx="8" ry="8" style="stroke:#000000;stroke-width:0.5;"/><path d="M116.5,21.5 L116.5,48.5 M103.5,29.5 L129.5,29.5 M116.5,48.5 L103.5,63.5 M116.5,48.5 L129.5,63.5 " fill="none" style="stroke:#000000;stroke-width:0.5;"/><text fill="#000000" font-family="Aapex" font-size="20" lengthAdjust="spacing" textLength="187" x="20" y="1890.8066">Akteur in der Rolle</text><text fill="#000000" font-family="Aapex" font-size="20" lengthAdjust="spacing" textLength="110" x="58.5" y="1914.0879">Org-Admin</text><ellipse cx="116.5" cy="1927.3047" fill="#DCDCDC" rx="8" ry="8" style="stroke:#000000;stroke-width:0.5;"/><path d="M116.5,1935.3047 L116.5,1962.3047 M103.5,1943.3047 L129.5,1943.3047 M116.5,1962.3047 L103.5,1977.3047 M116.5,1962.3047 L129.5,1977.3047 " fill="none" style="stroke:#000000;stroke-width:0.5;"/><rect fill="#EFEFFF" height="60.5625" rx="2.5" ry="2.5" style="stroke:#000000;stroke-width:0.5;" width="253" x="252" y="50"/><text fill="#000000" font-family="Impact" font-size="20" lengthAdjust="spacing" textLength="132" x="312.5" y="75.5645">Frontend des</text><text fill="#000000" font-family="Impact" font-size="20" lengthAdjust="spacing" textLength="239" x="259" y="98.8457">Registrierungs-Dienstes</text><rect fill="#EFEFFF" height="60.5625" rx="2.5" ry="2.5" style="stroke:#000000;stroke-width:0.5;" width="253" x="252" y="1872.2422"/><text fill="#000000" font-family="Impact" font-size="20" lengthAdjust="spacing" textLength="132" x="312.5" y="1897.8066">Frontend des</text><text fill="#000000" font-family="Impact" font-size="20" lengthAdjust="spacing" textLength="239" x="259" y="1921.0879">Registrierungs-Dienstes</text><rect fill="#EFEFFF" height="37.2813" rx="2.5" ry="2.5" style="stroke:#000000;stroke-width:0.5;" width="231" x="550" y="73.2813"/><text fill="#000000" font-family="Impact" font-size="20" lengthAdjust="spacing" textLength="217" x="557" y="98.8457">Registrierungs-Dienst</text><rect fill="#EFEFFF" height="37.2813" rx="2.5" ry="2.5" style="stroke:#000000;stroke-width:0.5;" width="231" x="550" y="1872.2422"/><text fill="#000000" font-family="Impact" font-size="20" lengthAdjust="spacing" textLength="217" x="557" y="1897.8066">Registrierungs-Dienst</text><rect fill="#EFEFFF" height="37.2813" rx="2.5" ry="2.5" style="stroke:#000000;stroke-width:0.5;" width="164" x="983.5" y="73.2813"/><text fill="#000000" font-family="Impact" font-size="20" lengthAdjust="spacing" textLength="144" x="993.5" y="98.8457">OAuth-Service</text><rect fill="#EFEFFF" height="37.2813" rx="2.5" ry="2.5" style="stroke:#000000;stroke-width:0.5;" width="164" x="983.5" y="1872.2422"/><text fill="#000000" font-family="Impact" font-size="20" lengthAdjust="spacing" textLength="144" x="993.5" y="1897.8066">OAuth-Service</text><rect fill="#EFEFFF" height="37.2813" rx="2.5" ry="2.5" style="stroke:#000000;stroke-width:0.5;" width="164" x="1168.5" y="73.2813"/><text fill="#000000" font-family="Impact" font-size="20" lengthAdjust="spacing" textLength="108" x="1196.5" y="98.8457">FHIR-Proxy</text><rect fill="#EFEFFF" height="37.2813" rx="2.5" ry="2.5" style="stroke:#000000;stroke-width:0.5;" width="164" x="1168.5" y="1872.2422"/><text fill="#000000" font-family="Impact" font-size="20" lengthAdjust="spacing" textLength="108" x="1196.5" y="1897.8066">FHIR-Proxy</text><rect fill="#EFEFFF" height="37.2813" rx="2.5" ry="2.5" style="stroke:#000000;stroke-width:0.5;" width="164" x="1367.5" y="73.2813"/><text fill="#000000" font-family="Impact" font-size="20" lengthAdjust="spacing" textLength="145" x="1377" y="98.8457">FHIR-Directory</text><rect fill="#EFEFFF" height="37.2813" rx="2.5" ry="2.5" style="stroke:#000000;stroke-width:0.5;" width="164" x="1367.5" y="1872.2422"/><text fill="#000000" font-family="Impact" font-size="20" lengthAdjust="spacing" textLength="145" x="1377" y="1897.8066">FHIR-Directory</text><rect fill="#EFEFFF" height="37.2813" rx="2.5" ry="2.5" style="stroke:#000000;stroke-width:0.5;" width="201" x="1542.5" y="1872.2422"/><text fill="#000000" font-family="Impact" font-size="20" lengthAdjust="spacing" textLength="187" x="1549.5" y="1897.8066">Messenger-Service</text><rect fill="#DCDCDC" height="1444.6641" style="stroke:#000000;stroke-width:1.0;" width="10" x="373.5" y="353.5781"/><rect fill="#DCDCDC" height="112.0977" style="stroke:#000000;stroke-width:1.0;" width="10" x="660.5" y="399.0977"/><rect fill="#DCDCDC" height="1107.1016" style="stroke:#000000;stroke-width:1.0;" width="10" x="660.5" y="637.5625"/><rect fill="#DCDCDC" height="100.3672" style="stroke:#000000;stroke-width:1.0;" width="10" x="1060.5" y="1240.4063"/><rect fill="#DCDCDC" height="234.5234" style="stroke:#000000;stroke-width:1.0;" width="10" x="1245.5" y="1419.3516"/><rect fill="#DCDCDC" height="100.3672" style="stroke:#000000;stroke-width:1.0;" width="10" x="1444.5" y="1519.7188"/><rect fill="#DCDCDC" height="129.8594" style="stroke:#000000;stroke-width:1.0;" width="10" x="1638" y="922.3438"/><rect height="58.8906" style="stroke:#000000;stroke-width:1.5;fill:none;" width="767" x="17" y="146.5625"/><path d="M17,146.5625 L83,146.5625 L83,153.5625 L73,163.5625 L17,163.5625 L17,146.5625 " fill="#98FB98" style="stroke:#000000;stroke-width:2.0;"/><text fill="#000000" font-family="sans-serif" font-size="13" font-weight="bold" lengthAdjust="spacing" textLength="21" x="30" y="160.6294">ref</text><text fill="#000000" font-family="sans-serif" font-size="17" font-weight="bold" lengthAdjust="spacing" textLength="98" x="97.5" y="183.3423">AF: 10103</text><text fill="#000000" font-family="sans-serif" font-size="17" lengthAdjust="spacing" textLength="503" x="200.5" y="183.3423">- Authentisieren einer Organisation am TI-Messenger-Dienst</text><text fill="#000000" font-family="sans-serif" font-size="12" lengthAdjust="spacing" textLength="4" x="398.5" y="198.4902"> </text><path d="M10,242.4531 L87,242.4531 L87,249.5859 L77,259.5859 L10,259.5859 L10,242.4531 " fill="#EEEEEE" style="stroke:#000000;stroke-width:1.5;"/><rect fill="none" height="1588.7891" style="stroke:#000000;stroke-width:1.5;" width="1753.5" x="10" y="242.4531"/><text fill="#000000" font-family="sans-serif" font-size="13" font-weight="bold" lengthAdjust="spacing" textLength="32" x="25" y="255.52">loop</text><text fill="#000000" font-family="sans-serif" font-size="11" font-weight="bold" lengthAdjust="spacing" textLength="5" x="102" y="260.4839">[</text><text fill="#000000" font-family="sans-serif" font-size="16" font-weight="bold" lengthAdjust="spacing" textLength="34" x="107" y="259.3047">1..n</text><text fill="#000000" font-family="sans-serif" font-size="11" font-weight="bold" lengthAdjust="spacing" textLength="5" x="141" y="260.4839">]</text><polygon fill="#000000" points="361.5,349.5781,371.5,353.5781,361.5,357.5781,365.5,353.5781" style="stroke:#000000;stroke-width:1.0;"/><line style="stroke:#000000;stroke-width:1.0;" x1="116.5" x2="367.5" y1="353.5781" y2="353.5781"/><text fill="#000000" font-family="sans-serif" font-size="17" lengthAdjust="spacing" textLength="216" x="123.5" y="307.9907">Mit einem Admin-Account</text><text fill="#000000" font-family="sans-serif" font-size="17" lengthAdjust="spacing" textLength="213" x="123.5" y="327.7798">am Registrierungs-Dienst</text><text fill="#000000" font-family="sans-serif" font-size="17" lengthAdjust="spacing" textLength="84" x="123.5" y="347.5688">anmelden</text><polygon fill="#000000" points="648.5,395.0977,658.5,399.0977,648.5,403.0977,652.5,399.0977" style="stroke:#000000;stroke-width:1.0;"/><line style="stroke:#000000;stroke-width:1.0;" x1="383.5" x2="654.5" y1="399.0977" y2="399.0977"/><text fill="#000000" font-family="sans-serif" font-size="17" lengthAdjust="spacing" textLength="258" x="390.5" y="393.0884">POST /login (Client-Credential)</text><path d="M675,366.5781 L675,413.5781 L923,413.5781 L923,376.5781 L913,366.5781 L675,366.5781 " fill="#FEFFDD" style="stroke:#181818;stroke-width:0.5;"/><path d="M913,366.5781 L913,376.5781 L923,376.5781 L913,366.5781 " fill="#FEFFDD" style="stroke:#181818;stroke-width:0.5;"/><text fill="#000000" font-family="sans-serif" font-size="16" lengthAdjust="spacing" textLength="174" x="681" y="386.4297">Schnittstelle wird nicht</text><text fill="#000000" font-family="sans-serif" font-size="16" lengthAdjust="spacing" textLength="227" x="681" y="405.0547">durch die gematik spezifiziert</text><line style="stroke:#000000;stroke-width:1.0;" x1="670.5" x2="712.5" y1="464.4063" y2="464.4063"/><line style="stroke:#000000;stroke-width:1.0;" x1="712.5" x2="712.5" y1="464.4063" y2="477.4063"/><line style="stroke:#000000;stroke-width:1.0;" x1="671.5" x2="712.5" y1="477.4063" y2="477.4063"/><polygon fill="#000000" points="681.5,473.4063,671.5,477.4063,681.5,481.4063,677.5,477.4063" style="stroke:#000000;stroke-width:1.0;"/><text fill="#000000" font-family="sans-serif" font-size="17" lengthAdjust="spacing" textLength="44" x="677.5" y="438.6079">prüfe</text><text fill="#000000" font-family="sans-serif" font-size="17" lengthAdjust="spacing" textLength="143" x="677.5" y="458.397">Client-Credential</text><polygon fill="#000000" points="394.5,507.1953,384.5,511.1953,394.5,515.1953,390.5,511.1953" style="stroke:#000000;stroke-width:1.0;"/><line style="stroke:#000000;stroke-width:1.0;stroke-dasharray:2.0,2.0;" x1="388.5" x2="664.5" y1="511.1953" y2="511.1953"/><text fill="#000000" font-family="sans-serif" font-size="17" lengthAdjust="spacing" textLength="51" x="607.5" y="505.186">status</text><polygon fill="#000000" points="127.5,540.9844,117.5,544.9844,127.5,548.9844,123.5,544.9844" style="stroke:#000000;stroke-width:1.0;"/><line style="stroke:#000000;stroke-width:1.0;stroke-dasharray:2.0,2.0;" x1="121.5" x2="372.5" y1="544.9844" y2="544.9844"/><text fill="#000000" font-family="sans-serif" font-size="17" lengthAdjust="spacing" textLength="195" x="171.5" y="538.9751">Erfolgreich angemeldet</text><polygon fill="#000000" points="361.5,599.7734,371.5,603.7734,361.5,607.7734,365.5,603.7734" style="stroke:#000000;stroke-width:1.0;"/><line style="stroke:#000000;stroke-width:1.0;" x1="116.5" x2="367.5" y1="603.7734" y2="603.7734"/><text fill="#000000" font-family="sans-serif" font-size="17" lengthAdjust="spacing" textLength="233" x="123.5" y="597.7642">Messenger Service erstellen</text><polygon fill="#000000" points="648.5,633.5625,658.5,637.5625,648.5,641.5625,652.5,637.5625" style="stroke:#000000;stroke-width:1.0;"/><line style="stroke:#000000;stroke-width:1.0;" x1="383.5" x2="654.5" y1="637.5625" y2="637.5625"/><text fill="#000000" font-family="sans-serif" font-size="17" lengthAdjust="spacing" textLength="252" x="390.5" y="631.5532">POST /create (Matrix-Domain)</text><path d="M540,677.5625 L835,677.5625 L835,688.1875 L825,698.1875 L540,698.1875 L540,677.5625 " fill="#EEEEEE" style="stroke:#000000;stroke-width:1.5;"/><rect fill="none" height="432.6406" style="stroke:#000000;stroke-width:1.5;" width="1213.5" x="540" y="677.5625"/><text fill="#000000" font-family="sans-serif" font-size="16" font-weight="bold" lengthAdjust="spacing" textLength="250" x="555" y="693.4141">Messaging-Service erstellen</text><line style="stroke:#000000;stroke-width:1.0;" x1="670.5" x2="712.5" y1="748.9766" y2="748.9766"/><line style="stroke:#000000;stroke-width:1.0;" x1="712.5" x2="712.5" y1="748.9766" y2="761.9766"/><line style="stroke:#000000;stroke-width:1.0;" x1="671.5" x2="712.5" y1="761.9766" y2="761.9766"/><polygon fill="#000000" points="681.5,757.9766,671.5,761.9766,681.5,765.9766,677.5,761.9766" style="stroke:#000000;stroke-width:1.0;"/><text fill="#000000" font-family="sans-serif" font-size="17" lengthAdjust="spacing" textLength="319" x="677.5" y="742.9673">Prüfung auf zulässigen Domainnamen</text><line style="stroke:#000000;stroke-width:1.0;" x1="670.5" x2="712.5" y1="840.5547" y2="840.5547"/><line style="stroke:#000000;stroke-width:1.0;" x1="712.5" x2="712.5" y1="840.5547" y2="853.5547"/><line style="stroke:#000000;stroke-width:1.0;" x1="671.5" x2="712.5" y1="853.5547" y2="853.5547"/><polygon fill="#000000" points="681.5,849.5547,671.5,853.5547,681.5,857.5547,677.5,853.5547" style="stroke:#000000;stroke-width:1.0;"/><text fill="#000000" font-family="sans-serif" font-size="17" lengthAdjust="spacing" textLength="271" x="677.5" y="814.7563">Starte neuen Messenger-Service</text><text fill="#000000" font-family="sans-serif" font-size="17" lengthAdjust="spacing" textLength="331" x="677.5" y="834.5454">für die Organisation mit Matrix-Domain</text><polygon fill="#000000" points="1530.5,908.3438,1540.5,912.3438,1530.5,916.3438,1534.5,912.3438" style="stroke:#000000;stroke-width:1.0;"/><line style="stroke:#000000;stroke-width:1.0;stroke-dasharray:2.0,2.0;" x1="670.5" x2="1536.5" y1="912.3438" y2="912.3438"/><text fill="#000000" font-family="sans-serif" font-size="17" lengthAdjust="spacing" textLength="234" x="677.5" y="906.3345">Messenger-Service erstellen</text><rect fill="#EFEFFF" height="37.2813" rx="2.5" ry="2.5" style="stroke:#000000;stroke-width:0.5;" width="201" x="1542.5" y="886.5547"/><text fill="#000000" font-family="Impact" font-size="20" lengthAdjust="spacing" textLength="187" x="1549.5" y="912.1191">Messenger-Service</text><line style="stroke:#000000;stroke-width:1.0;" x1="1648" x2="1690" y1="1005.4141" y2="1005.4141"/><line style="stroke:#000000;stroke-width:1.0;" x1="1690" x2="1690" y1="1005.4141" y2="1018.4141"/><line style="stroke:#000000;stroke-width:1.0;" x1="1649" x2="1690" y1="1018.4141" y2="1018.4141"/><polygon fill="#000000" points="1659,1014.4141,1649,1018.4141,1659,1022.4141,1655,1018.4141" style="stroke:#000000;stroke-width:1.0;"/><text fill="#000000" font-family="sans-serif" font-size="17" lengthAdjust="spacing" textLength="48" x="1655" y="979.6157">initial</text><text fill="#000000" font-family="sans-serif" font-size="17" lengthAdjust="spacing" textLength="85" x="1655" y="999.4048">einrichten</text><polygon fill="#000000" points="681.5,1048.2031,671.5,1052.2031,681.5,1056.2031,677.5,1052.2031" style="stroke:#000000;stroke-width:1.0;"/><line style="stroke:#000000;stroke-width:1.0;stroke-dasharray:2.0,2.0;" x1="675.5" x2="1642" y1="1052.2031" y2="1052.2031"/><text fill="#000000" font-family="sans-serif" font-size="17" lengthAdjust="spacing" textLength="51" x="1585" y="1046.1938">status</text><path d="M540,1149.2031 L1015,1149.2031 L1015,1159.8281 L1005,1169.8281 L540,1169.8281 L540,1149.2031 " fill="#EEEEEE" style="stroke:#000000;stroke-width:1.5;"/><rect fill="none" height="537.6719" style="stroke:#000000;stroke-width:1.5;" width="1066.5" x="540" y="1149.2031"/><text fill="#000000" font-family="sans-serif" font-size="16" font-weight="bold" lengthAdjust="spacing" textLength="430" x="555" y="1165.0547">Messenger-Service in die Föderation aufnehmen</text><polygon fill="#000000" points="1048.5,1236.4063,1058.5,1240.4063,1048.5,1244.4063,1052.5,1240.4063" style="stroke:#000000;stroke-width:1.0;"/><line style="stroke:#000000;stroke-width:1.0;" x1="670.5" x2="1054.5" y1="1240.4063" y2="1240.4063"/><text fill="#000000" font-family="sans-serif" font-size="17" lengthAdjust="spacing" textLength="366" x="677.5" y="1214.6079">POST /authenticate (client_id, client_secret)</text><text fill="#000000" font-family="sans-serif" font-size="17" lengthAdjust="spacing" textLength="259" x="677.5" y="1234.397">(OAuth Client credentials flow)</text><line style="stroke:#000000;stroke-width:1.0;" x1="1070.5" x2="1112.5" y1="1293.9844" y2="1293.9844"/><line style="stroke:#000000;stroke-width:1.0;" x1="1112.5" x2="1112.5" y1="1293.9844" y2="1306.9844"/><line style="stroke:#000000;stroke-width:1.0;" x1="1071.5" x2="1112.5" y1="1306.9844" y2="1306.9844"/><polygon fill="#000000" points="1081.5,1302.9844,1071.5,1306.9844,1081.5,1310.9844,1077.5,1306.9844" style="stroke:#000000;stroke-width:1.0;"/><text fill="#000000" font-family="sans-serif" font-size="17" lengthAdjust="spacing" textLength="156" x="1077.5" y="1268.186">prüfe client_id und</text><text fill="#000000" font-family="sans-serif" font-size="17" lengthAdjust="spacing" textLength="105" x="1077.5" y="1287.9751">client_secret</text><polygon fill="#000000" points="681.5,1336.7734,671.5,1340.7734,681.5,1344.7734,677.5,1340.7734" style="stroke:#000000;stroke-width:1.0;"/><line style="stroke:#000000;stroke-width:1.0;stroke-dasharray:2.0,2.0;" x1="675.5" x2="1064.5" y1="1340.7734" y2="1340.7734"/><text fill="#000000" font-family="sans-serif" font-size="17" lengthAdjust="spacing" textLength="175" x="883.5" y="1334.7642">provider-accesstoken</text><polygon fill="#000000" points="1233.5,1415.3516,1243.5,1419.3516,1233.5,1423.3516,1237.5,1419.3516" style="stroke:#000000;stroke-width:1.0;"/><line style="stroke:#000000;stroke-width:1.0;" x1="670.5" x2="1239.5" y1="1419.3516" y2="1419.3516"/><text fill="#000000" font-family="sans-serif" font-size="17" lengthAdjust="spacing" textLength="437" x="677.5" y="1393.5532">POST /tim-provider-services/addTiMessengerDomain</text><text fill="#000000" font-family="sans-serif" font-size="17" lengthAdjust="spacing" textLength="548" x="677.5" y="1413.3423">(provider-accesstoken, Matrix-Domain, TelematikID, isEnsurance)</text><line style="stroke:#000000;stroke-width:1.0;" x1="1255.5" x2="1297.5" y1="1472.9297" y2="1472.9297"/><line style="stroke:#000000;stroke-width:1.0;" x1="1297.5" x2="1297.5" y1="1472.9297" y2="1485.9297"/><line style="stroke:#000000;stroke-width:1.0;" x1="1256.5" x2="1297.5" y1="1485.9297" y2="1485.9297"/><polygon fill="#000000" points="1266.5,1481.9297,1256.5,1485.9297,1266.5,1489.9297,1262.5,1485.9297" style="stroke:#000000;stroke-width:1.0;"/><text fill="#000000" font-family="sans-serif" font-size="17" lengthAdjust="spacing" textLength="44" x="1262.5" y="1447.1313">prüfe</text><text fill="#000000" font-family="sans-serif" font-size="17" lengthAdjust="spacing" textLength="175" x="1262.5" y="1466.9204">provider-accesstoken</text><polygon fill="#000000" points="1432.5,1515.7188,1442.5,1519.7188,1432.5,1523.7188,1436.5,1519.7188" style="stroke:#000000;stroke-width:1.0;"/><line style="stroke:#000000;stroke-width:1.0;" x1="1255.5" x2="1438.5" y1="1519.7188" y2="1519.7188"/><text fill="#000000" font-family="sans-serif" font-size="17" lengthAdjust="spacing" textLength="128" x="1262.5" y="1513.7095">HTTPS Forward</text><line style="stroke:#000000;stroke-width:1.0;stroke-dasharray:2.0,2.0;" x1="1454.5" x2="1496.5" y1="1573.2969" y2="1573.2969"/><line style="stroke:#000000;stroke-width:1.0;stroke-dasharray:2.0,2.0;" x1="1496.5" x2="1496.5" y1="1573.2969" y2="1586.2969"/><line style="stroke:#000000;stroke-width:1.0;stroke-dasharray:2.0,2.0;" x1="1455.5" x2="1496.5" y1="1586.2969" y2="1586.2969"/><polygon fill="#000000" points="1465.5,1582.2969,1455.5,1586.2969,1465.5,1590.2969,1461.5,1586.2969" style="stroke:#000000;stroke-width:1.0;"/><text fill="#000000" font-family="sans-serif" font-size="17" lengthAdjust="spacing" textLength="133" x="1461.5" y="1547.4985">Föderationsliste</text><text fill="#000000" font-family="sans-serif" font-size="17" lengthAdjust="spacing" textLength="109" x="1461.5" y="1567.2876">aktualisieren</text><polygon fill="#000000" points="1266.5,1616.0859,1256.5,1620.0859,1266.5,1624.0859,1262.5,1620.0859" style="stroke:#000000;stroke-width:1.0;"/><line style="stroke:#000000;stroke-width:1.0;stroke-dasharray:2.0,2.0;" x1="1260.5" x2="1448.5" y1="1620.0859" y2="1620.0859"/><text fill="#000000" font-family="sans-serif" font-size="17" lengthAdjust="spacing" textLength="51" x="1391.5" y="1614.0767">status</text><polygon fill="#000000" points="681.5,1649.875,671.5,1653.875,681.5,1657.875,677.5,1653.875" style="stroke:#000000;stroke-width:1.0;"/><line style="stroke:#000000;stroke-width:1.0;stroke-dasharray:2.0,2.0;" x1="675.5" x2="1249.5" y1="1653.875" y2="1653.875"/><text fill="#000000" font-family="sans-serif" font-size="17" lengthAdjust="spacing" textLength="128" x="1115.5" y="1647.8657">HTTPS Forward</text><polygon fill="#000000" points="394.5,1740.6641,384.5,1744.6641,394.5,1748.6641,390.5,1744.6641" style="stroke:#000000;stroke-width:1.0;"/><line style="stroke:#000000;stroke-width:1.0;" x1="388.5" x2="664.5" y1="1744.6641" y2="1744.6641"/><text fill="#000000" font-family="sans-serif" font-size="17" lengthAdjust="spacing" textLength="51" x="607.5" y="1738.6548">status</text><polygon fill="#000000" points="127.5,1794.2422,117.5,1798.2422,127.5,1802.2422,123.5,1798.2422" style="stroke:#000000;stroke-width:1.0;"/><line style="stroke:#000000;stroke-width:1.0;" x1="121.5" x2="377.5" y1="1798.2422" y2="1798.2422"/><text fill="#000000" font-family="sans-serif" font-size="17" lengthAdjust="spacing" textLength="155" x="211.5" y="1772.4438">Messenger Service</text><text fill="#000000" font-family="sans-serif" font-size="17" lengthAdjust="spacing" textLength="153" x="211.5" y="1792.2329">erfolgreich erstellt</text><!--MD5=[13b9801148697cb914f42b8abeee6c25]
@startuml
skinparam sequenceMessageAlign direction
skinparam WrapWidth 300
skinparam minClassWidth 150
skinparam BoxPadding 1
skinparam sequenceReferenceHeaderBackgroundColor palegreen
scale max 2048 width

skinparam sequence {
ArrowColor black
ArrowFontSize 17
ActorBorderColor black
LifeLineBorderColor black
LifeLineBackgroundColor Gainsboro

ParticipantBorderColor Motivation
ParticipantBackgroundColor Motivation
ParticipantFontName Impact
ParticipantFontSize 20
ParticipantFontColor black
ParticipantBorderColor Black
ParticipantBackgroundColor MOTIVATION

ActorBackgroundColor Gainsboro
ActorFontColor black
ActorFontSize 20
ActorFontName Aapex
}
    actor U as "Akteur in der Rolle\nOrg-Admin"
    box <size:18>Endgerät</size> #WhiteSmoke
      participant C as "Frontend des\nRegistrierungs-Dienstes"
    end box
    participant R as "Registrierungs-Dienst"
    box <size:18>VZD-FHIR-Directory</size> #WhiteSmoke
    participant Auth as "OAuth-Service"
    participant FP as "FHIR-Proxy"
    participant VZD as "FHIR-Directory"
    end box

|||
ref over U, R: <size:17>**AF: 10103** - Authentisieren einer Organisation am TI-Messenger-Dienst</size>\n 
|||

loop <size:16>1..n</size>
  |||
  U->C: Mit einem Admin-Account \nam Registrierungs-Dienst \nanmelden
    Activate C
  C->R: POST /login (Client-Credential)
  note right: <size:16>Schnittstelle wird nicht \n<size:16>durch die gematik spezifiziert</size>
    Activate R
  R->R: prüfe \nClient-Credential
  R- ->C: status
    Deactivate R
  C- ->U: Erfolgreich angemeldet
  |||
  U->C: Messenger Service erstellen
  C->R: POST /create (Matrix-Domain)
    Activate R
    
    |||
    group <size:16>Messaging-Service erstellen</size>
    |||
      R->R: Prüfung auf zulässigen Domainnamen
      |||
      R->R: Starte neuen Messenger-Service \nfür die Organisation mit Matrix-Domain
      |||
        create "Messenger-Service"
          R- ->"Messenger-Service" : Messenger-Service erstellen 
        Activate "Messenger-Service"
      |||
      "Messenger-Service"->"Messenger-Service": initial \neinrichten
      "Messenger-Service"- ->R: status
      |||
        Deactivate "Messenger-Service"
    |||
    end
    
    |||
    
    group <size:16>Messenger-Service in die Föderation aufnehmen</size>
    |||
      R->Auth: POST /authenticate (client_id, client_secret) \n(OAuth Client credentials flow)
        Activate Auth
      Auth->Auth: prüfe client_id und \nclient_secret
      Auth- ->R: provider-accesstoken
        Deactivate Auth
      |||
      R->FP: POST /tim-provider-services/addTiMessengerDomain \n(provider-accesstoken, Matrix-Domain, TelematikID, isEnsurance)
        Activate FP
      FP->FP: prüfe \nprovider-accesstoken
      FP->VZD: HTTPS Forward
        Activate VZD
      VZD- ->VZD: Föderationsliste\naktualisieren
      VZD- ->FP: status
        Deactivate VZD
      FP- ->R: HTTPS Forward
        Deactivate FP

    |||
    end

  |||
  R->C: status
    Deactivate R
  C->U: Messenger Service \nerfolgreich erstellt
    Deactivate C
  |||
end
|||
@enduml

PlantUML version 1.2022.5(Sat Apr 30 10:55:52 UTC 2022)
(GPL source distribution)
Java Runtime: OpenJDK Runtime Environment
JVM: OpenJDK 64-Bit Server VM
Default Encoding: UTF-8
Language: en
Country: null
--></g></svg>