<?xml version="1.0" encoding="UTF-8" standalone="no"?><svg xmlns="http://www.w3.org/2000/svg" xmlns:xlink="http://www.w3.org/1999/xlink" contentStyleType="text/css" height="1433px" preserveAspectRatio="none" style="width:1699px;height:1433px;background:#FFFFFF;" version="1.1" viewBox="0 0 1699 1433" width="1699px" zoomAndPan="magnify"><defs/><g><rect fill="#F5F5F5" height="1421.2891" style="stroke:#181818;stroke-width:0.5;" width="761" x="477" y="6"/><text fill="#000000" font-family="sans-serif" font-size="18" font-weight="bold" lengthAdjust="spacing" textLength="193" x="758.5" y="22.708">Messenger-Service</text><text fill="#000000" font-family="sans-serif" font-size="13" font-weight="bold" lengthAdjust="spacing" textLength="5" x="951.5" y="23.8872"> </text><rect fill="#F0F8FF" height="890.2969" style="stroke:#000000;stroke-width:1.0;" width="10" x="358" y="291.8516"/><rect fill="#DCDCDC" height="890.2969" style="stroke:#000000;stroke-width:1.0;" width="10" x="583" y="325.6406"/><rect fill="#DCDCDC" height="476.8594" style="stroke:#000000;stroke-width:1.0;" width="10" x="852.5" y="637.7109"/><rect fill="#DCDCDC" height="67.5781" style="stroke:#000000;stroke-width:1.0;" width="10" x="1122" y="771.0469"/><rect fill="#C9FFC9" height="261.5234" style="stroke:#000000;stroke-width:1.0;" width="10" x="1347" y="988.2031"/><rect fill="#FFE4E1" height="147.7031" style="stroke:#000000;stroke-width:1.5;" width="695" x="10" y="432.2188"/><rect height="147.125" style="stroke:#000000;stroke-width:1.5;fill:none;" width="774" x="695" y="724.5"/><line style="stroke:#000000;stroke-width:0.5;fill:none;stroke-dasharray:5.0,5.0;" x1="133" x2="133" y1="111.5625" y2="1317.7266"/><line style="stroke:#000000;stroke-width:0.5;fill:none;stroke-dasharray:5.0,5.0;" x1="363" x2="363" y1="111.5625" y2="1317.7266"/><line style="stroke:#000000;stroke-width:0.5;fill:none;stroke-dasharray:5.0,5.0;" x1="588" x2="588" y1="111.5625" y2="1317.7266"/><line style="stroke:#000000;stroke-width:0.5;fill:none;stroke-dasharray:5.0,5.0;" x1="857" x2="857" y1="111.5625" y2="1317.7266"/><line style="stroke:#000000;stroke-width:0.5;fill:none;stroke-dasharray:5.0,5.0;" x1="1127" x2="1127" y1="111.5625" y2="1317.7266"/><line style="stroke:#000000;stroke-width:0.5;fill:none;stroke-dasharray:5.0,5.0;" x1="1352" x2="1352" y1="111.5625" y2="1317.7266"/><line style="stroke:#000000;stroke-width:0.5;fill:none;stroke-dasharray:5.0,5.0;" x1="1582" x2="1582" y1="111.5625" y2="1317.7266"/><text fill="#000000" font-family="Aapex" font-size="20" lengthAdjust="spacing" textLength="220" x="20" y="83.5645">Akteur - A in der Rolle</text><text fill="#000000" font-family="Aapex" font-size="20" lengthAdjust="spacing" textLength="159" x="50.5" y="106.8457">User / User-HBA</text><ellipse cx="133" cy="13.5" fill="#DCDCDC" rx="8" ry="8" style="stroke:#000000;stroke-width:0.5;"/><path d="M133,21.5 L133,48.5 M120,29.5 L146,29.5 M133,48.5 L120,63.5 M133,48.5 L146,63.5 " fill="none" style="stroke:#000000;stroke-width:0.5;"/><text fill="#000000" font-family="Aapex" font-size="20" lengthAdjust="spacing" textLength="220" x="20" y="1335.291">Akteur - A in der Rolle</text><text fill="#000000" font-family="Aapex" font-size="20" lengthAdjust="spacing" textLength="159" x="50.5" y="1358.5723">User / User-HBA</text><ellipse cx="133" cy="1371.7891" fill="#DCDCDC" rx="8" ry="8" style="stroke:#000000;stroke-width:0.5;"/><path d="M133,1379.7891 L133,1406.7891 M120,1387.7891 L146,1387.7891 M133,1406.7891 L120,1421.7891 M133,1406.7891 L146,1421.7891 " fill="none" style="stroke:#000000;stroke-width:0.5;"/><rect fill="#F0F8FF" height="60.5625" rx="2.5" ry="2.5" style="stroke:#000000;stroke-width:0.5;" width="214" x="256" y="50"/><text fill="#000000" font-family="Impact" font-size="20" lengthAdjust="spacing" textLength="139" x="293.5" y="75.5645">TI-Messenger-</text><text fill="#000000" font-family="Impact" font-size="20" lengthAdjust="spacing" textLength="79" x="323.5" y="98.8457">Client A</text><rect fill="#F0F8FF" height="60.5625" rx="2.5" ry="2.5" style="stroke:#000000;stroke-width:0.5;" width="214" x="256" y="1316.7266"/><text fill="#000000" font-family="Impact" font-size="20" lengthAdjust="spacing" textLength="139" x="293.5" y="1342.291">TI-Messenger-</text><text fill="#000000" font-family="Impact" font-size="20" lengthAdjust="spacing" textLength="79" x="323.5" y="1365.5723">Client A</text><rect fill="#EFEFFF" height="60.5625" rx="2.5" ry="2.5" style="stroke:#000000;stroke-width:0.5;" width="214" x="481" y="50"/><text fill="#000000" font-family="Impact" font-size="20" lengthAdjust="spacing" textLength="114" x="531" y="75.5645">Messenger-</text><text fill="#000000" font-family="Impact" font-size="20" lengthAdjust="spacing" textLength="54" x="561" y="98.8457">Proxy</text><rect fill="#EFEFFF" height="60.5625" rx="2.5" ry="2.5" style="stroke:#000000;stroke-width:0.5;" width="214" x="481" y="1316.7266"/><text fill="#000000" font-family="Impact" font-size="20" lengthAdjust="spacing" textLength="114" x="531" y="1342.291">Messenger-</text><text fill="#000000" font-family="Impact" font-size="20" lengthAdjust="spacing" textLength="54" x="561" y="1365.5723">Proxy</text><rect fill="#EFEFFF" height="60.5625" rx="2.5" ry="2.5" style="stroke:#000000;stroke-width:0.5;" width="305" x="705" y="50"/><text fill="#000000" font-family="Impact" font-size="20" lengthAdjust="spacing" textLength="189" x="760" y="75.5645">Matrix-Homeserver</text><text fill="#000000" font-family="Impact" font-size="20" lengthAdjust="spacing" textLength="291" x="712" y="98.8457">(inklusive Nutzerverzeichnis)</text><rect fill="#EFEFFF" height="60.5625" rx="2.5" ry="2.5" style="stroke:#000000;stroke-width:0.5;" width="305" x="705" y="1316.7266"/><text fill="#000000" font-family="Impact" font-size="20" lengthAdjust="spacing" textLength="189" x="760" y="1342.291">Matrix-Homeserver</text><text fill="#000000" font-family="Impact" font-size="20" lengthAdjust="spacing" textLength="291" x="712" y="1365.5723">(inklusive Nutzerverzeichnis)</text><rect fill="#EFEFFF" height="37.2813" rx="2.5" ry="2.5" style="stroke:#000000;stroke-width:0.5;" width="214" x="1020" y="73.2813"/><text fill="#000000" font-family="Impact" font-size="20" lengthAdjust="spacing" textLength="143" x="1055.5" y="98.8457">Push-Gateway</text><rect fill="#EFEFFF" height="37.2813" rx="2.5" ry="2.5" style="stroke:#000000;stroke-width:0.5;" width="214" x="1020" y="1316.7266"/><text fill="#000000" font-family="Impact" font-size="20" lengthAdjust="spacing" textLength="143" x="1055.5" y="1342.291">Push-Gateway</text><rect fill="#C9FFC9" height="60.5625" rx="2.5" ry="2.5" style="stroke:#000000;stroke-width:0.5;" width="214" x="1245" y="50"/><text fill="#000000" font-family="Impact" font-size="20" lengthAdjust="spacing" textLength="139" x="1282.5" y="75.5645">TI-Messenger-</text><text fill="#000000" font-family="Impact" font-size="20" lengthAdjust="spacing" textLength="79" x="1312.5" y="98.8457">Client B</text><rect fill="#C9FFC9" height="60.5625" rx="2.5" ry="2.5" style="stroke:#000000;stroke-width:0.5;" width="214" x="1245" y="1316.7266"/><text fill="#000000" font-family="Impact" font-size="20" lengthAdjust="spacing" textLength="139" x="1282.5" y="1342.291">TI-Messenger-</text><text fill="#000000" font-family="Impact" font-size="20" lengthAdjust="spacing" textLength="79" x="1312.5" y="1365.5723">Client B</text><text fill="#000000" font-family="Aapex" font-size="20" lengthAdjust="spacing" textLength="220" x="1469" y="83.5645">Akteur - B in der Rolle</text><text fill="#000000" font-family="Aapex" font-size="20" lengthAdjust="spacing" textLength="159" x="1499.5" y="106.8457">User / User-HBA</text><ellipse cx="1582" cy="13.5" fill="#DCDCDC" rx="8" ry="8" style="stroke:#000000;stroke-width:0.5;"/><path d="M1582,21.5 L1582,48.5 M1569,29.5 L1595,29.5 M1582,48.5 L1569,63.5 M1582,48.5 L1595,63.5 " fill="none" style="stroke:#000000;stroke-width:0.5;"/><text fill="#000000" font-family="Aapex" font-size="20" lengthAdjust="spacing" textLength="220" x="1469" y="1335.291">Akteur - B in der Rolle</text><text fill="#000000" font-family="Aapex" font-size="20" lengthAdjust="spacing" textLength="159" x="1499.5" y="1358.5723">User / User-HBA</text><ellipse cx="1582" cy="1371.7891" fill="#DCDCDC" rx="8" ry="8" style="stroke:#000000;stroke-width:0.5;"/><path d="M1582,1379.7891 L1582,1406.7891 M1569,1387.7891 L1595,1387.7891 M1582,1406.7891 L1569,1421.7891 M1582,1406.7891 L1595,1421.7891 " fill="none" style="stroke:#000000;stroke-width:0.5;"/><rect fill="#F0F8FF" height="890.2969" style="stroke:#000000;stroke-width:1.0;" width="10" x="358" y="291.8516"/><rect fill="#DCDCDC" height="890.2969" style="stroke:#000000;stroke-width:1.0;" width="10" x="583" y="325.6406"/><rect fill="#DCDCDC" height="476.8594" style="stroke:#000000;stroke-width:1.0;" width="10" x="852.5" y="637.7109"/><rect fill="#DCDCDC" height="67.5781" style="stroke:#000000;stroke-width:1.0;" width="10" x="1122" y="771.0469"/><rect fill="#C9FFC9" height="261.5234" style="stroke:#000000;stroke-width:1.0;" width="10" x="1347" y="988.2031"/><path d="M22,151.5625 L22,215.5625 L1692,215.5625 L1692,161.5625 L1682,151.5625 L22,151.5625 " fill="#FEFFDD" style="stroke:#181818;stroke-width:0.5;"/><path d="M1682,151.5625 L1682,161.5625 L1692,161.5625 L1682,151.5625 " fill="#FEFFDD" style="stroke:#181818;stroke-width:0.5;"/><text fill="#000000" font-family="sans-serif" font-size="13" lengthAdjust="spacing" textLength="4" x="351.5" y="168.6294"> </text><text fill="#000000" font-family="sans-serif" font-size="17" lengthAdjust="spacing" textLength="1002" x="351.5" y="187.4751">Die Akteure sind auf dem selben Messenger-Service angemeldet und im Besitz eines zugelassenen TI-Messenger-Clients</text><text fill="#000000" font-family="sans-serif" font-size="17" lengthAdjust="spacing" textLength="575" x="351.5" y="207.2642">Ebenfalls sind beide Akteure einem gemeinsamen Raum beigetreten</text><polygon fill="#000000" points="346,287.8516,356,291.8516,346,295.8516,350,291.8516" style="stroke:#000000;stroke-width:1.0;"/><line style="stroke:#000000;stroke-width:1.0;" x1="133" x2="352" y1="291.8516" y2="291.8516"/><text fill="#000000" font-family="sans-serif" font-size="17" lengthAdjust="spacing" textLength="91" x="140" y="266.0532">Akteur löst</text><text fill="#000000" font-family="sans-serif" font-size="17" lengthAdjust="spacing" textLength="143" x="140" y="285.8423">Matrix-Event aus</text><polygon fill="#000000" points="571,321.6406,581,325.6406,571,329.6406,575,325.6406" style="stroke:#000000;stroke-width:1.0;"/><line style="stroke:#000000;stroke-width:1.0;" x1="368" x2="577" y1="325.6406" y2="325.6406"/><text fill="#000000" font-family="sans-serif" font-size="17" lengthAdjust="spacing" textLength="128" x="375" y="319.6313">Matrix-Request</text><line style="stroke:#000000;stroke-width:1.0;" x1="593" x2="635" y1="379.2188" y2="379.2188"/><line style="stroke:#000000;stroke-width:1.0;" x1="635" x2="635" y1="379.2188" y2="392.2188"/><line style="stroke:#000000;stroke-width:1.0;" x1="594" x2="635" y1="392.2188" y2="392.2188"/><polygon fill="#000000" points="604,388.2188,594,392.2188,604,396.2188,600,392.2188" style="stroke:#000000;stroke-width:1.0;"/><text fill="#000000" font-family="sans-serif" font-size="17" lengthAdjust="spacing" textLength="180" x="600" y="353.4204">Domainzugehörigkeit</text><text fill="#000000" font-family="sans-serif" font-size="17" lengthAdjust="spacing" textLength="55" x="600" y="373.2095">prüfen</text><path d="M10,432.2188 L80,432.2188 L80,439.3516 L70,449.3516 L10,449.3516 L10,432.2188 " fill="#D3D3D3" style="stroke:#000000;stroke-width:1.5;"/><rect fill="none" height="147.7031" style="stroke:#000000;stroke-width:1.5;" width="695" x="10" y="432.2188"/><text fill="#000000" font-family="sans-serif" font-size="13" font-weight="bold" lengthAdjust="spacing" textLength="25" x="25" y="445.2856">opt</text><text fill="#000000" font-family="sans-serif" font-size="11" font-weight="bold" lengthAdjust="spacing" textLength="5" x="95" y="450.2495">[</text><text fill="#000000" font-family="sans-serif" font-size="16" font-weight="bold" lengthAdjust="spacing" textLength="74" x="100" y="449.0703">Abbruch</text><text fill="#000000" font-family="sans-serif" font-size="11" font-weight="bold" lengthAdjust="spacing" textLength="5" x="174" y="450.2495">]</text><polygon fill="#000000" points="379,514.3438,369,518.3438,379,522.3438,375,518.3438" style="stroke:#000000;stroke-width:1.0;"/><line style="stroke:#000000;stroke-width:1.0;stroke-dasharray:2.0,2.0;" x1="373" x2="582" y1="518.3438" y2="518.3438"/><text fill="#000000" font-family="sans-serif" font-size="17" lengthAdjust="spacing" textLength="145" x="414" y="472.7563">Domain nicht auf</text><text fill="#000000" font-family="sans-serif" font-size="17" lengthAdjust="spacing" textLength="112" x="414" y="492.5454">dem gleichen</text><text fill="#000000" font-family="sans-serif" font-size="17" lengthAdjust="spacing" textLength="162" x="414" y="512.3345">Matrix-Homeserver</text><polygon fill="#000000" points="144,567.9219,134,571.9219,144,575.9219,140,571.9219" style="stroke:#000000;stroke-width:1.0;"/><line style="stroke:#000000;stroke-width:1.0;stroke-dasharray:2.0,2.0;" x1="138" x2="357" y1="571.9219" y2="571.9219"/><text fill="#000000" font-family="sans-serif" font-size="17" lengthAdjust="spacing" textLength="160" x="186" y="546.1235">Event konnte nicht</text><text fill="#000000" font-family="sans-serif" font-size="17" lengthAdjust="spacing" textLength="161" x="186" y="565.9126">verarbeitet werden</text><polygon fill="#000000" points="840.5,633.7109,850.5,637.7109,840.5,641.7109,844.5,637.7109" style="stroke:#000000;stroke-width:1.0;"/><line style="stroke:#000000;stroke-width:1.0;" x1="593" x2="846.5" y1="637.7109" y2="637.7109"/><text fill="#000000" font-family="sans-serif" font-size="17" lengthAdjust="spacing" textLength="110" x="600" y="631.7017">HTTP Foward</text><line style="stroke:#000000;stroke-width:1.0;" x1="862.5" x2="904.5" y1="671.5" y2="671.5"/><line style="stroke:#000000;stroke-width:1.0;" x1="904.5" x2="904.5" y1="671.5" y2="684.5"/><line style="stroke:#000000;stroke-width:1.0;" x1="863.5" x2="904.5" y1="684.5" y2="684.5"/><polygon fill="#000000" points="873.5,680.5,863.5,684.5,873.5,688.5,869.5,684.5" style="stroke:#000000;stroke-width:1.0;"/><text fill="#000000" font-family="sans-serif" font-size="17" lengthAdjust="spacing" textLength="151" x="869.5" y="665.4907">Event verarbeiten</text><path d="M695,724.5 L765,724.5 L765,731.6328 L755,741.6328 L695,741.6328 L695,724.5 " fill="#EEEEEE" style="stroke:#000000;stroke-width:1.5;"/><rect fill="none" height="147.125" style="stroke:#000000;stroke-width:1.5;" width="774" x="695" y="724.5"/><text fill="#000000" font-family="sans-serif" font-size="13" font-weight="bold" lengthAdjust="spacing" textLength="25" x="710" y="737.5669">opt</text><text fill="#000000" font-family="sans-serif" font-size="11" font-weight="bold" lengthAdjust="spacing" textLength="5" x="780" y="742.5308">[</text><text fill="#000000" font-family="sans-serif" font-size="16" font-weight="bold" lengthAdjust="spacing" textLength="43" x="785" y="741.3516">push</text><text fill="#000000" font-family="sans-serif" font-size="11" font-weight="bold" lengthAdjust="spacing" textLength="5" x="828" y="742.5308">]</text><polygon fill="#000000" points="1110,767.0469,1120,771.0469,1110,775.0469,1114,771.0469" style="stroke:#000000;stroke-width:1.0;"/><line style="stroke:#000000;stroke-width:1.0;" x1="862.5" x2="1116" y1="771.0469" y2="771.0469"/><text fill="#000000" font-family="sans-serif" font-size="17" lengthAdjust="spacing" textLength="97" x="869.5" y="765.0376">Notification</text><polygon fill="#000000" points="1340,800.8359,1350,804.8359,1340,808.8359,1344,804.8359" style="stroke:#000000;stroke-width:1.0;"/><line style="stroke:#000000;stroke-width:1.0;" x1="1132" x2="1346" y1="804.8359" y2="804.8359"/><text fill="#000000" font-family="sans-serif" font-size="17" lengthAdjust="spacing" textLength="97" x="1139" y="798.8267">Notification</text><polygon fill="#000000" points="873.5,834.625,863.5,838.625,873.5,842.625,869.5,838.625" style="stroke:#000000;stroke-width:1.0;"/><line style="stroke:#000000;stroke-width:1.0;stroke-dasharray:2.0,2.0;" x1="867.5" x2="1126" y1="838.625" y2="838.625"/><text fill="#000000" font-family="sans-serif" font-size="17" lengthAdjust="spacing" textLength="54" x="1066" y="832.6157">Status</text><polygon fill="#000000" points="604,925.4141,594,929.4141,604,933.4141,600,929.4141" style="stroke:#000000;stroke-width:1.0;"/><line style="stroke:#000000;stroke-width:1.0;" x1="598" x2="851.5" y1="929.4141" y2="929.4141"/><text fill="#000000" font-family="sans-serif" font-size="17" lengthAdjust="spacing" textLength="128" x="717.5" y="923.4048">Matrix-Request</text><polygon fill="#000000" points="1335,984.2031,1345,988.2031,1335,992.2031,1339,988.2031" style="stroke:#000000;stroke-width:1.0;"/><line style="stroke:#000000;stroke-width:1.0;" x1="593" x2="1341" y1="988.2031" y2="988.2031"/><text fill="#000000" font-family="sans-serif" font-size="17" lengthAdjust="spacing" textLength="117" x="600" y="982.1938">HTTP Forward</text><polygon fill="#000000" points="604,1017.9922,594,1021.9922,604,1025.9922,600,1021.9922" style="stroke:#000000;stroke-width:1.0;"/><line style="stroke:#000000;stroke-width:1.0;stroke-dasharray:2.0,2.0;" x1="598" x2="1346" y1="1021.9922" y2="1021.9922"/><text fill="#000000" font-family="sans-serif" font-size="17" lengthAdjust="spacing" textLength="54" x="1286" y="1015.9829">Status</text><polygon fill="#000000" points="840.5,1076.7813,850.5,1080.7813,840.5,1084.7813,844.5,1080.7813" style="stroke:#000000;stroke-width:1.0;"/><line style="stroke:#000000;stroke-width:1.0;stroke-dasharray:2.0,2.0;" x1="593" x2="846.5" y1="1080.7813" y2="1080.7813"/><text fill="#000000" font-family="sans-serif" font-size="17" lengthAdjust="spacing" textLength="190" x="600" y="1074.772">HTTP Forward (Status)</text><polygon fill="#000000" points="604,1110.5703,594,1114.5703,604,1118.5703,600,1114.5703" style="stroke:#000000;stroke-width:1.0;"/><line style="stroke:#000000;stroke-width:1.0;" x1="598" x2="856.5" y1="1114.5703" y2="1114.5703"/><text fill="#000000" font-family="sans-serif" font-size="17" lengthAdjust="spacing" textLength="201" x="649.5" y="1108.561">Status (Matrix-Request)</text><polygon fill="#000000" points="379,1144.3594,369,1148.3594,379,1152.3594,375,1148.3594" style="stroke:#000000;stroke-width:1.0;"/><line style="stroke:#000000;stroke-width:1.0;stroke-dasharray:2.0,2.0;" x1="373" x2="582" y1="1148.3594" y2="1148.3594"/><text fill="#000000" font-family="sans-serif" font-size="17" lengthAdjust="spacing" textLength="117" x="459" y="1142.3501">HTTP Forward</text><polygon fill="#000000" points="144,1178.1484,134,1182.1484,144,1186.1484,140,1182.1484" style="stroke:#000000;stroke-width:1.0;"/><line style="stroke:#000000;stroke-width:1.0;stroke-dasharray:2.0,2.0;" x1="138" x2="362" y1="1182.1484" y2="1182.1484"/><text fill="#000000" font-family="sans-serif" font-size="17" lengthAdjust="spacing" textLength="54" x="302" y="1176.1392">Status</text><polygon fill="#000000" points="1335,1211.9375,1345,1215.9375,1335,1219.9375,1339,1215.9375" style="stroke:#000000;stroke-width:1.0;"/><line style="stroke:#000000;stroke-width:1.0;stroke-dasharray:2.0,2.0;" x1="588" x2="1341" y1="1215.9375" y2="1215.9375"/><text fill="#000000" font-family="sans-serif" font-size="17" lengthAdjust="spacing" textLength="117" x="595" y="1209.9282">HTTP Forward</text><polygon fill="#000000" points="1570,1245.7266,1580,1249.7266,1570,1253.7266,1574,1249.7266" style="stroke:#000000;stroke-width:1.0;"/><line style="stroke:#000000;stroke-width:1.0;stroke-dasharray:2.0,2.0;" x1="1352" x2="1576" y1="1249.7266" y2="1249.7266"/><text fill="#000000" font-family="sans-serif" font-size="17" lengthAdjust="spacing" textLength="54" x="1359" y="1243.7173">Status</text><!--MD5=[05211f8e6f40ef05c4c7e0ba530bdd1d]
@startuml
skinparam sequenceMessageAlign direction
skinparam minClassWidth 200
skinparam BoxPadding 1
skinparam sequenceReferenceHeaderBackgroundColor palegreen
scale max 2048 width

skinparam sequence {
ArrowColor black
ArrowFontSize 17
ActorBorderColor black
LifeLineBorderColor black
LifeLineBackgroundColor Gainsboro

ParticipantBorderColor Motivation
ParticipantBackgroundColor Motivation
ParticipantFontName Impact
ParticipantFontSize 20
ParticipantFontColor black
ParticipantBorderColor Black
ParticipantBackgroundColor MOTIVATION

ActorBackgroundColor Gainsboro
ActorFontColor black
ActorFontSize 20
ActorFontName Aapex
}
    actor U1 as "Akteur - A in der Rolle\nUser / User-HBA"
    participant C1 as "TI-Messenger-\nClient A" #AliceBlue
    box <size:18>Messenger-Service</size> #WhiteSmoke
      participant MP as "Messenger-\nProxy"
      participant MH as "Matrix-Homeserver \n(inklusive Nutzerverzeichnis)"
      participant PG as "Push-Gateway"
    end box
    participant C2 as "TI-Messenger-\nClient B" #TECHNOLOGY
    actor U2 as "Akteur - B in der Rolle\nUser / User-HBA"
    
|||
note over U1, U2: \n<size:17>Die Akteure sind auf dem selben Messenger-Service angemeldet und im Besitz eines zugelassenen TI-Messenger-Clients</size>\n<size:17>Ebenfalls sind beide Akteure einem gemeinsamen Raum beigetreten</size>
|||

    U1->C1: Akteur löst \nMatrix-Event aus
      activate C1 #AliceBlue
    C1->MP: Matrix-Request
      activate MP
    MP->MP: Domainzugehörigkeit \nprüfen
    
    |||
    opt#LightGrey #MistyRose <size:16>Abbruch</size>
      MP- ->C1: Domain nicht auf \ndem gleichen \nMatrix-Homeserver
      C1- ->U1: Event konnte nicht \nverarbeitet werden
    end
    
    |||
    MP->MH: HTTP Foward
      activate MH
    MH->MH: Event verarbeiten
    
    |||
    opt <size:16>push</size>
    MH->PG: Notification
      activate PG
    PG->C2: Notification
    PG- ->MH: Status
      deactivate PG
    |||
    end
    
    |||
    MH->MP: Matrix-Request
    |||
    MP->C2: HTTP Forward
      activate C2 #TECHNOLOGY
    C2- ->MP: Status
    |||
    MP- ->MH: HTTP Forward (Status)
    MH->MP: Status (Matrix-Request)
      deactivate MH
    MP- ->C1: HTTP Forward
    C1- ->U1: Status
      deactivate C1
    MP- ->C2: HTTP Forward
      deactivate MP
    C2- ->U2: Status
    deactivate C2
  |||
|||
@enduml

PlantUML version 1.2022.5(Sat Apr 30 10:55:52 UTC 2022)
(GPL source distribution)
Java Runtime: OpenJDK Runtime Environment
JVM: OpenJDK 64-Bit Server VM
Default Encoding: UTF-8
Language: en
Country: null
--></g></svg>