<?xml version="1.0" encoding="UTF-8" standalone="no"?><svg xmlns="http://www.w3.org/2000/svg" xmlns:xlink="http://www.w3.org/1999/xlink" contentStyleType="text/css" height="1599px" preserveAspectRatio="none" style="width:1699px;height:1599px;background:#FFFFFF;" version="1.1" viewBox="0 0 1699 1599" width="1699px" zoomAndPan="magnify"><defs/><g><rect fill="#F5F5F5" height="1587.3672" style="stroke:#181818;stroke-width:0.5;" width="761" x="477" y="6"/><text fill="#000000" font-family="sans-serif" font-size="18" font-weight="bold" lengthAdjust="spacing" textLength="193" x="758.5" y="22.708">Messenger-Service</text><text fill="#000000" font-family="sans-serif" font-size="13" font-weight="bold" lengthAdjust="spacing" textLength="5" x="951.5" y="23.8872"> </text><rect fill="#F0F8FF" height="1133.8203" style="stroke:#000000;stroke-width:1.0;" width="10" x="358" y="306.9844"/><rect fill="#DCDCDC" height="1066.2422" style="stroke:#000000;stroke-width:1.0;" width="10" x="583" y="340.7734"/><rect fill="#DCDCDC" height="602.8047" style="stroke:#000000;stroke-width:1.0;" width="10" x="852.5" y="677.8438"/><rect fill="#DCDCDC" height="67.5781" style="stroke:#000000;stroke-width:1.0;" width="10" x="1122" y="855.9688"/><rect fill="#C9FFC9" height="305.3125" style="stroke:#000000;stroke-width:1.0;" width="10" x="1347" y="1067.9141"/><rect fill="#FFE4E1" height="172.7031" style="stroke:#000000;stroke-width:1.5;" width="695" x="10" y="447.3516"/><rect fill="#F0F8FF" height="172.125" style="stroke:#000000;stroke-width:1.5;" width="774" x="695" y="784.4219"/><line style="stroke:#000000;stroke-width:0.5;stroke-dasharray:5.0,5.0;" x1="133" x2="133" y1="111.5625" y2="1483.8047"/><line style="stroke:#000000;stroke-width:0.5;stroke-dasharray:5.0,5.0;" x1="363" x2="363" y1="111.5625" y2="1483.8047"/><line style="stroke:#000000;stroke-width:0.5;stroke-dasharray:5.0,5.0;" x1="588" x2="588" y1="111.5625" y2="1483.8047"/><line style="stroke:#000000;stroke-width:0.5;stroke-dasharray:5.0,5.0;" x1="857" x2="857" y1="111.5625" y2="1483.8047"/><line style="stroke:#000000;stroke-width:0.5;stroke-dasharray:5.0,5.0;" x1="1127" x2="1127" y1="111.5625" y2="1483.8047"/><line style="stroke:#000000;stroke-width:0.5;stroke-dasharray:5.0,5.0;" x1="1352" x2="1352" y1="111.5625" y2="1483.8047"/><line style="stroke:#000000;stroke-width:0.5;stroke-dasharray:5.0,5.0;" x1="1582" x2="1582" y1="111.5625" y2="1483.8047"/><text fill="#000000" font-family="Aapex" font-size="20" lengthAdjust="spacing" textLength="220" x="20" y="83.5645">Akteur - A in der Rolle</text><text fill="#000000" font-family="Aapex" font-size="20" lengthAdjust="spacing" textLength="159" x="50.5" y="106.8457">User / User-HBA</text><ellipse cx="133" cy="13.5" fill="#DCDCDC" rx="8" ry="8" style="stroke:#000000;stroke-width:0.5;"/><path d="M133,21.5 L133,48.5 M120,29.5 L146,29.5 M133,48.5 L120,63.5 M133,48.5 L146,63.5 " fill="none" style="stroke:#000000;stroke-width:0.5;"/><text fill="#000000" font-family="Aapex" font-size="20" lengthAdjust="spacing" textLength="220" x="20" y="1501.3691">Akteur - A in der Rolle</text><text fill="#000000" font-family="Aapex" font-size="20" lengthAdjust="spacing" textLength="159" x="50.5" y="1524.6504">User / User-HBA</text><ellipse cx="133" cy="1537.8672" fill="#DCDCDC" rx="8" ry="8" style="stroke:#000000;stroke-width:0.5;"/><path d="M133,1545.8672 L133,1572.8672 M120,1553.8672 L146,1553.8672 M133,1572.8672 L120,1587.8672 M133,1572.8672 L146,1587.8672 " fill="none" style="stroke:#000000;stroke-width:0.5;"/><rect fill="#F0F8FF" height="60.5625" rx="2.5" ry="2.5" style="stroke:#000000;stroke-width:0.5;" width="214" x="256" y="50"/><text fill="#000000" font-family="Impact" font-size="20" lengthAdjust="spacing" textLength="139" x="293.5" y="75.5645">TI-Messenger-</text><text fill="#000000" font-family="Impact" font-size="20" lengthAdjust="spacing" textLength="79" x="323.5" y="98.8457">Client A</text><rect fill="#F0F8FF" height="60.5625" rx="2.5" ry="2.5" style="stroke:#000000;stroke-width:0.5;" width="214" x="256" y="1482.8047"/><text fill="#000000" font-family="Impact" font-size="20" lengthAdjust="spacing" textLength="139" x="293.5" y="1508.3691">TI-Messenger-</text><text fill="#000000" font-family="Impact" font-size="20" lengthAdjust="spacing" textLength="79" x="323.5" y="1531.6504">Client A</text><rect fill="#EFEFFF" height="60.5625" rx="2.5" ry="2.5" style="stroke:#000000;stroke-width:0.5;" width="214" x="481" y="50"/><text fill="#000000" font-family="Impact" font-size="20" lengthAdjust="spacing" textLength="114" x="531" y="75.5645">Messenger-</text><text fill="#000000" font-family="Impact" font-size="20" lengthAdjust="spacing" textLength="54" x="561" y="98.8457">Proxy</text><rect fill="#EFEFFF" height="60.5625" rx="2.5" ry="2.5" style="stroke:#000000;stroke-width:0.5;" width="214" x="481" y="1482.8047"/><text fill="#000000" font-family="Impact" font-size="20" lengthAdjust="spacing" textLength="114" x="531" y="1508.3691">Messenger-</text><text fill="#000000" font-family="Impact" font-size="20" lengthAdjust="spacing" textLength="54" x="561" y="1531.6504">Proxy</text><rect fill="#EFEFFF" height="60.5625" rx="2.5" ry="2.5" style="stroke:#000000;stroke-width:0.5;" width="305" x="705" y="50"/><text fill="#000000" font-family="Impact" font-size="20" lengthAdjust="spacing" textLength="189" x="760" y="75.5645">Matrix-Homeserver</text><text fill="#000000" font-family="Impact" font-size="20" lengthAdjust="spacing" textLength="291" x="712" y="98.8457">(inklusive Nutzerverzeichnis)</text><rect fill="#EFEFFF" height="60.5625" rx="2.5" ry="2.5" style="stroke:#000000;stroke-width:0.5;" width="305" x="705" y="1482.8047"/><text fill="#000000" font-family="Impact" font-size="20" lengthAdjust="spacing" textLength="189" x="760" y="1508.3691">Matrix-Homeserver</text><text fill="#000000" font-family="Impact" font-size="20" lengthAdjust="spacing" textLength="291" x="712" y="1531.6504">(inklusive Nutzerverzeichnis)</text><rect fill="#EFEFFF" height="37.2813" rx="2.5" ry="2.5" style="stroke:#000000;stroke-width:0.5;" width="214" x="1020" y="73.2813"/><text fill="#000000" font-family="Impact" font-size="20" lengthAdjust="spacing" textLength="143" x="1055.5" y="98.8457">Push-Gateway</text><rect fill="#EFEFFF" height="37.2813" rx="2.5" ry="2.5" style="stroke:#000000;stroke-width:0.5;" width="214" x="1020" y="1482.8047"/><text fill="#000000" font-family="Impact" font-size="20" lengthAdjust="spacing" textLength="143" x="1055.5" y="1508.3691">Push-Gateway</text><rect fill="#C9FFC9" height="60.5625" rx="2.5" ry="2.5" style="stroke:#000000;stroke-width:0.5;" width="214" x="1245" y="50"/><text fill="#000000" font-family="Impact" font-size="20" lengthAdjust="spacing" textLength="139" x="1282.5" y="75.5645">TI-Messenger-</text><text fill="#000000" font-family="Impact" font-size="20" lengthAdjust="spacing" textLength="79" x="1312.5" y="98.8457">Client B</text><rect fill="#C9FFC9" height="60.5625" rx="2.5" ry="2.5" style="stroke:#000000;stroke-width:0.5;" width="214" x="1245" y="1482.8047"/><text fill="#000000" font-family="Impact" font-size="20" lengthAdjust="spacing" textLength="139" x="1282.5" y="1508.3691">TI-Messenger-</text><text fill="#000000" font-family="Impact" font-size="20" lengthAdjust="spacing" textLength="79" x="1312.5" y="1531.6504">Client B</text><text fill="#000000" font-family="Aapex" font-size="20" lengthAdjust="spacing" textLength="220" x="1469" y="83.5645">Akteur - B in der Rolle</text><text fill="#000000" font-family="Aapex" font-size="20" lengthAdjust="spacing" textLength="159" x="1499.5" y="106.8457">User / User-HBA</text><ellipse cx="1582" cy="13.5" fill="#DCDCDC" rx="8" ry="8" style="stroke:#000000;stroke-width:0.5;"/><path d="M1582,21.5 L1582,48.5 M1569,29.5 L1595,29.5 M1582,48.5 L1569,63.5 M1582,48.5 L1595,63.5 " fill="none" style="stroke:#000000;stroke-width:0.5;"/><text fill="#000000" font-family="Aapex" font-size="20" lengthAdjust="spacing" textLength="220" x="1469" y="1501.3691">Akteur - B in der Rolle</text><text fill="#000000" font-family="Aapex" font-size="20" lengthAdjust="spacing" textLength="159" x="1499.5" y="1524.6504">User / User-HBA</text><ellipse cx="1582" cy="1537.8672" fill="#DCDCDC" rx="8" ry="8" style="stroke:#000000;stroke-width:0.5;"/><path d="M1582,1545.8672 L1582,1572.8672 M1569,1553.8672 L1595,1553.8672 M1582,1572.8672 L1569,1587.8672 M1582,1572.8672 L1595,1587.8672 " fill="none" style="stroke:#000000;stroke-width:0.5;"/><rect fill="#F0F8FF" height="1133.8203" style="stroke:#000000;stroke-width:1.0;" width="10" x="358" y="306.9844"/><rect fill="#DCDCDC" height="1066.2422" style="stroke:#000000;stroke-width:1.0;" width="10" x="583" y="340.7734"/><rect fill="#DCDCDC" height="602.8047" style="stroke:#000000;stroke-width:1.0;" width="10" x="852.5" y="677.8438"/><rect fill="#DCDCDC" height="67.5781" style="stroke:#000000;stroke-width:1.0;" width="10" x="1122" y="855.9688"/><rect fill="#C9FFC9" height="305.3125" style="stroke:#000000;stroke-width:1.0;" width="10" x="1347" y="1067.9141"/><path d="M22,151.5625 L22,230.5625 L1692,230.5625 L1692,161.5625 L1682,151.5625 L22,151.5625 " fill="#FEFFDD" style="stroke:#181818;stroke-width:0.5;"/><path d="M1682,151.5625 L1682,161.5625 L1692,161.5625 L1682,151.5625 " fill="#FEFFDD" style="stroke:#181818;stroke-width:0.5;"/><text fill="#000000" font-family="sans-serif" font-size="13" lengthAdjust="spacing" textLength="4" x="349" y="168.6294"> </text><text fill="#000000" font-family="sans-serif" font-size="17" lengthAdjust="spacing" textLength="1007" x="349" y="187.4751">Die Akteure sind auf dem selben Messenger-Service angemeldet und im Besitz eines zugelassenen TI-Messenger-Clients.</text><text fill="#000000" font-family="sans-serif" font-size="17" lengthAdjust="spacing" textLength="580" x="349" y="207.2642">Ebenfalls sind beide Akteure einem gemeinsamen Raum beigetreten.</text><text fill="#000000" font-family="sans-serif" font-size="13" lengthAdjust="spacing" textLength="4" x="349" y="223.3403"> </text><polygon fill="#000000" points="346,302.9844,356,306.9844,346,310.9844,350,306.9844" style="stroke:#000000;stroke-width:1.0;"/><line style="stroke:#000000;stroke-width:1.0;" x1="133" x2="352" y1="306.9844" y2="306.9844"/><text fill="#000000" font-family="sans-serif" font-size="17" lengthAdjust="spacing" textLength="107" x="140" y="281.186">Akteur A löst</text><text fill="#000000" font-family="sans-serif" font-size="17" lengthAdjust="spacing" textLength="143" x="140" y="300.9751">Matrix-Event aus</text><polygon fill="#FF0000" points="571,336.7734,581,340.7734,571,344.7734,575,340.7734" style="stroke:#FF0000;stroke-width:1.0;"/><line style="stroke:#FF0000;stroke-width:1.0;" x1="368" x2="577" y1="340.7734" y2="340.7734"/><text fill="#000000" font-family="sans-serif" font-size="17" lengthAdjust="spacing" textLength="128" x="375" y="334.7642">Matrix-Request</text><line style="stroke:#000000;stroke-width:1.0;" x1="593" x2="635" y1="394.3516" y2="394.3516"/><line style="stroke:#000000;stroke-width:1.0;" x1="635" x2="635" y1="394.3516" y2="407.3516"/><line style="stroke:#000000;stroke-width:1.0;" x1="594" x2="635" y1="407.3516" y2="407.3516"/><polygon fill="#000000" points="604,403.3516,594,407.3516,604,411.3516,600,407.3516" style="stroke:#000000;stroke-width:1.0;"/><text fill="#000000" font-family="sans-serif" font-size="17" lengthAdjust="spacing" textLength="128" x="600" y="368.5532">prüfe MXID auf</text><text fill="#000000" font-family="sans-serif" font-size="17" lengthAdjust="spacing" textLength="229" x="600" y="388.3423">Organisationszugehörigkeit</text><path d="M10,447.3516 L80,447.3516 L80,454.4844 L70,464.4844 L10,464.4844 L10,447.3516 " fill="#D3D3D3" style="stroke:#000000;stroke-width:1.5;"/><rect fill="none" height="172.7031" style="stroke:#000000;stroke-width:1.5;" width="695" x="10" y="447.3516"/><text fill="#000000" font-family="sans-serif" font-size="13" font-weight="bold" lengthAdjust="spacing" textLength="25" x="25" y="460.4185">opt</text><text fill="#000000" font-family="sans-serif" font-size="11" font-weight="bold" lengthAdjust="spacing" textLength="5" x="95" y="465.3823">[</text><text fill="#000000" font-family="sans-serif" font-size="16" font-weight="bold" lengthAdjust="spacing" textLength="74" x="100" y="464.2031">Abbruch</text><text fill="#000000" font-family="sans-serif" font-size="11" font-weight="bold" lengthAdjust="spacing" textLength="5" x="174" y="465.3823">]</text><polygon fill="#000000" points="379,529.4766,369,533.4766,379,537.4766,375,533.4766" style="stroke:#000000;stroke-width:1.0;"/><line style="stroke:#000000;stroke-width:1.0;stroke-dasharray:2.0,2.0;" x1="373" x2="582" y1="533.4766" y2="533.4766"/><text fill="#000000" font-family="sans-serif" font-size="17" lengthAdjust="spacing" textLength="164" x="407" y="487.8892">Empfänger ist nicht</text><text fill="#000000" font-family="sans-serif" font-size="17" lengthAdjust="spacing" textLength="144" x="407" y="507.6782">auf dem gleichen</text><text fill="#000000" font-family="sans-serif" font-size="17" lengthAdjust="spacing" textLength="162" x="407" y="527.4673">Matrix-Homeserver</text><polygon fill="#000000" points="144,583.0547,134,587.0547,144,591.0547,140,587.0547" style="stroke:#000000;stroke-width:1.0;"/><line style="stroke:#000000;stroke-width:1.0;stroke-dasharray:2.0,2.0;" x1="138" x2="357" y1="587.0547" y2="587.0547"/><text fill="#000000" font-family="sans-serif" font-size="17" lengthAdjust="spacing" textLength="160" x="186" y="561.2563">Event konnte nicht</text><text fill="#000000" font-family="sans-serif" font-size="17" lengthAdjust="spacing" textLength="161" x="186" y="581.0454">verarbeitet werden</text><polygon fill="#FF0000" points="840.5,673.8438,850.5,677.8438,840.5,681.8438,844.5,677.8438" style="stroke:#FF0000;stroke-width:1.0;"/><line style="stroke:#FF0000;stroke-width:1.0;" x1="593" x2="846.5" y1="677.8438" y2="677.8438"/><text fill="#000000" font-family="sans-serif" font-size="17" lengthAdjust="spacing" textLength="135" x="600" y="671.8345">HTTP(S) Foward</text><line style="stroke:#000000;stroke-width:1.0;" x1="862.5" x2="904.5" y1="731.4219" y2="731.4219"/><line style="stroke:#000000;stroke-width:1.0;" x1="904.5" x2="904.5" y1="731.4219" y2="744.4219"/><line style="stroke:#000000;stroke-width:1.0;" x1="863.5" x2="904.5" y1="744.4219" y2="744.4219"/><polygon fill="#000000" points="873.5,740.4219,863.5,744.4219,873.5,748.4219,869.5,744.4219" style="stroke:#000000;stroke-width:1.0;"/><text fill="#000000" font-family="sans-serif" font-size="17" lengthAdjust="spacing" textLength="49" x="869.5" y="705.6235">Event</text><text fill="#000000" font-family="sans-serif" font-size="17" lengthAdjust="spacing" textLength="97" x="869.5" y="725.4126">verarbeiten</text><path d="M695,784.4219 L765,784.4219 L765,791.5547 L755,801.5547 L695,801.5547 L695,784.4219 " fill="#D3D3D3" style="stroke:#000000;stroke-width:1.5;"/><rect fill="none" height="172.125" style="stroke:#000000;stroke-width:1.5;" width="774" x="695" y="784.4219"/><text fill="#000000" font-family="sans-serif" font-size="13" font-weight="bold" lengthAdjust="spacing" textLength="25" x="710" y="797.4888">opt</text><text fill="#000000" font-family="sans-serif" font-size="11" font-weight="bold" lengthAdjust="spacing" textLength="5" x="780" y="802.4526">[</text><text fill="#000000" font-family="sans-serif" font-size="16" font-weight="bold" lengthAdjust="spacing" textLength="197" x="785" y="801.2734">Pushbenachrichtigung</text><text fill="#000000" font-family="sans-serif" font-size="11" font-weight="bold" lengthAdjust="spacing" textLength="5" x="982" y="802.4526">]</text><polygon fill="#000000" points="1110,851.9688,1120,855.9688,1110,859.9688,1114,855.9688" style="stroke:#000000;stroke-width:1.0;"/><line style="stroke:#000000;stroke-width:1.0;" x1="862.5" x2="1116" y1="855.9688" y2="855.9688"/><text fill="#000000" font-family="sans-serif" font-size="17" lengthAdjust="spacing" textLength="221" x="869.5" y="849.9595">POST /_matrix/push/notify</text><polygon fill="#000000" points="1340,885.7578,1350,889.7578,1340,893.7578,1344,889.7578" style="stroke:#000000;stroke-width:1.0;"/><line style="stroke:#000000;stroke-width:1.0;" x1="1132" x2="1346" y1="889.7578" y2="889.7578"/><text fill="#000000" font-family="sans-serif" font-size="17" lengthAdjust="spacing" textLength="97" x="1139" y="883.7485">Notification</text><polygon fill="#000000" points="873.5,919.5469,863.5,923.5469,873.5,927.5469,869.5,923.5469" style="stroke:#000000;stroke-width:1.0;"/><line style="stroke:#000000;stroke-width:1.0;stroke-dasharray:2.0,2.0;" x1="867.5" x2="1126" y1="923.5469" y2="923.5469"/><text fill="#000000" font-family="sans-serif" font-size="17" lengthAdjust="spacing" textLength="54" x="1066" y="917.5376">Status</text><polygon fill="#000000" points="604,1030.125,594,1034.125,604,1038.125,600,1034.125" style="stroke:#000000;stroke-width:1.0;"/><line style="stroke:#000000;stroke-width:1.0;" x1="598" x2="851.5" y1="1034.125" y2="1034.125"/><text fill="#000000" font-family="sans-serif" font-size="17" lengthAdjust="spacing" textLength="128" x="712.5" y="1008.3267">Matrix-Request</text><text fill="#000000" font-family="sans-serif" font-size="17" lengthAdjust="spacing" textLength="94" x="712.5" y="1028.1157">an Client-B</text><polygon fill="#000000" points="1335,1063.9141,1345,1067.9141,1335,1071.9141,1339,1067.9141" style="stroke:#000000;stroke-width:1.0;"/><line style="stroke:#000000;stroke-width:1.0;" x1="593" x2="1341" y1="1067.9141" y2="1067.9141"/><text fill="#000000" font-family="sans-serif" font-size="17" lengthAdjust="spacing" textLength="142" x="600" y="1061.9048">HTTP(S) Forward</text><line style="stroke:#000000;stroke-width:1.0;" x1="1357" x2="1399" y1="1121.4922" y2="1121.4922"/><line style="stroke:#000000;stroke-width:1.0;" x1="1399" x2="1399" y1="1121.4922" y2="1134.4922"/><line style="stroke:#000000;stroke-width:1.0;" x1="1358" x2="1399" y1="1134.4922" y2="1134.4922"/><polygon fill="#000000" points="1368,1130.4922,1358,1134.4922,1368,1138.4922,1364,1134.4922" style="stroke:#000000;stroke-width:1.0;"/><text fill="#000000" font-family="sans-serif" font-size="17" lengthAdjust="spacing" textLength="49" x="1364" y="1095.6938">Event</text><text fill="#000000" font-family="sans-serif" font-size="17" lengthAdjust="spacing" textLength="97" x="1364" y="1115.4829">verarbeiten</text><polygon fill="#000000" points="604,1164.2813,594,1168.2813,604,1172.2813,600,1168.2813" style="stroke:#000000;stroke-width:1.0;"/><line style="stroke:#000000;stroke-width:1.0;stroke-dasharray:2.0,2.0;" x1="598" x2="1346" y1="1168.2813" y2="1168.2813"/><text fill="#000000" font-family="sans-serif" font-size="17" lengthAdjust="spacing" textLength="54" x="1286" y="1162.272">Status</text><polygon fill="#000000" points="840.5,1217.8594,850.5,1221.8594,840.5,1225.8594,844.5,1221.8594" style="stroke:#000000;stroke-width:1.0;"/><line style="stroke:#000000;stroke-width:1.0;stroke-dasharray:2.0,2.0;" x1="593" x2="846.5" y1="1221.8594" y2="1221.8594"/><text fill="#000000" font-family="sans-serif" font-size="17" lengthAdjust="spacing" textLength="142" x="600" y="1196.061">HTTP(S) Forward</text><text fill="#000000" font-family="sans-serif" font-size="17" lengthAdjust="spacing" textLength="141" x="600" y="1215.8501">(Status Client-B)</text><polygon fill="#FF0000" points="604,1276.6484,594,1280.6484,604,1284.6484,600,1280.6484" style="stroke:#FF0000;stroke-width:1.0;"/><line style="stroke:#FF0000;stroke-width:1.0;stroke-dasharray:2.0,2.0;" x1="598" x2="856.5" y1="1280.6484" y2="1280.6484"/><text fill="#000000" font-family="sans-serif" font-size="17" lengthAdjust="spacing" textLength="201" x="649.5" y="1274.6392">Status (Matrix-Request)</text><polygon fill="#000000" points="1335,1335.4375,1345,1339.4375,1335,1343.4375,1339,1339.4375" style="stroke:#000000;stroke-width:1.0;"/><line style="stroke:#000000;stroke-width:1.0;stroke-dasharray:2.0,2.0;" x1="593" x2="1341" y1="1339.4375" y2="1339.4375"/><text fill="#000000" font-family="sans-serif" font-size="17" lengthAdjust="spacing" textLength="142" x="600" y="1333.4282">HTTP(S) Forward</text><polygon fill="#000000" points="1570,1369.2266,1580,1373.2266,1570,1377.2266,1574,1373.2266" style="stroke:#000000;stroke-width:1.0;"/><line style="stroke:#000000;stroke-width:1.0;stroke-dasharray:2.0,2.0;" x1="1352" x2="1576" y1="1373.2266" y2="1373.2266"/><text fill="#000000" font-family="sans-serif" font-size="17" lengthAdjust="spacing" textLength="54" x="1359" y="1367.2173">Status</text><polygon fill="#000000" points="379,1403.0156,369,1407.0156,379,1411.0156,375,1407.0156" style="stroke:#000000;stroke-width:1.0;"/><line style="stroke:#000000;stroke-width:1.0;stroke-dasharray:2.0,2.0;" x1="373" x2="587" y1="1407.0156" y2="1407.0156"/><text fill="#000000" font-family="sans-serif" font-size="17" lengthAdjust="spacing" textLength="142" x="439" y="1401.0063">HTTP(S) Forward</text><polygon fill="#000000" points="144,1436.8047,134,1440.8047,144,1444.8047,140,1440.8047" style="stroke:#000000;stroke-width:1.0;"/><line style="stroke:#000000;stroke-width:1.0;stroke-dasharray:2.0,2.0;" x1="138" x2="362" y1="1440.8047" y2="1440.8047"/><text fill="#000000" font-family="sans-serif" font-size="17" lengthAdjust="spacing" textLength="54" x="302" y="1434.7954">Status</text><!--MD5=[341da36c8bdc47695c45647475d6f72b]
@startuml
skinparam sequenceMessageAlign direction
skinparam minClassWidth 200
skinparam BoxPadding 1
skinparam sequenceReferenceHeaderBackgroundColor palegreen
scale max 2048 width

skinparam sequence {
ArrowColor black
ArrowFontSize 17
ActorBorderColor black
LifeLineBorderColor black
LifeLineBackgroundColor Gainsboro

ParticipantBorderColor Motivation
ParticipantBackgroundColor Motivation
ParticipantFontName Impact
ParticipantFontSize 20
ParticipantFontColor black
ParticipantBorderColor Black
ParticipantBackgroundColor MOTIVATION

ActorBackgroundColor Gainsboro
ActorFontColor black
ActorFontSize 20
ActorFontName Aapex
}
    actor U1 as "Akteur - A in der Rolle\nUser / User-HBA"
    participant C1 as "TI-Messenger-\nClient A" #AliceBlue
    box <size:18>Messenger-Service</size> #WhiteSmoke
      participant MP as "Messenger-\nProxy"
      participant MH as "Matrix-Homeserver \n(inklusive Nutzerverzeichnis)"
      participant PG as "Push-Gateway"
    end box
    participant C2 as "TI-Messenger-\nClient B" #TECHNOLOGY
    actor U2 as "Akteur - B in der Rolle\nUser / User-HBA"
    
|||
note over U1, U2: \n<size:17>Die Akteure sind auf dem selben Messenger-Service angemeldet und im Besitz eines zugelassenen TI-Messenger-Clients.</size>\n<size:17>Ebenfalls sind beide Akteure einem gemeinsamen Raum beigetreten.</size>\n
|||

    U1->C1: Akteur A löst \nMatrix-Event aus
      activate C1 #AliceBlue
    C1-[#red]>MP: Matrix-Request
      activate MP
    MP->MP: prüfe MXID auf \nOrganisationszugehörigkeit
    
    |||
    opt#LightGrey #MistyRose <size:16>Abbruch</size>
      MP- ->C1: Empfänger ist nicht \nauf dem gleichen \nMatrix-Homeserver
      C1- ->U1: Event konnte nicht \nverarbeitet werden
    |||
    end
    
    |||
    MP-[#red]>MH: HTTP(S) Foward
      activate MH
    MH->MH: Event \nverarbeiten
    
    |||
    opt#LightGrey #AliceBlue <size:16>Pushbenachrichtigung</size>
    |||
    MH->PG: POST /_matrix/push/notify
      activate PG
    PG->C2: Notification
    PG- ->MH: Status
      deactivate PG
    |||
    end
    
    |||
    MH->MP: Matrix-Request \nan Client-B
    MP->C2: HTTP(S) Forward
      activate C2 #TECHNOLOGY
    C2->C2: Event \nverarbeiten
    C2- ->MP: Status
    MP- ->MH: HTTP(S) Forward \n(Status Client-B)
    |||
    MH-[#red]->MP: Status (Matrix-Request)
      deactivate MH
    |||
    MP- ->C2: HTTP(S) Forward
    C2- ->U2: Status
      deactivate C2
    MP- ->C1: HTTP(S) Forward
      deactivate MP
    C1- ->U1: Status
      deactivate C1
|||
@enduml

PlantUML version 1.2022.5(Sat Apr 30 10:55:52 UTC 2022)
(GPL source distribution)
Java Runtime: OpenJDK Runtime Environment
JVM: OpenJDK 64-Bit Server VM
Default Encoding: UTF-8
Language: en
Country: null
--></g></svg>