<?xml version="1.0" encoding="UTF-8" standalone="no"?><svg xmlns="http://www.w3.org/2000/svg" xmlns:xlink="http://www.w3.org/1999/xlink" contentStyleType="text/css" height="1902px" preserveAspectRatio="none" style="width:2460px;height:1902px;background:#FFFFFF;" version="1.1" viewBox="0 0 2460 1902" width="2460px" zoomAndPan="magnify"><defs/><g><rect fill="#F5F5F5" height="1890.25" style="stroke:#181818;stroke-width:0.5;" width="494" x="537" y="6"/><text fill="#000000" font-family="sans-serif" font-size="18" font-weight="bold" lengthAdjust="spacing" textLength="213" x="675" y="22.708">Messenger-Service A</text><text fill="#000000" font-family="sans-serif" font-size="13" font-weight="bold" lengthAdjust="spacing" textLength="5" x="888" y="23.8872"> </text><rect fill="#FFFAFA" height="1890.25" style="stroke:#181818;stroke-width:0.5;" width="942" x="1035" y="6"/><text fill="#000000" font-family="sans-serif" font-size="18" font-weight="bold" lengthAdjust="spacing" textLength="213" x="1397" y="22.708">Messenger-Service B</text><text fill="#000000" font-family="sans-serif" font-size="13" font-weight="bold" lengthAdjust="spacing" textLength="5" x="1610" y="23.8872"> </text><rect fill="#F0F8FF" height="1237.0859" style="stroke:#000000;stroke-width:1.0;" width="10" x="358" y="337.25"/><rect fill="#DCDCDC" height="292.2813" style="stroke:#000000;stroke-width:1.0;" width="10" x="643" y="371.0391"/><rect fill="#DCDCDC" height="150.3672" style="stroke:#000000;stroke-width:1.0;" width="10" x="643" y="768.8984"/><rect fill="#DCDCDC" height="105.5781" style="stroke:#000000;stroke-width:1.0;" width="10" x="915" y="663.3203"/><rect fill="#DCDCDC" height="688.8594" style="stroke:#000000;stroke-width:1.0;" width="10" x="1141" y="919.2656"/><rect fill="#DCDCDC" height="462.125" style="stroke:#000000;stroke-width:1.0;" width="10" x="1413" y="1044.6328"/><rect fill="#DCDCDC" height="67.5781" style="stroke:#000000;stroke-width:1.0;" width="10" x="1861" y="1130.3125"/><rect fill="#C9FFC9" height="261.5234" style="stroke:#000000;stroke-width:1.0;" width="10" x="2086" y="1346.6016"/><rect fill="#FFE4E1" height="108.125" style="stroke:#000000;stroke-width:1.5;" width="755" x="10" y="497.4063"/><rect height="613.4922" style="stroke:#000000;stroke-width:1.5;fill:none;" width="2218" x="236" y="1059.6328"/><rect height="147.125" style="stroke:#000000;stroke-width:1.5;fill:none;" width="907" x="1301" y="1083.7656"/><rect height="371.2344" style="stroke:#000000;stroke-width:1.5;fill:none;" width="2198" x="246" y="1269.8906"/><line style="stroke:#000000;stroke-width:0.5;fill:none;stroke-dasharray:5.0,5.0;" x1="133" x2="133" y1="158.125" y2="1740.125"/><line style="stroke:#000000;stroke-width:0.5;fill:none;stroke-dasharray:5.0,5.0;" x1="363" x2="363" y1="158.125" y2="1740.125"/><line style="stroke:#000000;stroke-width:0.5;fill:none;stroke-dasharray:5.0,5.0;" x1="648" x2="648" y1="158.125" y2="1740.125"/><line style="stroke:#000000;stroke-width:0.5;fill:none;stroke-dasharray:5.0,5.0;" x1="920" x2="920" y1="158.125" y2="1740.125"/><line style="stroke:#000000;stroke-width:0.5;fill:none;stroke-dasharray:5.0,5.0;" x1="1146" x2="1146" y1="158.125" y2="1740.125"/><line style="stroke:#000000;stroke-width:0.5;fill:none;stroke-dasharray:5.0,5.0;" x1="1418" x2="1418" y1="158.125" y2="1740.125"/><line style="stroke:#000000;stroke-width:0.5;fill:none;stroke-dasharray:5.0,5.0;" x1="1642" x2="1642" y1="158.125" y2="1740.125"/><line style="stroke:#000000;stroke-width:0.5;fill:none;stroke-dasharray:5.0,5.0;" x1="1866" x2="1866" y1="158.125" y2="1740.125"/><line style="stroke:#000000;stroke-width:0.5;fill:none;stroke-dasharray:5.0,5.0;" x1="2091" x2="2091" y1="158.125" y2="1740.125"/><line style="stroke:#000000;stroke-width:0.5;fill:none;stroke-dasharray:5.0,5.0;" x1="2321" x2="2321" y1="158.125" y2="1740.125"/><text fill="#000000" font-family="Aapex" font-size="20" lengthAdjust="spacing" textLength="6" x="127" y="83.5645"> </text><text fill="#000000" font-family="Aapex" font-size="20" lengthAdjust="spacing" textLength="220" x="20" y="106.8457">Akteur - A in der Rolle</text><text fill="#000000" font-family="Aapex" font-size="20" lengthAdjust="spacing" textLength="159" x="50.5" y="130.127">User / User-HBA</text><text fill="#000000" font-family="Aapex" font-size="20" lengthAdjust="spacing" textLength="6" x="127" y="153.4082"> </text><ellipse cx="133" cy="13.5" fill="#DCDCDC" rx="8" ry="8" style="stroke:#000000;stroke-width:0.5;"/><path d="M133,21.5 L133,48.5 M120,29.5 L146,29.5 M133,48.5 L120,63.5 M133,48.5 L146,63.5 " fill="none" style="stroke:#000000;stroke-width:0.5;"/><text fill="#000000" font-family="Aapex" font-size="20" lengthAdjust="spacing" textLength="6" x="127" y="1757.6895"> </text><text fill="#000000" font-family="Aapex" font-size="20" lengthAdjust="spacing" textLength="220" x="20" y="1780.9707">Akteur - A in der Rolle</text><text fill="#000000" font-family="Aapex" font-size="20" lengthAdjust="spacing" textLength="159" x="50.5" y="1804.252">User / User-HBA</text><text fill="#000000" font-family="Aapex" font-size="20" lengthAdjust="spacing" textLength="6" x="127" y="1827.5332"> </text><ellipse cx="133" cy="1840.75" fill="#DCDCDC" rx="8" ry="8" style="stroke:#000000;stroke-width:0.5;"/><path d="M133,1848.75 L133,1875.75 M120,1856.75 L146,1856.75 M133,1875.75 L120,1890.75 M133,1875.75 L146,1890.75 " fill="none" style="stroke:#000000;stroke-width:0.5;"/><rect fill="#F0F8FF" height="60.5625" rx="2.5" ry="2.5" style="stroke:#000000;stroke-width:0.5;" width="214" x="256" y="96.5625"/><text fill="#000000" font-family="Impact" font-size="20" lengthAdjust="spacing" textLength="139" x="293.5" y="122.127">TI-Messenger-</text><text fill="#000000" font-family="Impact" font-size="20" lengthAdjust="spacing" textLength="59" x="333.5" y="145.4082">Client</text><rect fill="#F0F8FF" height="60.5625" rx="2.5" ry="2.5" style="stroke:#000000;stroke-width:0.5;" width="214" x="256" y="1739.125"/><text fill="#000000" font-family="Impact" font-size="20" lengthAdjust="spacing" textLength="139" x="293.5" y="1764.6895">TI-Messenger-</text><text fill="#000000" font-family="Impact" font-size="20" lengthAdjust="spacing" textLength="59" x="333.5" y="1787.9707">Client</text><rect fill="#EFEFFF" height="60.5625" rx="2.5" ry="2.5" style="stroke:#000000;stroke-width:0.5;" width="214" x="541" y="96.5625"/><text fill="#000000" font-family="Impact" font-size="20" lengthAdjust="spacing" textLength="114" x="591" y="122.127">Messenger-</text><text fill="#000000" font-family="Impact" font-size="20" lengthAdjust="spacing" textLength="54" x="621" y="145.4082">Proxy</text><rect fill="#EFEFFF" height="60.5625" rx="2.5" ry="2.5" style="stroke:#000000;stroke-width:0.5;" width="214" x="541" y="1739.125"/><text fill="#000000" font-family="Impact" font-size="20" lengthAdjust="spacing" textLength="114" x="591" y="1764.6895">Messenger-</text><text fill="#000000" font-family="Impact" font-size="20" lengthAdjust="spacing" textLength="54" x="621" y="1787.9707">Proxy</text><rect fill="#EFEFFF" height="60.5625" rx="2.5" ry="2.5" style="stroke:#000000;stroke-width:0.5;" width="214" x="813" y="96.5625"/><text fill="#000000" font-family="Impact" font-size="20" lengthAdjust="spacing" textLength="69" x="885.5" y="122.127">Matrix-</text><text fill="#000000" font-family="Impact" font-size="20" lengthAdjust="spacing" textLength="120" x="860" y="145.4082">Homeserver</text><rect fill="#EFEFFF" height="60.5625" rx="2.5" ry="2.5" style="stroke:#000000;stroke-width:0.5;" width="214" x="813" y="1739.125"/><text fill="#000000" font-family="Impact" font-size="20" lengthAdjust="spacing" textLength="69" x="885.5" y="1764.6895">Matrix-</text><text fill="#000000" font-family="Impact" font-size="20" lengthAdjust="spacing" textLength="120" x="860" y="1787.9707">Homeserver</text><rect fill="#EFEFFF" height="60.5625" rx="2.5" ry="2.5" style="stroke:#000000;stroke-width:0.5;" width="214" x="1039" y="96.5625"/><text fill="#000000" font-family="Impact" font-size="20" lengthAdjust="spacing" textLength="114" x="1089" y="122.127">Messenger-</text><text fill="#000000" font-family="Impact" font-size="20" lengthAdjust="spacing" textLength="54" x="1119" y="145.4082">Proxy</text><rect fill="#EFEFFF" height="60.5625" rx="2.5" ry="2.5" style="stroke:#000000;stroke-width:0.5;" width="214" x="1039" y="1739.125"/><text fill="#000000" font-family="Impact" font-size="20" lengthAdjust="spacing" textLength="114" x="1089" y="1764.6895">Messenger-</text><text fill="#000000" font-family="Impact" font-size="20" lengthAdjust="spacing" textLength="54" x="1119" y="1787.9707">Proxy</text><rect fill="#EFEFFF" height="60.5625" rx="2.5" ry="2.5" style="stroke:#000000;stroke-width:0.5;" width="214" x="1311" y="96.5625"/><text fill="#000000" font-family="Impact" font-size="20" lengthAdjust="spacing" textLength="69" x="1383.5" y="122.127">Matrix-</text><text fill="#000000" font-family="Impact" font-size="20" lengthAdjust="spacing" textLength="120" x="1358" y="145.4082">Homeserver</text><rect fill="#EFEFFF" height="60.5625" rx="2.5" ry="2.5" style="stroke:#000000;stroke-width:0.5;" width="214" x="1311" y="1739.125"/><text fill="#000000" font-family="Impact" font-size="20" lengthAdjust="spacing" textLength="69" x="1383.5" y="1764.6895">Matrix-</text><text fill="#000000" font-family="Impact" font-size="20" lengthAdjust="spacing" textLength="120" x="1358" y="1787.9707">Homeserver</text><rect fill="#EFEFFF" height="60.5625" rx="2.5" ry="2.5" style="stroke:#000000;stroke-width:0.5;" width="214" x="1535" y="96.5625"/><text fill="#000000" font-family="Impact" font-size="20" lengthAdjust="spacing" textLength="103" x="1590.5" y="122.127">PASSPorT-</text><text fill="#000000" font-family="Impact" font-size="20" lengthAdjust="spacing" textLength="73" x="1605.5" y="145.4082">Service</text><rect fill="#EFEFFF" height="60.5625" rx="2.5" ry="2.5" style="stroke:#000000;stroke-width:0.5;" width="214" x="1535" y="1739.125"/><text fill="#000000" font-family="Impact" font-size="20" lengthAdjust="spacing" textLength="103" x="1590.5" y="1764.6895">PASSPorT-</text><text fill="#000000" font-family="Impact" font-size="20" lengthAdjust="spacing" textLength="73" x="1605.5" y="1787.9707">Service</text><rect fill="#EFEFFF" height="60.5625" rx="2.5" ry="2.5" style="stroke:#000000;stroke-width:0.5;" width="214" x="1759" y="96.5625"/><text fill="#000000" font-family="Impact" font-size="20" lengthAdjust="spacing" textLength="55" x="1838.5" y="122.127">Push-</text><text fill="#000000" font-family="Impact" font-size="20" lengthAdjust="spacing" textLength="88" x="1822" y="145.4082">Gateway</text><rect fill="#EFEFFF" height="60.5625" rx="2.5" ry="2.5" style="stroke:#000000;stroke-width:0.5;" width="214" x="1759" y="1739.125"/><text fill="#000000" font-family="Impact" font-size="20" lengthAdjust="spacing" textLength="55" x="1838.5" y="1764.6895">Push-</text><text fill="#000000" font-family="Impact" font-size="20" lengthAdjust="spacing" textLength="88" x="1822" y="1787.9707">Gateway</text><rect fill="#C9FFC9" height="60.5625" rx="2.5" ry="2.5" style="stroke:#000000;stroke-width:0.5;" width="214" x="1984" y="96.5625"/><text fill="#000000" font-family="Impact" font-size="20" lengthAdjust="spacing" textLength="139" x="2021.5" y="122.127">TI-Messenger-</text><text fill="#000000" font-family="Impact" font-size="20" lengthAdjust="spacing" textLength="59" x="2061.5" y="145.4082">Client</text><rect fill="#C9FFC9" height="60.5625" rx="2.5" ry="2.5" style="stroke:#000000;stroke-width:0.5;" width="214" x="1984" y="1739.125"/><text fill="#000000" font-family="Impact" font-size="20" lengthAdjust="spacing" textLength="139" x="2021.5" y="1764.6895">TI-Messenger-</text><text fill="#000000" font-family="Impact" font-size="20" lengthAdjust="spacing" textLength="59" x="2061.5" y="1787.9707">Client</text><text fill="#000000" font-family="Aapex" font-size="20" lengthAdjust="spacing" textLength="6" x="2315" y="83.5645"> </text><text fill="#000000" font-family="Aapex" font-size="20" lengthAdjust="spacing" textLength="220" x="2208" y="106.8457">Akteur - B in der Rolle</text><text fill="#000000" font-family="Aapex" font-size="20" lengthAdjust="spacing" textLength="159" x="2238.5" y="130.127">User / User-HBA</text><text fill="#000000" font-family="Aapex" font-size="20" lengthAdjust="spacing" textLength="6" x="2315" y="153.4082"> </text><ellipse cx="2321" cy="13.5" fill="#DCDCDC" rx="8" ry="8" style="stroke:#000000;stroke-width:0.5;"/><path d="M2321,21.5 L2321,48.5 M2308,29.5 L2334,29.5 M2321,48.5 L2308,63.5 M2321,48.5 L2334,63.5 " fill="none" style="stroke:#000000;stroke-width:0.5;"/><text fill="#000000" font-family="Aapex" font-size="20" lengthAdjust="spacing" textLength="6" x="2315" y="1757.6895"> </text><text fill="#000000" font-family="Aapex" font-size="20" lengthAdjust="spacing" textLength="220" x="2208" y="1780.9707">Akteur - B in der Rolle</text><text fill="#000000" font-family="Aapex" font-size="20" lengthAdjust="spacing" textLength="159" x="2238.5" y="1804.252">User / User-HBA</text><text fill="#000000" font-family="Aapex" font-size="20" lengthAdjust="spacing" textLength="6" x="2315" y="1827.5332"> </text><ellipse cx="2321" cy="1840.75" fill="#DCDCDC" rx="8" ry="8" style="stroke:#000000;stroke-width:0.5;"/><path d="M2321,1848.75 L2321,1875.75 M2308,1856.75 L2334,1856.75 M2321,1875.75 L2308,1890.75 M2321,1875.75 L2334,1890.75 " fill="none" style="stroke:#000000;stroke-width:0.5;"/><rect fill="#F0F8FF" height="1237.0859" style="stroke:#000000;stroke-width:1.0;" width="10" x="358" y="337.25"/><rect fill="#DCDCDC" height="292.2813" style="stroke:#000000;stroke-width:1.0;" width="10" x="643" y="371.0391"/><rect fill="#DCDCDC" height="150.3672" style="stroke:#000000;stroke-width:1.0;" width="10" x="643" y="768.8984"/><rect fill="#DCDCDC" height="105.5781" style="stroke:#000000;stroke-width:1.0;" width="10" x="915" y="663.3203"/><rect fill="#DCDCDC" height="688.8594" style="stroke:#000000;stroke-width:1.0;" width="10" x="1141" y="919.2656"/><rect fill="#DCDCDC" height="462.125" style="stroke:#000000;stroke-width:1.0;" width="10" x="1413" y="1044.6328"/><rect fill="#DCDCDC" height="67.5781" style="stroke:#000000;stroke-width:1.0;" width="10" x="1861" y="1130.3125"/><rect fill="#C9FFC9" height="261.5234" style="stroke:#000000;stroke-width:1.0;" width="10" x="2086" y="1346.6016"/><path d="M22,198.125 L22,261.125 L2431,261.125 L2431,208.125 L2421,198.125 L22,198.125 " fill="#FEFFDD" style="stroke:#181818;stroke-width:0.5;"/><path d="M2421,198.125 L2421,208.125 L2431,208.125 L2421,198.125 " fill="#FEFFDD" style="stroke:#181818;stroke-width:0.5;"/><text fill="#000000" font-family="sans-serif" font-size="13" lengthAdjust="spacing" textLength="4" x="839.5" y="215.1919"> </text><text fill="#000000" font-family="sans-serif" font-size="20" lengthAdjust="spacing" textLength="765" x="839.5" y="236.8223">Die Akteure sind erfolgreich beim jeweiligen Messenger Service angemeldet</text><text fill="#000000" font-family="sans-serif" font-size="13" lengthAdjust="spacing" textLength="4" x="839.5" y="253.606"> </text><polygon fill="#000000" points="346,333.25,356,337.25,346,341.25,350,337.25" style="stroke:#000000;stroke-width:1.0;"/><line style="stroke:#000000;stroke-width:1.0;" x1="133" x2="352" y1="337.25" y2="337.25"/><text fill="#000000" font-family="sans-serif" font-size="17" lengthAdjust="spacing" textLength="91" x="140" y="311.4517">Akteur löst</text><text fill="#000000" font-family="sans-serif" font-size="17" lengthAdjust="spacing" textLength="143" x="140" y="331.2407">Matrix-Event aus</text><polygon fill="#000000" points="631,367.0391,641,371.0391,631,375.0391,635,371.0391" style="stroke:#000000;stroke-width:1.0;"/><line style="stroke:#000000;stroke-width:1.0;" x1="368" x2="637" y1="371.0391" y2="371.0391"/><text fill="#000000" font-family="sans-serif" font-size="17" lengthAdjust="spacing" textLength="128" x="375" y="365.0298">Matrix-Request</text><line style="stroke:#000000;stroke-width:1.0;" x1="653" x2="695" y1="444.4063" y2="444.4063"/><line style="stroke:#000000;stroke-width:1.0;" x1="695" x2="695" y1="444.4063" y2="457.4063"/><line style="stroke:#000000;stroke-width:1.0;" x1="654" x2="695" y1="457.4063" y2="457.4063"/><polygon fill="#000000" points="664,453.4063,654,457.4063,664,461.4063,660,457.4063" style="stroke:#000000;stroke-width:1.0;"/><text fill="#000000" font-family="sans-serif" font-size="17" lengthAdjust="spacing" textLength="130" x="660" y="398.8188">Check Request:</text><text fill="#000000" font-family="sans-serif" font-size="17" lengthAdjust="spacing" textLength="212" x="660" y="418.6079">Föderationszugehörigkeit</text><text fill="#000000" font-family="sans-serif" font-size="17" lengthAdjust="spacing" textLength="55" x="660" y="438.397">prüfen</text><path d="M10,497.4063 L80,497.4063 L80,504.5391 L70,514.5391 L10,514.5391 L10,497.4063 " fill="#D3D3D3" style="stroke:#000000;stroke-width:1.5;"/><rect fill="none" height="108.125" style="stroke:#000000;stroke-width:1.5;" width="755" x="10" y="497.4063"/><text fill="#000000" font-family="sans-serif" font-size="13" font-weight="bold" lengthAdjust="spacing" textLength="25" x="25" y="510.4731">opt</text><text fill="#000000" font-family="sans-serif" font-size="11" font-weight="bold" lengthAdjust="spacing" textLength="5" x="95" y="515.437">[</text><text fill="#000000" font-family="sans-serif" font-size="16" font-weight="bold" lengthAdjust="spacing" textLength="74" x="100" y="514.2578">Abbruch</text><text fill="#000000" font-family="sans-serif" font-size="11" font-weight="bold" lengthAdjust="spacing" textLength="5" x="174" y="515.437">]</text><polygon fill="#000000" points="379,539.9531,369,543.9531,379,547.9531,375,543.9531" style="stroke:#000000;stroke-width:1.0;"/><line style="stroke:#000000;stroke-width:1.0;stroke-dasharray:2.0,2.0;" x1="373" x2="642" y1="543.9531" y2="543.9531"/><text fill="#000000" font-family="sans-serif" font-size="17" lengthAdjust="spacing" textLength="251" x="385" y="537.9438">Domain nicht in TI-Föderation</text><polygon fill="#000000" points="144,593.5313,134,597.5313,144,601.5313,140,597.5313" style="stroke:#000000;stroke-width:1.0;"/><line style="stroke:#000000;stroke-width:1.0;stroke-dasharray:2.0,2.0;" x1="138" x2="357" y1="597.5313" y2="597.5313"/><text fill="#000000" font-family="sans-serif" font-size="17" lengthAdjust="spacing" textLength="160" x="186" y="571.7329">Event konnte nicht</text><text fill="#000000" font-family="sans-serif" font-size="17" lengthAdjust="spacing" textLength="161" x="186" y="591.522">verarbeitet werden</text><polygon fill="#000000" points="903,659.3203,913,663.3203,903,667.3203,907,663.3203" style="stroke:#000000;stroke-width:1.0;"/><line style="stroke:#000000;stroke-width:1.0;" x1="648" x2="909" y1="663.3203" y2="663.3203"/><text fill="#000000" font-family="sans-serif" font-size="17" lengthAdjust="spacing" textLength="117" x="655" y="657.311">HTTP Forward</text><line style="stroke:#000000;stroke-width:1.0;" x1="925" x2="967" y1="697.1094" y2="697.1094"/><line style="stroke:#000000;stroke-width:1.0;" x1="967" x2="967" y1="697.1094" y2="710.1094"/><line style="stroke:#000000;stroke-width:1.0;" x1="926" x2="967" y1="710.1094" y2="710.1094"/><polygon fill="#000000" points="936,706.1094,926,710.1094,936,714.1094,932,710.1094" style="stroke:#000000;stroke-width:1.0;"/><text fill="#000000" font-family="sans-serif" font-size="17" lengthAdjust="spacing" textLength="151" x="932" y="691.1001">Event verarbeiten</text><polygon fill="#000000" points="664,764.8984,654,768.8984,664,772.8984,660,768.8984" style="stroke:#000000;stroke-width:1.0;"/><line style="stroke:#000000;stroke-width:1.0;" x1="658" x2="919" y1="768.8984" y2="768.8984"/><text fill="#000000" font-family="sans-serif" font-size="17" lengthAdjust="spacing" textLength="128" x="785" y="762.8892">Matrix-Request</text><line style="stroke:#000000;stroke-width:1.0;" x1="653" x2="695" y1="847.4766" y2="847.4766"/><line style="stroke:#000000;stroke-width:1.0;" x1="695" x2="695" y1="847.4766" y2="860.4766"/><line style="stroke:#000000;stroke-width:1.0;" x1="654" x2="695" y1="860.4766" y2="860.4766"/><polygon fill="#000000" points="664,856.4766,654,860.4766,664,864.4766,660,860.4766" style="stroke:#000000;stroke-width:1.0;"/><text fill="#000000" font-family="sans-serif" font-size="17" lengthAdjust="spacing" textLength="130" x="660" y="821.6782">Check Request:</text><text fill="#000000" font-family="sans-serif" font-size="17" lengthAdjust="spacing" textLength="248" x="660" y="841.4673">remote Domain in Föderation</text><polygon fill="#000000" points="1129,915.2656,1139,919.2656,1129,923.2656,1133,919.2656" style="stroke:#000000;stroke-width:1.0;"/><line style="stroke:#000000;stroke-width:1.0;" x1="648" x2="1135" y1="919.2656" y2="919.2656"/><text fill="#000000" font-family="sans-serif" font-size="17" lengthAdjust="spacing" textLength="117" x="655" y="913.2563">HTTP Forward</text><line style="stroke:#000000;stroke-width:1.0;" x1="1151" x2="1193" y1="972.8438" y2="972.8438"/><line style="stroke:#000000;stroke-width:1.0;" x1="1193" x2="1193" y1="972.8438" y2="985.8438"/><line style="stroke:#000000;stroke-width:1.0;" x1="1152" x2="1193" y1="985.8438" y2="985.8438"/><polygon fill="#000000" points="1162,981.8438,1152,985.8438,1162,989.8438,1158,985.8438" style="stroke:#000000;stroke-width:1.0;"/><text fill="#000000" font-family="sans-serif" font-size="17" lengthAdjust="spacing" textLength="130" x="1158" y="947.0454">Check Request:</text><text fill="#000000" font-family="sans-serif" font-size="17" lengthAdjust="spacing" textLength="248" x="1158" y="966.8345">remote Domain in Föderation</text><polygon fill="#000000" points="1401,1040.6328,1411,1044.6328,1401,1048.6328,1405,1044.6328" style="stroke:#000000;stroke-width:1.0;"/><line style="stroke:#000000;stroke-width:1.0;" x1="1151" x2="1407" y1="1044.6328" y2="1044.6328"/><text fill="#000000" font-family="sans-serif" font-size="17" lengthAdjust="spacing" textLength="110" x="1158" y="1038.6235">HTTP Foward</text><path d="M236,1059.6328 L306,1059.6328 L306,1066.7656 L296,1076.7656 L236,1076.7656 L236,1059.6328 " fill="#EEEEEE" style="stroke:#000000;stroke-width:1.5;"/><rect fill="none" height="613.4922" style="stroke:#000000;stroke-width:1.5;" width="2218" x="236" y="1059.6328"/><text fill="#000000" font-family="sans-serif" font-size="13" font-weight="bold" lengthAdjust="spacing" textLength="25" x="251" y="1072.6997">par</text><path d="M1301,1083.7656 L1371,1083.7656 L1371,1090.8984 L1361,1100.8984 L1301,1100.8984 L1301,1083.7656 " fill="#EEEEEE" style="stroke:#000000;stroke-width:1.5;"/><rect fill="none" height="147.125" style="stroke:#000000;stroke-width:1.5;" width="907" x="1301" y="1083.7656"/><text fill="#000000" font-family="sans-serif" font-size="13" font-weight="bold" lengthAdjust="spacing" textLength="25" x="1316" y="1096.8325">opt</text><text fill="#000000" font-family="sans-serif" font-size="11" font-weight="bold" lengthAdjust="spacing" textLength="5" x="1386" y="1101.7964">[</text><text fill="#000000" font-family="sans-serif" font-size="16" font-weight="bold" lengthAdjust="spacing" textLength="43" x="1391" y="1100.6172">push</text><text fill="#000000" font-family="sans-serif" font-size="11" font-weight="bold" lengthAdjust="spacing" textLength="5" x="1434" y="1101.7964">]</text><polygon fill="#000000" points="1849,1126.3125,1859,1130.3125,1849,1134.3125,1853,1130.3125" style="stroke:#000000;stroke-width:1.0;"/><line style="stroke:#000000;stroke-width:1.0;" x1="1423" x2="1855" y1="1130.3125" y2="1130.3125"/><text fill="#000000" font-family="sans-serif" font-size="17" lengthAdjust="spacing" textLength="97" x="1430" y="1124.3032">Notification</text><polygon fill="#000000" points="2079,1160.1016,2089,1164.1016,2079,1168.1016,2083,1164.1016" style="stroke:#000000;stroke-width:1.0;"/><line style="stroke:#000000;stroke-width:1.0;" x1="1871" x2="2085" y1="1164.1016" y2="1164.1016"/><text fill="#000000" font-family="sans-serif" font-size="17" lengthAdjust="spacing" textLength="97" x="1878" y="1158.0923">Notification</text><polygon fill="#000000" points="1434,1193.8906,1424,1197.8906,1434,1201.8906,1430,1197.8906" style="stroke:#000000;stroke-width:1.0;"/><line style="stroke:#000000;stroke-width:1.0;stroke-dasharray:2.0,2.0;" x1="1428" x2="1865" y1="1197.8906" y2="1197.8906"/><text fill="#000000" font-family="sans-serif" font-size="17" lengthAdjust="spacing" textLength="54" x="1805" y="1191.8813">Status</text><path d="M246,1269.8906 L329,1269.8906 L329,1277.0234 L319,1287.0234 L246,1287.0234 L246,1269.8906 " fill="#EEEEEE" style="stroke:#000000;stroke-width:1.5;"/><rect fill="none" height="371.2344" style="stroke:#000000;stroke-width:1.5;" width="2198" x="246" y="1269.8906"/><text fill="#000000" font-family="sans-serif" font-size="13" font-weight="bold" lengthAdjust="spacing" textLength="38" x="261" y="1282.9575">/sync</text><polygon fill="#000000" points="1162,1308.8125,1152,1312.8125,1162,1316.8125,1158,1312.8125" style="stroke:#000000;stroke-width:1.0;"/><line style="stroke:#000000;stroke-width:1.0;" x1="1156" x2="1412" y1="1312.8125" y2="1312.8125"/><text fill="#000000" font-family="sans-serif" font-size="17" lengthAdjust="spacing" textLength="128" x="1278" y="1306.8032">Matrix-Request</text><polygon fill="#000000" points="2074,1342.6016,2084,1346.6016,2074,1350.6016,2078,1346.6016" style="stroke:#000000;stroke-width:1.0;"/><line style="stroke:#000000;stroke-width:1.0;" x1="1151" x2="2080" y1="1346.6016" y2="1346.6016"/><text fill="#000000" font-family="sans-serif" font-size="17" lengthAdjust="spacing" textLength="117" x="1158" y="1340.5923">HTTP Forward</text><polygon fill="#000000" points="2309,1376.3906,2319,1380.3906,2309,1384.3906,2313,1380.3906" style="stroke:#000000;stroke-width:1.0;"/><line style="stroke:#000000;stroke-width:1.0;" x1="2096" x2="2315" y1="1380.3906" y2="1380.3906"/><text fill="#000000" font-family="sans-serif" font-size="17" lengthAdjust="spacing" textLength="148" x="2103" y="1374.3813">Request anzeigen</text><polygon fill="#000000" points="1162,1410.1797,1152,1414.1797,1162,1418.1797,1158,1414.1797" style="stroke:#000000;stroke-width:1.0;"/><line style="stroke:#000000;stroke-width:1.0;stroke-dasharray:2.0,2.0;" x1="1156" x2="2085" y1="1414.1797" y2="1414.1797"/><text fill="#000000" font-family="sans-serif" font-size="17" lengthAdjust="spacing" textLength="54" x="2025" y="1408.1704">Status</text><polygon fill="#000000" points="1401,1468.9688,1411,1472.9688,1401,1476.9688,1405,1472.9688" style="stroke:#000000;stroke-width:1.0;"/><line style="stroke:#000000;stroke-width:1.0;stroke-dasharray:2.0,2.0;" x1="1151" x2="1407" y1="1472.9688" y2="1472.9688"/><text fill="#000000" font-family="sans-serif" font-size="17" lengthAdjust="spacing" textLength="117" x="1158" y="1466.9595">HTTP Forward</text><polygon fill="#000000" points="1162,1502.7578,1152,1506.7578,1162,1510.7578,1158,1506.7578" style="stroke:#000000;stroke-width:1.0;"/><line style="stroke:#000000;stroke-width:1.0;" x1="1156" x2="1417" y1="1506.7578" y2="1506.7578"/><text fill="#000000" font-family="sans-serif" font-size="17" lengthAdjust="spacing" textLength="201" x="1210" y="1500.7485">Status (Matrix-Request)</text><polygon fill="#000000" points="659,1536.5469,649,1540.5469,659,1544.5469,655,1540.5469" style="stroke:#000000;stroke-width:1.0;"/><line style="stroke:#000000;stroke-width:1.0;stroke-dasharray:2.0,2.0;" x1="653" x2="1140" y1="1540.5469" y2="1540.5469"/><text fill="#000000" font-family="sans-serif" font-size="17" lengthAdjust="spacing" textLength="117" x="1017" y="1534.5376">HTTP Forward</text><polygon fill="#000000" points="374,1570.3359,364,1574.3359,374,1578.3359,370,1574.3359" style="stroke:#000000;stroke-width:1.0;"/><line style="stroke:#000000;stroke-width:1.0;stroke-dasharray:2.0,2.0;" x1="368" x2="647" y1="1574.3359" y2="1574.3359"/><text fill="#000000" font-family="sans-serif" font-size="17" lengthAdjust="spacing" textLength="54" x="587" y="1568.3267">Status</text><polygon fill="#000000" points="2079,1604.125,2089,1608.125,2079,1612.125,2083,1608.125" style="stroke:#000000;stroke-width:1.0;"/><line style="stroke:#000000;stroke-width:1.0;stroke-dasharray:2.0,2.0;" x1="1146" x2="2085" y1="1608.125" y2="1608.125"/><text fill="#000000" font-family="sans-serif" font-size="17" lengthAdjust="spacing" textLength="117" x="1153" y="1602.1157">HTTP Forward</text><!--MD5=[8b4c8bc22f5c128788c2c5896b0bacab]
@startuml
skinparam sequenceMessageAlign direction
skinparam minClassWidth 200
skinparam BoxPadding 1
skinparam sequenceReferenceHeaderBackgroundColor palegreen
scale max 4096 width

skinparam sequence {
ArrowColor black
ArrowFontSize 17
ActorBorderColor black
LifeLineBorderColor black
LifeLineBackgroundColor Gainsboro

ParticipantBorderColor Motivation
ParticipantBackgroundColor Motivation
ParticipantFontName Impact
ParticipantFontSize 20
ParticipantFontColor black
ParticipantBorderColor Black
ParticipantBackgroundColor MOTIVATION

ActorBackgroundColor Gainsboro
ActorFontColor black
ActorFontSize 20
ActorFontName Aapex
}
    actor U1 as "\nAkteur - A in der Rolle\nUser / User-HBA\n"
    participant C1 as "TI-Messenger-\nClient" #AliceBlue
    box <size:18>Messenger-Service A</size> #WhiteSmoke
      participant MP1 as "Messenger-\nProxy"
      participant MH1 as "Matrix-\nHomeserver"
    end box
    box <size:18>Messenger-Service B</size> #Snow
    participant MP2 as "Messenger-\nProxy"
    participant MH2 as "Matrix-\nHomeserver"
    participant PS2 as "PASSPorT-\nService"
    participant PG2 as "Push-\nGateway"
    end box
    participant C2 as "TI-Messenger-\nClient" #TECHNOLOGY
    actor U2 as "\nAkteur - B in der Rolle\nUser / User-HBA\n"
    
    |||
note over U1, U2: \n<size:20>Die Akteure sind erfolgreich beim jeweiligen Messenger Service angemeldet</size>\n    
    
    |||
    U1->C1: Akteur löst\nMatrix-Event aus
      activate C1 #AliceBlue
      C1->MP1: Matrix-Request
      activate MP1
    MP1->MP1: Check Request:\nFöderationszugehörigkeit\nprüfen
      |||
    opt#LightGrey #MistyRose <size:16>Abbruch</size>
      MP1- ->C1: Domain nicht in TI-Föderation
      C1- ->U1: Event konnte nicht \nverarbeitet werden
    end
      |||
    MP1->MH1: HTTP Forward
      deactivate MP1
      activate MH1
    MH1->MH1: Event verarbeiten
      |||
    MH1->MP1: Matrix-Request
      deactivate MH1
      activate MP1
      |||
    MP1->MP1: Check Request:\nremote Domain in Föderation
      |||
    MP1->MP2: HTTP Forward
      deactivate MP1
      activate MP2
    MP2->MP2: Check Request:\nremote Domain in Föderation
      |||
    MP2->MH2: HTTP Foward
      activate MH2
    group par 
    opt <size:16>push</size>
    MH2->PG2: Notification
      activate PG2
    PG2->C2: Notification
    PG2- ->MH2: Status
      deactivate PG2
    |||
    end
      |||
      group /sync
        MH2->MP2: Matrix-Request
        MP2->C2: HTTP Forward
          activate C2 #TECHNOLOGY
        C2->U2: Request anzeigen
        C2- ->MP2: Status
          |||
        MP2- ->MH2: HTTP Forward
        MH2->MP2: Status (Matrix-Request)
          deactivate MH2
        MP2- ->MP1: HTTP Forward
        MP1- ->C1: Status
          deactivate C1
        MP2- ->C2: HTTP Forward
          deactivate C2
          deactivate MP2
          |||
      end
|||
    end
  |||
|||
@enduml

PlantUML version 1.2022.5(Sat Apr 30 10:55:52 UTC 2022)
(GPL source distribution)
Java Runtime: OpenJDK Runtime Environment
JVM: OpenJDK 64-Bit Server VM
Default Encoding: UTF-8
Language: en
Country: null
--></g></svg>