<?xml version="1.0" encoding="us-ascii" standalone="no"?><svg xmlns="http://www.w3.org/2000/svg" xmlns:xlink="http://www.w3.org/1999/xlink" contentStyleType="text/css" height="2205px" preserveAspectRatio="none" style="width:1895px;height:2205px;background:#FFFFFF;" version="1.1" viewBox="0 0 1895 2205" width="1895px" zoomAndPan="magnify"><defs/><g><rect fill="#F5F5F5" height="2193.9531" style="stroke:#181818;stroke-width:0.5;" width="881.5" x="542" y="6"/><text fill="#000000" font-family="sans-serif" font-size="18" font-weight="bold" lengthAdjust="spacing" textLength="193" x="883.75" y="22.708">Messenger-Service</text><text fill="#000000" font-family="sans-serif" font-size="13" font-weight="bold" lengthAdjust="spacing" textLength="5" x="1076.75" y="23.8872">&#160;</text><rect fill="#F0F8FF" height="1588.0703" style="stroke:#000000;stroke-width:1.0;" width="10" x="354" y="339.9531"/><rect fill="#DCDCDC" height="1568.2813" style="stroke:#000000;stroke-width:1.0;" width="10" x="648" y="393.5313"/><rect fill="#DCDCDC" height="100.3672" style="stroke:#000000;stroke-width:1.0;" width="10" x="1038" y="474.1094"/><rect fill="#DCDCDC" height="638.0156" style="stroke:#000000;stroke-width:1.0;" width="10" x="1038" y="1202.6406"/><rect fill="#DCDCDC" height="67.5781" style="stroke:#000000;stroke-width:1.0;" width="10" x="1307.5" y="1360.9766"/><rect fill="#C9FFC9" height="462.2578" style="stroke:#000000;stroke-width:1.0;" width="10" x="1532.5" y="1553.1328"/><rect fill="#F0F8FF" height="372.8594" style="stroke:#000000;stroke-width:1.5;" width="1211" x="10" y="268.4063"/><rect fill="#F0F8FF" height="1166.8672" style="stroke:#000000;stroke-width:1.5;" width="1878.5" x="10" y="881.5234"/><rect fill="#F0F8FF" height="892.1641" style="stroke:none;stroke-width:1.0;" width="1878.5" x="10" y="1156.2266"/><rect fill="#ADD8E6" height="172.125" style="stroke:#000000;stroke-width:1.5;" width="774" x="880.5" y="1289.4297"/><line style="stroke:#000000;stroke-width:0.5;stroke-dasharray:5.0,5.0;" x1="131" x2="131" y1="111.5625" y2="2090.3906"/><line style="stroke:#000000;stroke-width:0.5;stroke-dasharray:5.0,5.0;" x1="359" x2="359" y1="111.5625" y2="2090.3906"/><line style="stroke:#000000;stroke-width:0.5;stroke-dasharray:5.0,5.0;" x1="653" x2="653" y1="111.5625" y2="2090.3906"/><line style="stroke:#000000;stroke-width:0.5;stroke-dasharray:5.0,5.0;" x1="1042.5" x2="1042.5" y1="111.5625" y2="2090.3906"/><line style="stroke:#000000;stroke-width:0.5;stroke-dasharray:5.0,5.0;" x1="1312.5" x2="1312.5" y1="111.5625" y2="2090.3906"/><line style="stroke:#000000;stroke-width:0.5;stroke-dasharray:5.0,5.0;" x1="1537.5" x2="1537.5" y1="111.5625" y2="2090.3906"/><line style="stroke:#000000;stroke-width:0.5;stroke-dasharray:5.0,5.0;" x1="1766.5" x2="1766.5" y1="111.5625" y2="2090.3906"/><text fill="#000000" font-family="Aapex" font-size="20" lengthAdjust="spacing" textLength="216" x="20" y="83.5645">Akteur - A in der Rolle</text><text fill="#000000" font-family="Aapex" font-size="20" lengthAdjust="spacing" textLength="157" x="49.5" y="106.8457">User / User-HBA</text><ellipse cx="131" cy="13.5" fill="#DCDCDC" rx="8" ry="8" style="stroke:#000000;stroke-width:0.5;"/><path d="M131,21.5 L131,48.5 M118,29.5 L144,29.5 M131,48.5 L118,63.5 M131,48.5 L144,63.5 " fill="none" style="stroke:#000000;stroke-width:0.5;"/><text fill="#000000" font-family="Aapex" font-size="20" lengthAdjust="spacing" textLength="216" x="20" y="2107.9551">Akteur - A in der Rolle</text><text fill="#000000" font-family="Aapex" font-size="20" lengthAdjust="spacing" textLength="157" x="49.5" y="2131.2363">User / User-HBA</text><ellipse cx="131" cy="2144.4531" fill="#DCDCDC" rx="8" ry="8" style="stroke:#000000;stroke-width:0.5;"/><path d="M131,2152.4531 L131,2179.4531 M118,2160.4531 L144,2160.4531 M131,2179.4531 L118,2194.4531 M131,2179.4531 L144,2194.4531 " fill="none" style="stroke:#000000;stroke-width:0.5;"/><rect fill="#F0F8FF" height="60.5625" rx="2.5" ry="2.5" style="stroke:#000000;stroke-width:0.5;" width="214" x="252" y="50"/><text fill="#000000" font-family="Impact" font-size="20" lengthAdjust="spacing" textLength="139" x="289.5" y="75.5645">TI-Messenger-</text><text fill="#000000" font-family="Impact" font-size="20" lengthAdjust="spacing" textLength="79" x="319.5" y="98.8457">Client A</text><rect fill="#F0F8FF" height="60.5625" rx="2.5" ry="2.5" style="stroke:#000000;stroke-width:0.5;" width="214" x="252" y="2089.3906"/><text fill="#000000" font-family="Impact" font-size="20" lengthAdjust="spacing" textLength="139" x="289.5" y="2114.9551">TI-Messenger-</text><text fill="#000000" font-family="Impact" font-size="20" lengthAdjust="spacing" textLength="79" x="319.5" y="2138.2363">Client A</text><rect fill="#EFEFFF" height="60.5625" rx="2.5" ry="2.5" style="stroke:#000000;stroke-width:0.5;" width="214" x="546" y="50"/><text fill="#000000" font-family="Impact" font-size="20" lengthAdjust="spacing" textLength="114" x="596" y="75.5645">Messenger-</text><text fill="#000000" font-family="Impact" font-size="20" lengthAdjust="spacing" textLength="54" x="626" y="98.8457">Proxy</text><rect fill="#EFEFFF" height="60.5625" rx="2.5" ry="2.5" style="stroke:#000000;stroke-width:0.5;" width="214" x="546" y="2089.3906"/><text fill="#000000" font-family="Impact" font-size="20" lengthAdjust="spacing" textLength="114" x="596" y="2114.9551">Messenger-</text><text fill="#000000" font-family="Impact" font-size="20" lengthAdjust="spacing" textLength="54" x="626" y="2138.2363">Proxy</text><rect fill="#EFEFFF" height="60.5625" rx="2.5" ry="2.5" style="stroke:#000000;stroke-width:0.5;" width="305" x="890.5" y="50"/><text fill="#000000" font-family="Impact" font-size="20" lengthAdjust="spacing" textLength="189" x="945.5" y="75.5645">Matrix-Homeserver</text><text fill="#000000" font-family="Impact" font-size="20" lengthAdjust="spacing" textLength="291" x="897.5" y="98.8457">(inklusive Nutzerverzeichnis)</text><rect fill="#EFEFFF" height="60.5625" rx="2.5" ry="2.5" style="stroke:#000000;stroke-width:0.5;" width="305" x="890.5" y="2089.3906"/><text fill="#000000" font-family="Impact" font-size="20" lengthAdjust="spacing" textLength="189" x="945.5" y="2114.9551">Matrix-Homeserver</text><text fill="#000000" font-family="Impact" font-size="20" lengthAdjust="spacing" textLength="291" x="897.5" y="2138.2363">(inklusive Nutzerverzeichnis)</text><rect fill="#EFEFFF" height="37.2813" rx="2.5" ry="2.5" style="stroke:#000000;stroke-width:0.5;" width="214" x="1205.5" y="73.2813"/><text fill="#000000" font-family="Impact" font-size="20" lengthAdjust="spacing" textLength="143" x="1241" y="98.8457">Push-Gateway</text><rect fill="#EFEFFF" height="37.2813" rx="2.5" ry="2.5" style="stroke:#000000;stroke-width:0.5;" width="214" x="1205.5" y="2089.3906"/><text fill="#000000" font-family="Impact" font-size="20" lengthAdjust="spacing" textLength="143" x="1241" y="2114.9551">Push-Gateway</text><rect fill="#C9FFC9" height="60.5625" rx="2.5" ry="2.5" style="stroke:#000000;stroke-width:0.5;" width="214" x="1430.5" y="50"/><text fill="#000000" font-family="Impact" font-size="20" lengthAdjust="spacing" textLength="139" x="1468" y="75.5645">TI-Messenger-</text><text fill="#000000" font-family="Impact" font-size="20" lengthAdjust="spacing" textLength="79" x="1498" y="98.8457">Client B</text><rect fill="#C9FFC9" height="60.5625" rx="2.5" ry="2.5" style="stroke:#000000;stroke-width:0.5;" width="214" x="1430.5" y="2089.3906"/><text fill="#000000" font-family="Impact" font-size="20" lengthAdjust="spacing" textLength="139" x="1468" y="2114.9551">TI-Messenger-</text><text fill="#000000" font-family="Impact" font-size="20" lengthAdjust="spacing" textLength="79" x="1498" y="2138.2363">Client B</text><text fill="#000000" font-family="Aapex" font-size="20" lengthAdjust="spacing" textLength="218" x="1654.5" y="83.5645">Akteur - B in der Rolle</text><text fill="#000000" font-family="Aapex" font-size="20" lengthAdjust="spacing" textLength="157" x="1685" y="106.8457">User / User-HBA</text><ellipse cx="1766.5" cy="13.5" fill="#DCDCDC" rx="8" ry="8" style="stroke:#000000;stroke-width:0.5;"/><path d="M1766.5,21.5 L1766.5,48.5 M1753.5,29.5 L1779.5,29.5 M1766.5,48.5 L1753.5,63.5 M1766.5,48.5 L1779.5,63.5 " fill="none" style="stroke:#000000;stroke-width:0.5;"/><text fill="#000000" font-family="Aapex" font-size="20" lengthAdjust="spacing" textLength="218" x="1654.5" y="2107.9551">Akteur - B in der Rolle</text><text fill="#000000" font-family="Aapex" font-size="20" lengthAdjust="spacing" textLength="157" x="1685" y="2131.2363">User / User-HBA</text><ellipse cx="1766.5" cy="2144.4531" fill="#DCDCDC" rx="8" ry="8" style="stroke:#000000;stroke-width:0.5;"/><path d="M1766.5,2152.4531 L1766.5,2179.4531 M1753.5,2160.4531 L1779.5,2160.4531 M1766.5,2179.4531 L1753.5,2194.4531 M1766.5,2179.4531 L1779.5,2194.4531 " fill="none" style="stroke:#000000;stroke-width:0.5;"/><rect fill="#F0F8FF" height="1588.0703" style="stroke:#000000;stroke-width:1.0;" width="10" x="354" y="339.9531"/><rect fill="#DCDCDC" height="1568.2813" style="stroke:#000000;stroke-width:1.0;" width="10" x="648" y="393.5313"/><rect fill="#DCDCDC" height="100.3672" style="stroke:#000000;stroke-width:1.0;" width="10" x="1038" y="474.1094"/><rect fill="#DCDCDC" height="638.0156" style="stroke:#000000;stroke-width:1.0;" width="10" x="1038" y="1202.6406"/><rect fill="#DCDCDC" height="67.5781" style="stroke:#000000;stroke-width:1.0;" width="10" x="1307.5" y="1360.9766"/><rect fill="#C9FFC9" height="462.2578" style="stroke:#000000;stroke-width:1.0;" width="10" x="1532.5" y="1553.1328"/><path d="M22,151.5625 L22,230.5625 L1875,230.5625 L1875,161.5625 L1865,151.5625 L22,151.5625 " fill="#FEFFDD" style="stroke:#181818;stroke-width:0.5;"/><path d="M1865,151.5625 L1865,161.5625 L1875,161.5625 L1865,151.5625 " fill="#FEFFDD" style="stroke:#181818;stroke-width:0.5;"/><text fill="#000000" font-family="sans-serif" font-size="13" lengthAdjust="spacing" textLength="4" x="440.75" y="168.6294">&#160;</text><text fill="#000000" font-family="sans-serif" font-size="17" lengthAdjust="spacing" textLength="1007" x="440.75" y="187.4751">Die Akteure sind auf dem selben Messenger-Service angemeldet und im Besitz eines zugelassenen TI-Messenger-Clients.</text><text fill="#000000" font-family="sans-serif" font-size="17" lengthAdjust="spacing" textLength="473" x="440.75" y="207.2642">Ein Chatraum wurde durch den Einladenen eingerichtet.</text><text fill="#000000" font-family="sans-serif" font-size="13" lengthAdjust="spacing" textLength="4" x="440.75" y="223.3403">&#160;</text><path d="M10,268.4063 L80,268.4063 L80,275.5391 L70,285.5391 L10,285.5391 L10,268.4063 " fill="#D3D3D3" style="stroke:#000000;stroke-width:1.5;"/><rect fill="none" height="372.8594" style="stroke:#000000;stroke-width:1.5;" width="1211" x="10" y="268.4063"/><text fill="#000000" font-family="sans-serif" font-size="13" font-weight="bold" lengthAdjust="spacing" textLength="25" x="25" y="281.4731">opt</text><text fill="#000000" font-family="sans-serif" font-size="11" font-weight="bold" lengthAdjust="spacing" textLength="5" x="95" y="286.437">[</text><text fill="#000000" font-family="sans-serif" font-size="16" font-weight="bold" lengthAdjust="spacing" textLength="131" x="100" y="285.2578">Akteur suchen</text><text fill="#000000" font-family="sans-serif" font-size="11" font-weight="bold" lengthAdjust="spacing" textLength="5" x="231" y="286.437">]</text><polygon fill="#000000" points="342,335.9531,352,339.9531,342,343.9531,346,339.9531" style="stroke:#000000;stroke-width:1.0;"/><line style="stroke:#000000;stroke-width:1.0;" x1="131" x2="348" y1="339.9531" y2="339.9531"/><text fill="#000000" font-family="sans-serif" font-size="17" lengthAdjust="spacing" textLength="129" x="138" y="333.9438">Suche Akteur B</text><polygon fill="#000000" points="636,389.5313,646,393.5313,636,397.5313,640,393.5313" style="stroke:#000000;stroke-width:1.0;"/><line style="stroke:#000000;stroke-width:1.0;" x1="364" x2="642" y1="393.5313" y2="393.5313"/><text fill="#000000" font-family="sans-serif" font-size="17" lengthAdjust="spacing" textLength="178" x="371" y="367.7329">POST /_matrix/client/</text><text fill="#000000" font-family="sans-serif" font-size="17" lengthAdjust="spacing" textLength="179" x="371" y="387.522">user_directory/search</text><line style="stroke:#000000;stroke-width:1.0;" x1="658" x2="700" y1="427.3203" y2="427.3203"/><line style="stroke:#000000;stroke-width:1.0;" x1="700" x2="700" y1="427.3203" y2="440.3203"/><line style="stroke:#000000;stroke-width:1.0;" x1="659" x2="700" y1="440.3203" y2="440.3203"/><polygon fill="#000000" points="669,436.3203,659,440.3203,669,444.3203,665,440.3203" style="stroke:#000000;stroke-width:1.0;"/><text fill="#000000" font-family="sans-serif" font-size="17" lengthAdjust="spacing" textLength="150" x="665" y="421.311">TLS-Terminierung</text><polygon fill="#000000" points="1026,470.1094,1036,474.1094,1026,478.1094,1030,474.1094" style="stroke:#000000;stroke-width:1.0;"/><line style="stroke:#000000;stroke-width:1.0;" x1="658" x2="1032" y1="474.1094" y2="474.1094"/><text fill="#000000" font-family="sans-serif" font-size="17" lengthAdjust="spacing" textLength="142" x="665" y="468.1001">HTTP(S) Forward</text><line style="stroke:#000000;stroke-width:1.0;stroke-dasharray:2.0,2.0;" x1="1048" x2="1090" y1="527.6875" y2="527.6875"/><line style="stroke:#000000;stroke-width:1.0;stroke-dasharray:2.0,2.0;" x1="1090" x2="1090" y1="527.6875" y2="540.6875"/><line style="stroke:#000000;stroke-width:1.0;stroke-dasharray:2.0,2.0;" x1="1049" x2="1090" y1="540.6875" y2="540.6875"/><polygon fill="#000000" points="1059,536.6875,1049,540.6875,1059,544.6875,1055,540.6875" style="stroke:#000000;stroke-width:1.0;"/><text fill="#000000" font-family="sans-serif" font-size="17" lengthAdjust="spacing" textLength="149" x="1055" y="501.8892">Nutzerverzeichnis</text><text fill="#000000" font-family="sans-serif" font-size="17" lengthAdjust="spacing" textLength="106" x="1055" y="521.6782">durchsuchen</text><polygon fill="#000000" points="669,570.4766,659,574.4766,669,578.4766,665,574.4766" style="stroke:#000000;stroke-width:1.0;"/><line style="stroke:#000000;stroke-width:1.0;stroke-dasharray:2.0,2.0;" x1="663" x2="1042" y1="574.4766" y2="574.4766"/><text fill="#000000" font-family="sans-serif" font-size="17" lengthAdjust="spacing" textLength="47" x="989" y="568.4673">MXID</text><polygon fill="#000000" points="375,604.2656,365,608.2656,375,612.2656,371,608.2656" style="stroke:#000000;stroke-width:1.0;"/><line style="stroke:#000000;stroke-width:1.0;stroke-dasharray:2.0,2.0;" x1="369" x2="647" y1="608.2656" y2="608.2656"/><text fill="#000000" font-family="sans-serif" font-size="17" lengthAdjust="spacing" textLength="142" x="499" y="602.2563">HTTP(S) Forward</text><polygon fill="#000000" points="342,695.0547,352,699.0547,342,703.0547,346,699.0547" style="stroke:#000000;stroke-width:1.0;"/><line style="stroke:#000000;stroke-width:1.0;" x1="131" x2="348" y1="699.0547" y2="699.0547"/><text fill="#000000" font-family="sans-serif" font-size="17" lengthAdjust="spacing" textLength="150" x="138" y="693.0454">Akteur B einladen</text><polygon fill="#000000" points="636,748.6328,646,752.6328,636,756.6328,640,752.6328" style="stroke:#000000;stroke-width:1.0;"/><line style="stroke:#000000;stroke-width:1.0;" x1="364" x2="642" y1="752.6328" y2="752.6328"/><text fill="#000000" font-family="sans-serif" font-size="17" lengthAdjust="spacing" textLength="260" x="371" y="726.8345">POST /_matrix/client/r0/rooms/</text><text fill="#000000" font-family="sans-serif" font-size="17" lengthAdjust="spacing" textLength="215" x="371" y="746.6235">{roomId}/invite (roomId)</text><rect fill="none" height="58.8906" style="stroke:#000000;stroke-width:1.5;" width="600" x="543" y="785.6328"/><path d="M543,785.6328 L609,785.6328 L609,792.6328 L599,802.6328 L543,802.6328 L543,785.6328 " fill="#98FB98" style="stroke:#000000;stroke-width:2.0;"/><text fill="#000000" font-family="sans-serif" font-size="13" font-weight="bold" lengthAdjust="spacing" textLength="21" x="556" y="799.6997">ref</text><text fill="#000000" font-family="sans-serif" font-size="17" font-weight="bold" lengthAdjust="spacing" textLength="94" x="547" y="822.4126">AF_10064</text><text fill="#000000" font-family="sans-serif" font-size="17" lengthAdjust="spacing" textLength="493" x="646" y="822.4126">- F&#246;derationszugeh&#246;rigkeit eines Messenger-Service pr&#252;fen</text><text fill="#000000" font-family="sans-serif" font-size="12" lengthAdjust="spacing" textLength="4" x="841" y="837.5605">&#160;</text><path d="M10,881.5234 L74,881.5234 L74,888.6563 L64,898.6563 L10,898.6563 L10,881.5234 " fill="#D3D3D3" style="stroke:#000000;stroke-width:1.5;"/><rect fill="none" height="1166.8672" style="stroke:#000000;stroke-width:1.5;" width="1878.5" x="10" y="881.5234"/><text fill="#000000" font-family="sans-serif" font-size="13" font-weight="bold" lengthAdjust="spacing" textLength="19" x="25" y="894.5903">alt</text><text fill="#000000" font-family="sans-serif" font-size="11" font-weight="bold" lengthAdjust="spacing" textLength="5" x="89" y="899.5542">[</text><text fill="#000000" font-family="sans-serif" font-size="16" font-weight="bold" lengthAdjust="spacing" textLength="427" x="94" y="898.375">Matrix-Domain nicht in der F&#246;deration enthalten</text><text fill="#000000" font-family="sans-serif" font-size="11" font-weight="bold" lengthAdjust="spacing" textLength="5" x="521" y="899.5542">]</text><polygon fill="#000000" points="375,968.8594,365,972.8594,375,976.8594,371,972.8594" style="stroke:#000000;stroke-width:1.0;"/><line style="stroke:#000000;stroke-width:1.0;stroke-dasharray:2.0,2.0;" x1="369" x2="647" y1="972.8594" y2="972.8594"/><text fill="#000000" font-family="sans-serif" font-size="17" lengthAdjust="spacing" textLength="81" x="528" y="947.061">HTTP 401</text><text fill="#000000" font-family="sans-serif" font-size="17" lengthAdjust="spacing" textLength="113" x="528" y="966.8501">Unauthorized</text><line style="stroke:#000000;stroke-width:1.0;stroke-dasharray:2.0,2.0;" x1="364" x2="406" y1="1031.6484" y2="1031.6484"/><line style="stroke:#000000;stroke-width:1.0;stroke-dasharray:2.0,2.0;" x1="406" x2="406" y1="1031.6484" y2="1044.6484"/><line style="stroke:#000000;stroke-width:1.0;stroke-dasharray:2.0,2.0;" x1="365" x2="406" y1="1044.6484" y2="1044.6484"/><polygon fill="#000000" points="375,1040.6484,365,1044.6484,375,1048.6484,371,1044.6484" style="stroke:#000000;stroke-width:1.0;"/><text fill="#000000" font-family="sans-serif" font-size="17" lengthAdjust="spacing" textLength="195" x="371" y="1025.6392">Abmeldung der Session</text><polygon fill="#000000" points="142,1119.2266,132,1123.2266,142,1127.2266,138,1123.2266" style="stroke:#000000;stroke-width:1.0;"/><line style="stroke:#000000;stroke-width:1.0;stroke-dasharray:2.0,2.0;" x1="136" x2="353" y1="1123.2266" y2="1123.2266"/><text fill="#000000" font-family="sans-serif" font-size="17" lengthAdjust="spacing" textLength="143" x="199" y="1097.4282">Anmeldung nicht</text><text fill="#000000" font-family="sans-serif" font-size="17" lengthAdjust="spacing" textLength="89" x="199" y="1117.2173">erfolgreich</text><line style="stroke:#000000;stroke-width:1.0;stroke-dasharray:2.0,2.0;" x1="10" x2="1888.5" y1="1157.2266" y2="1157.2266"/><text fill="#000000" font-family="sans-serif" font-size="11" font-weight="bold" lengthAdjust="spacing" textLength="5" x="15" y="1173.2573">[</text><text fill="#000000" font-family="sans-serif" font-size="16" font-weight="bold" lengthAdjust="spacing" textLength="377" x="20" y="1172.0781">Matrix-Domain in der F&#246;deration enthalten</text><text fill="#000000" font-family="sans-serif" font-size="11" font-weight="bold" lengthAdjust="spacing" textLength="5" x="397" y="1173.2573">]</text><polygon fill="#000000" points="1026,1198.6406,1036,1202.6406,1026,1206.6406,1030,1202.6406" style="stroke:#000000;stroke-width:1.0;"/><line style="stroke:#000000;stroke-width:1.0;" x1="658" x2="1032" y1="1202.6406" y2="1202.6406"/><text fill="#000000" font-family="sans-serif" font-size="17" lengthAdjust="spacing" textLength="135" x="665" y="1196.6313">HTTP(S) Foward</text><line style="stroke:#000000;stroke-width:1.0;" x1="1048" x2="1090" y1="1236.4297" y2="1236.4297"/><line style="stroke:#000000;stroke-width:1.0;" x1="1090" x2="1090" y1="1236.4297" y2="1249.4297"/><line style="stroke:#000000;stroke-width:1.0;" x1="1049" x2="1090" y1="1249.4297" y2="1249.4297"/><polygon fill="#000000" points="1059,1245.4297,1049,1249.4297,1059,1253.4297,1055,1249.4297" style="stroke:#000000;stroke-width:1.0;"/><text fill="#000000" font-family="sans-serif" font-size="17" lengthAdjust="spacing" textLength="151" x="1055" y="1230.4204">Invite verarbeiten</text><path d="M880.5,1289.4297 L950.5,1289.4297 L950.5,1296.5625 L940.5,1306.5625 L880.5,1306.5625 L880.5,1289.4297 " fill="#D3D3D3" style="stroke:#000000;stroke-width:1.5;"/><rect fill="none" height="172.125" style="stroke:#000000;stroke-width:1.5;" width="774" x="880.5" y="1289.4297"/><text fill="#000000" font-family="sans-serif" font-size="13" font-weight="bold" lengthAdjust="spacing" textLength="25" x="895.5" y="1302.4966">opt</text><text fill="#000000" font-family="sans-serif" font-size="11" font-weight="bold" lengthAdjust="spacing" textLength="5" x="965.5" y="1307.4604">[</text><text fill="#000000" font-family="sans-serif" font-size="16" font-weight="bold" lengthAdjust="spacing" textLength="197" x="970.5" y="1306.2813">Pushbenachrichtigung</text><text fill="#000000" font-family="sans-serif" font-size="11" font-weight="bold" lengthAdjust="spacing" textLength="5" x="1167.5" y="1307.4604">]</text><polygon fill="#000000" points="1295.5,1356.9766,1305.5,1360.9766,1295.5,1364.9766,1299.5,1360.9766" style="stroke:#000000;stroke-width:1.0;"/><line style="stroke:#000000;stroke-width:1.0;" x1="1048" x2="1301.5" y1="1360.9766" y2="1360.9766"/><text fill="#000000" font-family="sans-serif" font-size="17" lengthAdjust="spacing" textLength="221" x="1055" y="1354.9673">POST /_matrix/push/notify</text><polygon fill="#000000" points="1525.5,1390.7656,1535.5,1394.7656,1525.5,1398.7656,1529.5,1394.7656" style="stroke:#000000;stroke-width:1.0;"/><line style="stroke:#000000;stroke-width:1.0;" x1="1317.5" x2="1531.5" y1="1394.7656" y2="1394.7656"/><text fill="#000000" font-family="sans-serif" font-size="17" lengthAdjust="spacing" textLength="97" x="1324.5" y="1388.7563">Notification</text><polygon fill="#000000" points="1059,1424.5547,1049,1428.5547,1059,1432.5547,1055,1428.5547" style="stroke:#000000;stroke-width:1.0;"/><line style="stroke:#000000;stroke-width:1.0;stroke-dasharray:2.0,2.0;" x1="1053" x2="1311.5" y1="1428.5547" y2="1428.5547"/><text fill="#000000" font-family="sans-serif" font-size="17" lengthAdjust="spacing" textLength="54" x="1251.5" y="1422.5454">Status</text><polygon fill="#000000" points="669,1515.3438,659,1519.3438,669,1523.3438,665,1519.3438" style="stroke:#000000;stroke-width:1.0;"/><line style="stroke:#000000;stroke-width:1.0;" x1="663" x2="1037" y1="1519.3438" y2="1519.3438"/><text fill="#000000" font-family="sans-serif" font-size="17" lengthAdjust="spacing" textLength="122" x="909" y="1513.3345">Invite Request</text><polygon fill="#000000" points="1520.5,1549.1328,1530.5,1553.1328,1520.5,1557.1328,1524.5,1553.1328" style="stroke:#000000;stroke-width:1.0;"/><line style="stroke:#000000;stroke-width:1.0;" x1="658" x2="1526.5" y1="1553.1328" y2="1553.1328"/><text fill="#000000" font-family="sans-serif" font-size="17" lengthAdjust="spacing" textLength="142" x="665" y="1547.1235">HTTP(S) Forward</text><polygon fill="#000000" points="1754.5,1582.9219,1764.5,1586.9219,1754.5,1590.9219,1758.5,1586.9219" style="stroke:#000000;stroke-width:1.0;"/><line style="stroke:#000000;stroke-width:1.0;" x1="1542.5" x2="1760.5" y1="1586.9219" y2="1586.9219"/><text fill="#000000" font-family="sans-serif" font-size="17" lengthAdjust="spacing" textLength="164" x="1549.5" y="1580.9126">Einladung anzeigen</text><polygon fill="#000000" points="1553.5,1616.7109,1543.5,1620.7109,1553.5,1624.7109,1549.5,1620.7109" style="stroke:#000000;stroke-width:1.0;"/><line style="stroke:#000000;stroke-width:1.0;stroke-dasharray:2.0,2.0;" x1="1547.5" x2="1765.5" y1="1620.7109" y2="1620.7109"/><text fill="#000000" font-family="sans-serif" font-size="17" lengthAdjust="spacing" textLength="177" x="1582.5" y="1614.7017">Einladung best&#228;tigen</text><polygon fill="#000000" points="669,1650.5,659,1654.5,669,1658.5,665,1654.5" style="stroke:#000000;stroke-width:1.0;"/><line style="stroke:#000000;stroke-width:1.0;" x1="663" x2="1531.5" y1="1654.5" y2="1654.5"/><text fill="#000000" font-family="sans-serif" font-size="17" lengthAdjust="spacing" textLength="64" x="1461.5" y="1648.4907">commit</text><line style="stroke:#000000;stroke-width:1.0;" x1="658" x2="700" y1="1713.2891" y2="1713.2891"/><line style="stroke:#000000;stroke-width:1.0;" x1="700" x2="700" y1="1713.2891" y2="1726.2891"/><line style="stroke:#000000;stroke-width:1.0;" x1="659" x2="700" y1="1726.2891" y2="1726.2891"/><polygon fill="#000000" points="669,1722.2891,659,1726.2891,669,1730.2891,665,1726.2891" style="stroke:#000000;stroke-width:1.0;"/><text fill="#000000" font-family="sans-serif" font-size="17" lengthAdjust="spacing" textLength="149" x="665" y="1707.2798">TLS Terminierung</text><polygon fill="#000000" points="1026,1756.0781,1036,1760.0781,1026,1764.0781,1030,1760.0781" style="stroke:#000000;stroke-width:1.0;"/><line style="stroke:#000000;stroke-width:1.0;stroke-dasharray:2.0,2.0;" x1="658" x2="1032" y1="1760.0781" y2="1760.0781"/><text fill="#000000" font-family="sans-serif" font-size="17" lengthAdjust="spacing" textLength="142" x="665" y="1754.0688">HTTP(S) Forward</text><line style="stroke:#000000;stroke-width:1.0;stroke-dasharray:2.0,2.0;" x1="1048" x2="1090" y1="1793.8672" y2="1793.8672"/><line style="stroke:#000000;stroke-width:1.0;stroke-dasharray:2.0,2.0;" x1="1090" x2="1090" y1="1793.8672" y2="1806.8672"/><line style="stroke:#000000;stroke-width:1.0;stroke-dasharray:2.0,2.0;" x1="1049" x2="1090" y1="1806.8672" y2="1806.8672"/><polygon fill="#000000" points="1059,1802.8672,1049,1806.8672,1059,1810.8672,1055,1806.8672" style="stroke:#000000;stroke-width:1.0;"/><text fill="#000000" font-family="sans-serif" font-size="17" lengthAdjust="spacing" textLength="127" x="1055" y="1787.8579">Invite ausl&#246;sen</text><polygon fill="#000000" points="669,1836.6563,659,1840.6563,669,1844.6563,665,1840.6563" style="stroke:#000000;stroke-width:1.0;"/><line style="stroke:#000000;stroke-width:1.0;stroke-dasharray:2.0,2.0;" x1="663" x2="1042" y1="1840.6563" y2="1840.6563"/><text fill="#000000" font-family="sans-serif" font-size="17" lengthAdjust="spacing" textLength="54" x="982" y="1834.647">Status</text><polygon fill="#000000" points="375,1870.4453,365,1874.4453,375,1878.4453,371,1874.4453" style="stroke:#000000;stroke-width:1.0;"/><line style="stroke:#000000;stroke-width:1.0;stroke-dasharray:2.0,2.0;" x1="369" x2="647" y1="1874.4453" y2="1874.4453"/><text fill="#000000" font-family="sans-serif" font-size="17" lengthAdjust="spacing" textLength="54" x="587" y="1868.436">Status</text><polygon fill="#000000" points="142,1924.0234,132,1928.0234,142,1932.0234,138,1928.0234" style="stroke:#000000;stroke-width:1.0;"/><line style="stroke:#000000;stroke-width:1.0;stroke-dasharray:2.0,2.0;" x1="136" x2="358" y1="1928.0234" y2="1928.0234"/><text fill="#000000" font-family="sans-serif" font-size="17" lengthAdjust="spacing" textLength="113" x="197" y="1902.2251">Nutzer in den</text><text fill="#000000" font-family="sans-serif" font-size="17" lengthAdjust="spacing" textLength="155" x="197" y="1922.0142">Raum hinzugef&#252;gt</text><polygon fill="#000000" points="1520.5,1957.8125,1530.5,1961.8125,1520.5,1965.8125,1524.5,1961.8125" style="stroke:#000000;stroke-width:1.0;"/><line style="stroke:#000000;stroke-width:1.0;stroke-dasharray:2.0,2.0;" x1="653" x2="1526.5" y1="1961.8125" y2="1961.8125"/><text fill="#000000" font-family="sans-serif" font-size="17" lengthAdjust="spacing" textLength="54" x="660" y="1955.8032">Status</text><polygon fill="#000000" points="1754.5,2011.3906,1764.5,2015.3906,1754.5,2019.3906,1758.5,2015.3906" style="stroke:#000000;stroke-width:1.0;"/><line style="stroke:#000000;stroke-width:1.0;stroke-dasharray:2.0,2.0;" x1="1537.5" x2="1760.5" y1="2015.3906" y2="2015.3906"/><text fill="#000000" font-family="sans-serif" font-size="17" lengthAdjust="spacing" textLength="123" x="1544.5" y="1989.5923">Nutzer ist dem</text><text fill="#000000" font-family="sans-serif" font-size="17" lengthAdjust="spacing" textLength="152" x="1544.5" y="2009.3813">Raum beigetreten</text></g></svg>