<?xml version="1.0" encoding="us-ascii" standalone="no"?><svg xmlns="http://www.w3.org/2000/svg" xmlns:xlink="http://www.w3.org/1999/xlink" contentStyleType="text/css" height="1720.0952px" preserveAspectRatio="none" style="width:2048px;height:1720px;background:#FFFFFF;" version="1.1" viewBox="0 0 2048 1720" width="2048.9369px" zoomAndPan="magnify"><defs/><g><rect fill="#F5F5F5" height="1709.1455" style="stroke:#181818;stroke-width:0.4684354986276304;" width="417.8445" x="463.7511" y="5.6212"/><text fill="#000000" font-family="sans-serif" font-size="16.8637" font-weight="bold" lengthAdjust="spacing" textLength="199.5535" x="570.5544" y="21.2745">Messenger-Service A</text><text fill="#000000" font-family="sans-serif" font-size="12.1793" font-weight="bold" lengthAdjust="spacing" textLength="4.6844" x="770.108" y="22.3792">&#160;</text><rect fill="#F5F5F5" height="1709.1455" style="stroke:#181818;stroke-width:0.4684354986276304;" width="662.3678" x="920.9442" y="5.6212"/><text fill="#000000" font-family="sans-serif" font-size="16.8637" font-weight="bold" lengthAdjust="spacing" textLength="199.5535" x="1150.0091" y="21.2745">Messenger-Service B</text><text fill="#000000" font-family="sans-serif" font-size="12.1793" font-weight="bold" lengthAdjust="spacing" textLength="4.6844" x="1349.5627" y="22.3792">&#160;</text><rect fill="#F0F8FF" height="170.6276" style="stroke:#F0F8FF;stroke-width:0.9368709972552608;" width="1734.1482" x="7.495" y="913.0686"/><line style="stroke:#000000;stroke-width:0.4684354986276304;stroke-dasharray:5.0,5.0;" x1="128.3513" x2="128.3513" y1="172.4575" y2="1565.6871"/><line style="stroke:#000000;stroke-width:0.4684354986276304;stroke-dasharray:5.0,5.0;" x1="343.8317" x2="343.8317" y1="172.4575" y2="1565.6871"/><rect fill="#F0F8FF" height="1179.0302" style="stroke:#000000;stroke-width:0.9368709972552608;" width="9.3687" x="339.1473" y="335.129"/><line style="stroke:#000000;stroke-width:0.4684354986276304;stroke-dasharray:5.0,5.0;" x1="567.7438" x2="567.7438" y1="172.4575" y2="1565.6871"/><rect fill="#DCDCDC" height="1135.1949" style="stroke:#000000;stroke-width:0.9368709972552608;" width="9.3687" x="563.0595" y="366.785"/><line style="stroke:#000000;stroke-width:0.4684354986276304;stroke-dasharray:5.0,5.0;" x1="777.6029" x2="777.6029" y1="172.4575" y2="1565.6871"/><rect fill="#DCDCDC" height="117.4529" style="stroke:#000000;stroke-width:0.9368709972552608;" width="9.3687" x="772.9186" y="398.441"/><line style="stroke:#000000;stroke-width:0.4684354986276304;stroke-dasharray:5.0,5.0;" x1="1024.9369" x2="1024.9369" y1="172.4575" y2="1565.6871"/><rect fill="#DCDCDC" height="816.0732" style="stroke:#000000;stroke-width:0.9368709972552608;" width="9.3687" x="1020.2525" y="654.2507"/><line style="stroke:#000000;stroke-width:0.4684354986276304;stroke-dasharray:5.0,5.0;" x1="1245.1016" x2="1245.1016" y1="172.4575" y2="1565.6871"/><rect fill="#DCDCDC" height="551.8317" style="stroke:#000000;stroke-width:0.9368709972552608;" width="9.3687" x="1240.4172" y="823.5242"/><line style="stroke:#000000;stroke-width:0.4684354986276304;stroke-dasharray:5.0,5.0;" x1="1479.3193" x2="1479.3193" y1="172.4575" y2="1565.6871"/><rect fill="#DCDCDC" height="63.312" style="stroke:#000000;stroke-width:0.9368709972552608;" width="9.3687" x="1474.6349" y="989.4675"/><line style="stroke:#000000;stroke-width:0.4684354986276304;stroke-dasharray:5.0,5.0;" x1="1726.6532" x2="1726.6532" y1="172.4575" y2="1565.6871"/><rect fill="#C9FFC9" height="244.0769" style="stroke:#000000;stroke-width:0.9368709972552608;" width="9.3687" x="1721.9689" y="1194.591"/><line style="stroke:#000000;stroke-width:0.4684354986276304;stroke-dasharray:5.0,5.0;" x1="1942.1336" x2="1942.1336" y1="172.4575" y2="1565.6871"/><text fill="#000000" font-family="Aapex" font-size="18.7374" lengthAdjust="spacing" textLength="5.6212" x="122.7301" y="102.6038">&#160;</text><text fill="#000000" font-family="Aapex" font-size="18.7374" lengthAdjust="spacing" textLength="206.1116" x="22.4849" y="124.4154">Akteur - A in der Rolle</text><text fill="#000000" font-family="Aapex" font-size="18.7374" lengthAdjust="spacing" textLength="148.9625" x="51.0595" y="146.2269">User / User-HBA</text><text fill="#000000" font-family="Aapex" font-size="18.7374" lengthAdjust="spacing" textLength="5.6212" x="122.7301" y="168.0384">&#160;</text><ellipse cx="128.3513" cy="36.9625" fill="#DCDCDC" rx="7.495" ry="7.495" style="stroke:#000000;stroke-width:0.4684354986276304;"/><path d="M128.3513,44.4575 L128.3513,69.753 M116.172,51.9524 L140.5306,51.9524 M128.3513,69.753 L116.172,83.806 M128.3513,69.753 L140.5306,83.806 " fill="none" style="stroke:#000000;stroke-width:0.4684354986276304;"/><rect fill="#F0F8FF" height="56.7392" rx="2.3422" ry="2.3422" style="stroke:#000000;stroke-width:0.4684354986276304;" width="200.4904" x="243.5865" y="114.7813"/><text fill="#000000" font-family="sans-serif" font-size="18.7374" lengthAdjust="spacing" textLength="130.2251" x="278.7191" y="138.7319">TI-Messenger-</text><text fill="#000000" font-family="sans-serif" font-size="18.7374" lengthAdjust="spacing" textLength="55.2754" x="316.194" y="160.5435">Client</text><rect fill="#EFEFFF" height="56.7392" rx="2.3422" ry="2.3422" style="stroke:#000000;stroke-width:0.4684354986276304;" width="200.4904" x="467.4986" y="114.7813"/><text fill="#000000" font-family="sans-serif" font-size="18.7374" lengthAdjust="spacing" textLength="106.8033" x="514.3422" y="138.7319">Messenger-</text><text fill="#000000" font-family="sans-serif" font-size="18.7374" lengthAdjust="spacing" textLength="50.591" x="542.4483" y="160.5435">Proxy</text><rect fill="#EFEFFF" height="56.7392" rx="2.3422" ry="2.3422" style="stroke:#000000;stroke-width:0.4684354986276304;" width="200.4904" x="677.3577" y="114.7813"/><text fill="#000000" font-family="sans-serif" font-size="18.7374" lengthAdjust="spacing" textLength="64.6441" x="745.2809" y="138.7319">Matrix-</text><text fill="#000000" font-family="sans-serif" font-size="18.7374" lengthAdjust="spacing" textLength="112.4245" x="721.3907" y="160.5435">Homeserver</text><rect fill="#EFEFFF" height="56.7392" rx="2.3422" ry="2.3422" style="stroke:#000000;stroke-width:0.4684354986276304;" width="200.4904" x="924.6917" y="114.7813"/><text fill="#000000" font-family="sans-serif" font-size="18.7374" lengthAdjust="spacing" textLength="106.8033" x="971.5352" y="138.7319">Messenger-</text><text fill="#000000" font-family="sans-serif" font-size="18.7374" lengthAdjust="spacing" textLength="50.591" x="999.6414" y="160.5435">Proxy</text><rect fill="#EFEFFF" height="56.7392" rx="2.3422" ry="2.3422" style="stroke:#000000;stroke-width:0.4684354986276304;" width="200.4904" x="1144.8564" y="114.7813"/><text fill="#000000" font-family="sans-serif" font-size="18.7374" lengthAdjust="spacing" textLength="64.6441" x="1212.7795" y="138.7319">Matrix-</text><text fill="#000000" font-family="sans-serif" font-size="18.7374" lengthAdjust="spacing" textLength="112.4245" x="1188.8893" y="160.5435">Homeserver</text><rect fill="#EFEFFF" height="56.7392" rx="2.3422" ry="2.3422" style="stroke:#000000;stroke-width:0.4684354986276304;" width="200.4904" x="1379.0741" y="114.7813"/><text fill="#000000" font-family="sans-serif" font-size="18.7374" lengthAdjust="spacing" textLength="51.5279" x="1453.5554" y="138.7319">Push-</text><text fill="#000000" font-family="sans-serif" font-size="18.7374" lengthAdjust="spacing" textLength="82.4446" x="1438.097" y="160.5435">Gateway</text><rect fill="#C9FFC9" height="56.7392" rx="2.3422" ry="2.3422" style="stroke:#000000;stroke-width:0.4684354986276304;" width="200.4904" x="1626.4081" y="114.7813"/><text fill="#000000" font-family="sans-serif" font-size="18.7374" lengthAdjust="spacing" textLength="130.2251" x="1661.5407" y="138.7319">TI-Messenger-</text><text fill="#000000" font-family="sans-serif" font-size="18.7374" lengthAdjust="spacing" textLength="55.2754" x="1699.0156" y="160.5435">Client</text><text fill="#000000" font-family="Aapex" font-size="18.7374" lengthAdjust="spacing" textLength="5.6212" x="1936.5124" y="102.6038">&#160;</text><text fill="#000000" font-family="Aapex" font-size="18.7374" lengthAdjust="spacing" textLength="206.1116" x="1836.2672" y="124.4154">Akteur - B in der Rolle</text><text fill="#000000" font-family="Aapex" font-size="18.7374" lengthAdjust="spacing" textLength="148.9625" x="1864.8417" y="146.2269">User / User-HBA</text><text fill="#000000" font-family="Aapex" font-size="18.7374" lengthAdjust="spacing" textLength="5.6212" x="1936.5124" y="168.0384">&#160;</text><ellipse cx="1942.1336" cy="36.9625" fill="#DCDCDC" rx="7.495" ry="7.495" style="stroke:#000000;stroke-width:0.4684354986276304;"/><path d="M1942.1336,44.4575 L1942.1336,69.753 M1929.9543,51.9524 L1954.3129,51.9524 M1942.1336,69.753 L1929.9543,83.806 M1942.1336,69.753 L1954.3129,83.806 " fill="none" style="stroke:#000000;stroke-width:0.4684354986276304;"/><text fill="#000000" font-family="Aapex" font-size="18.7374" lengthAdjust="spacing" textLength="5.6212" x="122.7301" y="1639.2919">&#160;</text><text fill="#000000" font-family="Aapex" font-size="18.7374" lengthAdjust="spacing" textLength="206.1116" x="22.4849" y="1661.1034">Akteur - A in der Rolle</text><text fill="#000000" font-family="Aapex" font-size="18.7374" lengthAdjust="spacing" textLength="148.9625" x="51.0595" y="1682.9149">User / User-HBA</text><text fill="#000000" font-family="Aapex" font-size="18.7374" lengthAdjust="spacing" textLength="5.6212" x="122.7301" y="1704.7264">&#160;</text><ellipse cx="128.3513" cy="1573.6505" fill="#DCDCDC" rx="7.495" ry="7.495" style="stroke:#000000;stroke-width:0.4684354986276304;"/><path d="M128.3513,1581.1455 L128.3513,1606.441 M116.172,1588.6404 L140.5306,1588.6404 M128.3513,1606.441 L116.172,1620.4941 M128.3513,1606.441 L140.5306,1620.4941 " fill="none" style="stroke:#000000;stroke-width:0.4684354986276304;"/><rect fill="#F0F8FF" height="56.7392" rx="2.3422" ry="2.3422" style="stroke:#000000;stroke-width:0.4684354986276304;" width="200.4904" x="243.5865" y="1565.6871"/><text fill="#000000" font-family="sans-serif" font-size="18.7374" lengthAdjust="spacing" textLength="130.2251" x="278.7191" y="1589.6377">TI-Messenger-</text><text fill="#000000" font-family="sans-serif" font-size="18.7374" lengthAdjust="spacing" textLength="55.2754" x="316.194" y="1611.4492">Client</text><rect fill="#EFEFFF" height="56.7392" rx="2.3422" ry="2.3422" style="stroke:#000000;stroke-width:0.4684354986276304;" width="200.4904" x="467.4986" y="1565.6871"/><text fill="#000000" font-family="sans-serif" font-size="18.7374" lengthAdjust="spacing" textLength="106.8033" x="514.3422" y="1589.6377">Messenger-</text><text fill="#000000" font-family="sans-serif" font-size="18.7374" lengthAdjust="spacing" textLength="50.591" x="542.4483" y="1611.4492">Proxy</text><rect fill="#EFEFFF" height="56.7392" rx="2.3422" ry="2.3422" style="stroke:#000000;stroke-width:0.4684354986276304;" width="200.4904" x="677.3577" y="1565.6871"/><text fill="#000000" font-family="sans-serif" font-size="18.7374" lengthAdjust="spacing" textLength="64.6441" x="745.2809" y="1589.6377">Matrix-</text><text fill="#000000" font-family="sans-serif" font-size="18.7374" lengthAdjust="spacing" textLength="112.4245" x="721.3907" y="1611.4492">Homeserver</text><rect fill="#EFEFFF" height="56.7392" rx="2.3422" ry="2.3422" style="stroke:#000000;stroke-width:0.4684354986276304;" width="200.4904" x="924.6917" y="1565.6871"/><text fill="#000000" font-family="sans-serif" font-size="18.7374" lengthAdjust="spacing" textLength="106.8033" x="971.5352" y="1589.6377">Messenger-</text><text fill="#000000" font-family="sans-serif" font-size="18.7374" lengthAdjust="spacing" textLength="50.591" x="999.6414" y="1611.4492">Proxy</text><rect fill="#EFEFFF" height="56.7392" rx="2.3422" ry="2.3422" style="stroke:#000000;stroke-width:0.4684354986276304;" width="200.4904" x="1144.8564" y="1565.6871"/><text fill="#000000" font-family="sans-serif" font-size="18.7374" lengthAdjust="spacing" textLength="64.6441" x="1212.7795" y="1589.6377">Matrix-</text><text fill="#000000" font-family="sans-serif" font-size="18.7374" lengthAdjust="spacing" textLength="112.4245" x="1188.8893" y="1611.4492">Homeserver</text><rect fill="#EFEFFF" height="56.7392" rx="2.3422" ry="2.3422" style="stroke:#000000;stroke-width:0.4684354986276304;" width="200.4904" x="1379.0741" y="1565.6871"/><text fill="#000000" font-family="sans-serif" font-size="18.7374" lengthAdjust="spacing" textLength="51.5279" x="1453.5554" y="1589.6377">Push-</text><text fill="#000000" font-family="sans-serif" font-size="18.7374" lengthAdjust="spacing" textLength="82.4446" x="1438.097" y="1611.4492">Gateway</text><rect fill="#C9FFC9" height="56.7392" rx="2.3422" ry="2.3422" style="stroke:#000000;stroke-width:0.4684354986276304;" width="200.4904" x="1626.4081" y="1565.6871"/><text fill="#000000" font-family="sans-serif" font-size="18.7374" lengthAdjust="spacing" textLength="130.2251" x="1661.5407" y="1589.6377">TI-Messenger-</text><text fill="#000000" font-family="sans-serif" font-size="18.7374" lengthAdjust="spacing" textLength="55.2754" x="1699.0156" y="1611.4492">Client</text><text fill="#000000" font-family="Aapex" font-size="18.7374" lengthAdjust="spacing" textLength="5.6212" x="1936.5124" y="1639.2919">&#160;</text><text fill="#000000" font-family="Aapex" font-size="18.7374" lengthAdjust="spacing" textLength="206.1116" x="1836.2672" y="1661.1034">Akteur - B in der Rolle</text><text fill="#000000" font-family="Aapex" font-size="18.7374" lengthAdjust="spacing" textLength="148.9625" x="1864.8417" y="1682.9149">User / User-HBA</text><text fill="#000000" font-family="Aapex" font-size="18.7374" lengthAdjust="spacing" textLength="5.6212" x="1936.5124" y="1704.7264">&#160;</text><ellipse cx="1942.1336" cy="1573.6505" fill="#DCDCDC" rx="7.495" ry="7.495" style="stroke:#000000;stroke-width:0.4684354986276304;"/><path d="M1942.1336,1581.1455 L1942.1336,1606.441 M1929.9543,1588.6404 L1954.3129,1588.6404 M1942.1336,1606.441 L1929.9543,1620.4941 M1942.1336,1606.441 L1954.3129,1620.4941 " fill="none" style="stroke:#000000;stroke-width:0.4684354986276304;"/><path d="M183.6267,208.0586 L183.6267,264.2708 L722.3275,264.2708 L722.3275,217.4273 L712.9588,208.0586 L183.6267,208.0586 " fill="#FEFFDD" style="stroke:#181818;stroke-width:0.4684354986276304;"/><path d="M712.9588,208.0586 L712.9588,217.4273 L722.3275,217.4273 L712.9588,208.0586 " fill="#FEFFDD" style="stroke:#181818;stroke-width:0.4684354986276304;"/><text fill="#000000" font-family="sans-serif" font-size="12.1793" lengthAdjust="spacing" textLength="3.7475" x="189.2479" y="224.048">&#160;</text><text fill="#000000" font-family="sans-serif" font-size="15.9268" lengthAdjust="spacing" textLength="519.0265" x="189.2479" y="241.704">Der Akteur A ist erfolgreich beim Messenger Service A angemeldet</text><text fill="#000000" font-family="sans-serif" font-size="12.1793" lengthAdjust="spacing" textLength="3.7475" x="189.2479" y="256.7653">&#160;</text><path d="M1213.2479,208.0586 L1213.2479,264.2708 L1753.8225,264.2708 L1753.8225,217.4273 L1744.4538,208.0586 L1213.2479,208.0586 " fill="#FEFFDD" style="stroke:#181818;stroke-width:0.4684354986276304;"/><path d="M1744.4538,208.0586 L1744.4538,217.4273 L1753.8225,217.4273 L1744.4538,208.0586 " fill="#FEFFDD" style="stroke:#181818;stroke-width:0.4684354986276304;"/><text fill="#000000" font-family="sans-serif" font-size="12.1793" lengthAdjust="spacing" textLength="3.7475" x="1218.8692" y="224.048">&#160;</text><text fill="#000000" font-family="sans-serif" font-size="15.9268" lengthAdjust="spacing" textLength="520.9003" x="1218.8692" y="241.704">Der Akteur B ist erfolgreich beim Messenger Service B angemeldet</text><text fill="#000000" font-family="sans-serif" font-size="12.1793" lengthAdjust="spacing" textLength="3.7475" x="1218.8692" y="256.7653">&#160;</text><polygon fill="#000000" points="327.9048,331.3815,337.2736,335.129,327.9048,338.8765,331.6523,335.129" style="stroke:#000000;stroke-width:0.9368709972552608;"/><line style="stroke:#000000;stroke-width:0.9368709972552608;" x1="128.3513" x2="333.5261" y1="335.129" y2="335.129"/><text fill="#000000" font-family="sans-serif" font-size="15.9268" lengthAdjust="spacing" textLength="100.2452" x="134.9094" y="310.9593">Akteur A l&#246;st</text><text fill="#000000" font-family="sans-serif" font-size="15.9268" lengthAdjust="spacing" textLength="133.9726" x="134.9094" y="329.4991">Matrix-Event aus</text><polygon fill="#FF0000" points="551.817,363.0375,561.1857,366.785,551.817,370.5325,555.5645,366.785" style="stroke:#FF0000;stroke-width:0.9368709972552608;"/><line style="stroke:#FF0000;stroke-width:0.9368709972552608;" x1="348.516" x2="557.4382" y1="366.785" y2="366.785"/><text fill="#000000" font-family="sans-serif" font-size="15.9268" lengthAdjust="spacing" textLength="119.9195" x="355.0741" y="361.1551">Matrix-Request</text><polygon fill="#FF0000" points="761.6761,394.6935,771.0448,398.441,761.6761,402.1885,765.4236,398.441" style="stroke:#FF0000;stroke-width:0.9368709972552608;"/><line style="stroke:#FF0000;stroke-width:0.9368709972552608;" x1="572.4282" x2="767.2973" y1="398.441" y2="398.441"/><text fill="#000000" font-family="sans-serif" font-size="15.9268" lengthAdjust="spacing" textLength="133.0357" x="578.9863" y="392.8111">HTTP(S) Forward</text><line style="stroke:#000000;stroke-width:0.9368709972552608;" x1="782.2873" x2="821.6359" y1="448.6368" y2="448.6368"/><line style="stroke:#000000;stroke-width:0.9368709972552608;" x1="821.6359" x2="821.6359" y1="448.6368" y2="460.8161"/><line style="stroke:#000000;stroke-width:0.9368709972552608;" x1="783.2242" x2="821.6359" y1="460.8161" y2="460.8161"/><polygon fill="#000000" points="792.5929,457.0686,783.2242,460.8161,792.5929,464.5636,788.8454,460.8161" style="stroke:#000000;stroke-width:0.9368709972552608;"/><text fill="#000000" font-family="sans-serif" font-size="15.9268" lengthAdjust="spacing" textLength="45.9067" x="788.8454" y="424.4671">Event</text><text fill="#000000" font-family="sans-serif" font-size="15.9268" lengthAdjust="spacing" textLength="90.8765" x="788.8454" y="443.0069">verarbeiten</text><polygon fill="#000000" points="582.7338,512.1464,573.3651,515.8939,582.7338,519.6414,578.9863,515.8939" style="stroke:#000000;stroke-width:0.9368709972552608;"/><line style="stroke:#000000;stroke-width:0.9368709972552608;" x1="577.1125" x2="771.9817" y1="515.8939" y2="515.8939"/><text fill="#000000" font-family="sans-serif" font-size="15.9268" lengthAdjust="spacing" textLength="119.9195" x="646.441" y="510.264">Matrix-Request</text><rect fill="none" height="55.1729" style="stroke:#000000;stroke-width:1.4053064958828911;" width="196.7429" x="469.3724" y="546.8106"/><path d="M469.3724,546.8106 L531.2059,546.8106 L531.2059,553.3687 L521.8371,562.7374 L469.3724,562.7374 L469.3724,546.8106 " fill="#98FB98" style="stroke:#000000;stroke-width:1.8737419945105216;"/><text fill="#000000" font-family="sans-serif" font-size="12.1793" font-weight="bold" lengthAdjust="spacing" textLength="19.6743" x="481.5517" y="559.9895">ref</text><text fill="#000000" font-family="sans-serif" font-size="15.9268" lengthAdjust="spacing" textLength="174.258" x="480.6148" y="581.2685">Berechtigungspr&#252;fung</text><text fill="#000000" font-family="sans-serif" font-size="11.2425" lengthAdjust="spacing" textLength="3.7475" x="565.8701" y="595.4602">&#160;</text><polygon fill="#FF0000" points="1009.0101,650.5032,1018.3788,654.2507,1009.0101,657.9982,1012.7575,654.2507" style="stroke:#FF0000;stroke-width:0.9368709972552608;"/><line style="stroke:#FF0000;stroke-width:0.9368709972552608;" x1="572.4282" x2="1014.6313" y1="654.2507" y2="654.2507"/><text fill="#000000" font-family="sans-serif" font-size="15.9268" lengthAdjust="spacing" textLength="133.0357" x="578.9863" y="648.6208">HTTP(S) Forward</text><rect fill="none" height="55.1729" style="stroke:#000000;stroke-width:1.4053064958828911;" width="196.7429" x="926.5654" y="685.1674"/><path d="M926.5654,685.1674 L988.3989,685.1674 L988.3989,691.7255 L979.0302,701.0942 L926.5654,701.0942 L926.5654,685.1674 " fill="#98FB98" style="stroke:#000000;stroke-width:1.8737419945105216;"/><text fill="#000000" font-family="sans-serif" font-size="12.1793" font-weight="bold" lengthAdjust="spacing" textLength="19.6743" x="938.7447" y="698.3463">ref</text><text fill="#000000" font-family="sans-serif" font-size="15.9268" lengthAdjust="spacing" textLength="174.258" x="937.8079" y="719.6253">Berechtigungspr&#252;fung</text><text fill="#000000" font-family="sans-serif" font-size="11.2425" lengthAdjust="spacing" textLength="3.7475" x="1023.0631" y="733.817">&#160;</text><polygon fill="#FF0000" points="1233.8591,788.86,1243.2278,792.6075,1233.8591,796.355,1237.6066,792.6075" style="stroke:#FF0000;stroke-width:0.9368709972552608;"/><line style="stroke:#FF0000;stroke-width:0.9368709972552608;" x1="1029.6212" x2="1239.4803" y1="792.6075" y2="792.6075"/><text fill="#000000" font-family="sans-serif" font-size="15.9268" lengthAdjust="spacing" textLength="126.4776" x="1036.1793" y="786.9776">HTTP(S) Foward</text><line style="stroke:#000000;stroke-width:0.9368709972552608;" x1="1249.7859" x2="1289.1345" y1="866.2251" y2="866.2251"/><line style="stroke:#000000;stroke-width:0.9368709972552608;" x1="1289.1345" x2="1289.1345" y1="866.2251" y2="878.4044"/><line style="stroke:#000000;stroke-width:0.9368709972552608;" x1="1250.7228" x2="1289.1345" y1="878.4044" y2="878.4044"/><polygon fill="#000000" points="1260.0915,874.6569,1250.7228,878.4044,1260.0915,882.1519,1256.344,878.4044" style="stroke:#000000;stroke-width:0.9368709972552608;"/><text fill="#000000" font-family="sans-serif" font-size="15.9268" lengthAdjust="spacing" textLength="45.9067" x="1256.344" y="842.0554">Event</text><text fill="#000000" font-family="sans-serif" font-size="15.9268" lengthAdjust="spacing" textLength="90.8765" x="1256.344" y="860.5952">verarbeiten</text><path d="M7.495,913.0686 L73.0759,913.0686 L73.0759,919.7511 L63.7072,929.1199 L7.495,929.1199 L7.495,913.0686 " fill="#D3D3D3" style="stroke:#000000;stroke-width:1.4053064958828911;"/><rect fill="none" height="170.6276" style="stroke:#000000;stroke-width:1.4053064958828911;" width="1734.1482" x="7.495" y="913.0686"/><text fill="#000000" font-family="sans-serif" font-size="12.1793" font-weight="bold" lengthAdjust="spacing" textLength="23.4218" x="21.548" y="925.3106">opt</text><text fill="#000000" font-family="sans-serif" font-size="10.3056" font-weight="bold" lengthAdjust="spacing" textLength="4.6844" x="87.129" y="929.9611">[</text><text fill="#000000" font-family="sans-serif" font-size="14.9899" font-weight="bold" lengthAdjust="spacing" textLength="184.5636" x="91.8134" y="928.8564">Pushbenachrichtigung</text><text fill="#000000" font-family="sans-serif" font-size="10.3056" font-weight="bold" lengthAdjust="spacing" textLength="4.6844" x="276.3769" y="929.9611">]</text><polygon fill="#000000" points="1463.3925,985.72,1472.7612,989.4675,1463.3925,993.215,1467.14,989.4675" style="stroke:#000000;stroke-width:0.9368709972552608;"/><line style="stroke:#000000;stroke-width:0.9368709972552608;" x1="1249.7859" x2="1469.0137" y1="989.4675" y2="989.4675"/><text fill="#000000" font-family="sans-serif" font-size="15.9268" lengthAdjust="spacing" textLength="207.0485" x="1256.344" y="983.8376">POST /_matrix/push/notify</text><polygon fill="#000000" points="1715.4108,1017.376,1724.7795,1021.1235,1715.4108,1024.871,1719.1583,1021.1235" style="stroke:#000000;stroke-width:0.9368709972552608;"/><line style="stroke:#000000;stroke-width:0.9368709972552608;" x1="1484.0037" x2="1721.032" y1="1021.1235" y2="1021.1235"/><text fill="#000000" font-family="sans-serif" font-size="15.9268" lengthAdjust="spacing" textLength="90.8765" x="1490.5618" y="1015.4936">Notification</text><polygon fill="#000000" points="1260.0915,1049.032,1250.7228,1052.7795,1260.0915,1056.527,1256.344,1052.7795" style="stroke:#000000;stroke-width:0.9368709972552608;"/><line style="stroke:#000000;stroke-width:0.9368709972552608;stroke-dasharray:2.0,2.0;" x1="1254.4703" x2="1473.6981" y1="1052.7795" y2="1052.7795"/><text fill="#000000" font-family="sans-serif" font-size="15.9268" lengthAdjust="spacing" textLength="50.591" x="1417.4858" y="1047.1496">Status</text><polygon fill="#000000" points="1039.9268,1159.1876,1030.5581,1162.935,1039.9268,1166.6825,1036.1793,1162.935" style="stroke:#000000;stroke-width:0.9368709972552608;"/><line style="stroke:#000000;stroke-width:0.9368709972552608;" x1="1034.3056" x2="1239.4803" y1="1162.935" y2="1162.935"/><text fill="#000000" font-family="sans-serif" font-size="15.9268" lengthAdjust="spacing" textLength="119.9195" x="1109.2553" y="1138.7653">Matrix-Request</text><text fill="#000000" font-family="sans-serif" font-size="15.9268" lengthAdjust="spacing" textLength="94.624" x="1109.2553" y="1157.3051">an Client-B)</text><polygon fill="#000000" points="1710.7264,1190.8435,1720.0952,1194.591,1710.7264,1198.3385,1714.4739,1194.591" style="stroke:#000000;stroke-width:0.9368709972552608;"/><line style="stroke:#000000;stroke-width:0.9368709972552608;" x1="1029.6212" x2="1716.3477" y1="1194.591" y2="1194.591"/><text fill="#000000" font-family="sans-serif" font-size="15.9268" lengthAdjust="spacing" textLength="133.0357" x="1036.1793" y="1188.9611">HTTP(S) Forward</text><line style="stroke:#000000;stroke-width:0.9368709972552608;" x1="1731.3376" x2="1770.6862" y1="1226.247" y2="1226.247"/><line style="stroke:#000000;stroke-width:0.9368709972552608;" x1="1770.6862" x2="1770.6862" y1="1226.247" y2="1238.4263"/><line style="stroke:#000000;stroke-width:0.9368709972552608;" x1="1732.2745" x2="1770.6862" y1="1238.4263" y2="1238.4263"/><polygon fill="#000000" points="1741.6432,1234.6789,1732.2745,1238.4263,1741.6432,1242.1738,1737.8957,1238.4263" style="stroke:#000000;stroke-width:0.9368709972552608;"/><text fill="#000000" font-family="sans-serif" font-size="15.9268" lengthAdjust="spacing" textLength="141.4675" x="1737.8957" y="1220.6171">Event verarbeiten</text><polygon fill="#000000" points="1039.9268,1266.3349,1030.5581,1270.0823,1039.9268,1273.8298,1036.1793,1270.0823" style="stroke:#000000;stroke-width:0.9368709972552608;"/><line style="stroke:#000000;stroke-width:0.9368709972552608;stroke-dasharray:2.0,2.0;" x1="1034.3056" x2="1721.032" y1="1270.0823" y2="1270.0823"/><text fill="#000000" font-family="sans-serif" font-size="15.9268" lengthAdjust="spacing" textLength="50.591" x="1664.8198" y="1264.4524">Status</text><polygon fill="#000000" points="1229.1747,1339.9524,1238.5435,1343.6999,1229.1747,1347.4474,1232.9222,1343.6999" style="stroke:#000000;stroke-width:0.9368709972552608;"/><line style="stroke:#000000;stroke-width:0.9368709972552608;stroke-dasharray:2.0,2.0;" x1="1029.6212" x2="1234.796" y1="1343.6999" y2="1343.6999"/><text fill="#000000" font-family="sans-serif" font-size="15.9268" lengthAdjust="spacing" textLength="133.0357" x="1036.1793" y="1319.5302">HTTP(S) Forward</text><text fill="#000000" font-family="sans-serif" font-size="15.9268" lengthAdjust="spacing" textLength="132.0988" x="1036.1793" y="1338.07">(Status Client-B)</text><polygon fill="#FF0000" points="1039.9268,1371.6084,1030.5581,1375.3559,1039.9268,1379.1034,1036.1793,1375.3559" style="stroke:#FF0000;stroke-width:0.9368709972552608;"/><line style="stroke:#FF0000;stroke-width:0.9368709972552608;stroke-dasharray:2.0,2.0;" x1="1034.3056" x2="1239.4803" y1="1375.3559" y2="1375.3559"/><text fill="#000000" font-family="sans-serif" font-size="15.9268" lengthAdjust="spacing" textLength="188.3111" x="1045.548" y="1369.726">Status (Matrix-Request)</text><polygon fill="#000000" points="1710.7264,1403.2644,1720.0952,1407.0119,1710.7264,1410.7594,1714.4739,1407.0119" style="stroke:#000000;stroke-width:0.9368709972552608;"/><line style="stroke:#000000;stroke-width:0.9368709972552608;stroke-dasharray:2.0,2.0;" x1="1029.6212" x2="1716.3477" y1="1407.0119" y2="1407.0119"/><text fill="#000000" font-family="sans-serif" font-size="15.9268" lengthAdjust="spacing" textLength="133.0357" x="1036.1793" y="1401.382">HTTP(S) Forward</text><polygon fill="#000000" points="1930.8911,1434.9204,1940.2598,1438.6679,1930.8911,1442.4154,1934.6386,1438.6679" style="stroke:#000000;stroke-width:0.9368709972552608;"/><line style="stroke:#000000;stroke-width:0.9368709972552608;" x1="1731.3376" x2="1936.5124" y1="1438.6679" y2="1438.6679"/><text fill="#000000" font-family="sans-serif" font-size="15.9268" lengthAdjust="spacing" textLength="50.591" x="1737.8957" y="1433.038">Status</text><polygon fill="#000000" points="582.7338,1466.5764,573.3651,1470.3239,582.7338,1474.0714,578.9863,1470.3239" style="stroke:#000000;stroke-width:0.9368709972552608;"/><line style="stroke:#000000;stroke-width:0.9368709972552608;stroke-dasharray:2.0,2.0;" x1="577.1125" x2="1019.3156" y1="1470.3239" y2="1470.3239"/><text fill="#000000" font-family="sans-serif" font-size="15.9268" lengthAdjust="spacing" textLength="133.0357" x="880.6587" y="1464.694">HTTP(S) Forward</text><polygon fill="#000000" points="358.8216,1498.2324,349.4529,1501.9799,358.8216,1505.7274,355.0741,1501.9799" style="stroke:#000000;stroke-width:0.9368709972552608;"/><line style="stroke:#000000;stroke-width:0.9368709972552608;stroke-dasharray:2.0,2.0;" x1="353.2004" x2="562.1226" y1="1501.9799" y2="1501.9799"/><text fill="#000000" font-family="sans-serif" font-size="15.9268" lengthAdjust="spacing" textLength="50.591" x="505.9103" y="1496.35">Status</text><!--SRC=[ZLLHR-9647xthvWcBubqY62rlLDqGiBq3Y8bmGhaJgUwgXPxCAlOktIz9EIQ_gq-zUt-M6UzYx4TG8b4R7Q_sU-RRsQ7drQAfJa3ZV8xQBL6htZWOiKKow70lzOeOhp1ec0f3ZAU2aYumbXpAMh0d8jXnehYAq_q4loBYzfU83SXIn8kKkZzikVmEroWCYzZP0cgWCKFgP9haGnb9XMiM8QfGYIwc5uXPniY-Fa3F1akRy-1yBStK4e-sVXvHWVQXSzIw2d_Zj1xxmrYBLKW5J7MSTTyWTTSu96TbhuHuwAOIoKzBsHAyvYlcD3r-1kf-ICh7QiZMkViHrMI_OlsSbtS0URWrMQRT3Ax-ZAONKrkFUV8mUpAxJPljRZLM2tSiXnXm5QuyVxnWFwOsO7x7h02JY8nUD2uLj210N3gALHm9xCC8t5Vq7iNpACp3WQHE2d3LxiaO6WFcLrrJ6EYI0aQKGDo5Fe4JgbDOmmowcGJE9SR-5YGlClUX_uEFqNrI30OVEoQpJwSVbroZTDSFjYu9kLDQ3dhXA6Ic-UJVU2n0pEj-8QGOvaZvVE8oi9H94RNM_G5X_GrrVd7r3Mr-SUrrS7Xo8B3TR4aw8XfV6BFhtDe5CS_MfpPf-7uTd8z6NshTuNVxehWRLtXlRoyU5qGKYD8Ie7wwvsn_n8YuKnzt_-Drjt1r6o51bGBcT5CuV4IviXpg9H2rHR0w7kEMOBQLI0IXh11vhyprXyY2zvA5XmWi-bHelUzJdz8ILLPP3_-BNGaN14_FPAtmDR5rb8pID1SayPT6FOwlvygJFxeKpTVWWk-CrEpqCrG0j02_QyYZAVZsImycvx3PwcUc4fQ8UCoP4nIIx0L5GaoYYbANDC41p09RL47H2JOEdCR1Q1mOPsdM6Cz7L0P7z2FIBpKF5sBj5Yf7_yjwANfPdbG-QndPWfuFBFGhvJN56oB_rO5k-n3VsThWznnkwetpFLBs_oE3JbYBZtbIfzUytIfHmgVQpsmbVfhtrpeEGeMBnNVIdPAlPtT9H_DW4i89zCPTF_CosfrLnJTfMl05yzk-bL22LqkqPDQbY9l3Op7zeTjk-Eoc6gcNTCsocuFiIfepEmSiGOOqvjzGqum0NR6T89pvt79tweijAw8tvf8GnTc3QxRQpSTVQLyLz5EkvYMBn9d5joKHuaq6j1XpffvdR- -47v5DzpRjoQ1-wQtjVZXBhoyFVlwlauN-kwosFcp_r0xB9eyFUSDVVu7]--></g></svg>