<?xml version="1.0" encoding="us-ascii" standalone="no"?><svg xmlns="http://www.w3.org/2000/svg" xmlns:xlink="http://www.w3.org/1999/xlink" contentStyleType="text/css" height="1741.0398px" preserveAspectRatio="none" style="width:2048px;height:1741px;background:#FFFFFF;" version="1.1" viewBox="0 0 2048 1741" width="2048.9593px" zoomAndPan="magnify"><defs/><g><rect fill="#F5F5F5" height="1729.6712" style="stroke:#181818;stroke-width:0.47962529274004684;" width="427.8258" x="456.6033" y="5.7555"/><text fill="#000000" font-family="sans-serif" font-size="17.2665" font-weight="bold" lengthAdjust="spacing" textLength="204.3204" x="565.9578" y="21.7827">Messenger-Service A</text><text fill="#000000" font-family="sans-serif" font-size="12.4703" font-weight="bold" lengthAdjust="spacing" textLength="4.7963" x="770.2782" y="22.9138">&#160;</text><rect fill="#F5F5F5" height="1729.6712" style="stroke:#181818;stroke-width:0.47962529274004684;" width="678.1902" x="915.1251" y="5.7555"/><text fill="#000000" font-family="sans-serif" font-size="17.2665" font-weight="bold" lengthAdjust="spacing" textLength="204.3204" x="1149.6618" y="21.7827">Messenger-Service B</text><text fill="#000000" font-family="sans-serif" font-size="12.4703" font-weight="bold" lengthAdjust="spacing" textLength="4.7963" x="1353.9822" y="22.9138">&#160;</text><rect fill="#F0F8FF" height="1181.2946" style="stroke:#000000;stroke-width:0.9592505854800937;" width="9.5925" x="329.023" y="339.14"/><rect fill="#DCDCDC" height="1148.8824" style="stroke:#000000;stroke-width:0.9592505854800937;" width="9.5925" x="558.2838" y="371.5522"/><rect fill="#DCDCDC" height="120.2585" style="stroke:#000000;stroke-width:0.9592505854800937;" width="9.5925" x="773.156" y="403.9644"/><rect fill="#DCDCDC" height="822.1377" style="stroke:#000000;stroke-width:0.9592505854800937;" width="9.5925" x="1016.8056" y="665.8848"/><rect fill="#DCDCDC" height="583.2393" style="stroke:#000000;stroke-width:0.9592505854800937;" width="9.5925" x="1242.2295" y="807.5466"/><rect fill="#DCDCDC" height="64.8244" style="stroke:#000000;stroke-width:0.9592505854800937;" width="9.5925" x="1482.0422" y="1002.3944"/><rect fill="#C9FFC9" height="249.9073" style="stroke:#000000;stroke-width:0.9592505854800937;" width="9.5925" x="1711.303" y="1205.703"/><rect fill="#F0F8FF" height="165.111" style="stroke:#000000;stroke-width:1.4388758782201405;" width="693.5382" x="1134.7934" y="933.763"/><line style="stroke:#000000;stroke-width:0.47962529274004684;stroke-dasharray:5.0,5.0;" x1="113.1916" x2="113.1916" y1="151.6815" y2="1585.6637"/><line style="stroke:#000000;stroke-width:0.47962529274004684;stroke-dasharray:5.0,5.0;" x1="333.8192" x2="333.8192" y1="151.6815" y2="1585.6637"/><line style="stroke:#000000;stroke-width:0.47962529274004684;stroke-dasharray:5.0,5.0;" x1="563.0801" x2="563.0801" y1="151.6815" y2="1585.6637"/><line style="stroke:#000000;stroke-width:0.47962529274004684;stroke-dasharray:5.0,5.0;" x1="777.9522" x2="777.9522" y1="151.6815" y2="1585.6637"/><line style="stroke:#000000;stroke-width:0.47962529274004684;stroke-dasharray:5.0,5.0;" x1="1021.6019" x2="1021.6019" y1="151.6815" y2="1585.6637"/><line style="stroke:#000000;stroke-width:0.47962529274004684;stroke-dasharray:5.0,5.0;" x1="1247.0258" x2="1247.0258" y1="151.6815" y2="1585.6637"/><line style="stroke:#000000;stroke-width:0.47962529274004684;stroke-dasharray:5.0,5.0;" x1="1486.8384" x2="1486.8384" y1="151.6815" y2="1585.6637"/><line style="stroke:#000000;stroke-width:0.47962529274004684;stroke-dasharray:5.0,5.0;" x1="1716.0993" x2="1716.0993" y1="151.6815" y2="1585.6637"/><line style="stroke:#000000;stroke-width:0.47962529274004684;stroke-dasharray:5.0,5.0;" x1="1936.7269" x2="1936.7269" y1="151.6815" y2="1585.6637"/><text fill="#000000" font-family="Aapex" font-size="19.185" lengthAdjust="spacing" textLength="5.7555" x="107.4361" y="80.1593">&#160;</text><text fill="#000000" font-family="Aapex" font-size="19.185" lengthAdjust="spacing" textLength="211.0351" x="4.7963" y="102.4918">Akteur - A in der Rolle</text><text fill="#000000" font-family="Aapex" font-size="19.185" lengthAdjust="spacing" textLength="152.5208" x="34.0534" y="124.8244">User / User-HBA</text><text fill="#000000" font-family="Aapex" font-size="19.185" lengthAdjust="spacing" textLength="5.7555" x="107.4361" y="147.1569">&#160;</text><ellipse cx="113.1916" cy="12.9499" fill="#DCDCDC" rx="7.674" ry="7.674" style="stroke:#000000;stroke-width:0.47962529274004684;"/><path d="M113.1916,20.6239 L113.1916,46.5237 M100.7213,28.2979 L125.6618,28.2979 M113.1916,46.5237 L100.7213,60.9124 M113.1916,46.5237 L125.6618,60.9124 " fill="none" style="stroke:#000000;stroke-width:0.47962529274004684;"/><text fill="#000000" font-family="Aapex" font-size="19.185" lengthAdjust="spacing" textLength="5.7555" x="107.4361" y="1602.5124">&#160;</text><text fill="#000000" font-family="Aapex" font-size="19.185" lengthAdjust="spacing" textLength="211.0351" x="4.7963" y="1624.845">Akteur - A in der Rolle</text><text fill="#000000" font-family="Aapex" font-size="19.185" lengthAdjust="spacing" textLength="152.5208" x="34.0534" y="1647.1775">User / User-HBA</text><text fill="#000000" font-family="Aapex" font-size="19.185" lengthAdjust="spacing" textLength="5.7555" x="107.4361" y="1669.5101">&#160;</text><ellipse cx="113.1916" cy="1682.1883" fill="#DCDCDC" rx="7.674" ry="7.674" style="stroke:#000000;stroke-width:0.47962529274004684;"/><path d="M113.1916,1689.8623 L113.1916,1715.7621 M100.7213,1697.5363 L125.6618,1697.5363 M113.1916,1715.7621 L100.7213,1730.1508 M113.1916,1715.7621 L125.6618,1730.1508 " fill="none" style="stroke:#000000;stroke-width:0.47962529274004684;"/><rect fill="#F0F8FF" height="58.0946" rx="2.3981" ry="2.3981" style="stroke:#000000;stroke-width:0.47962529274004684;" width="205.2796" x="231.1794" y="92.6276"/><text fill="#000000" font-family="sans-serif" font-size="19.185" lengthAdjust="spacing" textLength="133.3358" x="267.1513" y="117.1504">TI-Messenger-</text><text fill="#000000" font-family="sans-serif" font-size="19.185" lengthAdjust="spacing" textLength="56.5958" x="305.5213" y="139.4829">Client</text><rect fill="#F0F8FF" height="58.0946" rx="2.3981" ry="2.3981" style="stroke:#000000;stroke-width:0.47962529274004684;" width="205.2796" x="231.1794" y="1584.7044"/><text fill="#000000" font-family="sans-serif" font-size="19.185" lengthAdjust="spacing" textLength="133.3358" x="267.1513" y="1609.2272">TI-Messenger-</text><text fill="#000000" font-family="sans-serif" font-size="19.185" lengthAdjust="spacing" textLength="56.5958" x="305.5213" y="1631.5597">Client</text><rect fill="#EFEFFF" height="58.0946" rx="2.3981" ry="2.3981" style="stroke:#000000;stroke-width:0.47962529274004684;" width="205.2796" x="460.4403" y="92.6276"/><text fill="#000000" font-family="sans-serif" font-size="19.185" lengthAdjust="spacing" textLength="109.3546" x="508.4028" y="117.1504">Messenger-</text><text fill="#000000" font-family="sans-serif" font-size="19.185" lengthAdjust="spacing" textLength="51.7995" x="537.1803" y="139.4829">Proxy</text><rect fill="#EFEFFF" height="58.0946" rx="2.3981" ry="2.3981" style="stroke:#000000;stroke-width:0.47962529274004684;" width="205.2796" x="460.4403" y="1584.7044"/><text fill="#000000" font-family="sans-serif" font-size="19.185" lengthAdjust="spacing" textLength="109.3546" x="508.4028" y="1609.2272">Messenger-</text><text fill="#000000" font-family="sans-serif" font-size="19.185" lengthAdjust="spacing" textLength="51.7995" x="537.1803" y="1631.5597">Proxy</text><rect fill="#EFEFFF" height="58.0946" rx="2.3981" ry="2.3981" style="stroke:#000000;stroke-width:0.47962529274004684;" width="205.2796" x="675.3124" y="92.6276"/><text fill="#000000" font-family="sans-serif" font-size="19.185" lengthAdjust="spacing" textLength="66.1883" x="744.8581" y="117.1504">Matrix-</text><text fill="#000000" font-family="sans-serif" font-size="19.185" lengthAdjust="spacing" textLength="115.1101" x="720.3972" y="139.4829">Homeserver</text><rect fill="#EFEFFF" height="58.0946" rx="2.3981" ry="2.3981" style="stroke:#000000;stroke-width:0.47962529274004684;" width="205.2796" x="675.3124" y="1584.7044"/><text fill="#000000" font-family="sans-serif" font-size="19.185" lengthAdjust="spacing" textLength="66.1883" x="744.8581" y="1609.2272">Matrix-</text><text fill="#000000" font-family="sans-serif" font-size="19.185" lengthAdjust="spacing" textLength="115.1101" x="720.3972" y="1631.5597">Homeserver</text><rect fill="#EFEFFF" height="58.0946" rx="2.3981" ry="2.3981" style="stroke:#000000;stroke-width:0.47962529274004684;" width="205.2796" x="918.9621" y="92.6276"/><text fill="#000000" font-family="sans-serif" font-size="19.185" lengthAdjust="spacing" textLength="109.3546" x="966.9246" y="117.1504">Messenger-</text><text fill="#000000" font-family="sans-serif" font-size="19.185" lengthAdjust="spacing" textLength="51.7995" x="995.7021" y="139.4829">Proxy</text><rect fill="#EFEFFF" height="58.0946" rx="2.3981" ry="2.3981" style="stroke:#000000;stroke-width:0.47962529274004684;" width="205.2796" x="918.9621" y="1584.7044"/><text fill="#000000" font-family="sans-serif" font-size="19.185" lengthAdjust="spacing" textLength="109.3546" x="966.9246" y="1609.2272">Messenger-</text><text fill="#000000" font-family="sans-serif" font-size="19.185" lengthAdjust="spacing" textLength="51.7995" x="995.7021" y="1631.5597">Proxy</text><rect fill="#EFEFFF" height="58.0946" rx="2.3981" ry="2.3981" style="stroke:#000000;stroke-width:0.47962529274004684;" width="205.2796" x="1144.3859" y="92.6276"/><text fill="#000000" font-family="sans-serif" font-size="19.185" lengthAdjust="spacing" textLength="66.1883" x="1213.9316" y="117.1504">Matrix-</text><text fill="#000000" font-family="sans-serif" font-size="19.185" lengthAdjust="spacing" textLength="115.1101" x="1189.4707" y="139.4829">Homeserver</text><rect fill="#EFEFFF" height="58.0946" rx="2.3981" ry="2.3981" style="stroke:#000000;stroke-width:0.47962529274004684;" width="205.2796" x="1144.3859" y="1584.7044"/><text fill="#000000" font-family="sans-serif" font-size="19.185" lengthAdjust="spacing" textLength="66.1883" x="1213.9316" y="1609.2272">Matrix-</text><text fill="#000000" font-family="sans-serif" font-size="19.185" lengthAdjust="spacing" textLength="115.1101" x="1189.4707" y="1631.5597">Homeserver</text><rect fill="#EFEFFF" height="58.0946" rx="2.3981" ry="2.3981" style="stroke:#000000;stroke-width:0.47962529274004684;" width="205.2796" x="1384.1986" y="92.6276"/><text fill="#000000" font-family="sans-serif" font-size="19.185" lengthAdjust="spacing" textLength="52.7588" x="1460.459" y="117.1504">Push-</text><text fill="#000000" font-family="sans-serif" font-size="19.185" lengthAdjust="spacing" textLength="84.4141" x="1444.6314" y="139.4829">Gateway</text><rect fill="#EFEFFF" height="58.0946" rx="2.3981" ry="2.3981" style="stroke:#000000;stroke-width:0.47962529274004684;" width="205.2796" x="1384.1986" y="1584.7044"/><text fill="#000000" font-family="sans-serif" font-size="19.185" lengthAdjust="spacing" textLength="52.7588" x="1460.459" y="1609.2272">Push-</text><text fill="#000000" font-family="sans-serif" font-size="19.185" lengthAdjust="spacing" textLength="84.4141" x="1444.6314" y="1631.5597">Gateway</text><rect fill="#C9FFC9" height="58.0946" rx="2.3981" ry="2.3981" style="stroke:#000000;stroke-width:0.47962529274004684;" width="205.2796" x="1613.4595" y="92.6276"/><text fill="#000000" font-family="sans-serif" font-size="19.185" lengthAdjust="spacing" textLength="133.3358" x="1649.4314" y="117.1504">TI-Messenger-</text><text fill="#000000" font-family="sans-serif" font-size="19.185" lengthAdjust="spacing" textLength="56.5958" x="1687.8014" y="139.4829">Client</text><rect fill="#C9FFC9" height="58.0946" rx="2.3981" ry="2.3981" style="stroke:#000000;stroke-width:0.47962529274004684;" width="205.2796" x="1613.4595" y="1584.7044"/><text fill="#000000" font-family="sans-serif" font-size="19.185" lengthAdjust="spacing" textLength="133.3358" x="1649.4314" y="1609.2272">TI-Messenger-</text><text fill="#000000" font-family="sans-serif" font-size="19.185" lengthAdjust="spacing" textLength="56.5958" x="1687.8014" y="1631.5597">Client</text><text fill="#000000" font-family="Aapex" font-size="19.185" lengthAdjust="spacing" textLength="5.7555" x="1930.9714" y="80.1593">&#160;</text><text fill="#000000" font-family="Aapex" font-size="19.185" lengthAdjust="spacing" textLength="211.0351" x="1828.3316" y="102.4918">Akteur - B in der Rolle</text><text fill="#000000" font-family="Aapex" font-size="19.185" lengthAdjust="spacing" textLength="152.5208" x="1857.5888" y="124.8244">User / User-HBA</text><text fill="#000000" font-family="Aapex" font-size="19.185" lengthAdjust="spacing" textLength="5.7555" x="1930.9714" y="147.1569">&#160;</text><ellipse cx="1936.7269" cy="12.9499" fill="#DCDCDC" rx="7.674" ry="7.674" style="stroke:#000000;stroke-width:0.47962529274004684;"/><path d="M1936.7269,20.6239 L1936.7269,46.5237 M1924.2567,28.2979 L1949.1972,28.2979 M1936.7269,46.5237 L1924.2567,60.9124 M1936.7269,46.5237 L1949.1972,60.9124 " fill="none" style="stroke:#000000;stroke-width:0.47962529274004684;"/><text fill="#000000" font-family="Aapex" font-size="19.185" lengthAdjust="spacing" textLength="5.7555" x="1930.9714" y="1602.5124">&#160;</text><text fill="#000000" font-family="Aapex" font-size="19.185" lengthAdjust="spacing" textLength="211.0351" x="1828.3316" y="1624.845">Akteur - B in der Rolle</text><text fill="#000000" font-family="Aapex" font-size="19.185" lengthAdjust="spacing" textLength="152.5208" x="1857.5888" y="1647.1775">User / User-HBA</text><text fill="#000000" font-family="Aapex" font-size="19.185" lengthAdjust="spacing" textLength="5.7555" x="1930.9714" y="1669.5101">&#160;</text><ellipse cx="1936.7269" cy="1682.1883" fill="#DCDCDC" rx="7.674" ry="7.674" style="stroke:#000000;stroke-width:0.47962529274004684;"/><path d="M1936.7269,1689.8623 L1936.7269,1715.7621 M1924.2567,1697.5363 L1949.1972,1697.5363 M1936.7269,1715.7621 L1924.2567,1730.1508 M1936.7269,1715.7621 L1949.1972,1730.1508 " fill="none" style="stroke:#000000;stroke-width:0.47962529274004684;"/><rect fill="#F0F8FF" height="1181.2946" style="stroke:#000000;stroke-width:0.9592505854800937;" width="9.5925" x="329.023" y="339.14"/><rect fill="#DCDCDC" height="1148.8824" style="stroke:#000000;stroke-width:0.9592505854800937;" width="9.5925" x="558.2838" y="371.5522"/><rect fill="#DCDCDC" height="120.2585" style="stroke:#000000;stroke-width:0.9592505854800937;" width="9.5925" x="773.156" y="403.9644"/><rect fill="#DCDCDC" height="822.1377" style="stroke:#000000;stroke-width:0.9592505854800937;" width="9.5925" x="1016.8056" y="665.8848"/><rect fill="#DCDCDC" height="583.2393" style="stroke:#000000;stroke-width:0.9592505854800937;" width="9.5925" x="1242.2295" y="807.5466"/><rect fill="#DCDCDC" height="64.8244" style="stroke:#000000;stroke-width:0.9592505854800937;" width="9.5925" x="1482.0422" y="1002.3944"/><rect fill="#C9FFC9" height="249.9073" style="stroke:#000000;stroke-width:0.9592505854800937;" width="9.5925" x="1711.303" y="1205.703"/><path d="M6.7148,190.0515 L6.7148,265.8323 L2042.2445,265.8323 L2042.2445,199.644 L2032.652,190.0515 L6.7148,190.0515 " fill="#FEFFDD" style="stroke:#181818;stroke-width:0.47962529274004684;"/><path d="M2032.652,190.0515 L2032.652,199.644 L2042.2445,199.644 L2032.652,190.0515 " fill="#FEFFDD" style="stroke:#181818;stroke-width:0.47962529274004684;"/><text fill="#000000" font-family="sans-serif" font-size="12.4703" lengthAdjust="spacing" textLength="3.837" x="537.1803" y="206.423">&#160;</text><text fill="#000000" font-family="sans-serif" font-size="16.3073" lengthAdjust="spacing" textLength="965.9653" x="537.1803" y="224.5007">Die Akteure sind auf dem selben Messenger-Service angemeldet und im Besitz eines zugelassenen TI-Messenger-Clients.</text><text fill="#000000" font-family="sans-serif" font-size="16.3073" lengthAdjust="spacing" textLength="556.3653" x="537.1803" y="243.4834">Ebenfalls sind beide Akteure einem gemeinsamen Raum beigetreten.</text><text fill="#000000" font-family="sans-serif" font-size="12.4703" lengthAdjust="spacing" textLength="3.837" x="537.1803" y="258.9044">&#160;</text><polygon fill="#000000" points="317.5119,335.303,327.1044,339.14,317.5119,342.977,321.3489,339.14" style="stroke:#000000;stroke-width:0.9592505854800937;"/><line style="stroke:#000000;stroke-width:0.9592505854800937;" x1="113.1916" x2="323.2674" y1="339.14" y2="339.14"/><text fill="#000000" font-family="sans-serif" font-size="16.3073" lengthAdjust="spacing" textLength="102.6398" x="119.9063" y="314.393">Akteur A l&#246;st</text><text fill="#000000" font-family="sans-serif" font-size="16.3073" lengthAdjust="spacing" textLength="137.1728" x="119.9063" y="333.3756">Matrix-Event aus</text><polygon fill="#FF0000" points="546.7728,367.7152,556.3653,371.5522,546.7728,375.3892,550.6098,371.5522" style="stroke:#FF0000;stroke-width:0.9592505854800937;"/><line style="stroke:#FF0000;stroke-width:0.9592505854800937;" x1="338.6155" x2="552.5283" y1="371.5522" y2="371.5522"/><text fill="#000000" font-family="sans-serif" font-size="16.3073" lengthAdjust="spacing" textLength="122.7841" x="345.3302" y="365.7878">Matrix-Request</text><polygon fill="#FF0000" points="761.645,400.1274,771.2375,403.9644,761.645,407.8014,765.482,403.9644" style="stroke:#FF0000;stroke-width:0.9592505854800937;"/><line style="stroke:#FF0000;stroke-width:0.9592505854800937;" x1="567.8763" x2="767.4005" y1="403.9644" y2="403.9644"/><text fill="#000000" font-family="sans-serif" font-size="16.3073" lengthAdjust="spacing" textLength="136.2136" x="574.5911" y="398.2">HTTP(S) Forward</text><line style="stroke:#000000;stroke-width:0.9592505854800937;" x1="782.7485" x2="823.037" y1="455.3593" y2="455.3593"/><line style="stroke:#000000;stroke-width:0.9592505854800937;" x1="823.037" x2="823.037" y1="455.3593" y2="467.8295"/><line style="stroke:#000000;stroke-width:0.9592505854800937;" x1="783.7077" x2="823.037" y1="467.8295" y2="467.8295"/><polygon fill="#000000" points="793.3002,463.9925,783.7077,467.8295,793.3002,471.6665,789.4632,467.8295" style="stroke:#000000;stroke-width:0.9592505854800937;"/><text fill="#000000" font-family="sans-serif" font-size="16.3073" lengthAdjust="spacing" textLength="47.0033" x="789.4632" y="430.6122">Event</text><text fill="#000000" font-family="sans-serif" font-size="16.3073" lengthAdjust="spacing" textLength="93.0473" x="789.4632" y="449.5948">verarbeiten</text><polygon fill="#000000" points="578.4281,520.3859,568.8356,524.223,578.4281,528.06,574.5911,524.223" style="stroke:#000000;stroke-width:0.9592505854800937;"/><line style="stroke:#000000;stroke-width:0.9592505854800937;" x1="572.6726" x2="776.993" y1="524.223" y2="524.223"/><text fill="#000000" font-family="sans-serif" font-size="16.3073" lengthAdjust="spacing" textLength="122.7841" x="648.4534" y="518.4585">Matrix-Request</text><rect fill="none" height="56.4909" style="stroke:#000000;stroke-width:1.4388758782201405;" width="211.0351" x="457.5625" y="555.8782"/><path d="M457.5625,555.8782 L520.8731,555.8782 L520.8731,562.593 L511.2806,572.1855 L457.5625,572.1855 L457.5625,555.8782 " fill="#98FB98" style="stroke:#000000;stroke-width:1.9185011709601874;"/><text fill="#000000" font-family="sans-serif" font-size="12.4703" font-weight="bold" lengthAdjust="spacing" textLength="20.1443" x="470.0328" y="569.3719">ref</text><text fill="#000000" font-family="sans-serif" font-size="16.3073" lengthAdjust="spacing" textLength="178.4206" x="473.8698" y="591.1593">Berechtigungspr&#252;fung</text><text fill="#000000" font-family="sans-serif" font-size="11.511" lengthAdjust="spacing" textLength="3.837" x="561.1616" y="605.6899">&#160;</text><polygon fill="#FF0000" points="1005.2946,662.0478,1014.8871,665.8848,1005.2946,669.7218,1009.1316,665.8848" style="stroke:#FF0000;stroke-width:0.9592505854800937;"/><line style="stroke:#FF0000;stroke-width:0.9592505854800937;" x1="567.8763" x2="1011.0501" y1="665.8848" y2="665.8848"/><text fill="#000000" font-family="sans-serif" font-size="16.3073" lengthAdjust="spacing" textLength="136.2136" x="574.5911" y="660.1204">HTTP(S) Forward</text><rect fill="none" height="56.4909" style="stroke:#000000;stroke-width:1.4388758782201405;" width="211.0351" x="916.0843" y="697.54"/><path d="M916.0843,697.54 L979.3948,697.54 L979.3948,704.2548 L969.8023,713.8473 L916.0843,713.8473 L916.0843,697.54 " fill="#98FB98" style="stroke:#000000;stroke-width:1.9185011709601874;"/><text fill="#000000" font-family="sans-serif" font-size="12.4703" font-weight="bold" lengthAdjust="spacing" textLength="20.1443" x="928.5546" y="711.0337">ref</text><text fill="#000000" font-family="sans-serif" font-size="16.3073" lengthAdjust="spacing" textLength="178.4206" x="932.3916" y="732.8211">Berechtigungspr&#252;fung</text><text fill="#000000" font-family="sans-serif" font-size="11.511" lengthAdjust="spacing" textLength="3.837" x="1019.6834" y="747.3518">&#160;</text><polygon fill="#FF0000" points="1230.7185,803.7096,1240.311,807.5466,1230.7185,811.3836,1234.5555,807.5466" style="stroke:#FF0000;stroke-width:0.9592505854800937;"/><line style="stroke:#FF0000;stroke-width:0.9592505854800937;" x1="1026.3981" x2="1236.474" y1="807.5466" y2="807.5466"/><text fill="#000000" font-family="sans-serif" font-size="16.3073" lengthAdjust="spacing" textLength="129.4988" x="1033.1129" y="801.7822">HTTP(S) Foward</text><line style="stroke:#000000;stroke-width:0.9592505854800937;" x1="1251.822" x2="1292.1105" y1="882.9227" y2="882.9227"/><line style="stroke:#000000;stroke-width:0.9592505854800937;" x1="1292.1105" x2="1292.1105" y1="882.9227" y2="895.393"/><line style="stroke:#000000;stroke-width:0.9592505854800937;" x1="1252.7813" x2="1292.1105" y1="895.393" y2="895.393"/><polygon fill="#000000" points="1262.3738,891.556,1252.7813,895.393,1262.3738,899.23,1258.5368,895.393" style="stroke:#000000;stroke-width:0.9592505854800937;"/><text fill="#000000" font-family="sans-serif" font-size="16.3073" lengthAdjust="spacing" textLength="47.0033" x="1258.5368" y="858.1756">Event</text><text fill="#000000" font-family="sans-serif" font-size="16.3073" lengthAdjust="spacing" textLength="93.0473" x="1258.5368" y="877.1583">verarbeiten</text><path d="M1134.7934,933.763 L1201.941,933.763 L1201.941,940.6052 L1192.3485,950.1977 L1134.7934,950.1977 L1134.7934,933.763 " fill="#D3D3D3" style="stroke:#000000;stroke-width:1.4388758782201405;"/><rect fill="none" height="165.111" style="stroke:#000000;stroke-width:1.4388758782201405;" width="693.5382" x="1134.7934" y="933.763"/><text fill="#000000" font-family="sans-serif" font-size="12.4703" font-weight="bold" lengthAdjust="spacing" textLength="23.9813" x="1149.1822" y="946.2974">opt</text><text fill="#000000" font-family="sans-serif" font-size="10.5518" font-weight="bold" lengthAdjust="spacing" textLength="4.7963" x="1216.3297" y="951.059">[</text><text fill="#000000" font-family="sans-serif" font-size="15.348" font-weight="bold" lengthAdjust="spacing" textLength="188.9724" x="1221.126" y="949.9279">Pushbenachrichtigung</text><text fill="#000000" font-family="sans-serif" font-size="10.5518" font-weight="bold" lengthAdjust="spacing" textLength="4.7963" x="1410.0984" y="951.059">]</text><polygon fill="#000000" points="1470.5311,998.5574,1480.1237,1002.3944,1470.5311,1006.2314,1474.3681,1002.3944" style="stroke:#000000;stroke-width:0.9592505854800937;"/><line style="stroke:#000000;stroke-width:0.9592505854800937;" x1="1251.822" x2="1476.2867" y1="1002.3944" y2="1002.3944"/><text fill="#000000" font-family="sans-serif" font-size="16.3073" lengthAdjust="spacing" textLength="211.9944" x="1258.5368" y="996.63">POST /_matrix/push/notify</text><polygon fill="#000000" points="1704.5883,1030.9696,1714.1808,1034.8066,1704.5883,1038.6436,1708.4253,1034.8066" style="stroke:#000000;stroke-width:0.9592505854800937;"/><line style="stroke:#000000;stroke-width:0.9592505854800937;" x1="1491.6347" x2="1710.3438" y1="1034.8066" y2="1034.8066"/><text fill="#000000" font-family="sans-serif" font-size="16.3073" lengthAdjust="spacing" textLength="93.0473" x="1498.3494" y="1029.0422">Notification</text><polygon fill="#000000" points="1262.3738,1063.3817,1252.7813,1067.2187,1262.3738,1071.0557,1258.5368,1067.2187" style="stroke:#000000;stroke-width:0.9592505854800937;"/><line style="stroke:#000000;stroke-width:0.9592505854800937;stroke-dasharray:2.0,2.0;" x1="1256.6183" x2="1485.8792" y1="1067.2187" y2="1067.2187"/><text fill="#000000" font-family="sans-serif" font-size="16.3073" lengthAdjust="spacing" textLength="51.7995" x="1428.3241" y="1061.4543">Status</text><polygon fill="#000000" points="1036.9499,1169.4539,1027.3574,1173.2909,1036.9499,1177.1279,1033.1129,1173.2909" style="stroke:#000000;stroke-width:0.9592505854800937;"/><line style="stroke:#000000;stroke-width:0.9592505854800937;" x1="1031.1944" x2="1241.2703" y1="1173.2909" y2="1173.2909"/><text fill="#000000" font-family="sans-serif" font-size="16.3073" lengthAdjust="spacing" textLength="122.7841" x="1107.9344" y="1148.5438">Matrix-Request</text><text fill="#000000" font-family="sans-serif" font-size="16.3073" lengthAdjust="spacing" textLength="96.8843" x="1107.9344" y="1167.5265">an Client-B)</text><polygon fill="#000000" points="1699.792,1201.866,1709.3845,1205.703,1699.792,1209.54,1703.629,1205.703" style="stroke:#000000;stroke-width:0.9592505854800937;"/><line style="stroke:#000000;stroke-width:0.9592505854800937;" x1="1026.3981" x2="1705.5475" y1="1205.703" y2="1205.703"/><text fill="#000000" font-family="sans-serif" font-size="16.3073" lengthAdjust="spacing" textLength="136.2136" x="1033.1129" y="1199.9386">HTTP(S) Forward</text><line style="stroke:#000000;stroke-width:0.9592505854800937;" x1="1720.8956" x2="1761.1841" y1="1238.1152" y2="1238.1152"/><line style="stroke:#000000;stroke-width:0.9592505854800937;" x1="1761.1841" x2="1761.1841" y1="1238.1152" y2="1250.5855"/><line style="stroke:#000000;stroke-width:0.9592505854800937;" x1="1721.8548" x2="1761.1841" y1="1250.5855" y2="1250.5855"/><polygon fill="#000000" points="1731.4473,1246.7485,1721.8548,1250.5855,1731.4473,1254.4225,1727.6103,1250.5855" style="stroke:#000000;stroke-width:0.9592505854800937;"/><text fill="#000000" font-family="sans-serif" font-size="16.3073" lengthAdjust="spacing" textLength="144.8468" x="1727.6103" y="1232.3508">Event verarbeiten</text><polygon fill="#000000" points="1036.9499,1279.1607,1027.3574,1282.9977,1036.9499,1286.8347,1033.1129,1282.9977" style="stroke:#000000;stroke-width:0.9592505854800937;"/><line style="stroke:#000000;stroke-width:0.9592505854800937;stroke-dasharray:2.0,2.0;" x1="1031.1944" x2="1710.3438" y1="1282.9977" y2="1282.9977"/><text fill="#000000" font-family="sans-serif" font-size="16.3073" lengthAdjust="spacing" textLength="51.7995" x="1652.7888" y="1277.2333">Status</text><polygon fill="#000000" points="1230.7185,1354.5368,1240.311,1358.3738,1230.7185,1362.2108,1234.5555,1358.3738" style="stroke:#000000;stroke-width:0.9592505854800937;"/><line style="stroke:#000000;stroke-width:0.9592505854800937;stroke-dasharray:2.0,2.0;" x1="1026.3981" x2="1236.474" y1="1358.3738" y2="1358.3738"/><text fill="#000000" font-family="sans-serif" font-size="16.3073" lengthAdjust="spacing" textLength="136.2136" x="1033.1129" y="1333.6267">HTTP(S) Forward</text><text fill="#000000" font-family="sans-serif" font-size="16.3073" lengthAdjust="spacing" textLength="135.2543" x="1033.1129" y="1352.6094">(Status Client-B)</text><polygon fill="#FF0000" points="1036.9499,1386.9489,1027.3574,1390.7859,1036.9499,1394.623,1033.1129,1390.7859" style="stroke:#FF0000;stroke-width:0.9592505854800937;"/><line style="stroke:#FF0000;stroke-width:0.9592505854800937;stroke-dasharray:2.0,2.0;" x1="1031.1944" x2="1246.0665" y1="1390.7859" y2="1390.7859"/><text fill="#000000" font-family="sans-serif" font-size="16.3073" lengthAdjust="spacing" textLength="192.8094" x="1047.5016" y="1385.0215">Status (Matrix-Request)</text><polygon fill="#000000" points="1699.792,1419.3611,1709.3845,1423.1981,1699.792,1427.0351,1703.629,1423.1981" style="stroke:#000000;stroke-width:0.9592505854800937;"/><line style="stroke:#000000;stroke-width:0.9592505854800937;stroke-dasharray:2.0,2.0;" x1="1026.3981" x2="1705.5475" y1="1423.1981" y2="1423.1981"/><text fill="#000000" font-family="sans-serif" font-size="16.3073" lengthAdjust="spacing" textLength="136.2136" x="1033.1129" y="1417.4337">HTTP(S) Forward</text><polygon fill="#000000" points="1925.2159,1451.7733,1934.8084,1455.6103,1925.2159,1459.4473,1929.0529,1455.6103" style="stroke:#000000;stroke-width:0.9592505854800937;"/><line style="stroke:#000000;stroke-width:0.9592505854800937;" x1="1716.0993" x2="1930.9714" y1="1455.6103" y2="1455.6103"/><text fill="#000000" font-family="sans-serif" font-size="16.3073" lengthAdjust="spacing" textLength="51.7995" x="1722.8141" y="1449.8459">Status</text><polygon fill="#000000" points="578.4281,1484.1855,568.8356,1488.0225,578.4281,1491.8595,574.5911,1488.0225" style="stroke:#000000;stroke-width:0.9592505854800937;"/><line style="stroke:#000000;stroke-width:0.9592505854800937;stroke-dasharray:2.0,2.0;" x1="572.6726" x2="1020.6426" y1="1488.0225" y2="1488.0225"/><text fill="#000000" font-family="sans-serif" font-size="16.3073" lengthAdjust="spacing" textLength="136.2136" x="878.6735" y="1482.2581">HTTP(S) Forward</text><polygon fill="#000000" points="344.371,1516.5977,334.7785,1520.4347,344.371,1524.2717,340.534,1520.4347" style="stroke:#000000;stroke-width:0.9592505854800937;"/><line style="stroke:#000000;stroke-width:0.9592505854800937;stroke-dasharray:2.0,2.0;" x1="338.6155" x2="562.1208" y1="1520.4347" y2="1520.4347"/><text fill="#000000" font-family="sans-serif" font-size="16.3073" lengthAdjust="spacing" textLength="51.7995" x="504.5658" y="1514.6703">Status</text><!--SRC=[ZLLjJ-D64FxkNp62Bo1T6cArTwVe52bEEO84n2AXfwgfgeqzSLROk-dk1WAbVwkV-kt-M6UzZjy8AKZ1pkupCyyyyn9zpyMQAPQ1nZytA2AyHgrPWiEK9m9YhZ0oN0fFby2CYr7AjFx6OxC2_-oiTXV8RSZYc8i4UZ_LpdVERt69ohwCaSMe0XRT9qfkH3oIgLImPYac2f72HVGA6TjIW1y_mwEDvUrn27zvGwNaexDVfEJG7NoLmapvCqBlapUCZ5I1L1InZhlYIxpY0W_SjFXTC2xqGYhfUI5JXaTypOIfsrzBmnzOhbWTqVAp7rLIzi_QntLoRqGENbssWqvcbxyCPvUJ6wzGvCtiykjstF9mnx4yk64Pmf2jSUlzxG7zCNi3TprW6excOdXlSAEW0qFWr5Eeu5QcASx5dQRtBjX7PnmCv-8eDrzNIS38EPbTTcnZeaW8EgS6v2ZC4HnJcqOOf1lC3HTo2ryqqUltFWyg_1JL0y5W-ALhBmTm_6t53KupUU_icY6lGnUp7Z1KSljqj0yyBi3CABubv5XcIFaye79m5B7bzHv-mLlyckpyG-oQtFp3tEhWyCA1murU4VI26NnaJwzpQ1J7FrYSsVbeV3EvcbpyMkyAlzqLmVkwmdjvUV64D0YI4g3k-a2- -Z0NXQAV1Zzpgd7k5K5puimsIt9ijqMwG06l5MVqBSCqHWCq1i1fWw7cvXcGfb_3yoP1k-fGa7KZIvUZ_g6eM8t4EKLQiZJLZi82ULonicupi35fr6Xg1DooJMP12Hg51aNbCS-NCh_hTGQZNh_mGJEKVlz7cxaegdh-G4GeKxtJs6uMj7FJ68vHh_FRiSBuzm6rTnyAurkxHhLfcXA03kX_QJ4cY_5i5fvCJ-6hL8zCnIsJSMuo9gevs96Q2oeKKvGT9KRtDg4TwWqICRPyxgm052vTvSds0-GEIj43-bM9LeOd6v7ejVh-xv9UIYNpxiaTvSzwPg7_Vvc5Vicyni2t3FptCwYo3_rAraRm8dPHzOQuVYwRtt4c1yIbfroRuokUhCo5mgTQ3-oeVXpO2QScPT5AyHtbWgbNoPt7ewNGXt0odK7tZoolLdTDrbqQGxvyAjPXIPJG-H4zgMN9yiR2UEH-wNOtHHPJmqpHj8soEoUE1UsTIX4dW1MzsJUa11FW1h8Jd1OQv_5RbONMYFYj5JKgp9p0TNdTPH6-P5vLjDCkfeit5oSEtAH7YJGQiC2SDFCwVJqGVXbkjBTlRG9tJMrhzgFAF9-UVNrV3nVwnR2u_RFVgLiMpJYzGXlw_0S0]--></g></svg>