<?xml version="1.0" encoding="us-ascii" standalone="no"?><svg xmlns="http://www.w3.org/2000/svg" xmlns:xlink="http://www.w3.org/1999/xlink" contentStyleType="text/css" height="2723px" preserveAspectRatio="none" style="width:1799px;height:2723px;background:#FFFFFF;" version="1.1" viewBox="0 0 1799 2723" width="1799px" zoomAndPan="magnify"><defs/><g><rect fill="#F5F5F5" height="2711.1953" style="stroke:#181818;stroke-width:0.5;" width="487.5" x="345" y="6"/><text fill="#000000" font-family="sans-serif" font-size="19" font-weight="bold" lengthAdjust="spacing" textLength="99" x="536.75" y="23.6362">Endger&#228;t</text><text fill="#000000" font-family="sans-serif" font-size="13" font-weight="bold" lengthAdjust="spacing" textLength="5" x="635.75" y="25.0513">&#160;</text><rect fill="#DCDCDC" height="2287.7344" style="stroke:#000000;stroke-width:1.0;" width="10" x="470.5" y="244.8984"/><rect fill="#DCDCDC" height="256.3125" style="stroke:#000000;stroke-width:1.0;" width="10" x="741.5" y="489.0625"/><rect fill="#DCDCDC" height="33.7891" style="stroke:#000000;stroke-width:1.0;" width="10" x="1049.5" y="590.4297"/><rect fill="#DCDCDC" height="112.0977" style="stroke:#000000;stroke-width:1.0;" width="10" x="1257" y="318.1758"/><rect fill="#DCDCDC" height="1308.1172" style="stroke:#000000;stroke-width:1.0;" width="10" x="1257" y="804.1641"/><rect fill="#DCDCDC" height="228.6758" style="stroke:#000000;stroke-width:1.0;" width="10" x="1257" y="2270.168"/><rect fill="#DCDCDC" height="168.9453" style="stroke:#000000;stroke-width:1.0;" width="10" x="1686" y="522.8516"/><rect fill="#DCDCDC" height="33.7891" style="stroke:#000000;stroke-width:1.0;" width="10" x="1686" y="837.9531"/><rect fill="#F0F8FF" height="2412.0703" style="stroke:#000000;stroke-width:1.5;" width="1783" x="10" y="153.5625"/><rect fill="#ADD8E6" height="1289.3047" style="stroke:#000000;stroke-width:1.5;" width="1763" x="20" y="259.8984"/><rect fill="#ADD8E6" height="466.5156" style="stroke:none;stroke-width:1.0;" width="1763" x="20" y="1082.6875"/><rect fill="#FFE4E1" height="131.9609" style="stroke:#000000;stroke-width:1.5;" width="1367.5" x="20" y="1588.2031"/><rect fill="#FFE4E1" height="131.9609" style="stroke:#000000;stroke-width:1.5;" width="1367.5" x="20" y="1922.5313"/><line style="stroke:#000000;stroke-width:0.5;stroke-dasharray:5.0,5.0;" x1="126" x2="126" y1="111.5625" y2="2607.6328"/><line style="stroke:#000000;stroke-width:0.5;stroke-dasharray:5.0,5.0;" x1="475" x2="475" y1="111.5625" y2="2607.6328"/><line style="stroke:#000000;stroke-width:0.5;stroke-dasharray:5.0,5.0;" x1="746.5" x2="746.5" y1="111.5625" y2="2607.6328"/><line style="stroke:#000000;stroke-width:0.5;stroke-dasharray:5.0,5.0;" x1="1054.5" x2="1054.5" y1="111.5625" y2="2607.6328"/><line style="stroke:#000000;stroke-width:0.5;stroke-dasharray:5.0,5.0;" x1="1261.5" x2="1261.5" y1="111.5625" y2="2607.6328"/><line style="stroke:#000000;stroke-width:0.5;stroke-dasharray:5.0,5.0;" x1="1691" x2="1691" y1="111.5625" y2="2607.6328"/><text fill="#000000" font-family="sans-serif" font-size="20" lengthAdjust="spacing" textLength="187" x="30" y="83.5645">Akteur in der Rolle</text><text fill="#000000" font-family="sans-serif" font-size="20" lengthAdjust="spacing" textLength="110" x="68.5" y="106.8457">Org-Admin</text><ellipse cx="126.5" cy="13.5" fill="#DCDCDC" rx="8" ry="8" style="stroke:#000000;stroke-width:0.5;"/><path d="M126.5,21.5 L126.5,48.5 M113.5,29.5 L139.5,29.5 M126.5,48.5 L113.5,63.5 M126.5,48.5 L139.5,63.5 " fill="none" style="stroke:#000000;stroke-width:0.5;"/><text fill="#000000" font-family="sans-serif" font-size="20" lengthAdjust="spacing" textLength="187" x="30" y="2625.1973">Akteur in der Rolle</text><text fill="#000000" font-family="sans-serif" font-size="20" lengthAdjust="spacing" textLength="110" x="68.5" y="2648.4785">Org-Admin</text><ellipse cx="126.5" cy="2661.6953" fill="#DCDCDC" rx="8" ry="8" style="stroke:#000000;stroke-width:0.5;"/><path d="M126.5,2669.6953 L126.5,2696.6953 M113.5,2677.6953 L139.5,2677.6953 M126.5,2696.6953 L113.5,2711.6953 M126.5,2696.6953 L139.5,2711.6953 " fill="none" style="stroke:#000000;stroke-width:0.5;"/><rect fill="#EFEFFF" height="60.5625" rx="2.5" ry="2.5" style="stroke:#000000;stroke-width:0.5;" width="253" x="349" y="50"/><text fill="#000000" font-family="sans-serif" font-size="20" lengthAdjust="spacing" textLength="132" x="406.5" y="75.5645">Frontend des</text><text fill="#000000" font-family="sans-serif" font-size="20" lengthAdjust="spacing" textLength="239" x="356" y="98.8457">Registrierungs-Dienstes</text><rect fill="#EFEFFF" height="60.5625" rx="2.5" ry="2.5" style="stroke:#000000;stroke-width:0.5;" width="253" x="349" y="2606.6328"/><text fill="#000000" font-family="sans-serif" font-size="20" lengthAdjust="spacing" textLength="132" x="406.5" y="2632.1973">Frontend des</text><text fill="#000000" font-family="sans-serif" font-size="20" lengthAdjust="spacing" textLength="239" x="356" y="2655.4785">Registrierungs-Dienstes</text><rect fill="#EFEFFF" height="37.2813" rx="2.5" ry="2.5" style="stroke:#000000;stroke-width:0.5;" width="164" x="664.5" y="73.2813"/><text fill="#000000" font-family="sans-serif" font-size="20" lengthAdjust="spacing" textLength="138" x="677.5" y="98.8457">Authenticator</text><rect fill="#EFEFFF" height="37.2813" rx="2.5" ry="2.5" style="stroke:#000000;stroke-width:0.5;" width="164" x="664.5" y="2606.6328"/><text fill="#000000" font-family="sans-serif" font-size="20" lengthAdjust="spacing" textLength="138" x="677.5" y="2632.1973">Authenticator</text><rect fill="#EFEFFF" height="37.2813" rx="2.5" ry="2.5" style="stroke:#000000;stroke-width:0.5;" width="164" x="972.5" y="73.2813"/><text fill="#000000" font-family="sans-serif" font-size="20" lengthAdjust="spacing" textLength="103" x="1003" y="98.8457">Konnektor</text><rect fill="#EFEFFF" height="37.2813" rx="2.5" ry="2.5" style="stroke:#000000;stroke-width:0.5;" width="164" x="972.5" y="2606.6328"/><text fill="#000000" font-family="sans-serif" font-size="20" lengthAdjust="spacing" textLength="103" x="1003" y="2632.1973">Konnektor</text><rect fill="#EFEFFF" height="37.2813" rx="2.5" ry="2.5" style="stroke:#000000;stroke-width:0.5;" width="231" x="1146.5" y="73.2813"/><text fill="#000000" font-family="sans-serif" font-size="20" lengthAdjust="spacing" textLength="217" x="1153.5" y="98.8457">Registrierungs-Dienst</text><rect fill="#EFEFFF" height="37.2813" rx="2.5" ry="2.5" style="stroke:#000000;stroke-width:0.5;" width="231" x="1146.5" y="2606.6328"/><text fill="#000000" font-family="sans-serif" font-size="20" lengthAdjust="spacing" textLength="217" x="1153.5" y="2632.1973">Registrierungs-Dienst</text><rect fill="#EFEFFF" height="60.5625" rx="2.5" ry="2.5" style="stroke:#000000;stroke-width:0.5;" width="164" x="1609" y="50"/><text fill="#000000" font-family="sans-serif" font-size="20" lengthAdjust="spacing" textLength="90" x="1643" y="75.5645">zentraler</text><text fill="#000000" font-family="sans-serif" font-size="20" lengthAdjust="spacing" textLength="104" x="1639" y="98.8457">IDP-Dienst</text><rect fill="#EFEFFF" height="60.5625" rx="2.5" ry="2.5" style="stroke:#000000;stroke-width:0.5;" width="164" x="1609" y="2606.6328"/><text fill="#000000" font-family="sans-serif" font-size="20" lengthAdjust="spacing" textLength="90" x="1643" y="2632.1973">zentraler</text><text fill="#000000" font-family="sans-serif" font-size="20" lengthAdjust="spacing" textLength="104" x="1639" y="2655.4785">IDP-Dienst</text><rect fill="#DCDCDC" height="2287.7344" style="stroke:#000000;stroke-width:1.0;" width="10" x="470.5" y="244.8984"/><rect fill="#DCDCDC" height="256.3125" style="stroke:#000000;stroke-width:1.0;" width="10" x="741.5" y="489.0625"/><rect fill="#DCDCDC" height="33.7891" style="stroke:#000000;stroke-width:1.0;" width="10" x="1049.5" y="590.4297"/><rect fill="#DCDCDC" height="112.0977" style="stroke:#000000;stroke-width:1.0;" width="10" x="1257" y="318.1758"/><rect fill="#DCDCDC" height="1308.1172" style="stroke:#000000;stroke-width:1.0;" width="10" x="1257" y="804.1641"/><rect fill="#DCDCDC" height="228.6758" style="stroke:#000000;stroke-width:1.0;" width="10" x="1257" y="2270.168"/><rect fill="#DCDCDC" height="168.9453" style="stroke:#000000;stroke-width:1.0;" width="10" x="1686" y="522.8516"/><rect fill="#DCDCDC" height="33.7891" style="stroke:#000000;stroke-width:1.0;" width="10" x="1686" y="837.9531"/><path d="M10,153.5625 L74,153.5625 L74,160.6953 L64,170.6953 L10,170.6953 L10,153.5625 " fill="#D3D3D3" style="stroke:#000000;stroke-width:1.5;"/><rect fill="none" height="2412.0703" style="stroke:#000000;stroke-width:1.5;" width="1783" x="10" y="153.5625"/><text fill="#000000" font-family="sans-serif" font-size="13" font-weight="bold" lengthAdjust="spacing" textLength="19" x="25" y="166.6294">alt</text><text fill="#000000" font-family="sans-serif" font-size="11" font-weight="bold" lengthAdjust="spacing" textLength="5" x="89" y="171.5933">[</text><text fill="#000000" font-family="sans-serif" font-size="16" font-weight="bold" lengthAdjust="spacing" textLength="515" x="94" y="170.4141">Organisation nicht am Registrierungs-Dienst authentisiert</text><text fill="#000000" font-family="sans-serif" font-size="11" font-weight="bold" lengthAdjust="spacing" textLength="5" x="609" y="171.5933">]</text><polygon fill="#000000" points="458.5,240.8984,468.5,244.8984,458.5,248.8984,462.5,244.8984" style="stroke:#000000;stroke-width:1.0;"/><line style="stroke:#000000;stroke-width:1.0;" x1="126.5" x2="464.5" y1="244.8984" y2="244.8984"/><text fill="#000000" font-family="sans-serif" font-size="17" font-weight="bold" lengthAdjust="spacing" textLength="12" x="133.5" y="228.9946">1</text><text fill="#000000" font-family="sans-serif" font-size="17" lengthAdjust="spacing" textLength="206" x="149.5" y="219.1001">Organisation verifizieren</text><text fill="#000000" font-family="sans-serif" font-size="17" lengthAdjust="spacing" textLength="193" x="149.5" y="238.8892">(Verfahren ausw&#228;hlen)</text><path d="M20,259.8984 L84,259.8984 L84,267.0313 L74,277.0313 L20,277.0313 L20,259.8984 " fill="#D3D3D3" style="stroke:#000000;stroke-width:1.5;"/><rect fill="none" height="1289.3047" style="stroke:#000000;stroke-width:1.5;" width="1763" x="20" y="259.8984"/><text fill="#000000" font-family="sans-serif" font-size="13" font-weight="bold" lengthAdjust="spacing" textLength="19" x="35" y="272.9653">alt</text><text fill="#000000" font-family="sans-serif" font-size="11" font-weight="bold" lengthAdjust="spacing" textLength="5" x="99" y="277.9292">[</text><text fill="#000000" font-family="sans-serif" font-size="16" font-weight="bold" lengthAdjust="spacing" textLength="146" x="104" y="276.75">OpenID Connect</text><text fill="#000000" font-family="sans-serif" font-size="11" font-weight="bold" lengthAdjust="spacing" textLength="5" x="250" y="277.9292">]</text><polygon fill="#000000" points="1245,314.1758,1255,318.1758,1245,322.1758,1249,318.1758" style="stroke:#000000;stroke-width:1.0;"/><line style="stroke:#000000;stroke-width:1.0;" x1="480.5" x2="1251" y1="318.1758" y2="318.1758"/><text fill="#000000" font-family="sans-serif" font-size="17" font-weight="bold" lengthAdjust="spacing" textLength="12" x="487.5" y="312.1665">2</text><text fill="#000000" font-family="sans-serif" font-size="17" lengthAdjust="spacing" textLength="166" x="503.5" y="312.1665">POST I_Registration</text><path d="M1272,285.6563 L1272,332.6563 L1520,332.6563 L1520,295.6563 L1510,285.6563 L1272,285.6563 " fill="#FEFFDD" style="stroke:#181818;stroke-width:0.5;"/><path d="M1510,285.6563 L1510,295.6563 L1520,295.6563 L1510,285.6563 " fill="#FEFFDD" style="stroke:#181818;stroke-width:0.5;"/><text fill="#000000" font-family="sans-serif" font-size="16" lengthAdjust="spacing" textLength="93" x="1278" y="305.5078">Schnittstelle</text><text fill="#000000" font-family="sans-serif" font-size="16" lengthAdjust="spacing" textLength="5" x="1371" y="305.5078">&#160;</text><text fill="#000000" font-family="sans-serif" font-size="16" lengthAdjust="spacing" textLength="33" x="1376" y="305.5078">wird</text><text fill="#000000" font-family="sans-serif" font-size="16" lengthAdjust="spacing" textLength="5" x="1409" y="305.5078">&#160;</text><text fill="#000000" font-family="sans-serif" font-size="16" lengthAdjust="spacing" textLength="38" x="1414" y="305.5078">nicht</text><text fill="#000000" font-family="sans-serif" font-size="16" lengthAdjust="spacing" textLength="46" x="1278" y="324.1328">durch</text><text fill="#000000" font-family="sans-serif" font-size="16" lengthAdjust="spacing" textLength="5" x="1324" y="324.1328">&#160;</text><text fill="#000000" font-family="sans-serif" font-size="16" lengthAdjust="spacing" textLength="22" x="1329" y="324.1328">die</text><text fill="#000000" font-family="sans-serif" font-size="16" lengthAdjust="spacing" textLength="5" x="1351" y="324.1328">&#160;</text><text fill="#000000" font-family="sans-serif" font-size="16" lengthAdjust="spacing" textLength="61" x="1356" y="324.1328">gematik</text><text fill="#000000" font-family="sans-serif" font-size="16" lengthAdjust="spacing" textLength="5" x="1417" y="324.1328">&#160;</text><text fill="#000000" font-family="sans-serif" font-size="16" lengthAdjust="spacing" textLength="83" x="1422" y="324.1328">spezifiziert</text><line style="stroke:#000000;stroke-width:1.0;" x1="1267" x2="1309" y1="383.4844" y2="383.4844"/><line style="stroke:#000000;stroke-width:1.0;" x1="1309" x2="1309" y1="383.4844" y2="396.4844"/><line style="stroke:#000000;stroke-width:1.0;" x1="1268" x2="1309" y1="396.4844" y2="396.4844"/><polygon fill="#000000" points="1278,392.4844,1268,396.4844,1278,400.4844,1274,396.4844" style="stroke:#000000;stroke-width:1.0;"/><text fill="#000000" font-family="sans-serif" font-size="17" font-weight="bold" lengthAdjust="spacing" textLength="12" x="1274" y="367.5806">3</text><text fill="#000000" font-family="sans-serif" font-size="17" lengthAdjust="spacing" textLength="164" x="1290" y="357.686">Erzeuge PKCE Code</text><text fill="#000000" font-family="sans-serif" font-size="17" lengthAdjust="spacing" textLength="211" x="1290" y="377.4751">f&#252;r verifier und challenge</text><polygon fill="#000000" points="491.5,426.2734,481.5,430.2734,491.5,434.2734,487.5,430.2734" style="stroke:#000000;stroke-width:1.0;"/><line style="stroke:#000000;stroke-width:1.0;stroke-dasharray:2.0,2.0;" x1="485.5" x2="1261" y1="430.2734" y2="430.2734"/><text fill="#000000" font-family="sans-serif" font-size="17" font-weight="bold" lengthAdjust="spacing" textLength="12" x="916" y="424.2642">4</text><text fill="#000000" font-family="sans-serif" font-size="17" lengthAdjust="spacing" textLength="323" x="932" y="424.2642">Redirect to IDP Authorization Endpoint</text><polygon fill="#000000" points="729.5,485.0625,739.5,489.0625,729.5,493.0625,733.5,489.0625" style="stroke:#000000;stroke-width:1.0;"/><line style="stroke:#000000;stroke-width:1.0;" x1="480.5" x2="735.5" y1="489.0625" y2="489.0625"/><text fill="#000000" font-family="sans-serif" font-size="17" font-weight="bold" lengthAdjust="spacing" textLength="12" x="487.5" y="483.0532">5</text><text fill="#000000" font-family="sans-serif" font-size="17" lengthAdjust="spacing" textLength="226" x="503.5" y="483.0532">Deeplink authenticator://...</text><polygon fill="#000000" points="1674,518.8516,1684,522.8516,1674,526.8516,1678,522.8516" style="stroke:#000000;stroke-width:1.0;"/><line style="stroke:#000000;stroke-width:1.0;" x1="751.5" x2="1680" y1="522.8516" y2="522.8516"/><text fill="#000000" font-family="sans-serif" font-size="17" font-weight="bold" lengthAdjust="spacing" textLength="12" x="758.5" y="516.8423">6</text><text fill="#000000" font-family="sans-serif" font-size="17" lengthAdjust="spacing" textLength="256" x="774.5" y="516.8423">GET {authorization_endpoint}</text><polygon fill="#000000" points="762.5,552.6406,752.5,556.6406,762.5,560.6406,758.5,556.6406" style="stroke:#000000;stroke-width:1.0;"/><line style="stroke:#000000;stroke-width:1.0;" x1="756.5" x2="1685" y1="556.6406" y2="556.6406"/><text fill="#000000" font-family="sans-serif" font-size="17" font-weight="bold" lengthAdjust="spacing" textLength="12" x="1454" y="550.6313">7</text><text fill="#000000" font-family="sans-serif" font-size="17" lengthAdjust="spacing" textLength="209" x="1470" y="550.6313">Authentication challenge</text><polygon fill="#000000" points="1037.5,586.4297,1047.5,590.4297,1037.5,594.4297,1041.5,590.4297" style="stroke:#000000;stroke-width:1.0;"/><line style="stroke:#000000;stroke-width:1.0;" x1="751.5" x2="1043.5" y1="590.4297" y2="590.4297"/><text fill="#000000" font-family="sans-serif" font-size="17" font-weight="bold" lengthAdjust="spacing" textLength="12" x="758.5" y="584.4204">8</text><text fill="#000000" font-family="sans-serif" font-size="17" lengthAdjust="spacing" textLength="179" x="774.5" y="584.4204">ExternalAuthenticate</text><polygon fill="#000000" points="762.5,620.2188,752.5,624.2188,762.5,628.2188,758.5,624.2188" style="stroke:#000000;stroke-width:1.0;"/><line style="stroke:#000000;stroke-width:1.0;stroke-dasharray:2.0,2.0;" x1="756.5" x2="1053.5" y1="624.2188" y2="624.2188"/><text fill="#000000" font-family="sans-serif" font-size="17" font-weight="bold" lengthAdjust="spacing" textLength="12" x="773.5" y="618.2095">9</text><text fill="#000000" font-family="sans-serif" font-size="17" lengthAdjust="spacing" textLength="258" x="789.5" y="618.2095">ExternalAuthenticateResponse</text><polygon fill="#000000" points="1674,654.0078,1684,658.0078,1674,662.0078,1678,658.0078" style="stroke:#000000;stroke-width:1.0;"/><line style="stroke:#000000;stroke-width:1.0;stroke-dasharray:2.0,2.0;" x1="751.5" x2="1680" y1="658.0078" y2="658.0078"/><text fill="#000000" font-family="sans-serif" font-size="17" font-weight="bold" lengthAdjust="spacing" textLength="24" x="758.5" y="651.9985">10</text><text fill="#000000" font-family="sans-serif" font-size="17" lengthAdjust="spacing" textLength="288" x="786.5" y="651.9985">Authentication challenge response</text><polygon fill="#000000" points="762.5,687.7969,752.5,691.7969,762.5,695.7969,758.5,691.7969" style="stroke:#000000;stroke-width:1.0;"/><line style="stroke:#000000;stroke-width:1.0;stroke-dasharray:2.0,2.0;" x1="756.5" x2="1690" y1="691.7969" y2="691.7969"/><text fill="#000000" font-family="sans-serif" font-size="17" font-weight="bold" lengthAdjust="spacing" textLength="24" x="1401" y="685.7876">11</text><text fill="#000000" font-family="sans-serif" font-size="17" lengthAdjust="spacing" textLength="255" x="1429" y="685.7876">HTTP 302 Redirect(auth_code)</text><polygon fill="#000000" points="491.5,741.375,481.5,745.375,491.5,749.375,487.5,745.375" style="stroke:#000000;stroke-width:1.0;"/><line style="stroke:#000000;stroke-width:1.0;stroke-dasharray:2.0,2.0;" x1="485.5" x2="745.5" y1="745.375" y2="745.375"/><text fill="#000000" font-family="sans-serif" font-size="17" font-weight="bold" lengthAdjust="spacing" textLength="24" x="518.5" y="729.4712">12</text><text fill="#000000" font-family="sans-serif" font-size="17" lengthAdjust="spacing" textLength="175" x="546.5" y="719.5767">{client_callback_uri}</text><text fill="#000000" font-family="sans-serif" font-size="17" lengthAdjust="spacing" textLength="193" x="546.5" y="739.3657">(Redirect + auth_code)</text><polygon fill="#000000" points="1245,800.1641,1255,804.1641,1245,808.1641,1249,804.1641" style="stroke:#000000;stroke-width:1.0;"/><line style="stroke:#000000;stroke-width:1.0;" x1="480.5" x2="1251" y1="804.1641" y2="804.1641"/><text fill="#000000" font-family="sans-serif" font-size="17" font-weight="bold" lengthAdjust="spacing" textLength="24" x="487.5" y="798.1548">13</text><text fill="#000000" font-family="sans-serif" font-size="17" lengthAdjust="spacing" textLength="266" x="515.5" y="798.1548">POST I_Registration(auth_code)</text><polygon fill="#000000" points="1674,833.9531,1684,837.9531,1674,841.9531,1678,837.9531" style="stroke:#000000;stroke-width:1.0;"/><line style="stroke:#000000;stroke-width:1.0;" x1="1267" x2="1680" y1="837.9531" y2="837.9531"/><text fill="#000000" font-family="sans-serif" font-size="17" font-weight="bold" lengthAdjust="spacing" textLength="24" x="1274" y="831.9438">14</text><text fill="#000000" font-family="sans-serif" font-size="17" lengthAdjust="spacing" textLength="372" x="1302" y="831.9438">POST {token_endpoint}(auth_code, verifier)</text><polygon fill="#000000" points="1278,867.7422,1268,871.7422,1278,875.7422,1274,871.7422" style="stroke:#000000;stroke-width:1.0;"/><line style="stroke:#000000;stroke-width:1.0;stroke-dasharray:2.0,2.0;" x1="1272" x2="1690" y1="871.7422" y2="871.7422"/><text fill="#000000" font-family="sans-serif" font-size="17" font-weight="bold" lengthAdjust="spacing" textLength="24" x="1584" y="865.7329">15</text><text fill="#000000" font-family="sans-serif" font-size="17" lengthAdjust="spacing" textLength="72" x="1612" y="865.7329">id_token</text><line style="stroke:#000000;stroke-width:1.0;" x1="1267" x2="1309" y1="930.5313" y2="930.5313"/><line style="stroke:#000000;stroke-width:1.0;" x1="1309" x2="1309" y1="930.5313" y2="943.5313"/><line style="stroke:#000000;stroke-width:1.0;" x1="1268" x2="1309" y1="943.5313" y2="943.5313"/><polygon fill="#000000" points="1278,939.5313,1268,943.5313,1278,947.5313,1274,943.5313" style="stroke:#000000;stroke-width:1.0;"/><text fill="#000000" font-family="sans-serif" font-size="17" font-weight="bold" lengthAdjust="spacing" textLength="24" x="1274" y="924.522">16</text><text fill="#000000" font-family="sans-serif" font-size="17" lengthAdjust="spacing" textLength="261" x="1302" y="924.522">ID_TOKEN validieren(id_token)</text><line style="stroke:#000000;stroke-width:1.0;" x1="1267" x2="1309" y1="1036.6875" y2="1036.6875"/><line style="stroke:#000000;stroke-width:1.0;" x1="1309" x2="1309" y1="1036.6875" y2="1049.6875"/><line style="stroke:#000000;stroke-width:1.0;" x1="1268" x2="1309" y1="1049.6875" y2="1049.6875"/><polygon fill="#000000" points="1278,1045.6875,1268,1049.6875,1278,1053.6875,1274,1049.6875" style="stroke:#000000;stroke-width:1.0;"/><text fill="#000000" font-family="sans-serif" font-size="17" font-weight="bold" lengthAdjust="spacing" textLength="24" x="1274" y="1000.9946">17</text><text fill="#000000" font-family="sans-serif" font-size="17" lengthAdjust="spacing" textLength="92" x="1302" y="971.311">enthaltene</text><text fill="#000000" font-family="sans-serif" font-size="17" lengthAdjust="spacing" textLength="149" x="1302" y="991.1001">ProfessionOID auf</text><text fill="#000000" font-family="sans-serif" font-size="17" lengthAdjust="spacing" textLength="170" x="1302" y="1010.8892">g&#252;ltige Organisation</text><text fill="#000000" font-family="sans-serif" font-size="17" lengthAdjust="spacing" textLength="55" x="1302" y="1030.6782">pr&#252;fen</text><line style="stroke:#000000;stroke-width:1.0;stroke-dasharray:2.0,2.0;" x1="20" x2="1783" y1="1083.6875" y2="1083.6875"/><text fill="#000000" font-family="sans-serif" font-size="11" font-weight="bold" lengthAdjust="spacing" textLength="5" x="25" y="1099.7183">[</text><text fill="#000000" font-family="sans-serif" font-size="16" font-weight="bold" lengthAdjust="spacing" textLength="141" x="30" y="1098.5391">KIM - Verfahren</text><text fill="#000000" font-family="sans-serif" font-size="11" font-weight="bold" lengthAdjust="spacing" textLength="5" x="171" y="1099.7183">]</text><polygon fill="#000000" points="1245,1150.1016,1255,1154.1016,1245,1158.1016,1249,1154.1016" style="stroke:#000000;stroke-width:1.0;"/><line style="stroke:#000000;stroke-width:1.0;" x1="126.5" x2="1251" y1="1154.1016" y2="1154.1016"/><text fill="#000000" font-family="sans-serif" font-size="17" font-weight="bold" lengthAdjust="spacing" textLength="24" x="133.5" y="1148.0923">18</text><text fill="#000000" font-family="sans-serif" font-size="17" lengthAdjust="spacing" textLength="522" x="161.5" y="1148.0923">KIM-Adresse in Eingabemaske eintragen (POST I_Registration)</text><line style="stroke:#000000;stroke-width:1.0;" x1="1267" x2="1309" y1="1207.6797" y2="1207.6797"/><line style="stroke:#000000;stroke-width:1.0;" x1="1309" x2="1309" y1="1207.6797" y2="1220.6797"/><line style="stroke:#000000;stroke-width:1.0;" x1="1268" x2="1309" y1="1220.6797" y2="1220.6797"/><polygon fill="#000000" points="1278,1216.6797,1268,1220.6797,1278,1224.6797,1274,1220.6797" style="stroke:#000000;stroke-width:1.0;"/><text fill="#000000" font-family="sans-serif" font-size="17" font-weight="bold" lengthAdjust="spacing" textLength="24" x="1274" y="1191.7759">19</text><text fill="#000000" font-family="sans-serif" font-size="17" lengthAdjust="spacing" textLength="228" x="1302" y="1181.8813">Abfrage des LDAP-Directory</text><text fill="#000000" font-family="sans-serif" font-size="17" lengthAdjust="spacing" textLength="208" x="1302" y="1201.6704">Eintrags zur KIM-Adresse</text><line style="stroke:#000000;stroke-width:1.0;" x1="1267" x2="1309" y1="1299.2578" y2="1299.2578"/><line style="stroke:#000000;stroke-width:1.0;" x1="1309" x2="1309" y1="1299.2578" y2="1312.2578"/><line style="stroke:#000000;stroke-width:1.0;" x1="1268" x2="1309" y1="1312.2578" y2="1312.2578"/><polygon fill="#000000" points="1278,1308.2578,1268,1312.2578,1278,1316.2578,1274,1312.2578" style="stroke:#000000;stroke-width:1.0;"/><text fill="#000000" font-family="sans-serif" font-size="17" font-weight="bold" lengthAdjust="spacing" textLength="24" x="1274" y="1283.354">20</text><text fill="#000000" font-family="sans-serif" font-size="17" lengthAdjust="spacing" textLength="238" x="1302" y="1273.4595">Speicherung der telematikId</text><text fill="#000000" font-family="sans-serif" font-size="17" lengthAdjust="spacing" textLength="186" x="1302" y="1293.2485">und der professionOID</text><line style="stroke:#000000;stroke-width:1.0;" x1="1267" x2="1309" y1="1410.625" y2="1410.625"/><line style="stroke:#000000;stroke-width:1.0;" x1="1309" x2="1309" y1="1410.625" y2="1423.625"/><line style="stroke:#000000;stroke-width:1.0;" x1="1268" x2="1309" y1="1423.625" y2="1423.625"/><polygon fill="#000000" points="1278,1419.625,1268,1423.625,1278,1427.625,1274,1423.625" style="stroke:#000000;stroke-width:1.0;"/><text fill="#000000" font-family="sans-serif" font-size="17" font-weight="bold" lengthAdjust="spacing" textLength="24" x="1274" y="1384.8267">21</text><text fill="#000000" font-family="sans-serif" font-size="17" lengthAdjust="spacing" textLength="149" x="1302" y="1365.0376">ProfessionOID auf</text><text fill="#000000" font-family="sans-serif" font-size="17" lengthAdjust="spacing" textLength="170" x="1302" y="1384.8267">g&#252;ltige Organisation</text><text fill="#000000" font-family="sans-serif" font-size="17" lengthAdjust="spacing" textLength="55" x="1302" y="1404.6157">pr&#252;fen</text><polygon fill="#000000" points="137.5,1478.4141,127.5,1482.4141,137.5,1486.4141,133.5,1482.4141" style="stroke:#000000;stroke-width:1.0;"/><line style="stroke:#000000;stroke-width:1.0;" x1="131.5" x2="1256" y1="1482.4141" y2="1482.4141"/><text fill="#000000" font-family="sans-serif" font-size="17" font-weight="bold" lengthAdjust="spacing" textLength="24" x="1031" y="1476.4048">22</text><text fill="#000000" font-family="sans-serif" font-size="17" lengthAdjust="spacing" textLength="191" x="1059" y="1476.4048">KIM Nachricht mit URL</text><polygon fill="#000000" points="1245,1512.2031,1255,1516.2031,1245,1520.2031,1249,1516.2031" style="stroke:#000000;stroke-width:1.0;"/><line style="stroke:#000000;stroke-width:1.0;" x1="126.5" x2="1251" y1="1516.2031" y2="1516.2031"/><text fill="#000000" font-family="sans-serif" font-size="17" font-weight="bold" lengthAdjust="spacing" textLength="24" x="133.5" y="1510.1938">23</text><text fill="#000000" font-family="sans-serif" font-size="17" lengthAdjust="spacing" textLength="238" x="161.5" y="1510.1938">URL in KIM-Nachricht &#246;ffnen</text><path d="M20,1588.2031 L108,1588.2031 L108,1595.3359 L98,1605.3359 L20,1605.3359 L20,1588.2031 " fill="#EEEEEE" style="stroke:#000000;stroke-width:1.5;"/><rect fill="none" height="131.9609" style="stroke:#000000;stroke-width:1.5;" width="1367.5" x="20" y="1588.2031"/><text fill="#000000" font-family="sans-serif" font-size="13" font-weight="bold" lengthAdjust="spacing" textLength="43" x="35" y="1601.27">break</text><text fill="#000000" font-family="sans-serif" font-size="11" font-weight="bold" lengthAdjust="spacing" textLength="5" x="123" y="1605.0698">[</text><text fill="#000000" font-family="sans-serif" font-size="15" font-weight="bold" lengthAdjust="spacing" textLength="309" x="128" y="1604.1265">keine g&#252;ltige ProfessionOID gefunden</text><text fill="#000000" font-family="sans-serif" font-size="11" font-weight="bold" lengthAdjust="spacing" textLength="5" x="437" y="1605.0698">]</text><polygon fill="#000000" points="491.5,1629.5859,481.5,1633.5859,491.5,1637.5859,487.5,1633.5859" style="stroke:#000000;stroke-width:1.0;"/><line style="stroke:#000000;stroke-width:1.0;" x1="485.5" x2="1256" y1="1633.5859" y2="1633.5859"/><text fill="#000000" font-family="sans-serif" font-size="17" font-weight="bold" lengthAdjust="spacing" textLength="24" x="755" y="1627.5767">24</text><text fill="#000000" font-family="sans-serif" font-size="17" lengthAdjust="spacing" textLength="467" x="783" y="1627.5767">Fehlernachricht "keine g&#252;ltige ProfessionOID gefunden"</text><polygon fill="#000000" points="137.5,1683.1641,127.5,1687.1641,137.5,1691.1641,133.5,1687.1641" style="stroke:#000000;stroke-width:1.0;"/><line style="stroke:#000000;stroke-width:1.0;" x1="131.5" x2="469.5" y1="1687.1641" y2="1687.1641"/><text fill="#000000" font-family="sans-serif" font-size="17" font-weight="bold" lengthAdjust="spacing" textLength="24" x="143.5" y="1671.2603">25</text><text fill="#000000" font-family="sans-serif" font-size="17" lengthAdjust="spacing" textLength="131" x="171.5" y="1661.3657">Fehlernachricht</text><text fill="#000000" font-family="sans-serif" font-size="17" lengthAdjust="spacing" textLength="292" x="171.5" y="1681.1548">"Authentifizierung fehlgeschlagen"</text><line style="stroke:#000000;stroke-width:1.0;" x1="1267" x2="1309" y1="1797.7422" y2="1797.7422"/><line style="stroke:#000000;stroke-width:1.0;" x1="1309" x2="1309" y1="1797.7422" y2="1810.7422"/><line style="stroke:#000000;stroke-width:1.0;" x1="1268" x2="1309" y1="1810.7422" y2="1810.7422"/><polygon fill="#000000" points="1278,1806.7422,1268,1810.7422,1278,1814.7422,1274,1810.7422" style="stroke:#000000;stroke-width:1.0;"/><text fill="#000000" font-family="sans-serif" font-size="17" font-weight="bold" lengthAdjust="spacing" textLength="24" x="1274" y="1781.8384">26</text><text fill="#000000" font-family="sans-serif" font-size="17" lengthAdjust="spacing" textLength="107" x="1302" y="1771.9438">Organisation</text><text fill="#000000" font-family="sans-serif" font-size="17" lengthAdjust="spacing" textLength="134" x="1302" y="1791.7329">authentifizieren</text><line style="stroke:#000000;stroke-width:1.0;" x1="1267" x2="1309" y1="1869.5313" y2="1869.5313"/><line style="stroke:#000000;stroke-width:1.0;" x1="1309" x2="1309" y1="1869.5313" y2="1882.5313"/><line style="stroke:#000000;stroke-width:1.0;" x1="1268" x2="1309" y1="1882.5313" y2="1882.5313"/><polygon fill="#000000" points="1278,1878.5313,1268,1882.5313,1278,1886.5313,1274,1882.5313" style="stroke:#000000;stroke-width:1.0;"/><text fill="#000000" font-family="sans-serif" font-size="17" font-weight="bold" lengthAdjust="spacing" textLength="24" x="1274" y="1863.522">27</text><text fill="#000000" font-family="sans-serif" font-size="17" lengthAdjust="spacing" textLength="347" x="1302" y="1863.522">Pr&#252;fung auf existierenden Admin Account</text><path d="M20,1922.5313 L108,1922.5313 L108,1929.6641 L98,1939.6641 L20,1939.6641 L20,1922.5313 " fill="#EEEEEE" style="stroke:#000000;stroke-width:1.5;"/><rect fill="none" height="131.9609" style="stroke:#000000;stroke-width:1.5;" width="1367.5" x="20" y="1922.5313"/><text fill="#000000" font-family="sans-serif" font-size="13" font-weight="bold" lengthAdjust="spacing" textLength="43" x="35" y="1935.5981">break</text><text fill="#000000" font-family="sans-serif" font-size="11" font-weight="bold" lengthAdjust="spacing" textLength="5" x="123" y="1939.3979">[</text><text fill="#000000" font-family="sans-serif" font-size="15" font-weight="bold" lengthAdjust="spacing" textLength="621" x="128" y="1938.4546">Organisation bereits authentifiziert UND ein Admin-Account existiert bereits</text><text fill="#000000" font-family="sans-serif" font-size="11" font-weight="bold" lengthAdjust="spacing" textLength="5" x="749" y="1939.3979">]</text><polygon fill="#000000" points="491.5,1963.9141,481.5,1967.9141,491.5,1971.9141,487.5,1967.9141" style="stroke:#000000;stroke-width:1.0;"/><line style="stroke:#000000;stroke-width:1.0;" x1="485.5" x2="1256" y1="1967.9141" y2="1967.9141"/><text fill="#000000" font-family="sans-serif" font-size="17" font-weight="bold" lengthAdjust="spacing" textLength="24" x="868" y="1961.9048">28</text><text fill="#000000" font-family="sans-serif" font-size="17" lengthAdjust="spacing" textLength="354" x="896" y="1961.9048">Fehlernachricht "Account existiert bereits"</text><polygon fill="#000000" points="137.5,2017.4922,127.5,2021.4922,137.5,2025.4922,133.5,2021.4922" style="stroke:#000000;stroke-width:1.0;"/><line style="stroke:#000000;stroke-width:1.0;" x1="131.5" x2="469.5" y1="2021.4922" y2="2021.4922"/><text fill="#000000" font-family="sans-serif" font-size="17" font-weight="bold" lengthAdjust="spacing" textLength="24" x="217.5" y="2005.5884">29</text><text fill="#000000" font-family="sans-serif" font-size="17" lengthAdjust="spacing" textLength="131" x="245.5" y="1995.6938">Fehlernachricht</text><text fill="#000000" font-family="sans-serif" font-size="17" lengthAdjust="spacing" textLength="218" x="245.5" y="2015.4829">"Account existiert bereits"</text><polygon fill="#000000" points="491.5,2108.2813,481.5,2112.2813,491.5,2116.2813,487.5,2112.2813" style="stroke:#000000;stroke-width:1.0;"/><line style="stroke:#000000;stroke-width:1.0;stroke-dasharray:2.0,2.0;" x1="485.5" x2="1261" y1="2112.2813" y2="2112.2813"/><text fill="#000000" font-family="sans-serif" font-size="17" font-weight="bold" lengthAdjust="spacing" textLength="24" x="1173" y="2106.272">30</text><text fill="#000000" font-family="sans-serif" font-size="17" lengthAdjust="spacing" textLength="54" x="1201" y="2106.272">Status</text><polygon fill="#000000" points="137.5,2142.0703,127.5,2146.0703,137.5,2150.0703,133.5,2146.0703" style="stroke:#000000;stroke-width:1.0;"/><line style="stroke:#000000;stroke-width:1.0;stroke-dasharray:2.0,2.0;" x1="131.5" x2="469.5" y1="2146.0703" y2="2146.0703"/><text fill="#000000" font-family="sans-serif" font-size="17" font-weight="bold" lengthAdjust="spacing" textLength="24" x="235.5" y="2140.061">31</text><text fill="#000000" font-family="sans-serif" font-size="17" lengthAdjust="spacing" textLength="200" x="263.5" y="2140.061">Verifizierung erfolgreich</text><polygon fill="#000000" points="458.5,2220.6484,468.5,2224.6484,458.5,2228.6484,462.5,2224.6484" style="stroke:#000000;stroke-width:1.0;"/><line style="stroke:#000000;stroke-width:1.0;" x1="126.5" x2="464.5" y1="2224.6484" y2="2224.6484"/><text fill="#000000" font-family="sans-serif" font-size="17" font-weight="bold" lengthAdjust="spacing" textLength="24" x="133.5" y="2208.7446">32</text><text fill="#000000" font-family="sans-serif" font-size="17" lengthAdjust="spacing" textLength="197" x="161.5" y="2198.8501">Admin Account anlegen</text><text fill="#000000" font-family="sans-serif" font-size="17" lengthAdjust="spacing" textLength="188" x="161.5" y="2218.6392">(Passwort + 2. Faktor)</text><polygon fill="#000000" points="1245,2266.168,1255,2270.168,1245,2274.168,1249,2270.168" style="stroke:#000000;stroke-width:1.0;"/><line style="stroke:#000000;stroke-width:1.0;" x1="480.5" x2="1251" y1="2270.168" y2="2270.168"/><text fill="#000000" font-family="sans-serif" font-size="17" font-weight="bold" lengthAdjust="spacing" textLength="24" x="487.5" y="2264.1587">33</text><text fill="#000000" font-family="sans-serif" font-size="17" lengthAdjust="spacing" textLength="510" x="515.5" y="2264.1587">POST I_Registration (Admin-Account Credentials + 2. Faktor)</text><path d="M1272,2237.6484 L1272,2284.6484 L1520,2284.6484 L1520,2247.6484 L1510,2237.6484 L1272,2237.6484 " fill="#FEFFDD" style="stroke:#181818;stroke-width:0.5;"/><path d="M1510,2237.6484 L1510,2247.6484 L1520,2247.6484 L1510,2237.6484 " fill="#FEFFDD" style="stroke:#181818;stroke-width:0.5;"/><text fill="#000000" font-family="sans-serif" font-size="16" lengthAdjust="spacing" textLength="93" x="1278" y="2257.5">Schnittstelle</text><text fill="#000000" font-family="sans-serif" font-size="16" lengthAdjust="spacing" textLength="5" x="1371" y="2257.5">&#160;</text><text fill="#000000" font-family="sans-serif" font-size="16" lengthAdjust="spacing" textLength="33" x="1376" y="2257.5">wird</text><text fill="#000000" font-family="sans-serif" font-size="16" lengthAdjust="spacing" textLength="5" x="1409" y="2257.5">&#160;</text><text fill="#000000" font-family="sans-serif" font-size="16" lengthAdjust="spacing" textLength="38" x="1414" y="2257.5">nicht</text><text fill="#000000" font-family="sans-serif" font-size="16" lengthAdjust="spacing" textLength="46" x="1278" y="2276.125">durch</text><text fill="#000000" font-family="sans-serif" font-size="16" lengthAdjust="spacing" textLength="5" x="1324" y="2276.125">&#160;</text><text fill="#000000" font-family="sans-serif" font-size="16" lengthAdjust="spacing" textLength="22" x="1329" y="2276.125">die</text><text fill="#000000" font-family="sans-serif" font-size="16" lengthAdjust="spacing" textLength="5" x="1351" y="2276.125">&#160;</text><text fill="#000000" font-family="sans-serif" font-size="16" lengthAdjust="spacing" textLength="61" x="1356" y="2276.125">gematik</text><text fill="#000000" font-family="sans-serif" font-size="16" lengthAdjust="spacing" textLength="5" x="1417" y="2276.125">&#160;</text><text fill="#000000" font-family="sans-serif" font-size="16" lengthAdjust="spacing" textLength="83" x="1422" y="2276.125">spezifiziert</text><line style="stroke:#000000;stroke-width:1.0;" x1="1267" x2="1309" y1="2340.6875" y2="2340.6875"/><line style="stroke:#000000;stroke-width:1.0;" x1="1309" x2="1309" y1="2340.6875" y2="2353.6875"/><line style="stroke:#000000;stroke-width:1.0;" x1="1268" x2="1309" y1="2353.6875" y2="2353.6875"/><polygon fill="#000000" points="1278,2349.6875,1268,2353.6875,1278,2357.6875,1274,2353.6875" style="stroke:#000000;stroke-width:1.0;"/><text fill="#000000" font-family="sans-serif" font-size="17" font-weight="bold" lengthAdjust="spacing" textLength="24" x="1274" y="2334.6782">34</text><text fill="#000000" font-family="sans-serif" font-size="17" lengthAdjust="spacing" textLength="209" x="1302" y="2334.6782">Credentials-Policy pr&#252;fen</text><line style="stroke:#000000;stroke-width:1.0;" x1="1267" x2="1309" y1="2452.0547" y2="2452.0547"/><line style="stroke:#000000;stroke-width:1.0;" x1="1309" x2="1309" y1="2452.0547" y2="2465.0547"/><line style="stroke:#000000;stroke-width:1.0;" x1="1268" x2="1309" y1="2465.0547" y2="2465.0547"/><polygon fill="#000000" points="1278,2461.0547,1268,2465.0547,1278,2469.0547,1274,2465.0547" style="stroke:#000000;stroke-width:1.0;"/><text fill="#000000" font-family="sans-serif" font-size="17" font-weight="bold" lengthAdjust="spacing" textLength="24" x="1274" y="2426.2563">35</text><text fill="#000000" font-family="sans-serif" font-size="17" lengthAdjust="spacing" textLength="161" x="1302" y="2406.4673">Org-Admin Account</text><text fill="#000000" font-family="sans-serif" font-size="17" lengthAdjust="spacing" textLength="166" x="1302" y="2426.2563">f&#252;r die Organisation</text><text fill="#000000" font-family="sans-serif" font-size="17" lengthAdjust="spacing" textLength="67" x="1302" y="2446.0454">anlegen</text><polygon fill="#000000" points="491.5,2494.8438,481.5,2498.8438,491.5,2502.8438,487.5,2498.8438" style="stroke:#000000;stroke-width:1.0;"/><line style="stroke:#000000;stroke-width:1.0;stroke-dasharray:2.0,2.0;" x1="485.5" x2="1261" y1="2498.8438" y2="2498.8438"/><text fill="#000000" font-family="sans-serif" font-size="17" font-weight="bold" lengthAdjust="spacing" textLength="24" x="1173" y="2492.8345">36</text><text fill="#000000" font-family="sans-serif" font-size="17" lengthAdjust="spacing" textLength="54" x="1201" y="2492.8345">Status</text><polygon fill="#000000" points="137.5,2528.6328,127.5,2532.6328,137.5,2536.6328,133.5,2532.6328" style="stroke:#000000;stroke-width:1.0;"/><line style="stroke:#000000;stroke-width:1.0;stroke-dasharray:2.0,2.0;" x1="131.5" x2="474.5" y1="2532.6328" y2="2532.6328"/><text fill="#000000" font-family="sans-serif" font-size="17" font-weight="bold" lengthAdjust="spacing" textLength="24" x="296.5" y="2526.6235">37</text><text fill="#000000" font-family="sans-serif" font-size="17" lengthAdjust="spacing" textLength="144" x="324.5" y="2526.6235">Account angelegt</text></g></svg>