<?xml version="1.0" encoding="us-ascii" standalone="no"?><svg xmlns="http://www.w3.org/2000/svg" xmlns:xlink="http://www.w3.org/1999/xlink" contentStyleType="text/css" height="1296px" preserveAspectRatio="none" style="width:1658px;height:1296px;background:#FFFFFF;" version="1.1" viewBox="0 0 1658 1296" width="1658px" zoomAndPan="magnify"><defs/><g><rect fill="#F5F5F5" height="1284.0859" style="stroke:#181818;stroke-width:0.5;" width="761" x="449" y="6"/><text fill="#000000" font-family="sans-serif" font-size="18" font-weight="bold" lengthAdjust="spacing" textLength="193" x="730.5" y="22.708">Messenger-Service</text><text fill="#000000" font-family="sans-serif" font-size="13" font-weight="bold" lengthAdjust="spacing" textLength="5" x="923.5" y="23.8872">&#160;</text><rect fill="#F0F8FF" height="830.5391" style="stroke:#000000;stroke-width:1.0;" width="10" x="330" y="306.9844"/><rect fill="#DCDCDC" height="762.9609" style="stroke:#000000;stroke-width:1.0;" width="10" x="555" y="340.7734"/><rect fill="#DCDCDC" height="602.8047" style="stroke:#000000;stroke-width:1.0;" width="10" x="824.5" y="374.5625"/><rect fill="#DCDCDC" height="67.5781" style="stroke:#000000;stroke-width:1.0;" width="10" x="1094" y="552.6875"/><rect fill="#C9FFC9" height="305.3125" style="stroke:#000000;stroke-width:1.0;" width="10" x="1319" y="764.6328"/><rect fill="#F0F8FF" height="172.125" style="stroke:#000000;stroke-width:1.5;" width="774" x="667" y="481.1406"/><line style="stroke:#000000;stroke-width:0.5;stroke-dasharray:5.0,5.0;" x1="111" x2="111" y1="111.5625" y2="1180.5234"/><line style="stroke:#000000;stroke-width:0.5;stroke-dasharray:5.0,5.0;" x1="335" x2="335" y1="111.5625" y2="1180.5234"/><line style="stroke:#000000;stroke-width:0.5;stroke-dasharray:5.0,5.0;" x1="560" x2="560" y1="111.5625" y2="1180.5234"/><line style="stroke:#000000;stroke-width:0.5;stroke-dasharray:5.0,5.0;" x1="829" x2="829" y1="111.5625" y2="1180.5234"/><line style="stroke:#000000;stroke-width:0.5;stroke-dasharray:5.0,5.0;" x1="1099" x2="1099" y1="111.5625" y2="1180.5234"/><line style="stroke:#000000;stroke-width:0.5;stroke-dasharray:5.0,5.0;" x1="1324" x2="1324" y1="111.5625" y2="1180.5234"/><line style="stroke:#000000;stroke-width:0.5;stroke-dasharray:5.0,5.0;" x1="1547" x2="1547" y1="111.5625" y2="1180.5234"/><text fill="#000000" font-family="sans-serif" font-size="20" lengthAdjust="spacing" textLength="207" x="5" y="83.5645">Akteur A in der Rolle</text><text fill="#000000" font-family="sans-serif" font-size="20" lengthAdjust="spacing" textLength="45" x="86" y="106.8457">User</text><ellipse cx="111.5" cy="13.5" fill="#DCDCDC" rx="8" ry="8" style="stroke:#000000;stroke-width:0.5;"/><path d="M111.5,21.5 L111.5,48.5 M98.5,29.5 L124.5,29.5 M111.5,48.5 L98.5,63.5 M111.5,48.5 L124.5,63.5 " fill="none" style="stroke:#000000;stroke-width:0.5;"/><text fill="#000000" font-family="sans-serif" font-size="20" lengthAdjust="spacing" textLength="207" x="5" y="1198.0879">Akteur A in der Rolle</text><text fill="#000000" font-family="sans-serif" font-size="20" lengthAdjust="spacing" textLength="45" x="86" y="1221.3691">User</text><ellipse cx="111.5" cy="1234.5859" fill="#DCDCDC" rx="8" ry="8" style="stroke:#000000;stroke-width:0.5;"/><path d="M111.5,1242.5859 L111.5,1269.5859 M98.5,1250.5859 L124.5,1250.5859 M111.5,1269.5859 L98.5,1284.5859 M111.5,1269.5859 L124.5,1284.5859 " fill="none" style="stroke:#000000;stroke-width:0.5;"/><rect fill="#F0F8FF" height="60.5625" rx="2.5" ry="2.5" style="stroke:#000000;stroke-width:0.5;" width="214" x="228" y="50"/><text fill="#000000" font-family="sans-serif" font-size="20" lengthAdjust="spacing" textLength="139" x="265.5" y="75.5645">TI-Messenger-</text><text fill="#000000" font-family="sans-serif" font-size="20" lengthAdjust="spacing" textLength="79" x="295.5" y="98.8457">Client A</text><rect fill="#F0F8FF" height="60.5625" rx="2.5" ry="2.5" style="stroke:#000000;stroke-width:0.5;" width="214" x="228" y="1179.5234"/><text fill="#000000" font-family="sans-serif" font-size="20" lengthAdjust="spacing" textLength="139" x="265.5" y="1205.0879">TI-Messenger-</text><text fill="#000000" font-family="sans-serif" font-size="20" lengthAdjust="spacing" textLength="79" x="295.5" y="1228.3691">Client A</text><rect fill="#EFEFFF" height="60.5625" rx="2.5" ry="2.5" style="stroke:#000000;stroke-width:0.5;" width="214" x="453" y="50"/><text fill="#000000" font-family="sans-serif" font-size="20" lengthAdjust="spacing" textLength="114" x="503" y="75.5645">Messenger-</text><text fill="#000000" font-family="sans-serif" font-size="20" lengthAdjust="spacing" textLength="54" x="533" y="98.8457">Proxy</text><rect fill="#EFEFFF" height="60.5625" rx="2.5" ry="2.5" style="stroke:#000000;stroke-width:0.5;" width="214" x="453" y="1179.5234"/><text fill="#000000" font-family="sans-serif" font-size="20" lengthAdjust="spacing" textLength="114" x="503" y="1205.0879">Messenger-</text><text fill="#000000" font-family="sans-serif" font-size="20" lengthAdjust="spacing" textLength="54" x="533" y="1228.3691">Proxy</text><rect fill="#EFEFFF" height="60.5625" rx="2.5" ry="2.5" style="stroke:#000000;stroke-width:0.5;" width="305" x="677" y="50"/><text fill="#000000" font-family="sans-serif" font-size="20" lengthAdjust="spacing" textLength="189" x="732" y="75.5645">Matrix-Homeserver</text><text fill="#000000" font-family="sans-serif" font-size="20" lengthAdjust="spacing" textLength="291" x="684" y="98.8457">(inklusive Nutzerverzeichnis)</text><rect fill="#EFEFFF" height="60.5625" rx="2.5" ry="2.5" style="stroke:#000000;stroke-width:0.5;" width="305" x="677" y="1179.5234"/><text fill="#000000" font-family="sans-serif" font-size="20" lengthAdjust="spacing" textLength="189" x="732" y="1205.0879">Matrix-Homeserver</text><text fill="#000000" font-family="sans-serif" font-size="20" lengthAdjust="spacing" textLength="291" x="684" y="1228.3691">(inklusive Nutzerverzeichnis)</text><rect fill="#EFEFFF" height="37.2813" rx="2.5" ry="2.5" style="stroke:#000000;stroke-width:0.5;" width="214" x="992" y="73.2813"/><text fill="#000000" font-family="sans-serif" font-size="20" lengthAdjust="spacing" textLength="143" x="1027.5" y="98.8457">Push-Gateway</text><rect fill="#EFEFFF" height="37.2813" rx="2.5" ry="2.5" style="stroke:#000000;stroke-width:0.5;" width="214" x="992" y="1179.5234"/><text fill="#000000" font-family="sans-serif" font-size="20" lengthAdjust="spacing" textLength="143" x="1027.5" y="1205.0879">Push-Gateway</text><rect fill="#C9FFC9" height="60.5625" rx="2.5" ry="2.5" style="stroke:#000000;stroke-width:0.5;" width="214" x="1217" y="50"/><text fill="#000000" font-family="sans-serif" font-size="20" lengthAdjust="spacing" textLength="139" x="1254.5" y="75.5645">TI-Messenger-</text><text fill="#000000" font-family="sans-serif" font-size="20" lengthAdjust="spacing" textLength="79" x="1284.5" y="98.8457">Client B</text><rect fill="#C9FFC9" height="60.5625" rx="2.5" ry="2.5" style="stroke:#000000;stroke-width:0.5;" width="214" x="1217" y="1179.5234"/><text fill="#000000" font-family="sans-serif" font-size="20" lengthAdjust="spacing" textLength="139" x="1254.5" y="1205.0879">TI-Messenger-</text><text fill="#000000" font-family="sans-serif" font-size="20" lengthAdjust="spacing" textLength="79" x="1284.5" y="1228.3691">Client B</text><text fill="#000000" font-family="sans-serif" font-size="20" lengthAdjust="spacing" textLength="207" x="1441" y="83.5645">Akteur B in der Rolle</text><text fill="#000000" font-family="sans-serif" font-size="20" lengthAdjust="spacing" textLength="45" x="1522" y="106.8457">User</text><ellipse cx="1547.5" cy="13.5" fill="#DCDCDC" rx="8" ry="8" style="stroke:#000000;stroke-width:0.5;"/><path d="M1547.5,21.5 L1547.5,48.5 M1534.5,29.5 L1560.5,29.5 M1547.5,48.5 L1534.5,63.5 M1547.5,48.5 L1560.5,63.5 " fill="none" style="stroke:#000000;stroke-width:0.5;"/><text fill="#000000" font-family="sans-serif" font-size="20" lengthAdjust="spacing" textLength="207" x="1441" y="1198.0879">Akteur B in der Rolle</text><text fill="#000000" font-family="sans-serif" font-size="20" lengthAdjust="spacing" textLength="45" x="1522" y="1221.3691">User</text><ellipse cx="1547.5" cy="1234.5859" fill="#DCDCDC" rx="8" ry="8" style="stroke:#000000;stroke-width:0.5;"/><path d="M1547.5,1242.5859 L1547.5,1269.5859 M1534.5,1250.5859 L1560.5,1250.5859 M1547.5,1269.5859 L1534.5,1284.5859 M1547.5,1269.5859 L1560.5,1284.5859 " fill="none" style="stroke:#000000;stroke-width:0.5;"/><rect fill="#F0F8FF" height="830.5391" style="stroke:#000000;stroke-width:1.0;" width="10" x="330" y="306.9844"/><rect fill="#DCDCDC" height="762.9609" style="stroke:#000000;stroke-width:1.0;" width="10" x="555" y="340.7734"/><rect fill="#DCDCDC" height="602.8047" style="stroke:#000000;stroke-width:1.0;" width="10" x="824.5" y="374.5625"/><rect fill="#DCDCDC" height="67.5781" style="stroke:#000000;stroke-width:1.0;" width="10" x="1094" y="552.6875"/><rect fill="#C9FFC9" height="305.3125" style="stroke:#000000;stroke-width:1.0;" width="10" x="1319" y="764.6328"/><path d="M7,151.5625 L7,230.5625 L1651,230.5625 L1651,161.5625 L1641,151.5625 L7,151.5625 " fill="#FEFFDD" style="stroke:#181818;stroke-width:0.5;"/><path d="M1641,151.5625 L1641,161.5625 L1651,161.5625 L1641,151.5625 " fill="#FEFFDD" style="stroke:#181818;stroke-width:0.5;"/><text fill="#000000" font-family="sans-serif" font-size="13" lengthAdjust="spacing" textLength="4" x="321" y="168.6294">&#160;</text><text fill="#000000" font-family="sans-serif" font-size="17" lengthAdjust="spacing" textLength="1007" x="321" y="187.4751">Die Akteure sind auf dem selben Messenger-Service angemeldet und im Besitz eines zugelassenen TI-Messenger-Clients.</text><text fill="#000000" font-family="sans-serif" font-size="17" lengthAdjust="spacing" textLength="580" x="321" y="207.2642">Ebenfalls sind beide Akteure einem gemeinsamen Raum beigetreten.</text><text fill="#000000" font-family="sans-serif" font-size="13" lengthAdjust="spacing" textLength="4" x="321" y="223.3403">&#160;</text><polygon fill="#000000" points="318,302.9844,328,306.9844,318,310.9844,322,306.9844" style="stroke:#000000;stroke-width:1.0;"/><line style="stroke:#000000;stroke-width:1.0;" x1="111.5" x2="324" y1="306.9844" y2="306.9844"/><text fill="#000000" font-family="sans-serif" font-size="17" font-weight="bold" lengthAdjust="spacing" textLength="12" x="118.5" y="291.0806">1</text><text fill="#000000" font-family="sans-serif" font-size="17" lengthAdjust="spacing" textLength="107" x="134.5" y="281.186">Akteur A l&#246;st</text><text fill="#000000" font-family="sans-serif" font-size="17" lengthAdjust="spacing" textLength="143" x="134.5" y="300.9751">Matrix-Event aus</text><polygon fill="#000000" points="543,336.7734,553,340.7734,543,344.7734,547,340.7734" style="stroke:#000000;stroke-width:1.0;"/><line style="stroke:#000000;stroke-width:1.0;" x1="340" x2="549" y1="340.7734" y2="340.7734"/><text fill="#000000" font-family="sans-serif" font-size="17" font-weight="bold" lengthAdjust="spacing" textLength="12" x="347" y="334.7642">2</text><text fill="#000000" font-family="sans-serif" font-size="17" lengthAdjust="spacing" textLength="128" x="363" y="334.7642">Matrix-Request</text><polygon fill="#000000" points="812.5,370.5625,822.5,374.5625,812.5,378.5625,816.5,374.5625" style="stroke:#000000;stroke-width:1.0;"/><line style="stroke:#000000;stroke-width:1.0;" x1="565" x2="818.5" y1="374.5625" y2="374.5625"/><text fill="#000000" font-family="sans-serif" font-size="17" font-weight="bold" lengthAdjust="spacing" textLength="12" x="572" y="368.5532">3</text><text fill="#000000" font-family="sans-serif" font-size="17" lengthAdjust="spacing" textLength="142" x="588" y="368.5532">HTTP(S) Forward</text><line style="stroke:#000000;stroke-width:1.0;" x1="834.5" x2="876.5" y1="428.1406" y2="428.1406"/><line style="stroke:#000000;stroke-width:1.0;" x1="876.5" x2="876.5" y1="428.1406" y2="441.1406"/><line style="stroke:#000000;stroke-width:1.0;" x1="835.5" x2="876.5" y1="441.1406" y2="441.1406"/><polygon fill="#000000" points="845.5,437.1406,835.5,441.1406,845.5,445.1406,841.5,441.1406" style="stroke:#000000;stroke-width:1.0;"/><text fill="#000000" font-family="sans-serif" font-size="17" font-weight="bold" lengthAdjust="spacing" textLength="12" x="841.5" y="412.2368">4</text><text fill="#000000" font-family="sans-serif" font-size="17" lengthAdjust="spacing" textLength="49" x="857.5" y="402.3423">Event</text><text fill="#000000" font-family="sans-serif" font-size="17" lengthAdjust="spacing" textLength="97" x="857.5" y="422.1313">verarbeiten</text><path d="M667,481.1406 L737,481.1406 L737,488.2734 L727,498.2734 L667,498.2734 L667,481.1406 " fill="#D3D3D3" style="stroke:#000000;stroke-width:1.5;"/><rect fill="none" height="172.125" style="stroke:#000000;stroke-width:1.5;" width="774" x="667" y="481.1406"/><text fill="#000000" font-family="sans-serif" font-size="13" font-weight="bold" lengthAdjust="spacing" textLength="25" x="682" y="494.2075">opt</text><text fill="#000000" font-family="sans-serif" font-size="11" font-weight="bold" lengthAdjust="spacing" textLength="5" x="752" y="499.1714">[</text><text fill="#000000" font-family="sans-serif" font-size="16" font-weight="bold" lengthAdjust="spacing" textLength="205" x="757" y="497.9922">Push-Benachrichtigung</text><text fill="#000000" font-family="sans-serif" font-size="11" font-weight="bold" lengthAdjust="spacing" textLength="5" x="962" y="499.1714">]</text><polygon fill="#000000" points="1082,548.6875,1092,552.6875,1082,556.6875,1086,552.6875" style="stroke:#000000;stroke-width:1.0;"/><line style="stroke:#000000;stroke-width:1.0;" x1="834.5" x2="1088" y1="552.6875" y2="552.6875"/><text fill="#000000" font-family="sans-serif" font-size="17" font-weight="bold" lengthAdjust="spacing" textLength="12" x="841.5" y="546.6782">5</text><text fill="#000000" font-family="sans-serif" font-size="17" lengthAdjust="spacing" textLength="221" x="857.5" y="546.6782">POST /_matrix/push/notify</text><polygon fill="#000000" points="1312,582.4766,1322,586.4766,1312,590.4766,1316,586.4766" style="stroke:#000000;stroke-width:1.0;"/><line style="stroke:#000000;stroke-width:1.0;" x1="1104" x2="1318" y1="586.4766" y2="586.4766"/><text fill="#000000" font-family="sans-serif" font-size="17" font-weight="bold" lengthAdjust="spacing" textLength="12" x="1111" y="580.4673">6</text><text fill="#000000" font-family="sans-serif" font-size="17" lengthAdjust="spacing" textLength="97" x="1127" y="580.4673">Notification</text><polygon fill="#000000" points="845.5,616.2656,835.5,620.2656,845.5,624.2656,841.5,620.2656" style="stroke:#000000;stroke-width:1.0;"/><line style="stroke:#000000;stroke-width:1.0;stroke-dasharray:2.0,2.0;" x1="839.5" x2="1098" y1="620.2656" y2="620.2656"/><text fill="#000000" font-family="sans-serif" font-size="17" font-weight="bold" lengthAdjust="spacing" textLength="12" x="1022" y="614.2563">7</text><text fill="#000000" font-family="sans-serif" font-size="17" lengthAdjust="spacing" textLength="54" x="1038" y="614.2563">Status</text><polygon fill="#000000" points="576,726.8438,566,730.8438,576,734.8438,572,730.8438" style="stroke:#000000;stroke-width:1.0;"/><line style="stroke:#000000;stroke-width:1.0;" x1="570" x2="823.5" y1="730.8438" y2="730.8438"/><text fill="#000000" font-family="sans-serif" font-size="17" font-weight="bold" lengthAdjust="spacing" textLength="12" x="668.5" y="714.9399">8</text><text fill="#000000" font-family="sans-serif" font-size="17" lengthAdjust="spacing" textLength="128" x="684.5" y="705.0454">Matrix-Request</text><text fill="#000000" font-family="sans-serif" font-size="17" lengthAdjust="spacing" textLength="94" x="684.5" y="724.8345">an Client-B</text><polygon fill="#000000" points="1307,760.6328,1317,764.6328,1307,768.6328,1311,764.6328" style="stroke:#000000;stroke-width:1.0;"/><line style="stroke:#000000;stroke-width:1.0;" x1="565" x2="1313" y1="764.6328" y2="764.6328"/><text fill="#000000" font-family="sans-serif" font-size="17" font-weight="bold" lengthAdjust="spacing" textLength="12" x="572" y="758.6235">9</text><text fill="#000000" font-family="sans-serif" font-size="17" lengthAdjust="spacing" textLength="142" x="588" y="758.6235">HTTP(S) Forward</text><line style="stroke:#000000;stroke-width:1.0;" x1="1329" x2="1371" y1="818.2109" y2="818.2109"/><line style="stroke:#000000;stroke-width:1.0;" x1="1371" x2="1371" y1="818.2109" y2="831.2109"/><line style="stroke:#000000;stroke-width:1.0;" x1="1330" x2="1371" y1="831.2109" y2="831.2109"/><polygon fill="#000000" points="1340,827.2109,1330,831.2109,1340,835.2109,1336,831.2109" style="stroke:#000000;stroke-width:1.0;"/><text fill="#000000" font-family="sans-serif" font-size="17" font-weight="bold" lengthAdjust="spacing" textLength="24" x="1336" y="802.3071">10</text><text fill="#000000" font-family="sans-serif" font-size="17" lengthAdjust="spacing" textLength="49" x="1364" y="792.4126">Event</text><text fill="#000000" font-family="sans-serif" font-size="17" lengthAdjust="spacing" textLength="97" x="1364" y="812.2017">verarbeiten</text><polygon fill="#000000" points="576,861,566,865,576,869,572,865" style="stroke:#000000;stroke-width:1.0;"/><line style="stroke:#000000;stroke-width:1.0;stroke-dasharray:2.0,2.0;" x1="570" x2="1318" y1="865" y2="865"/><text fill="#000000" font-family="sans-serif" font-size="17" font-weight="bold" lengthAdjust="spacing" textLength="24" x="1230" y="858.9907">11</text><text fill="#000000" font-family="sans-serif" font-size="17" lengthAdjust="spacing" textLength="54" x="1258" y="858.9907">Status</text><polygon fill="#000000" points="812.5,914.5781,822.5,918.5781,812.5,922.5781,816.5,918.5781" style="stroke:#000000;stroke-width:1.0;"/><line style="stroke:#000000;stroke-width:1.0;stroke-dasharray:2.0,2.0;" x1="565" x2="818.5" y1="918.5781" y2="918.5781"/><text fill="#000000" font-family="sans-serif" font-size="17" font-weight="bold" lengthAdjust="spacing" textLength="24" x="572" y="902.6743">12</text><text fill="#000000" font-family="sans-serif" font-size="17" lengthAdjust="spacing" textLength="142" x="600" y="892.7798">HTTP(S) Forward</text><text fill="#000000" font-family="sans-serif" font-size="17" lengthAdjust="spacing" textLength="141" x="600" y="912.5688">(Status Client-B)</text><polygon fill="#000000" points="576,973.3672,566,977.3672,576,981.3672,572,977.3672" style="stroke:#000000;stroke-width:1.0;"/><line style="stroke:#000000;stroke-width:1.0;stroke-dasharray:2.0,2.0;" x1="570" x2="828.5" y1="977.3672" y2="977.3672"/><text fill="#000000" font-family="sans-serif" font-size="17" font-weight="bold" lengthAdjust="spacing" textLength="24" x="607.5" y="971.3579">13</text><text fill="#000000" font-family="sans-serif" font-size="17" lengthAdjust="spacing" textLength="187" x="635.5" y="971.3579">Matrix-Request Status</text><polygon fill="#000000" points="1307,1032.1563,1317,1036.1563,1307,1040.1563,1311,1036.1563" style="stroke:#000000;stroke-width:1.0;"/><line style="stroke:#000000;stroke-width:1.0;stroke-dasharray:2.0,2.0;" x1="565" x2="1313" y1="1036.1563" y2="1036.1563"/><text fill="#000000" font-family="sans-serif" font-size="17" font-weight="bold" lengthAdjust="spacing" textLength="24" x="572" y="1030.147">14</text><text fill="#000000" font-family="sans-serif" font-size="17" lengthAdjust="spacing" textLength="142" x="600" y="1030.147">HTTP(S) Forward</text><polygon fill="#000000" points="1535.5,1065.9453,1545.5,1069.9453,1535.5,1073.9453,1539.5,1069.9453" style="stroke:#000000;stroke-width:1.0;"/><line style="stroke:#000000;stroke-width:1.0;stroke-dasharray:2.0,2.0;" x1="1324" x2="1541.5" y1="1069.9453" y2="1069.9453"/><text fill="#000000" font-family="sans-serif" font-size="17" font-weight="bold" lengthAdjust="spacing" textLength="24" x="1331" y="1063.936">15</text><text fill="#000000" font-family="sans-serif" font-size="17" lengthAdjust="spacing" textLength="54" x="1359" y="1063.936">Status</text><polygon fill="#000000" points="351,1099.7344,341,1103.7344,351,1107.7344,347,1103.7344" style="stroke:#000000;stroke-width:1.0;"/><line style="stroke:#000000;stroke-width:1.0;stroke-dasharray:2.0,2.0;" x1="345" x2="559" y1="1103.7344" y2="1103.7344"/><text fill="#000000" font-family="sans-serif" font-size="17" font-weight="bold" lengthAdjust="spacing" textLength="24" x="383" y="1097.7251">16</text><text fill="#000000" font-family="sans-serif" font-size="17" lengthAdjust="spacing" textLength="142" x="411" y="1097.7251">HTTP(S) Forward</text><polygon fill="#000000" points="122.5,1133.5234,112.5,1137.5234,122.5,1141.5234,118.5,1137.5234" style="stroke:#000000;stroke-width:1.0;"/><line style="stroke:#000000;stroke-width:1.0;stroke-dasharray:2.0,2.0;" x1="116.5" x2="334" y1="1137.5234" y2="1137.5234"/><text fill="#000000" font-family="sans-serif" font-size="17" font-weight="bold" lengthAdjust="spacing" textLength="24" x="246" y="1131.5142">17</text><text fill="#000000" font-family="sans-serif" font-size="17" lengthAdjust="spacing" textLength="54" x="274" y="1131.5142">Status</text><!--SRC=[XLJRRjf047ttLuoIbqGgJOogfa8L4gOfH0h12gHHfKZLOWzcXRrBTzU4qFIt-WFziSvw3N4Cf3mWcCkPEMTcLi-vM335Cj3uCqSHuG2rPWbsKfu8YBd2o70fFBqDpBZefaphUnwR6JJFpok-GAv25iTS9E1Np1liMvoYiZ_wo69K0OlcYPAvYBiobGeMBCL48LArY7v2nbQ4_-4JFDfItXv0-ELrb9AFBd-I4g0pV9N2ZFWQmR_mEf6HAf2AAbRZhlaKhxd0Dpor_dgC2psHIdfUo9JX4LymOQhv0sduaXM2LIDgEFkZjYqtp-lcQdC7AWSxpdhHuVZgMsTyDRpnIaKEiYlSzRfRuwR7tnxGXraptFd0D1nrvWPp1HtWj3geu5QcAJw8Eutgg8XUlFG7NPSplchObKEHe6eyq6fn96Vd28vf1ICCqXoBr8bSmMTDjLl-f_PBnWZLai8-drbN6uxlPzpWA9Dpb_Mwv20iIbRhXKgkdexsnVPTB3EAhnfzcI6nM1Af1t72nJpDDLyYtEHcNPZNoAEPuFfq7rROAx32NCyQFMRmaPKbKSIMsAuspJUq2KYRyMMtVpEy7lQ-LwVGh4uXs3i5Z-L6YZoReFAyv-TdJqY382snE_yTGRI8OAdpHViBHt1m29fJiooV4gOzm7I20dRc08p-PPZ6Q80s2pYz2QYvMGFIGMbOvmdQnmC5PR-YvyZfz-KaAqrSKgKfIrFjMfWWZr-wih0Ps9gqlImZr5kMPpOeGQFGe7X1BFXQkUxyHhlhjs2xh-dVFzeGyNBQbqkhCyjrEKkIrnuisfsjhMMNe0PX2yhCM_imQLFF6uHUOHg45DrlGNyy3az6f_1LgaUcuftmlelkksZNpeEW8J55p8XKuI- -DfpamXnVysHcUWgVAbrkZkPZkrY_00MBPegMrV0a5qafpYieMpVijI0SZiPmzYChg9qjAFsCjeLFd-hzXht24lP8LbgW6nl48_V2bGx7P6IOsQeQOnrWqm2TnIx1GeqTfKaM9i0jJoFOYcpR-8_8T6FrC-esNUOXmSdlUgZme6fxPshV2HUsxUwqpcSleKCQbKknJRTr3z4i6hMtV0Yiswo0-8UqgbOFD-jEmFuRmBwzidy0]--></g></svg>