<?xml version="1.0" encoding="us-ascii" standalone="no"?><svg xmlns="http://www.w3.org/2000/svg" xmlns:xlink="http://www.w3.org/1999/xlink" contentStyleType="text/css" height="1939px" preserveAspectRatio="none" style="width:1507px;height:1939px;background:#FFFFFF;" version="1.1" viewBox="0 0 1507 1939" width="1507px" zoomAndPan="magnify"><defs/><g><rect fill="#F5F5F5" height="1927.6328" style="stroke:#181818;stroke-width:0.5;" width="446" x="16" y="6"/><text fill="#000000" font-family="sans-serif" font-size="18" font-weight="bold" lengthAdjust="spacing" textLength="366" x="56" y="22.708">Messenger-Service des Einladenden</text><text fill="#000000" font-family="sans-serif" font-size="13" font-weight="bold" lengthAdjust="spacing" textLength="5" x="56" y="39.02">&#160;</text><rect fill="#F5F5F5" height="1927.6328" style="stroke:#181818;stroke-width:0.5;" width="741" x="494" y="6"/><text fill="#000000" font-family="sans-serif" font-size="18" font-weight="bold" lengthAdjust="spacing" textLength="378" x="675.5" y="22.708">Messenger-Service des Eingeladenen</text><text fill="#000000" font-family="sans-serif" font-size="13" font-weight="bold" lengthAdjust="spacing" textLength="5" x="675.5" y="39.02">&#160;</text><rect fill="#DCDCDC" height="1657.6328" style="stroke:#000000;stroke-width:1.0;" width="10" x="600" y="168.4375"/><rect fill="#DCDCDC" height="148.1563" style="stroke:#000000;stroke-width:1.0;" width="10" x="895" y="1028.0156"/><rect fill="#DCDCDC" height="974.6719" style="stroke:#000000;stroke-width:1.0;" width="10" x="1119" y="817.6094"/><rect fill="#DCDCDC" height="80.5781" style="stroke:#000000;stroke-width:1.0;" width="10" x="1358" y="1061.8047"/><rect fill="#FFE4E1" height="1279.1719" style="stroke:#000000;stroke-width:1.5;" width="1022" x="468" y="388.7422"/><rect fill="#FFE4E1" height="1147.0469" style="stroke:none;stroke-width:1.0;" width="1022" x="468" y="520.8672"/><rect fill="#EFEFFF" height="914.8516" style="stroke:#000000;stroke-width:1.5;" width="1002" x="478" y="746.0625"/><rect fill="#EFEFFF" height="810.3047" style="stroke:none;stroke-width:1.0;" width="1002" x="478" y="850.6094"/><rect fill="#ADD8E6" height="365.9531" style="stroke:#000000;stroke-width:1.5;" width="849" x="488" y="1262.9609"/><rect fill="#ADD8E6" height="104.4141" style="stroke:none;stroke-width:1.0;" width="849" x="488" y="1367.5078"/><rect fill="#ADD8E6" height="156.9922" style="stroke:none;stroke-width:1.0;" width="849" x="488" y="1471.9219"/><line style="stroke:#000000;stroke-width:0.5;stroke-dasharray:5.0,5.0;" x1="127" x2="127" y1="107.6484" y2="1869.0703"/><line style="stroke:#000000;stroke-width:0.5;stroke-dasharray:5.0,5.0;" x1="351" x2="351" y1="107.6484" y2="1869.0703"/><line style="stroke:#000000;stroke-width:0.5;stroke-dasharray:5.0,5.0;" x1="605" x2="605" y1="107.6484" y2="1869.0703"/><line style="stroke:#000000;stroke-width:0.5;stroke-dasharray:5.0,5.0;" x1="900" x2="900" y1="107.6484" y2="1869.0703"/><line style="stroke:#000000;stroke-width:0.5;stroke-dasharray:5.0,5.0;" x1="1124" x2="1124" y1="107.6484" y2="1869.0703"/><line style="stroke:#000000;stroke-width:0.5;stroke-dasharray:5.0,5.0;" x1="1363" x2="1363" y1="107.6484" y2="1869.0703"/><rect fill="#EFEFFF" height="60.5625" rx="2.5" ry="2.5" style="stroke:#000000;stroke-width:0.5;" width="214" x="20" y="46.0859"/><text fill="#000000" font-family="Impact" font-size="20" lengthAdjust="spacing" textLength="114" x="70" y="71.6504">Messenger-</text><text fill="#000000" font-family="Impact" font-size="20" lengthAdjust="spacing" textLength="54" x="100" y="94.9316">Proxy</text><rect fill="#EFEFFF" height="60.5625" rx="2.5" ry="2.5" style="stroke:#000000;stroke-width:0.5;" width="214" x="20" y="1868.0703"/><text fill="#000000" font-family="Impact" font-size="20" lengthAdjust="spacing" textLength="114" x="70" y="1893.6348">Messenger-</text><text fill="#000000" font-family="Impact" font-size="20" lengthAdjust="spacing" textLength="54" x="100" y="1916.916">Proxy</text><rect fill="#EFEFFF" height="60.5625" rx="2.5" ry="2.5" style="stroke:#000000;stroke-width:0.5;" width="214" x="244" y="46.0859"/><text fill="#000000" font-family="Impact" font-size="20" lengthAdjust="spacing" textLength="69" x="316.5" y="71.6504">Matrix-</text><text fill="#000000" font-family="Impact" font-size="20" lengthAdjust="spacing" textLength="120" x="291" y="94.9316">Homeserver</text><rect fill="#EFEFFF" height="60.5625" rx="2.5" ry="2.5" style="stroke:#000000;stroke-width:0.5;" width="214" x="244" y="1868.0703"/><text fill="#000000" font-family="Impact" font-size="20" lengthAdjust="spacing" textLength="69" x="316.5" y="1893.6348">Matrix-</text><text fill="#000000" font-family="Impact" font-size="20" lengthAdjust="spacing" textLength="120" x="291" y="1916.916">Homeserver</text><rect fill="#EFEFFF" height="60.5625" rx="2.5" ry="2.5" style="stroke:#000000;stroke-width:0.5;" width="214" x="498" y="46.0859"/><text fill="#000000" font-family="Impact" font-size="20" lengthAdjust="spacing" textLength="114" x="548" y="71.6504">Messenger-</text><text fill="#000000" font-family="Impact" font-size="20" lengthAdjust="spacing" textLength="54" x="578" y="94.9316">Proxy</text><rect fill="#EFEFFF" height="60.5625" rx="2.5" ry="2.5" style="stroke:#000000;stroke-width:0.5;" width="214" x="498" y="1868.0703"/><text fill="#000000" font-family="Impact" font-size="20" lengthAdjust="spacing" textLength="114" x="548" y="1893.6348">Messenger-</text><text fill="#000000" font-family="Impact" font-size="20" lengthAdjust="spacing" textLength="54" x="578" y="1916.916">Proxy</text><rect fill="#EFEFFF" height="60.5625" rx="2.5" ry="2.5" style="stroke:#000000;stroke-width:0.5;" width="214" x="793" y="46.0859"/><text fill="#000000" font-family="Impact" font-size="20" lengthAdjust="spacing" textLength="153" x="823.5" y="71.6504">Registrierungs-</text><text fill="#000000" font-family="Impact" font-size="20" lengthAdjust="spacing" textLength="64" x="868" y="94.9316">Dienst</text><rect fill="#EFEFFF" height="60.5625" rx="2.5" ry="2.5" style="stroke:#000000;stroke-width:0.5;" width="214" x="793" y="1868.0703"/><text fill="#000000" font-family="Impact" font-size="20" lengthAdjust="spacing" textLength="153" x="823.5" y="1893.6348">Registrierungs-</text><text fill="#000000" font-family="Impact" font-size="20" lengthAdjust="spacing" textLength="64" x="868" y="1916.916">Dienst</text><rect fill="#EFEFFF" height="60.5625" rx="2.5" ry="2.5" style="stroke:#000000;stroke-width:0.5;" width="214" x="1017" y="46.0859"/><text fill="#000000" font-family="Impact" font-size="20" lengthAdjust="spacing" textLength="69" x="1089.5" y="71.6504">Matrix-</text><text fill="#000000" font-family="Impact" font-size="20" lengthAdjust="spacing" textLength="120" x="1064" y="94.9316">Homeserver</text><rect fill="#EFEFFF" height="60.5625" rx="2.5" ry="2.5" style="stroke:#000000;stroke-width:0.5;" width="214" x="1017" y="1868.0703"/><text fill="#000000" font-family="Impact" font-size="20" lengthAdjust="spacing" textLength="69" x="1089.5" y="1893.6348">Matrix-</text><text fill="#000000" font-family="Impact" font-size="20" lengthAdjust="spacing" textLength="120" x="1064" y="1916.916">Homeserver</text><rect fill="#EFEFFF" height="60.5625" rx="2.5" ry="2.5" style="stroke:#000000;stroke-width:0.5;" width="214" x="1256" y="46.0859"/><text fill="#000000" font-family="Impact" font-size="20" lengthAdjust="spacing" textLength="104" x="1311" y="71.6504">VZD-FHIR-</text><text fill="#000000" font-family="Impact" font-size="20" lengthAdjust="spacing" textLength="91" x="1317.5" y="94.9316">Directory</text><rect fill="#EFEFFF" height="60.5625" rx="2.5" ry="2.5" style="stroke:#000000;stroke-width:0.5;" width="214" x="1256" y="1868.0703"/><text fill="#000000" font-family="Impact" font-size="20" lengthAdjust="spacing" textLength="104" x="1311" y="1893.6348">VZD-FHIR-</text><text fill="#000000" font-family="Impact" font-size="20" lengthAdjust="spacing" textLength="91" x="1317.5" y="1916.916">Directory</text><rect fill="#DCDCDC" height="1657.6328" style="stroke:#000000;stroke-width:1.0;" width="10" x="600" y="168.4375"/><rect fill="#DCDCDC" height="148.1563" style="stroke:#000000;stroke-width:1.0;" width="10" x="895" y="1028.0156"/><rect fill="#DCDCDC" height="974.6719" style="stroke:#000000;stroke-width:1.0;" width="10" x="1119" y="817.6094"/><rect fill="#DCDCDC" height="80.5781" style="stroke:#000000;stroke-width:1.0;" width="10" x="1358" y="1061.8047"/><polygon fill="#000000" points="588,164.4375,598,168.4375,588,172.4375,592,168.4375" style="stroke:#000000;stroke-width:1.0;"/><line style="stroke:#000000;stroke-width:1.0;" x1="127" x2="594" y1="168.4375" y2="168.4375"/><text fill="#000000" font-family="sans-serif" font-size="17" lengthAdjust="spacing" textLength="164" x="134" y="162.4282">Matrix-Invite-Event</text><rect fill="#EEEEEE" height="3" style="stroke:#EEEEEE;stroke-width:1.0;" width="1500" x="0" y="223.75"/><line style="stroke:#000000;stroke-width:1.0;" x1="0" x2="1500" y1="223.75" y2="223.75"/><line style="stroke:#000000;stroke-width:1.0;" x1="0" x2="1500" y1="226.75" y2="226.75"/><rect fill="#EEEEEE" height="26.625" style="stroke:#000000;stroke-width:2.0;" width="321" x="589.5" y="211.4375"/><text fill="#008000" font-family="sans-serif" font-size="16" font-weight="bold" lengthAdjust="spacing" textLength="285" x="607.5" y="230.2891">Berechtigungskonzept - Stufe 1</text><text fill="#000000" font-family="sans-serif" font-size="13" font-weight="bold" lengthAdjust="spacing" textLength="10" x="892.5" y="230.9966">&#160;&#160;</text><rect fill="none" height="78.6797" style="stroke:#000000;stroke-width:1.5;" width="408" x="495" y="273.0625"/><path d="M495,273.0625 L561,273.0625 L561,280.0625 L551,290.0625 L495,290.0625 L495,273.0625 " fill="#98FB98" style="stroke:#000000;stroke-width:2.0;"/><text fill="#000000" font-family="sans-serif" font-size="13" font-weight="bold" lengthAdjust="spacing" textLength="21" x="508" y="287.1294">ref</text><text fill="#000000" font-family="sans-serif" font-size="17" font-weight="bold" lengthAdjust="spacing" textLength="94" x="499" y="309.8423">AF_10064</text><text fill="#000000" font-family="sans-serif" font-size="17" lengthAdjust="spacing" textLength="6" x="598" y="309.8423">-</text><text fill="#000000" font-family="sans-serif" font-size="17" lengthAdjust="spacing" textLength="261" x="633" y="309.8423">F&#246;derationszugeh&#246;rigkeit eines</text><text fill="#000000" font-family="sans-serif" font-size="17" lengthAdjust="spacing" textLength="5" x="571" y="329.6313">&#160;</text><text fill="#000000" font-family="sans-serif" font-size="17" lengthAdjust="spacing" textLength="216" x="611" y="329.6313">Messenger-Service pr&#252;fen</text><text fill="#000000" font-family="sans-serif" font-size="12" lengthAdjust="spacing" textLength="4" x="697" y="344.7793">&#160;</text><path d="M468,388.7422 L532,388.7422 L532,395.875 L522,405.875 L468,405.875 L468,388.7422 " fill="#D3D3D3" style="stroke:#000000;stroke-width:1.5;"/><rect fill="none" height="1279.1719" style="stroke:#000000;stroke-width:1.5;" width="1022" x="468" y="388.7422"/><text fill="#000000" font-family="sans-serif" font-size="13" font-weight="bold" lengthAdjust="spacing" textLength="19" x="483" y="401.8091">alt</text><text fill="#000000" font-family="sans-serif" font-size="11" font-weight="bold" lengthAdjust="spacing" textLength="5" x="547" y="406.7729">[</text><text fill="#000000" font-family="sans-serif" font-size="16" font-weight="bold" lengthAdjust="spacing" textLength="427" x="552" y="405.5938">Matrix-Domain nicht in der F&#246;deration enthalten</text><text fill="#000000" font-family="sans-serif" font-size="11" font-weight="bold" lengthAdjust="spacing" textLength="5" x="979" y="406.7729">]</text><line style="stroke:#000000;stroke-width:1.0;" x1="610" x2="652" y1="474.8672" y2="474.8672"/><line style="stroke:#000000;stroke-width:1.0;" x1="652" x2="652" y1="474.8672" y2="487.8672"/><line style="stroke:#000000;stroke-width:1.0;" x1="611" x2="652" y1="487.8672" y2="487.8672"/><polygon fill="#000000" points="621,483.8672,611,487.8672,621,491.8672,617,487.8672" style="stroke:#000000;stroke-width:1.0;"/><text fill="#FF0000" font-family="sans-serif" font-size="17" lengthAdjust="spacing" textLength="73" x="617" y="429.2798">Abbruch,</text><text fill="#FF0000" font-family="sans-serif" font-size="17" lengthAdjust="spacing" textLength="138" x="617" y="449.0688">Verbindung wird</text><text fill="#FF0000" font-family="sans-serif" font-size="17" lengthAdjust="spacing" textLength="84" x="617" y="468.8579">abgelehnt</text><line style="stroke:#000000;stroke-width:1.0;stroke-dasharray:2.0,2.0;" x1="468" x2="1490" y1="521.8672" y2="521.8672"/><text fill="#000000" font-family="sans-serif" font-size="11" font-weight="bold" lengthAdjust="spacing" textLength="5" x="473" y="537.8979">[</text><text fill="#000000" font-family="sans-serif" font-size="16" font-weight="bold" lengthAdjust="spacing" textLength="405" x="478" y="536.7188">Matrix-Domain ist in der F&#246;deration enthalten</text><text fill="#000000" font-family="sans-serif" font-size="11" font-weight="bold" lengthAdjust="spacing" textLength="5" x="883" y="537.8979">]</text><rect fill="#EEEEEE" height="3" style="stroke:#EEEEEE;stroke-width:1.0;" width="1500" x="0" y="563.8047"/><line style="stroke:#000000;stroke-width:1.0;" x1="0" x2="1500" y1="563.8047" y2="563.8047"/><line style="stroke:#000000;stroke-width:1.0;" x1="0" x2="1500" y1="566.8047" y2="566.8047"/><rect fill="#EEEEEE" height="26.625" style="stroke:#000000;stroke-width:2.0;" width="321" x="589.5" y="551.4922"/><text fill="#008000" font-family="sans-serif" font-size="16" font-weight="bold" lengthAdjust="spacing" textLength="285" x="607.5" y="570.3438">Berechtigungskonzept - Stufe 2</text><text fill="#000000" font-family="sans-serif" font-size="13" font-weight="bold" lengthAdjust="spacing" textLength="10" x="892.5" y="571.0513">&#160;&#160;</text><line style="stroke:#000000;stroke-width:1.0;" x1="610" x2="652" y1="693.0625" y2="693.0625"/><line style="stroke:#000000;stroke-width:1.0;" x1="652" x2="652" y1="693.0625" y2="706.0625"/><line style="stroke:#000000;stroke-width:1.0;" x1="611" x2="652" y1="706.0625" y2="706.0625"/><polygon fill="#000000" points="621,702.0625,611,706.0625,621,710.0625,617,706.0625" style="stroke:#000000;stroke-width:1.0;"/><text fill="#000000" font-family="sans-serif" font-size="17" lengthAdjust="spacing" textLength="5" x="617" y="607.897">&#160;</text><text fill="#000000" font-family="sans-serif" font-size="17" lengthAdjust="spacing" textLength="148" x="617" y="627.686">Pr&#252;fung, ob MXID</text><text fill="#000000" font-family="sans-serif" font-size="17" lengthAdjust="spacing" textLength="137" x="617" y="647.4751">des Einladenden</text><text fill="#000000" font-family="sans-serif" font-size="17" lengthAdjust="spacing" textLength="266" x="617" y="667.2642">in der pers&#246;nlichen Kontaktliste</text><text fill="#000000" font-family="sans-serif" font-size="17" lengthAdjust="spacing" textLength="107" x="617" y="687.0532">enthalten ist</text><path d="M478,746.0625 L542,746.0625 L542,753.1953 L532,763.1953 L478,763.1953 L478,746.0625 " fill="#D3D3D3" style="stroke:#000000;stroke-width:1.5;"/><rect fill="none" height="914.8516" style="stroke:#000000;stroke-width:1.5;" width="1002" x="478" y="746.0625"/><text fill="#000000" font-family="sans-serif" font-size="13" font-weight="bold" lengthAdjust="spacing" textLength="19" x="493" y="759.1294">alt</text><text fill="#000000" font-family="sans-serif" font-size="11" font-weight="bold" lengthAdjust="spacing" textLength="5" x="557" y="764.0933">[</text><text fill="#000000" font-family="sans-serif" font-size="16" font-weight="bold" lengthAdjust="spacing" textLength="604" x="562" y="762.9141">MXID des Einladenden ist in der pers&#246;nlichen Kontaktliste enthalten</text><text fill="#000000" font-family="sans-serif" font-size="11" font-weight="bold" lengthAdjust="spacing" textLength="5" x="1166" y="764.0933">]</text><polygon fill="#000000" points="1107,813.6094,1117,817.6094,1107,821.6094,1111,817.6094" style="stroke:#000000;stroke-width:1.0;"/><line style="stroke:#000000;stroke-width:1.0;" x1="610" x2="1113" y1="817.6094" y2="817.6094"/><text fill="#000000" font-family="sans-serif" font-size="17" lengthAdjust="spacing" textLength="142" x="617" y="811.6001">HTTP(S) Forward</text><line style="stroke:#000000;stroke-width:1.0;stroke-dasharray:2.0,2.0;" x1="478" x2="1480" y1="851.6094" y2="851.6094"/><text fill="#000000" font-family="sans-serif" font-size="11" font-weight="bold" lengthAdjust="spacing" textLength="5" x="483" y="867.6401">[</text><text fill="#000000" font-family="sans-serif" font-size="16" font-weight="bold" lengthAdjust="spacing" textLength="654" x="488" y="866.4609">MXID des Einladenden ist nicht in der pers&#246;nlichen Kontaktliste enthalten</text><text fill="#000000" font-family="sans-serif" font-size="11" font-weight="bold" lengthAdjust="spacing" textLength="5" x="1142" y="867.6401">]</text><rect fill="#EEEEEE" height="3" style="stroke:#EEEEEE;stroke-width:1.0;" width="1500" x="0" y="918.5469"/><line style="stroke:#000000;stroke-width:1.0;" x1="0" x2="1500" y1="918.5469" y2="918.5469"/><line style="stroke:#000000;stroke-width:1.0;" x1="0" x2="1500" y1="921.5469" y2="921.5469"/><rect fill="#EEEEEE" height="26.625" style="stroke:#000000;stroke-width:2.0;" width="321" x="589.5" y="906.2344"/><text fill="#008000" font-family="sans-serif" font-size="16" font-weight="bold" lengthAdjust="spacing" textLength="285" x="607.5" y="925.0859">Berechtigungskonzept - Stufe 3</text><text fill="#000000" font-family="sans-serif" font-size="13" font-weight="bold" lengthAdjust="spacing" textLength="10" x="892.5" y="925.7935">&#160;&#160;</text><polygon fill="#000000" points="883,1024.0156,893,1028.0156,883,1032.0156,887,1028.0156" style="stroke:#000000;stroke-width:1.0;"/><line style="stroke:#000000;stroke-width:1.0;" x1="610" x2="889" y1="1028.0156" y2="1028.0156"/><text fill="#000000" font-family="sans-serif" font-size="17" lengthAdjust="spacing" textLength="181" x="617" y="962.6392">Abfrage, wo die MXID</text><text fill="#000000" font-family="sans-serif" font-size="17" lengthAdjust="spacing" textLength="125" x="617" y="982.4282">der Akteure im</text><text fill="#000000" font-family="sans-serif" font-size="17" lengthAdjust="spacing" textLength="156" x="617" y="1002.2173">VZD-FHIR-Dirctory</text><text fill="#000000" font-family="sans-serif" font-size="17" lengthAdjust="spacing" textLength="107" x="617" y="1022.0063">enthalten ist</text><polygon fill="#000000" points="1346,1057.8047,1356,1061.8047,1346,1065.8047,1350,1061.8047" style="stroke:#000000;stroke-width:1.0;"/><line style="stroke:#000000;stroke-width:1.0;" x1="905" x2="1352" y1="1061.8047" y2="1061.8047"/><text fill="#000000" font-family="sans-serif" font-size="17" lengthAdjust="spacing" textLength="304" x="912" y="1055.7954">POST /tim-provider-services/whereIs</text><line style="stroke:#000000;stroke-width:1.0;" x1="1368" x2="1410" y1="1095.5938" y2="1095.5938"/><line style="stroke:#000000;stroke-width:1.0;" x1="1410" x2="1410" y1="1095.5938" y2="1108.5938"/><line style="stroke:#000000;stroke-width:1.0;" x1="1369" x2="1410" y1="1108.5938" y2="1108.5938"/><polygon fill="#000000" points="1379,1104.5938,1369,1108.5938,1379,1112.5938,1375,1108.5938" style="stroke:#000000;stroke-width:1.0;"/><text fill="#000000" font-family="sans-serif" font-size="17" lengthAdjust="spacing" textLength="51" x="1375" y="1089.5845">Suche</text><polygon fill="#000000" points="916,1138.3828,906,1142.3828,916,1146.3828,912,1142.3828" style="stroke:#000000;stroke-width:1.0;"/><line style="stroke:#000000;stroke-width:1.0;stroke-dasharray:2.0,2.0;" x1="910" x2="1362" y1="1142.3828" y2="1142.3828"/><text fill="#000000" font-family="sans-serif" font-size="17" lengthAdjust="spacing" textLength="72" x="1284" y="1136.3735">Ergebnis</text><polygon fill="#000000" points="621,1172.1719,611,1176.1719,621,1180.1719,617,1176.1719" style="stroke:#000000;stroke-width:1.0;"/><line style="stroke:#000000;stroke-width:1.0;stroke-dasharray:2.0,2.0;" x1="615" x2="899" y1="1176.1719" y2="1176.1719"/><text fill="#000000" font-family="sans-serif" font-size="17" lengthAdjust="spacing" textLength="72" x="821" y="1170.1626">Ergebnis</text><line style="stroke:#000000;stroke-width:1.0;" x1="610" x2="652" y1="1209.9609" y2="1209.9609"/><line style="stroke:#000000;stroke-width:1.0;" x1="652" x2="652" y1="1209.9609" y2="1222.9609"/><line style="stroke:#000000;stroke-width:1.0;" x1="611" x2="652" y1="1222.9609" y2="1222.9609"/><polygon fill="#000000" points="621,1218.9609,611,1222.9609,621,1226.9609,617,1222.9609" style="stroke:#000000;stroke-width:1.0;"/><text fill="#000000" font-family="sans-serif" font-size="17" lengthAdjust="spacing" textLength="255" x="617" y="1203.9517">Pr&#252;fung der MXID Lokalisation</text><path d="M488,1262.9609 L552,1262.9609 L552,1270.0938 L542,1280.0938 L488,1280.0938 L488,1262.9609 " fill="#D3D3D3" style="stroke:#000000;stroke-width:1.5;"/><rect fill="none" height="365.9531" style="stroke:#000000;stroke-width:1.5;" width="849" x="488" y="1262.9609"/><text fill="#000000" font-family="sans-serif" font-size="13" font-weight="bold" lengthAdjust="spacing" textLength="19" x="503" y="1276.0278">alt</text><text fill="#000000" font-family="sans-serif" font-size="11" font-weight="bold" lengthAdjust="spacing" textLength="5" x="567" y="1280.9917">[</text><text fill="#000000" font-family="sans-serif" font-size="16" font-weight="bold" lengthAdjust="spacing" textLength="564" x="572" y="1279.8125">MXID des Eingeladenen ist im Organisationsverzeichnis == true</text><text fill="#000000" font-family="sans-serif" font-size="11" font-weight="bold" lengthAdjust="spacing" textLength="5" x="1136" y="1280.9917">]</text><polygon fill="#000000" points="1107,1330.5078,1117,1334.5078,1107,1338.5078,1111,1334.5078" style="stroke:#000000;stroke-width:1.0;"/><line style="stroke:#000000;stroke-width:1.0;" x1="610" x2="1113" y1="1334.5078" y2="1334.5078"/><text fill="#000000" font-family="sans-serif" font-size="17" lengthAdjust="spacing" textLength="142" x="617" y="1328.4985">HTTP(S) Forward</text><line style="stroke:#000000;stroke-width:1.0;stroke-dasharray:2.0,2.0;" x1="488" x2="1337" y1="1368.5078" y2="1368.5078"/><text fill="#000000" font-family="sans-serif" font-size="11" font-weight="bold" lengthAdjust="spacing" textLength="5" x="493" y="1384.5386">[</text><text fill="#000000" font-family="sans-serif" font-size="16" font-weight="bold" lengthAdjust="spacing" textLength="834" x="498" y="1383.3594">MXID des Eingeladenen und die MXID des Einladenden sind im Practitionerverzeichnis == true</text><text fill="#000000" font-family="sans-serif" font-size="11" font-weight="bold" lengthAdjust="spacing" textLength="5" x="1332" y="1384.5386">]</text><polygon fill="#000000" points="1107,1434.9219,1117,1438.9219,1107,1442.9219,1111,1438.9219" style="stroke:#000000;stroke-width:1.0;"/><line style="stroke:#000000;stroke-width:1.0;" x1="610" x2="1113" y1="1438.9219" y2="1438.9219"/><text fill="#000000" font-family="sans-serif" font-size="17" lengthAdjust="spacing" textLength="142" x="617" y="1432.9126">HTTP(S) Forward</text><line style="stroke:#000000;stroke-width:1.0;stroke-dasharray:2.0,2.0;" x1="488" x2="1337" y1="1472.9219" y2="1472.9219"/><text fill="#000000" font-family="sans-serif" font-size="11" font-weight="bold" lengthAdjust="spacing" textLength="5" x="493" y="1488.9526">[</text><text fill="#000000" font-family="sans-serif" font-size="16" font-weight="bold" lengthAdjust="spacing" textLength="422" x="498" y="1487.7734">MXID ist nicht im VZD-FHIR-Directory enthalten</text><text fill="#000000" font-family="sans-serif" font-size="11" font-weight="bold" lengthAdjust="spacing" textLength="5" x="920" y="1488.9526">]</text><line style="stroke:#000000;stroke-width:1.0;" x1="610" x2="652" y1="1582.9141" y2="1582.9141"/><line style="stroke:#000000;stroke-width:1.0;" x1="652" x2="652" y1="1582.9141" y2="1595.9141"/><line style="stroke:#000000;stroke-width:1.0;" x1="611" x2="652" y1="1595.9141" y2="1595.9141"/><polygon fill="#000000" points="621,1591.9141,611,1595.9141,621,1599.9141,617,1595.9141" style="stroke:#000000;stroke-width:1.0;"/><text fill="#FF0000" font-family="sans-serif" font-size="17" lengthAdjust="spacing" textLength="73" x="617" y="1537.3267">Abbruch,</text><text fill="#FF0000" font-family="sans-serif" font-size="17" lengthAdjust="spacing" textLength="138" x="617" y="1557.1157">Verbindung wird</text><text fill="#FF0000" font-family="sans-serif" font-size="17" lengthAdjust="spacing" textLength="84" x="617" y="1576.9048">abgelehnt</text><line style="stroke:#000000;stroke-width:1.0;stroke-dasharray:2.0,2.0;" x1="1129" x2="1171" y1="1720.4922" y2="1720.4922"/><line style="stroke:#000000;stroke-width:1.0;stroke-dasharray:2.0,2.0;" x1="1171" x2="1171" y1="1720.4922" y2="1733.4922"/><line style="stroke:#000000;stroke-width:1.0;stroke-dasharray:2.0,2.0;" x1="1130" x2="1171" y1="1733.4922" y2="1733.4922"/><polygon fill="#000000" points="1140,1729.4922,1130,1733.4922,1140,1737.4922,1136,1733.4922" style="stroke:#000000;stroke-width:1.0;"/><text fill="#000000" font-family="sans-serif" font-size="17" lengthAdjust="spacing" textLength="104" x="1136" y="1694.6938">Invite-Event</text><text fill="#000000" font-family="sans-serif" font-size="17" lengthAdjust="spacing" textLength="97" x="1136" y="1714.4829">verarbeiten</text><polygon fill="#000000" points="621,1788.2813,611,1792.2813,621,1796.2813,617,1792.2813" style="stroke:#000000;stroke-width:1.0;"/><line style="stroke:#000000;stroke-width:1.0;stroke-dasharray:2.0,2.0;" x1="615" x2="1123" y1="1792.2813" y2="1792.2813"/><text fill="#000000" font-family="sans-serif" font-size="17" lengthAdjust="spacing" textLength="51" x="1066" y="1786.272">status</text><polygon fill="#000000" points="138,1822.0703,128,1826.0703,138,1830.0703,134,1826.0703" style="stroke:#000000;stroke-width:1.0;"/><line style="stroke:#000000;stroke-width:1.0;stroke-dasharray:2.0,2.0;" x1="132" x2="604" y1="1826.0703" y2="1826.0703"/><text fill="#000000" font-family="sans-serif" font-size="17" lengthAdjust="spacing" textLength="51" x="547" y="1820.061">status</text><!--SRC=[lLPjR-964FxkNp5AlhHHK19wlJkX10cESA260m7AjLMaQeq7iyBUvNQNbqlJlvLF_PO_rjcriOq3bwYdLafYPtPsvdbcdjcrddEnO8h5eF7B4iK4UwWr2x4HyL10m1LE39V2qvbZpCM7Y6dzcGTc1jNpyy9QKsu6B0Yu2E7Yvu9z6to8KrJsfOCiGDLaatcev5847sGa5InOXA52f7GJUeMORIZ1c_UmjhcyFG7XJm-WePHS9n7yY49kJMqfp8ZV8royiwQ9aQef5UNTzRtXKxpX0h-vLaBwaN6XVQcaHqu3fWoVy0KJfXYZ9mrVCLUzNPzIh4D-5lud5YDqumMRcEUBZblr_Fd2BeS3y9fxbil8-kFkRMFSxN_oiW8UB4Jgy3n_PixnPYR7hy4MkF7-ydovWKjDJhMBztMhGnGXgie8rOfJgmFKSCr5HCeHz7CduFZpZ1iSnNAEtYAd0Rq1C0r7UOWxCL1oy_LerwkJU36Z-8PSEZ96JRbG7NcK0GZEAo65w42zWAdw6b33Lk8sn91h0ePgAK9DlYsEGfioW-hB58eRRdzlkGtqhBGxtQ6BQqTSAiBXFJmyUBr1fKvOQsdChbWHdShr2eNnI8LMgMZ9EEUhAxYSKXjXOZj-vMQtdjRhRHsWITC-cHaUMX9pAUvnOQ028xESqbHUdbdF-kMP3K7ULrSkgATm2f8us3IdzazjsuDtzPEJHlkFY_FpjszEJYZIdMa_FPAatVZe-sM8iwT7nSCvSWD8WwlXJcIRoVrv3nVgwUyfYXJCdN0OM6IERtWuCnyLVeNZNdSq_ctO7rr3HYwjJql6D04WED44UY4iK804LBOP1SlYa_Y9K5BYOkaK1lM6xwlbP7Pg8PUMRb7vN0HKHZeBLR37W_caGfm9avQJ4baY66ay19e4zYh8dctDTpIwkgVHnJg0dGHg0kqz1Ub3xzTkYsobUITB2dQ1IZyzYeXgJkPVA2QRcuZO8Fbaw2szj0ZqA3SqEzaAnR5foqaBDVf6sZrTJZBRPyApGpmxu_7WXz6Fq9PgpLJWLlEPwbGBsqfzEmHjHtV_5k1tDVUdFStDMDDfLeE6FrNqHN4AQqaV59YtLq5ZRd2f47XCXknGeYF9dKXxkbce5yLs1dfMwhIt1eF-Q0ndXiULXP8hJWagEXboVRQU4OcktWr1kvp1Pav2Z6Z-CBEb1AvLYBxWoUO0TxPd458f7_BTeir5lvMyQvshoOsSCshNzbCWRr19lEwr6IqF22IxZHBnnj1N8HDfN4tdwZsIGiXW6s_K4ekQo9E-9DpSyx1MSoZqmP0tlwnaJKUR1JfGjbuMfhl3_WUSXHcAeIZ0v4xSFpVFSxihwZy-pNUOYA1uLj1_zfTAK4aBKRosAJmLaocVxaHChhVKqyBMXfcbzWfIjGUHfMKTzgxJvR_ph_jm-0S0]--></g></svg>