<?xml version="1.0" encoding="us-ascii" standalone="no"?><svg xmlns="http://www.w3.org/2000/svg" xmlns:xlink="http://www.w3.org/1999/xlink" contentStyleType="text/css" height="1520px" preserveAspectRatio="none" style="width:1867px;height:1520px;background:#FFFFFF;" version="1.1" viewBox="0 0 1867 1520" width="1867px" zoomAndPan="magnify"><defs/><g><rect fill="#F5F5F5" height="1508.0547" style="stroke:#181818;stroke-width:0.5;" width="222" x="16" y="6"/><text fill="#000000" font-family="sans-serif" font-size="18" font-weight="bold" lengthAdjust="spacing" textLength="193" x="30.5" y="22.708">Messenger-Service</text><text fill="#000000" font-family="sans-serif" font-size="13" font-weight="bold" lengthAdjust="spacing" textLength="185" x="30.5" y="39.02">des einladenden Akteurs</text><text fill="#000000" font-family="sans-serif" font-size="13" font-weight="bold" lengthAdjust="spacing" textLength="5" x="30.5" y="54.1528">&#160;</text><rect fill="#F5F5F5" height="1508.0547" style="stroke:#181818;stroke-width:0.5;" width="747" x="270" y="6"/><text fill="#000000" font-family="sans-serif" font-size="18" font-weight="bold" lengthAdjust="spacing" textLength="193" x="546.5" y="22.708">Messenger-Service</text><text fill="#000000" font-family="sans-serif" font-size="13" font-weight="bold" lengthAdjust="spacing" textLength="194" x="546.5" y="39.02">des eingeladenen Akteurs</text><text fill="#000000" font-family="sans-serif" font-size="13" font-weight="bold" lengthAdjust="spacing" textLength="5" x="546.5" y="54.1528">&#160;</text><rect fill="#F5F5F5" height="1508.0547" style="stroke:#181818;stroke-width:0.5;" width="222" x="1049" y="6"/><text fill="#000000" font-family="sans-serif" font-size="18" font-weight="bold" lengthAdjust="spacing" textLength="176" x="1063" y="22.708">Messenger Client</text><text fill="#000000" font-family="sans-serif" font-size="13" font-weight="bold" lengthAdjust="spacing" textLength="194" x="1063" y="39.02">des eingeladenen Akteurs</text><text fill="#000000" font-family="sans-serif" font-size="13" font-weight="bold" lengthAdjust="spacing" textLength="5" x="1063" y="54.1528">&#160;</text><rect fill="#DCDCDC" height="512.0625" style="stroke:#000000;stroke-width:1.0;" width="10" x="122" y="158.5703"/><rect fill="#DCDCDC" height="512.0625" style="stroke:#000000;stroke-width:1.0;" width="10" x="376" y="158.5703"/><rect fill="#DCDCDC" height="101.3672" style="stroke:#000000;stroke-width:1.0;" width="10" x="376" y="751.0469"/><rect fill="#DCDCDC" height="101.3672" style="stroke:#000000;stroke-width:1.0;" width="10" x="376" y="1305.125"/><rect fill="#DCDCDC" height="167.9453" style="stroke:#000000;stroke-width:1.0;" width="10" x="677" y="468.8984"/><rect fill="#DCDCDC" height="33.7891" style="stroke:#000000;stroke-width:1.0;" width="10" x="677" y="784.8359"/><rect fill="#DCDCDC" height="33.7891" style="stroke:#000000;stroke-width:1.0;" width="10" x="677" y="1338.9141"/><rect fill="#DCDCDC" height="33.7891" style="stroke:#000000;stroke-width:1.0;" width="10" x="901" y="569.2656"/><rect fill="#DCDCDC" height="702.0703" style="stroke:#000000;stroke-width:1.0;" width="10" x="1155" y="603.0547"/><rect fill="#FFE4E1" height="165.9141" style="stroke:#000000;stroke-width:1.5;" width="545" x="10" y="270.1953"/><rect fill="#FFE4E1" height="136.1719" style="stroke:#000000;stroke-width:1.5;" width="759" x="1043" y="960.9922"/><rect fill="#FFE4E1" height="136.1719" style="stroke:#000000;stroke-width:1.5;" width="807" x="1043" y="1111.1641"/><line style="stroke:#000000;stroke-width:0.5;stroke-dasharray:5.0,5.0;" x1="127" x2="127" y1="122.7813" y2="1449.4922"/><line style="stroke:#000000;stroke-width:0.5;stroke-dasharray:5.0,5.0;" x1="381" x2="381" y1="122.7813" y2="1449.4922"/><line style="stroke:#000000;stroke-width:0.5;stroke-dasharray:5.0,5.0;" x1="682" x2="682" y1="122.7813" y2="1449.4922"/><line style="stroke:#000000;stroke-width:0.5;stroke-dasharray:5.0,5.0;" x1="906" x2="906" y1="122.7813" y2="1449.4922"/><line style="stroke:#000000;stroke-width:0.5;stroke-dasharray:5.0,5.0;" x1="1160" x2="1160" y1="122.7813" y2="1449.4922"/><rect fill="#EFEFFF" height="37.2813" rx="2.5" ry="2.5" style="stroke:#000000;stroke-width:0.5;" width="214" x="20" y="84.5"/><text fill="#000000" font-family="sans-serif" font-size="20" lengthAdjust="spacing" textLength="187" x="33.5" y="110.0645">Messenger-Service</text><rect fill="#EFEFFF" height="37.2813" rx="2.5" ry="2.5" style="stroke:#000000;stroke-width:0.5;" width="214" x="20" y="1448.4922"/><text fill="#000000" font-family="sans-serif" font-size="20" lengthAdjust="spacing" textLength="187" x="33.5" y="1474.0566">Messenger-Service</text><rect fill="#EFEFFF" height="60.5625" rx="2.5" ry="2.5" style="stroke:#000000;stroke-width:0.5;" width="214" x="274" y="61.2188"/><text fill="#000000" font-family="sans-serif" font-size="20" lengthAdjust="spacing" textLength="114" x="324" y="86.7832">Messenger-</text><text fill="#000000" font-family="sans-serif" font-size="20" lengthAdjust="spacing" textLength="54" x="354" y="110.0645">Proxy</text><rect fill="#EFEFFF" height="60.5625" rx="2.5" ry="2.5" style="stroke:#000000;stroke-width:0.5;" width="214" x="274" y="1448.4922"/><text fill="#000000" font-family="sans-serif" font-size="20" lengthAdjust="spacing" textLength="114" x="324" y="1474.0566">Messenger-</text><text fill="#000000" font-family="sans-serif" font-size="20" lengthAdjust="spacing" textLength="54" x="354" y="1497.3379">Proxy</text><rect fill="#EFEFFF" height="60.5625" rx="2.5" ry="2.5" style="stroke:#000000;stroke-width:0.5;" width="214" x="575" y="61.2188"/><text fill="#000000" font-family="sans-serif" font-size="20" lengthAdjust="spacing" textLength="69" x="647.5" y="86.7832">Matrix-</text><text fill="#000000" font-family="sans-serif" font-size="20" lengthAdjust="spacing" textLength="120" x="622" y="110.0645">Homeserver</text><rect fill="#EFEFFF" height="60.5625" rx="2.5" ry="2.5" style="stroke:#000000;stroke-width:0.5;" width="214" x="575" y="1448.4922"/><text fill="#000000" font-family="sans-serif" font-size="20" lengthAdjust="spacing" textLength="69" x="647.5" y="1474.0566">Matrix-</text><text fill="#000000" font-family="sans-serif" font-size="20" lengthAdjust="spacing" textLength="120" x="622" y="1497.3379">Homeserver</text><rect fill="#EFEFFF" height="60.5625" rx="2.5" ry="2.5" style="stroke:#000000;stroke-width:0.5;" width="214" x="799" y="61.2188"/><text fill="#000000" font-family="sans-serif" font-size="20" lengthAdjust="spacing" textLength="55" x="878.5" y="86.7832">Push-</text><text fill="#000000" font-family="sans-serif" font-size="20" lengthAdjust="spacing" textLength="64" x="874" y="110.0645">Dienst</text><rect fill="#EFEFFF" height="60.5625" rx="2.5" ry="2.5" style="stroke:#000000;stroke-width:0.5;" width="214" x="799" y="1448.4922"/><text fill="#000000" font-family="sans-serif" font-size="20" lengthAdjust="spacing" textLength="55" x="878.5" y="1474.0566">Push-</text><text fill="#000000" font-family="sans-serif" font-size="20" lengthAdjust="spacing" textLength="64" x="874" y="1497.3379">Dienst</text><rect fill="#EFEFFF" height="37.2813" rx="2.5" ry="2.5" style="stroke:#000000;stroke-width:0.5;" width="214" x="1053" y="84.5"/><text fill="#000000" font-family="sans-serif" font-size="20" lengthAdjust="spacing" textLength="173" x="1073.5" y="110.0645">Messenger-Client</text><rect fill="#EFEFFF" height="37.2813" rx="2.5" ry="2.5" style="stroke:#000000;stroke-width:0.5;" width="214" x="1053" y="1448.4922"/><text fill="#000000" font-family="sans-serif" font-size="20" lengthAdjust="spacing" textLength="173" x="1073.5" y="1474.0566">Messenger-Client</text><rect fill="#DCDCDC" height="512.0625" style="stroke:#000000;stroke-width:1.0;" width="10" x="122" y="158.5703"/><rect fill="#DCDCDC" height="512.0625" style="stroke:#000000;stroke-width:1.0;" width="10" x="376" y="158.5703"/><rect fill="#DCDCDC" height="101.3672" style="stroke:#000000;stroke-width:1.0;" width="10" x="376" y="751.0469"/><rect fill="#DCDCDC" height="101.3672" style="stroke:#000000;stroke-width:1.0;" width="10" x="376" y="1305.125"/><rect fill="#DCDCDC" height="167.9453" style="stroke:#000000;stroke-width:1.0;" width="10" x="677" y="468.8984"/><rect fill="#DCDCDC" height="33.7891" style="stroke:#000000;stroke-width:1.0;" width="10" x="677" y="784.8359"/><rect fill="#DCDCDC" height="33.7891" style="stroke:#000000;stroke-width:1.0;" width="10" x="677" y="1338.9141"/><rect fill="#DCDCDC" height="33.7891" style="stroke:#000000;stroke-width:1.0;" width="10" x="901" y="569.2656"/><rect fill="#DCDCDC" height="702.0703" style="stroke:#000000;stroke-width:1.0;" width="10" x="1155" y="603.0547"/><polygon fill="#000000" points="364,154.5703,374,158.5703,364,162.5703,368,158.5703" style="stroke:#000000;stroke-width:1.0;"/><line style="stroke:#000000;stroke-width:1.0;" x1="132" x2="370" y1="158.5703" y2="158.5703"/><text fill="#000000" font-family="sans-serif" font-size="17" lengthAdjust="spacing" textLength="164" x="139" y="152.561">Matrix-Invite-Event</text><rect fill="#EEEEEE" height="3" style="stroke:#EEEEEE;stroke-width:1.0;" width="1860" x="0" y="213.8828"/><line style="stroke:#000000;stroke-width:1.0;" x1="0" x2="1860" y1="213.8828" y2="213.8828"/><line style="stroke:#000000;stroke-width:1.0;" x1="0" x2="1860" y1="216.8828" y2="216.8828"/><rect fill="#EEEEEE" height="26.625" style="stroke:#000000;stroke-width:2.0;" width="321" x="769.5" y="201.5703"/><text fill="#008000" font-family="sans-serif" font-size="16" font-weight="bold" lengthAdjust="spacing" textLength="285" x="787.5" y="220.4219">Berechtigungskonzept - Stufe 1</text><text fill="#000000" font-family="sans-serif" font-size="13" font-weight="bold" lengthAdjust="spacing" textLength="10" x="1072.5" y="221.1294">&#160;&#160;</text><path d="M10,270.1953 L98,270.1953 L98,277.3281 L88,287.3281 L10,287.3281 L10,270.1953 " fill="#EEEEEE" style="stroke:#000000;stroke-width:1.5;"/><rect fill="none" height="165.9141" style="stroke:#000000;stroke-width:1.5;" width="545" x="10" y="270.1953"/><text fill="#000000" font-family="sans-serif" font-size="13" font-weight="bold" lengthAdjust="spacing" textLength="43" x="25" y="283.2622">break</text><text fill="#000000" font-family="sans-serif" font-size="11" font-weight="bold" lengthAdjust="spacing" textLength="5" x="113" y="288.2261">[</text><text fill="#000000" font-family="sans-serif" font-size="16" font-weight="bold" lengthAdjust="spacing" textLength="427" x="118" y="287.0469">Matrix-Domain nicht in der F&#246;deration enthalten</text><text fill="#000000" font-family="sans-serif" font-size="11" font-weight="bold" lengthAdjust="spacing" textLength="5" x="545" y="288.2261">]</text><line style="stroke:#000000;stroke-width:1.0;" x1="386" x2="428" y1="356.3203" y2="356.3203"/><line style="stroke:#000000;stroke-width:1.0;" x1="428" x2="428" y1="356.3203" y2="369.3203"/><line style="stroke:#000000;stroke-width:1.0;" x1="387" x2="428" y1="369.3203" y2="369.3203"/><polygon fill="#000000" points="397,365.3203,387,369.3203,397,373.3203,393,369.3203" style="stroke:#000000;stroke-width:1.0;"/><text fill="#FF0000" font-family="sans-serif" font-size="17" lengthAdjust="spacing" textLength="73" x="393" y="310.7329">Abbruch,</text><text fill="#FF0000" font-family="sans-serif" font-size="17" lengthAdjust="spacing" textLength="138" x="393" y="330.522">Verbindung wird</text><text fill="#FF0000" font-family="sans-serif" font-size="17" lengthAdjust="spacing" textLength="84" x="393" y="350.311">abgelehnt</text><polygon fill="#000000" points="143,399.1094,133,403.1094,143,407.1094,139,403.1094" style="stroke:#000000;stroke-width:1.0;"/><line style="stroke:#000000;stroke-width:1.0;stroke-dasharray:2.0,2.0;" x1="137" x2="375" y1="403.1094" y2="403.1094"/><text fill="#000000" font-family="sans-serif" font-size="17" lengthAdjust="spacing" textLength="81" x="288" y="397.1001">HTTP 403</text><polygon fill="#000000" points="665,464.8984,675,468.8984,665,472.8984,669,468.8984" style="stroke:#000000;stroke-width:1.0;"/><line style="stroke:#000000;stroke-width:1.0;" x1="386" x2="671" y1="468.8984" y2="468.8984"/><text fill="#000000" font-family="sans-serif" font-size="17" lengthAdjust="spacing" textLength="142" x="393" y="462.8892">HTTP(S) Forward</text><line style="stroke:#000000;stroke-width:1.0;stroke-dasharray:2.0,2.0;" x1="687" x2="729" y1="522.4766" y2="522.4766"/><line style="stroke:#000000;stroke-width:1.0;stroke-dasharray:2.0,2.0;" x1="729" x2="729" y1="522.4766" y2="535.4766"/><line style="stroke:#000000;stroke-width:1.0;stroke-dasharray:2.0,2.0;" x1="688" x2="729" y1="535.4766" y2="535.4766"/><polygon fill="#000000" points="698,531.4766,688,535.4766,698,539.4766,694,535.4766" style="stroke:#000000;stroke-width:1.0;"/><text fill="#000000" font-family="sans-serif" font-size="17" lengthAdjust="spacing" textLength="104" x="694" y="496.6782">Invite-Event</text><text fill="#000000" font-family="sans-serif" font-size="17" lengthAdjust="spacing" textLength="97" x="694" y="516.4673">verarbeiten</text><polygon fill="#000000" points="889,565.2656,899,569.2656,889,573.2656,893,569.2656" style="stroke:#000000;stroke-width:1.0;"/><line style="stroke:#000000;stroke-width:1.0;" x1="687" x2="895" y1="569.2656" y2="569.2656"/><text fill="#000000" font-family="sans-serif" font-size="17" lengthAdjust="spacing" textLength="142" x="694" y="563.2563">Push Notification</text><polygon fill="#000000" points="1143,599.0547,1153,603.0547,1143,607.0547,1147,603.0547" style="stroke:#000000;stroke-width:1.0;"/><line style="stroke:#000000;stroke-width:1.0;" x1="906" x2="1149" y1="603.0547" y2="603.0547"/><text fill="#000000" font-family="sans-serif" font-size="17" lengthAdjust="spacing" textLength="142" x="913" y="597.0454">Push Notification</text><polygon fill="#000000" points="397,632.8438,387,636.8438,397,640.8438,393,636.8438" style="stroke:#000000;stroke-width:1.0;"/><line style="stroke:#000000;stroke-width:1.0;stroke-dasharray:2.0,2.0;" x1="391" x2="681" y1="636.8438" y2="636.8438"/><text fill="#000000" font-family="sans-serif" font-size="17" lengthAdjust="spacing" textLength="79" x="596" y="630.8345">Response</text><polygon fill="#000000" points="138,666.6328,128,670.6328,138,674.6328,134,670.6328" style="stroke:#000000;stroke-width:1.0;"/><line style="stroke:#000000;stroke-width:1.0;stroke-dasharray:2.0,2.0;" x1="132" x2="380" y1="670.6328" y2="670.6328"/><text fill="#000000" font-family="sans-serif" font-size="17" lengthAdjust="spacing" textLength="79" x="295" y="664.6235">Response</text><rect fill="#EEEEEE" height="3" style="stroke:#EEEEEE;stroke-width:1.0;" width="1860" x="0" y="700.9453"/><line style="stroke:#000000;stroke-width:1.0;" x1="0" x2="1860" y1="700.9453" y2="700.9453"/><line style="stroke:#000000;stroke-width:1.0;" x1="0" x2="1860" y1="703.9453" y2="703.9453"/><rect fill="#EEEEEE" height="26.625" style="stroke:#000000;stroke-width:2.0;" width="321" x="769.5" y="688.6328"/><text fill="#008000" font-family="sans-serif" font-size="16" font-weight="bold" lengthAdjust="spacing" textLength="285" x="787.5" y="707.4844">Berechtigungskonzept - Stufe 2</text><text fill="#000000" font-family="sans-serif" font-size="13" font-weight="bold" lengthAdjust="spacing" textLength="10" x="1072.5" y="708.1919">&#160;&#160;</text><polygon fill="#000000" points="397,747.0469,387,751.0469,397,755.0469,393,751.0469" style="stroke:#000000;stroke-width:1.0;"/><line style="stroke:#000000;stroke-width:1.0;" x1="391" x2="1154" y1="751.0469" y2="751.0469"/><text fill="#000000" font-family="sans-serif" font-size="17" lengthAdjust="spacing" textLength="180" x="968" y="745.0376">Abfrage neuer Events</text><polygon fill="#000000" points="665,780.8359,675,784.8359,665,788.8359,669,784.8359" style="stroke:#000000;stroke-width:1.0;"/><line style="stroke:#000000;stroke-width:1.0;" x1="386" x2="671" y1="784.8359" y2="784.8359"/><text fill="#000000" font-family="sans-serif" font-size="17" lengthAdjust="spacing" textLength="142" x="393" y="778.8267">HTTP(S) Forward</text><polygon fill="#000000" points="397,814.625,387,818.625,397,822.625,393,818.625" style="stroke:#000000;stroke-width:1.0;"/><line style="stroke:#000000;stroke-width:1.0;stroke-dasharray:2.0,2.0;" x1="391" x2="681" y1="818.625" y2="818.625"/><text fill="#000000" font-family="sans-serif" font-size="17" lengthAdjust="spacing" textLength="234" x="441" y="812.6157">Bereitstellung neuer Events</text><polygon fill="#000000" points="1143,848.4141,1153,852.4141,1143,856.4141,1147,852.4141" style="stroke:#000000;stroke-width:1.0;"/><line style="stroke:#000000;stroke-width:1.0;stroke-dasharray:2.0,2.0;" x1="381" x2="1149" y1="852.4141" y2="852.4141"/><text fill="#000000" font-family="sans-serif" font-size="17" lengthAdjust="spacing" textLength="142" x="388" y="846.4048">HTTP(S) Forward</text><line style="stroke:#000000;stroke-width:1.0;" x1="1165" x2="1207" y1="886.2031" y2="886.2031"/><line style="stroke:#000000;stroke-width:1.0;" x1="1207" x2="1207" y1="886.2031" y2="899.2031"/><line style="stroke:#000000;stroke-width:1.0;" x1="1166" x2="1207" y1="899.2031" y2="899.2031"/><polygon fill="#000000" points="1176,895.2031,1166,899.2031,1176,903.2031,1172,899.2031" style="stroke:#000000;stroke-width:1.0;"/><text fill="#000000" font-family="sans-serif" font-size="17" lengthAdjust="spacing" textLength="248" x="1172" y="880.1938">Extrahieren der Invite-Events</text><line style="stroke:#000000;stroke-width:1.0;" x1="1165" x2="1207" y1="932.9922" y2="932.9922"/><line style="stroke:#000000;stroke-width:1.0;" x1="1207" x2="1207" y1="932.9922" y2="945.9922"/><line style="stroke:#000000;stroke-width:1.0;" x1="1166" x2="1207" y1="945.9922" y2="945.9922"/><polygon fill="#000000" points="1176,941.9922,1166,945.9922,1176,949.9922,1172,945.9922" style="stroke:#000000;stroke-width:1.0;"/><text fill="#000000" font-family="sans-serif" font-size="17" lengthAdjust="spacing" textLength="305" x="1172" y="926.9829">Pr&#252;fung, ob die Einladung erlaubt ist</text><path d="M1043,960.9922 L1131,960.9922 L1131,968.125 L1121,978.125 L1043,978.125 L1043,960.9922 " fill="#EEEEEE" style="stroke:#000000;stroke-width:1.5;"/><rect fill="none" height="136.1719" style="stroke:#000000;stroke-width:1.5;" width="759" x="1043" y="960.9922"/><text fill="#000000" font-family="sans-serif" font-size="13" font-weight="bold" lengthAdjust="spacing" textLength="43" x="1058" y="974.0591">break</text><text fill="#000000" font-family="sans-serif" font-size="11" font-weight="bold" lengthAdjust="spacing" textLength="5" x="1146" y="979.0229">[</text><text fill="#000000" font-family="sans-serif" font-size="16" font-weight="bold" lengthAdjust="spacing" textLength="578" x="1151" y="977.8438">Der Akteur hat "allow all" konfiguriert und der einladende Akteur</text><text fill="#000000" font-family="sans-serif" font-size="16" font-weight="bold" lengthAdjust="spacing" textLength="640" x="1152" y="996.4688">ist auf der BlockedUser-Liste (Direkt oder als Teil einer Gruppe/Domain)</text><text fill="#000000" font-family="sans-serif" font-size="11" font-weight="bold" lengthAdjust="spacing" textLength="5" x="1792" y="997.6479">]</text><line style="stroke:#000000;stroke-width:1.0;" x1="1165" x2="1207" y1="1051.1641" y2="1051.1641"/><line style="stroke:#000000;stroke-width:1.0;" x1="1207" x2="1207" y1="1051.1641" y2="1064.1641"/><line style="stroke:#000000;stroke-width:1.0;" x1="1166" x2="1207" y1="1064.1641" y2="1064.1641"/><polygon fill="#000000" points="1176,1060.1641,1166,1064.1641,1176,1068.1641,1172,1064.1641" style="stroke:#000000;stroke-width:1.0;"/><text fill="#FF0000" font-family="sans-serif" font-size="17" lengthAdjust="spacing" textLength="211" x="1172" y="1045.1548">Einladung ist abzulehnen</text><path d="M1043,1111.1641 L1131,1111.1641 L1131,1118.2969 L1121,1128.2969 L1043,1128.2969 L1043,1111.1641 " fill="#EEEEEE" style="stroke:#000000;stroke-width:1.5;"/><rect fill="none" height="136.1719" style="stroke:#000000;stroke-width:1.5;" width="807" x="1043" y="1111.1641"/><text fill="#000000" font-family="sans-serif" font-size="13" font-weight="bold" lengthAdjust="spacing" textLength="43" x="1058" y="1124.231">break</text><text fill="#000000" font-family="sans-serif" font-size="11" font-weight="bold" lengthAdjust="spacing" textLength="5" x="1146" y="1129.1948">[</text><text fill="#000000" font-family="sans-serif" font-size="16" font-weight="bold" lengthAdjust="spacing" textLength="581" x="1151" y="1128.0156">Der Akteur hat "block all" konfiguriert und der einladende Akteur</text><text fill="#000000" font-family="sans-serif" font-size="16" font-weight="bold" lengthAdjust="spacing" textLength="688" x="1152" y="1146.6406">ist nicht auf der AllowedUser-Liste (Direkt oder als Teil einer Gruppe/Domain)</text><text fill="#000000" font-family="sans-serif" font-size="11" font-weight="bold" lengthAdjust="spacing" textLength="5" x="1840" y="1147.8198">]</text><line style="stroke:#000000;stroke-width:1.0;" x1="1165" x2="1207" y1="1201.3359" y2="1201.3359"/><line style="stroke:#000000;stroke-width:1.0;" x1="1207" x2="1207" y1="1201.3359" y2="1214.3359"/><line style="stroke:#000000;stroke-width:1.0;" x1="1166" x2="1207" y1="1214.3359" y2="1214.3359"/><polygon fill="#000000" points="1176,1210.3359,1166,1214.3359,1176,1218.3359,1172,1214.3359" style="stroke:#000000;stroke-width:1.0;"/><text fill="#FF0000" font-family="sans-serif" font-size="17" lengthAdjust="spacing" textLength="211" x="1172" y="1195.3267">Einladung ist abzulehnen</text><polygon fill="#000000" points="397,1301.125,387,1305.125,397,1309.125,393,1305.125" style="stroke:#000000;stroke-width:1.0;"/><line style="stroke:#000000;stroke-width:1.0;stroke-dasharray:2.0,2.0;" x1="391" x2="1159" y1="1305.125" y2="1305.125"/><text fill="#000000" font-family="sans-serif" font-size="17" lengthAdjust="spacing" textLength="267" x="886" y="1299.1157">Ergebnis der Einladungspr&#252;fung</text><polygon fill="#000000" points="665,1334.9141,675,1338.9141,665,1342.9141,669,1338.9141" style="stroke:#000000;stroke-width:1.0;"/><line style="stroke:#000000;stroke-width:1.0;" x1="386" x2="671" y1="1338.9141" y2="1338.9141"/><text fill="#000000" font-family="sans-serif" font-size="17" lengthAdjust="spacing" textLength="142" x="393" y="1332.9048">HTTP(S) Forward</text><polygon fill="#000000" points="397,1368.7031,387,1372.7031,397,1376.7031,393,1372.7031" style="stroke:#000000;stroke-width:1.0;"/><line style="stroke:#000000;stroke-width:1.0;stroke-dasharray:2.0,2.0;" x1="391" x2="681" y1="1372.7031" y2="1372.7031"/><text fill="#000000" font-family="sans-serif" font-size="17" lengthAdjust="spacing" textLength="267" x="408" y="1366.6938">Ergebnis der Einladungspr&#252;fung</text><polygon fill="#000000" points="138,1402.4922,128,1406.4922,138,1410.4922,134,1406.4922" style="stroke:#000000;stroke-width:1.0;"/><line style="stroke:#000000;stroke-width:1.0;stroke-dasharray:2.0,2.0;" x1="132" x2="380" y1="1406.4922" y2="1406.4922"/><text fill="#000000" font-family="sans-serif" font-size="17" lengthAdjust="spacing" textLength="142" x="232" y="1400.4829">HTTP(S) Forward</text><!--SRC=[pLPDSzis4BtpL-mebsGIZMqrQJCUIpEIR4kUiHoEgIONNq1oIM540Im0sehh_gsUUiiVwuAa-6MfTPDBBn89FBttTh6xa5vpaJB5Dg3njmn5W0lKciKuJdWi8EGA0yEbS7G5t70nJPZMNtXeLZ0uFcxiJUJMPM78HGmd7nhhE_9RZ53PXpco4DM41UjOoKo4Kvb81IbBC5Q891VG8spObWJUVuG7g-Ni8OJV7O2nKlAXOF0JejmjNKfXFFw8SFABNGgCL1EfIBUDlUOHNdE1_xZNSJfZN6XVAkaGo6NAy82dJ9Wcnq8QVi_oxBKn7Qu6hWsi_0-Eds-qVHwmCDcptLN_jBpwF5vUVRfngYGT3BO4FDUlbck_rT8Dso2CMOfRvm_7briuqmGwFVauihM68aRLzr3Tym3lH8WQa8k4oeEU1OpN1ZEbxmIy-hBY1hsDNAEJrl70mWEceVUCg-SG0v3UIpLZp5LV9keEEgftmbLo-xNNXirB63EARmapbnlKf8kg3NHdESxDz8fGvno5DlyM04mJmfdlyp_j-Y_8Qis5rnzHbAUbzIjnJqJzYti2EIp8AnPj6XeldlFqzEGCXt0MqR53O2jacFVpg7J_ymXWGXCWM1aUPoBMQoaUCJNG1yza4NNgsP55ZiwEB0MXXyESr5V8rl1gmRNvUYirGaLO-ZkN6wfI49oeWHwe1U3osv_qbNSMaEqLImoAKe0AbCmN8JRjAWn7OzzNMR1w1tUYk_KPbSz5IDPf9gbm3uBvT0wu4gOCeHGY9UyKvikb2- -FVw956nMGhT2fhCm71UArzmOkfNfWAgIzEh_pWONESpABRPu9EQ6YOif7MX8bRkJEthuz1LjLS4DJ9k91DOzcH38bgltRjUYq8KgvWblKgHGQQJN4hhSgq0CeTz1Py9mVgvV1dde1QxfqE_OZHRSP2Coe8F9CwLPuxk2xqc-vhJ5kjC4aiVNGaJYKdEbUbKwIgXWi-c9h55jnUt7cPTqyTjr2kkhRNn5vUGVIfxiRuIAVfDOTgeHbFhM6DfRzS3-Taq8nFs353FHOaiW7eCyUKF8ZEWP5LWpGxP2xgOTr-JDgYUhmY1vO5kN0IIA3DOQ_qlZhNzC6mkjp-dknDY3jDaiqB94dbf1UPofBKpmgslfDtRIxncc4tUt0EkXStd_CR3_QpjyrPAVxNfuCtyRm8yaevjCk9MERs_zXIfnyvkRZeIZr2nMZBxZENLTaEYthpMcMxtJGlXyEDrUhGHgDzL_KveL0FLwR0fskeg3-1W00]--></g></svg>