<?xml version="1.0" encoding="UTF-8" standalone="no"?><svg xmlns="http://www.w3.org/2000/svg" xmlns:xlink="http://www.w3.org/1999/xlink" contentStyleType="text/css" height="3074px" preserveAspectRatio="none" style="width:1685px;height:3074px;background:#FFFFFF;" version="1.1" viewBox="0 0 1685 3074" width="1685px" zoomAndPan="magnify"><defs/><g><rect fill="#F5F5F5" height="3062.2422" style="stroke:#181818;stroke-width:0.5;" width="446" x="265" y="6"/><text fill="#000000" font-family="sans-serif" font-size="18" font-weight="bold" lengthAdjust="spacing" textLength="193" x="391.5" y="22.708">Messenger-Service</text><text fill="#000000" font-family="sans-serif" font-size="13" font-weight="bold" lengthAdjust="spacing" textLength="5" x="391.5" y="39.02"> </text><rect fill="#F5F5F5" height="3062.2422" style="stroke:#181818;stroke-width:0.5;" width="670" x="743" y="6"/><text fill="#000000" font-family="sans-serif" font-size="18" font-weight="bold" lengthAdjust="spacing" textLength="193" x="981.5" y="22.708">Messenger-Service</text><text fill="#000000" font-family="sans-serif" font-size="13" font-weight="bold" lengthAdjust="spacing" textLength="5" x="981.5" y="39.02"> </text><rect fill="#DCDCDC" height="64.7891" style="stroke:#000000;stroke-width:1.0;" width="10" x="132" y="480.0781"/><rect fill="#DCDCDC" height="64.7891" style="stroke:#000000;stroke-width:1.0;" width="10" x="132" y="1519.3594"/><rect fill="#90EE90" height="2792.2422" style="stroke:#000000;stroke-width:1.0;" width="10" x="371" y="168.4375"/><rect fill="#DCDCDC" height="427.6953" style="stroke:#000000;stroke-width:1.0;" width="10" x="595" y="642.6563"/><rect fill="#FA8072" height="1777.9609" style="stroke:#000000;stroke-width:1.0;" width="10" x="849" y="1148.9297"/><rect fill="#DCDCDC" height="33.7891" style="stroke:#000000;stroke-width:1.0;" width="10" x="1073" y="1807.7188"/><rect fill="#DCDCDC" height="194.9453" style="stroke:#000000;stroke-width:1.0;" width="10" x="1073" y="2183.25"/><rect fill="#DCDCDC" height="940.0469" style="stroke:#000000;stroke-width:1.0;" width="10" x="1297" y="1953.0547"/><rect fill="#DCDCDC" height="80.5781" style="stroke:#000000;stroke-width:1.0;" width="10" x="1536" y="2217.0391"/><rect fill="#FFE4E1" height="221.125" style="stroke:#000000;stroke-width:1.5;" width="521" x="20" y="363.7422"/><rect fill="#F0F8FF" height="1969.5" style="stroke:#000000;stroke-width:1.5;" width="1658" x="10" y="774.2344"/><rect fill="#F0F8FF" height="1764.5859" style="stroke:none;stroke-width:1.0;" width="1658" x="10" y="979.1484"/><rect fill="#FFE4E1" height="254.9141" style="stroke:#000000;stroke-width:1.5;" width="951" x="20" y="1369.2344"/><rect fill="#EFEFFF" height="830.2266" style="stroke:#000000;stroke-width:1.5;" width="931" x="727" y="1881.5078"/><rect fill="#EFEFFF" height="725.6797" style="stroke:none;stroke-width:1.0;" width="931" x="727" y="1986.0547"/><rect fill="#ADD8E6" height="261.5391" style="stroke:#000000;stroke-width:1.5;" width="682" x="737" y="2418.1953"/><rect fill="#ADD8E6" height="156.9922" style="stroke:none;stroke-width:1.0;" width="682" x="737" y="2522.7422"/><line style="stroke:#000000;stroke-width:0.5;stroke-dasharray:5.0,5.0;" x1="137" x2="137" y1="107.6484" y2="3003.6797"/><line style="stroke:#000000;stroke-width:0.5;stroke-dasharray:5.0,5.0;" x1="376" x2="376" y1="107.6484" y2="3003.6797"/><line style="stroke:#000000;stroke-width:0.5;stroke-dasharray:5.0,5.0;" x1="600" x2="600" y1="107.6484" y2="3003.6797"/><line style="stroke:#000000;stroke-width:0.5;stroke-dasharray:5.0,5.0;" x1="854" x2="854" y1="107.6484" y2="3003.6797"/><line style="stroke:#000000;stroke-width:0.5;stroke-dasharray:5.0,5.0;" x1="1078" x2="1078" y1="107.6484" y2="3003.6797"/><line style="stroke:#000000;stroke-width:0.5;stroke-dasharray:5.0,5.0;" x1="1302" x2="1302" y1="107.6484" y2="3003.6797"/><line style="stroke:#000000;stroke-width:0.5;stroke-dasharray:5.0,5.0;" x1="1541" x2="1541" y1="107.6484" y2="3003.6797"/><rect fill="#EFEFFF" height="60.5625" rx="2.5" ry="2.5" style="stroke:#000000;stroke-width:0.5;" width="214" x="30" y="46.0859"/><text fill="#000000" font-family="Impact" font-size="20" lengthAdjust="spacing" textLength="139" x="67.5" y="71.6504">TI-Messenger-</text><text fill="#000000" font-family="Impact" font-size="20" lengthAdjust="spacing" textLength="59" x="107.5" y="94.9316">Client</text><rect fill="#EFEFFF" height="60.5625" rx="2.5" ry="2.5" style="stroke:#000000;stroke-width:0.5;" width="214" x="30" y="3002.6797"/><text fill="#000000" font-family="Impact" font-size="20" lengthAdjust="spacing" textLength="139" x="67.5" y="3028.2441">TI-Messenger-</text><text fill="#000000" font-family="Impact" font-size="20" lengthAdjust="spacing" textLength="59" x="107.5" y="3051.5254">Client</text><rect fill="#EFEFFF" height="60.5625" rx="2.5" ry="2.5" style="stroke:#000000;stroke-width:0.5;" width="214" x="269" y="46.0859"/><text fill="#000000" font-family="Impact" font-size="20" lengthAdjust="spacing" textLength="114" x="319" y="71.6504">Messenger-</text><text fill="#000000" font-family="Impact" font-size="20" lengthAdjust="spacing" textLength="54" x="349" y="94.9316">Proxy</text><rect fill="#EFEFFF" height="60.5625" rx="2.5" ry="2.5" style="stroke:#000000;stroke-width:0.5;" width="214" x="269" y="3002.6797"/><text fill="#000000" font-family="Impact" font-size="20" lengthAdjust="spacing" textLength="114" x="319" y="3028.2441">Messenger-</text><text fill="#000000" font-family="Impact" font-size="20" lengthAdjust="spacing" textLength="54" x="349" y="3051.5254">Proxy</text><rect fill="#EFEFFF" height="60.5625" rx="2.5" ry="2.5" style="stroke:#000000;stroke-width:0.5;" width="214" x="493" y="46.0859"/><text fill="#000000" font-family="Impact" font-size="20" lengthAdjust="spacing" textLength="69" x="565.5" y="71.6504">Matrix-</text><text fill="#000000" font-family="Impact" font-size="20" lengthAdjust="spacing" textLength="120" x="540" y="94.9316">Homeserver</text><rect fill="#EFEFFF" height="60.5625" rx="2.5" ry="2.5" style="stroke:#000000;stroke-width:0.5;" width="214" x="493" y="3002.6797"/><text fill="#000000" font-family="Impact" font-size="20" lengthAdjust="spacing" textLength="69" x="565.5" y="3028.2441">Matrix-</text><text fill="#000000" font-family="Impact" font-size="20" lengthAdjust="spacing" textLength="120" x="540" y="3051.5254">Homeserver</text><rect fill="#EFEFFF" height="60.5625" rx="2.5" ry="2.5" style="stroke:#000000;stroke-width:0.5;" width="214" x="747" y="46.0859"/><text fill="#000000" font-family="Impact" font-size="20" lengthAdjust="spacing" textLength="114" x="797" y="71.6504">Messenger-</text><text fill="#000000" font-family="Impact" font-size="20" lengthAdjust="spacing" textLength="54" x="827" y="94.9316">Proxy</text><rect fill="#EFEFFF" height="60.5625" rx="2.5" ry="2.5" style="stroke:#000000;stroke-width:0.5;" width="214" x="747" y="3002.6797"/><text fill="#000000" font-family="Impact" font-size="20" lengthAdjust="spacing" textLength="114" x="797" y="3028.2441">Messenger-</text><text fill="#000000" font-family="Impact" font-size="20" lengthAdjust="spacing" textLength="54" x="827" y="3051.5254">Proxy</text><rect fill="#EFEFFF" height="60.5625" rx="2.5" ry="2.5" style="stroke:#000000;stroke-width:0.5;" width="214" x="971" y="46.0859"/><text fill="#000000" font-family="Impact" font-size="20" lengthAdjust="spacing" textLength="153" x="1001.5" y="71.6504">Registrierungs-</text><text fill="#000000" font-family="Impact" font-size="20" lengthAdjust="spacing" textLength="64" x="1046" y="94.9316">Dienst</text><rect fill="#EFEFFF" height="60.5625" rx="2.5" ry="2.5" style="stroke:#000000;stroke-width:0.5;" width="214" x="971" y="3002.6797"/><text fill="#000000" font-family="Impact" font-size="20" lengthAdjust="spacing" textLength="153" x="1001.5" y="3028.2441">Registrierungs-</text><text fill="#000000" font-family="Impact" font-size="20" lengthAdjust="spacing" textLength="64" x="1046" y="3051.5254">Dienst</text><rect fill="#EFEFFF" height="60.5625" rx="2.5" ry="2.5" style="stroke:#000000;stroke-width:0.5;" width="214" x="1195" y="46.0859"/><text fill="#000000" font-family="Impact" font-size="20" lengthAdjust="spacing" textLength="69" x="1267.5" y="71.6504">Matrix-</text><text fill="#000000" font-family="Impact" font-size="20" lengthAdjust="spacing" textLength="120" x="1242" y="94.9316">Homeserver</text><rect fill="#EFEFFF" height="60.5625" rx="2.5" ry="2.5" style="stroke:#000000;stroke-width:0.5;" width="214" x="1195" y="3002.6797"/><text fill="#000000" font-family="Impact" font-size="20" lengthAdjust="spacing" textLength="69" x="1267.5" y="3028.2441">Matrix-</text><text fill="#000000" font-family="Impact" font-size="20" lengthAdjust="spacing" textLength="120" x="1242" y="3051.5254">Homeserver</text><rect fill="#EFEFFF" height="60.5625" rx="2.5" ry="2.5" style="stroke:#000000;stroke-width:0.5;" width="214" x="1434" y="46.0859"/><text fill="#000000" font-family="Impact" font-size="20" lengthAdjust="spacing" textLength="104" x="1489" y="71.6504">VZD-FHIR-</text><text fill="#000000" font-family="Impact" font-size="20" lengthAdjust="spacing" textLength="91" x="1495.5" y="94.9316">Directory</text><rect fill="#EFEFFF" height="60.5625" rx="2.5" ry="2.5" style="stroke:#000000;stroke-width:0.5;" width="214" x="1434" y="3002.6797"/><text fill="#000000" font-family="Impact" font-size="20" lengthAdjust="spacing" textLength="104" x="1489" y="3028.2441">VZD-FHIR-</text><text fill="#000000" font-family="Impact" font-size="20" lengthAdjust="spacing" textLength="91" x="1495.5" y="3051.5254">Directory</text><rect fill="#DCDCDC" height="64.7891" style="stroke:#000000;stroke-width:1.0;" width="10" x="132" y="480.0781"/><rect fill="#DCDCDC" height="64.7891" style="stroke:#000000;stroke-width:1.0;" width="10" x="132" y="1519.3594"/><rect fill="#90EE90" height="2792.2422" style="stroke:#000000;stroke-width:1.0;" width="10" x="371" y="168.4375"/><rect fill="#DCDCDC" height="427.6953" style="stroke:#000000;stroke-width:1.0;" width="10" x="595" y="642.6563"/><rect fill="#FA8072" height="1777.9609" style="stroke:#000000;stroke-width:1.0;" width="10" x="849" y="1148.9297"/><rect fill="#DCDCDC" height="33.7891" style="stroke:#000000;stroke-width:1.0;" width="10" x="1073" y="1807.7188"/><rect fill="#DCDCDC" height="194.9453" style="stroke:#000000;stroke-width:1.0;" width="10" x="1073" y="2183.25"/><rect fill="#DCDCDC" height="940.0469" style="stroke:#000000;stroke-width:1.0;" width="10" x="1297" y="1953.0547"/><rect fill="#DCDCDC" height="80.5781" style="stroke:#000000;stroke-width:1.0;" width="10" x="1536" y="2217.0391"/><polygon fill="#000000" points="359,164.4375,369,168.4375,359,172.4375,363,168.4375" style="stroke:#000000;stroke-width:1.0;"/><line style="stroke:#000000;stroke-width:1.0;" x1="137" x2="365" y1="168.4375" y2="168.4375"/><text fill="#000000" font-family="sans-serif" font-size="17" lengthAdjust="spacing" textLength="104" x="144" y="162.4282">Invite-Event</text><rect fill="#EEEEEE" height="3" style="stroke:#EEEEEE;stroke-width:1.0;" width="1678" x="0" y="198.75"/><line style="stroke:#000000;stroke-width:1.0;" x1="0" x2="1678" y1="198.75" y2="198.75"/><line style="stroke:#000000;stroke-width:1.0;" x1="0" x2="1678" y1="201.75" y2="201.75"/><rect fill="#EEEEEE" height="26.625" style="stroke:#000000;stroke-width:2.0;" width="316" x="681" y="186.4375"/><text fill="#008000" font-family="sans-serif" font-size="16" font-weight="bold" lengthAdjust="spacing" textLength="285" x="699" y="205.2891">Berechtigungskonzept - Stufe 1</text><text fill="#000000" font-family="sans-serif" font-size="13" font-weight="bold" lengthAdjust="spacing" textLength="5" x="984" y="205.9966"> </text><rect height="78.6797" style="stroke:#000000;stroke-width:1.5;fill:none;" width="408" x="266" y="248.0625"/><path d="M266,248.0625 L332,248.0625 L332,255.0625 L322,265.0625 L266,265.0625 L266,248.0625 " fill="#98FB98" style="stroke:#000000;stroke-width:2.0;"/><text fill="#000000" font-family="sans-serif" font-size="13" font-weight="bold" lengthAdjust="spacing" textLength="21" x="279" y="262.1294">ref</text><text fill="#000000" font-family="sans-serif" font-size="17" font-weight="bold" lengthAdjust="spacing" textLength="94" x="270" y="284.8423">AF_10064</text><text fill="#000000" font-family="sans-serif" font-size="17" lengthAdjust="spacing" textLength="6" x="369" y="284.8423">-</text><text fill="#000000" font-family="sans-serif" font-size="17" lengthAdjust="spacing" textLength="261" x="404" y="284.8423">Föderationszugehörigkeit eines</text><text fill="#000000" font-family="sans-serif" font-size="17" lengthAdjust="spacing" textLength="40" x="322" y="304.6313">        </text><text fill="#000000" font-family="sans-serif" font-size="17" lengthAdjust="spacing" textLength="216" x="402" y="304.6313">Messenger-Service prüfen</text><text fill="#000000" font-family="sans-serif" font-size="12" lengthAdjust="spacing" textLength="4" x="468" y="319.7793"> </text><path d="M20,363.7422 L84,363.7422 L84,370.875 L74,380.875 L20,380.875 L20,363.7422 " fill="#D3D3D3" style="stroke:#000000;stroke-width:1.5;"/><rect fill="none" height="221.125" style="stroke:#000000;stroke-width:1.5;" width="521" x="20" y="363.7422"/><text fill="#000000" font-family="sans-serif" font-size="13" font-weight="bold" lengthAdjust="spacing" textLength="19" x="35" y="376.8091">alt</text><text fill="#000000" font-family="sans-serif" font-size="11" font-weight="bold" lengthAdjust="spacing" textLength="5" x="99" y="381.7729">[</text><text fill="#000000" font-family="sans-serif" font-size="16" font-weight="bold" lengthAdjust="spacing" textLength="427" x="104" y="380.5938">Matrix-Domain nicht in der Föderation enthalten</text><text fill="#000000" font-family="sans-serif" font-size="11" font-weight="bold" lengthAdjust="spacing" textLength="5" x="531" y="381.7729">]</text><polygon fill="#000000" points="153,476.0781,143,480.0781,153,484.0781,149,480.0781" style="stroke:#000000;stroke-width:1.0;"/><line style="stroke:#000000;stroke-width:1.0;stroke-dasharray:2.0,2.0;" x1="147" x2="370" y1="480.0781" y2="480.0781"/><text fill="#000000" font-family="sans-serif" font-size="17" lengthAdjust="spacing" textLength="81" x="251" y="454.2798">HTTP 401</text><text fill="#000000" font-family="sans-serif" font-size="17" lengthAdjust="spacing" textLength="113" x="251" y="474.0688">Unauthorized</text><line style="stroke:#000000;stroke-width:1.0;stroke-dasharray:2.0,2.0;" x1="142" x2="184" y1="543.8672" y2="543.8672"/><line style="stroke:#000000;stroke-width:1.0;stroke-dasharray:2.0,2.0;" x1="184" x2="184" y1="543.8672" y2="556.8672"/><line style="stroke:#000000;stroke-width:1.0;stroke-dasharray:2.0,2.0;" x1="137" x2="184" y1="556.8672" y2="556.8672"/><polygon fill="#000000" points="147,552.8672,137,556.8672,147,560.8672,143,556.8672" style="stroke:#000000;stroke-width:1.0;"/><text fill="#000000" font-family="sans-serif" font-size="17" lengthAdjust="spacing" textLength="195" x="149" y="537.8579">Abmeldung der Session</text><polygon fill="#000000" points="583,638.6563,593,642.6563,583,646.6563,587,642.6563" style="stroke:#000000;stroke-width:1.0;"/><line style="stroke:#000000;stroke-width:1.0;" x1="381" x2="589" y1="642.6563" y2="642.6563"/><text fill="#000000" font-family="sans-serif" font-size="17" lengthAdjust="spacing" textLength="142" x="388" y="636.647">HTTP(S) Forward</text><line style="stroke:#000000;stroke-width:1.0;" x1="605" x2="647" y1="721.2344" y2="721.2344"/><line style="stroke:#000000;stroke-width:1.0;" x1="647" x2="647" y1="721.2344" y2="734.2344"/><line style="stroke:#000000;stroke-width:1.0;" x1="606" x2="647" y1="734.2344" y2="734.2344"/><polygon fill="#000000" points="616,730.2344,606,734.2344,616,738.2344,612,734.2344" style="stroke:#000000;stroke-width:1.0;"/><text fill="#000000" font-family="sans-serif" font-size="17" lengthAdjust="spacing" textLength="98" x="612" y="695.436">Prüfung auf</text><text fill="#000000" font-family="sans-serif" font-size="17" lengthAdjust="spacing" textLength="229" x="612" y="715.2251">Organisationszugehörigkeit</text><path d="M10,774.2344 L74,774.2344 L74,781.3672 L64,791.3672 L10,791.3672 L10,774.2344 " fill="#D3D3D3" style="stroke:#000000;stroke-width:1.5;"/><rect fill="none" height="1969.5" style="stroke:#000000;stroke-width:1.5;" width="1658" x="10" y="774.2344"/><text fill="#000000" font-family="sans-serif" font-size="13" font-weight="bold" lengthAdjust="spacing" textLength="19" x="25" y="787.3013">alt</text><text fill="#000000" font-family="sans-serif" font-size="11" font-weight="bold" lengthAdjust="spacing" textLength="5" x="89" y="792.2651">[</text><text fill="#000000" font-family="sans-serif" font-size="16" font-weight="bold" lengthAdjust="spacing" textLength="482" x="94" y="791.0859">Akteure gehören  einer gemeinsamen Organisation an</text><text fill="#000000" font-family="sans-serif" font-size="11" font-weight="bold" lengthAdjust="spacing" textLength="5" x="576" y="792.2651">]</text><line style="stroke:#000000;stroke-width:1.0;" x1="605" x2="647" y1="865.5703" y2="865.5703"/><line style="stroke:#000000;stroke-width:1.0;" x1="647" x2="647" y1="865.5703" y2="878.5703"/><line style="stroke:#000000;stroke-width:1.0;" x1="606" x2="647" y1="878.5703" y2="878.5703"/><polygon fill="#000000" points="616,874.5703,606,878.5703,616,882.5703,612,878.5703" style="stroke:#000000;stroke-width:1.0;"/><text fill="#000000" font-family="sans-serif" font-size="17" lengthAdjust="spacing" textLength="91" x="612" y="839.772">Invite wird</text><text fill="#000000" font-family="sans-serif" font-size="17" lengthAdjust="spacing" textLength="93" x="612" y="859.561">verarbeitet</text><polygon fill="#000000" points="392,908.3594,382,912.3594,392,916.3594,388,912.3594" style="stroke:#000000;stroke-width:1.0;"/><line style="stroke:#000000;stroke-width:1.0;stroke-dasharray:2.0,2.0;" x1="386" x2="594" y1="912.3594" y2="912.3594"/><text fill="#000000" font-family="sans-serif" font-size="17" lengthAdjust="spacing" textLength="51" x="537" y="906.3501">status</text><polygon fill="#000000" points="148,942.1484,138,946.1484,148,950.1484,144,946.1484" style="stroke:#000000;stroke-width:1.0;"/><line style="stroke:#000000;stroke-width:1.0;stroke-dasharray:2.0,2.0;" x1="142" x2="370" y1="946.1484" y2="946.1484"/><text fill="#000000" font-family="sans-serif" font-size="17" lengthAdjust="spacing" textLength="51" x="313" y="940.1392">status</text><line style="stroke:#000000;stroke-width:1.0;stroke-dasharray:2.0,2.0;" x1="10" x2="1668" y1="980.1484" y2="980.1484"/><text fill="#000000" font-family="sans-serif" font-size="11" font-weight="bold" lengthAdjust="spacing" textLength="5" x="15" y="996.1792">[</text><text fill="#000000" font-family="sans-serif" font-size="16" font-weight="bold" lengthAdjust="spacing" textLength="526" x="20" y="995">Akteure gehören nicht einer gemeinsamen Organisation an</text><text fill="#000000" font-family="sans-serif" font-size="11" font-weight="bold" lengthAdjust="spacing" textLength="5" x="546" y="996.1792">]</text><polygon fill="#000000" points="392,1066.3516,382,1070.3516,392,1074.3516,388,1070.3516" style="stroke:#000000;stroke-width:1.0;"/><line style="stroke:#000000;stroke-width:1.0;" x1="386" x2="599" y1="1070.3516" y2="1070.3516"/><text fill="#000000" font-family="sans-serif" font-size="17" lengthAdjust="spacing" textLength="164" x="424" y="1044.5532">Matrix-Invite-Event</text><text fill="#000000" font-family="sans-serif" font-size="17" lengthAdjust="spacing" textLength="160" x="424" y="1064.3423">wird weitergeleitet</text><polygon fill="#000000" points="837,1144.9297,847,1148.9297,837,1152.9297,841,1148.9297" style="stroke:#000000;stroke-width:1.0;"/><line style="stroke:#000000;stroke-width:1.0;" x1="381" x2="843" y1="1148.9297" y2="1148.9297"/><text fill="#000000" font-family="sans-serif" font-size="17" lengthAdjust="spacing" textLength="164" x="388" y="1123.1313">Matrix-Invite-Event</text><text fill="#000000" font-family="sans-serif" font-size="17" lengthAdjust="spacing" textLength="160" x="388" y="1142.9204">wird weitergeleitet</text><rect fill="#EEEEEE" height="3" style="stroke:#EEEEEE;stroke-width:1.0;" width="1678" x="0" y="1204.2422"/><line style="stroke:#000000;stroke-width:1.0;" x1="0" x2="1678" y1="1204.2422" y2="1204.2422"/><line style="stroke:#000000;stroke-width:1.0;" x1="0" x2="1678" y1="1207.2422" y2="1207.2422"/><rect fill="#EEEEEE" height="26.625" style="stroke:#000000;stroke-width:2.0;" width="321" x="678.5" y="1191.9297"/><text fill="#008000" font-family="sans-serif" font-size="16" font-weight="bold" lengthAdjust="spacing" textLength="285" x="696.5" y="1210.7813">Berechtigungskonzept - Stufe 1</text><text fill="#000000" font-family="sans-serif" font-size="13" font-weight="bold" lengthAdjust="spacing" textLength="10" x="981.5" y="1211.4888">  </text><rect height="78.6797" style="stroke:#000000;stroke-width:1.5;fill:none;" width="408" x="744" y="1253.5547"/><path d="M744,1253.5547 L810,1253.5547 L810,1260.5547 L800,1270.5547 L744,1270.5547 L744,1253.5547 " fill="#98FB98" style="stroke:#000000;stroke-width:2.0;"/><text fill="#000000" font-family="sans-serif" font-size="13" font-weight="bold" lengthAdjust="spacing" textLength="21" x="757" y="1267.6216">ref</text><text fill="#000000" font-family="sans-serif" font-size="17" font-weight="bold" lengthAdjust="spacing" textLength="94" x="748" y="1290.3345">AF_10064</text><text fill="#000000" font-family="sans-serif" font-size="17" lengthAdjust="spacing" textLength="6" x="847" y="1290.3345">-</text><text fill="#000000" font-family="sans-serif" font-size="17" lengthAdjust="spacing" textLength="261" x="882" y="1290.3345">Föderationszugehörigkeit eines</text><text fill="#000000" font-family="sans-serif" font-size="17" lengthAdjust="spacing" textLength="40" x="800" y="1310.1235">        </text><text fill="#000000" font-family="sans-serif" font-size="17" lengthAdjust="spacing" textLength="216" x="880" y="1310.1235">Messenger-Service prüfen</text><text fill="#000000" font-family="sans-serif" font-size="12" lengthAdjust="spacing" textLength="4" x="946" y="1325.2715"> </text><path d="M20,1369.2344 L84,1369.2344 L84,1376.3672 L74,1386.3672 L20,1386.3672 L20,1369.2344 " fill="#D3D3D3" style="stroke:#000000;stroke-width:1.5;"/><rect fill="none" height="254.9141" style="stroke:#000000;stroke-width:1.5;" width="951" x="20" y="1369.2344"/><text fill="#000000" font-family="sans-serif" font-size="13" font-weight="bold" lengthAdjust="spacing" textLength="19" x="35" y="1382.3013">alt</text><text fill="#000000" font-family="sans-serif" font-size="11" font-weight="bold" lengthAdjust="spacing" textLength="5" x="99" y="1387.2651">[</text><text fill="#000000" font-family="sans-serif" font-size="16" font-weight="bold" lengthAdjust="spacing" textLength="427" x="104" y="1386.0859">Matrix-Domain nicht in der Föderation enthalten</text><text fill="#000000" font-family="sans-serif" font-size="11" font-weight="bold" lengthAdjust="spacing" textLength="5" x="531" y="1387.2651">]</text><polygon fill="#000000" points="392,1481.5703,382,1485.5703,392,1489.5703,388,1485.5703" style="stroke:#000000;stroke-width:1.0;"/><line style="stroke:#000000;stroke-width:1.0;stroke-dasharray:2.0,2.0;" x1="386" x2="848" y1="1485.5703" y2="1485.5703"/><text fill="#000000" font-family="sans-serif" font-size="17" lengthAdjust="spacing" textLength="81" x="729" y="1459.772">HTTP 401</text><text fill="#000000" font-family="sans-serif" font-size="17" lengthAdjust="spacing" textLength="113" x="729" y="1479.561">Unauthorized</text><polygon fill="#000000" points="153,1515.3594,143,1519.3594,153,1523.3594,149,1519.3594" style="stroke:#000000;stroke-width:1.0;"/><line style="stroke:#000000;stroke-width:1.0;stroke-dasharray:2.0,2.0;" x1="147" x2="370" y1="1519.3594" y2="1519.3594"/><text fill="#000000" font-family="sans-serif" font-size="17" lengthAdjust="spacing" textLength="138" x="226" y="1513.3501">HTTP(S) forward</text><line style="stroke:#000000;stroke-width:1.0;stroke-dasharray:2.0,2.0;" x1="142" x2="184" y1="1583.1484" y2="1583.1484"/><line style="stroke:#000000;stroke-width:1.0;stroke-dasharray:2.0,2.0;" x1="184" x2="184" y1="1583.1484" y2="1596.1484"/><line style="stroke:#000000;stroke-width:1.0;stroke-dasharray:2.0,2.0;" x1="137" x2="184" y1="1596.1484" y2="1596.1484"/><polygon fill="#000000" points="147,1592.1484,137,1596.1484,147,1600.1484,143,1596.1484" style="stroke:#000000;stroke-width:1.0;"/><text fill="#000000" font-family="sans-serif" font-size="17" lengthAdjust="spacing" textLength="195" x="149" y="1577.1392">Abmeldung der Session</text><rect fill="#EEEEEE" height="3" style="stroke:#EEEEEE;stroke-width:1.0;" width="1678" x="0" y="1678.4609"/><line style="stroke:#000000;stroke-width:1.0;" x1="0" x2="1678" y1="1678.4609" y2="1678.4609"/><line style="stroke:#000000;stroke-width:1.0;" x1="0" x2="1678" y1="1681.4609" y2="1681.4609"/><rect fill="#EEEEEE" height="26.625" style="stroke:#000000;stroke-width:2.0;" width="321" x="678.5" y="1666.1484"/><text fill="#008000" font-family="sans-serif" font-size="16" font-weight="bold" lengthAdjust="spacing" textLength="285" x="696.5" y="1685">Berechtigungskonzept - Stufe 2</text><text fill="#000000" font-family="sans-serif" font-size="13" font-weight="bold" lengthAdjust="spacing" textLength="10" x="981.5" y="1685.7075">  </text><polygon fill="#000000" points="1061,1803.7188,1071,1807.7188,1061,1811.7188,1065,1807.7188" style="stroke:#000000;stroke-width:1.0;"/><line style="stroke:#000000;stroke-width:1.0;" x1="859" x2="1067" y1="1807.7188" y2="1807.7188"/><text fill="#000000" font-family="sans-serif" font-size="17" lengthAdjust="spacing" textLength="5" x="866" y="1722.5532"> </text><text fill="#000000" font-family="sans-serif" font-size="17" lengthAdjust="spacing" textLength="148" x="866" y="1742.3423">Prüfung, ob MXID</text><text fill="#000000" font-family="sans-serif" font-size="17" lengthAdjust="spacing" textLength="137" x="866" y="1762.1313">des Einladenden</text><text fill="#000000" font-family="sans-serif" font-size="17" lengthAdjust="spacing" textLength="160" x="866" y="1781.9204">in der Freigabeliste</text><text fill="#000000" font-family="sans-serif" font-size="17" lengthAdjust="spacing" textLength="107" x="866" y="1801.7095">enthalten ist</text><polygon fill="#000000" points="870,1837.5078,860,1841.5078,870,1845.5078,866,1841.5078" style="stroke:#000000;stroke-width:1.0;"/><line style="stroke:#000000;stroke-width:1.0;stroke-dasharray:2.0,2.0;" x1="864" x2="1077" y1="1841.5078" y2="1841.5078"/><text fill="#000000" font-family="sans-serif" font-size="17" lengthAdjust="spacing" textLength="51" x="1020" y="1835.4985">status</text><path d="M727,1881.5078 L791,1881.5078 L791,1888.6406 L781,1898.6406 L727,1898.6406 L727,1881.5078 " fill="#D3D3D3" style="stroke:#000000;stroke-width:1.5;"/><rect fill="none" height="830.2266" style="stroke:#000000;stroke-width:1.5;" width="931" x="727" y="1881.5078"/><text fill="#000000" font-family="sans-serif" font-size="13" font-weight="bold" lengthAdjust="spacing" textLength="19" x="742" y="1894.5747">alt</text><text fill="#000000" font-family="sans-serif" font-size="11" font-weight="bold" lengthAdjust="spacing" textLength="5" x="806" y="1899.5386">[</text><text fill="#000000" font-family="sans-serif" font-size="16" font-weight="bold" lengthAdjust="spacing" textLength="491" x="811" y="1898.3594">MXID des Einladenden ist in der Freigabeliste enthalten</text><text fill="#000000" font-family="sans-serif" font-size="11" font-weight="bold" lengthAdjust="spacing" textLength="5" x="1302" y="1899.5386">]</text><polygon fill="#000000" points="1285,1949.0547,1295,1953.0547,1285,1957.0547,1289,1953.0547" style="stroke:#000000;stroke-width:1.0;"/><line style="stroke:#000000;stroke-width:1.0;" x1="859" x2="1291" y1="1953.0547" y2="1953.0547"/><text fill="#000000" font-family="sans-serif" font-size="17" lengthAdjust="spacing" textLength="142" x="866" y="1947.0454">HTTP(S) Forward</text><line style="stroke:#000000;stroke-width:1.0;stroke-dasharray:2.0,2.0;" x1="727" x2="1658" y1="1987.0547" y2="1987.0547"/><text fill="#000000" font-family="sans-serif" font-size="11" font-weight="bold" lengthAdjust="spacing" textLength="5" x="732" y="2003.0854">[</text><text fill="#000000" font-family="sans-serif" font-size="16" font-weight="bold" lengthAdjust="spacing" textLength="541" x="737" y="2001.9063">MXID des Einladenden ist nicht in der Freigabeliste enthalten</text><text fill="#000000" font-family="sans-serif" font-size="11" font-weight="bold" lengthAdjust="spacing" textLength="5" x="1278" y="2003.0854">]</text><rect fill="#EEEEEE" height="3" style="stroke:#EEEEEE;stroke-width:1.0;" width="1678" x="0" y="2053.9922"/><line style="stroke:#000000;stroke-width:1.0;" x1="0" x2="1678" y1="2053.9922" y2="2053.9922"/><line style="stroke:#000000;stroke-width:1.0;" x1="0" x2="1678" y1="2056.9922" y2="2056.9922"/><rect fill="#EEEEEE" height="26.625" style="stroke:#000000;stroke-width:2.0;" width="321" x="678.5" y="2041.6797"/><text fill="#008000" font-family="sans-serif" font-size="16" font-weight="bold" lengthAdjust="spacing" textLength="285" x="696.5" y="2060.5313">Berechtigungskonzept - Stufe 3</text><text fill="#000000" font-family="sans-serif" font-size="13" font-weight="bold" lengthAdjust="spacing" textLength="10" x="981.5" y="2061.2388">  </text><polygon fill="#000000" points="1061,2179.25,1071,2183.25,1061,2187.25,1065,2183.25" style="stroke:#000000;stroke-width:1.0;"/><line style="stroke:#000000;stroke-width:1.0;" x1="859" x2="1067" y1="2183.25" y2="2183.25"/><text fill="#000000" font-family="sans-serif" font-size="17" lengthAdjust="spacing" textLength="5" x="866" y="2098.0845"> </text><text fill="#000000" font-family="sans-serif" font-size="17" lengthAdjust="spacing" textLength="148" x="866" y="2117.8735">Prüfung, ob MXID</text><text fill="#000000" font-family="sans-serif" font-size="17" lengthAdjust="spacing" textLength="125" x="866" y="2137.6626">der Akteure im</text><text fill="#000000" font-family="sans-serif" font-size="17" lengthAdjust="spacing" textLength="156" x="866" y="2157.4517">VZD-FHIR-Dirctory</text><text fill="#000000" font-family="sans-serif" font-size="17" lengthAdjust="spacing" textLength="107" x="866" y="2177.2407">enthalten ist</text><polygon fill="#000000" points="1524,2213.0391,1534,2217.0391,1524,2221.0391,1528,2217.0391" style="stroke:#000000;stroke-width:1.0;"/><line style="stroke:#000000;stroke-width:1.0;" x1="1083" x2="1530" y1="2217.0391" y2="2217.0391"/><text fill="#000000" font-family="sans-serif" font-size="17" lengthAdjust="spacing" textLength="304" x="1090" y="2211.0298">POST /tim-provider-services/whereIs</text><line style="stroke:#000000;stroke-width:1.0;" x1="1546" x2="1588" y1="2250.8281" y2="2250.8281"/><line style="stroke:#000000;stroke-width:1.0;" x1="1588" x2="1588" y1="2250.8281" y2="2263.8281"/><line style="stroke:#000000;stroke-width:1.0;" x1="1547" x2="1588" y1="2263.8281" y2="2263.8281"/><polygon fill="#000000" points="1557,2259.8281,1547,2263.8281,1557,2267.8281,1553,2263.8281" style="stroke:#000000;stroke-width:1.0;"/><text fill="#000000" font-family="sans-serif" font-size="17" lengthAdjust="spacing" textLength="51" x="1553" y="2244.8188">Suche</text><polygon fill="#000000" points="1094,2293.6172,1084,2297.6172,1094,2301.6172,1090,2297.6172" style="stroke:#000000;stroke-width:1.0;"/><line style="stroke:#000000;stroke-width:1.0;stroke-dasharray:2.0,2.0;" x1="1088" x2="1540" y1="2297.6172" y2="2297.6172"/><text fill="#000000" font-family="sans-serif" font-size="17" lengthAdjust="spacing" textLength="133" x="1401" y="2291.6079">Ergebnis, status</text><line style="stroke:#000000;stroke-width:1.0;" x1="1083" x2="1125" y1="2331.4063" y2="2331.4063"/><line style="stroke:#000000;stroke-width:1.0;" x1="1125" x2="1125" y1="2331.4063" y2="2344.4063"/><line style="stroke:#000000;stroke-width:1.0;" x1="1084" x2="1125" y1="2344.4063" y2="2344.4063"/><polygon fill="#000000" points="1094,2340.4063,1084,2344.4063,1094,2348.4063,1090,2344.4063" style="stroke:#000000;stroke-width:1.0;"/><text fill="#000000" font-family="sans-serif" font-size="17" lengthAdjust="spacing" textLength="66" x="1090" y="2325.397">Prüfung</text><polygon fill="#000000" points="870,2374.1953,860,2378.1953,870,2382.1953,866,2378.1953" style="stroke:#000000;stroke-width:1.0;"/><line style="stroke:#000000;stroke-width:1.0;stroke-dasharray:2.0,2.0;" x1="864" x2="1077" y1="2378.1953" y2="2378.1953"/><text fill="#000000" font-family="sans-serif" font-size="17" lengthAdjust="spacing" textLength="133" x="938" y="2372.186">Ergebnis, status</text><path d="M737,2418.1953 L801,2418.1953 L801,2425.3281 L791,2435.3281 L737,2435.3281 L737,2418.1953 " fill="#D3D3D3" style="stroke:#000000;stroke-width:1.5;"/><rect fill="none" height="261.5391" style="stroke:#000000;stroke-width:1.5;" width="682" x="737" y="2418.1953"/><text fill="#000000" font-family="sans-serif" font-size="13" font-weight="bold" lengthAdjust="spacing" textLength="19" x="752" y="2431.2622">alt</text><text fill="#000000" font-family="sans-serif" font-size="11" font-weight="bold" lengthAdjust="spacing" textLength="5" x="816" y="2436.2261">[</text><text fill="#000000" font-family="sans-serif" font-size="16" font-weight="bold" lengthAdjust="spacing" textLength="478" x="821" y="2435.0469">MXID ist im VZD-FHIR-Directory und Ergebnis == true</text><text fill="#000000" font-family="sans-serif" font-size="11" font-weight="bold" lengthAdjust="spacing" textLength="5" x="1299" y="2436.2261">]</text><polygon fill="#000000" points="1285,2485.7422,1295,2489.7422,1285,2493.7422,1289,2489.7422" style="stroke:#000000;stroke-width:1.0;"/><line style="stroke:#000000;stroke-width:1.0;" x1="859" x2="1291" y1="2489.7422" y2="2489.7422"/><text fill="#000000" font-family="sans-serif" font-size="17" lengthAdjust="spacing" textLength="142" x="866" y="2483.7329">HTTP(S) Forward</text><line style="stroke:#000000;stroke-width:1.0;stroke-dasharray:2.0,2.0;" x1="737" x2="1419" y1="2523.7422" y2="2523.7422"/><text fill="#000000" font-family="sans-serif" font-size="11" font-weight="bold" lengthAdjust="spacing" textLength="5" x="742" y="2539.7729">[</text><text fill="#000000" font-family="sans-serif" font-size="16" font-weight="bold" lengthAdjust="spacing" textLength="422" x="747" y="2538.5938">MXID ist nicht im VZD-FHIR-Directory enthalten</text><text fill="#000000" font-family="sans-serif" font-size="11" font-weight="bold" lengthAdjust="spacing" textLength="5" x="1169" y="2539.7729">]</text><line style="stroke:#000000;stroke-width:1.0;" x1="859" x2="901" y1="2633.7344" y2="2633.7344"/><line style="stroke:#000000;stroke-width:1.0;" x1="901" x2="901" y1="2633.7344" y2="2646.7344"/><line style="stroke:#000000;stroke-width:1.0;" x1="860" x2="901" y1="2646.7344" y2="2646.7344"/><polygon fill="#000000" points="870,2642.7344,860,2646.7344,870,2650.7344,866,2646.7344" style="stroke:#000000;stroke-width:1.0;"/><text fill="#FF0000" font-family="sans-serif" font-size="17" lengthAdjust="spacing" textLength="73" x="866" y="2588.147">Abbruch,</text><text fill="#FF0000" font-family="sans-serif" font-size="17" lengthAdjust="spacing" textLength="138" x="866" y="2607.936">Verbindung wird</text><text fill="#FF0000" font-family="sans-serif" font-size="17" lengthAdjust="spacing" textLength="84" x="866" y="2627.7251">abgelehnt</text><line style="stroke:#000000;stroke-width:1.0;stroke-dasharray:2.0,2.0;" x1="1307" x2="1349" y1="2821.3125" y2="2821.3125"/><line style="stroke:#000000;stroke-width:1.0;stroke-dasharray:2.0,2.0;" x1="1349" x2="1349" y1="2821.3125" y2="2834.3125"/><line style="stroke:#000000;stroke-width:1.0;stroke-dasharray:2.0,2.0;" x1="1308" x2="1349" y1="2834.3125" y2="2834.3125"/><polygon fill="#000000" points="1318,2830.3125,1308,2834.3125,1318,2838.3125,1314,2834.3125" style="stroke:#000000;stroke-width:1.0;"/><text fill="#000000" font-family="sans-serif" font-size="17" lengthAdjust="spacing" textLength="104" x="1314" y="2795.5142">Invite-Event</text><text fill="#000000" font-family="sans-serif" font-size="17" lengthAdjust="spacing" textLength="97" x="1314" y="2815.3032">verarbeiten</text><polygon fill="#000000" points="870,2889.1016,860,2893.1016,870,2897.1016,866,2893.1016" style="stroke:#000000;stroke-width:1.0;"/><line style="stroke:#000000;stroke-width:1.0;stroke-dasharray:2.0,2.0;" x1="864" x2="1301" y1="2893.1016" y2="2893.1016"/><text fill="#000000" font-family="sans-serif" font-size="17" lengthAdjust="spacing" textLength="51" x="1244" y="2887.0923">status</text><polygon fill="#000000" points="392,2922.8906,382,2926.8906,392,2930.8906,388,2926.8906" style="stroke:#000000;stroke-width:1.0;"/><line style="stroke:#000000;stroke-width:1.0;stroke-dasharray:2.0,2.0;" x1="386" x2="853" y1="2926.8906" y2="2926.8906"/><text fill="#000000" font-family="sans-serif" font-size="17" lengthAdjust="spacing" textLength="51" x="796" y="2920.8813">status</text><polygon fill="#000000" points="148,2956.6797,138,2960.6797,148,2964.6797,144,2960.6797" style="stroke:#000000;stroke-width:1.0;"/><line style="stroke:#000000;stroke-width:1.0;stroke-dasharray:2.0,2.0;" x1="142" x2="375" y1="2960.6797" y2="2960.6797"/><text fill="#000000" font-family="sans-serif" font-size="17" lengthAdjust="spacing" textLength="51" x="318" y="2954.6704">status</text><!--MD5=[d17866d9b0fe171e4145a3e9754a008a]
@startuml
skinparam sequenceMessageAlign direction
skinparam minClassWidth 200
skinparam BoxPadding 15
skinparam sequenceReferenceHeaderBackgroundColor palegreen
scale max 2048 width

skinparam sequence {
ArrowColor black
ArrowFontSize 17
ActorBorderColor black
LifeLineBorderColor black
LifeLineBackgroundColor Gainsboro

ParticipantBorderColor Motivation
ParticipantBackgroundColor Motivation
ParticipantFontName Impact
ParticipantFontSize 20
ParticipantFontColor black
ParticipantBorderColor Black
ParticipantBackgroundColor MOTIVATION

ActorBackgroundColor Gainsboro
ActorFontColor black
ActorFontSize 20
ActorFontName Aapex
}
      participant C as "TI-Messenger-\nClient"
      box <size:18>Messenger-Service\n #WhiteSmoke
      participant MP as "Messenger-\nProxy"
      participant MH as "Matrix-\nHomeserver"
      end box
      box <size:18>Messenger-Service\n #WhiteSmoke
      participant MP2 as "Messenger-\nProxy"
      participant RD2 as "Registrierungs-\nDienst"
      participant MH2 as "Matrix-\nHomeserver"
      end box
      participant VZD as "VZD-FHIR-\nDirectory"

|||
C->MP: Invite-Event
 activate MP #LIGHTGREEN

== <font color=green><size:16>  Berechtigungskonzept - Stufe 1</size></font> == 
    |||
      ref over MP, MP: <size:17>**AF_10064** - \tFöderationszugehörigkeit eines \n<size:17>        \tMessenger-Service prüfen</size>\n 
    |||

alt#LightGrey #MISTYROSE  <size:16>Matrix-Domain nicht in der Föderation enthalten</size>
|||
    |||
    MP- ->C: HTTP 401 \nUnauthorized
     activate C
    |||
    C- ->C: Abmeldung der Session
     deactivate C
|||
end

|||
MP->MH: HTTP(S) Forward
 activate MH

|||
MH->MH: Prüfung auf \nOrganisationszugehörigkeit

|||
   alt#LightGrey #AliceBlue <size:16>Akteure gehören  einer gemeinsamen Organisation an</size> 
   |||
      MH->MH: Invite wird \nverarbeitet 
      MH- ->MP: status
      MP- ->C: status
      |||

   else <size:16>Akteure gehören nicht einer gemeinsamen Organisation an</size>
   |||
      MH->MP: Matrix-Invite-Event \nwird weitergeleitet
      deactivate MH
      |||
      MP->MP2: Matrix-Invite-Event \nwird weitergeleitet
      activate MP2 #SALMON
      
      |||
          == <font color=green><size:16>  Berechtigungskonzept - Stufe 1</size></font>  ==
      |||

        ref over MP2, MP2: <size:17>**AF_10064** - \tFöderationszugehörigkeit eines \n<size:17>        \tMessenger-Service prüfen</size>\n 
        |||
     
        alt#LightGrey #MISTYROSE  <size:16>Matrix-Domain nicht in der Föderation enthalten</size>
        |||
            |||
            MP2- ->MP: HTTP 401 \nUnauthorized
            MP- ->C: HTTP(S) forward
             activate C
            |||
            C- ->C: Abmeldung der Session
             deactivate C
        |||
        end
       
        |||
        == <font color=green><size:16>  Berechtigungskonzept - Stufe 2</size></font>  ==     
       
         activate MP2
        MP2->RD2: \nPrüfung, ob MXID \ndes Einladenden \nin der Freigabeliste \nenthalten ist
         activate RD2
        RD2- ->MP2: status
         deactivate RD2
        |||
          
          alt#LightGrey #MOTIVATION  <size:16>MXID des Einladenden ist in der Freigabeliste enthalten</size>
          |||
             MP2->MH2: HTTP(S) Forward
              activate MH2
          |||
             else <size:16>MXID des Einladenden ist nicht in der Freigabeliste enthalten</size>
             |||
                == <font color=green><size:16>  Berechtigungskonzept - Stufe 3</size></font>  ==
                MP2->RD2: \nPrüfung, ob MXID \nder Akteure im \nVZD-FHIR-Dirctory \nenthalten ist
                 activate RD2
                RD2->VZD: POST /tim-provider-services/whereIs
                 activate VZD
                VZD->VZD: Suche
                VZD- ->RD2: Ergebnis, status
                 deactivate VZD
                RD2->RD2: Prüfung 
                RD2- ->MP2: Ergebnis, status
                 deactivate RD2
             |||
                alt#LightGrey #LightBlue  <size:16>MXID ist im VZD-FHIR-Directory und Ergebnis == true</size>
                |||
                  MP2->MH2: HTTP(S) Forward
                |||
                  else <size:16>MXID ist nicht im VZD-FHIR-Directory enthalten</size>
                  |||
                    MP2->MP2: <font color=red>Abbruch, \n<font color=red>Verbindung wird \n<font color=red>abgelehnt</font>
                  |||
                end
                |||
          end
          |||
   end
   |||


MH2- ->MH2: Invite-Event \nverarbeiten
|||
MH2- ->MP2: status
deactivate MH2
MP2- ->MP: status
deactivate MP2

MP- ->C: status
deactivate MP

|||
@end

PlantUML version 1.2022.5(Sat Apr 30 10:55:52 UTC 2022)
(GPL source distribution)
Java Runtime: OpenJDK Runtime Environment
JVM: OpenJDK 64-Bit Server VM
Default Encoding: UTF-8
Language: en
Country: null
--></g></svg>