<?xml version="1.0" encoding="us-ascii" standalone="no"?><svg xmlns="http://www.w3.org/2000/svg" xmlns:xlink="http://www.w3.org/1999/xlink" contentStyleType="text/css" height="1505px" preserveAspectRatio="none" style="width:1727px;height:1505px;background:#FFFFFF;" version="1.1" viewBox="0 0 1727 1505" width="1727px" zoomAndPan="magnify"><defs/><g><rect fill="#F5F5F5" height="1493.9219" style="stroke:#181818;stroke-width:0.5;" width="222" x="16" y="6"/><text fill="#000000" font-family="sans-serif" font-size="18" font-weight="bold" lengthAdjust="spacing" textLength="193" x="30.5" y="22.708">Messenger-Service</text><text fill="#000000" font-family="sans-serif" font-size="13" font-weight="bold" lengthAdjust="spacing" textLength="185" x="30.5" y="39.02">des einladenden Akteurs</text><text fill="#000000" font-family="sans-serif" font-size="13" font-weight="bold" lengthAdjust="spacing" textLength="5" x="30.5" y="54.1528">&#160;</text><rect fill="#F5F5F5" height="1493.9219" style="stroke:#181818;stroke-width:0.5;" width="747" x="270" y="6"/><text fill="#000000" font-family="sans-serif" font-size="18" font-weight="bold" lengthAdjust="spacing" textLength="193" x="546.5" y="22.708">Messenger-Service</text><text fill="#000000" font-family="sans-serif" font-size="13" font-weight="bold" lengthAdjust="spacing" textLength="194" x="546.5" y="39.02">des eingeladenen Akteurs</text><text fill="#000000" font-family="sans-serif" font-size="13" font-weight="bold" lengthAdjust="spacing" textLength="5" x="546.5" y="54.1528">&#160;</text><rect fill="#F5F5F5" height="1493.9219" style="stroke:#181818;stroke-width:0.5;" width="222" x="1049" y="6"/><text fill="#000000" font-family="sans-serif" font-size="18" font-weight="bold" lengthAdjust="spacing" textLength="176" x="1063" y="22.708">Messenger Client</text><text fill="#000000" font-family="sans-serif" font-size="13" font-weight="bold" lengthAdjust="spacing" textLength="194" x="1063" y="39.02">des eingeladenen Akteurs</text><text fill="#000000" font-family="sans-serif" font-size="13" font-weight="bold" lengthAdjust="spacing" textLength="5" x="1063" y="54.1528">&#160;</text><rect fill="#DCDCDC" height="512.0625" style="stroke:#000000;stroke-width:1.0;" width="10" x="122" y="158.5703"/><rect fill="#DCDCDC" height="512.0625" style="stroke:#000000;stroke-width:1.0;" width="10" x="376" y="158.5703"/><rect fill="#DCDCDC" height="101.3672" style="stroke:#000000;stroke-width:1.0;" width="10" x="376" y="751.0469"/><rect fill="#DCDCDC" height="101.3672" style="stroke:#000000;stroke-width:1.0;" width="10" x="376" y="1290.9922"/><rect fill="#DCDCDC" height="167.9453" style="stroke:#000000;stroke-width:1.0;" width="10" x="677" y="468.8984"/><rect fill="#DCDCDC" height="33.7891" style="stroke:#000000;stroke-width:1.0;" width="10" x="677" y="784.8359"/><rect fill="#DCDCDC" height="33.7891" style="stroke:#000000;stroke-width:1.0;" width="10" x="677" y="1324.7813"/><rect fill="#DCDCDC" height="33.7891" style="stroke:#000000;stroke-width:1.0;" width="10" x="901" y="569.2656"/><rect fill="#DCDCDC" height="687.9375" style="stroke:#000000;stroke-width:1.0;" width="10" x="1155" y="603.0547"/><rect fill="#FFE4E1" height="165.9141" style="stroke:#000000;stroke-width:1.5;" width="545" x="10" y="270.1953"/><rect fill="#FFE4E1" height="272.2109" style="stroke:#000000;stroke-width:1.5;" width="667" x="1043" y="960.9922"/><rect fill="#FFE4E1" height="136.0391" style="stroke:none;stroke-width:1.0;" width="667" x="1043" y="1097.1641"/><line style="stroke:#000000;stroke-width:0.5;stroke-dasharray:5.0,5.0;" x1="127" x2="127" y1="122.7813" y2="1435.3594"/><line style="stroke:#000000;stroke-width:0.5;stroke-dasharray:5.0,5.0;" x1="381" x2="381" y1="122.7813" y2="1435.3594"/><line style="stroke:#000000;stroke-width:0.5;stroke-dasharray:5.0,5.0;" x1="682" x2="682" y1="122.7813" y2="1435.3594"/><line style="stroke:#000000;stroke-width:0.5;stroke-dasharray:5.0,5.0;" x1="906" x2="906" y1="122.7813" y2="1435.3594"/><line style="stroke:#000000;stroke-width:0.5;stroke-dasharray:5.0,5.0;" x1="1160" x2="1160" y1="122.7813" y2="1435.3594"/><rect fill="#EFEFFF" height="37.2813" rx="2.5" ry="2.5" style="stroke:#000000;stroke-width:0.5;" width="214" x="20" y="84.5"/><text fill="#000000" font-family="sans-serif" font-size="20" lengthAdjust="spacing" textLength="187" x="33.5" y="110.0645">Messenger-Service</text><rect fill="#EFEFFF" height="37.2813" rx="2.5" ry="2.5" style="stroke:#000000;stroke-width:0.5;" width="214" x="20" y="1434.3594"/><text fill="#000000" font-family="sans-serif" font-size="20" lengthAdjust="spacing" textLength="187" x="33.5" y="1459.9238">Messenger-Service</text><rect fill="#EFEFFF" height="60.5625" rx="2.5" ry="2.5" style="stroke:#000000;stroke-width:0.5;" width="214" x="274" y="61.2188"/><text fill="#000000" font-family="sans-serif" font-size="20" lengthAdjust="spacing" textLength="114" x="324" y="86.7832">Messenger-</text><text fill="#000000" font-family="sans-serif" font-size="20" lengthAdjust="spacing" textLength="54" x="354" y="110.0645">Proxy</text><rect fill="#EFEFFF" height="60.5625" rx="2.5" ry="2.5" style="stroke:#000000;stroke-width:0.5;" width="214" x="274" y="1434.3594"/><text fill="#000000" font-family="sans-serif" font-size="20" lengthAdjust="spacing" textLength="114" x="324" y="1459.9238">Messenger-</text><text fill="#000000" font-family="sans-serif" font-size="20" lengthAdjust="spacing" textLength="54" x="354" y="1483.2051">Proxy</text><rect fill="#EFEFFF" height="60.5625" rx="2.5" ry="2.5" style="stroke:#000000;stroke-width:0.5;" width="214" x="575" y="61.2188"/><text fill="#000000" font-family="sans-serif" font-size="20" lengthAdjust="spacing" textLength="69" x="647.5" y="86.7832">Matrix-</text><text fill="#000000" font-family="sans-serif" font-size="20" lengthAdjust="spacing" textLength="120" x="622" y="110.0645">Homeserver</text><rect fill="#EFEFFF" height="60.5625" rx="2.5" ry="2.5" style="stroke:#000000;stroke-width:0.5;" width="214" x="575" y="1434.3594"/><text fill="#000000" font-family="sans-serif" font-size="20" lengthAdjust="spacing" textLength="69" x="647.5" y="1459.9238">Matrix-</text><text fill="#000000" font-family="sans-serif" font-size="20" lengthAdjust="spacing" textLength="120" x="622" y="1483.2051">Homeserver</text><rect fill="#EFEFFF" height="60.5625" rx="2.5" ry="2.5" style="stroke:#000000;stroke-width:0.5;" width="214" x="799" y="61.2188"/><text fill="#000000" font-family="sans-serif" font-size="20" lengthAdjust="spacing" textLength="55" x="878.5" y="86.7832">Push-</text><text fill="#000000" font-family="sans-serif" font-size="20" lengthAdjust="spacing" textLength="64" x="874" y="110.0645">Dienst</text><rect fill="#EFEFFF" height="60.5625" rx="2.5" ry="2.5" style="stroke:#000000;stroke-width:0.5;" width="214" x="799" y="1434.3594"/><text fill="#000000" font-family="sans-serif" font-size="20" lengthAdjust="spacing" textLength="55" x="878.5" y="1459.9238">Push-</text><text fill="#000000" font-family="sans-serif" font-size="20" lengthAdjust="spacing" textLength="64" x="874" y="1483.2051">Dienst</text><rect fill="#EFEFFF" height="37.2813" rx="2.5" ry="2.5" style="stroke:#000000;stroke-width:0.5;" width="214" x="1053" y="84.5"/><text fill="#000000" font-family="sans-serif" font-size="20" lengthAdjust="spacing" textLength="173" x="1073.5" y="110.0645">Messenger-Client</text><rect fill="#EFEFFF" height="37.2813" rx="2.5" ry="2.5" style="stroke:#000000;stroke-width:0.5;" width="214" x="1053" y="1434.3594"/><text fill="#000000" font-family="sans-serif" font-size="20" lengthAdjust="spacing" textLength="173" x="1073.5" y="1459.9238">Messenger-Client</text><rect fill="#DCDCDC" height="512.0625" style="stroke:#000000;stroke-width:1.0;" width="10" x="122" y="158.5703"/><rect fill="#DCDCDC" height="512.0625" style="stroke:#000000;stroke-width:1.0;" width="10" x="376" y="158.5703"/><rect fill="#DCDCDC" height="101.3672" style="stroke:#000000;stroke-width:1.0;" width="10" x="376" y="751.0469"/><rect fill="#DCDCDC" height="101.3672" style="stroke:#000000;stroke-width:1.0;" width="10" x="376" y="1290.9922"/><rect fill="#DCDCDC" height="167.9453" style="stroke:#000000;stroke-width:1.0;" width="10" x="677" y="468.8984"/><rect fill="#DCDCDC" height="33.7891" style="stroke:#000000;stroke-width:1.0;" width="10" x="677" y="784.8359"/><rect fill="#DCDCDC" height="33.7891" style="stroke:#000000;stroke-width:1.0;" width="10" x="677" y="1324.7813"/><rect fill="#DCDCDC" height="33.7891" style="stroke:#000000;stroke-width:1.0;" width="10" x="901" y="569.2656"/><rect fill="#DCDCDC" height="687.9375" style="stroke:#000000;stroke-width:1.0;" width="10" x="1155" y="603.0547"/><polygon fill="#000000" points="364,154.5703,374,158.5703,364,162.5703,368,158.5703" style="stroke:#000000;stroke-width:1.0;"/><line style="stroke:#000000;stroke-width:1.0;" x1="132" x2="370" y1="158.5703" y2="158.5703"/><text fill="#000000" font-family="sans-serif" font-size="17" lengthAdjust="spacing" textLength="164" x="139" y="152.561">Matrix-Invite-Event</text><rect fill="#EEEEEE" height="3" style="stroke:#EEEEEE;stroke-width:1.0;" width="1720" x="0" y="213.8828"/><line style="stroke:#000000;stroke-width:1.0;" x1="0" x2="1720" y1="213.8828" y2="213.8828"/><line style="stroke:#000000;stroke-width:1.0;" x1="0" x2="1720" y1="216.8828" y2="216.8828"/><rect fill="#EEEEEE" height="26.625" style="stroke:#000000;stroke-width:2.0;" width="321" x="699.5" y="201.5703"/><text fill="#008000" font-family="sans-serif" font-size="16" font-weight="bold" lengthAdjust="spacing" textLength="285" x="717.5" y="220.4219">Berechtigungskonzept - Stufe 1</text><text fill="#000000" font-family="sans-serif" font-size="13" font-weight="bold" lengthAdjust="spacing" textLength="10" x="1002.5" y="221.1294">&#160;&#160;</text><path d="M10,270.1953 L98,270.1953 L98,277.3281 L88,287.3281 L10,287.3281 L10,270.1953 " fill="#EEEEEE" style="stroke:#000000;stroke-width:1.5;"/><rect fill="none" height="165.9141" style="stroke:#000000;stroke-width:1.5;" width="545" x="10" y="270.1953"/><text fill="#000000" font-family="sans-serif" font-size="13" font-weight="bold" lengthAdjust="spacing" textLength="43" x="25" y="283.2622">break</text><text fill="#000000" font-family="sans-serif" font-size="11" font-weight="bold" lengthAdjust="spacing" textLength="5" x="113" y="288.2261">[</text><text fill="#000000" font-family="sans-serif" font-size="16" font-weight="bold" lengthAdjust="spacing" textLength="427" x="118" y="287.0469">Matrix-Domain nicht in der F&#246;deration enthalten</text><text fill="#000000" font-family="sans-serif" font-size="11" font-weight="bold" lengthAdjust="spacing" textLength="5" x="545" y="288.2261">]</text><line style="stroke:#000000;stroke-width:1.0;" x1="386" x2="428" y1="356.3203" y2="356.3203"/><line style="stroke:#000000;stroke-width:1.0;" x1="428" x2="428" y1="356.3203" y2="369.3203"/><line style="stroke:#000000;stroke-width:1.0;" x1="387" x2="428" y1="369.3203" y2="369.3203"/><polygon fill="#000000" points="397,365.3203,387,369.3203,397,373.3203,393,369.3203" style="stroke:#000000;stroke-width:1.0;"/><text fill="#FF0000" font-family="sans-serif" font-size="17" lengthAdjust="spacing" textLength="73" x="393" y="310.7329">Abbruch,</text><text fill="#FF0000" font-family="sans-serif" font-size="17" lengthAdjust="spacing" textLength="138" x="393" y="330.522">Verbindung wird</text><text fill="#FF0000" font-family="sans-serif" font-size="17" lengthAdjust="spacing" textLength="84" x="393" y="350.311">abgelehnt</text><polygon fill="#000000" points="143,399.1094,133,403.1094,143,407.1094,139,403.1094" style="stroke:#000000;stroke-width:1.0;"/><line style="stroke:#000000;stroke-width:1.0;stroke-dasharray:2.0,2.0;" x1="137" x2="375" y1="403.1094" y2="403.1094"/><text fill="#000000" font-family="sans-serif" font-size="17" lengthAdjust="spacing" textLength="81" x="288" y="397.1001">HTTP 403</text><polygon fill="#000000" points="665,464.8984,675,468.8984,665,472.8984,669,468.8984" style="stroke:#000000;stroke-width:1.0;"/><line style="stroke:#000000;stroke-width:1.0;" x1="386" x2="671" y1="468.8984" y2="468.8984"/><text fill="#000000" font-family="sans-serif" font-size="17" lengthAdjust="spacing" textLength="142" x="393" y="462.8892">HTTP(S) Forward</text><line style="stroke:#000000;stroke-width:1.0;stroke-dasharray:2.0,2.0;" x1="687" x2="729" y1="522.4766" y2="522.4766"/><line style="stroke:#000000;stroke-width:1.0;stroke-dasharray:2.0,2.0;" x1="729" x2="729" y1="522.4766" y2="535.4766"/><line style="stroke:#000000;stroke-width:1.0;stroke-dasharray:2.0,2.0;" x1="688" x2="729" y1="535.4766" y2="535.4766"/><polygon fill="#000000" points="698,531.4766,688,535.4766,698,539.4766,694,535.4766" style="stroke:#000000;stroke-width:1.0;"/><text fill="#000000" font-family="sans-serif" font-size="17" lengthAdjust="spacing" textLength="104" x="694" y="496.6782">Invite-Event</text><text fill="#000000" font-family="sans-serif" font-size="17" lengthAdjust="spacing" textLength="97" x="694" y="516.4673">verarbeiten</text><polygon fill="#000000" points="889,565.2656,899,569.2656,889,573.2656,893,569.2656" style="stroke:#000000;stroke-width:1.0;"/><line style="stroke:#000000;stroke-width:1.0;" x1="687" x2="895" y1="569.2656" y2="569.2656"/><text fill="#000000" font-family="sans-serif" font-size="17" lengthAdjust="spacing" textLength="142" x="694" y="563.2563">Push Notification</text><polygon fill="#000000" points="1143,599.0547,1153,603.0547,1143,607.0547,1147,603.0547" style="stroke:#000000;stroke-width:1.0;"/><line style="stroke:#000000;stroke-width:1.0;" x1="906" x2="1149" y1="603.0547" y2="603.0547"/><text fill="#000000" font-family="sans-serif" font-size="17" lengthAdjust="spacing" textLength="142" x="913" y="597.0454">Push Notification</text><polygon fill="#000000" points="397,632.8438,387,636.8438,397,640.8438,393,636.8438" style="stroke:#000000;stroke-width:1.0;"/><line style="stroke:#000000;stroke-width:1.0;stroke-dasharray:2.0,2.0;" x1="391" x2="681" y1="636.8438" y2="636.8438"/><text fill="#000000" font-family="sans-serif" font-size="17" lengthAdjust="spacing" textLength="79" x="596" y="630.8345">Response</text><polygon fill="#000000" points="138,666.6328,128,670.6328,138,674.6328,134,670.6328" style="stroke:#000000;stroke-width:1.0;"/><line style="stroke:#000000;stroke-width:1.0;stroke-dasharray:2.0,2.0;" x1="132" x2="380" y1="670.6328" y2="670.6328"/><text fill="#000000" font-family="sans-serif" font-size="17" lengthAdjust="spacing" textLength="79" x="295" y="664.6235">Response</text><rect fill="#EEEEEE" height="3" style="stroke:#EEEEEE;stroke-width:1.0;" width="1720" x="0" y="700.9453"/><line style="stroke:#000000;stroke-width:1.0;" x1="0" x2="1720" y1="700.9453" y2="700.9453"/><line style="stroke:#000000;stroke-width:1.0;" x1="0" x2="1720" y1="703.9453" y2="703.9453"/><rect fill="#EEEEEE" height="26.625" style="stroke:#000000;stroke-width:2.0;" width="321" x="699.5" y="688.6328"/><text fill="#008000" font-family="sans-serif" font-size="16" font-weight="bold" lengthAdjust="spacing" textLength="285" x="717.5" y="707.4844">Berechtigungskonzept - Stufe 2</text><text fill="#000000" font-family="sans-serif" font-size="13" font-weight="bold" lengthAdjust="spacing" textLength="10" x="1002.5" y="708.1919">&#160;&#160;</text><polygon fill="#000000" points="397,747.0469,387,751.0469,397,755.0469,393,751.0469" style="stroke:#000000;stroke-width:1.0;"/><line style="stroke:#000000;stroke-width:1.0;" x1="391" x2="1154" y1="751.0469" y2="751.0469"/><text fill="#000000" font-family="sans-serif" font-size="17" lengthAdjust="spacing" textLength="180" x="968" y="745.0376">Abfrage neuer Events</text><polygon fill="#000000" points="665,780.8359,675,784.8359,665,788.8359,669,784.8359" style="stroke:#000000;stroke-width:1.0;"/><line style="stroke:#000000;stroke-width:1.0;" x1="386" x2="671" y1="784.8359" y2="784.8359"/><text fill="#000000" font-family="sans-serif" font-size="17" lengthAdjust="spacing" textLength="142" x="393" y="778.8267">HTTP(S) Forward</text><polygon fill="#000000" points="397,814.625,387,818.625,397,822.625,393,818.625" style="stroke:#000000;stroke-width:1.0;"/><line style="stroke:#000000;stroke-width:1.0;stroke-dasharray:2.0,2.0;" x1="391" x2="681" y1="818.625" y2="818.625"/><text fill="#000000" font-family="sans-serif" font-size="17" lengthAdjust="spacing" textLength="234" x="441" y="812.6157">Bereitstellung neuer Events</text><polygon fill="#000000" points="1143,848.4141,1153,852.4141,1143,856.4141,1147,852.4141" style="stroke:#000000;stroke-width:1.0;"/><line style="stroke:#000000;stroke-width:1.0;stroke-dasharray:2.0,2.0;" x1="381" x2="1149" y1="852.4141" y2="852.4141"/><text fill="#000000" font-family="sans-serif" font-size="17" lengthAdjust="spacing" textLength="142" x="388" y="846.4048">HTTP(S) Forward</text><line style="stroke:#000000;stroke-width:1.0;" x1="1165" x2="1207" y1="886.2031" y2="886.2031"/><line style="stroke:#000000;stroke-width:1.0;" x1="1207" x2="1207" y1="886.2031" y2="899.2031"/><line style="stroke:#000000;stroke-width:1.0;" x1="1166" x2="1207" y1="899.2031" y2="899.2031"/><polygon fill="#000000" points="1176,895.2031,1166,899.2031,1176,903.2031,1172,899.2031" style="stroke:#000000;stroke-width:1.0;"/><text fill="#000000" font-family="sans-serif" font-size="17" lengthAdjust="spacing" textLength="248" x="1172" y="880.1938">Extrahieren der Invite-Events</text><line style="stroke:#000000;stroke-width:1.0;" x1="1165" x2="1207" y1="932.9922" y2="932.9922"/><line style="stroke:#000000;stroke-width:1.0;" x1="1207" x2="1207" y1="932.9922" y2="945.9922"/><line style="stroke:#000000;stroke-width:1.0;" x1="1166" x2="1207" y1="945.9922" y2="945.9922"/><polygon fill="#000000" points="1176,941.9922,1166,945.9922,1176,949.9922,1172,945.9922" style="stroke:#000000;stroke-width:1.0;"/><text fill="#000000" font-family="sans-serif" font-size="17" lengthAdjust="spacing" textLength="305" x="1172" y="926.9829">Pr&#252;fung, ob die Einladung erlaubt ist</text><path d="M1043,960.9922 L1107,960.9922 L1107,968.125 L1097,978.125 L1043,978.125 L1043,960.9922 " fill="#EEEEEE" style="stroke:#000000;stroke-width:1.5;"/><rect fill="none" height="272.2109" style="stroke:#000000;stroke-width:1.5;" width="667" x="1043" y="960.9922"/><text fill="#000000" font-family="sans-serif" font-size="13" font-weight="bold" lengthAdjust="spacing" textLength="19" x="1058" y="974.0591">alt</text><text fill="#000000" font-family="sans-serif" font-size="11" font-weight="bold" lengthAdjust="spacing" textLength="5" x="1122" y="979.0229">[</text><text fill="#000000" font-family="sans-serif" font-size="16" font-weight="bold" lengthAdjust="spacing" textLength="578" x="1127" y="977.8438">Der Akteur hat "allow all" konfiguriert und der einladende Akteur</text><text fill="#000000" font-family="sans-serif" font-size="16" font-weight="bold" lengthAdjust="spacing" textLength="569" x="1128" y="996.4688">ist auf der BlockedUser-Liste (Direkt oder als Teil einer Gruppe)</text><text fill="#000000" font-family="sans-serif" font-size="11" font-weight="bold" lengthAdjust="spacing" textLength="5" x="1697" y="997.6479">]</text><line style="stroke:#000000;stroke-width:1.0;" x1="1165" x2="1207" y1="1051.1641" y2="1051.1641"/><line style="stroke:#000000;stroke-width:1.0;" x1="1207" x2="1207" y1="1051.1641" y2="1064.1641"/><line style="stroke:#000000;stroke-width:1.0;" x1="1166" x2="1207" y1="1064.1641" y2="1064.1641"/><polygon fill="#000000" points="1176,1060.1641,1166,1064.1641,1176,1068.1641,1172,1064.1641" style="stroke:#000000;stroke-width:1.0;"/><text fill="#FF0000" font-family="sans-serif" font-size="17" lengthAdjust="spacing" textLength="211" x="1172" y="1045.1548">Einladung ist abzulehnen</text><line style="stroke:#000000;stroke-width:1.0;stroke-dasharray:2.0,2.0;" x1="1043" x2="1710" y1="1098.1641" y2="1098.1641"/><text fill="#000000" font-family="sans-serif" font-size="11" font-weight="bold" lengthAdjust="spacing" textLength="5" x="1048" y="1114.1948">[</text><text fill="#000000" font-family="sans-serif" font-size="16" font-weight="bold" lengthAdjust="spacing" textLength="581" x="1053" y="1113.0156">Der Akteur hat "block all" konfiguriert und der einladende Akteur</text><text fill="#000000" font-family="sans-serif" font-size="16" font-weight="bold" lengthAdjust="spacing" textLength="617" x="1054" y="1131.6406">ist nicht auf der AllowedUser-Liste (Direkt oder als Teil einer Gruppe)</text><text fill="#000000" font-family="sans-serif" font-size="11" font-weight="bold" lengthAdjust="spacing" textLength="5" x="1671" y="1132.8198">]</text><line style="stroke:#000000;stroke-width:1.0;" x1="1165" x2="1207" y1="1187.2031" y2="1187.2031"/><line style="stroke:#000000;stroke-width:1.0;" x1="1207" x2="1207" y1="1187.2031" y2="1200.2031"/><line style="stroke:#000000;stroke-width:1.0;" x1="1166" x2="1207" y1="1200.2031" y2="1200.2031"/><polygon fill="#000000" points="1176,1196.2031,1166,1200.2031,1176,1204.2031,1172,1200.2031" style="stroke:#000000;stroke-width:1.0;"/><text fill="#FF0000" font-family="sans-serif" font-size="17" lengthAdjust="spacing" textLength="211" x="1172" y="1181.1938">Einladung ist abzulehnen</text><polygon fill="#000000" points="397,1286.9922,387,1290.9922,397,1294.9922,393,1290.9922" style="stroke:#000000;stroke-width:1.0;"/><line style="stroke:#000000;stroke-width:1.0;stroke-dasharray:2.0,2.0;" x1="391" x2="1159" y1="1290.9922" y2="1290.9922"/><text fill="#000000" font-family="sans-serif" font-size="17" lengthAdjust="spacing" textLength="267" x="886" y="1284.9829">Ergebnis der Einladungspr&#252;fung</text><polygon fill="#000000" points="665,1320.7813,675,1324.7813,665,1328.7813,669,1324.7813" style="stroke:#000000;stroke-width:1.0;"/><line style="stroke:#000000;stroke-width:1.0;" x1="386" x2="671" y1="1324.7813" y2="1324.7813"/><text fill="#000000" font-family="sans-serif" font-size="17" lengthAdjust="spacing" textLength="142" x="393" y="1318.772">HTTP(S) Forward</text><polygon fill="#000000" points="397,1354.5703,387,1358.5703,397,1362.5703,393,1358.5703" style="stroke:#000000;stroke-width:1.0;"/><line style="stroke:#000000;stroke-width:1.0;stroke-dasharray:2.0,2.0;" x1="391" x2="681" y1="1358.5703" y2="1358.5703"/><text fill="#000000" font-family="sans-serif" font-size="17" lengthAdjust="spacing" textLength="267" x="408" y="1352.561">Ergebnis der Einladungspr&#252;fung</text><polygon fill="#000000" points="138,1388.3594,128,1392.3594,138,1396.3594,134,1392.3594" style="stroke:#000000;stroke-width:1.0;"/><line style="stroke:#000000;stroke-width:1.0;stroke-dasharray:2.0,2.0;" x1="132" x2="380" y1="1392.3594" y2="1392.3594"/><text fill="#000000" font-family="sans-serif" font-size="17" lengthAdjust="spacing" textLength="142" x="232" y="1386.3501">HTTP(S) Forward</text><!--SRC=[pLPDSzf84BthLtIHIr895PjaTrCkGnLW6rnb79N59XTVHb9BcaBCA3CZctYzVsjFUyiVsnuXz6N8vkEI4wBdyTxhdkuMUiL5nXHRWyPFEOe05wWrYt6SybX0o1K6XalXw0guvcAQCgq_yj0aC3WwQfnDvCPbOSX53CU_DU8xyXkCKDc7ER8GrOG5grZ9N8HJcKe56KinLeWa5z0ZhDc61Dw-WtkhvUmXXBySWB5IydxBuAT4kGjTI64y_e1m_8SD1KQgYLIasyPUyGYlkC2lddMSpXWNsfTAEWHocJ8yu1aJficna8RViQ9wRKo7gu5h0ol_WwEd1ssV1onCzXntrTylBp-CbvVlhvsgI0UJBG5FzQjmxRSANRCrmfXbk77-TdovWLDDe9FZToFRQoXYL7qFrHqFy5Q4g06vIAazw5d0U6KmL_fMmBEF2JVehUKAdQpE1nOUC0sz9rmzXnY0zBvLCyP2zTj4tK57zLQuIcu-zzgmUGbZHl4DOUPoZPfqKRM1xgp0kRbE27N6KMZpVmd0D2MS-J7_qwx_BLcjkV3w8yhofBH-AUw8g7z-Ho271KN7eYr3uuldF3u-EiCXd4PqxH3O3XaMypmgtVy-0fZG1WWIm-DSn7ebnGDc1lhWcJoYIJrzRP6ZqzUMWj33OK7gAsGhUBRWsdo-aHgX8YpzdSarTIa8JjH03pG2SF7b7_ee9Wl8Ti9IWw8Ke0ObyziKctOLXgEnxwiyI5x1hUWUVK3bSn6ITTf9Ajo3O3xT0oR2b2cKGgJadS1ykNJXxT4R2jgiW6o5JcLbFjWYddilu4AgUwP2EglhEnzOwBmWizZcdP0JQYgcVAIGA74ZT_RovGdOhe9hsZ8H3wfzD2EIAL7jFwv5fmrHgXNSeCwaq4ZH4BlUgaGFeDn19-0vFzSlWptz0jPqwNRiHuhUPY0mfuOeAgLRwRc37og_vRR6kD46qzJsGqVYK76cUrKwHQfoiEZpZL4iuVR5MRHryzfr2-cgB_z6vEKLI9_UtGZdnIQrxb2bBFTfDBInx3GAUwVfZFYtsmCIPg37qbJU4phj0PK-eajGPCG0lHiAB_MgBdz60r5T7T43owC2E4bbiCBmJrf-_IiwG7X-HdykLWQaFMQfXYNor1BIrvdAimnVrBEwcvT6jjt1gtCjTFs7t8wX7VZT75P3btujPTyw_PcKjpjeb_ZOLl1NITnkcsAV5gE_RUDp5QClk2xSLbmwAtl9QRRcTD3U_OS7fzNyZQ7v7hNvLg1UdKs1piHGKly1]--></g></svg>