<?xml version="1.0" encoding="us-ascii" standalone="no"?><svg xmlns="http://www.w3.org/2000/svg" xmlns:xlink="http://www.w3.org/1999/xlink" contentStyleType="text/css" height="1677px" preserveAspectRatio="none" style="width:1949px;height:1677px;background:#FFFFFF;" version="1.1" viewBox="0 0 1949 1677" width="1949px" zoomAndPan="magnify"><defs/><g><rect fill="#F5F5F5" height="1665.1953" style="stroke:#181818;stroke-width:0.5;" width="372" x="16" y="6"/><text fill="#000000" font-family="sans-serif" font-size="18" font-weight="bold" lengthAdjust="spacing" textLength="366" x="19" y="22.708">Messenger-Service des Einladenden</text><text fill="#000000" font-family="sans-serif" font-size="13" font-weight="bold" lengthAdjust="spacing" textLength="5" x="19" y="39.02">&#160;</text><rect fill="#F5F5F5" height="1665.1953" style="stroke:#181818;stroke-width:0.5;" width="747" x="420" y="6"/><text fill="#000000" font-family="sans-serif" font-size="18" font-weight="bold" lengthAdjust="spacing" textLength="378" x="604.5" y="22.708">Messenger-Service des Eingeladenen</text><text fill="#000000" font-family="sans-serif" font-size="13" font-weight="bold" lengthAdjust="spacing" textLength="5" x="604.5" y="39.02">&#160;</text><rect fill="#F5F5F5" height="1665.1953" style="stroke:#181818;stroke-width:0.5;" width="367" x="1199" y="6"/><text fill="#000000" font-family="sans-serif" font-size="18" font-weight="bold" lengthAdjust="spacing" textLength="361" x="1202" y="22.708">Messenger Client des Eingeladenen</text><text fill="#000000" font-family="sans-serif" font-size="13" font-weight="bold" lengthAdjust="spacing" textLength="5" x="1202" y="39.02">&#160;</text><rect fill="#DCDCDC" height="691.4688" style="stroke:#000000;stroke-width:1.0;" width="10" x="197" y="143.4375"/><rect fill="#DCDCDC" height="691.4688" style="stroke:#000000;stroke-width:1.0;" width="10" x="526" y="143.4375"/><rect fill="#DCDCDC" height="101.3672" style="stroke:#000000;stroke-width:1.0;" width="10" x="526" y="915.3203"/><rect fill="#DCDCDC" height="101.3672" style="stroke:#000000;stroke-width:1.0;" width="10" x="526" y="1462.2656"/><rect fill="#DCDCDC" height="167.9453" style="stroke:#000000;stroke-width:1.0;" width="10" x="827" y="633.1719"/><rect fill="#DCDCDC" height="33.7891" style="stroke:#000000;stroke-width:1.0;" width="10" x="827" y="949.1094"/><rect fill="#DCDCDC" height="33.7891" style="stroke:#000000;stroke-width:1.0;" width="10" x="827" y="1496.0547"/><rect fill="#DCDCDC" height="33.7891" style="stroke:#000000;stroke-width:1.0;" width="10" x="1051" y="733.5391"/><rect fill="#DCDCDC" height="694.9375" style="stroke:#000000;stroke-width:1.0;" width="10" x="1377.5" y="767.3281"/><rect fill="#ADD8E6" height="1149.4141" style="stroke:#000000;stroke-width:1.5;" width="1847.5" x="85" y="255.0625"/><rect fill="#ADD8E6" height="165.7813" style="stroke:none;stroke-width:1.0;" width="1847.5" x="85" y="420.9766"/><rect fill="#ADD8E6" height="817.7188" style="stroke:none;stroke-width:1.0;" width="1847.5" x="85" y="586.7578"/><rect fill="#EFEFFF" height="272.2109" style="stroke:#000000;stroke-width:1.5;" width="657" x="1265.5" y="1125.2656"/><rect fill="#EFEFFF" height="136.0391" style="stroke:none;stroke-width:1.0;" width="657" x="1265.5" y="1261.4375"/><line style="stroke:#000000;stroke-width:0.5;stroke-dasharray:5.0,5.0;" x1="202" x2="202" y1="107.6484" y2="1606.6328"/><line style="stroke:#000000;stroke-width:0.5;stroke-dasharray:5.0,5.0;" x1="531" x2="531" y1="107.6484" y2="1606.6328"/><line style="stroke:#000000;stroke-width:0.5;stroke-dasharray:5.0,5.0;" x1="832" x2="832" y1="107.6484" y2="1606.6328"/><line style="stroke:#000000;stroke-width:0.5;stroke-dasharray:5.0,5.0;" x1="1056" x2="1056" y1="107.6484" y2="1606.6328"/><line style="stroke:#000000;stroke-width:0.5;stroke-dasharray:5.0,5.0;" x1="1382.5" x2="1382.5" y1="107.6484" y2="1606.6328"/><rect fill="#EFEFFF" height="37.2813" rx="2.5" ry="2.5" style="stroke:#000000;stroke-width:0.5;" width="214" x="95" y="69.3672"/><text fill="#000000" font-family="Impact" font-size="20" lengthAdjust="spacing" textLength="187" x="108.5" y="94.9316">Messenger-Service</text><rect fill="#EFEFFF" height="37.2813" rx="2.5" ry="2.5" style="stroke:#000000;stroke-width:0.5;" width="214" x="95" y="1605.6328"/><text fill="#000000" font-family="Impact" font-size="20" lengthAdjust="spacing" textLength="187" x="108.5" y="1631.1973">Messenger-Service</text><rect fill="#EFEFFF" height="60.5625" rx="2.5" ry="2.5" style="stroke:#000000;stroke-width:0.5;" width="214" x="424" y="46.0859"/><text fill="#000000" font-family="Impact" font-size="20" lengthAdjust="spacing" textLength="114" x="474" y="71.6504">Messenger-</text><text fill="#000000" font-family="Impact" font-size="20" lengthAdjust="spacing" textLength="54" x="504" y="94.9316">Proxy</text><rect fill="#EFEFFF" height="60.5625" rx="2.5" ry="2.5" style="stroke:#000000;stroke-width:0.5;" width="214" x="424" y="1605.6328"/><text fill="#000000" font-family="Impact" font-size="20" lengthAdjust="spacing" textLength="114" x="474" y="1631.1973">Messenger-</text><text fill="#000000" font-family="Impact" font-size="20" lengthAdjust="spacing" textLength="54" x="504" y="1654.4785">Proxy</text><rect fill="#EFEFFF" height="60.5625" rx="2.5" ry="2.5" style="stroke:#000000;stroke-width:0.5;" width="214" x="725" y="46.0859"/><text fill="#000000" font-family="Impact" font-size="20" lengthAdjust="spacing" textLength="69" x="797.5" y="71.6504">Matrix-</text><text fill="#000000" font-family="Impact" font-size="20" lengthAdjust="spacing" textLength="120" x="772" y="94.9316">Homeserver</text><rect fill="#EFEFFF" height="60.5625" rx="2.5" ry="2.5" style="stroke:#000000;stroke-width:0.5;" width="214" x="725" y="1605.6328"/><text fill="#000000" font-family="Impact" font-size="20" lengthAdjust="spacing" textLength="69" x="797.5" y="1631.1973">Matrix-</text><text fill="#000000" font-family="Impact" font-size="20" lengthAdjust="spacing" textLength="120" x="772" y="1654.4785">Homeserver</text><rect fill="#EFEFFF" height="60.5625" rx="2.5" ry="2.5" style="stroke:#000000;stroke-width:0.5;" width="214" x="949" y="46.0859"/><text fill="#000000" font-family="Impact" font-size="20" lengthAdjust="spacing" textLength="55" x="1028.5" y="71.6504">Push-</text><text fill="#000000" font-family="Impact" font-size="20" lengthAdjust="spacing" textLength="64" x="1024" y="94.9316">Dienst</text><rect fill="#EFEFFF" height="60.5625" rx="2.5" ry="2.5" style="stroke:#000000;stroke-width:0.5;" width="214" x="949" y="1605.6328"/><text fill="#000000" font-family="Impact" font-size="20" lengthAdjust="spacing" textLength="55" x="1028.5" y="1631.1973">Push-</text><text fill="#000000" font-family="Impact" font-size="20" lengthAdjust="spacing" textLength="64" x="1024" y="1654.4785">Dienst</text><rect fill="#EFEFFF" height="37.2813" rx="2.5" ry="2.5" style="stroke:#000000;stroke-width:0.5;" width="214" x="1275.5" y="69.3672"/><text fill="#000000" font-family="Impact" font-size="20" lengthAdjust="spacing" textLength="173" x="1296" y="94.9316">Messenger-Client</text><rect fill="#EFEFFF" height="37.2813" rx="2.5" ry="2.5" style="stroke:#000000;stroke-width:0.5;" width="214" x="1275.5" y="1605.6328"/><text fill="#000000" font-family="Impact" font-size="20" lengthAdjust="spacing" textLength="173" x="1296" y="1631.1973">Messenger-Client</text><rect fill="#DCDCDC" height="691.4688" style="stroke:#000000;stroke-width:1.0;" width="10" x="197" y="143.4375"/><rect fill="#DCDCDC" height="691.4688" style="stroke:#000000;stroke-width:1.0;" width="10" x="526" y="143.4375"/><rect fill="#DCDCDC" height="101.3672" style="stroke:#000000;stroke-width:1.0;" width="10" x="526" y="915.3203"/><rect fill="#DCDCDC" height="101.3672" style="stroke:#000000;stroke-width:1.0;" width="10" x="526" y="1462.2656"/><rect fill="#DCDCDC" height="167.9453" style="stroke:#000000;stroke-width:1.0;" width="10" x="827" y="633.1719"/><rect fill="#DCDCDC" height="33.7891" style="stroke:#000000;stroke-width:1.0;" width="10" x="827" y="949.1094"/><rect fill="#DCDCDC" height="33.7891" style="stroke:#000000;stroke-width:1.0;" width="10" x="827" y="1496.0547"/><rect fill="#DCDCDC" height="33.7891" style="stroke:#000000;stroke-width:1.0;" width="10" x="1051" y="733.5391"/><rect fill="#DCDCDC" height="694.9375" style="stroke:#000000;stroke-width:1.0;" width="10" x="1377.5" y="767.3281"/><polygon fill="#000000" points="514,139.4375,524,143.4375,514,147.4375,518,143.4375" style="stroke:#000000;stroke-width:1.0;"/><line style="stroke:#000000;stroke-width:1.0;" x1="207" x2="520" y1="143.4375" y2="143.4375"/><text fill="#000000" font-family="sans-serif" font-size="17" lengthAdjust="spacing" textLength="164" x="214" y="137.4282">Matrix-Invite-Event</text><rect fill="#EEEEEE" height="3" style="stroke:#EEEEEE;stroke-width:1.0;" width="1942.5" x="0" y="198.75"/><line style="stroke:#000000;stroke-width:1.0;" x1="0" x2="1942.5" y1="198.75" y2="198.75"/><line style="stroke:#000000;stroke-width:1.0;" x1="0" x2="1942.5" y1="201.75" y2="201.75"/><rect fill="#EEEEEE" height="26.625" style="stroke:#000000;stroke-width:2.0;" width="321" x="810.75" y="186.4375"/><text fill="#008000" font-family="sans-serif" font-size="16" font-weight="bold" lengthAdjust="spacing" textLength="285" x="828.75" y="205.2891">Berechtigungskonzept - Stufe 1</text><text fill="#000000" font-family="sans-serif" font-size="13" font-weight="bold" lengthAdjust="spacing" textLength="10" x="1113.75" y="205.9966">&#160;&#160;</text><path d="M85,255.0625 L149,255.0625 L149,262.1953 L139,272.1953 L85,272.1953 L85,255.0625 " fill="#D3D3D3" style="stroke:#000000;stroke-width:1.5;"/><rect fill="none" height="1149.4141" style="stroke:#000000;stroke-width:1.5;" width="1847.5" x="85" y="255.0625"/><text fill="#000000" font-family="sans-serif" font-size="13" font-weight="bold" lengthAdjust="spacing" textLength="19" x="100" y="268.1294">alt</text><text fill="#000000" font-family="sans-serif" font-size="11" font-weight="bold" lengthAdjust="spacing" textLength="5" x="164" y="273.0933">[</text><text fill="#000000" font-family="sans-serif" font-size="16" font-weight="bold" lengthAdjust="spacing" textLength="427" x="169" y="271.9141">Matrix-Domain nicht in der F&#246;deration enthalten</text><text fill="#000000" font-family="sans-serif" font-size="11" font-weight="bold" lengthAdjust="spacing" textLength="5" x="596" y="273.0933">]</text><line style="stroke:#000000;stroke-width:1.0;" x1="536" x2="578" y1="341.1875" y2="341.1875"/><line style="stroke:#000000;stroke-width:1.0;" x1="578" x2="578" y1="341.1875" y2="354.1875"/><line style="stroke:#000000;stroke-width:1.0;" x1="537" x2="578" y1="354.1875" y2="354.1875"/><polygon fill="#000000" points="547,350.1875,537,354.1875,547,358.1875,543,354.1875" style="stroke:#000000;stroke-width:1.0;"/><text fill="#FF0000" font-family="sans-serif" font-size="17" lengthAdjust="spacing" textLength="73" x="543" y="295.6001">Abbruch,</text><text fill="#FF0000" font-family="sans-serif" font-size="17" lengthAdjust="spacing" textLength="138" x="543" y="315.3892">Verbindung wird</text><text fill="#FF0000" font-family="sans-serif" font-size="17" lengthAdjust="spacing" textLength="84" x="543" y="335.1782">abgelehnt</text><polygon fill="#000000" points="218,383.9766,208,387.9766,218,391.9766,214,387.9766" style="stroke:#000000;stroke-width:1.0;"/><line style="stroke:#000000;stroke-width:1.0;" x1="212" x2="525" y1="387.9766" y2="387.9766"/><text fill="#000000" font-family="sans-serif" font-size="17" lengthAdjust="spacing" textLength="108" x="411" y="381.9673">HTTP ERROR</text><line style="stroke:#000000;stroke-width:1.0;stroke-dasharray:2.0,2.0;" x1="85" x2="1932.5" y1="421.9766" y2="421.9766"/><text fill="#000000" font-family="sans-serif" font-size="11" font-weight="bold" lengthAdjust="spacing" textLength="5" x="90" y="438.0073">[</text><text fill="#000000" font-family="sans-serif" font-size="16" font-weight="bold" lengthAdjust="spacing" textLength="494" x="95" y="436.8281">Einladender und der Eingeladene sind beide Versicherte</text><text fill="#000000" font-family="sans-serif" font-size="11" font-weight="bold" lengthAdjust="spacing" textLength="5" x="589" y="438.0073">]</text><line style="stroke:#000000;stroke-width:1.0;" x1="536" x2="578" y1="506.9688" y2="506.9688"/><line style="stroke:#000000;stroke-width:1.0;" x1="578" x2="578" y1="506.9688" y2="519.9688"/><line style="stroke:#000000;stroke-width:1.0;" x1="537" x2="578" y1="519.9688" y2="519.9688"/><polygon fill="#000000" points="547,515.9688,537,519.9688,547,523.9688,543,519.9688" style="stroke:#000000;stroke-width:1.0;"/><text fill="#FF0000" font-family="sans-serif" font-size="17" lengthAdjust="spacing" textLength="73" x="543" y="461.3813">Abbruch,</text><text fill="#FF0000" font-family="sans-serif" font-size="17" lengthAdjust="spacing" textLength="138" x="543" y="481.1704">Verbindung wird</text><text fill="#FF0000" font-family="sans-serif" font-size="17" lengthAdjust="spacing" textLength="84" x="543" y="500.9595">abgelehnt</text><polygon fill="#000000" points="218,549.7578,208,553.7578,218,557.7578,214,553.7578" style="stroke:#000000;stroke-width:1.0;"/><line style="stroke:#000000;stroke-width:1.0;" x1="212" x2="525" y1="553.7578" y2="553.7578"/><text fill="#000000" font-family="sans-serif" font-size="17" lengthAdjust="spacing" textLength="108" x="411" y="547.7485">HTTP ERROR</text><line style="stroke:#000000;stroke-width:1.0;stroke-dasharray:2.0,2.0;" x1="85" x2="1932.5" y1="587.7578" y2="587.7578"/><text fill="#000000" font-family="sans-serif" font-size="11" font-weight="bold" lengthAdjust="spacing" textLength="5" x="90" y="603.7886">[</text><text fill="#000000" font-family="sans-serif" font-size="16" font-weight="bold" lengthAdjust="spacing" textLength="748" x="95" y="602.6094">Beide Teilnehmer sind Teil der F&#246;deration und nur maximal einer ist ein Versicherter</text><text fill="#000000" font-family="sans-serif" font-size="11" font-weight="bold" lengthAdjust="spacing" textLength="5" x="843" y="603.7886">]</text><polygon fill="#000000" points="815,629.1719,825,633.1719,815,637.1719,819,633.1719" style="stroke:#000000;stroke-width:1.0;"/><line style="stroke:#000000;stroke-width:1.0;" x1="536" x2="821" y1="633.1719" y2="633.1719"/><text fill="#000000" font-family="sans-serif" font-size="17" lengthAdjust="spacing" textLength="142" x="543" y="627.1626">HTTP(S) Forward</text><line style="stroke:#000000;stroke-width:1.0;stroke-dasharray:2.0,2.0;" x1="837" x2="879" y1="686.75" y2="686.75"/><line style="stroke:#000000;stroke-width:1.0;stroke-dasharray:2.0,2.0;" x1="879" x2="879" y1="686.75" y2="699.75"/><line style="stroke:#000000;stroke-width:1.0;stroke-dasharray:2.0,2.0;" x1="838" x2="879" y1="699.75" y2="699.75"/><polygon fill="#000000" points="848,695.75,838,699.75,848,703.75,844,699.75" style="stroke:#000000;stroke-width:1.0;"/><text fill="#000000" font-family="sans-serif" font-size="17" lengthAdjust="spacing" textLength="104" x="844" y="660.9517">Invite-Event</text><text fill="#000000" font-family="sans-serif" font-size="17" lengthAdjust="spacing" textLength="97" x="844" y="680.7407">verarbeiten</text><polygon fill="#000000" points="1039,729.5391,1049,733.5391,1039,737.5391,1043,733.5391" style="stroke:#000000;stroke-width:1.0;"/><line style="stroke:#000000;stroke-width:1.0;" x1="837" x2="1045" y1="733.5391" y2="733.5391"/><text fill="#000000" font-family="sans-serif" font-size="17" lengthAdjust="spacing" textLength="142" x="844" y="727.5298">Push Notification</text><polygon fill="#000000" points="1365.5,763.3281,1375.5,767.3281,1365.5,771.3281,1369.5,767.3281" style="stroke:#000000;stroke-width:1.0;"/><line style="stroke:#000000;stroke-width:1.0;" x1="1056" x2="1371.5" y1="767.3281" y2="767.3281"/><text fill="#000000" font-family="sans-serif" font-size="17" lengthAdjust="spacing" textLength="142" x="1063" y="761.3188">Push Notification</text><polygon fill="#000000" points="547,797.1172,537,801.1172,547,805.1172,543,801.1172" style="stroke:#000000;stroke-width:1.0;"/><line style="stroke:#000000;stroke-width:1.0;stroke-dasharray:2.0,2.0;" x1="541" x2="831" y1="801.1172" y2="801.1172"/><text fill="#000000" font-family="sans-serif" font-size="17" lengthAdjust="spacing" textLength="79" x="746" y="795.1079">Response</text><polygon fill="#000000" points="213,830.9063,203,834.9063,213,838.9063,209,834.9063" style="stroke:#000000;stroke-width:1.0;"/><line style="stroke:#000000;stroke-width:1.0;stroke-dasharray:2.0,2.0;" x1="207" x2="530" y1="834.9063" y2="834.9063"/><text fill="#000000" font-family="sans-serif" font-size="17" lengthAdjust="spacing" textLength="79" x="445" y="828.897">Response</text><rect fill="#EEEEEE" height="3" style="stroke:#EEEEEE;stroke-width:1.0;" width="1942.5" x="0" y="865.2188"/><line style="stroke:#000000;stroke-width:1.0;" x1="0" x2="1942.5" y1="865.2188" y2="865.2188"/><line style="stroke:#000000;stroke-width:1.0;" x1="0" x2="1942.5" y1="868.2188" y2="868.2188"/><rect fill="#EEEEEE" height="26.625" style="stroke:#000000;stroke-width:2.0;" width="321" x="810.75" y="852.9063"/><text fill="#008000" font-family="sans-serif" font-size="16" font-weight="bold" lengthAdjust="spacing" textLength="285" x="828.75" y="871.7578">Berechtigungskonzept - Stufe 2</text><text fill="#000000" font-family="sans-serif" font-size="13" font-weight="bold" lengthAdjust="spacing" textLength="10" x="1113.75" y="872.4653">&#160;&#160;</text><polygon fill="#000000" points="547,911.3203,537,915.3203,547,919.3203,543,915.3203" style="stroke:#000000;stroke-width:1.0;"/><line style="stroke:#000000;stroke-width:1.0;" x1="541" x2="1376.5" y1="915.3203" y2="915.3203"/><text fill="#000000" font-family="sans-serif" font-size="17" lengthAdjust="spacing" textLength="180" x="1190.5" y="909.311">Abfrage neuer Events</text><polygon fill="#000000" points="815,945.1094,825,949.1094,815,953.1094,819,949.1094" style="stroke:#000000;stroke-width:1.0;"/><line style="stroke:#000000;stroke-width:1.0;" x1="536" x2="821" y1="949.1094" y2="949.1094"/><text fill="#000000" font-family="sans-serif" font-size="17" lengthAdjust="spacing" textLength="142" x="543" y="943.1001">HTTP(S) Forward</text><polygon fill="#000000" points="547,978.8984,537,982.8984,547,986.8984,543,982.8984" style="stroke:#000000;stroke-width:1.0;"/><line style="stroke:#000000;stroke-width:1.0;stroke-dasharray:2.0,2.0;" x1="541" x2="831" y1="982.8984" y2="982.8984"/><text fill="#000000" font-family="sans-serif" font-size="17" lengthAdjust="spacing" textLength="234" x="591" y="976.8892">Bereitstellung neuer Events</text><polygon fill="#000000" points="1365.5,1012.6875,1375.5,1016.6875,1365.5,1020.6875,1369.5,1016.6875" style="stroke:#000000;stroke-width:1.0;"/><line style="stroke:#000000;stroke-width:1.0;stroke-dasharray:2.0,2.0;" x1="531" x2="1371.5" y1="1016.6875" y2="1016.6875"/><text fill="#000000" font-family="sans-serif" font-size="17" lengthAdjust="spacing" textLength="142" x="538" y="1010.6782">HTTP(S) Forward</text><line style="stroke:#000000;stroke-width:1.0;" x1="1387.5" x2="1429.5" y1="1050.4766" y2="1050.4766"/><line style="stroke:#000000;stroke-width:1.0;" x1="1429.5" x2="1429.5" y1="1050.4766" y2="1063.4766"/><line style="stroke:#000000;stroke-width:1.0;" x1="1388.5" x2="1429.5" y1="1063.4766" y2="1063.4766"/><polygon fill="#000000" points="1398.5,1059.4766,1388.5,1063.4766,1398.5,1067.4766,1394.5,1063.4766" style="stroke:#000000;stroke-width:1.0;"/><text fill="#000000" font-family="sans-serif" font-size="17" lengthAdjust="spacing" textLength="248" x="1394.5" y="1044.4673">Extrahieren der Invite-Events</text><line style="stroke:#000000;stroke-width:1.0;" x1="1387.5" x2="1429.5" y1="1097.2656" y2="1097.2656"/><line style="stroke:#000000;stroke-width:1.0;" x1="1429.5" x2="1429.5" y1="1097.2656" y2="1110.2656"/><line style="stroke:#000000;stroke-width:1.0;" x1="1388.5" x2="1429.5" y1="1110.2656" y2="1110.2656"/><polygon fill="#000000" points="1398.5,1106.2656,1388.5,1110.2656,1398.5,1114.2656,1394.5,1110.2656" style="stroke:#000000;stroke-width:1.0;"/><text fill="#000000" font-family="sans-serif" font-size="17" lengthAdjust="spacing" textLength="305" x="1394.5" y="1091.2563">Pr&#252;fung, ob die Einladung erlaubt ist</text><path d="M1265.5,1125.2656 L1329.5,1125.2656 L1329.5,1132.3984 L1319.5,1142.3984 L1265.5,1142.3984 L1265.5,1125.2656 " fill="#D3D3D3" style="stroke:#000000;stroke-width:1.5;"/><rect fill="none" height="272.2109" style="stroke:#000000;stroke-width:1.5;" width="657" x="1265.5" y="1125.2656"/><text fill="#000000" font-family="sans-serif" font-size="13" font-weight="bold" lengthAdjust="spacing" textLength="19" x="1280.5" y="1138.3325">alt</text><text fill="#000000" font-family="sans-serif" font-size="11" font-weight="bold" lengthAdjust="spacing" textLength="5" x="1344.5" y="1143.2964">[</text><text fill="#000000" font-family="sans-serif" font-size="16" font-weight="bold" lengthAdjust="spacing" textLength="539" x="1349.5" y="1142.1172">Der Anwender hat "allow all" konfiguriert und der Einladende</text><text fill="#000000" font-family="sans-serif" font-size="16" font-weight="bold" lengthAdjust="spacing" textLength="562" x="1350.5" y="1160.7422">ist auf der IgnoredUser-Liste(Direkt oder als Teil einer Gruppe)</text><text fill="#000000" font-family="sans-serif" font-size="11" font-weight="bold" lengthAdjust="spacing" textLength="5" x="1912.5" y="1161.9214">]</text><line style="stroke:#000000;stroke-width:1.0;" x1="1387.5" x2="1429.5" y1="1215.4375" y2="1215.4375"/><line style="stroke:#000000;stroke-width:1.0;" x1="1429.5" x2="1429.5" y1="1215.4375" y2="1228.4375"/><line style="stroke:#000000;stroke-width:1.0;" x1="1388.5" x2="1429.5" y1="1228.4375" y2="1228.4375"/><polygon fill="#000000" points="1398.5,1224.4375,1388.5,1228.4375,1398.5,1232.4375,1394.5,1228.4375" style="stroke:#000000;stroke-width:1.0;"/><text fill="#FF0000" font-family="sans-serif" font-size="17" lengthAdjust="spacing" textLength="204" x="1394.5" y="1209.4282">Einladung is abzulehnen</text><line style="stroke:#000000;stroke-width:1.0;stroke-dasharray:2.0,2.0;" x1="1265.5" x2="1922.5" y1="1262.4375" y2="1262.4375"/><text fill="#000000" font-family="sans-serif" font-size="11" font-weight="bold" lengthAdjust="spacing" textLength="5" x="1270.5" y="1278.4683">[</text><text fill="#000000" font-family="sans-serif" font-size="16" font-weight="bold" lengthAdjust="spacing" textLength="536" x="1275.5" y="1277.2891">Der Anwender hat "nobody" konfiguriert und der Einladende</text><text fill="#000000" font-family="sans-serif" font-size="16" font-weight="bold" lengthAdjust="spacing" textLength="611" x="1276.5" y="1295.9141">ist nicht auf der AllowedUser-Liste(Direkt oder als Teil einer Gruppe)</text><text fill="#000000" font-family="sans-serif" font-size="11" font-weight="bold" lengthAdjust="spacing" textLength="5" x="1887.5" y="1297.0933">]</text><line style="stroke:#000000;stroke-width:1.0;" x1="1387.5" x2="1429.5" y1="1351.4766" y2="1351.4766"/><line style="stroke:#000000;stroke-width:1.0;" x1="1429.5" x2="1429.5" y1="1351.4766" y2="1364.4766"/><line style="stroke:#000000;stroke-width:1.0;" x1="1388.5" x2="1429.5" y1="1364.4766" y2="1364.4766"/><polygon fill="#000000" points="1398.5,1360.4766,1388.5,1364.4766,1398.5,1368.4766,1394.5,1364.4766" style="stroke:#000000;stroke-width:1.0;"/><text fill="#FF0000" font-family="sans-serif" font-size="17" lengthAdjust="spacing" textLength="211" x="1394.5" y="1345.4673">Einladung ist abzulehnen</text><polygon fill="#000000" points="547,1458.2656,537,1462.2656,547,1466.2656,543,1462.2656" style="stroke:#000000;stroke-width:1.0;"/><line style="stroke:#000000;stroke-width:1.0;stroke-dasharray:2.0,2.0;" x1="541" x2="1381.5" y1="1462.2656" y2="1462.2656"/><text fill="#000000" font-family="sans-serif" font-size="17" lengthAdjust="spacing" textLength="267" x="1108.5" y="1456.2563">Ergebnis der Einladungspr&#252;fung</text><polygon fill="#000000" points="815,1492.0547,825,1496.0547,815,1500.0547,819,1496.0547" style="stroke:#000000;stroke-width:1.0;"/><line style="stroke:#000000;stroke-width:1.0;" x1="536" x2="821" y1="1496.0547" y2="1496.0547"/><text fill="#000000" font-family="sans-serif" font-size="17" lengthAdjust="spacing" textLength="142" x="543" y="1490.0454">HTTP(S) Forward</text><polygon fill="#000000" points="547,1525.8438,537,1529.8438,547,1533.8438,543,1529.8438" style="stroke:#000000;stroke-width:1.0;"/><line style="stroke:#000000;stroke-width:1.0;stroke-dasharray:2.0,2.0;" x1="541" x2="831" y1="1529.8438" y2="1529.8438"/><text fill="#000000" font-family="sans-serif" font-size="17" lengthAdjust="spacing" textLength="267" x="558" y="1523.8345">Ergebnis der Einladungspr&#252;fung</text><polygon fill="#000000" points="213,1559.6328,203,1563.6328,213,1567.6328,209,1563.6328" style="stroke:#000000;stroke-width:1.0;"/><line style="stroke:#000000;stroke-width:1.0;stroke-dasharray:2.0,2.0;" x1="207" x2="530" y1="1563.6328" y2="1563.6328"/><text fill="#000000" font-family="sans-serif" font-size="17" lengthAdjust="spacing" textLength="142" x="382" y="1557.6235">HTTP(S) Forward</text><!--SRC=[pLPTR-8u57tFhxXYNcOqWwP5kxEZgY01fL2f7n5XPrxwuYINn2BOMTifjDlzM_iqR_F7vZe990JeRdUbrKf81FjmppdsFNRqWekKARO4ZRzbA0AyGQrPXFs4Hm92hZ0mN0f7Ru5BBeO9q_eh3qqCdPEJsjn0hbqMXbn4SFfpRNnJV8fpLFPXWYn4DM318b8o4-5G9b91oXAC52BH1VG8IxOcWfy-myfoEGSAmkyEG5yfkIeg-0cLt0nTIc4y_eHm-eiT2enK0wc8TnTxpUTupGM-EDTGEcPSQ5ygwH38PShmWATCc7gD6sdu0yjNRnVJg7KCP-NViYN2rJ9bWTcVpBrrJlOdTZqSaJSuCDrKTZUx-jAVNTtTEji5FBeG9M2VVpjSwTqEvVxwBCMryuVZopMSQmATdNxksJv44Q5gUwWUE6rrY1f6N2JKEO8-zmBUV8svGMyf5-YabGsuyO1fQEsLQ3dqJo2QlqaLOKxsCfVRQP3T2rV9zMDh5pOfOSmelYRCH2vH4nsgNQ0xpd5kfcD2NN0KsloLRXWcX3ElaZrioYvgL5GtNhj7vivAnLVYWGgrHmy4SgWTRSkYTL_xuJdFpyzEjmldSzfR26mRTFD0zqhHdte00pe2WjZmA1EHNaZnXAc1DdWccrDKppzQPE_yeor1w6utByeIy-QQHx4PAto4ud6GP0ZRmgNE2xcabWJ1YGBeWVeTBh__ILzvn83anrGCHKb4tKWc2gjrsGh3Nj_tLHR47-1UDAU-eFAv2Ca27KugF81WFkq3niAKLhP4tXbCPZCNHjFftPH6hJq74urGcQdwN05bBNTHsrdGtEuIyX21b6WoYyhW_zhI85SxGvu8Z9Va9_TWV-_jaNKiCcNFVxva2I2Tm0guDlQfRbWr7KywXPAttZkub6h5L4XpLOTEEXOwwRHBRBshoJ2baIbQLcgF4jTpn-_Vdu6D8zpIGJtdmVQe7bEH8PKwF5sH3ckaj2KmHPrAeP56GsngStEOTnJbTXe3dlFl4jSva3YmeakrVN-kw8K016Qs2UrAwHrxRkSVBR-jROLnemqcYMsx1iMnnHaUP6aiqjQ3HO_MHh6OstUFlDdgswvtaAxw_crEMZw0zEdr1yiRnwf3bR3CDxOFRVN6YLJTbLNBNn1LNwoA6CVCG8ibYLpHNvCMq3xCQKSKgJBrZ9Uvf_HjDz1sFilcXVH8IChYhtHtjAzf0jzUq4lQme2qiopHHQIAo8nLbgRuhaf94KtxlRNS37bbc6jW_bDc4s-FoqtaDpNoVB_WLKXVXe-lDbgSt1kxVRjW_vLTyx9V4ThBqSdleppuHHEFL8I-eCMgVDcSfMKdEVN677PsxyxZiTbf_LfaNiCsAGYg0xfEqCWBcVe1]--></g></svg>