<?xml version="1.0" encoding="UTF-8" standalone="no"?><svg xmlns="http://www.w3.org/2000/svg" xmlns:xlink="http://www.w3.org/1999/xlink" contentStyleType="text/css" height="2159px" preserveAspectRatio="none" style="width:1736px;height:2159px;background:#FFFFFF;" version="1.1" viewBox="0 0 1736 2159" width="1736px" zoomAndPan="magnify"><defs/><g><rect fill="#F5F5F5" height="2147.207" style="stroke:#181818;stroke-width:0.5;" width="709" x="1015" y="6"/><text fill="#000000" font-family="sans-serif" font-size="18" font-weight="bold" lengthAdjust="spacing" textLength="188" x="1273.5" y="23.4023">VZD-FHIR-Directory</text><text fill="#000000" font-family="sans-serif" font-size="13" font-weight="bold" lengthAdjust="spacing" textLength="4" x="1461.5" y="24.457"> </text><rect fill="#DCDCDC" height="1877.9883" style="stroke:#000000;stroke-width:1.0;" width="10" x="354" y="122.1094"/><rect fill="#DCDCDC" height="127.0645" style="stroke:#000000;stroke-width:1.0;" width="10" x="639" y="528.0781"/><rect fill="#DCDCDC" height="149.0859" style="stroke:#000000;stroke-width:1.0;" width="10" x="639" y="978.248"/><rect fill="#DCDCDC" height="59.0215" style="stroke:#000000;stroke-width:1.0;" width="10" x="863" y="562.0996"/><rect fill="#DCDCDC" height="81.043" style="stroke:#000000;stroke-width:1.0;" width="10" x="863" y="1012.2695"/><rect fill="#DCDCDC" height="646.6563" style="stroke:#000000;stroke-width:1.0;" width="10" x="1121" y="1319.4199"/><rect fill="#DCDCDC" height="514.2344" style="stroke:#000000;stroke-width:1.0;" width="10" x="1358" y="714.1641"/><rect fill="#DCDCDC" height="34.0215" style="stroke:#000000;stroke-width:1.0;" width="10" x="1608" y="1642.8145"/><rect fill="#DCDCDC" height="34.0215" style="stroke:#000000;stroke-width:1.0;" width="10" x="1608" y="1841.0332"/><rect fill="#F0F8FF" height="825.5176" style="stroke:#000000;stroke-width:1.5;" width="1381" x="232" y="435.8809"/><rect fill="#FFE4E1" height="78.998" style="stroke:#000000;stroke-width:1.5;" width="1238" x="242" y="841.2285"/><rect fill="#FFE4E1" height="80.1758" style="stroke:#000000;stroke-width:1.5;" width="1001" x="242" y="1431.4414"/><rect fill="#F0F8FF" height="159.2188" style="stroke:#000000;stroke-width:1.5;" width="721" x="1009" y="1550.6172"/><rect fill="#F0F8FF" height="159.2188" style="stroke:#000000;stroke-width:1.5;" width="721" x="1009" y="1748.8359"/><line style="stroke:#000000;stroke-width:0.5;stroke-dasharray:5.0,5.0;" x1="102" x2="102" y1="112.1094" y2="2043.0977"/><line style="stroke:#000000;stroke-width:0.5;stroke-dasharray:5.0,5.0;" x1="359" x2="359" y1="112.1094" y2="2043.0977"/><line style="stroke:#000000;stroke-width:0.5;stroke-dasharray:5.0,5.0;" x1="644" x2="644" y1="112.1094" y2="2043.0977"/><line style="stroke:#000000;stroke-width:0.5;stroke-dasharray:5.0,5.0;" x1="868" x2="868" y1="112.1094" y2="2043.0977"/><line style="stroke:#000000;stroke-width:0.5;stroke-dasharray:5.0,5.0;" x1="1126" x2="1126" y1="112.1094" y2="2043.0977"/><line style="stroke:#000000;stroke-width:0.5;stroke-dasharray:5.0,5.0;" x1="1363" x2="1363" y1="112.1094" y2="2043.0977"/><line style="stroke:#000000;stroke-width:0.5;stroke-dasharray:5.0,5.0;" x1="1613" x2="1613" y1="112.1094" y2="2043.0977"/><text fill="#000000" font-family="Aapex" font-size="20" lengthAdjust="spacing" textLength="180" x="9" y="84.3359">Akteur in der Rolle</text><text fill="#000000" font-family="Aapex" font-size="20" lengthAdjust="spacing" textLength="161" x="18.5" y="107.8906">User / User-HBA</text><ellipse cx="102" cy="13.5" fill="#DCDCDC" rx="8" ry="8" style="stroke:#000000;stroke-width:0.5;"/><path d="M102,21.5 L102,48.5 M89,29.5 L115,29.5 M102,48.5 L89,63.5 M102,48.5 L115,63.5 " fill="none" style="stroke:#000000;stroke-width:0.5;"/><text fill="#000000" font-family="Aapex" font-size="20" lengthAdjust="spacing" textLength="180" x="9" y="2061.4336">Akteur in der Rolle</text><text fill="#000000" font-family="Aapex" font-size="20" lengthAdjust="spacing" textLength="161" x="18.5" y="2084.9883">User / User-HBA</text><ellipse cx="102" cy="2097.707" fill="#DCDCDC" rx="8" ry="8" style="stroke:#000000;stroke-width:0.5;"/><path d="M102,2105.707 L102,2132.707 M89,2113.707 L115,2113.707 M102,2132.707 L89,2147.707 M102,2132.707 L115,2147.707 " fill="none" style="stroke:#000000;stroke-width:0.5;"/><rect fill="#EFEFFF" height="38.3945" rx="2.5" ry="2.5" style="stroke:#000000;stroke-width:0.5;" width="214" x="252" y="72.7148"/><text fill="#000000" font-family="Impact" font-size="20" lengthAdjust="spacing" textLength="163" x="277.5" y="99.8906">TI-Messenger-Client</text><rect fill="#EFEFFF" height="38.3945" rx="2.5" ry="2.5" style="stroke:#000000;stroke-width:0.5;" width="214" x="252" y="2042.0977"/><text fill="#000000" font-family="Impact" font-size="20" lengthAdjust="spacing" textLength="163" x="277.5" y="2069.2734">TI-Messenger-Client</text><rect fill="#EFEFFF" height="38.3945" rx="2.5" ry="2.5" style="stroke:#000000;stroke-width:0.5;" width="214" x="537" y="72.7148"/><text fill="#000000" font-family="Impact" font-size="20" lengthAdjust="spacing" textLength="138" x="575" y="99.8906">Messenger Proxy</text><rect fill="#EFEFFF" height="38.3945" rx="2.5" ry="2.5" style="stroke:#000000;stroke-width:0.5;" width="214" x="537" y="2042.0977"/><text fill="#000000" font-family="Impact" font-size="20" lengthAdjust="spacing" textLength="138" x="575" y="2069.2734">Messenger Proxy</text><rect fill="#EFEFFF" height="38.3945" rx="2.5" ry="2.5" style="stroke:#000000;stroke-width:0.5;" width="214" x="761" y="72.7148"/><text fill="#000000" font-family="Impact" font-size="20" lengthAdjust="spacing" textLength="155" x="790.5" y="99.8906">Matrix-Homeserver</text><rect fill="#EFEFFF" height="38.3945" rx="2.5" ry="2.5" style="stroke:#000000;stroke-width:0.5;" width="214" x="761" y="2042.0977"/><text fill="#000000" font-family="Impact" font-size="20" lengthAdjust="spacing" textLength="155" x="790.5" y="2069.2734">Matrix-Homeserver</text><rect fill="#EFEFFF" height="38.3945" rx="2.5" ry="2.5" style="stroke:#000000;stroke-width:0.5;" width="214" x="1019" y="72.7148"/><text fill="#000000" font-family="Impact" font-size="20" lengthAdjust="spacing" textLength="87" x="1082.5" y="99.8906">FHIR-Proxy</text><rect fill="#EFEFFF" height="38.3945" rx="2.5" ry="2.5" style="stroke:#000000;stroke-width:0.5;" width="214" x="1019" y="2042.0977"/><text fill="#000000" font-family="Impact" font-size="20" lengthAdjust="spacing" textLength="87" x="1082.5" y="2069.2734">FHIR-Proxy</text><rect fill="#EFEFFF" height="38.3945" rx="2.5" ry="2.5" style="stroke:#000000;stroke-width:0.5;" width="214" x="1256" y="72.7148"/><text fill="#000000" font-family="Impact" font-size="20" lengthAdjust="spacing" textLength="103" x="1311.5" y="99.8906">Auth-Service</text><rect fill="#EFEFFF" height="38.3945" rx="2.5" ry="2.5" style="stroke:#000000;stroke-width:0.5;" width="214" x="1256" y="2042.0977"/><text fill="#000000" font-family="Impact" font-size="20" lengthAdjust="spacing" textLength="103" x="1311.5" y="2069.2734">Auth-Service</text><rect fill="#EFEFFF" height="38.3945" rx="2.5" ry="2.5" style="stroke:#000000;stroke-width:0.5;" width="214" x="1506" y="72.7148"/><text fill="#000000" font-family="Impact" font-size="20" lengthAdjust="spacing" textLength="117" x="1554.5" y="99.8906">FHIR-Directory</text><rect fill="#EFEFFF" height="38.3945" rx="2.5" ry="2.5" style="stroke:#000000;stroke-width:0.5;" width="214" x="1506" y="2042.0977"/><text fill="#000000" font-family="Impact" font-size="20" lengthAdjust="spacing" textLength="117" x="1554.5" y="2069.2734">FHIR-Directory</text><rect fill="#DCDCDC" height="1877.9883" style="stroke:#000000;stroke-width:1.0;" width="10" x="354" y="122.1094"/><rect fill="#DCDCDC" height="127.0645" style="stroke:#000000;stroke-width:1.0;" width="10" x="639" y="528.0781"/><rect fill="#DCDCDC" height="149.0859" style="stroke:#000000;stroke-width:1.0;" width="10" x="639" y="978.248"/><rect fill="#DCDCDC" height="59.0215" style="stroke:#000000;stroke-width:1.0;" width="10" x="863" y="562.0996"/><rect fill="#DCDCDC" height="81.043" style="stroke:#000000;stroke-width:1.0;" width="10" x="863" y="1012.2695"/><rect fill="#DCDCDC" height="646.6563" style="stroke:#000000;stroke-width:1.0;" width="10" x="1121" y="1319.4199"/><rect fill="#DCDCDC" height="514.2344" style="stroke:#000000;stroke-width:1.0;" width="10" x="1358" y="714.1641"/><rect fill="#DCDCDC" height="34.0215" style="stroke:#000000;stroke-width:1.0;" width="10" x="1608" y="1642.8145"/><rect fill="#DCDCDC" height="34.0215" style="stroke:#000000;stroke-width:1.0;" width="10" x="1608" y="1841.0332"/><path d="M5,152.1094 L5,212.1094 L966,212.1094 L966,162.1094 L956,152.1094 L5,152.1094 " fill="#FEFFDD" style="stroke:#181818;stroke-width:0.5;"/><path d="M956,152.1094 L956,162.1094 L966,162.1094 L956,152.1094 " fill="#FEFFDD" style="stroke:#181818;stroke-width:0.5;"/><text fill="#000000" font-family="sans-serif" font-size="13" lengthAdjust="spacing" textLength="4" x="223" y="169.6777"> </text><text fill="#000000" font-family="sans-serif" font-size="17" lengthAdjust="spacing" textLength="516" x="223" y="188.8555">Der Akteur ist erfolgreich beim Messenger-Service angemeldet</text><text fill="#000000" font-family="sans-serif" font-size="13" lengthAdjust="spacing" textLength="4" x="223" y="205.0098"> </text><polygon fill="#000000" points="342,304.8164,352,308.8164,342,312.8164,346,308.8164" style="stroke:#000000;stroke-width:1.0;"/><line style="stroke:#000000;stroke-width:1.0;" x1="102" x2="348" y1="308.8164" y2="308.8164"/><text fill="#000000" font-family="sans-serif" font-size="17" lengthAdjust="spacing" textLength="152" x="109" y="263.1875">Suchparameter für</text><text fill="#000000" font-family="sans-serif" font-size="17" lengthAdjust="spacing" textLength="142" x="109" y="283.209">FHIR-Ressourcen</text><text fill="#000000" font-family="sans-serif" font-size="17" lengthAdjust="spacing" textLength="76" x="114" y="303.2305">eingeben</text><line style="stroke:#000000;stroke-width:1.0;" x1="364" x2="406" y1="382.8809" y2="382.8809"/><line style="stroke:#000000;stroke-width:1.0;" x1="406" x2="406" y1="382.8809" y2="395.8809"/><line style="stroke:#000000;stroke-width:1.0;" x1="365" x2="406" y1="395.8809" y2="395.8809"/><polygon fill="#000000" points="375,391.8809,365,395.8809,375,399.8809,371,395.8809" style="stroke:#000000;stroke-width:1.0;"/><text fill="#000000" font-family="sans-serif" font-size="17" lengthAdjust="spacing" textLength="188" x="371" y="337.252">prüfe ob noch gültiges</text><text fill="#000000" font-family="sans-serif" font-size="17" lengthAdjust="spacing" textLength="164" x="371" y="357.2734">search-accesstoken</text><text fill="#000000" font-family="sans-serif" font-size="17" lengthAdjust="spacing" textLength="62" x="371" y="377.2949">vorliegt</text><path d="M232,435.8809 L294,435.8809 L294,443.1914 L284,453.1914 L232,453.1914 L232,435.8809 " fill="#D3D3D3" style="stroke:#000000;stroke-width:1.5;"/><rect fill="none" height="825.5176" style="stroke:#000000;stroke-width:1.5;" width="1381" x="232" y="435.8809"/><text fill="#000000" font-family="sans-serif" font-size="13" font-weight="bold" lengthAdjust="spacing" textLength="17" x="247" y="449.4492">alt</text><text fill="#000000" font-family="sans-serif" font-size="11" font-weight="bold" lengthAdjust="spacing" textLength="4" x="309" y="454.4043">[</text><text fill="#000000" font-family="sans-serif" font-size="16" font-weight="bold" lengthAdjust="spacing" textLength="369" x="313" y="453.3496">kein gültiges search-accesstoken vorhanden</text><text fill="#000000" font-family="sans-serif" font-size="11" font-weight="bold" lengthAdjust="spacing" textLength="4" x="682" y="454.4043">]</text><polygon fill="#000000" points="627,524.0781,637,528.0781,627,532.0781,631,528.0781" style="stroke:#000000;stroke-width:1.0;"/><line style="stroke:#000000;stroke-width:1.0;" x1="364" x2="633" y1="528.0781" y2="528.0781"/><text fill="#000000" font-family="sans-serif" font-size="17" lengthAdjust="spacing" textLength="216" x="371" y="502.4707">GET /_matrix/client/user/</text><text fill="#000000" font-family="sans-serif" font-size="17" lengthAdjust="spacing" textLength="256" x="371" y="522.4922">{userId}/openid/request_token</text><polygon fill="#000000" points="851,558.0996,861,562.0996,851,566.0996,855,562.0996" style="stroke:#000000;stroke-width:1.0;"/><line style="stroke:#000000;stroke-width:1.0;" x1="649" x2="857" y1="562.0996" y2="562.0996"/><text fill="#000000" font-family="sans-serif" font-size="17" lengthAdjust="spacing" textLength="114" x="656" y="556.5137">HTTP Forward</text><polygon fill="#000000" points="660,617.1211,650,621.1211,660,625.1211,656,621.1211" style="stroke:#000000;stroke-width:1.0;"/><line style="stroke:#000000;stroke-width:1.0;stroke-dasharray:2.0,2.0;" x1="654" x2="867" y1="621.1211" y2="621.1211"/><text fill="#000000" font-family="sans-serif" font-size="17" lengthAdjust="spacing" textLength="185" x="676" y="615.5352">Matrix-OpenID-Token</text><polygon fill="#000000" points="375,651.1426,365,655.1426,375,659.1426,371,655.1426" style="stroke:#000000;stroke-width:1.0;"/><line style="stroke:#000000;stroke-width:1.0;stroke-dasharray:2.0,2.0;" x1="369" x2="643" y1="655.1426" y2="655.1426"/><text fill="#000000" font-family="sans-serif" font-size="17" lengthAdjust="spacing" textLength="135" x="502" y="649.5566">HTTP(S) Forward</text><polygon fill="#000000" points="1346,710.1641,1356,714.1641,1346,718.1641,1350,714.1641" style="stroke:#000000;stroke-width:1.0;"/><line style="stroke:#000000;stroke-width:1.0;" x1="364" x2="1352" y1="714.1641" y2="714.1641"/><text fill="#000000" font-family="sans-serif" font-size="17" lengthAdjust="spacing" textLength="603" x="371" y="708.5781">GET /tim-authenticate?mxId=... (Auth Header mit Matrix-OpenID-Token)</text><line style="stroke:#000000;stroke-width:1.0;" x1="1368" x2="1410" y1="788.2285" y2="788.2285"/><line style="stroke:#000000;stroke-width:1.0;" x1="1410" x2="1410" y1="788.2285" y2="801.2285"/><line style="stroke:#000000;stroke-width:1.0;" x1="1369" x2="1410" y1="801.2285" y2="801.2285"/><polygon fill="#000000" points="1379,797.2285,1369,801.2285,1379,805.2285,1375,801.2285" style="stroke:#000000;stroke-width:1.0;"/><text fill="#000000" font-family="sans-serif" font-size="17" lengthAdjust="spacing" textLength="68" x="1375" y="742.5996">Prüfe ob</text><text fill="#000000" font-family="sans-serif" font-size="17" lengthAdjust="spacing" textLength="180" x="1375" y="762.6211">Matrix Server Name in</text><text fill="#000000" font-family="sans-serif" font-size="17" lengthAdjust="spacing" textLength="226" x="1375" y="782.6426">der Föderation enthalten ist</text><path d="M242,841.2285 L309,841.2285 L309,848.5391 L299,858.5391 L242,858.5391 L242,841.2285 " fill="#D3D3D3" style="stroke:#000000;stroke-width:1.5;"/><rect fill="none" height="78.998" style="stroke:#000000;stroke-width:1.5;" width="1238" x="242" y="841.2285"/><text fill="#000000" font-family="sans-serif" font-size="13" font-weight="bold" lengthAdjust="spacing" textLength="22" x="257" y="854.7969">opt</text><text fill="#000000" font-family="sans-serif" font-size="11" font-weight="bold" lengthAdjust="spacing" textLength="4" x="324" y="859.752">[</text><text fill="#000000" font-family="sans-serif" font-size="16" font-weight="bold" lengthAdjust="spacing" textLength="72" x="328" y="858.6973">Abbruch</text><text fill="#000000" font-family="sans-serif" font-size="11" font-weight="bold" lengthAdjust="spacing" textLength="4" x="400" y="859.752">]</text><polygon fill="#000000" points="375,908.2266,365,912.2266,375,916.2266,371,912.2266" style="stroke:#000000;stroke-width:1.0;"/><line style="stroke:#000000;stroke-width:1.0;stroke-dasharray:2.0,2.0;" x1="369" x2="1357" y1="912.2266" y2="912.2266"/><text fill="#000000" font-family="sans-serif" font-size="16" lengthAdjust="spacing" textLength="419" x="932" y="906.8516">Matrix Server Name nicht in der Föderation enthalten</text><polygon fill="#000000" points="660,974.248,650,978.248,660,982.248,656,978.248" style="stroke:#000000;stroke-width:1.0;"/><line style="stroke:#000000;stroke-width:1.0;" x1="654" x2="1357" y1="978.248" y2="978.248"/><text fill="#000000" font-family="sans-serif" font-size="17" lengthAdjust="spacing" textLength="501" x="850" y="972.6621">GET /openid/userinfo?access_token=Matrix-OpenID-Token)</text><polygon fill="#000000" points="851,1008.2695,861,1012.2695,851,1016.2695,855,1012.2695" style="stroke:#000000;stroke-width:1.0;"/><line style="stroke:#000000;stroke-width:1.0;" x1="649" x2="857" y1="1012.2695" y2="1012.2695"/><text fill="#000000" font-family="sans-serif" font-size="17" lengthAdjust="spacing" textLength="135" x="656" y="1006.6836">HTTP(S) Forward</text><line style="stroke:#000000;stroke-width:1.0;" x1="873" x2="915" y1="1046.291" y2="1046.291"/><line style="stroke:#000000;stroke-width:1.0;" x1="915" x2="915" y1="1046.291" y2="1059.291"/><line style="stroke:#000000;stroke-width:1.0;" x1="874" x2="915" y1="1059.291" y2="1059.291"/><polygon fill="#000000" points="884,1055.291,874,1059.291,884,1063.291,880,1059.291" style="stroke:#000000;stroke-width:1.0;"/><text fill="#000000" font-family="sans-serif" font-size="17" lengthAdjust="spacing" textLength="234" x="880" y="1040.7051">prüfe Matrix-OpenID-Token</text><polygon fill="#000000" points="660,1089.3125,650,1093.3125,660,1097.3125,656,1093.3125" style="stroke:#000000;stroke-width:1.0;"/><line style="stroke:#000000;stroke-width:1.0;stroke-dasharray:2.0,2.0;" x1="654" x2="867" y1="1093.3125" y2="1093.3125"/><text fill="#000000" font-family="sans-serif" font-size="17" lengthAdjust="spacing" textLength="148" x="713" y="1087.7266">MXID des Nutzers</text><polygon fill="#000000" points="1346,1123.334,1356,1127.334,1346,1131.334,1350,1127.334" style="stroke:#000000;stroke-width:1.0;"/><line style="stroke:#000000;stroke-width:1.0;stroke-dasharray:2.0,2.0;" x1="644" x2="1352" y1="1127.334" y2="1127.334"/><text fill="#000000" font-family="sans-serif" font-size="17" lengthAdjust="spacing" textLength="135" x="651" y="1121.748">HTTP(S) Forward</text><line style="stroke:#000000;stroke-width:1.0;" x1="1368" x2="1410" y1="1181.377" y2="1181.377"/><line style="stroke:#000000;stroke-width:1.0;" x1="1410" x2="1410" y1="1181.377" y2="1194.377"/><line style="stroke:#000000;stroke-width:1.0;" x1="1369" x2="1410" y1="1194.377" y2="1194.377"/><polygon fill="#000000" points="1379,1190.377,1369,1194.377,1379,1198.377,1375,1194.377" style="stroke:#000000;stroke-width:1.0;"/><text fill="#000000" font-family="sans-serif" font-size="17" lengthAdjust="spacing" textLength="66" x="1375" y="1155.7695">erzeuge</text><text fill="#000000" font-family="sans-serif" font-size="17" lengthAdjust="spacing" textLength="164" x="1375" y="1175.791">search-accesstoken</text><polygon fill="#000000" points="375,1224.3984,365,1228.3984,375,1232.3984,371,1228.3984" style="stroke:#000000;stroke-width:1.0;"/><line style="stroke:#000000;stroke-width:1.0;stroke-dasharray:2.0,2.0;" x1="369" x2="1362" y1="1228.3984" y2="1228.3984"/><text fill="#000000" font-family="sans-serif" font-size="17" lengthAdjust="spacing" textLength="164" x="1192" y="1222.8125">search-accesstoken</text><polygon fill="#000000" points="1109,1315.4199,1119,1319.4199,1109,1323.4199,1113,1319.4199" style="stroke:#000000;stroke-width:1.0;"/><line style="stroke:#000000;stroke-width:1.0;" x1="364" x2="1115" y1="1319.4199" y2="1319.4199"/><text fill="#000000" font-family="sans-serif" font-size="17" lengthAdjust="spacing" textLength="452" x="371" y="1313.834">POST /search?... (Auth Header mit search-accesstoken)</text><line style="stroke:#000000;stroke-width:1.0;" x1="1131" x2="1173" y1="1378.4414" y2="1378.4414"/><line style="stroke:#000000;stroke-width:1.0;" x1="1173" x2="1173" y1="1378.4414" y2="1391.4414"/><line style="stroke:#000000;stroke-width:1.0;" x1="1132" x2="1173" y1="1391.4414" y2="1391.4414"/><polygon fill="#000000" points="1142,1387.4414,1132,1391.4414,1142,1395.4414,1138,1391.4414" style="stroke:#000000;stroke-width:1.0;"/><text fill="#000000" font-family="sans-serif" font-size="17" lengthAdjust="spacing" textLength="213" x="1138" y="1372.8555">prüfe search-accesstoken</text><path d="M242,1431.4414 L309,1431.4414 L309,1438.752 L299,1448.752 L242,1448.752 L242,1431.4414 " fill="#D3D3D3" style="stroke:#000000;stroke-width:1.5;"/><rect fill="none" height="80.1758" style="stroke:#000000;stroke-width:1.5;" width="1001" x="242" y="1431.4414"/><text fill="#000000" font-family="sans-serif" font-size="13" font-weight="bold" lengthAdjust="spacing" textLength="22" x="257" y="1445.0098">opt</text><text fill="#000000" font-family="sans-serif" font-size="11" font-weight="bold" lengthAdjust="spacing" textLength="4" x="324" y="1449.9648">[</text><text fill="#000000" font-family="sans-serif" font-size="16" font-weight="bold" lengthAdjust="spacing" textLength="72" x="328" y="1448.9102">Abbruch</text><text fill="#000000" font-family="sans-serif" font-size="11" font-weight="bold" lengthAdjust="spacing" textLength="4" x="400" y="1449.9648">]</text><polygon fill="#000000" points="375,1474.6172,365,1478.6172,375,1482.6172,371,1478.6172" style="stroke:#000000;stroke-width:1.0;"/><line style="stroke:#000000;stroke-width:1.0;stroke-dasharray:2.0,2.0;" x1="369" x2="1120" y1="1478.6172" y2="1478.6172"/><text fill="#000000" font-family="sans-serif" font-size="17" lengthAdjust="spacing" textLength="276" x="838" y="1473.0313">kein gültiges search-accesstoken</text><path d="M1009,1550.6172 L1071,1550.6172 L1071,1557.9277 L1061,1567.9277 L1009,1567.9277 L1009,1550.6172 " fill="#D3D3D3" style="stroke:#000000;stroke-width:1.5;"/><rect fill="none" height="159.2188" style="stroke:#000000;stroke-width:1.5;" width="721" x="1009" y="1550.6172"/><text fill="#000000" font-family="sans-serif" font-size="13" font-weight="bold" lengthAdjust="spacing" textLength="17" x="1024" y="1564.1855">alt</text><text fill="#000000" font-family="sans-serif" font-size="11" font-weight="bold" lengthAdjust="spacing" textLength="4" x="1086" y="1569.1406">[</text><text fill="#000000" font-family="sans-serif" font-size="16" font-weight="bold" lengthAdjust="spacing" textLength="358" x="1090" y="1568.0859">HealthcareService-Einträge werden gesucht</text><text fill="#000000" font-family="sans-serif" font-size="11" font-weight="bold" lengthAdjust="spacing" textLength="4" x="1448" y="1569.1406">]</text><polygon fill="#000000" points="1596,1638.8145,1606,1642.8145,1596,1646.8145,1600,1642.8145" style="stroke:#000000;stroke-width:1.0;"/><line style="stroke:#000000;stroke-width:1.0;" x1="1131" x2="1602" y1="1642.8145" y2="1642.8145"/><text fill="#000000" font-family="sans-serif" font-size="17" lengthAdjust="spacing" textLength="278" x="1138" y="1617.207">POST /search/HealthcareService/?</text><text fill="#000000" font-family="sans-serif" font-size="17" lengthAdjust="spacing" textLength="264" x="1138" y="1637.2285">Finde Datensatz für TelematikID</text><polygon fill="#000000" points="1142,1672.8359,1132,1676.8359,1142,1680.8359,1138,1676.8359" style="stroke:#000000;stroke-width:1.0;"/><line style="stroke:#000000;stroke-width:1.0;stroke-dasharray:2.0,2.0;" x1="1136" x2="1612" y1="1676.8359" y2="1676.8359"/><text fill="#000000" font-family="sans-serif" font-size="17" lengthAdjust="spacing" textLength="228" x="1378" y="1671.25">Suchergebnis (FHIR Bundle)</text><path d="M1009,1748.8359 L1071,1748.8359 L1071,1756.1465 L1061,1766.1465 L1009,1766.1465 L1009,1748.8359 " fill="#D3D3D3" style="stroke:#000000;stroke-width:1.5;"/><rect fill="none" height="159.2188" style="stroke:#000000;stroke-width:1.5;" width="721" x="1009" y="1748.8359"/><text fill="#000000" font-family="sans-serif" font-size="13" font-weight="bold" lengthAdjust="spacing" textLength="17" x="1024" y="1762.4043">alt</text><text fill="#000000" font-family="sans-serif" font-size="11" font-weight="bold" lengthAdjust="spacing" textLength="4" x="1086" y="1767.3594">[</text><text fill="#000000" font-family="sans-serif" font-size="16" font-weight="bold" lengthAdjust="spacing" textLength="344" x="1090" y="1766.3047">PractitionerRole-Einträge werden gesucht</text><text fill="#000000" font-family="sans-serif" font-size="11" font-weight="bold" lengthAdjust="spacing" textLength="4" x="1434" y="1767.3594">]</text><polygon fill="#000000" points="1596,1837.0332,1606,1841.0332,1596,1845.0332,1600,1841.0332" style="stroke:#000000;stroke-width:1.0;"/><line style="stroke:#000000;stroke-width:1.0;" x1="1131" x2="1602" y1="1841.0332" y2="1841.0332"/><text fill="#000000" font-family="sans-serif" font-size="17" lengthAdjust="spacing" textLength="263" x="1138" y="1815.4258">POST /search/PractitionerRole/?</text><text fill="#000000" font-family="sans-serif" font-size="17" lengthAdjust="spacing" textLength="210" x="1143" y="1835.4473">Finde Datensatz für MXID</text><polygon fill="#000000" points="1142,1871.0547,1132,1875.0547,1142,1879.0547,1138,1875.0547" style="stroke:#000000;stroke-width:1.0;"/><line style="stroke:#000000;stroke-width:1.0;stroke-dasharray:2.0,2.0;" x1="1136" x2="1612" y1="1875.0547" y2="1875.0547"/><text fill="#000000" font-family="sans-serif" font-size="17" lengthAdjust="spacing" textLength="228" x="1378" y="1869.4688">Suchergebnis (FHIR Bundle)</text><polygon fill="#000000" points="375,1962.0762,365,1966.0762,375,1970.0762,371,1966.0762" style="stroke:#000000;stroke-width:1.0;"/><line style="stroke:#000000;stroke-width:1.0;stroke-dasharray:2.0,2.0;" x1="369" x2="1125" y1="1966.0762" y2="1966.0762"/><text fill="#000000" font-family="sans-serif" font-size="17" lengthAdjust="spacing" textLength="228" x="891" y="1960.4902">Suchergebnis (FHIR Bundle)</text><polygon fill="#000000" points="113,1996.0977,103,2000.0977,113,2004.0977,109,2000.0977" style="stroke:#000000;stroke-width:1.0;"/><line style="stroke:#000000;stroke-width:1.0;stroke-dasharray:2.0,2.0;" x1="107" x2="358" y1="2000.0977" y2="2000.0977"/><text fill="#000000" font-family="sans-serif" font-size="17" lengthAdjust="spacing" textLength="228" x="124" y="1994.5117">Suchergebnis (FHIR Bundle)</text><!--MD5=[6e56497c524cddd78af68f8d412dfe15]
@startuml
skinparam sequenceMessageAlign direction
skinparam minClassWidth 200
skinparam BoxPadding 1
skinparam sequenceReferenceHeaderBackgroundColor palegreen
scale max 2048 width

skinparam sequence {
ArrowColor black
ArrowFontSize 17
ActorBorderColor black
LifeLineBorderColor black
LifeLineBackgroundColor Gainsboro

ParticipantBorderColor Motivation
ParticipantBackgroundColor Motivation
ParticipantFontName Impact
ParticipantFontSize 20
ParticipantFontColor black
ParticipantBorderColor Black
ParticipantBackgroundColor MOTIVATION

ActorBackgroundColor Gainsboro
ActorFontColor black
ActorFontSize 20
ActorFontName Aapex
}
    actor U as "Akteur in der Rolle\nUser / User-HBA"
    participant cl as "TI-Messenger-Client"
    participant mp as "Messenger Proxy"
    participant hs as "Matrix-Homeserver"
    box <size:18>VZD-FHIR-Directory</size> #WhiteSmoke
      participant fp as "FHIR-Proxy"
      participant au as "Auth-Service"
      participant fd as "FHIR-Directory"
    end box

|||
note over U, hs: \n<size:17>Der Akteur ist erfolgreich beim Messenger-Service angemeldet</size>\n
|||

      activate cl
    U->cl:Suchparameter für \nFHIR-Ressourcen \n eingeben
    cl->cl: prüfe ob noch gültiges \nsearch-accesstoken\nvorliegt

|||
alt#LightGrey #AliceBlue <size:16>kein gültiges search-accesstoken vorhanden</size>
|||
      

    cl->mp: GET /_matrix/client/user/\n{userId}/openid/request_token 
      activate mp
    mp->hs: HTTP Forward 

      activate hs
    |||
    hs- ->mp: Matrix-OpenID-Token
      deactivate hs
    mp- ->cl: HTTP(S) Forward
      deactivate mp
      
    |||
    cl->au: GET /tim-authenticate?mxId=... (Auth Header mit Matrix-OpenID-Token)
      activate au
    au->au: Prüfe ob \nMatrix Server Name in \nder Föderation enthalten ist

|||
opt#LightGrey #MistyRose <size:16>Abbruch</size>
|||    
    au- ->cl: <size:16>Matrix Server Name nicht in der Föderation enthalten</size>
end

|||
        au->mp: GET /openid/userinfo?access_token=Matrix-OpenID-Token)
          activate mp
        mp->hs: HTTP(S) Forward
          activate hs
        hs->hs: prüfe Matrix-OpenID-Token
        hs- ->mp: MXID des Nutzers
          deactivate hs
        mp- ->au: HTTP(S) Forward
          deactivate mp
        au->au: erzeuge \nsearch-accesstoken 
        au- ->cl: search-accesstoken
          deactivate au
          deactivate fp
|||
end


    |||
    cl->fp: POST /search?... (Auth Header mit search-accesstoken)
    |||
      activate fp
    fp->fp: prüfe search-accesstoken
    |||
    opt#LightGrey #MistyRose <size:16>Abbruch</size>
      fp- ->cl: kein gültiges search-accesstoken 
    |||
    end
   
|||
alt#LightGrey #AliceBlue <size:16>HealthcareService-Einträge werden gesucht</size>
|||
    fp->fd: POST /search/HealthcareService/? \nFinde Datensatz für TelematikID 
      activate fd
    fd- ->fp: Suchergebnis (FHIR Bundle)
      deactivate fd
|||
end

|||
alt#LightGrey #AliceBlue <size:16>PractitionerRole-Einträge werden gesucht</size>
|||
    fp->fd: POST /search/PractitionerRole/? \n Finde Datensatz für MXID 
      activate fd
    fd- ->fp: Suchergebnis (FHIR Bundle)
      deactivate fd
|||
end
|||

  fp- ->cl: Suchergebnis (FHIR Bundle)
  deactivate fp
  cl- ->U: Suchergebnis (FHIR Bundle)
   |||
    
    deactivate cl

@enduml

PlantUML version 1.2022.7(Mon Aug 22 19:01:30 CEST 2022)
(GPL source distribution)
Java Runtime: OpenJDK Runtime Environment
JVM: OpenJDK 64-Bit Server VM
Default Encoding: UTF-8
Language: de
Country: DE
--></g></svg>