<?xml version="1.0" encoding="us-ascii" standalone="no"?><svg xmlns="http://www.w3.org/2000/svg" xmlns:xlink="http://www.w3.org/1999/xlink" contentStyleType="text/css" height="2148px" preserveAspectRatio="none" style="width:1872px;height:2148px;background:#FFFFFF;" version="1.1" viewBox="0 0 1872 2148" width="1872px" zoomAndPan="magnify"><defs/><g><rect fill="#F5F5F5" height="2136.5859" style="stroke:#181818;stroke-width:0.5;" width="757" x="1103.5" y="6"/><text fill="#000000" font-family="sans-serif" font-size="18" font-weight="bold" lengthAdjust="spacing" textLength="200" x="1379.5" y="22.708">VZD-FHIR-Directory</text><text fill="#000000" font-family="sans-serif" font-size="13" font-weight="bold" lengthAdjust="spacing" textLength="5" x="1579.5" y="23.8872">&#160;</text><rect fill="#DCDCDC" height="1868.4609" style="stroke:#000000;stroke-width:1.0;" width="10" x="391.5" y="121.5625"/><rect fill="#DCDCDC" height="126.3672" style="stroke:#000000;stroke-width:1.0;" width="10" x="698.5" y="524.6875"/><rect fill="#DCDCDC" height="148.1563" style="stroke:#000000;stroke-width:1.0;" width="10" x="698.5" y="973.5469"/><rect fill="#DCDCDC" height="58.7891" style="stroke:#000000;stroke-width:1.0;" width="10" x="928.5" y="558.4766"/><rect fill="#DCDCDC" height="80.5781" style="stroke:#000000;stroke-width:1.0;" width="10" x="928.5" y="1007.3359"/><rect fill="#DCDCDC" height="643.375" style="stroke:#000000;stroke-width:1.0;" width="10" x="1209.5" y="1312.8594"/><rect fill="#DCDCDC" height="512.2266" style="stroke:#000000;stroke-width:1.0;" width="10" x="1470.5" y="709.8438"/><rect fill="#DCDCDC" height="33.7891" style="stroke:#000000;stroke-width:1.0;" width="10" x="1744.5" y="1634.5313"/><rect fill="#DCDCDC" height="33.7891" style="stroke:#000000;stroke-width:1.0;" width="10" x="1744.5" y="1831.6563"/><rect fill="#F0F8FF" height="821.7188" style="stroke:#000000;stroke-width:1.5;" width="1480" x="269.5" y="433.3516"/><rect fill="#FFE4E1" height="79.5469" style="stroke:#000000;stroke-width:1.5;" width="1313" x="279.5" y="836.2109"/><rect fill="#FFE4E1" height="79.5469" style="stroke:#000000;stroke-width:1.5;" width="1052" x="279.5" y="1424.6484"/><rect fill="#F0F8FF" height="158.125" style="stroke:#000000;stroke-width:1.5;" width="769" x="1097.5" y="1543.1953"/><rect fill="#F0F8FF" height="158.125" style="stroke:#000000;stroke-width:1.5;" width="769" x="1097.5" y="1740.3203"/><line style="stroke:#000000;stroke-width:0.5;stroke-dasharray:5.0,5.0;" x1="103" x2="103" y1="111.5625" y2="2033.0234"/><line style="stroke:#000000;stroke-width:0.5;stroke-dasharray:5.0,5.0;" x1="396.5" x2="396.5" y1="111.5625" y2="2033.0234"/><line style="stroke:#000000;stroke-width:0.5;stroke-dasharray:5.0,5.0;" x1="703.5" x2="703.5" y1="111.5625" y2="2033.0234"/><line style="stroke:#000000;stroke-width:0.5;stroke-dasharray:5.0,5.0;" x1="933.5" x2="933.5" y1="111.5625" y2="2033.0234"/><line style="stroke:#000000;stroke-width:0.5;stroke-dasharray:5.0,5.0;" x1="1214.5" x2="1214.5" y1="111.5625" y2="2033.0234"/><line style="stroke:#000000;stroke-width:0.5;stroke-dasharray:5.0,5.0;" x1="1475.5" x2="1475.5" y1="111.5625" y2="2033.0234"/><line style="stroke:#000000;stroke-width:0.5;stroke-dasharray:5.0,5.0;" x1="1749.5" x2="1749.5" y1="111.5625" y2="2033.0234"/><text fill="#000000" font-family="sans-serif" font-size="20" lengthAdjust="spacing" textLength="187" x="7" y="83.5645">Akteur in der Rolle</text><text fill="#000000" font-family="sans-serif" font-size="20" lengthAdjust="spacing" textLength="159" x="21" y="106.8457">User / User-HBA</text><ellipse cx="103.5" cy="13.5" fill="#DCDCDC" rx="8" ry="8" style="stroke:#000000;stroke-width:0.5;"/><path d="M103.5,21.5 L103.5,48.5 M90.5,29.5 L116.5,29.5 M103.5,48.5 L90.5,63.5 M103.5,48.5 L116.5,63.5 " fill="none" style="stroke:#000000;stroke-width:0.5;"/><text fill="#000000" font-family="sans-serif" font-size="20" lengthAdjust="spacing" textLength="187" x="7" y="2050.5879">Akteur in der Rolle</text><text fill="#000000" font-family="sans-serif" font-size="20" lengthAdjust="spacing" textLength="159" x="21" y="2073.8691">User / User-HBA</text><ellipse cx="103.5" cy="2087.0859" fill="#DCDCDC" rx="8" ry="8" style="stroke:#000000;stroke-width:0.5;"/><path d="M103.5,2095.0859 L103.5,2122.0859 M90.5,2103.0859 L116.5,2103.0859 M103.5,2122.0859 L90.5,2137.0859 M103.5,2122.0859 L116.5,2137.0859 " fill="none" style="stroke:#000000;stroke-width:0.5;"/><rect fill="#EFEFFF" height="37.2813" rx="2.5" ry="2.5" style="stroke:#000000;stroke-width:0.5;" width="214" x="289.5" y="73.2813"/><text fill="#000000" font-family="sans-serif" font-size="20" lengthAdjust="spacing" textLength="198" x="297.5" y="98.8457">TI-Messenger-Client</text><rect fill="#EFEFFF" height="37.2813" rx="2.5" ry="2.5" style="stroke:#000000;stroke-width:0.5;" width="214" x="289.5" y="2032.0234"/><text fill="#000000" font-family="sans-serif" font-size="20" lengthAdjust="spacing" textLength="198" x="297.5" y="2057.5879">TI-Messenger-Client</text><rect fill="#EFEFFF" height="37.2813" rx="2.5" ry="2.5" style="stroke:#000000;stroke-width:0.5;" width="214" x="596.5" y="73.2813"/><text fill="#000000" font-family="sans-serif" font-size="20" lengthAdjust="spacing" textLength="167" x="620" y="98.8457">Messenger Proxy</text><rect fill="#EFEFFF" height="37.2813" rx="2.5" ry="2.5" style="stroke:#000000;stroke-width:0.5;" width="214" x="596.5" y="2032.0234"/><text fill="#000000" font-family="sans-serif" font-size="20" lengthAdjust="spacing" textLength="167" x="620" y="2057.5879">Messenger Proxy</text><rect fill="#EFEFFF" height="37.2813" rx="2.5" ry="2.5" style="stroke:#000000;stroke-width:0.5;" width="214" x="826.5" y="73.2813"/><text fill="#000000" font-family="sans-serif" font-size="20" lengthAdjust="spacing" textLength="189" x="839" y="98.8457">Matrix-Homeserver</text><rect fill="#EFEFFF" height="37.2813" rx="2.5" ry="2.5" style="stroke:#000000;stroke-width:0.5;" width="214" x="826.5" y="2032.0234"/><text fill="#000000" font-family="sans-serif" font-size="20" lengthAdjust="spacing" textLength="189" x="839" y="2057.5879">Matrix-Homeserver</text><rect fill="#EFEFFF" height="37.2813" rx="2.5" ry="2.5" style="stroke:#000000;stroke-width:0.5;" width="214" x="1107.5" y="73.2813"/><text fill="#000000" font-family="sans-serif" font-size="20" lengthAdjust="spacing" textLength="108" x="1160.5" y="98.8457">FHIR-Proxy</text><rect fill="#EFEFFF" height="37.2813" rx="2.5" ry="2.5" style="stroke:#000000;stroke-width:0.5;" width="214" x="1107.5" y="2032.0234"/><text fill="#000000" font-family="sans-serif" font-size="20" lengthAdjust="spacing" textLength="108" x="1160.5" y="2057.5879">FHIR-Proxy</text><rect fill="#EFEFFF" height="37.2813" rx="2.5" ry="2.5" style="stroke:#000000;stroke-width:0.5;" width="214" x="1368.5" y="73.2813"/><text fill="#000000" font-family="sans-serif" font-size="20" lengthAdjust="spacing" textLength="128" x="1411.5" y="98.8457">Auth-Service</text><rect fill="#EFEFFF" height="37.2813" rx="2.5" ry="2.5" style="stroke:#000000;stroke-width:0.5;" width="214" x="1368.5" y="2032.0234"/><text fill="#000000" font-family="sans-serif" font-size="20" lengthAdjust="spacing" textLength="128" x="1411.5" y="2057.5879">Auth-Service</text><rect fill="#EFEFFF" height="37.2813" rx="2.5" ry="2.5" style="stroke:#000000;stroke-width:0.5;" width="214" x="1642.5" y="73.2813"/><text fill="#000000" font-family="sans-serif" font-size="20" lengthAdjust="spacing" textLength="145" x="1677" y="98.8457">FHIR-Directory</text><rect fill="#EFEFFF" height="37.2813" rx="2.5" ry="2.5" style="stroke:#000000;stroke-width:0.5;" width="214" x="1642.5" y="2032.0234"/><text fill="#000000" font-family="sans-serif" font-size="20" lengthAdjust="spacing" textLength="145" x="1677" y="2057.5879">FHIR-Directory</text><rect fill="#DCDCDC" height="1868.4609" style="stroke:#000000;stroke-width:1.0;" width="10" x="391.5" y="121.5625"/><rect fill="#DCDCDC" height="126.3672" style="stroke:#000000;stroke-width:1.0;" width="10" x="698.5" y="524.6875"/><rect fill="#DCDCDC" height="148.1563" style="stroke:#000000;stroke-width:1.0;" width="10" x="698.5" y="973.5469"/><rect fill="#DCDCDC" height="58.7891" style="stroke:#000000;stroke-width:1.0;" width="10" x="928.5" y="558.4766"/><rect fill="#DCDCDC" height="80.5781" style="stroke:#000000;stroke-width:1.0;" width="10" x="928.5" y="1007.3359"/><rect fill="#DCDCDC" height="643.375" style="stroke:#000000;stroke-width:1.0;" width="10" x="1209.5" y="1312.8594"/><rect fill="#DCDCDC" height="512.2266" style="stroke:#000000;stroke-width:1.0;" width="10" x="1470.5" y="709.8438"/><rect fill="#DCDCDC" height="33.7891" style="stroke:#000000;stroke-width:1.0;" width="10" x="1744.5" y="1634.5313"/><rect fill="#DCDCDC" height="33.7891" style="stroke:#000000;stroke-width:1.0;" width="10" x="1744.5" y="1831.6563"/><path d="M5,151.5625 L5,211.5625 L1033,211.5625 L1033,161.5625 L1023,151.5625 L5,151.5625 " fill="#FEFFDD" style="stroke:#181818;stroke-width:0.5;"/><path d="M1023,151.5625 L1023,161.5625 L1033,161.5625 L1023,151.5625 " fill="#FEFFDD" style="stroke:#181818;stroke-width:0.5;"/><text fill="#000000" font-family="sans-serif" font-size="13" lengthAdjust="spacing" textLength="4" x="253.25" y="168.6294">&#160;</text><text fill="#000000" font-family="sans-serif" font-size="17" lengthAdjust="spacing" textLength="523" x="253.25" y="187.4751">Der Akteur ist erfolgreich beim Messenger-Service angemeldet</text><text fill="#000000" font-family="sans-serif" font-size="13" lengthAdjust="spacing" textLength="4" x="253.25" y="203.5513">&#160;</text><polygon fill="#000000" points="379.5,302.9844,389.5,306.9844,379.5,310.9844,383.5,306.9844" style="stroke:#000000;stroke-width:1.0;"/><line style="stroke:#000000;stroke-width:1.0;" x1="103.5" x2="385.5" y1="306.9844" y2="306.9844"/><text fill="#000000" font-family="sans-serif" font-size="17" font-weight="bold" lengthAdjust="spacing" textLength="12" x="110.5" y="281.186">1</text><text fill="#000000" font-family="sans-serif" font-size="17" lengthAdjust="spacing" textLength="158" x="126.5" y="261.397">Suchparameter f&#252;r</text><text fill="#000000" font-family="sans-serif" font-size="17" lengthAdjust="spacing" textLength="142" x="126.5" y="281.186">FHIR-Ressourcen</text><text fill="#000000" font-family="sans-serif" font-size="17" lengthAdjust="spacing" textLength="77" x="131.5" y="300.9751">eingeben</text><line style="stroke:#000000;stroke-width:1.0;" x1="401.5" x2="443.5" y1="380.3516" y2="380.3516"/><line style="stroke:#000000;stroke-width:1.0;" x1="443.5" x2="443.5" y1="380.3516" y2="393.3516"/><line style="stroke:#000000;stroke-width:1.0;" x1="402.5" x2="443.5" y1="393.3516" y2="393.3516"/><polygon fill="#000000" points="412.5,389.3516,402.5,393.3516,412.5,397.3516,408.5,393.3516" style="stroke:#000000;stroke-width:1.0;"/><text fill="#000000" font-family="sans-serif" font-size="17" font-weight="bold" lengthAdjust="spacing" textLength="12" x="408.5" y="354.5532">2</text><text fill="#000000" font-family="sans-serif" font-size="17" lengthAdjust="spacing" textLength="185" x="424.5" y="334.7642">pr&#252;fe ob noch g&#252;ltiges</text><text fill="#000000" font-family="sans-serif" font-size="17" lengthAdjust="spacing" textLength="160" x="424.5" y="354.5532">search-accesstoken</text><text fill="#000000" font-family="sans-serif" font-size="17" lengthAdjust="spacing" textLength="64" x="424.5" y="374.3423">vorliegt</text><path d="M269.5,433.3516 L333.5,433.3516 L333.5,440.4844 L323.5,450.4844 L269.5,450.4844 L269.5,433.3516 " fill="#D3D3D3" style="stroke:#000000;stroke-width:1.5;"/><rect fill="none" height="821.7188" style="stroke:#000000;stroke-width:1.5;" width="1480" x="269.5" y="433.3516"/><text fill="#000000" font-family="sans-serif" font-size="13" font-weight="bold" lengthAdjust="spacing" textLength="19" x="284.5" y="446.4185">alt</text><text fill="#000000" font-family="sans-serif" font-size="11" font-weight="bold" lengthAdjust="spacing" textLength="5" x="348.5" y="451.3823">[</text><text fill="#000000" font-family="sans-serif" font-size="16" font-weight="bold" lengthAdjust="spacing" textLength="399" x="353.5" y="450.2031">kein g&#252;ltiges search-accesstoken vorhanden</text><text fill="#000000" font-family="sans-serif" font-size="11" font-weight="bold" lengthAdjust="spacing" textLength="5" x="752.5" y="451.3823">]</text><polygon fill="#000000" points="686.5,520.6875,696.5,524.6875,686.5,528.6875,690.5,524.6875" style="stroke:#000000;stroke-width:1.0;"/><line style="stroke:#000000;stroke-width:1.0;" x1="401.5" x2="692.5" y1="524.6875" y2="524.6875"/><text fill="#000000" font-family="sans-serif" font-size="17" font-weight="bold" lengthAdjust="spacing" textLength="12" x="408.5" y="508.7837">3</text><text fill="#000000" font-family="sans-serif" font-size="17" lengthAdjust="spacing" textLength="210" x="424.5" y="498.8892">GET /_matrix/client/user/</text><text fill="#000000" font-family="sans-serif" font-size="17" lengthAdjust="spacing" textLength="262" x="424.5" y="518.6782">{userId}/openid/request_token</text><polygon fill="#000000" points="916.5,554.4766,926.5,558.4766,916.5,562.4766,920.5,558.4766" style="stroke:#000000;stroke-width:1.0;"/><line style="stroke:#000000;stroke-width:1.0;" x1="708.5" x2="922.5" y1="558.4766" y2="558.4766"/><text fill="#000000" font-family="sans-serif" font-size="17" font-weight="bold" lengthAdjust="spacing" textLength="12" x="715.5" y="552.4673">4</text><text fill="#000000" font-family="sans-serif" font-size="17" lengthAdjust="spacing" textLength="117" x="731.5" y="552.4673">HTTP Forward</text><polygon fill="#000000" points="719.5,613.2656,709.5,617.2656,719.5,621.2656,715.5,617.2656" style="stroke:#000000;stroke-width:1.0;"/><line style="stroke:#000000;stroke-width:1.0;stroke-dasharray:2.0,2.0;" x1="713.5" x2="932.5" y1="617.2656" y2="617.2656"/><text fill="#000000" font-family="sans-serif" font-size="17" font-weight="bold" lengthAdjust="spacing" textLength="12" x="730.5" y="611.2563">5</text><text fill="#000000" font-family="sans-serif" font-size="17" lengthAdjust="spacing" textLength="180" x="746.5" y="611.2563">Matrix-OpenID-Token</text><polygon fill="#000000" points="412.5,647.0547,402.5,651.0547,412.5,655.0547,408.5,651.0547" style="stroke:#000000;stroke-width:1.0;"/><line style="stroke:#000000;stroke-width:1.0;stroke-dasharray:2.0,2.0;" x1="406.5" x2="702.5" y1="651.0547" y2="651.0547"/><text fill="#000000" font-family="sans-serif" font-size="17" font-weight="bold" lengthAdjust="spacing" textLength="12" x="538.5" y="645.0454">6</text><text fill="#000000" font-family="sans-serif" font-size="17" lengthAdjust="spacing" textLength="142" x="554.5" y="645.0454">HTTP(S) Forward</text><polygon fill="#000000" points="1458.5,705.8438,1468.5,709.8438,1458.5,713.8438,1462.5,709.8438" style="stroke:#000000;stroke-width:1.0;"/><line style="stroke:#000000;stroke-width:1.0;" x1="401.5" x2="1464.5" y1="709.8438" y2="709.8438"/><text fill="#000000" font-family="sans-serif" font-size="17" font-weight="bold" lengthAdjust="spacing" textLength="12" x="408.5" y="703.8345">7</text><text fill="#000000" font-family="sans-serif" font-size="17" lengthAdjust="spacing" textLength="611" x="424.5" y="703.8345">GET /tim-authenticate?mxId=... (Auth Header mit Matrix-OpenID-Token)</text><line style="stroke:#000000;stroke-width:1.0;" x1="1480.5" x2="1522.5" y1="783.2109" y2="783.2109"/><line style="stroke:#000000;stroke-width:1.0;" x1="1522.5" x2="1522.5" y1="783.2109" y2="796.2109"/><line style="stroke:#000000;stroke-width:1.0;" x1="1481.5" x2="1522.5" y1="796.2109" y2="796.2109"/><polygon fill="#000000" points="1491.5,792.2109,1481.5,796.2109,1491.5,800.2109,1487.5,796.2109" style="stroke:#000000;stroke-width:1.0;"/><text fill="#000000" font-family="sans-serif" font-size="17" font-weight="bold" lengthAdjust="spacing" textLength="12" x="1487.5" y="757.4126">8</text><text fill="#000000" font-family="sans-serif" font-size="17" lengthAdjust="spacing" textLength="69" x="1503.5" y="737.6235">Pr&#252;fe ob</text><text fill="#000000" font-family="sans-serif" font-size="17" lengthAdjust="spacing" textLength="190" x="1503.5" y="757.4126">Matrix Server Name in</text><text fill="#000000" font-family="sans-serif" font-size="17" lengthAdjust="spacing" textLength="234" x="1503.5" y="777.2017">der F&#246;deration enthalten ist</text><path d="M279.5,836.2109 L349.5,836.2109 L349.5,843.3438 L339.5,853.3438 L279.5,853.3438 L279.5,836.2109 " fill="#D3D3D3" style="stroke:#000000;stroke-width:1.5;"/><rect fill="none" height="79.5469" style="stroke:#000000;stroke-width:1.5;" width="1313" x="279.5" y="836.2109"/><text fill="#000000" font-family="sans-serif" font-size="13" font-weight="bold" lengthAdjust="spacing" textLength="25" x="294.5" y="849.2778">opt</text><text fill="#000000" font-family="sans-serif" font-size="11" font-weight="bold" lengthAdjust="spacing" textLength="5" x="364.5" y="854.2417">[</text><text fill="#000000" font-family="sans-serif" font-size="16" font-weight="bold" lengthAdjust="spacing" textLength="74" x="369.5" y="853.0625">Abbruch</text><text fill="#000000" font-family="sans-serif" font-size="11" font-weight="bold" lengthAdjust="spacing" textLength="5" x="443.5" y="854.2417">]</text><polygon fill="#000000" points="412.5,903.7578,402.5,907.7578,412.5,911.7578,408.5,907.7578" style="stroke:#000000;stroke-width:1.0;"/><line style="stroke:#000000;stroke-width:1.0;stroke-dasharray:2.0,2.0;" x1="406.5" x2="1469.5" y1="907.7578" y2="907.7578"/><text fill="#000000" font-family="sans-serif" font-size="17" font-weight="bold" lengthAdjust="spacing" textLength="12" x="1036.5" y="901.7485">9</text><text fill="#000000" font-family="sans-serif" font-size="16" lengthAdjust="spacing" textLength="411" x="1052.5" y="901.4023">Matrix Server Name nicht in der F&#246;deration enthalten</text><polygon fill="#000000" points="719.5,969.5469,709.5,973.5469,719.5,977.5469,715.5,973.5469" style="stroke:#000000;stroke-width:1.0;"/><line style="stroke:#000000;stroke-width:1.0;" x1="713.5" x2="1469.5" y1="973.5469" y2="973.5469"/><text fill="#000000" font-family="sans-serif" font-size="17" font-weight="bold" lengthAdjust="spacing" textLength="24" x="948.5" y="967.5376">10</text><text fill="#000000" font-family="sans-serif" font-size="17" lengthAdjust="spacing" textLength="487" x="976.5" y="967.5376">GET /openid/userinfo?access_token=Matrix-OpenID-Token</text><polygon fill="#000000" points="916.5,1003.3359,926.5,1007.3359,916.5,1011.3359,920.5,1007.3359" style="stroke:#000000;stroke-width:1.0;"/><line style="stroke:#000000;stroke-width:1.0;" x1="708.5" x2="922.5" y1="1007.3359" y2="1007.3359"/><text fill="#000000" font-family="sans-serif" font-size="17" font-weight="bold" lengthAdjust="spacing" textLength="24" x="715.5" y="1001.3267">11</text><text fill="#000000" font-family="sans-serif" font-size="17" lengthAdjust="spacing" textLength="142" x="743.5" y="1001.3267">HTTP(S) Forward</text><line style="stroke:#000000;stroke-width:1.0;" x1="938.5" x2="980.5" y1="1041.125" y2="1041.125"/><line style="stroke:#000000;stroke-width:1.0;" x1="980.5" x2="980.5" y1="1041.125" y2="1054.125"/><line style="stroke:#000000;stroke-width:1.0;" x1="939.5" x2="980.5" y1="1054.125" y2="1054.125"/><polygon fill="#000000" points="949.5,1050.125,939.5,1054.125,949.5,1058.125,945.5,1054.125" style="stroke:#000000;stroke-width:1.0;"/><text fill="#000000" font-family="sans-serif" font-size="17" font-weight="bold" lengthAdjust="spacing" textLength="24" x="945.5" y="1035.1157">12</text><text fill="#000000" font-family="sans-serif" font-size="17" lengthAdjust="spacing" textLength="229" x="973.5" y="1035.1157">pr&#252;fe Matrix-OpenID-Token</text><polygon fill="#000000" points="719.5,1083.9141,709.5,1087.9141,719.5,1091.9141,715.5,1087.9141" style="stroke:#000000;stroke-width:1.0;"/><line style="stroke:#000000;stroke-width:1.0;stroke-dasharray:2.0,2.0;" x1="713.5" x2="932.5" y1="1087.9141" y2="1087.9141"/><text fill="#000000" font-family="sans-serif" font-size="17" font-weight="bold" lengthAdjust="spacing" textLength="24" x="749.5" y="1081.9048">13</text><text fill="#000000" font-family="sans-serif" font-size="17" lengthAdjust="spacing" textLength="149" x="777.5" y="1081.9048">MXID des Nutzers</text><polygon fill="#000000" points="1458.5,1117.7031,1468.5,1121.7031,1458.5,1125.7031,1462.5,1121.7031" style="stroke:#000000;stroke-width:1.0;"/><line style="stroke:#000000;stroke-width:1.0;stroke-dasharray:2.0,2.0;" x1="703.5" x2="1464.5" y1="1121.7031" y2="1121.7031"/><text fill="#000000" font-family="sans-serif" font-size="17" font-weight="bold" lengthAdjust="spacing" textLength="24" x="710.5" y="1115.6938">14</text><text fill="#000000" font-family="sans-serif" font-size="17" lengthAdjust="spacing" textLength="142" x="738.5" y="1115.6938">HTTP(S) Forward</text><line style="stroke:#000000;stroke-width:1.0;" x1="1480.5" x2="1522.5" y1="1175.2813" y2="1175.2813"/><line style="stroke:#000000;stroke-width:1.0;" x1="1522.5" x2="1522.5" y1="1175.2813" y2="1188.2813"/><line style="stroke:#000000;stroke-width:1.0;" x1="1481.5" x2="1522.5" y1="1188.2813" y2="1188.2813"/><polygon fill="#000000" points="1491.5,1184.2813,1481.5,1188.2813,1491.5,1192.2813,1487.5,1188.2813" style="stroke:#000000;stroke-width:1.0;"/><text fill="#000000" font-family="sans-serif" font-size="17" font-weight="bold" lengthAdjust="spacing" textLength="24" x="1487.5" y="1159.3774">15</text><text fill="#000000" font-family="sans-serif" font-size="17" lengthAdjust="spacing" textLength="66" x="1515.5" y="1149.4829">erzeuge</text><text fill="#000000" font-family="sans-serif" font-size="17" lengthAdjust="spacing" textLength="160" x="1515.5" y="1169.272">search-accesstoken</text><polygon fill="#000000" points="412.5,1218.0703,402.5,1222.0703,412.5,1226.0703,408.5,1222.0703" style="stroke:#000000;stroke-width:1.0;"/><line style="stroke:#000000;stroke-width:1.0;stroke-dasharray:2.0,2.0;" x1="406.5" x2="1474.5" y1="1222.0703" y2="1222.0703"/><text fill="#000000" font-family="sans-serif" font-size="17" font-weight="bold" lengthAdjust="spacing" textLength="24" x="1280.5" y="1216.061">16</text><text fill="#000000" font-family="sans-serif" font-size="17" lengthAdjust="spacing" textLength="160" x="1308.5" y="1216.061">search-accesstoken</text><polygon fill="#000000" points="1197.5,1308.8594,1207.5,1312.8594,1197.5,1316.8594,1201.5,1312.8594" style="stroke:#000000;stroke-width:1.0;"/><line style="stroke:#000000;stroke-width:1.0;" x1="401.5" x2="1203.5" y1="1312.8594" y2="1312.8594"/><text fill="#000000" font-family="sans-serif" font-size="17" font-weight="bold" lengthAdjust="spacing" textLength="24" x="408.5" y="1306.8501">17</text><text fill="#000000" font-family="sans-serif" font-size="17" lengthAdjust="spacing" textLength="456" x="436.5" y="1306.8501">POST /search?... (Auth Header mit search-accesstoken)</text><line style="stroke:#000000;stroke-width:1.0;" x1="1219.5" x2="1261.5" y1="1371.6484" y2="1371.6484"/><line style="stroke:#000000;stroke-width:1.0;" x1="1261.5" x2="1261.5" y1="1371.6484" y2="1384.6484"/><line style="stroke:#000000;stroke-width:1.0;" x1="1220.5" x2="1261.5" y1="1384.6484" y2="1384.6484"/><polygon fill="#000000" points="1230.5,1380.6484,1220.5,1384.6484,1230.5,1388.6484,1226.5,1384.6484" style="stroke:#000000;stroke-width:1.0;"/><text fill="#000000" font-family="sans-serif" font-size="17" font-weight="bold" lengthAdjust="spacing" textLength="24" x="1226.5" y="1365.6392">18</text><text fill="#000000" font-family="sans-serif" font-size="17" lengthAdjust="spacing" textLength="209" x="1254.5" y="1365.6392">pr&#252;fe search-accesstoken</text><path d="M279.5,1424.6484 L349.5,1424.6484 L349.5,1431.7813 L339.5,1441.7813 L279.5,1441.7813 L279.5,1424.6484 " fill="#D3D3D3" style="stroke:#000000;stroke-width:1.5;"/><rect fill="none" height="79.5469" style="stroke:#000000;stroke-width:1.5;" width="1052" x="279.5" y="1424.6484"/><text fill="#000000" font-family="sans-serif" font-size="13" font-weight="bold" lengthAdjust="spacing" textLength="25" x="294.5" y="1437.7153">opt</text><text fill="#000000" font-family="sans-serif" font-size="11" font-weight="bold" lengthAdjust="spacing" textLength="5" x="364.5" y="1442.6792">[</text><text fill="#000000" font-family="sans-serif" font-size="16" font-weight="bold" lengthAdjust="spacing" textLength="74" x="369.5" y="1441.5">Abbruch</text><text fill="#000000" font-family="sans-serif" font-size="11" font-weight="bold" lengthAdjust="spacing" textLength="5" x="443.5" y="1442.6792">]</text><polygon fill="#000000" points="412.5,1467.1953,402.5,1471.1953,412.5,1475.1953,408.5,1471.1953" style="stroke:#000000;stroke-width:1.0;"/><line style="stroke:#000000;stroke-width:1.0;stroke-dasharray:2.0,2.0;" x1="406.5" x2="1208.5" y1="1471.1953" y2="1471.1953"/><text fill="#000000" font-family="sans-serif" font-size="17" font-weight="bold" lengthAdjust="spacing" textLength="24" x="902.5" y="1465.186">19</text><text fill="#000000" font-family="sans-serif" font-size="17" lengthAdjust="spacing" textLength="272" x="930.5" y="1465.186">kein g&#252;ltiges search-accesstoken</text><path d="M1097.5,1543.1953 L1161.5,1543.1953 L1161.5,1550.3281 L1151.5,1560.3281 L1097.5,1560.3281 L1097.5,1543.1953 " fill="#D3D3D3" style="stroke:#000000;stroke-width:1.5;"/><rect fill="none" height="158.125" style="stroke:#000000;stroke-width:1.5;" width="769" x="1097.5" y="1543.1953"/><text fill="#000000" font-family="sans-serif" font-size="13" font-weight="bold" lengthAdjust="spacing" textLength="19" x="1112.5" y="1556.2622">alt</text><text fill="#000000" font-family="sans-serif" font-size="11" font-weight="bold" lengthAdjust="spacing" textLength="5" x="1176.5" y="1561.2261">[</text><text fill="#000000" font-family="sans-serif" font-size="16" font-weight="bold" lengthAdjust="spacing" textLength="391" x="1181.5" y="1560.0469">HealthcareService-Eintr&#228;ge werden gesucht</text><text fill="#000000" font-family="sans-serif" font-size="11" font-weight="bold" lengthAdjust="spacing" textLength="5" x="1572.5" y="1561.2261">]</text><polygon fill="#000000" points="1732.5,1630.5313,1742.5,1634.5313,1732.5,1638.5313,1736.5,1634.5313" style="stroke:#000000;stroke-width:1.0;"/><line style="stroke:#000000;stroke-width:1.0;" x1="1219.5" x2="1738.5" y1="1634.5313" y2="1634.5313"/><text fill="#000000" font-family="sans-serif" font-size="17" font-weight="bold" lengthAdjust="spacing" textLength="24" x="1226.5" y="1618.6274">20</text><text fill="#000000" font-family="sans-serif" font-size="17" lengthAdjust="spacing" textLength="282" x="1254.5" y="1608.7329">POST /search/HealthcareService/?</text><text fill="#000000" font-family="sans-serif" font-size="17" lengthAdjust="spacing" textLength="272" x="1254.5" y="1628.522">Finde Datensatz f&#252;r TelematikID</text><polygon fill="#000000" points="1230.5,1664.3203,1220.5,1668.3203,1230.5,1672.3203,1226.5,1668.3203" style="stroke:#000000;stroke-width:1.0;"/><line style="stroke:#000000;stroke-width:1.0;stroke-dasharray:2.0,2.0;" x1="1224.5" x2="1748.5" y1="1668.3203" y2="1668.3203"/><text fill="#000000" font-family="sans-serif" font-size="17" font-weight="bold" lengthAdjust="spacing" textLength="24" x="1478.5" y="1662.311">21</text><text fill="#000000" font-family="sans-serif" font-size="17" lengthAdjust="spacing" textLength="236" x="1506.5" y="1662.311">Suchergebnis (FHIR Bundle)</text><path d="M1097.5,1740.3203 L1161.5,1740.3203 L1161.5,1747.4531 L1151.5,1757.4531 L1097.5,1757.4531 L1097.5,1740.3203 " fill="#D3D3D3" style="stroke:#000000;stroke-width:1.5;"/><rect fill="none" height="158.125" style="stroke:#000000;stroke-width:1.5;" width="769" x="1097.5" y="1740.3203"/><text fill="#000000" font-family="sans-serif" font-size="13" font-weight="bold" lengthAdjust="spacing" textLength="19" x="1112.5" y="1753.3872">alt</text><text fill="#000000" font-family="sans-serif" font-size="11" font-weight="bold" lengthAdjust="spacing" textLength="5" x="1176.5" y="1758.3511">[</text><text fill="#000000" font-family="sans-serif" font-size="16" font-weight="bold" lengthAdjust="spacing" textLength="374" x="1181.5" y="1757.1719">PractitionerRole-Eintr&#228;ge werden gesucht</text><text fill="#000000" font-family="sans-serif" font-size="11" font-weight="bold" lengthAdjust="spacing" textLength="5" x="1555.5" y="1758.3511">]</text><polygon fill="#000000" points="1732.5,1827.6563,1742.5,1831.6563,1732.5,1835.6563,1736.5,1831.6563" style="stroke:#000000;stroke-width:1.0;"/><line style="stroke:#000000;stroke-width:1.0;" x1="1219.5" x2="1738.5" y1="1831.6563" y2="1831.6563"/><text fill="#000000" font-family="sans-serif" font-size="17" font-weight="bold" lengthAdjust="spacing" textLength="24" x="1226.5" y="1815.7524">22</text><text fill="#000000" font-family="sans-serif" font-size="17" lengthAdjust="spacing" textLength="264" x="1254.5" y="1805.8579">POST /search/PractitionerRole/?</text><text fill="#000000" font-family="sans-serif" font-size="17" lengthAdjust="spacing" textLength="216" x="1259.5" y="1825.647">Finde Datensatz f&#252;r MXID</text><polygon fill="#000000" points="1230.5,1861.4453,1220.5,1865.4453,1230.5,1869.4453,1226.5,1865.4453" style="stroke:#000000;stroke-width:1.0;"/><line style="stroke:#000000;stroke-width:1.0;stroke-dasharray:2.0,2.0;" x1="1224.5" x2="1748.5" y1="1865.4453" y2="1865.4453"/><text fill="#000000" font-family="sans-serif" font-size="17" font-weight="bold" lengthAdjust="spacing" textLength="24" x="1478.5" y="1859.436">23</text><text fill="#000000" font-family="sans-serif" font-size="17" lengthAdjust="spacing" textLength="236" x="1506.5" y="1859.436">Suchergebnis (FHIR Bundle)</text><polygon fill="#000000" points="412.5,1952.2344,402.5,1956.2344,412.5,1960.2344,408.5,1956.2344" style="stroke:#000000;stroke-width:1.0;"/><line style="stroke:#000000;stroke-width:1.0;stroke-dasharray:2.0,2.0;" x1="406.5" x2="1213.5" y1="1956.2344" y2="1956.2344"/><text fill="#000000" font-family="sans-serif" font-size="17" font-weight="bold" lengthAdjust="spacing" textLength="24" x="943.5" y="1950.2251">24</text><text fill="#000000" font-family="sans-serif" font-size="17" lengthAdjust="spacing" textLength="236" x="971.5" y="1950.2251">Suchergebnis (FHIR Bundle)</text><polygon fill="#000000" points="114.5,1986.0234,104.5,1990.0234,114.5,1994.0234,110.5,1990.0234" style="stroke:#000000;stroke-width:1.0;"/><line style="stroke:#000000;stroke-width:1.0;stroke-dasharray:2.0,2.0;" x1="108.5" x2="395.5" y1="1990.0234" y2="1990.0234"/><text fill="#000000" font-family="sans-serif" font-size="17" font-weight="bold" lengthAdjust="spacing" textLength="24" x="125.5" y="1984.0142">25</text><text fill="#000000" font-family="sans-serif" font-size="17" lengthAdjust="spacing" textLength="236" x="153.5" y="1984.0142">Suchergebnis (FHIR Bundle)</text></g></svg>