<?xml version="1.0" encoding="UTF-8" standalone="no"?><svg xmlns="http://www.w3.org/2000/svg" xmlns:xlink="http://www.w3.org/1999/xlink" contentStyleType="text/css" height="2630px" preserveAspectRatio="none" style="width:1926px;height:2630px;background:#FFFFFF;" version="1.1" viewBox="0 0 1926 2630" width="1926px" zoomAndPan="magnify"><defs/><g><rect fill="#F5F5F5" height="2618.6484" style="stroke:#181818;stroke-width:0.5;" width="823" x="1004.5" y="6"/><text fill="#000000" font-family="sans-serif" font-size="18" font-weight="bold" lengthAdjust="spacing" textLength="200" x="1313.5" y="22.708">VZD-FHIR-Directory</text><text fill="#000000" font-family="sans-serif" font-size="13" font-weight="bold" lengthAdjust="spacing" textLength="5" x="1513.5" y="23.8872"> </text><rect fill="#DCDCDC" height="2350.5234" style="stroke:#000000;stroke-width:1.0;" width="10" x="342.5" y="121.5625"/><rect fill="#DCDCDC" height="126.3672" style="stroke:#000000;stroke-width:1.0;" width="10" x="633.5" y="524.6875"/><rect fill="#DCDCDC" height="148.1563" style="stroke:#000000;stroke-width:1.0;" width="10" x="633.5" y="1132.3281"/><rect fill="#DCDCDC" height="58.7891" style="stroke:#000000;stroke-width:1.0;" width="10" x="857.5" y="558.4766"/><rect fill="#DCDCDC" height="80.5781" style="stroke:#000000;stroke-width:1.0;" width="10" x="857.5" y="1166.1172"/><rect fill="#DCDCDC" height="959.6563" style="stroke:#000000;stroke-width:1.0;" width="10" x="1110.5" y="1478.6406"/><rect fill="#DCDCDC" height="671.0078" style="stroke:#000000;stroke-width:1.0;" width="10" x="1378.5" y="709.8438"/><rect fill="#DCDCDC" height="33.7891" style="stroke:#000000;stroke-width:1.0;" width="10" x="1711.5" y="1800.3125"/><rect fill="#DCDCDC" height="120.1563" style="stroke:#000000;stroke-width:1.0;" width="10" x="1711.5" y="1977.6484"/><rect fill="#F0F8FF" height="987.5" style="stroke:#000000;stroke-width:1.5;" width="1604.5" x="10" y="433.3516"/><rect fill="#ADD8E6" height="557.8516" style="stroke:#000000;stroke-width:1.5;" width="1582.5" x="20" y="856"/><rect fill="#ADD8E6" height="352.9375" style="stroke:none;stroke-width:1.0;" width="1582.5" x="20" y="1060.9141"/><rect fill="#FFE4E1" height="79.5469" style="stroke:#000000;stroke-width:1.5;" width="1002" x="230.5" y="1590.4297"/><rect fill="#F0F8FF" height="158.125" style="stroke:#000000;stroke-width:1.5;" width="835" x="998.5" y="1708.9766"/><rect fill="#F0F8FF" height="224.7031" style="stroke:#000000;stroke-width:1.5;" width="922" x="998.5" y="1906.1016"/><rect fill="#FFE4E1" height="99.3359" style="stroke:#000000;stroke-width:1.5;" width="1002" x="230.5" y="2281.1719"/><line style="stroke:#000000;stroke-width:0.5;stroke-dasharray:5.0,5.0;" x1="126" x2="126" y1="111.5625" y2="2515.0859"/><line style="stroke:#000000;stroke-width:0.5;stroke-dasharray:5.0,5.0;" x1="347.5" x2="347.5" y1="111.5625" y2="2515.0859"/><line style="stroke:#000000;stroke-width:0.5;stroke-dasharray:5.0,5.0;" x1="638.5" x2="638.5" y1="111.5625" y2="2515.0859"/><line style="stroke:#000000;stroke-width:0.5;stroke-dasharray:5.0,5.0;" x1="862.5" x2="862.5" y1="111.5625" y2="2515.0859"/><line style="stroke:#000000;stroke-width:0.5;stroke-dasharray:5.0,5.0;" x1="1115.5" x2="1115.5" y1="111.5625" y2="2515.0859"/><line style="stroke:#000000;stroke-width:0.5;stroke-dasharray:5.0,5.0;" x1="1383.5" x2="1383.5" y1="111.5625" y2="2515.0859"/><line style="stroke:#000000;stroke-width:0.5;stroke-dasharray:5.0,5.0;" x1="1716.5" x2="1716.5" y1="111.5625" y2="2515.0859"/><text fill="#000000" font-family="Aapex" font-size="20" lengthAdjust="spacing" textLength="187" x="30" y="83.5645">Akteur in der Rolle</text><text fill="#000000" font-family="Aapex" font-size="20" lengthAdjust="spacing" textLength="159" x="44" y="106.8457">User / User-HBA</text><ellipse cx="126.5" cy="13.5" fill="#DCDCDC" rx="8" ry="8" style="stroke:#000000;stroke-width:0.5;"/><path d="M126.5,21.5 L126.5,48.5 M113.5,29.5 L139.5,29.5 M126.5,48.5 L113.5,63.5 M126.5,48.5 L139.5,63.5 " fill="none" style="stroke:#000000;stroke-width:0.5;"/><text fill="#000000" font-family="Aapex" font-size="20" lengthAdjust="spacing" textLength="187" x="30" y="2532.6504">Akteur in der Rolle</text><text fill="#000000" font-family="Aapex" font-size="20" lengthAdjust="spacing" textLength="159" x="44" y="2555.9316">User / User-HBA</text><ellipse cx="126.5" cy="2569.1484" fill="#DCDCDC" rx="8" ry="8" style="stroke:#000000;stroke-width:0.5;"/><path d="M126.5,2577.1484 L126.5,2604.1484 M113.5,2585.1484 L139.5,2585.1484 M126.5,2604.1484 L113.5,2619.1484 M126.5,2604.1484 L139.5,2619.1484 " fill="none" style="stroke:#000000;stroke-width:0.5;"/><rect fill="#EFEFFF" height="37.2813" rx="2.5" ry="2.5" style="stroke:#000000;stroke-width:0.5;" width="214" x="240.5" y="73.2813"/><text fill="#000000" font-family="Impact" font-size="20" lengthAdjust="spacing" textLength="198" x="248.5" y="98.8457">TI-Messenger-Client</text><rect fill="#EFEFFF" height="37.2813" rx="2.5" ry="2.5" style="stroke:#000000;stroke-width:0.5;" width="214" x="240.5" y="2514.0859"/><text fill="#000000" font-family="Impact" font-size="20" lengthAdjust="spacing" textLength="198" x="248.5" y="2539.6504">TI-Messenger-Client</text><rect fill="#EFEFFF" height="37.2813" rx="2.5" ry="2.5" style="stroke:#000000;stroke-width:0.5;" width="214" x="531.5" y="73.2813"/><text fill="#000000" font-family="Impact" font-size="20" lengthAdjust="spacing" textLength="167" x="555" y="98.8457">Messenger Proxy</text><rect fill="#EFEFFF" height="37.2813" rx="2.5" ry="2.5" style="stroke:#000000;stroke-width:0.5;" width="214" x="531.5" y="2514.0859"/><text fill="#000000" font-family="Impact" font-size="20" lengthAdjust="spacing" textLength="167" x="555" y="2539.6504">Messenger Proxy</text><rect fill="#EFEFFF" height="37.2813" rx="2.5" ry="2.5" style="stroke:#000000;stroke-width:0.5;" width="214" x="755.5" y="73.2813"/><text fill="#000000" font-family="Impact" font-size="20" lengthAdjust="spacing" textLength="189" x="768" y="98.8457">Matrix-Homeserver</text><rect fill="#EFEFFF" height="37.2813" rx="2.5" ry="2.5" style="stroke:#000000;stroke-width:0.5;" width="214" x="755.5" y="2514.0859"/><text fill="#000000" font-family="Impact" font-size="20" lengthAdjust="spacing" textLength="189" x="768" y="2539.6504">Matrix-Homeserver</text><rect fill="#EFEFFF" height="37.2813" rx="2.5" ry="2.5" style="stroke:#000000;stroke-width:0.5;" width="214" x="1008.5" y="73.2813"/><text fill="#000000" font-family="Impact" font-size="20" lengthAdjust="spacing" textLength="108" x="1061.5" y="98.8457">FHIR-Proxy</text><rect fill="#EFEFFF" height="37.2813" rx="2.5" ry="2.5" style="stroke:#000000;stroke-width:0.5;" width="214" x="1008.5" y="2514.0859"/><text fill="#000000" font-family="Impact" font-size="20" lengthAdjust="spacing" textLength="108" x="1061.5" y="2539.6504">FHIR-Proxy</text><rect fill="#EFEFFF" height="37.2813" rx="2.5" ry="2.5" style="stroke:#000000;stroke-width:0.5;" width="214" x="1276.5" y="73.2813"/><text fill="#000000" font-family="Impact" font-size="20" lengthAdjust="spacing" textLength="128" x="1319.5" y="98.8457">Auth-Service</text><rect fill="#EFEFFF" height="37.2813" rx="2.5" ry="2.5" style="stroke:#000000;stroke-width:0.5;" width="214" x="1276.5" y="2514.0859"/><text fill="#000000" font-family="Impact" font-size="20" lengthAdjust="spacing" textLength="128" x="1319.5" y="2539.6504">Auth-Service</text><rect fill="#EFEFFF" height="37.2813" rx="2.5" ry="2.5" style="stroke:#000000;stroke-width:0.5;" width="214" x="1609.5" y="73.2813"/><text fill="#000000" font-family="Impact" font-size="20" lengthAdjust="spacing" textLength="145" x="1644" y="98.8457">FHIR-Directory</text><rect fill="#EFEFFF" height="37.2813" rx="2.5" ry="2.5" style="stroke:#000000;stroke-width:0.5;" width="214" x="1609.5" y="2514.0859"/><text fill="#000000" font-family="Impact" font-size="20" lengthAdjust="spacing" textLength="145" x="1644" y="2539.6504">FHIR-Directory</text><rect fill="#DCDCDC" height="2350.5234" style="stroke:#000000;stroke-width:1.0;" width="10" x="342.5" y="121.5625"/><rect fill="#DCDCDC" height="126.3672" style="stroke:#000000;stroke-width:1.0;" width="10" x="633.5" y="524.6875"/><rect fill="#DCDCDC" height="148.1563" style="stroke:#000000;stroke-width:1.0;" width="10" x="633.5" y="1132.3281"/><rect fill="#DCDCDC" height="58.7891" style="stroke:#000000;stroke-width:1.0;" width="10" x="857.5" y="558.4766"/><rect fill="#DCDCDC" height="80.5781" style="stroke:#000000;stroke-width:1.0;" width="10" x="857.5" y="1166.1172"/><rect fill="#DCDCDC" height="959.6563" style="stroke:#000000;stroke-width:1.0;" width="10" x="1110.5" y="1478.6406"/><rect fill="#DCDCDC" height="671.0078" style="stroke:#000000;stroke-width:1.0;" width="10" x="1378.5" y="709.8438"/><rect fill="#DCDCDC" height="33.7891" style="stroke:#000000;stroke-width:1.0;" width="10" x="1711.5" y="1800.3125"/><rect fill="#DCDCDC" height="120.1563" style="stroke:#000000;stroke-width:1.0;" width="10" x="1711.5" y="1977.6484"/><path d="M27,151.5625 L27,211.5625 L961,211.5625 L961,161.5625 L951,151.5625 L27,151.5625 " fill="#FEFFDD" style="stroke:#181818;stroke-width:0.5;"/><path d="M951,151.5625 L951,161.5625 L961,161.5625 L951,151.5625 " fill="#FEFFDD" style="stroke:#181818;stroke-width:0.5;"/><text fill="#000000" font-family="sans-serif" font-size="13" lengthAdjust="spacing" textLength="4" x="228.25" y="168.6294"> </text><text fill="#000000" font-family="sans-serif" font-size="17" lengthAdjust="spacing" textLength="523" x="228.25" y="187.4751">Der Akteur ist erfolgreich beim Messenger-Service angemeldet</text><text fill="#000000" font-family="sans-serif" font-size="13" lengthAdjust="spacing" textLength="4" x="228.25" y="203.5513"> </text><polygon fill="#000000" points="330.5,302.9844,340.5,306.9844,330.5,310.9844,334.5,306.9844" style="stroke:#000000;stroke-width:1.0;"/><line style="stroke:#000000;stroke-width:1.0;" x1="126.5" x2="336.5" y1="306.9844" y2="306.9844"/><text fill="#000000" font-family="sans-serif" font-size="17" lengthAdjust="spacing" textLength="158" x="133.5" y="261.397">Suchparameter für</text><text fill="#000000" font-family="sans-serif" font-size="17" lengthAdjust="spacing" textLength="142" x="133.5" y="281.186">FHIR-Ressourcen</text><text fill="#000000" font-family="sans-serif" font-size="17" lengthAdjust="spacing" textLength="77" x="138.5" y="300.9751">eingeben</text><line style="stroke:#000000;stroke-width:1.0;" x1="352.5" x2="394.5" y1="380.3516" y2="380.3516"/><line style="stroke:#000000;stroke-width:1.0;" x1="394.5" x2="394.5" y1="380.3516" y2="393.3516"/><line style="stroke:#000000;stroke-width:1.0;" x1="353.5" x2="394.5" y1="393.3516" y2="393.3516"/><polygon fill="#000000" points="363.5,389.3516,353.5,393.3516,363.5,397.3516,359.5,393.3516" style="stroke:#000000;stroke-width:1.0;"/><text fill="#000000" font-family="sans-serif" font-size="17" lengthAdjust="spacing" textLength="185" x="359.5" y="334.7642">prüfe ob noch gültiges</text><text fill="#000000" font-family="sans-serif" font-size="17" lengthAdjust="spacing" textLength="195" x="359.5" y="354.5532">tim-search-accesstoken</text><text fill="#000000" font-family="sans-serif" font-size="17" lengthAdjust="spacing" textLength="64" x="359.5" y="374.3423">vorliegt</text><path d="M10,433.3516 L74,433.3516 L74,440.4844 L64,450.4844 L10,450.4844 L10,433.3516 " fill="#D3D3D3" style="stroke:#000000;stroke-width:1.5;"/><rect fill="none" height="987.5" style="stroke:#000000;stroke-width:1.5;" width="1604.5" x="10" y="433.3516"/><text fill="#000000" font-family="sans-serif" font-size="13" font-weight="bold" lengthAdjust="spacing" textLength="19" x="25" y="446.4185">alt</text><text fill="#000000" font-family="sans-serif" font-size="11" font-weight="bold" lengthAdjust="spacing" textLength="5" x="89" y="451.3823">[</text><text fill="#000000" font-family="sans-serif" font-size="16" font-weight="bold" lengthAdjust="spacing" textLength="434" x="94" y="450.2031">kein gültiges tim-search-accesstoken vorhanden</text><text fill="#000000" font-family="sans-serif" font-size="11" font-weight="bold" lengthAdjust="spacing" textLength="5" x="528" y="451.3823">]</text><polygon fill="#000000" points="621.5,520.6875,631.5,524.6875,621.5,528.6875,625.5,524.6875" style="stroke:#000000;stroke-width:1.0;"/><line style="stroke:#000000;stroke-width:1.0;" x1="352.5" x2="627.5" y1="524.6875" y2="524.6875"/><text fill="#000000" font-family="sans-serif" font-size="17" lengthAdjust="spacing" textLength="210" x="359.5" y="498.8892">GET /_matrix/client/user/</text><text fill="#000000" font-family="sans-serif" font-size="17" lengthAdjust="spacing" textLength="262" x="359.5" y="518.6782">{userId}/openid/request_token</text><polygon fill="#000000" points="845.5,554.4766,855.5,558.4766,845.5,562.4766,849.5,558.4766" style="stroke:#000000;stroke-width:1.0;"/><line style="stroke:#000000;stroke-width:1.0;" x1="643.5" x2="851.5" y1="558.4766" y2="558.4766"/><text fill="#000000" font-family="sans-serif" font-size="17" lengthAdjust="spacing" textLength="117" x="650.5" y="552.4673">HTTP Forward</text><polygon fill="#000000" points="654.5,613.2656,644.5,617.2656,654.5,621.2656,650.5,617.2656" style="stroke:#000000;stroke-width:1.0;"/><line style="stroke:#000000;stroke-width:1.0;stroke-dasharray:2.0,2.0;" x1="648.5" x2="861.5" y1="617.2656" y2="617.2656"/><text fill="#000000" font-family="sans-serif" font-size="17" lengthAdjust="spacing" textLength="180" x="675.5" y="611.2563">Matrix-OpenID-Token</text><polygon fill="#000000" points="363.5,647.0547,353.5,651.0547,363.5,655.0547,359.5,651.0547" style="stroke:#000000;stroke-width:1.0;"/><line style="stroke:#000000;stroke-width:1.0;stroke-dasharray:2.0,2.0;" x1="357.5" x2="637.5" y1="651.0547" y2="651.0547"/><text fill="#000000" font-family="sans-serif" font-size="17" lengthAdjust="spacing" textLength="142" x="489.5" y="645.0454">HTTP(S) Forward</text><polygon fill="#000000" points="1366.5,705.8438,1376.5,709.8438,1366.5,713.8438,1370.5,709.8438" style="stroke:#000000;stroke-width:1.0;"/><line style="stroke:#000000;stroke-width:1.0;" x1="352.5" x2="1372.5" y1="709.8438" y2="709.8438"/><text fill="#000000" font-family="sans-serif" font-size="17" lengthAdjust="spacing" textLength="545" x="359.5" y="703.8345">GET /tim-authenticate... (Auth Header mit Matrix-OpenID-Token)</text><line style="stroke:#000000;stroke-width:1.0;" x1="1388.5" x2="1430.5" y1="803" y2="803"/><line style="stroke:#000000;stroke-width:1.0;" x1="1430.5" x2="1430.5" y1="803" y2="816"/><line style="stroke:#000000;stroke-width:1.0;" x1="1389.5" x2="1430.5" y1="816" y2="816"/><polygon fill="#000000" points="1399.5,812,1389.5,816,1399.5,820,1395.5,816" style="stroke:#000000;stroke-width:1.0;"/><text fill="#000000" font-family="sans-serif" font-size="17" lengthAdjust="spacing" textLength="69" x="1395.5" y="737.6235">Prüfe ob</text><text fill="#000000" font-family="sans-serif" font-size="17" lengthAdjust="spacing" textLength="202" x="1395.5" y="757.4126">Matrix-Domain aus dem</text><text fill="#000000" font-family="sans-serif" font-size="17" lengthAdjust="spacing" textLength="201" x="1395.5" y="777.2017">Matrix-OpenID-Token in</text><text fill="#000000" font-family="sans-serif" font-size="17" lengthAdjust="spacing" textLength="202" x="1395.5" y="796.9907">Föderation enthalten ist</text><path d="M20,856 L84,856 L84,863.1328 L74,873.1328 L20,873.1328 L20,856 " fill="#D3D3D3" style="stroke:#000000;stroke-width:1.5;"/><rect fill="none" height="557.8516" style="stroke:#000000;stroke-width:1.5;" width="1582.5" x="20" y="856"/><text fill="#000000" font-family="sans-serif" font-size="13" font-weight="bold" lengthAdjust="spacing" textLength="19" x="35" y="869.0669">alt</text><text fill="#000000" font-family="sans-serif" font-size="11" font-weight="bold" lengthAdjust="spacing" textLength="5" x="99" y="874.0308">[</text><text fill="#000000" font-family="sans-serif" font-size="16" font-weight="bold" lengthAdjust="spacing" textLength="427" x="104" y="872.8516">Matrix-Domain nicht in der Föderation enthalten</text><text fill="#000000" font-family="sans-serif" font-size="11" font-weight="bold" lengthAdjust="spacing" textLength="5" x="531" y="874.0308">]</text><polygon fill="#000000" points="363.5,943.3359,353.5,947.3359,363.5,951.3359,359.5,947.3359" style="stroke:#000000;stroke-width:1.0;"/><line style="stroke:#000000;stroke-width:1.0;stroke-dasharray:2.0,2.0;" x1="357.5" x2="1377.5" y1="947.3359" y2="947.3359"/><text fill="#000000" font-family="sans-serif" font-size="17" lengthAdjust="spacing" textLength="81" x="1258.5" y="921.5376">HTTP 401</text><text fill="#000000" font-family="sans-serif" font-size="17" lengthAdjust="spacing" textLength="113" x="1258.5" y="941.3267">Unauthorized</text><line style="stroke:#000000;stroke-width:1.0;" x1="352.5" x2="394.5" y1="981.125" y2="981.125"/><line style="stroke:#000000;stroke-width:1.0;" x1="394.5" x2="394.5" y1="981.125" y2="994.125"/><line style="stroke:#000000;stroke-width:1.0;" x1="353.5" x2="394.5" y1="994.125" y2="994.125"/><polygon fill="#000000" points="363.5,990.125,353.5,994.125,363.5,998.125,359.5,994.125" style="stroke:#000000;stroke-width:1.0;"/><text fill="#000000" font-family="sans-serif" font-size="17" lengthAdjust="spacing" textLength="140" x="359.5" y="975.1157">Session beenden</text><polygon fill="#000000" points="137.5,1023.9141,127.5,1027.9141,137.5,1031.9141,133.5,1027.9141" style="stroke:#000000;stroke-width:1.0;"/><line style="stroke:#000000;stroke-width:1.0;stroke-dasharray:2.0,2.0;" x1="131.5" x2="341.5" y1="1027.9141" y2="1027.9141"/><text fill="#000000" font-family="sans-serif" font-size="17" lengthAdjust="spacing" textLength="192" x="143.5" y="1021.9048">Suche nicht erfolgreich</text><line style="stroke:#000000;stroke-width:1.0;stroke-dasharray:2.0,2.0;" x1="20" x2="1602.5" y1="1061.9141" y2="1061.9141"/><text fill="#000000" font-family="sans-serif" font-size="11" font-weight="bold" lengthAdjust="spacing" textLength="5" x="25" y="1077.9448">[</text><text fill="#000000" font-family="sans-serif" font-size="16" font-weight="bold" lengthAdjust="spacing" textLength="427" x="30" y="1076.7656">matrix_server_name in der Föderation enthalten</text><text fill="#000000" font-family="sans-serif" font-size="11" font-weight="bold" lengthAdjust="spacing" textLength="5" x="457" y="1077.9448">]</text><polygon fill="#000000" points="654.5,1128.3281,644.5,1132.3281,654.5,1136.3281,650.5,1132.3281" style="stroke:#000000;stroke-width:1.0;"/><line style="stroke:#000000;stroke-width:1.0;" x1="648.5" x2="1377.5" y1="1132.3281" y2="1132.3281"/><text fill="#000000" font-family="sans-serif" font-size="17" lengthAdjust="spacing" textLength="377" x="994.5" y="1126.3188">GET /openid/userinfo/?Matrix-OpenID-Token)</text><polygon fill="#000000" points="845.5,1162.1172,855.5,1166.1172,845.5,1170.1172,849.5,1166.1172" style="stroke:#000000;stroke-width:1.0;"/><line style="stroke:#000000;stroke-width:1.0;" x1="643.5" x2="851.5" y1="1166.1172" y2="1166.1172"/><text fill="#000000" font-family="sans-serif" font-size="17" lengthAdjust="spacing" textLength="142" x="650.5" y="1160.1079">HTTP(S) Forward</text><line style="stroke:#000000;stroke-width:1.0;" x1="867.5" x2="909.5" y1="1199.9063" y2="1199.9063"/><line style="stroke:#000000;stroke-width:1.0;" x1="909.5" x2="909.5" y1="1199.9063" y2="1212.9063"/><line style="stroke:#000000;stroke-width:1.0;" x1="868.5" x2="909.5" y1="1212.9063" y2="1212.9063"/><polygon fill="#000000" points="878.5,1208.9063,868.5,1212.9063,878.5,1216.9063,874.5,1212.9063" style="stroke:#000000;stroke-width:1.0;"/><text fill="#000000" font-family="sans-serif" font-size="17" lengthAdjust="spacing" textLength="229" x="874.5" y="1193.897">prüfe Matrix-OpenID-Token</text><polygon fill="#000000" points="654.5,1242.6953,644.5,1246.6953,654.5,1250.6953,650.5,1246.6953" style="stroke:#000000;stroke-width:1.0;"/><line style="stroke:#000000;stroke-width:1.0;stroke-dasharray:2.0,2.0;" x1="648.5" x2="861.5" y1="1246.6953" y2="1246.6953"/><text fill="#000000" font-family="sans-serif" font-size="17" lengthAdjust="spacing" textLength="149" x="706.5" y="1240.686">MXID des Nutzers</text><polygon fill="#000000" points="1366.5,1276.4844,1376.5,1280.4844,1366.5,1284.4844,1370.5,1280.4844" style="stroke:#000000;stroke-width:1.0;"/><line style="stroke:#000000;stroke-width:1.0;stroke-dasharray:2.0,2.0;" x1="638.5" x2="1372.5" y1="1280.4844" y2="1280.4844"/><text fill="#000000" font-family="sans-serif" font-size="17" lengthAdjust="spacing" textLength="142" x="645.5" y="1274.4751">HTTP(S) Forward</text><line style="stroke:#000000;stroke-width:1.0;" x1="1388.5" x2="1430.5" y1="1334.0625" y2="1334.0625"/><line style="stroke:#000000;stroke-width:1.0;" x1="1430.5" x2="1430.5" y1="1334.0625" y2="1347.0625"/><line style="stroke:#000000;stroke-width:1.0;" x1="1389.5" x2="1430.5" y1="1347.0625" y2="1347.0625"/><polygon fill="#000000" points="1399.5,1343.0625,1389.5,1347.0625,1399.5,1351.0625,1395.5,1347.0625" style="stroke:#000000;stroke-width:1.0;"/><text fill="#000000" font-family="sans-serif" font-size="17" lengthAdjust="spacing" textLength="66" x="1395.5" y="1308.2642">erzeuge</text><text fill="#000000" font-family="sans-serif" font-size="17" lengthAdjust="spacing" textLength="195" x="1395.5" y="1328.0532">tim-search-accesstoken</text><polygon fill="#000000" points="363.5,1376.8516,353.5,1380.8516,363.5,1384.8516,359.5,1380.8516" style="stroke:#000000;stroke-width:1.0;"/><line style="stroke:#000000;stroke-width:1.0;stroke-dasharray:2.0,2.0;" x1="357.5" x2="1382.5" y1="1380.8516" y2="1380.8516"/><text fill="#000000" font-family="sans-serif" font-size="17" lengthAdjust="spacing" textLength="443" x="933.5" y="1374.8423">tim-search-accesstoken (inklusive MXID des Nutzers)</text><polygon fill="#000000" points="1098.5,1474.6406,1108.5,1478.6406,1098.5,1482.6406,1102.5,1478.6406" style="stroke:#000000;stroke-width:1.0;"/><line style="stroke:#000000;stroke-width:1.0;" x1="352.5" x2="1104.5" y1="1478.6406" y2="1478.6406"/><text fill="#000000" font-family="sans-serif" font-size="17" lengthAdjust="spacing" textLength="584" x="359.5" y="1472.6313">POST /search?... (Auth Header mit tim-search-accesstoken inkl. MXID)</text><line style="stroke:#000000;stroke-width:1.0;" x1="1120.5" x2="1162.5" y1="1537.4297" y2="1537.4297"/><line style="stroke:#000000;stroke-width:1.0;" x1="1162.5" x2="1162.5" y1="1537.4297" y2="1550.4297"/><line style="stroke:#000000;stroke-width:1.0;" x1="1121.5" x2="1162.5" y1="1550.4297" y2="1550.4297"/><polygon fill="#000000" points="1131.5,1546.4297,1121.5,1550.4297,1131.5,1554.4297,1127.5,1550.4297" style="stroke:#000000;stroke-width:1.0;"/><text fill="#000000" font-family="sans-serif" font-size="17" lengthAdjust="spacing" textLength="244" x="1127.5" y="1531.4204">prüfe tim-search-accesstoken</text><path d="M230.5,1590.4297 L300.5,1590.4297 L300.5,1597.5625 L290.5,1607.5625 L230.5,1607.5625 L230.5,1590.4297 " fill="#D3D3D3" style="stroke:#000000;stroke-width:1.5;"/><rect fill="none" height="79.5469" style="stroke:#000000;stroke-width:1.5;" width="1002" x="230.5" y="1590.4297"/><text fill="#000000" font-family="sans-serif" font-size="13" font-weight="bold" lengthAdjust="spacing" textLength="25" x="245.5" y="1603.4966">opt</text><text fill="#000000" font-family="sans-serif" font-size="11" font-weight="bold" lengthAdjust="spacing" textLength="5" x="315.5" y="1608.4604">[</text><text fill="#000000" font-family="sans-serif" font-size="16" font-weight="bold" lengthAdjust="spacing" textLength="74" x="320.5" y="1607.2813">Abbruch</text><text fill="#000000" font-family="sans-serif" font-size="11" font-weight="bold" lengthAdjust="spacing" textLength="5" x="394.5" y="1608.4604">]</text><polygon fill="#000000" points="363.5,1632.9766,353.5,1636.9766,363.5,1640.9766,359.5,1636.9766" style="stroke:#000000;stroke-width:1.0;"/><line style="stroke:#000000;stroke-width:1.0;stroke-dasharray:2.0,2.0;" x1="357.5" x2="1109.5" y1="1636.9766" y2="1636.9766"/><text fill="#000000" font-family="sans-serif" font-size="17" lengthAdjust="spacing" textLength="307" x="796.5" y="1630.9673">kein gültiges tim-search-accesstoken</text><path d="M998.5,1708.9766 L1062.5,1708.9766 L1062.5,1716.1094 L1052.5,1726.1094 L998.5,1726.1094 L998.5,1708.9766 " fill="#D3D3D3" style="stroke:#000000;stroke-width:1.5;"/><rect fill="none" height="158.125" style="stroke:#000000;stroke-width:1.5;" width="835" x="998.5" y="1708.9766"/><text fill="#000000" font-family="sans-serif" font-size="13" font-weight="bold" lengthAdjust="spacing" textLength="19" x="1013.5" y="1722.0435">alt</text><text fill="#000000" font-family="sans-serif" font-size="11" font-weight="bold" lengthAdjust="spacing" textLength="5" x="1077.5" y="1727.0073">[</text><text fill="#000000" font-family="sans-serif" font-size="16" font-weight="bold" lengthAdjust="spacing" textLength="391" x="1082.5" y="1725.8281">HealthcareService-Einträge werden gesucht</text><text fill="#000000" font-family="sans-serif" font-size="11" font-weight="bold" lengthAdjust="spacing" textLength="5" x="1473.5" y="1727.0073">]</text><polygon fill="#000000" points="1699.5,1796.3125,1709.5,1800.3125,1699.5,1804.3125,1703.5,1800.3125" style="stroke:#000000;stroke-width:1.0;"/><line style="stroke:#000000;stroke-width:1.0;" x1="1120.5" x2="1705.5" y1="1800.3125" y2="1800.3125"/><text fill="#000000" font-family="sans-serif" font-size="17" lengthAdjust="spacing" textLength="282" x="1127.5" y="1774.5142">POST /search/HealthcareService/?</text><text fill="#000000" font-family="sans-serif" font-size="17" lengthAdjust="spacing" textLength="272" x="1127.5" y="1794.3032">Finde Datensatz für TelematikID</text><polygon fill="#000000" points="1131.5,1830.1016,1121.5,1834.1016,1131.5,1838.1016,1127.5,1834.1016" style="stroke:#000000;stroke-width:1.0;"/><line style="stroke:#000000;stroke-width:1.0;stroke-dasharray:2.0,2.0;" x1="1125.5" x2="1715.5" y1="1834.1016" y2="1834.1016"/><text fill="#000000" font-family="sans-serif" font-size="17" lengthAdjust="spacing" textLength="139" x="1570.5" y="1828.0923">Result Body json</text><path d="M998.5,1906.1016 L1062.5,1906.1016 L1062.5,1913.2344 L1052.5,1923.2344 L998.5,1923.2344 L998.5,1906.1016 " fill="#D3D3D3" style="stroke:#000000;stroke-width:1.5;"/><rect fill="none" height="224.7031" style="stroke:#000000;stroke-width:1.5;" width="922" x="998.5" y="1906.1016"/><text fill="#000000" font-family="sans-serif" font-size="13" font-weight="bold" lengthAdjust="spacing" textLength="19" x="1013.5" y="1919.1685">alt</text><text fill="#000000" font-family="sans-serif" font-size="11" font-weight="bold" lengthAdjust="spacing" textLength="5" x="1077.5" y="1924.1323">[</text><text fill="#000000" font-family="sans-serif" font-size="16" font-weight="bold" lengthAdjust="spacing" textLength="374" x="1082.5" y="1922.9531">PractitionerRole-Einträge werden gesucht</text><text fill="#000000" font-family="sans-serif" font-size="11" font-weight="bold" lengthAdjust="spacing" textLength="5" x="1456.5" y="1924.1323">]</text><polygon fill="#000000" points="1699.5,1973.6484,1709.5,1977.6484,1699.5,1981.6484,1703.5,1977.6484" style="stroke:#000000;stroke-width:1.0;"/><line style="stroke:#000000;stroke-width:1.0;" x1="1120.5" x2="1705.5" y1="1977.6484" y2="1977.6484"/><text fill="#000000" font-family="sans-serif" font-size="17" lengthAdjust="spacing" textLength="572" x="1127.5" y="1971.6392">POST /search/PractitionerRole/? ...&lt;MXID des anfragenden Nutzers&gt;</text><line style="stroke:#000000;stroke-width:1.0;" x1="1721.5" x2="1763.5" y1="2051.0156" y2="2051.0156"/><line style="stroke:#000000;stroke-width:1.0;" x1="1763.5" x2="1763.5" y1="2051.0156" y2="2064.0156"/><line style="stroke:#000000;stroke-width:1.0;" x1="1722.5" x2="1763.5" y1="2064.0156" y2="2064.0156"/><polygon fill="#000000" points="1732.5,2060.0156,1722.5,2064.0156,1732.5,2068.0156,1728.5,2064.0156" style="stroke:#000000;stroke-width:1.0;"/><text fill="#000000" font-family="sans-serif" font-size="17" lengthAdjust="spacing" textLength="175" x="1728.5" y="2005.4282">Prüfung, ob MXID im</text><text fill="#000000" font-family="sans-serif" font-size="17" lengthAdjust="spacing" textLength="158" x="1728.5" y="2025.2173">TIEndpoint-Eintrag</text><text fill="#000000" font-family="sans-serif" font-size="17" lengthAdjust="spacing" textLength="115" x="1728.5" y="2045.0063">vorhanden ist</text><polygon fill="#000000" points="1131.5,2093.8047,1121.5,2097.8047,1131.5,2101.8047,1127.5,2097.8047" style="stroke:#000000;stroke-width:1.0;"/><line style="stroke:#000000;stroke-width:1.0;stroke-dasharray:2.0,2.0;" x1="1125.5" x2="1715.5" y1="2097.8047" y2="2097.8047"/><text fill="#000000" font-family="sans-serif" font-size="17" lengthAdjust="spacing" textLength="358" x="1351.5" y="2091.7954">Result Body json mit TIPractitioner-Eintrag</text><line style="stroke:#000000;stroke-width:1.0;" x1="1120.5" x2="1162.5" y1="2228.1719" y2="2228.1719"/><line style="stroke:#000000;stroke-width:1.0;" x1="1162.5" x2="1162.5" y1="2228.1719" y2="2241.1719"/><line style="stroke:#000000;stroke-width:1.0;" x1="1121.5" x2="1162.5" y1="2241.1719" y2="2241.1719"/><polygon fill="#000000" points="1131.5,2237.1719,1121.5,2241.1719,1131.5,2245.1719,1127.5,2241.1719" style="stroke:#000000;stroke-width:1.0;"/><text fill="#000000" font-family="sans-serif" font-size="17" lengthAdjust="spacing" textLength="235" x="1127.5" y="2182.5845">Prüfung, ob MXID enthalten</text><text fill="#000000" font-family="sans-serif" font-size="17" lengthAdjust="spacing" textLength="32" x="1127.5" y="2202.3735">und</text><text fill="#000000" font-family="sans-serif" font-size="17" lengthAdjust="spacing" textLength="235" x="1127.5" y="2222.1626">TIEndpoint.status == active</text><path d="M230.5,2281.1719 L300.5,2281.1719 L300.5,2288.3047 L290.5,2298.3047 L230.5,2298.3047 L230.5,2281.1719 " fill="#D3D3D3" style="stroke:#000000;stroke-width:1.5;"/><rect fill="none" height="99.3359" style="stroke:#000000;stroke-width:1.5;" width="1002" x="230.5" y="2281.1719"/><text fill="#000000" font-family="sans-serif" font-size="13" font-weight="bold" lengthAdjust="spacing" textLength="25" x="245.5" y="2294.2388">opt</text><text fill="#000000" font-family="sans-serif" font-size="11" font-weight="bold" lengthAdjust="spacing" textLength="5" x="315.5" y="2299.2026">[</text><text fill="#000000" font-family="sans-serif" font-size="16" font-weight="bold" lengthAdjust="spacing" textLength="74" x="320.5" y="2298.0234">Abbruch</text><text fill="#000000" font-family="sans-serif" font-size="11" font-weight="bold" lengthAdjust="spacing" textLength="5" x="394.5" y="2299.2026">]</text><polygon fill="#000000" points="363.5,2343.5078,353.5,2347.5078,363.5,2351.5078,359.5,2347.5078" style="stroke:#000000;stroke-width:1.0;"/><line style="stroke:#000000;stroke-width:1.0;stroke-dasharray:2.0,2.0;" x1="357.5" x2="1109.5" y1="2347.5078" y2="2347.5078"/><text fill="#000000" font-family="sans-serif" font-size="17" lengthAdjust="spacing" textLength="275" x="823.5" y="2321.7095">kein passender Eintrag gefunden</text><text fill="#000000" font-family="sans-serif" font-size="17" lengthAdjust="spacing" textLength="266" x="823.5" y="2341.4985">oder TIEndpoint.status == false</text><polygon fill="#000000" points="363.5,2434.2969,353.5,2438.2969,363.5,2442.2969,359.5,2438.2969" style="stroke:#000000;stroke-width:1.0;"/><line style="stroke:#000000;stroke-width:1.0;stroke-dasharray:2.0,2.0;" x1="357.5" x2="1114.5" y1="2438.2969" y2="2438.2969"/><text fill="#000000" font-family="sans-serif" font-size="17" lengthAdjust="spacing" textLength="240" x="868.5" y="2432.2876">MXID des gesuchten Akteurs</text><polygon fill="#000000" points="137.5,2468.0859,127.5,2472.0859,137.5,2476.0859,133.5,2472.0859" style="stroke:#000000;stroke-width:1.0;"/><line style="stroke:#000000;stroke-width:1.0;stroke-dasharray:2.0,2.0;" x1="131.5" x2="346.5" y1="2472.0859" y2="2472.0859"/><text fill="#000000" font-family="sans-serif" font-size="17" lengthAdjust="spacing" textLength="51" x="289.5" y="2466.0767">status</text><!--MD5=[5b486bf2d9bd9ea387f9f6cb670f3bc1]
@startuml
skinparam sequenceMessageAlign direction
skinparam minClassWidth 200
skinparam BoxPadding 1
skinparam sequenceReferenceHeaderBackgroundColor palegreen
scale max 2048 width

skinparam sequence {
ArrowColor black
ArrowFontSize 17
ActorBorderColor black
LifeLineBorderColor black
LifeLineBackgroundColor Gainsboro

ParticipantBorderColor Motivation
ParticipantBackgroundColor Motivation
ParticipantFontName Impact
ParticipantFontSize 20
ParticipantFontColor black
ParticipantBorderColor Black
ParticipantBackgroundColor MOTIVATION

ActorBackgroundColor Gainsboro
ActorFontColor black
ActorFontSize 20
ActorFontName Aapex
}
    actor U as "Akteur in der Rolle\nUser / User-HBA"
    participant cl as "TI-Messenger-Client"
    participant mp as "Messenger Proxy"
    participant hs as "Matrix-Homeserver"
    box <size:18>VZD-FHIR-Directory</size> #WhiteSmoke
      participant fp as "FHIR-Proxy"
      participant au as "Auth-Service"
      participant fd as "FHIR-Directory"
    end box

|||
note over U, hs: \n<size:17>Der Akteur ist erfolgreich beim Messenger-Service angemeldet</size>\n
|||

      activate cl
    U->cl:Suchparameter für \nFHIR-Ressourcen \n eingeben
    cl->cl: prüfe ob noch gültiges \ntim-search-accesstoken\nvorliegt

|||
alt#LightGrey #AliceBlue <size:16>kein gültiges tim-search-accesstoken vorhanden</size>
|||
      

    cl->mp: GET /_matrix/client/user/\n{userId}/openid/request_token 
      activate mp
    mp->hs: HTTP Forward 

      activate hs
    |||
    hs- ->mp: Matrix-OpenID-Token
      deactivate hs
    mp- ->cl: HTTP(S) Forward
      deactivate mp
      
    |||
    cl->au: GET /tim-authenticate... (Auth Header mit Matrix-OpenID-Token)
      activate au
    au->au: Prüfe ob \nMatrix-Domain aus dem \nMatrix-OpenID-Token in \nFöderation enthalten ist

|||
alt#LightGrey #LightBlue <size:16>Matrix-Domain nicht in der Föderation enthalten</size>
|||    

    au- ->cl: HTTP 401 \nUnauthorized
    cl->cl: Session beenden
    cl- ->U: Suche nicht erfolgreich
    
    |||
    else <size:16>matrix_server_name in der Föderation enthalten</size>
    |||
        au->mp: GET /openid/userinfo/?Matrix-OpenID-Token)
          activate mp
        mp->hs: HTTP(S) Forward
          activate hs
        hs->hs: prüfe Matrix-OpenID-Token
        hs- ->mp: MXID des Nutzers
          deactivate hs
        mp- ->au: HTTP(S) Forward
          deactivate mp
        au->au: erzeuge \ntim-search-accesstoken 
        au- ->cl: tim-search-accesstoken (inklusive MXID des Nutzers)
          deactivate au
          deactivate fp
    |||
    end
end

    |||
    cl->fp: POST /search?... (Auth Header mit tim-search-accesstoken inkl. MXID)
    |||
      activate fp
    fp->fp: prüfe tim-search-accesstoken
    |||
    opt#LightGrey #MistyRose <size:16>Abbruch</size>
      fp- ->cl: kein gültiges tim-search-accesstoken 
    |||
    end
   
|||
alt#LightGrey #AliceBlue <size:16>HealthcareService-Einträge werden gesucht</size>
|||
    fp->fd: POST /search/HealthcareService/? \nFinde Datensatz für TelematikID 
      activate fd
    fd- ->fp: Result Body json
      deactivate fd
|||
end

|||
alt#LightGrey #AliceBlue <size:16>PractitionerRole-Einträge werden gesucht</size>
|||
    fp->fd: POST /search/PractitionerRole/? ...<MXID des anfragenden Nutzers> 
      activate fd
    fd->fd: Prüfung, ob MXID im \nTIEndpoint-Eintrag \nvorhanden ist
    fd- ->fp: Result Body json mit TIPractitioner-Eintrag
      deactivate fd
|||
end
|||

  fp->fp: Prüfung, ob MXID enthalten \nund \nTIEndpoint.status == active
  |||
  opt#LightGrey #MistyRose <size:16>Abbruch</size>
    fp- ->cl: kein passender Eintrag gefunden \noder TIEndpoint.status == false
    |||
  end
  |||

  fp- ->cl: MXID des gesuchten Akteurs
  deactivate fp
  cl- ->U: status
   |||
    
    deactivate cl

@enduml

PlantUML version 1.2022.5(Sat Apr 30 10:55:52 UTC 2022)
(GPL source distribution)
Java Runtime: OpenJDK Runtime Environment
JVM: OpenJDK 64-Bit Server VM
Default Encoding: UTF-8
Language: en
Country: null
--></g></svg>