<?xml version="1.0" encoding="us-ascii" standalone="no"?><svg xmlns="http://www.w3.org/2000/svg" xmlns:xlink="http://www.w3.org/1999/xlink" contentStyleType="text/css" height="734px" preserveAspectRatio="none" style="width:1466px;height:734px;background:#FFFFFF;" version="1.1" viewBox="0 0 1466 734" width="1466px" zoomAndPan="magnify"><defs/><g><!--cluster Rolle--><g id="cluster_Rolle"><path d="M174,238 L252,238 A7.5,7.5 0 0 1 257,243 L271,282.5938 L366,282.5938 A5,5 0 0 1 371,287.5938 L371,491 A5,5 0 0 1 366,496 L174,496 A5,5 0 0 1 169,491 L169,243 A5,5 0 0 1 174,238 " fill="none" style="stroke:#000000;stroke-width:3.0;"/><line style="stroke:#000000;stroke-width:3.0;" x1="169" x2="271" y1="282.5938" y2="282.5938"/><text fill="#000000" font-family="sans-serif" font-size="28" font-weight="bold" lengthAdjust="spacing" textLength="76" x="177" y="267.9902">Rolle</text></g><!--cluster Anwendungsf?lle--><g id="cluster_Anwendungsf&#228;lle"><path d="M621,12 L897,12 A7.5,7.5 0 0 1 902,17 L916,56.5938 L1447,56.5938 A5,5 0 0 1 1452,61.5938 L1452,715 A5,5 0 0 1 1447,720 L621,720 A5,5 0 0 1 616,715 L616,17 A5,5 0 0 1 621,12 " fill="none" style="stroke:#000000;stroke-width:3.0;"/><line style="stroke:#000000;stroke-width:3.0;" x1="616" x2="916" y1="56.5938" y2="56.5938"/><text fill="#000000" font-family="sans-serif" font-size="28" font-weight="bold" lengthAdjust="spacing" textLength="274" x="624" y="41.9902">Anwendungsf&#228;lle</text></g><!--entity oa--><g id="elem_oa"><ellipse cx="270" cy="343" fill="#DCDCDC" rx="32" ry="32" style="stroke:#000000;stroke-width:3.0;"/><path d="M270,383 C278,383 284,383 292,375 C308,375 324,391 324,407 L324,415 C324,423 316,431 308,431 L232,431 C224,431 216,423 216,415 L216,407 C216,391 232,375 248,375 C256,383 262,383 270,383 " fill="#DCDCDC" style="stroke:#000000;stroke-width:3.0;"/><text fill="#000000" font-family="Aapex" font-size="26" lengthAdjust="spacing" textLength="138" x="201" y="458.1338">Org-Admin</text></g><g id="elem_UC1"><ellipse cx="1033.5145" cy="157.5029" fill="#F0F8FF" rx="353.5145" ry="75.5029" style="stroke:#181818;stroke-width:1.0;"/><text fill="#000000" font-family="sans-serif" font-size="28" font-weight="bold" lengthAdjust="spacing" textLength="190" x="934.5145" y="130.6025">&#171;AF_10103&#187;</text><text fill="#000000" font-family="sans-serif" font-size="28" lengthAdjust="spacing" textLength="8" x="1124.5145" y="130.6025">&#160;</text><text fill="#000000" font-family="sans-serif" font-size="28" lengthAdjust="spacing" textLength="462" x="798.5145" y="163.1963">Authentisieren einer Organisation</text><text fill="#000000" font-family="sans-serif" font-size="28" lengthAdjust="spacing" textLength="340" x="863.5145" y="195.79">am TI-Messenger-Dienst</text></g><g id="elem_UC2"><ellipse cx="1034.0504" cy="386.0101" fill="#F0F8FF" rx="386.0504" ry="82.0101" style="stroke:#181818;stroke-width:1.0;"/><text fill="#000000" font-family="sans-serif" font-size="28" font-weight="bold" lengthAdjust="spacing" textLength="190" x="935.0504" y="359.1097">&#171;AF_10060&#187;</text><text fill="#000000" font-family="sans-serif" font-size="28" lengthAdjust="spacing" textLength="8" x="1125.0504" y="359.1097">&#160;</text><text fill="#000000" font-family="sans-serif" font-size="28" lengthAdjust="spacing" textLength="550" x="755.0504" y="391.7034">Bereitstellung eines Messenger-Service</text><text fill="#000000" font-family="sans-serif" font-size="28" lengthAdjust="spacing" textLength="286" x="891.0504" y="424.2972">f&#252;r eine Organisation</text></g><g id="elem_UC3"><ellipse cx="1033.8843" cy="614.1418" fill="#F1F1F1" rx="312.8843" ry="75.1418" style="stroke:#181818;stroke-width:1.0;"/><text fill="#000000" font-family="sans-serif" font-size="28" font-weight="bold" lengthAdjust="spacing" textLength="190" x="934.8843" y="587.2414">&#171;AF_10059&#187;</text><text fill="#000000" font-family="sans-serif" font-size="28" lengthAdjust="spacing" textLength="8" x="1124.8843" y="587.2414">&#160;</text><text fill="#000000" font-family="sans-serif" font-size="28" lengthAdjust="spacing" textLength="388" x="835.8843" y="619.8351">Organisationsressourcen im</text><text fill="#000000" font-family="sans-serif" font-size="28" lengthAdjust="spacing" textLength="410" x="828.8843" y="652.4289">Verzeichnisdienst hinzuf&#252;gen</text></g><g id="elem_GMN11"><path d="M12,534 L12,614.5313 A0,0 0 0 0 12,614.5313 L528,614.5313 A0,0 0 0 0 528,614.5313 L528,554 L508,534 L278,534 L270,464.42 L262,534 L12,534 A0,0 0 0 0 12,534 " fill="#FEFFDD" style="stroke:#181818;stroke-width:1.0;"/><path d="M508,534 L508,554 L528,554 L508,534 " fill="#FEFFDD" style="stroke:#181818;stroke-width:1.0;"/><text fill="#000000" font-family="sans-serif" font-size="26" lengthAdjust="spacing" textLength="474" x="24" y="568.1338">z. B. Beauftragter Mitarbeiter in einer</text><text fill="#000000" font-family="sans-serif" font-size="26" lengthAdjust="spacing" textLength="162" x="24" y="598.3994">Organisation</text></g><!--link oa to UC1--><g id="link_oa_UC1"><path d="M339.2,359.68 C405.06,334.4 508.58,296.02 600,268 C659.36,249.82 723.92,232.22 784.62,216.64 " fill="none" id="oa-to-UC1" style="stroke:#000000;stroke-width:2.0;"/><polygon fill="#000000" points="794.32,214.16,774.8987,210.8718,784.6321,216.639,778.865,226.3724,794.32,214.16" style="stroke:#000000;stroke-width:2.0;"/></g><!--link oa to UC2--><g id="link_oa_UC2"><path d="M339.44,386 C408.56,386 521.94,386 637.14,386 " fill="none" id="oa-to-UC2" style="stroke:#000000;stroke-width:2.0;"/><polygon fill="#000000" points="647.58,386,629.58,378,637.58,386,629.58,394,647.58,386" style="stroke:#000000;stroke-width:2.0;"/></g><!--link oa to UC3--><g id="link_oa_UC3"><path d="M339.28,411.72 C405.18,436.44 508.74,474.08 600,502 C665.06,521.9 736.3,541.32 801.84,558.26 " fill="none" id="oa-to-UC3" style="stroke:#000000;stroke-width:2.0;"/><polygon fill="#000000" points="812.32,560.94,796.8737,548.7166,802.6339,558.4542,792.8964,564.2144,812.32,560.94" style="stroke:#000000;stroke-width:2.0;"/></g><!--SRC=[XLFRRjf047tVhnYHXxH83XZKLAqY94EK2Yc4gf0yLQe6CpOZx5swkmufLV-cdz6t_5Z7XWINabQohFNSpfcpnwrJTGBJOJ0YvqYdP24y2mz2mIMJTbwYjuvWWFAwP4mjvXAwmPpUmzYcGJJFMKC0aLwJdXSwTGbIbf4wRIcbt9Br2gK7CFR6JlotZ03Nv4nEAgF4WpTWELrucBEbsBFHoiKeLUUjRhtVqTU2T4pmNKNMclN0PCR2BCDukGrS6Uqdl248twge1EiREoTRhxlcXAvPqpyoyf5QK-ZvDli1MRkPiKQfZsWznxn2xUlz8-Fv7YlUzOg3ESUhIigbaZ3CLwBFOQhQfjC-3DTvlq2g_rVoaCzuEhoBfiFnZTg9zUBYLVeGzpcuLRox3rJxHBYY1_L3ALbhYId19oEMaAk3hG-WyMoT1g03W_NYcfKUVpxr5OxYqeEDPlFY8hhw4hR3ThVNQpRXiuuAlo3jsJ5Pqa1oaROq9sfsbUXI8nOwukuA_NOGmacKSKpzhA2ZMEtpzWwhBn3idHUF2yCAoy5-x8JilGoImkJnbwtIVp3P0NR-2_ZctGwmtksi09d2nh8bvvAy8xiXZXTICAyMWWNhJI7OAJrXTKjj3K8GzCfLzyVE_YY_cZQUv6zSWKdWbS7NGcjp1drv28l4Mqozg3fYZtOc2iYPTr9BPPsaaik3Sjfl]--></g></svg>