<?xml version="1.0" encoding="UTF-8" standalone="no"?><svg xmlns="http://www.w3.org/2000/svg" xmlns:xlink="http://www.w3.org/1999/xlink" contentScriptType="application/ecmascript" contentStyleType="text/css" height="734px" preserveAspectRatio="none" style="width:1486px;height:734px;background:#FFFFFF;" version="1.1" viewBox="0 0 1486 734" width="1486px" zoomAndPan="magnify"><defs><filter height="300%" id="f17ybwhxvpww5y" width="300%" x="-1" y="-1"><feGaussianBlur result="blurOut" stdDeviation="4.0"/><feColorMatrix in="blurOut" result="blurOut2" type="matrix" values="0 0 0 0 0 0 0 0 0 0 0 0 0 0 0 0 0 0 .4 0"/><feOffset dx="8.0" dy="8.0" in="blurOut2" result="blurOut3"/><feBlend in="SourceGraphic" in2="blurOut3" mode="normal"/></filter></defs><g><!--MD5=[246d21d283e7f1425940e1b77c3fb026]
cluster Rolle--><polygon fill="#FFFFFF" filter="url(#f17ybwhxvpww5y)" points="169,238,257,238,271,282.5938,371,282.5938,371,496,169,496,169,238" style="stroke:#000000;stroke-width:3.0;"/><line style="stroke:#000000;stroke-width:3.0;" x1="169" x2="271" y1="282.5938" y2="282.5938"/><text fill="#000000" font-family="sans-serif" font-size="28" font-weight="bold" lengthAdjust="spacing" textLength="76" x="177" y="267.9902">Rolle</text><!--MD5=[899f87e56611ae811baaba93b9518920]
cluster Anwendungsfälle--><polygon fill="#FFFFFF" filter="url(#f17ybwhxvpww5y)" points="616,12,902,12,916,56.5938,1452,56.5938,1452,720,616,720,616,12" style="stroke:#000000;stroke-width:3.0;"/><line style="stroke:#000000;stroke-width:3.0;" x1="616" x2="916" y1="56.5938" y2="56.5938"/><text fill="#000000" font-family="sans-serif" font-size="28" font-weight="bold" lengthAdjust="spacing" textLength="274" x="624" y="41.9902">Anwendungsfälle</text><!--MD5=[75736c9a6aeb3d68416f7f0f06ab99dc]
entity oa--><ellipse cx="270" cy="343" fill="#DCDCDC" filter="url(#f17ybwhxvpww5y)" rx="32" ry="32" style="stroke:#000000;stroke-width:3.0;"/><path d="M270,383 C278,383 284,383 292,375 C308,375 324,391 324,407 L324,415 C324,423 316,431 308,431 L232,431 C224,431 216,423 216,415 L216,407 C216,391 232,375 248,375 C256,383 262,383 270,383 " fill="#DCDCDC" filter="url(#f17ybwhxvpww5y)" style="stroke:#000000;stroke-width:3.0;"/><text fill="#000000" font-family="Aapex" font-size="26" lengthAdjust="spacing" textLength="138" x="201" y="458.1338">Org-Admin</text><ellipse cx="1033.5145" cy="157.5029" fill="#F0F8FF" filter="url(#f17ybwhxvpww5y)" rx="353.5145" ry="75.5029" style="stroke:#A80036;stroke-width:3.0;"/><text fill="#000000" font-family="sans-serif" font-size="28" font-weight="bold" lengthAdjust="spacing" textLength="250" x="904.5145" y="130.6025">&lt;&lt;AF_10103&gt;&gt;</text><text fill="#000000" font-family="sans-serif" font-size="28" lengthAdjust="spacing" textLength="0" x="1162.5145" y="130.6025"/><text fill="#000000" font-family="sans-serif" font-size="28" lengthAdjust="spacing" textLength="462" x="798.5145" y="163.1963">Authentisieren einer Organisation</text><text fill="#000000" font-family="sans-serif" font-size="28" lengthAdjust="spacing" textLength="340" x="863.5145" y="195.79">am TI-Messenger-Dienst</text><ellipse cx="1034.0504" cy="386.0101" fill="#F0F8FF" filter="url(#f17ybwhxvpww5y)" rx="386.0504" ry="82.0101" style="stroke:#A80036;stroke-width:3.0;"/><text fill="#000000" font-family="sans-serif" font-size="28" font-weight="bold" lengthAdjust="spacing" textLength="250" x="905.0504" y="359.1097">&lt;&lt;AF_10060&gt;&gt;</text><text fill="#000000" font-family="sans-serif" font-size="28" lengthAdjust="spacing" textLength="0" x="1163.0504" y="359.1097"/><text fill="#000000" font-family="sans-serif" font-size="28" lengthAdjust="spacing" textLength="550" x="755.0504" y="391.7034">Bereitstellung eines Messenger-Service</text><text fill="#000000" font-family="sans-serif" font-size="28" lengthAdjust="spacing" textLength="286" x="891.0504" y="424.2972">für eine Organisation</text><ellipse cx="1033.8843" cy="614.1418" fill="#FEFECE" filter="url(#f17ybwhxvpww5y)" rx="312.8843" ry="75.1418" style="stroke:#A80036;stroke-width:3.0;"/><text fill="#000000" font-family="sans-serif" font-size="28" font-weight="bold" lengthAdjust="spacing" textLength="250" x="904.8843" y="587.2414">&lt;&lt;AF_10059&gt;&gt;</text><text fill="#000000" font-family="sans-serif" font-size="28" lengthAdjust="spacing" textLength="0" x="1162.8843" y="587.2414"/><text fill="#000000" font-family="sans-serif" font-size="28" lengthAdjust="spacing" textLength="388" x="835.8843" y="619.8351">Organisationsressourcen im</text><text fill="#000000" font-family="sans-serif" font-size="28" lengthAdjust="spacing" textLength="410" x="828.8843" y="652.4289">Verzeichnisdienst hinzufügen</text><path d="M12,534 L12,614.5313 A0,0 0 0 0 12,614.5313 L528,614.5313 A0,0 0 0 0 528,614.5313 L528,554 L508,534 L278,534 L270,464.42 L262,534 L12,534 A0,0 0 0 0 12,534 " fill="#FBFB77" filter="url(#f17ybwhxvpww5y)" style="stroke:#A80036;stroke-width:2.0;"/><path d="M508,534 L508,554 L528,554 L508,534 " fill="#FBFB77" style="stroke:#A80036;stroke-width:2.0;"/><text fill="#000000" font-family="sans-serif" font-size="26" lengthAdjust="spacing" textLength="474" x="24" y="568.1338">z. B. Beauftragter Mitarbeiter in einer</text><text fill="#000000" font-family="sans-serif" font-size="26" lengthAdjust="spacing" textLength="162" x="24" y="598.3994">Organisation</text><!--MD5=[7ce313bfd3325ed69a8886282115f071]
link oa to UC1--><path d="M339.2,359.68 C405.06,334.4 508.58,296.02 600,268 C659.36,249.82 723.92,232.22 784.62,216.64 " fill="none" id="oa-to-UC1" style="stroke:#000000;stroke-width:2.0;"/><polygon fill="#000000" points="794.32,214.16,774.8987,210.8718,784.6321,216.639,778.865,226.3724,794.32,214.16" style="stroke:#000000;stroke-width:2.0;"/><!--MD5=[387c2bf58cd2abeb5574250a66609111]
link oa to UC2--><path d="M339.44,386 C408.56,386 521.94,386 637.14,386 " fill="none" id="oa-to-UC2" style="stroke:#000000;stroke-width:2.0;"/><polygon fill="#000000" points="647.58,386,629.58,378,637.58,386,629.58,394,647.58,386" style="stroke:#000000;stroke-width:2.0;"/><!--MD5=[da9425291e9a9a005aba63a21e30958e]
link oa to UC3--><path d="M339.28,411.72 C405.18,436.44 508.74,474.08 600,502 C665.06,521.9 736.3,541.32 801.84,558.26 " fill="none" id="oa-to-UC3" style="stroke:#000000;stroke-width:2.0;"/><polygon fill="#000000" points="812.32,560.94,796.8737,548.7166,802.6339,558.4542,792.8964,564.2144,812.32,560.94" style="stroke:#000000;stroke-width:2.0;"/><!--MD5=[ff19b12003e554e08a245d07ccf1679f]
@startuml
/'
# TI-Messenger 1.1
# TI-Messenger-Dienst
# Use Case Diagram
# Name: Org-Admin - Anwendungsfaelle
'/


skinparam actorStyle awesome
left to right direction
scale 6/3

skinparam sequence {
ArrowColor black
ArrowFontSize 17
ActorBorderColor black
LifeLineBorderColor black
LifeLineBackgroundColor Gainsboro

ParticipantBorderColor Motivation
ParticipantBackgroundColor Motivation
ParticipantFontName Impact
ParticipantFontSize 20
ParticipantFontColor black
ParticipantBorderColor Black
ParticipantBackgroundColor MOTIVATION

ActorBackgroundColor Gainsboro
ActorFontColor black
ActorFontSize 13
ActorFontName Aapex
}

package Rolle {
  actor "Org-Admin" as oa
}

package Anwendungsfälle {
  usecase "**<<AF_10103>>** \nAuthentisieren einer Organisation \nam TI-Messenger-Dienst" as UC1 #AliceBlue
  usecase "**<<AF_10060>>** \nBereitstellung eines Messenger-Service \nfür eine Organisation" as UC2 #AliceBlue
  usecase "**<<AF_10059>>** \nOrganisationsressourcen im \nVerzeichnisdienst hinzufügen" as UC3
}

oa - -> UC1
oa - -> UC2
oa - -> UC3

note top of (oa)
  z. B. Beauftragter Mitarbeiter in einer
  Organisation
end note
@enduml

@startuml


skinparam actorStyle awesome
left to right direction
scale 6/3

skinparam sequence {
ArrowColor black
ArrowFontSize 17
ActorBorderColor black
LifeLineBorderColor black
LifeLineBackgroundColor Gainsboro

ParticipantBorderColor Motivation
ParticipantBackgroundColor Motivation
ParticipantFontName Impact
ParticipantFontSize 20
ParticipantFontColor black
ParticipantBorderColor Black
ParticipantBackgroundColor MOTIVATION

ActorBackgroundColor Gainsboro
ActorFontColor black
ActorFontSize 13
ActorFontName Aapex
}

package Rolle {
  actor "Org-Admin" as oa
}

package Anwendungsfälle {
  usecase "**<<AF_10103>>** \nAuthentisieren einer Organisation \nam TI-Messenger-Dienst" as UC1 #AliceBlue
  usecase "**<<AF_10060>>** \nBereitstellung eines Messenger-Service \nfür eine Organisation" as UC2 #AliceBlue
  usecase "**<<AF_10059>>** \nOrganisationsressourcen im \nVerzeichnisdienst hinzufügen" as UC3
}

oa - -> UC1
oa - -> UC2
oa - -> UC3

note top of (oa)
  z. B. Beauftragter Mitarbeiter in einer
  Organisation
end note
@enduml

PlantUML version 1.2021.16(Wed Dec 08 17:25:22 UTC 2021)
(GPL source distribution)
Java Runtime: OpenJDK Runtime Environment
JVM: OpenJDK 64-Bit Server VM
Default Encoding: UTF-8
Language: en
Country: null
--></g></svg>