<?xml version="1.0" encoding="us-ascii" standalone="no"?><svg xmlns="http://www.w3.org/2000/svg" xmlns:xlink="http://www.w3.org/1999/xlink" contentStyleType="text/css" height="1268px" preserveAspectRatio="none" style="width:1224px;height:1268px;background:#FFFFFF;" version="1.1" viewBox="0 0 1224 1268" width="1224px" zoomAndPan="magnify"><defs/><g><!--cluster Rolle--><g id="cluster_Rolle"><path d="M135,484 L213,484 A7.5,7.5 0 0 1 218,489 L232,528.5938 L367,528.5938 A5,5 0 0 1 372,533.5938 L372,705 A5,5 0 0 1 367,710 L135,710 A5,5 0 0 1 130,705 L130,489 A5,5 0 0 1 135,484 " fill="none" style="stroke:#000000;stroke-width:3.0;"/><line style="stroke:#000000;stroke-width:3.0;" x1="130" x2="232" y1="528.5938" y2="528.5938"/><text fill="#000000" font-family="sans-serif" font-size="28" font-weight="bold" lengthAdjust="spacing" textLength="76" x="138" y="513.9902">Rolle</text></g><!--cluster Anwendungsf?lle--><g id="cluster_Anwendungsf&#228;lle"><path d="M551,8 L827,8 A7.5,7.5 0 0 1 832,13 L846,52.5938 L1205,52.5938 A5,5 0 0 1 1210,57.5938 L1210,1249 A5,5 0 0 1 1205,1254 L551,1254 A5,5 0 0 1 546,1249 L546,13 A5,5 0 0 1 551,8 " fill="none" style="stroke:#000000;stroke-width:3.0;"/><line style="stroke:#000000;stroke-width:3.0;" x1="546" x2="846" y1="52.5938" y2="52.5938"/><text fill="#000000" font-family="sans-serif" font-size="28" font-weight="bold" lengthAdjust="spacing" textLength="274" x="554" y="37.9902">Anwendungsf&#228;lle</text></g><g id="elem_GMN17"><path d="M12,730 L12,810.5313 A0,0 0 0 0 12,810.5313 L490,810.5313 A0,0 0 0 0 490,810.5313 L490,750 L470,730 L259,730 L251,694.1655 L243,730 L12,730 A0,0 0 0 0 12,730 " fill="#FEFFDD" style="stroke:#181818;stroke-width:1.0;"/><path d="M470,730 L470,750 L490,750 L470,730 " fill="#FEFFDD" style="stroke:#181818;stroke-width:1.0;"/><text fill="#000000" font-family="sans-serif" font-size="26" lengthAdjust="spacing" textLength="428" x="24" y="764.1338">z. B. Leistungserbringer im Besitz</text><text fill="#000000" font-family="sans-serif" font-size="26" lengthAdjust="spacing" textLength="146" x="24" y="794.3994">eines HBAs</text></g><!--entity uuh--><g id="elem_uuh"><ellipse cx="251" cy="573" fill="#DCDCDC" rx="32" ry="32" style="stroke:#000000;stroke-width:3.0;"/><path d="M251,613 C259,613 265,613 273,605 C289,605 305,621 305,637 L305,645 C305,653 297,661 289,661 L213,661 C205,661 197,653 197,645 L197,637 C197,621 213,605 229,605 C237,613 243,613 251,613 " fill="#DCDCDC" style="stroke:#000000;stroke-width:3.0;"/><text fill="#000000" font-family="Aapex" font-size="26" lengthAdjust="spacing" textLength="210" x="146" y="688.1338">User / User-HBA</text></g><g id="elem_UC1"><ellipse cx="877.7128" cy="138.1418" fill="#F1F1F1" rx="315.7128" ry="75.1418" style="stroke:#181818;stroke-width:1.0;"/><text fill="#000000" font-family="sans-serif" font-size="28" font-weight="bold" lengthAdjust="spacing" textLength="190" x="778.7128" y="111.2414">&#171;AF_10057&#187;</text><text fill="#000000" font-family="sans-serif" font-size="28" lengthAdjust="spacing" textLength="8" x="968.7128" y="111.2414">&#160;</text><text fill="#000000" font-family="sans-serif" font-size="28" lengthAdjust="spacing" textLength="406" x="670.7128" y="143.8351">Anmeldung eines Akteurs am</text><text fill="#000000" font-family="sans-serif" font-size="28" lengthAdjust="spacing" textLength="266" x="744.7128" y="176.4289">Messenger-Service</text></g><g id="elem_UC2"><ellipse cx="877.8843" cy="324.1418" fill="#F1F1F1" rx="312.8843" ry="75.1418" style="stroke:#181818;stroke-width:1.0;"/><text fill="#000000" font-family="sans-serif" font-size="28" font-weight="bold" lengthAdjust="spacing" textLength="190" x="778.8843" y="297.2414">&#171;AF_10058&#187;</text><text fill="#000000" font-family="sans-serif" font-size="28" lengthAdjust="spacing" textLength="8" x="968.8843" y="297.2414">&#160;</text><text fill="#000000" font-family="sans-serif" font-size="28" lengthAdjust="spacing" textLength="290" x="728.8843" y="329.8351">Akteur (User-HBA) im</text><text fill="#000000" font-family="sans-serif" font-size="28" lengthAdjust="spacing" textLength="410" x="672.8843" y="362.4289">Verzeichnisdienst hinzuf&#252;gen</text></g><g id="elem_UC3"><ellipse cx="878.328" cy="510.1418" fill="#F0F8FF" rx="297.328" ry="75.1418" style="stroke:#181818;stroke-width:1.0;"/><text fill="#000000" font-family="sans-serif" font-size="28" font-weight="bold" lengthAdjust="spacing" textLength="190" x="779.328" y="483.2414">&#171;AF_10104&#187;</text><text fill="#000000" font-family="sans-serif" font-size="28" lengthAdjust="spacing" textLength="8" x="969.328" y="483.2414">&#160;</text><text fill="#000000" font-family="sans-serif" font-size="28" lengthAdjust="spacing" textLength="328" x="710.328" y="515.8351">Einladung von Akteuren</text><text fill="#000000" font-family="sans-serif" font-size="28" lengthAdjust="spacing" textLength="388" x="684.328" y="548.4289">innerhalb einer Organisation</text></g><g id="elem_UC4"><ellipse cx="878.328" cy="720.189" fill="#F0F8FF" rx="297.328" ry="98.189" style="stroke:#181818;stroke-width:1.0;"/><text fill="#000000" font-family="sans-serif" font-size="28" font-weight="bold" lengthAdjust="spacing" textLength="190" x="779.328" y="676.9918">&#171;AF_10063&#187;</text><text fill="#000000" font-family="sans-serif" font-size="28" lengthAdjust="spacing" textLength="8" x="969.328" y="676.9918">&#160;</text><text fill="#000000" font-family="sans-serif" font-size="28" lengthAdjust="spacing" textLength="306" x="721.328" y="709.5855">Austausch von Events</text><text fill="#000000" font-family="sans-serif" font-size="28" lengthAdjust="spacing" textLength="264" x="742.328" y="742.1793">zwischen Akteuren</text><text fill="#000000" font-family="sans-serif" font-size="28" lengthAdjust="spacing" textLength="388" x="684.328" y="774.773">innerhalb einer Organisation</text></g><g id="elem_UC5"><ellipse cx="878.3991" cy="930.1418" fill="#FFFFF0" rx="304.3991" ry="75.1418" style="stroke:#181818;stroke-width:1.0;"/><text fill="#000000" font-family="sans-serif" font-size="28" font-weight="bold" lengthAdjust="spacing" textLength="190" x="779.3991" y="903.2414">&#171;AF_10061&#187;</text><text fill="#000000" font-family="sans-serif" font-size="28" lengthAdjust="spacing" textLength="8" x="969.3991" y="903.2414">&#160;</text><text fill="#000000" font-family="sans-serif" font-size="28" lengthAdjust="spacing" textLength="328" x="710.3991" y="935.8351">Einladung von Akteuren</text><text fill="#000000" font-family="sans-serif" font-size="28" lengthAdjust="spacing" textLength="398" x="679.3991" y="968.4289">au&#223;erhalb einer Organisation</text></g><g id="elem_UC6"><ellipse cx="878.3991" cy="1140.189" fill="#FFFFF0" rx="304.3991" ry="98.189" style="stroke:#181818;stroke-width:1.0;"/><text fill="#000000" font-family="sans-serif" font-size="28" font-weight="bold" lengthAdjust="spacing" textLength="190" x="779.3991" y="1096.9918">&#171;AF_10062&#187;</text><text fill="#000000" font-family="sans-serif" font-size="28" lengthAdjust="spacing" textLength="8" x="969.3991" y="1096.9918">&#160;</text><text fill="#000000" font-family="sans-serif" font-size="28" lengthAdjust="spacing" textLength="306" x="721.3991" y="1129.5855">Austausch von Events</text><text fill="#000000" font-family="sans-serif" font-size="28" lengthAdjust="spacing" textLength="264" x="742.3991" y="1162.1793">zwischen Akteuren</text><text fill="#000000" font-family="sans-serif" font-size="28" lengthAdjust="spacing" textLength="398" x="679.3991" y="1194.773">au&#223;erhalb einer Organisation</text></g><path d="M292.0447,537.8931 C339.9675,449.9988 429.429,309.1872 546,230 C554.8557,223.9843 564.0976,218.3596 573.6275,213.1009 " fill="none" style="stroke:#000000;stroke-width:2.0;"/><polygon fill="#000000" points="573.6275,213.1009,554.0026,214.793,564.8721,217.9323,561.7328,228.8017,573.6275,213.1009" style="stroke:#000000;stroke-width:2.0;"/><path d="M349.8145,537.9938 C404.7045,496.9166 476.1971,448.4718 546,416 C558.6728,410.1047 571.7998,404.5165 585.1908,399.2286 " fill="none" style="stroke:#000000;stroke-width:2.0;"/><polygon fill="#000000" points="585.1908,399.2286,565.5106,398.3988,575.8897,402.9015,571.3871,413.2806,585.1908,399.2286" style="stroke:#000000;stroke-width:2.0;"/><path d="M356.5751,598.3773 C418.3363,587.8689 500.167,573.9459 580.5666,560.2664 " fill="none" style="stroke:#000000;stroke-width:2.0;"/><polygon fill="#000000" points="580.5666,560.2664,561.4798,555.3989,570.7083,561.9437,564.1635,571.1722,580.5666,560.2664" style="stroke:#000000;stroke-width:2.0;"/><path d="M356.5751,633.2902 C418.3363,643.6003 500.167,657.2606 580.5666,670.6821 " fill="none" style="stroke:#000000;stroke-width:2.0;"/><polygon fill="#000000" points="580.5666,670.6821,564.1295,659.8275,570.7031,669.0355,561.495,675.6091,580.5666,670.6821" style="stroke:#000000;stroke-width:2.0;"/><path d="M356.5933,639.2769 C402.0821,653.8513 453.3578,676.7713 490,712 C533.5917,753.9101 500.2223,796.4893 546,836 C554.7938,843.5899 564.1626,850.569 573.9678,856.9862 " fill="none" style="stroke:#000000;stroke-width:2.0;"/><polygon fill="#000000" points="573.9678,856.9862,563.2876,840.4353,565.6005,851.51,554.5258,853.823,573.9678,856.9862" style="stroke:#000000;stroke-width:2.0;"/><path d="M356.5612,634.1714 C404.0321,647.7716 456.9667,671.3443 490,712 C578.2888,820.6612 455.478,915.192 546,1022 C554.4578,1031.9795 563.8226,1041.1151 573.8824,1049.478 " fill="none" style="stroke:#000000;stroke-width:2.0;"/><polygon fill="#000000" points="573.8824,1049.478,565.155,1031.8193,566.1926,1043.0853,554.9266,1044.1229,573.8824,1049.478" style="stroke:#000000;stroke-width:2.0;"/><!--SRC=[bLJDRjf04BxlKqp99K4YuJyzH4WcIbga95GboIbIDPZ1hB1dwVv0eEgpzDB7w8qNwzg6rAAaD2UFPsQ_d_KdlvjfZ1A469VAMJ09MMGKPYfvXXeJmD0gFR3Bc00NP5H28gQn1Qj0osXYOIGrXLOg5YP4lzK-QuZ2UKDV7N58y4q4Mgl5fOgLXc6CuJHlN2ks0xaYg9sB82NhAZqYNToxaMEwaKp_cFYNI2l7etpw0IMReT9AY4-ehGpb3DaMpzygA-UOwIvkxE3itqebts52q4jc_dvsHvcRUdMtNTJzYgZkNyDTFVtxtcDmt-lVYSrblMey6-_olZJp6s_yQMH-0fpHi_WkXBSrnOZWiuhZzDDbAO3IWo4DPv0-AX-xGGdGW7EJuec05yGZnv4Pht_cXvsX40r1gLo-k0YklzIgrTPvfrCkmnC7d52ShWFvpsWWc5fose1FpXFVaZ74aISRa9xBa3B2XylQNiZtMyWC0ewtAaz0fc2Ff5SammbBCvB4ni94yigDrxyYuWrmVGzmhThS05z9ZZ7JEbUyKKhi1vAPz0JZOMP2Grz7w6cot6oG6t0KnDv1DtQqJtsxiLNlZ4Ldmab6SZKdjiQtLmlfU_HMskOXsjeXR-ZMFmwnjE2eDrTwkPUX_dPZ_yFPtdBwxFa8GgNIoPFnKjSBTQDGDmjrgr2tXM1boV_PPg36SEmd9s9r2jrJk25fR9ffqaCjqqIccUgIaNO58a-kJveHFlgGWeZV]--></g></svg>