<?xml version="1.0" encoding="us-ascii" standalone="no"?><svg xmlns="http://www.w3.org/2000/svg" xmlns:xlink="http://www.w3.org/1999/xlink" contentStyleType="text/css" height="1923px" preserveAspectRatio="none" style="width:1516px;height:1923px;background:#FFFFFF;" version="1.1" viewBox="0 0 1516 1923" width="1516px" zoomAndPan="magnify"><defs/><g><rect fill="#F5F5F5" height="1911.2422" style="stroke:#181818;stroke-width:0.5;" width="222" x="16" y="6"/><text fill="#000000" font-family="sans-serif" font-size="18" font-weight="bold" lengthAdjust="spacing" textLength="193" x="30.5" y="22.708">Messenger-Service</text><text fill="#000000" font-family="sans-serif" font-size="13" font-weight="bold" lengthAdjust="spacing" textLength="5" x="30.5" y="39.02">&#160;</text><rect fill="#F5F5F5" height="1911.2422" style="stroke:#181818;stroke-width:0.5;" width="446" x="1027" y="6"/><text fill="#000000" font-family="sans-serif" font-size="18" font-weight="bold" lengthAdjust="spacing" textLength="200" x="1147.5" y="22.708">VZD-FHIR-Directory</text><text fill="#000000" font-family="sans-serif" font-size="13" font-weight="bold" lengthAdjust="spacing" textLength="5" x="1347.5" y="23.8872">&#160;</text><rect fill="#DCDCDC" height="861.5547" style="stroke:#000000;stroke-width:1.0;" width="10" x="122" y="989.4063"/><rect fill="#DCDCDC" height="788.8359" style="stroke:#000000;stroke-width:1.0;" width="10" x="626" y="94.3672"/><rect fill="#DCDCDC" height="44.7891" style="stroke:#000000;stroke-width:1.0;" width="10" x="631" y="777.4141"/><rect fill="#DCDCDC" height="784.2461" style="stroke:#000000;stroke-width:1.0;" width="10" x="626" y="1034.9258"/><rect fill="#DCDCDC" height="44.7891" style="stroke:#000000;stroke-width:1.0;" width="10" x="631" y="1487.6641"/><rect fill="none" height="742.2109" style="stroke:#000000;stroke-width:1.5;" width="1033.5" x="465.5" y="147.9922"/><rect fill="none" height="707.4531" style="stroke:#000000;stroke-width:1.5;" width="1013.5" x="475.5" y="175.75"/><rect fill="none" height="506.5234" style="stroke:#000000;stroke-width:1.5;" width="993.5" x="485.5" y="369.6797"/><rect fill="none" height="373.0078" style="stroke:#000000;stroke-width:1.5;" width="560.5" x="495.5" y="496.1953"/><rect fill="#FFB6C1" height="63.9219" style="stroke:#000000;stroke-width:1.5;" width="468.5" x="505.5" y="523.9531"/><rect fill="none" height="173.125" style="stroke:#000000;stroke-width:1.5;" width="540.5" x="505.5" y="689.0781"/><rect fill="none" height="119.5156" style="stroke:#000000;stroke-width:1.5;" width="973.5" x="505.5" y="1086.6563"/><rect fill="#FFB6C1" height="206.9141" style="stroke:#000000;stroke-width:1.5;" width="894" x="10" y="1220.1719"/><rect fill="none" height="232.7188" style="stroke:#000000;stroke-width:1.5;" width="746.5" x="10" y="1554.4531"/><line style="stroke:#000000;stroke-width:0.5;stroke-dasharray:5.0,5.0;" x1="127" x2="127" y1="84.3672" y2="1875.9609"/><line style="stroke:#000000;stroke-width:0.5;stroke-dasharray:5.0,5.0;" x1="630.5" x2="630.5" y1="84.3672" y2="1875.9609"/><line style="stroke:#000000;stroke-width:0.5;stroke-dasharray:5.0,5.0;" x1="1138" x2="1138" y1="84.3672" y2="1875.9609"/><line style="stroke:#000000;stroke-width:0.5;stroke-dasharray:5.0,5.0;" x1="1362" x2="1362" y1="84.3672" y2="1875.9609"/><rect fill="#EFEFFF" height="37.2813" rx="2.5" ry="2.5" style="stroke:#000000;stroke-width:0.5;" width="214" x="20" y="46.0859"/><text fill="#000000" font-family="sans-serif" font-size="20" lengthAdjust="spacing" textLength="168" x="43" y="71.6504">Messenger-Proxy</text><rect fill="#EFEFFF" height="37.2813" rx="2.5" ry="2.5" style="stroke:#000000;stroke-width:0.5;" width="214" x="20" y="1874.9609"/><text fill="#000000" font-family="sans-serif" font-size="20" lengthAdjust="spacing" textLength="168" x="43" y="1900.5254">Messenger-Proxy</text><rect fill="#EFEFFF" height="37.2813" rx="2.5" ry="2.5" style="stroke:#000000;stroke-width:0.5;" width="231" x="515.5" y="46.0859"/><text fill="#000000" font-family="sans-serif" font-size="20" lengthAdjust="spacing" textLength="217" x="522.5" y="71.6504">Registrierungs-Dienst</text><rect fill="#EFEFFF" height="37.2813" rx="2.5" ry="2.5" style="stroke:#000000;stroke-width:0.5;" width="231" x="515.5" y="1874.9609"/><text fill="#000000" font-family="sans-serif" font-size="20" lengthAdjust="spacing" textLength="217" x="522.5" y="1900.5254">Registrierungs-Dienst</text><rect fill="#EFEFFF" height="37.2813" rx="2.5" ry="2.5" style="stroke:#000000;stroke-width:0.5;" width="214" x="1031" y="46.0859"/><text fill="#000000" font-family="sans-serif" font-size="20" lengthAdjust="spacing" textLength="108" x="1084" y="71.6504">FHIR-Proxy</text><rect fill="#EFEFFF" height="37.2813" rx="2.5" ry="2.5" style="stroke:#000000;stroke-width:0.5;" width="214" x="1031" y="1874.9609"/><text fill="#000000" font-family="sans-serif" font-size="20" lengthAdjust="spacing" textLength="108" x="1084" y="1900.5254">FHIR-Proxy</text><rect fill="#EFEFFF" height="37.2813" rx="2.5" ry="2.5" style="stroke:#000000;stroke-width:0.5;" width="214" x="1255" y="46.0859"/><text fill="#000000" font-family="sans-serif" font-size="20" lengthAdjust="spacing" textLength="144" x="1290" y="71.6504">OAuth-Service</text><rect fill="#EFEFFF" height="37.2813" rx="2.5" ry="2.5" style="stroke:#000000;stroke-width:0.5;" width="214" x="1255" y="1874.9609"/><text fill="#000000" font-family="sans-serif" font-size="20" lengthAdjust="spacing" textLength="144" x="1290" y="1900.5254">OAuth-Service</text><rect fill="#DCDCDC" height="861.5547" style="stroke:#000000;stroke-width:1.0;" width="10" x="122" y="989.4063"/><rect fill="#DCDCDC" height="788.8359" style="stroke:#000000;stroke-width:1.0;" width="10" x="626" y="94.3672"/><rect fill="#DCDCDC" height="44.7891" style="stroke:#000000;stroke-width:1.0;" width="10" x="631" y="777.4141"/><rect fill="#DCDCDC" height="784.2461" style="stroke:#000000;stroke-width:1.0;" width="10" x="626" y="1034.9258"/><rect fill="#DCDCDC" height="44.7891" style="stroke:#000000;stroke-width:1.0;" width="10" x="631" y="1487.6641"/><rect fill="#EEEEEE" height="3" style="stroke:#EEEEEE;stroke-width:1.0;" width="1509" x="0" y="116.6797"/><line style="stroke:#000000;stroke-width:1.0;" x1="0" x2="1509" y1="116.6797" y2="116.6797"/><line style="stroke:#000000;stroke-width:1.0;" x1="0" x2="1509" y1="119.6797" y2="119.6797"/><rect fill="#EEEEEE" height="26.625" style="stroke:#000000;stroke-width:2.0;" width="109" x="700" y="104.3672"/><text fill="#000000" font-family="sans-serif" font-size="16" font-weight="bold" lengthAdjust="spacing" textLength="90" x="706" y="123.2188">scheduled</text><text fill="#000000" font-family="sans-serif" font-size="13" font-weight="bold" lengthAdjust="spacing" textLength="5" x="796" y="123.9263">&#160;</text><path d="M465.5,147.9922 L542.5,147.9922 L542.5,155.125 L532.5,165.125 L465.5,165.125 L465.5,147.9922 " fill="#D3D3D3" style="stroke:#000000;stroke-width:1.5;"/><rect fill="none" height="742.2109" style="stroke:#000000;stroke-width:1.5;" width="1033.5" x="465.5" y="147.9922"/><text fill="#000000" font-family="sans-serif" font-size="13" font-weight="bold" lengthAdjust="spacing" textLength="32" x="480.5" y="161.0591">loop</text><text fill="#000000" font-family="sans-serif" font-size="11" font-weight="bold" lengthAdjust="spacing" textLength="5" x="557.5" y="166.0229">[</text><text fill="#000000" font-family="sans-serif" font-size="16" font-weight="bold" lengthAdjust="spacing" textLength="57" x="562.5" y="164.8438">alle 1h</text><text fill="#000000" font-family="sans-serif" font-size="11" font-weight="bold" lengthAdjust="spacing" textLength="5" x="619.5" y="166.0229">]</text><path d="M475.5,175.75 L539.5,175.75 L539.5,182.8828 L529.5,192.8828 L475.5,192.8828 L475.5,175.75 " fill="#D3D3D3" style="stroke:#000000;stroke-width:1.5;"/><rect fill="none" height="707.4531" style="stroke:#000000;stroke-width:1.5;" width="1013.5" x="475.5" y="175.75"/><text fill="#000000" font-family="sans-serif" font-size="13" font-weight="bold" lengthAdjust="spacing" textLength="19" x="490.5" y="188.8169">alt</text><text fill="#000000" font-family="sans-serif" font-size="11" font-weight="bold" lengthAdjust="spacing" textLength="5" x="554.5" y="193.7808">[</text><text fill="#000000" font-family="sans-serif" font-size="16" font-weight="bold" lengthAdjust="spacing" textLength="529" x="559.5" y="192.6016">HealthState_VZD=gesund ODER Alter_F&#246;derationsliste&gt;=1h</text><text fill="#000000" font-family="sans-serif" font-size="11" font-weight="bold" lengthAdjust="spacing" textLength="5" x="1088.5" y="193.7808">]</text><rect fill="none" height="43.7578" style="stroke:#000000;stroke-width:1.5;" width="959.5" x="512.5" y="221.5078"/><path d="M512.5,221.5078 L578.5,221.5078 L578.5,228.5078 L568.5,238.5078 L512.5,238.5078 L512.5,221.5078 " fill="#98FB98" style="stroke:#000000;stroke-width:2.0;"/><text fill="#000000" font-family="sans-serif" font-size="13" font-weight="bold" lengthAdjust="spacing" textLength="21" x="525.5" y="235.5747">ref</text><text fill="#000000" font-family="sans-serif" font-size="16" lengthAdjust="spacing" textLength="417" x="783.75" y="257.3594">Provider authentifizieren und F&#246;derationsliste abrufen</text><line style="stroke:#000000;stroke-width:1.0;stroke-dasharray:2.0,2.0;" x1="475.5" x2="1489" y1="296.2656" y2="296.2656"/><text fill="#000000" font-family="sans-serif" font-size="11" font-weight="bold" lengthAdjust="spacing" textLength="5" x="480.5" y="312.2964">[</text><text fill="#000000" font-family="sans-serif" font-size="16" font-weight="bold" lengthAdjust="spacing" textLength="234" x="485.5" y="311.1172">HealthState_VZD!=gesund</text><text fill="#000000" font-family="sans-serif" font-size="11" font-weight="bold" lengthAdjust="spacing" textLength="5" x="719.5" y="312.2964">]</text><line style="stroke:#000000;stroke-width:1.0;" x1="636" x2="678" y1="341.6797" y2="341.6797"/><line style="stroke:#000000;stroke-width:1.0;" x1="678" x2="678" y1="341.6797" y2="354.6797"/><line style="stroke:#000000;stroke-width:1.0;" x1="637" x2="678" y1="354.6797" y2="354.6797"/><polygon fill="#000000" points="647,350.6797,637,354.6797,647,358.6797,643,354.6797" style="stroke:#000000;stroke-width:1.0;"/><text fill="#000000" font-family="sans-serif" font-size="17" font-weight="bold" lengthAdjust="spacing" textLength="12" x="643" y="335.6704">1</text><text fill="#000000" font-family="sans-serif" font-size="17" lengthAdjust="spacing" textLength="467" x="659" y="335.6704">HealthStateCheck einleiten(HealthStateCheck_VZD=0)</text><path d="M485.5,369.6797 L562.5,369.6797 L562.5,376.8125 L552.5,386.8125 L485.5,386.8125 L485.5,369.6797 " fill="#D3D3D3" style="stroke:#000000;stroke-width:1.5;"/><rect fill="none" height="506.5234" style="stroke:#000000;stroke-width:1.5;" width="993.5" x="485.5" y="369.6797"/><text fill="#000000" font-family="sans-serif" font-size="13" font-weight="bold" lengthAdjust="spacing" textLength="32" x="500.5" y="382.7466">loop</text><text fill="#000000" font-family="sans-serif" font-size="11" font-weight="bold" lengthAdjust="spacing" textLength="5" x="577.5" y="387.7104">[</text><text fill="#000000" font-family="sans-serif" font-size="16" font-weight="bold" lengthAdjust="spacing" textLength="368" x="582.5" y="386.5313">alle 5min UND HealthStateCheck_VZD&lt;=3</text><text fill="#000000" font-family="sans-serif" font-size="11" font-weight="bold" lengthAdjust="spacing" textLength="5" x="950.5" y="387.7104">]</text><rect fill="none" height="43.7578" style="stroke:#000000;stroke-width:1.5;" width="959.5" x="512.5" y="415.4375"/><path d="M512.5,415.4375 L578.5,415.4375 L578.5,422.4375 L568.5,432.4375 L512.5,432.4375 L512.5,415.4375 " fill="#98FB98" style="stroke:#000000;stroke-width:2.0;"/><text fill="#000000" font-family="sans-serif" font-size="13" font-weight="bold" lengthAdjust="spacing" textLength="21" x="525.5" y="429.5044">ref</text><text fill="#000000" font-family="sans-serif" font-size="16" lengthAdjust="spacing" textLength="417" x="783.75" y="451.2891">Provider authentifizieren und F&#246;derationsliste abrufen</text><path d="M495.5,496.1953 L559.5,496.1953 L559.5,503.3281 L549.5,513.3281 L495.5,513.3281 L495.5,496.1953 " fill="#D3D3D3" style="stroke:#000000;stroke-width:1.5;"/><rect fill="none" height="373.0078" style="stroke:#000000;stroke-width:1.5;" width="560.5" x="495.5" y="496.1953"/><text fill="#000000" font-family="sans-serif" font-size="13" font-weight="bold" lengthAdjust="spacing" textLength="19" x="510.5" y="509.2622">alt</text><text fill="#000000" font-family="sans-serif" font-size="11" font-weight="bold" lengthAdjust="spacing" textLength="5" x="574.5" y="514.2261">[</text><text fill="#000000" font-family="sans-serif" font-size="16" font-weight="bold" lengthAdjust="spacing" textLength="227" x="579.5" y="513.0469">HealthState_VZD=gesund</text><text fill="#000000" font-family="sans-serif" font-size="11" font-weight="bold" lengthAdjust="spacing" textLength="5" x="806.5" y="514.2261">]</text><path d="M505.5,523.9531 L593.5,523.9531 L593.5,531.0859 L583.5,541.0859 L505.5,541.0859 L505.5,523.9531 " fill="#D3D3D3" style="stroke:#000000;stroke-width:1.5;"/><rect fill="none" height="63.9219" style="stroke:#000000;stroke-width:1.5;" width="468.5" x="505.5" y="523.9531"/><text fill="#000000" font-family="sans-serif" font-size="13" font-weight="bold" lengthAdjust="spacing" textLength="43" x="520.5" y="537.02">break</text><line style="stroke:#000000;stroke-width:1.0;" x1="636" x2="678" y1="566.875" y2="566.875"/><line style="stroke:#000000;stroke-width:1.0;" x1="678" x2="678" y1="566.875" y2="579.875"/><line style="stroke:#000000;stroke-width:1.0;" x1="637" x2="678" y1="579.875" y2="579.875"/><polygon fill="#000000" points="647,575.875,637,579.875,647,583.875,643,579.875" style="stroke:#000000;stroke-width:1.0;"/><text fill="#000000" font-family="sans-serif" font-size="17" font-weight="bold" lengthAdjust="spacing" textLength="12" x="643" y="560.8657">2</text><text fill="#000000" font-family="sans-serif" font-size="17" lengthAdjust="spacing" textLength="303" x="659" y="560.8657">HealthStateCheck_VZD abbrechen()</text><line style="stroke:#000000;stroke-width:1.0;stroke-dasharray:2.0,2.0;" x1="495.5" x2="1056" y1="595.875" y2="595.875"/><text fill="#000000" font-family="sans-serif" font-size="11" font-weight="bold" lengthAdjust="spacing" textLength="5" x="500.5" y="611.9058">[</text><text fill="#000000" font-family="sans-serif" font-size="16" font-weight="bold" lengthAdjust="spacing" textLength="234" x="505.5" y="610.7266">HealthState_VZD!=gesund</text><text fill="#000000" font-family="sans-serif" font-size="11" font-weight="bold" lengthAdjust="spacing" textLength="5" x="739.5" y="611.9058">]</text><line style="stroke:#000000;stroke-width:1.0;" x1="636" x2="678" y1="661.0781" y2="661.0781"/><line style="stroke:#000000;stroke-width:1.0;" x1="678" x2="678" y1="661.0781" y2="674.0781"/><line style="stroke:#000000;stroke-width:1.0;" x1="637" x2="678" y1="674.0781" y2="674.0781"/><polygon fill="#000000" points="647,670.0781,637,674.0781,647,678.0781,643,674.0781" style="stroke:#000000;stroke-width:1.0;"/><text fill="#000000" font-family="sans-serif" font-size="17" font-weight="bold" lengthAdjust="spacing" textLength="12" x="643" y="645.1743">3</text><text fill="#000000" font-family="sans-serif" font-size="17" lengthAdjust="spacing" textLength="272" x="659" y="635.2798">HealthStateCheck_VZD erh&#246;hen</text><text fill="#000000" font-family="sans-serif" font-size="17" lengthAdjust="spacing" textLength="236" x="659" y="655.0688">(HealthStateCheck_VZD+1)</text><path d="M505.5,689.0781 L569.5,689.0781 L569.5,696.2109 L559.5,706.2109 L505.5,706.2109 L505.5,689.0781 " fill="#D3D3D3" style="stroke:#000000;stroke-width:1.5;"/><rect fill="none" height="173.125" style="stroke:#000000;stroke-width:1.5;" width="540.5" x="505.5" y="689.0781"/><text fill="#000000" font-family="sans-serif" font-size="13" font-weight="bold" lengthAdjust="spacing" textLength="19" x="520.5" y="702.145">alt</text><text fill="#000000" font-family="sans-serif" font-size="11" font-weight="bold" lengthAdjust="spacing" textLength="5" x="584.5" y="707.1089">[</text><text fill="#000000" font-family="sans-serif" font-size="16" font-weight="bold" lengthAdjust="spacing" textLength="228" x="589.5" y="705.9297">HealthStateCheck_VZD=3</text><text fill="#000000" font-family="sans-serif" font-size="11" font-weight="bold" lengthAdjust="spacing" textLength="5" x="817.5" y="707.1089">]</text><polygon fill="#000000" points="883,731.625,893,735.625,883,739.625,887,735.625" style="stroke:#000000;stroke-width:1.0;"/><line style="stroke:#000000;stroke-width:1.0;" x1="636" x2="889" y1="735.625" y2="735.625"/><text fill="#000000" font-family="sans-serif" font-size="17" font-weight="bold" lengthAdjust="spacing" textLength="12" x="643" y="729.6157">4</text><text fill="#000000" font-family="sans-serif" font-size="17" lengthAdjust="spacing" textLength="219" x="659" y="729.6157">Incident-Event erzeugen()</text><line style="stroke:#000000;stroke-width:1.0;" x1="636" x2="683" y1="764.4141" y2="764.4141"/><line style="stroke:#000000;stroke-width:1.0;" x1="683" x2="683" y1="764.4141" y2="777.4141"/><line style="stroke:#000000;stroke-width:1.0;" x1="642" x2="683" y1="777.4141" y2="777.4141"/><polygon fill="#000000" points="652,773.4141,642,777.4141,652,781.4141,648,777.4141" style="stroke:#000000;stroke-width:1.0;"/><text fill="#000000" font-family="sans-serif" font-size="17" font-weight="bold" lengthAdjust="spacing" textLength="12" x="648" y="758.4048">5</text><text fill="#000000" font-family="sans-serif" font-size="17" lengthAdjust="spacing" textLength="370" x="664" y="758.4048">letzte vorhandene F&#246;derationsliste puffern()</text><line style="stroke:#000000;stroke-width:1.0;stroke-dasharray:2.0,2.0;" x1="641" x2="683" y1="821.2031" y2="821.2031"/><line style="stroke:#000000;stroke-width:1.0;stroke-dasharray:2.0,2.0;" x1="683" x2="683" y1="821.2031" y2="834.2031"/><line style="stroke:#000000;stroke-width:1.0;stroke-dasharray:2.0,2.0;" x1="636" x2="683" y1="834.2031" y2="834.2031"/><polygon fill="#000000" points="646,830.2031,636,834.2031,646,838.2031,642,834.2031" style="stroke:#000000;stroke-width:1.0;"/><text fill="#000000" font-family="sans-serif" font-size="17" font-weight="bold" lengthAdjust="spacing" textLength="12" x="648" y="815.1938">6</text><text fill="#000000" font-family="sans-serif" font-size="17" lengthAdjust="spacing" textLength="133" x="664" y="815.1938">F&#246;derationsliste</text><rect fill="#EEEEEE" height="3" style="stroke:#EEEEEE;stroke-width:1.0;" width="1509" x="0" y="919.5156"/><line style="stroke:#000000;stroke-width:1.0;" x1="0" x2="1509" y1="919.5156" y2="919.5156"/><line style="stroke:#000000;stroke-width:1.0;" x1="0" x2="1509" y1="922.5156" y2="922.5156"/><rect fill="#EEEEEE" height="26.625" style="stroke:#000000;stroke-width:2.0;" width="117" x="696" y="907.2031"/><text fill="#000000" font-family="sans-serif" font-size="16" font-weight="bold" lengthAdjust="spacing" textLength="98" x="702" y="926.0547">on request</text><text fill="#000000" font-family="sans-serif" font-size="13" font-weight="bold" lengthAdjust="spacing" textLength="5" x="800" y="926.7622">&#160;</text><polygon fill="#000000" points="143,985.4063,133,989.4063,143,993.4063,139,989.4063" style="stroke:#000000;stroke-width:1.0;"/><line style="stroke:#000000;stroke-width:1.0;" x1="137" x2="309" y1="989.4063" y2="989.4063"/><text fill="#000000" font-family="sans-serif" font-size="17" font-weight="bold" lengthAdjust="spacing" textLength="12" x="149" y="973.5024">7</text><text fill="#000000" font-family="sans-serif" font-size="17" lengthAdjust="spacing" textLength="133" x="165" y="963.6079">F&#246;derationsliste</text><text fill="#000000" font-family="sans-serif" font-size="17" lengthAdjust="spacing" textLength="123" x="165" y="983.397">aktualisieren()</text><polygon fill="#000000" points="614,1030.9258,624,1034.9258,614,1038.9258,618,1034.9258" style="stroke:#000000;stroke-width:1.0;"/><line style="stroke:#000000;stroke-width:1.0;" x1="132" x2="620" y1="1034.9258" y2="1034.9258"/><text fill="#000000" font-family="sans-serif" font-size="17" font-weight="bold" lengthAdjust="spacing" textLength="12" x="139" y="1028.9165">8</text><text fill="#000000" font-family="sans-serif" font-size="17" lengthAdjust="spacing" textLength="335" x="155" y="1028.9165">GET /I_internVerification(FLVersion_MP)</text><path d="M641,1002.4063 L641,1049.4063 L889,1049.4063 L889,1012.4063 L879,1002.4063 L641,1002.4063 " fill="#FEFFDD" style="stroke:#181818;stroke-width:0.5;"/><path d="M879,1002.4063 L879,1012.4063 L889,1012.4063 L879,1002.4063 " fill="#FEFFDD" style="stroke:#181818;stroke-width:0.5;"/><text fill="#000000" font-family="sans-serif" font-size="16" lengthAdjust="spacing" textLength="174" x="647" y="1022.2578">Schnittstelle wird nicht</text><text fill="#000000" font-family="sans-serif" font-size="16" lengthAdjust="spacing" textLength="227" x="647" y="1040.8828">durch die gematik spezifiziert</text><path d="M505.5,1086.6563 L569.5,1086.6563 L569.5,1093.7891 L559.5,1103.7891 L505.5,1103.7891 L505.5,1086.6563 " fill="#D3D3D3" style="stroke:#000000;stroke-width:1.5;"/><rect fill="none" height="119.5156" style="stroke:#000000;stroke-width:1.5;" width="973.5" x="505.5" y="1086.6563"/><text fill="#000000" font-family="sans-serif" font-size="13" font-weight="bold" lengthAdjust="spacing" textLength="19" x="520.5" y="1099.7231">alt</text><text fill="#000000" font-family="sans-serif" font-size="11" font-weight="bold" lengthAdjust="spacing" textLength="5" x="584.5" y="1104.687">[</text><text fill="#000000" font-family="sans-serif" font-size="16" font-weight="bold" lengthAdjust="spacing" textLength="518" x="589.5" y="1103.5078">HealthState_VZD=gesund UND Alter_F&#246;derationsliste&gt;=1h</text><text fill="#000000" font-family="sans-serif" font-size="11" font-weight="bold" lengthAdjust="spacing" textLength="5" x="1113.5" y="1104.687">]</text><rect fill="none" height="43.7578" style="stroke:#000000;stroke-width:1.5;" width="959.5" x="512.5" y="1132.4141"/><path d="M512.5,1132.4141 L578.5,1132.4141 L578.5,1139.4141 L568.5,1149.4141 L512.5,1149.4141 L512.5,1132.4141 " fill="#98FB98" style="stroke:#000000;stroke-width:2.0;"/><text fill="#000000" font-family="sans-serif" font-size="13" font-weight="bold" lengthAdjust="spacing" textLength="21" x="525.5" y="1146.481">ref</text><text fill="#000000" font-family="sans-serif" font-size="16" lengthAdjust="spacing" textLength="417" x="783.75" y="1168.2656">Provider authentifizieren und F&#246;derationsliste abrufen</text><path d="M10,1220.1719 L98,1220.1719 L98,1227.3047 L88,1237.3047 L10,1237.3047 L10,1220.1719 " fill="#D3D3D3" style="stroke:#000000;stroke-width:1.5;"/><rect fill="none" height="206.9141" style="stroke:#000000;stroke-width:1.5;" width="894" x="10" y="1220.1719"/><text fill="#000000" font-family="sans-serif" font-size="13" font-weight="bold" lengthAdjust="spacing" textLength="43" x="25" y="1233.2388">break</text><text fill="#000000" font-family="sans-serif" font-size="11" font-weight="bold" lengthAdjust="spacing" textLength="5" x="113" y="1238.2026">[</text><text fill="#000000" font-family="sans-serif" font-size="16" font-weight="bold" lengthAdjust="spacing" textLength="388" x="118" y="1237.0234">Alter_F&#246;derationsliste&gt;TTL_F&#246;derationsliste</text><text fill="#000000" font-family="sans-serif" font-size="11" font-weight="bold" lengthAdjust="spacing" textLength="5" x="506" y="1238.2026">]</text><polygon fill="#000000" points="143,1262.7188,133,1266.7188,143,1270.7188,139,1266.7188" style="stroke:#000000;stroke-width:1.0;"/><line style="stroke:#000000;stroke-width:1.0;stroke-dasharray:2.0,2.0;" x1="137" x2="625" y1="1266.7188" y2="1266.7188"/><text fill="#000000" font-family="sans-serif" font-size="17" font-weight="bold" lengthAdjust="spacing" textLength="12" x="416" y="1260.7095">9</text><text fill="#000000" font-family="sans-serif" font-size="17" lengthAdjust="spacing" textLength="187" x="432" y="1260.7095">FLStatus_RD=veraltet</text><polygon fill="#000000" points="895,1296.5078,905,1300.5078,895,1304.5078,899,1300.5078" style="stroke:#000000;stroke-width:1.0;"/><line style="stroke:#000000;stroke-width:1.0;" x1="636" x2="901" y1="1300.5078" y2="1300.5078"/><text fill="#000000" font-family="sans-serif" font-size="17" font-weight="bold" lengthAdjust="spacing" textLength="24" x="643" y="1294.4985">10</text><text fill="#000000" font-family="sans-serif" font-size="17" lengthAdjust="spacing" textLength="219" x="671" y="1294.4985">Incident-Event erzeugen()</text><line style="stroke:#000000;stroke-width:1.0;" x1="132" x2="174" y1="1334.2969" y2="1334.2969"/><line style="stroke:#000000;stroke-width:1.0;" x1="174" x2="174" y1="1334.2969" y2="1347.2969"/><line style="stroke:#000000;stroke-width:1.0;" x1="133" x2="174" y1="1347.2969" y2="1347.2969"/><polygon fill="#000000" points="143,1343.2969,133,1347.2969,143,1351.2969,139,1347.2969" style="stroke:#000000;stroke-width:1.0;"/><text fill="#000000" font-family="sans-serif" font-size="17" font-weight="bold" lengthAdjust="spacing" textLength="24" x="139" y="1328.2876">11</text><text fill="#000000" font-family="sans-serif" font-size="17" lengthAdjust="spacing" textLength="452" x="167" y="1328.2876">unterbinde Registrierungsdienst-Requests(Dauer=1h)</text><line style="stroke:#000000;stroke-width:1.0;" x1="132" x2="174" y1="1381.0859" y2="1381.0859"/><line style="stroke:#000000;stroke-width:1.0;" x1="174" x2="174" y1="1381.0859" y2="1394.0859"/><line style="stroke:#000000;stroke-width:1.0;" x1="133" x2="174" y1="1394.0859" y2="1394.0859"/><polygon fill="#000000" points="143,1390.0859,133,1394.0859,143,1398.0859,139,1394.0859" style="stroke:#000000;stroke-width:1.0;"/><text fill="#000000" font-family="sans-serif" font-size="17" font-weight="bold" lengthAdjust="spacing" textLength="24" x="139" y="1375.0767">12</text><text fill="#000000" font-family="sans-serif" font-size="17" lengthAdjust="spacing" textLength="446" x="167" y="1375.0767">blockiere Kommunikation zu anderen Homeservern()</text><line style="stroke:#000000;stroke-width:1.0;" x1="636" x2="683" y1="1474.6641" y2="1474.6641"/><line style="stroke:#000000;stroke-width:1.0;" x1="683" x2="683" y1="1474.6641" y2="1487.6641"/><line style="stroke:#000000;stroke-width:1.0;" x1="642" x2="683" y1="1487.6641" y2="1487.6641"/><polygon fill="#000000" points="652,1483.6641,642,1487.6641,652,1491.6641,648,1487.6641" style="stroke:#000000;stroke-width:1.0;"/><text fill="#000000" font-family="sans-serif" font-size="17" font-weight="bold" lengthAdjust="spacing" textLength="24" x="648" y="1458.7603">13</text><text fill="#000000" font-family="sans-serif" font-size="17" lengthAdjust="spacing" textLength="174" x="676" y="1448.8657">vergleiche Versionen</text><text fill="#000000" font-family="sans-serif" font-size="17" lengthAdjust="spacing" textLength="254" x="676" y="1468.6548">(FLVersion_MP, FLVersion_RD)</text><line style="stroke:#000000;stroke-width:1.0;stroke-dasharray:2.0,2.0;" x1="641" x2="683" y1="1531.4531" y2="1531.4531"/><line style="stroke:#000000;stroke-width:1.0;stroke-dasharray:2.0,2.0;" x1="683" x2="683" y1="1531.4531" y2="1544.4531"/><line style="stroke:#000000;stroke-width:1.0;stroke-dasharray:2.0,2.0;" x1="636" x2="683" y1="1544.4531" y2="1544.4531"/><polygon fill="#000000" points="646,1540.4531,636,1544.4531,646,1548.4531,642,1544.4531" style="stroke:#000000;stroke-width:1.0;"/><text fill="#000000" font-family="sans-serif" font-size="17" font-weight="bold" lengthAdjust="spacing" textLength="24" x="648" y="1525.4438">14</text><text fill="#000000" font-family="sans-serif" font-size="17" lengthAdjust="spacing" textLength="190" x="676" y="1525.4438">Vergleichsergebnis_RD</text><path d="M10,1554.4531 L74,1554.4531 L74,1561.5859 L64,1571.5859 L10,1571.5859 L10,1554.4531 " fill="#D3D3D3" style="stroke:#000000;stroke-width:1.5;"/><rect fill="none" height="232.7188" style="stroke:#000000;stroke-width:1.5;" width="746.5" x="10" y="1554.4531"/><text fill="#000000" font-family="sans-serif" font-size="13" font-weight="bold" lengthAdjust="spacing" textLength="19" x="25" y="1567.52">alt</text><text fill="#000000" font-family="sans-serif" font-size="11" font-weight="bold" lengthAdjust="spacing" textLength="5" x="89" y="1572.4839">[</text><text fill="#000000" font-family="sans-serif" font-size="16" font-weight="bold" lengthAdjust="spacing" textLength="295" x="94" y="1571.3047">Vergleichsergebnis_RD=identisch</text><text fill="#000000" font-family="sans-serif" font-size="11" font-weight="bold" lengthAdjust="spacing" textLength="5" x="389" y="1572.4839">]</text><polygon fill="#000000" points="143,1622,133,1626,143,1630,139,1626" style="stroke:#000000;stroke-width:1.0;"/><line style="stroke:#000000;stroke-width:1.0;stroke-dasharray:2.0,2.0;" x1="137" x2="625" y1="1626" y2="1626"/><text fill="#000000" font-family="sans-serif" font-size="17" font-weight="bold" lengthAdjust="spacing" textLength="24" x="412" y="1619.9907">15</text><text fill="#000000" font-family="sans-serif" font-size="17" lengthAdjust="spacing" textLength="179" x="440" y="1619.9907">FLStatus_MP=aktuell</text><line style="stroke:#000000;stroke-width:1.0;stroke-dasharray:2.0,2.0;" x1="10" x2="756.5" y1="1660" y2="1660"/><text fill="#000000" font-family="sans-serif" font-size="11" font-weight="bold" lengthAdjust="spacing" textLength="5" x="15" y="1676.0308">[</text><text fill="#000000" font-family="sans-serif" font-size="16" font-weight="bold" lengthAdjust="spacing" textLength="302" x="20" y="1674.8516">Vergleichsergebnis_RD!=identisch</text><text fill="#000000" font-family="sans-serif" font-size="11" font-weight="bold" lengthAdjust="spacing" textLength="5" x="322" y="1676.0308">]</text><polygon fill="#000000" points="143,1701.4141,133,1705.4141,143,1709.4141,139,1705.4141" style="stroke:#000000;stroke-width:1.0;"/><line style="stroke:#000000;stroke-width:1.0;stroke-dasharray:2.0,2.0;" x1="137" x2="625" y1="1705.4141" y2="1705.4141"/><text fill="#000000" font-family="sans-serif" font-size="17" font-weight="bold" lengthAdjust="spacing" textLength="24" x="291" y="1699.4048">16</text><text fill="#000000" font-family="sans-serif" font-size="17" lengthAdjust="spacing" textLength="300" x="319" y="1699.4048">F&#246;derationsliste, x5c-Zertifikatsliste</text><rect fill="none" height="43.7578" style="stroke:#000000;stroke-width:1.5;" width="288" x="17" y="1713.4141"/><path d="M17,1713.4141 L83,1713.4141 L83,1720.4141 L73,1730.4141 L17,1730.4141 L17,1713.4141 " fill="#98FB98" style="stroke:#000000;stroke-width:2.0;"/><text fill="#000000" font-family="sans-serif" font-size="13" font-weight="bold" lengthAdjust="spacing" textLength="21" x="30" y="1727.481">ref</text><text fill="#000000" font-family="sans-serif" font-size="16" lengthAdjust="spacing" textLength="280" x="21" y="1749.2656">Signatur der F&#246;derationsliste pr&#252;fen</text><!--SRC=[nLVRJYD747tlhwXb7nO4ri9kDbaXxCXW35Pii6p2IXiYr9ufpxGyxdPwUenno6_jKzxuiLJFUAwssI15YYLWfhkwpgbJbpRXHCWPrtmA8VuHeNImXs78FMm6mfFW2esE4KgoC3ES2daMy33y8bpZmuV3myBUgLhqkUiAwS5HOJdrFS0nQljmYTn5VSgTYQTL9Dqp5IWDCnwWfn49pQ57cF85-V_XCpnOABR18Vp9cbghX-JyA227oK9RIJCKIuIZdrZJCKgVAas8HRkk66DNI7nXfyBlWWiPZfHMZFMvDi8HCovDyNnF6J7diM15YugVWjMxWfdbVCMd29tfZ3k6LRRYS3uSLfUBnBUmEbtRh1AwlkdSDcywrrTifTRMoEFjAcwsc79ybwt40JNv31ViByPuP9ICfYFKZ8tK0av2Ed1yzBbXgmwbXxesH3qN3jv9UFl55mQ7KpL1Dil9GwyFF8IT_4XVgyNZ3aFf0ZajsGvQiUq0FH4QBL17qWjhBO4oD3jb2hTVMxNsPMT0kxRebNuyUM_t6YKY04NtxOHAV6p5ecpG7CO6ryt8-6beELDMhwVuFpP2nqSt2j1DOUjrnWAbPc-xmlFDXSR7t9W7r1z7_igKG7bWDjbHemN67nfky9u2h7iOKbBXkdK-W6PWKD-tdxzHeSJL60Oa4ZRg9RzENAj8IjBRqzCJ_TOu1ZL7JT4Ta0G7oHxag2J5N91Ne7pxA8qOYwMmdGyMV0qH-4X7OvGvgXM8K5Q8TY48SMjKRrPXvUU1ADKQWzOn54pFV7GcW486IEcKkzMjMA33lVZuYxf_eX48lrwrO9E7a_h78ezKC_lPfjj_gvtzvFgL6RogIiek0KOQ-QHmF7di2pd9JBRhRlqIL_91PIvtzx8ZH3Kb_TeSVnSFjV_yZU3kDYTx_oYdyNrbyXhvM2LXQK2jyVCnTAH3oPEcTZwdtqHWYP5NYZUblBz_306Q9QLmhhJF9Ht33VcTHMEwDCiUD9f8otNZp2JFU4dWrLFwryLoTzjr-rCQIqeI7DsseIdE9Ph19pMATvtldUGJ4t5wYQkMU6SWlJwTIz9rSNu3xpltGj88ahUegSgTsCjkkqkl8JtTz_fxJ2ewfsrUZdDAGyUNmXX2iztu8BGBKZY-8UpCnesquzFt5mGFf-Hv0k4CbwjcIaDXYKxDWWhiTOFKJe4NvYYaGF_Vx8mJkhrrS-1jOTpSTDTNSpYgvbgZrwTIw5frel1-qAfJW2GN6lRlEiDMXNKHsN8O2Me5AD_ORdnXrmP98OQxBHwX9dsBXqU1SYPMAVX5JQUH59EOBomZiCrb5RnKKmpf4axxoGeKwrDiIjhrw8QWCGMhIem7IB4kANFPsw2rnxAEl4tF4eg78oci6cpxzRpHlXxh9EZxG77Ef2szhdUlNxSjHysG6QxTc1k1tcn6oX6gMJ-0nIUdzfKQYAgIv2rCdQokgSahDzgG_fCWeXfiLMyOSFhvxye5Lho-ahYJaPKyjofZYmhWDr-u5ChlZGI-CDXw_Ny0]--></g></svg>