<?xml version="1.0" encoding="us-ascii" standalone="no"?><svg xmlns="http://www.w3.org/2000/svg" xmlns:xlink="http://www.w3.org/1999/xlink" contentStyleType="text/css" height="1348px" preserveAspectRatio="none" style="width:1451px;height:1348px;background:#FFFFFF;" version="1.1" viewBox="0 0 1451 1348" width="1451px" zoomAndPan="magnify"><defs/><g><rect fill="#F5F5F5" height="1336.0547" style="stroke:#181818;stroke-width:0.5;" width="708" x="611.5" y="6"/><text fill="#000000" font-family="sans-serif" font-size="18" font-weight="bold" lengthAdjust="spacing" textLength="200" x="863" y="22.708">VZD-FHIR-Directory</text><text fill="#000000" font-family="sans-serif" font-size="13" font-weight="bold" lengthAdjust="spacing" textLength="5" x="1063" y="23.8872">&#160;</text><rect fill="#DCDCDC" height="1212.5391" style="stroke:#000000;stroke-width:1.0;" width="10" x="140.5" y="79.2344"/><rect fill="#DCDCDC" height="44.7891" style="stroke:#000000;stroke-width:1.0;" width="10" x="145.5" y="1127.1953"/><rect fill="#DCDCDC" height="100.3672" style="stroke:#000000;stroke-width:1.0;" width="10" x="717.5" y="200.1172"/><rect fill="#DCDCDC" height="100.3672" style="stroke:#000000;stroke-width:1.0;" width="10" x="956.5" y="361.0625"/><rect fill="#DCDCDC" height="518.6094" style="stroke:#000000;stroke-width:1.0;" width="10" x="1203.5" y="566.7969"/><rect fill="none" height="383.1953" style="stroke:#000000;stroke-width:1.5;" width="1198.5" x="10" y="86.2344"/><rect fill="none" height="194.4922" style="stroke:#000000;stroke-width:1.5;" width="941.5" x="20" y="113.9922"/><rect fill="#FFB6C1" height="113.9141" style="stroke:#000000;stroke-width:1.5;" width="1305.5" x="20" y="648.375"/><rect fill="none" height="346.1172" style="stroke:#000000;stroke-width:1.5;" width="1305.5" x="20" y="912.6563"/><line style="stroke:#000000;stroke-width:0.5;stroke-dasharray:5.0,5.0;" x1="145" x2="145" y1="69.2344" y2="1300.7734"/><line style="stroke:#000000;stroke-width:0.5;stroke-dasharray:5.0,5.0;" x1="722.5" x2="722.5" y1="69.2344" y2="1300.7734"/><line style="stroke:#000000;stroke-width:0.5;stroke-dasharray:5.0,5.0;" x1="961.5" x2="961.5" y1="69.2344" y2="1300.7734"/><line style="stroke:#000000;stroke-width:0.5;stroke-dasharray:5.0,5.0;" x1="1208.5" x2="1208.5" y1="69.2344" y2="1300.7734"/><rect fill="#EFEFFF" height="37.2813" rx="2.5" ry="2.5" style="stroke:#000000;stroke-width:0.5;" width="231" x="30" y="30.9531"/><text fill="#000000" font-family="sans-serif" font-size="20" lengthAdjust="spacing" textLength="217" x="37" y="56.5176">Registrierungs-Dienst</text><rect fill="#EFEFFF" height="37.2813" rx="2.5" ry="2.5" style="stroke:#000000;stroke-width:0.5;" width="231" x="30" y="1299.7734"/><text fill="#000000" font-family="sans-serif" font-size="20" lengthAdjust="spacing" textLength="217" x="37" y="1325.3379">Registrierungs-Dienst</text><rect fill="#EFEFFF" height="37.2813" rx="2.5" ry="2.5" style="stroke:#000000;stroke-width:0.5;" width="214" x="615.5" y="30.9531"/><text fill="#000000" font-family="sans-serif" font-size="20" lengthAdjust="spacing" textLength="144" x="650.5" y="56.5176">OAuth-Service</text><rect fill="#EFEFFF" height="37.2813" rx="2.5" ry="2.5" style="stroke:#000000;stroke-width:0.5;" width="214" x="615.5" y="1299.7734"/><text fill="#000000" font-family="sans-serif" font-size="20" lengthAdjust="spacing" textLength="144" x="650.5" y="1325.3379">OAuth-Service</text><rect fill="#EFEFFF" height="37.2813" rx="2.5" ry="2.5" style="stroke:#000000;stroke-width:0.5;" width="214" x="854.5" y="30.9531"/><text fill="#000000" font-family="sans-serif" font-size="20" lengthAdjust="spacing" textLength="128" x="897.5" y="56.5176">Auth-Service</text><rect fill="#EFEFFF" height="37.2813" rx="2.5" ry="2.5" style="stroke:#000000;stroke-width:0.5;" width="214" x="854.5" y="1299.7734"/><text fill="#000000" font-family="sans-serif" font-size="20" lengthAdjust="spacing" textLength="128" x="897.5" y="1325.3379">Auth-Service</text><rect fill="#EFEFFF" height="37.2813" rx="2.5" ry="2.5" style="stroke:#000000;stroke-width:0.5;" width="214" x="1101.5" y="30.9531"/><text fill="#000000" font-family="sans-serif" font-size="20" lengthAdjust="spacing" textLength="108" x="1154.5" y="56.5176">FHIR-Proxy</text><rect fill="#EFEFFF" height="37.2813" rx="2.5" ry="2.5" style="stroke:#000000;stroke-width:0.5;" width="214" x="1101.5" y="1299.7734"/><text fill="#000000" font-family="sans-serif" font-size="20" lengthAdjust="spacing" textLength="108" x="1154.5" y="1325.3379">FHIR-Proxy</text><rect fill="#DCDCDC" height="1212.5391" style="stroke:#000000;stroke-width:1.0;" width="10" x="140.5" y="79.2344"/><rect fill="#DCDCDC" height="44.7891" style="stroke:#000000;stroke-width:1.0;" width="10" x="145.5" y="1127.1953"/><rect fill="#DCDCDC" height="100.3672" style="stroke:#000000;stroke-width:1.0;" width="10" x="717.5" y="200.1172"/><rect fill="#DCDCDC" height="100.3672" style="stroke:#000000;stroke-width:1.0;" width="10" x="956.5" y="361.0625"/><rect fill="#DCDCDC" height="518.6094" style="stroke:#000000;stroke-width:1.0;" width="10" x="1203.5" y="566.7969"/><path d="M10,86.2344 L74,86.2344 L74,93.3672 L64,103.3672 L10,103.3672 L10,86.2344 " fill="#D3D3D3" style="stroke:#000000;stroke-width:1.5;"/><rect fill="none" height="383.1953" style="stroke:#000000;stroke-width:1.5;" width="1198.5" x="10" y="86.2344"/><text fill="#000000" font-family="sans-serif" font-size="13" font-weight="bold" lengthAdjust="spacing" textLength="19" x="25" y="99.3013">alt</text><text fill="#000000" font-family="sans-serif" font-size="11" font-weight="bold" lengthAdjust="spacing" textLength="5" x="89" y="104.2651">[</text><text fill="#000000" font-family="sans-serif" font-size="16" font-weight="bold" lengthAdjust="spacing" textLength="413" x="94" y="103.0859">kein g&#252;ltiges provider-accesstoken vorhanden</text><text fill="#000000" font-family="sans-serif" font-size="11" font-weight="bold" lengthAdjust="spacing" textLength="5" x="507" y="104.2651">]</text><path d="M20,113.9922 L84,113.9922 L84,121.125 L74,131.125 L20,131.125 L20,113.9922 " fill="#D3D3D3" style="stroke:#000000;stroke-width:1.5;"/><rect fill="none" height="194.4922" style="stroke:#000000;stroke-width:1.5;" width="941.5" x="20" y="113.9922"/><text fill="#000000" font-family="sans-serif" font-size="13" font-weight="bold" lengthAdjust="spacing" textLength="19" x="35" y="127.0591">alt</text><text fill="#000000" font-family="sans-serif" font-size="11" font-weight="bold" lengthAdjust="spacing" textLength="5" x="99" y="132.0229">[</text><text fill="#000000" font-family="sans-serif" font-size="16" font-weight="bold" lengthAdjust="spacing" textLength="341" x="104" y="130.8438">Ben&#246;tigt IDP-TI-Provider-Accesstoken</text><text fill="#000000" font-family="sans-serif" font-size="11" font-weight="bold" lengthAdjust="spacing" textLength="5" x="445" y="132.0229">]</text><polygon fill="#000000" points="705.5,196.1172,715.5,200.1172,705.5,204.1172,709.5,200.1172" style="stroke:#000000;stroke-width:1.0;"/><line style="stroke:#000000;stroke-width:1.0;" x1="150.5" x2="711.5" y1="200.1172" y2="200.1172"/><text fill="#000000" font-family="sans-serif" font-size="17" font-weight="bold" lengthAdjust="spacing" textLength="12" x="157.5" y="174.3188">1</text><text fill="#000000" font-family="sans-serif" font-size="17" lengthAdjust="spacing" textLength="514" x="173.5" y="154.5298">POST /auth/realms/TI-Provider/protocol/openid-connect/token</text><text fill="#000000" font-family="sans-serif" font-size="17" lengthAdjust="spacing" textLength="199" x="173.5" y="174.3188">(client_id, client_secret)</text><text fill="#000000" font-family="sans-serif" font-size="17" lengthAdjust="spacing" textLength="316" x="173.5" y="194.1079">{&lt;10s := HealthState_VZD=gesund}</text><line style="stroke:#000000;stroke-width:1.0;" x1="727.5" x2="769.5" y1="253.6953" y2="253.6953"/><line style="stroke:#000000;stroke-width:1.0;" x1="769.5" x2="769.5" y1="253.6953" y2="266.6953"/><line style="stroke:#000000;stroke-width:1.0;" x1="728.5" x2="769.5" y1="266.6953" y2="266.6953"/><polygon fill="#000000" points="738.5,262.6953,728.5,266.6953,738.5,270.6953,734.5,266.6953" style="stroke:#000000;stroke-width:1.0;"/><text fill="#000000" font-family="sans-serif" font-size="17" font-weight="bold" lengthAdjust="spacing" textLength="12" x="734.5" y="237.7915">2</text><text fill="#000000" font-family="sans-serif" font-size="17" lengthAdjust="spacing" textLength="155" x="750.5" y="227.897">Credentials pr&#252;fen</text><text fill="#000000" font-family="sans-serif" font-size="17" lengthAdjust="spacing" textLength="199" x="750.5" y="247.686">(client_id, client_secret)</text><polygon fill="#000000" points="161.5,296.4844,151.5,300.4844,161.5,304.4844,157.5,300.4844" style="stroke:#000000;stroke-width:1.0;"/><line style="stroke:#000000;stroke-width:1.0;stroke-dasharray:2.0,2.0;" x1="155.5" x2="721.5" y1="300.4844" y2="300.4844"/><text fill="#000000" font-family="sans-serif" font-size="17" font-weight="bold" lengthAdjust="spacing" textLength="12" x="506.5" y="294.4751">3</text><text fill="#000000" font-family="sans-serif" font-size="17" lengthAdjust="spacing" textLength="193" x="522.5" y="294.4751">ti-provider-accesstoken</text><polygon fill="#000000" points="944.5,357.0625,954.5,361.0625,944.5,365.0625,948.5,361.0625" style="stroke:#000000;stroke-width:1.0;"/><line style="stroke:#000000;stroke-width:1.0;" x1="150.5" x2="950.5" y1="361.0625" y2="361.0625"/><text fill="#000000" font-family="sans-serif" font-size="17" font-weight="bold" lengthAdjust="spacing" textLength="12" x="157.5" y="345.1587">4</text><text fill="#000000" font-family="sans-serif" font-size="17" lengthAdjust="spacing" textLength="452" x="173.5" y="335.2642">GET /ti-provider-authenticate(ti-provider-accesstoken)</text><text fill="#000000" font-family="sans-serif" font-size="17" lengthAdjust="spacing" textLength="316" x="173.5" y="355.0532">{&lt;10s := HealthState_VZD=gesund}</text><line style="stroke:#000000;stroke-width:1.0;" x1="966.5" x2="1008.5" y1="414.6406" y2="414.6406"/><line style="stroke:#000000;stroke-width:1.0;" x1="1008.5" x2="1008.5" y1="414.6406" y2="427.6406"/><line style="stroke:#000000;stroke-width:1.0;" x1="967.5" x2="1008.5" y1="427.6406" y2="427.6406"/><polygon fill="#000000" points="977.5,423.6406,967.5,427.6406,977.5,431.6406,973.5,427.6406" style="stroke:#000000;stroke-width:1.0;"/><text fill="#000000" font-family="sans-serif" font-size="17" font-weight="bold" lengthAdjust="spacing" textLength="12" x="973.5" y="398.7368">5</text><text fill="#000000" font-family="sans-serif" font-size="17" lengthAdjust="spacing" textLength="111" x="989.5" y="388.8423">Token pr&#252;fen</text><text fill="#000000" font-family="sans-serif" font-size="17" lengthAdjust="spacing" textLength="207" x="989.5" y="408.6313">(ti-provider-accesstoken)</text><polygon fill="#000000" points="161.5,457.4297,151.5,461.4297,161.5,465.4297,157.5,461.4297" style="stroke:#000000;stroke-width:1.0;"/><line style="stroke:#000000;stroke-width:1.0;stroke-dasharray:2.0,2.0;" x1="155.5" x2="960.5" y1="461.4297" y2="461.4297"/><text fill="#000000" font-family="sans-serif" font-size="17" font-weight="bold" lengthAdjust="spacing" textLength="12" x="763.5" y="455.4204">6</text><text fill="#000000" font-family="sans-serif" font-size="17" lengthAdjust="spacing" textLength="175" x="779.5" y="455.4204">provider-accesstoken</text><polygon fill="#000000" points="1191.5,562.7969,1201.5,566.7969,1191.5,570.7969,1195.5,566.7969" style="stroke:#000000;stroke-width:1.0;"/><line style="stroke:#000000;stroke-width:1.0;" x1="150.5" x2="1197.5" y1="566.7969" y2="566.7969"/><text fill="#000000" font-family="sans-serif" font-size="17" font-weight="bold" lengthAdjust="spacing" textLength="12" x="157.5" y="540.9985">7</text><text fill="#000000" font-family="sans-serif" font-size="17" lengthAdjust="spacing" textLength="500" x="173.5" y="521.2095">GET /tim-provider-services/FederationList/federationList.jws</text><text fill="#000000" font-family="sans-serif" font-size="17" lengthAdjust="spacing" textLength="314" x="173.5" y="540.9985">(provider-accesstoken, FLVersion_RD)</text><text fill="#000000" font-family="sans-serif" font-size="17" lengthAdjust="spacing" textLength="316" x="173.5" y="560.7876">{&lt;10s := HealthState_VZD=gesund}</text><line style="stroke:#000000;stroke-width:1.0;" x1="1213.5" x2="1255.5" y1="620.375" y2="620.375"/><line style="stroke:#000000;stroke-width:1.0;" x1="1255.5" x2="1255.5" y1="620.375" y2="633.375"/><line style="stroke:#000000;stroke-width:1.0;" x1="1214.5" x2="1255.5" y1="633.375" y2="633.375"/><polygon fill="#000000" points="1224.5,629.375,1214.5,633.375,1224.5,637.375,1220.5,633.375" style="stroke:#000000;stroke-width:1.0;"/><text fill="#000000" font-family="sans-serif" font-size="17" font-weight="bold" lengthAdjust="spacing" textLength="12" x="1220.5" y="604.4712">8</text><text fill="#000000" font-family="sans-serif" font-size="17" lengthAdjust="spacing" textLength="111" x="1236.5" y="594.5767">Token pr&#252;fen</text><text fill="#000000" font-family="sans-serif" font-size="17" lengthAdjust="spacing" textLength="189" x="1236.5" y="614.3657">(provider-accesstoken)</text><path d="M20,648.375 L108,648.375 L108,655.5078 L98,665.5078 L20,665.5078 L20,648.375 " fill="#D3D3D3" style="stroke:#000000;stroke-width:1.5;"/><rect fill="none" height="113.9141" style="stroke:#000000;stroke-width:1.5;" width="1305.5" x="20" y="648.375"/><text fill="#000000" font-family="sans-serif" font-size="13" font-weight="bold" lengthAdjust="spacing" textLength="43" x="35" y="661.4419">break</text><text fill="#000000" font-family="sans-serif" font-size="11" font-weight="bold" lengthAdjust="spacing" textLength="5" x="123" y="666.4058">[</text><text fill="#000000" font-family="sans-serif" font-size="16" font-weight="bold" lengthAdjust="spacing" textLength="356" x="128" y="665.2266">Abruf der F&#246;derationsliste nicht m&#246;glich</text><text fill="#000000" font-family="sans-serif" font-size="11" font-weight="bold" lengthAdjust="spacing" textLength="5" x="484" y="666.4058">]</text><polygon fill="#000000" points="161.5,750.2891,151.5,754.2891,161.5,758.2891,157.5,754.2891" style="stroke:#000000;stroke-width:1.0;"/><line style="stroke:#000000;stroke-width:1.0;stroke-dasharray:2.0,2.0;" x1="155.5" x2="1202.5" y1="754.2891" y2="754.2891"/><text fill="#000000" font-family="sans-serif" font-size="17" font-weight="bold" lengthAdjust="spacing" textLength="12" x="875.5" y="718.5962">9</text><text fill="#000000" font-family="sans-serif" font-size="17" lengthAdjust="spacing" textLength="292" x="891.5" y="688.9126">ResponseType=Bad Request ODER</text><text fill="#000000" font-family="sans-serif" font-size="17" lengthAdjust="spacing" textLength="300" x="891.5" y="708.7017">ResponseType=Unauthorized ODER</text><text fill="#000000" font-family="sans-serif" font-size="17" lengthAdjust="spacing" textLength="270" x="891.5" y="728.4907">ResponseType=Forbidden ODER</text><text fill="#000000" font-family="sans-serif" font-size="17" lengthAdjust="spacing" textLength="220" x="891.5" y="748.2798">ResponseType=Not Found</text><line style="stroke:#000000;stroke-width:1.0;" x1="1213.5" x2="1255.5" y1="859.6563" y2="859.6563"/><line style="stroke:#000000;stroke-width:1.0;" x1="1255.5" x2="1255.5" y1="859.6563" y2="872.6563"/><line style="stroke:#000000;stroke-width:1.0;" x1="1214.5" x2="1255.5" y1="872.6563" y2="872.6563"/><polygon fill="#000000" points="1224.5,868.6563,1214.5,872.6563,1224.5,876.6563,1220.5,872.6563" style="stroke:#000000;stroke-width:1.0;"/><text fill="#000000" font-family="sans-serif" font-size="17" font-weight="bold" lengthAdjust="spacing" textLength="24" x="1220.5" y="833.8579">10</text><text fill="#000000" font-family="sans-serif" font-size="17" lengthAdjust="spacing" textLength="191" x="1248.5" y="814.0688">Auf neuere Version der</text><text fill="#000000" font-family="sans-serif" font-size="17" lengthAdjust="spacing" textLength="193" x="1248.5" y="833.8579">F&#246;derationsliste pr&#252;fen</text><text fill="#000000" font-family="sans-serif" font-size="17" lengthAdjust="spacing" textLength="129" x="1248.5" y="853.647">(FLVersion_RD)</text><path d="M20,912.6563 L84,912.6563 L84,919.7891 L74,929.7891 L20,929.7891 L20,912.6563 " fill="#D3D3D3" style="stroke:#000000;stroke-width:1.5;"/><rect fill="none" height="346.1172" style="stroke:#000000;stroke-width:1.5;" width="1305.5" x="20" y="912.6563"/><text fill="#000000" font-family="sans-serif" font-size="13" font-weight="bold" lengthAdjust="spacing" textLength="19" x="35" y="925.7231">alt</text><text fill="#000000" font-family="sans-serif" font-size="11" font-weight="bold" lengthAdjust="spacing" textLength="5" x="99" y="930.687">[</text><text fill="#000000" font-family="sans-serif" font-size="16" font-weight="bold" lengthAdjust="spacing" textLength="474" x="104" y="929.5078">keine neuere Version der F&#246;derationsliste vorhanden</text><text fill="#000000" font-family="sans-serif" font-size="11" font-weight="bold" lengthAdjust="spacing" textLength="5" x="578" y="930.687">]</text><polygon fill="#000000" points="161.5,955.2031,151.5,959.2031,161.5,963.2031,157.5,959.2031" style="stroke:#000000;stroke-width:1.0;"/><line style="stroke:#000000;stroke-width:1.0;stroke-dasharray:2.0,2.0;" x1="155.5" x2="1202.5" y1="959.2031" y2="959.2031"/><text fill="#000000" font-family="sans-serif" font-size="17" font-weight="bold" lengthAdjust="spacing" textLength="24" x="939.5" y="953.1938">11</text><text fill="#000000" font-family="sans-serif" font-size="17" lengthAdjust="spacing" textLength="229" x="967.5" y="953.1938">ResponseType=No Content</text><line style="stroke:#000000;stroke-width:1.0;" x1="150.5" x2="192.5" y1="992.9922" y2="992.9922"/><line style="stroke:#000000;stroke-width:1.0;" x1="192.5" x2="192.5" y1="992.9922" y2="1005.9922"/><line style="stroke:#000000;stroke-width:1.0;" x1="151.5" x2="192.5" y1="1005.9922" y2="1005.9922"/><polygon fill="#000000" points="161.5,1001.9922,151.5,1005.9922,161.5,1009.9922,157.5,1005.9922" style="stroke:#000000;stroke-width:1.0;"/><text fill="#000000" font-family="sans-serif" font-size="17" font-weight="bold" lengthAdjust="spacing" textLength="24" x="157.5" y="986.9829">12</text><text fill="#000000" font-family="sans-serif" font-size="17" lengthAdjust="spacing" textLength="525" x="185.5" y="986.9829">Alter_F&#246;derationsliste zur&#252;cksetzen(Alter_F&#246;derationsliste=0s)</text><line style="stroke:#000000;stroke-width:1.0;stroke-dasharray:2.0,2.0;" x1="20" x2="1325.5" y1="1039.9922" y2="1039.9922"/><text fill="#000000" font-family="sans-serif" font-size="11" font-weight="bold" lengthAdjust="spacing" textLength="5" x="25" y="1056.0229">[</text><text fill="#000000" font-family="sans-serif" font-size="16" font-weight="bold" lengthAdjust="spacing" textLength="659" x="30" y="1054.8438">neuere Version der F&#246;derationsliste vorhanden ODER FLVersion_RD=NULL</text><text fill="#000000" font-family="sans-serif" font-size="11" font-weight="bold" lengthAdjust="spacing" textLength="5" x="689" y="1056.0229">]</text><polygon fill="#000000" points="161.5,1081.4063,151.5,1085.4063,161.5,1089.4063,157.5,1085.4063" style="stroke:#000000;stroke-width:1.0;"/><line style="stroke:#000000;stroke-width:1.0;stroke-dasharray:2.0,2.0;" x1="155.5" x2="1207.5" y1="1085.4063" y2="1085.4063"/><text fill="#000000" font-family="sans-serif" font-size="17" font-weight="bold" lengthAdjust="spacing" textLength="24" x="873.5" y="1079.397">13</text><text fill="#000000" font-family="sans-serif" font-size="17" lengthAdjust="spacing" textLength="300" x="901.5" y="1079.397">F&#246;derationsliste, x5c-Zertifikatsliste</text><line style="stroke:#000000;stroke-width:1.0;" x1="150.5" x2="197.5" y1="1114.1953" y2="1114.1953"/><line style="stroke:#000000;stroke-width:1.0;" x1="197.5" x2="197.5" y1="1114.1953" y2="1127.1953"/><line style="stroke:#000000;stroke-width:1.0;" x1="156.5" x2="197.5" y1="1127.1953" y2="1127.1953"/><polygon fill="#000000" points="166.5,1123.1953,156.5,1127.1953,166.5,1131.1953,162.5,1127.1953" style="stroke:#000000;stroke-width:1.0;"/><text fill="#000000" font-family="sans-serif" font-size="17" font-weight="bold" lengthAdjust="spacing" textLength="24" x="162.5" y="1108.186">14</text><text fill="#000000" font-family="sans-serif" font-size="17" lengthAdjust="spacing" textLength="394" x="190.5" y="1108.186">F&#246;derationsliste aktualisieren(F&#246;derationsliste)</text><line style="stroke:#000000;stroke-width:1.0;stroke-dasharray:2.0,2.0;" x1="155.5" x2="197.5" y1="1170.9844" y2="1170.9844"/><line style="stroke:#000000;stroke-width:1.0;stroke-dasharray:2.0,2.0;" x1="197.5" x2="197.5" y1="1170.9844" y2="1183.9844"/><line style="stroke:#000000;stroke-width:1.0;stroke-dasharray:2.0,2.0;" x1="150.5" x2="197.5" y1="1183.9844" y2="1183.9844"/><polygon fill="#000000" points="160.5,1179.9844,150.5,1183.9844,160.5,1187.9844,156.5,1183.9844" style="stroke:#000000;stroke-width:1.0;"/><text fill="#000000" font-family="sans-serif" font-size="17" font-weight="bold" lengthAdjust="spacing" textLength="24" x="162.5" y="1164.9751">15</text><text fill="#000000" font-family="sans-serif" font-size="17" lengthAdjust="spacing" textLength="133" x="190.5" y="1164.9751">F&#246;derationsliste</text><line style="stroke:#000000;stroke-width:1.0;" x1="150.5" x2="192.5" y1="1212.7734" y2="1212.7734"/><line style="stroke:#000000;stroke-width:1.0;" x1="192.5" x2="192.5" y1="1212.7734" y2="1225.7734"/><line style="stroke:#000000;stroke-width:1.0;" x1="151.5" x2="192.5" y1="1225.7734" y2="1225.7734"/><polygon fill="#000000" points="161.5,1221.7734,151.5,1225.7734,161.5,1229.7734,157.5,1225.7734" style="stroke:#000000;stroke-width:1.0;"/><text fill="#000000" font-family="sans-serif" font-size="17" font-weight="bold" lengthAdjust="spacing" textLength="24" x="157.5" y="1206.7642">16</text><text fill="#000000" font-family="sans-serif" font-size="17" lengthAdjust="spacing" textLength="525" x="185.5" y="1206.7642">Alter_F&#246;derationsliste zur&#252;cksetzen(Alter_F&#246;derationsliste=0s)</text><!--SRC=[jLPTRzfA47tVNx5ANtBL-9fK_H8AI2RKAH8D5g6fL4MA5dimUp6xT7UTa3JzMtdg6t_ipje66p1HxyFbXMLdVERCcG-ZPrmic69pgk572YA4Bw0rYy5BU2nen1M4Xaj1zCPnpiLvmhJ-nYCpfMyQZOgj8vS1Yo8kOdfQkLvZ3s42oXu-0uj0TLWuYvLCHNGk4wdeWYKGAm2C5kAHpjaIyTz-fFSs5Aa1f3-9fvIypvyV9mYON_XIc2l-2FJq0_528rL7AenOzUlp2VIvW1SiE_mk61TwB9Ka963Ay90lc33Lvxz8m-zO9bZLOmUdtcj3-KrZzxfAxa3apfvnD-XWrBlsHht19IaKEPXTPjwDkxbSS_n524kD5Eby38gGHHcQ3hkKQNeqX9XhepYeLCJQwN8GsXoHiLpICuqepTEFxUllNSV_t1kYrRQQL0zdhhMrwQjlKsxWQYvdG2YjmWymxZIBCF3mv5o1kkCX7EsuMLjXofnVylM3p2LZ4YYvV3WY82AAL37BnBpgytXgBXGyh9c_Ry-02nglVYU6nw3fGiaxZkLmM1ZY21caBUYTL5Cc8X15KXYLXLdn0KMol-gnEo1MpuXhQAyREAEUvPIZUoLwYMa_gBdJpgLfqc1mDQAkFRiAM3BNRWN3HQf6XZ9nvG84ZvnG2e7QkndgZJWE4woKkUNH2IsE6a85vgyRyVFijA5fiqLnWXEKrs0cjrZ35ag0dVIh8BD9CkDJNEPbAqcUAq1b36U9LM_rUuA2lHHz6mPnXjqcDTofKxxmZM2F2PQLhDMgT4YJNdn2oRRWq6hvXVZuyO4uVoR9XaGb85vN6tINpIZhdq8MLELG_5sOGfO3cbJqg5Ancf2dfoSox3fjFzXeCIzZwjnLkpuMJMNBgu_3xKwsVlxzpxr6idNHJwZVlmQbqVDssFqptRmrMJyWVf1JsnMcNXKonhwVLKOhFmPSpCefyyOgdQ0cYlghvtKQEi4yW0eUJWsThvxZ14_bg24DfsqL7e9Ue3UC7XRGwh08B_2Tf74xTJyDiO-tx5-5RIQf42IgTV2b6lC8nw7MUYbnGzbDdIsbl5HhFJnCGK2AxrLQo9jbT2FsSof5sof51lVIbeEw0FlmDSkkNgrBIS_nHOApbKrYxk4b1jJjFkfZYgp3cGRp2EBuW5UheUqas4GWqL3I_s_4S_6huhGkl_RxDVdiWPpGvRlG-GxuIfdm6JFvRR66kkNOOIUlStxzkWQ7ifb96Hwv_QTql6UtQU8oJ9NOV_R_K1Dx3h__1G00]--></g></svg>