<?xml version="1.0" encoding="UTF-8" standalone="no"?><svg xmlns="http://www.w3.org/2000/svg" xmlns:xlink="http://www.w3.org/1999/xlink" contentScriptType="application/ecmascript" contentStyleType="text/css" height="1380px" preserveAspectRatio="none" style="width:1384px;height:1380px;background:#FFFFFF;" version="1.1" viewBox="0 0 1384 1380" width="1384px" zoomAndPan="magnify"><defs><filter height="300%" id="ftrljvk9fgwi3" width="300%" x="-1" y="-1"><feGaussianBlur result="blurOut" stdDeviation="4.0"/><feColorMatrix in="blurOut" result="blurOut2" type="matrix" values="0 0 0 0 0 0 0 0 0 0 0 0 0 0 0 0 0 0 .4 0"/><feOffset dx="8.0" dy="8.0" in="blurOut2" result="blurOut3"/><feBlend in="SourceGraphic" in2="blurOut3" mode="normal"/></filter></defs><g><!--MD5=[246d21d283e7f1425940e1b77c3fb026]
cluster Rolle--><polygon fill="#FFFFFF" filter="url(#ftrljvk9fgwi3)" points="114,562,202,562,216,606.5938,388,606.5938,388,820,114,820,114,562" style="stroke:#000000;stroke-width:3.0;"/><line style="stroke:#000000;stroke-width:3.0;" x1="114" x2="216" y1="606.5938" y2="606.5938"/><text fill="#000000" font-family="sans-serif" font-size="28" font-weight="bold" lengthAdjust="spacing" textLength="76" x="122" y="591.9902">Rolle</text><!--MD5=[899f87e56611ae811baaba93b9518920]
cluster Anwendungsfälle--><polygon fill="#FFFFFF" filter="url(#ftrljvk9fgwi3)" points="578,12,864,12,878,56.5938,1350,56.5938,1350,1366,578,1366,578,12" style="stroke:#000000;stroke-width:3.0;"/><line style="stroke:#000000;stroke-width:3.0;" x1="578" x2="878" y1="56.5938" y2="56.5938"/><text fill="#000000" font-family="sans-serif" font-size="28" font-weight="bold" lengthAdjust="spacing" textLength="274" x="586" y="41.9902">Anwendungsfälle</text><!--MD5=[92da7467bbc3967f34935f3754b4788a]
entity uuh--><ellipse cx="251" cy="667" fill="#DCDCDC" filter="url(#ftrljvk9fgwi3)" rx="32" ry="32" style="stroke:#000000;stroke-width:3.0;"/><path d="M251,707 C259,707 265,707 273,699 C289,699 305,715 305,731 L305,739 C305,747 297,755 289,755 L213,755 C205,755 197,747 197,739 L197,731 C197,715 213,699 229,699 C237,707 243,707 251,707 " fill="#DCDCDC" filter="url(#ftrljvk9fgwi3)" style="stroke:#000000;stroke-width:3.0;"/><text fill="#000000" font-family="Aapex" font-size="26" lengthAdjust="spacing" textLength="210" x="146" y="782.1338">User / User-HBA</text><ellipse cx="963.7128" cy="156.1418" fill="#FEFECE" filter="url(#ftrljvk9fgwi3)" rx="315.7128" ry="75.1418" style="stroke:#A80036;stroke-width:3.0;"/><text fill="#000000" font-family="sans-serif" font-size="28" font-weight="bold" lengthAdjust="spacing" textLength="250" x="834.7128" y="129.2414">&lt;&lt;AF_10057&gt;&gt;</text><text fill="#000000" font-family="sans-serif" font-size="28" lengthAdjust="spacing" textLength="0" x="1092.7128" y="129.2414"/><text fill="#000000" font-family="sans-serif" font-size="28" lengthAdjust="spacing" textLength="406" x="756.7128" y="161.8351">Anmeldung eines Akteurs am</text><text fill="#000000" font-family="sans-serif" font-size="28" lengthAdjust="spacing" textLength="266" x="830.7128" y="194.4289">Messenger-Service</text><ellipse cx="963.8843" cy="376.1418" fill="#FEFECE" filter="url(#ftrljvk9fgwi3)" rx="312.8843" ry="75.1418" style="stroke:#A80036;stroke-width:3.0;"/><text fill="#000000" font-family="sans-serif" font-size="28" font-weight="bold" lengthAdjust="spacing" textLength="250" x="834.8843" y="349.2414">&lt;&lt;AF_10058&gt;&gt;</text><text fill="#000000" font-family="sans-serif" font-size="28" lengthAdjust="spacing" textLength="0" x="1092.8843" y="349.2414"/><text fill="#000000" font-family="sans-serif" font-size="28" lengthAdjust="spacing" textLength="290" x="814.8843" y="381.8351">Akteur (User-HBA) im</text><text fill="#000000" font-family="sans-serif" font-size="28" lengthAdjust="spacing" textLength="410" x="758.8843" y="414.4289">Verzeichnisdienst hinzufügen</text><ellipse cx="964.226" cy="597.6452" fill="#F0F8FF" filter="url(#ftrljvk9fgwi3)" rx="354.226" ry="75.6452" style="stroke:#A80036;stroke-width:3.0;"/><text fill="#000000" font-family="sans-serif" font-size="28" font-weight="bold" lengthAdjust="spacing" textLength="250" x="835.226" y="570.7448">&lt;&lt;AF_10104&gt;&gt;</text><text fill="#000000" font-family="sans-serif" font-size="28" lengthAdjust="spacing" textLength="0" x="1093.226" y="570.7448"/><text fill="#000000" font-family="sans-serif" font-size="28" lengthAdjust="spacing" textLength="464" x="728.226" y="603.3386">Einladung von Akteuren innerhalb</text><text fill="#000000" font-family="sans-serif" font-size="28" lengthAdjust="spacing" textLength="366" x="781.226" y="635.9323">eines Messenger-Services</text><ellipse cx="964.1686" cy="820.1418" fill="#F0F8FF" filter="url(#ftrljvk9fgwi3)" rx="341.1686" ry="75.1418" style="stroke:#A80036;stroke-width:3.0;"/><text fill="#000000" font-family="sans-serif" font-size="28" font-weight="bold" lengthAdjust="spacing" textLength="250" x="835.1686" y="793.2414">&lt;&lt;AF_10063&gt;&gt;</text><text fill="#000000" font-family="sans-serif" font-size="28" lengthAdjust="spacing" textLength="0" x="1093.1686" y="793.2414"/><text fill="#000000" font-family="sans-serif" font-size="28" lengthAdjust="spacing" textLength="442" x="739.1686" y="825.8351">Austausch von Events innerhalb</text><text fill="#000000" font-family="sans-serif" font-size="28" lengthAdjust="spacing" textLength="366" x="781.1686" y="858.4289">eines Messenger-Services</text><ellipse cx="963.5828" cy="1040.1418" fill="#FFFFF0" filter="url(#ftrljvk9fgwi3)" rx="342.5828" ry="75.1418" style="stroke:#A80036;stroke-width:3.0;"/><text fill="#000000" font-family="sans-serif" font-size="28" font-weight="bold" lengthAdjust="spacing" textLength="250" x="834.5828" y="1013.2414">&lt;&lt;AF_10061&gt;&gt;</text><text fill="#000000" font-family="sans-serif" font-size="28" lengthAdjust="spacing" textLength="0" x="1092.5828" y="1013.2414"/><text fill="#000000" font-family="sans-serif" font-size="28" lengthAdjust="spacing" textLength="444" x="737.5828" y="1045.8351">Einladung von Akteuren anderer</text><text fill="#000000" font-family="sans-serif" font-size="28" lengthAdjust="spacing" textLength="282" x="822.5828" y="1078.4289">Messenger-Services</text><ellipse cx="963.5828" cy="1260.1418" fill="#FFFFF0" filter="url(#ftrljvk9fgwi3)" rx="342.5828" ry="75.1418" style="stroke:#A80036;stroke-width:3.0;"/><text fill="#000000" font-family="sans-serif" font-size="28" font-weight="bold" lengthAdjust="spacing" textLength="250" x="834.5828" y="1233.2414">&lt;&lt;AF_10062&gt;&gt;</text><text fill="#000000" font-family="sans-serif" font-size="28" lengthAdjust="spacing" textLength="0" x="1092.5828" y="1233.2414"/><text fill="#000000" font-family="sans-serif" font-size="28" lengthAdjust="spacing" textLength="444" x="737.5828" y="1265.8351">Austausch von Events zwischen</text><text fill="#000000" font-family="sans-serif" font-size="28" lengthAdjust="spacing" textLength="416" x="755.5828" y="1298.4289">anderern Messenger-Services</text><path d="M12,858 L12,938.5313 A0,0 0 0 0 12,938.5313 L490,938.5313 A0,0 0 0 0 490,938.5313 L490,878 L470,858 L259,858 L251,788.42 L243,858 L12,858 A0,0 0 0 0 12,858 " fill="#FBFB77" filter="url(#ftrljvk9fgwi3)" style="stroke:#A80036;stroke-width:2.0;"/><path d="M470,858 L470,878 L490,878 L470,858 " fill="#FBFB77" style="stroke:#A80036;stroke-width:2.0;"/><text fill="#000000" font-family="sans-serif" font-size="26" lengthAdjust="spacing" textLength="428" x="24" y="892.1338">z. B. Leistungserbringer im Besitz</text><text fill="#000000" font-family="sans-serif" font-size="26" lengthAdjust="spacing" textLength="434" x="24" y="922.3994">einer SMC-B und/oder eines HBAs</text><!--MD5=[ff3a56d95a388574406500a1f742b5df]
link uuh to UC1--><path d="M286.74,631.56 C333.78,531.56 428.58,360.36 562,266 C601.26,238.24 647.22,217.48 693.76,201.96 " fill="none" id="uuh-to-UC1" style="stroke:#000000;stroke-width:2.0;"/><polygon fill="#000000" points="703.7,198.72,684.11,196.6633,694.1878,201.805,689.046,211.8829,703.7,198.72" style="stroke:#000000;stroke-width:2.0;"/><!--MD5=[107d3e575d25496c762e8b77766fdc0e]
link uuh to UC2--><path d="M342.78,631.52 C401.66,583.58 482.26,524.3 562,486 C610.74,462.58 665.3,443.44 718.06,428.08 " fill="none" id="uuh-to-UC2" style="stroke:#000000;stroke-width:2.0;"/><polygon fill="#000000" points="727.9,425.26,708.3948,422.5128,718.2848,428.0072,712.7903,437.8972,727.9,425.26" style="stroke:#000000;stroke-width:2.0;"/><!--MD5=[8a52efbd407d22a93981e149c6f6d00c]
link uuh to UC3--><path d="M356.1,693.72 C438.12,680.76 557.12,661.96 668,644.44 " fill="none" id="uuh-to-UC3" style="stroke:#000000;stroke-width:2.0;"/><polygon fill="#000000" points="678.02,642.86,658.9873,637.785,668.144,644.4299,661.4991,653.5866,678.02,642.86" style="stroke:#000000;stroke-width:2.0;"/><!--MD5=[bd9dc6537dcce73e8564c85e1f43d568]
link uuh to UC4--><path d="M356.1,726 C439.6,738.96 561.46,757.86 674.04,775.32 " fill="none" id="uuh-to-UC4" style="stroke:#000000;stroke-width:2.0;"/><polygon fill="#000000" points="684.2,776.9,667.6489,766.22,674.3196,775.358,665.1817,782.0287,684.2,776.9" style="stroke:#000000;stroke-width:2.0;"/><!--MD5=[873bae0a809e21b62a257dc63b837696]
link uuh to UC5--><path d="M356.38,744.58 C400.78,762.86 451.24,788.54 490,822 C533.66,859.7 515.24,896.22 562,930 C597.82,955.88 639.46,975.66 682.04,990.8 " fill="none" id="uuh-to-UC5" style="stroke:#000000;stroke-width:2.0;"/><polygon fill="#000000" points="691.72,994.16,677.3062,980.7346,682.2651,990.9036,672.096,995.8625,691.72,994.16" style="stroke:#000000;stroke-width:2.0;"/><!--MD5=[87592ed2ded85244cca22c7b445f5090]
link uuh to UC6--><path d="M356.18,735.94 C403.58,752.92 456.54,780 490,822 C583,938.74 459.26,1041.74 562,1150 C589.66,1179.14 624.24,1200.8 661.44,1216.86 " fill="none" id="uuh-to-UC6" style="stroke:#000000;stroke-width:2.0;"/><polygon fill="#000000" points="670.94,1220.82,657.4173,1206.4974,661.7135,1216.9637,651.2472,1221.2599,670.94,1220.82" style="stroke:#000000;stroke-width:2.0;"/><!--MD5=[94365de06d214cdeda9b59ec34a0bf63]
@startuml
skinparam actorStyle awesome
left to right direction
scale 6/3

skinparam sequence {
ArrowColor black
ArrowFontSize 17
ActorBorderColor black
LifeLineBorderColor black
LifeLineBackgroundColor Gainsboro

ParticipantBorderColor Motivation
ParticipantBackgroundColor Motivation
ParticipantFontName Impact
ParticipantFontSize 20
ParticipantFontColor black
ParticipantBorderColor Black
ParticipantBackgroundColor MOTIVATION

ActorBackgroundColor Gainsboro
ActorFontColor black
ActorFontSize 13
ActorFontName Aapex
}

package Rolle {
actor "User / User-HBA" as uuh
}

package Anwendungsfälle {
usecase "**<<AF_10057>>** \nAnmeldung eines Akteurs am \nMessenger-Service" as UC1
usecase "**<<AF_10058>>** \nAkteur (User-HBA) im \nVerzeichnisdienst hinzufügen" as UC2
usecase "**<<AF_10104>>** \nEinladung von Akteuren innerhalb \neines Messenger-Services" as UC3 #AliceBlue
usecase "**<<AF_10063>>** \nAustausch von Events innerhalb \neines Messenger-Services" as UC4 #AliceBlue
usecase "**<<AF_10061>>** \nEinladung von Akteuren anderer \nMessenger-Services" as UC5 #Ivory
usecase "**<<AF_10062>>** \nAustausch von Events zwischen \nanderern Messenger-Services" as UC6 #Ivory
}

uuh - -> UC1
uuh - -> UC2
uuh - -> UC3
uuh - -> UC4
uuh - -> UC5
uuh - -> UC6

note top of (uuh)
z. B. Leistungserbringer im Besitz 
einer SMC-B und/oder eines HBAs
end note

@enduml

PlantUML version 1.2021.16(Wed Dec 08 17:25:22 UTC 2021)
(GPL source distribution)
Java Runtime: OpenJDK Runtime Environment
JVM: OpenJDK 64-Bit Server VM
Default Encoding: UTF-8
Language: en
Country: null
--></g></svg>