<?xml version="1.0" encoding="us-ascii" standalone="no"?><svg xmlns="http://www.w3.org/2000/svg" xmlns:xlink="http://www.w3.org/1999/xlink" contentStyleType="text/css" height="498px" preserveAspectRatio="none" style="width:866px;height:498px;background:#FFFFFF;" version="1.1" viewBox="0 0 866 498" width="866px" zoomAndPan="magnify"><defs/><g><rect fill="#F5F5F5" height="486.8984" style="stroke:#181818;stroke-width:0.5;" width="222" x="16" y="6"/><text fill="#000000" font-family="sans-serif" font-size="18" font-weight="bold" lengthAdjust="spacing" textLength="193" x="30.5" y="22.708">Messenger-Service</text><text fill="#000000" font-family="sans-serif" font-size="13" font-weight="bold" lengthAdjust="spacing" textLength="5" x="30.5" y="39.02">&#160;</text><rect fill="#DCDCDC" height="322.25" style="stroke:#000000;stroke-width:1.0;" width="10" x="122" y="94.3672"/><rect fill="#DCDCDC" height="44.7891" style="stroke:#000000;stroke-width:1.0;" width="10" x="127" y="147.9453"/><rect fill="none" height="88.3359" style="stroke:#000000;stroke-width:1.5;" width="788" x="10" y="239.7344"/><rect fill="none" height="67.5469" style="stroke:#000000;stroke-width:1.5;" width="850" x="10" y="342.0703"/><line style="stroke:#000000;stroke-width:0.5;stroke-dasharray:5.0,5.0;" x1="127" x2="127" y1="84.3672" y2="451.6172"/><line style="stroke:#000000;stroke-width:0.5;stroke-dasharray:5.0,5.0;" x1="663" x2="663" y1="84.3672" y2="451.6172"/><rect fill="#EFEFFF" height="37.2813" rx="2.5" ry="2.5" style="stroke:#000000;stroke-width:0.5;" width="214" x="20" y="46.0859"/><text fill="#000000" font-family="sans-serif" font-size="20" lengthAdjust="spacing" textLength="168" x="43" y="71.6504">Messenger-Proxy</text><rect fill="#EFEFFF" height="37.2813" rx="2.5" ry="2.5" style="stroke:#000000;stroke-width:0.5;" width="214" x="20" y="450.6172"/><text fill="#000000" font-family="sans-serif" font-size="20" lengthAdjust="spacing" textLength="168" x="43" y="476.1816">Messenger-Proxy</text><rect fill="#EFEFFF" height="37.2813" rx="2.5" ry="2.5" style="stroke:#000000;stroke-width:0.5;" width="250" x="538" y="46.0859"/><text fill="#000000" font-family="sans-serif" font-size="20" lengthAdjust="spacing" textLength="236" x="545" y="71.6504">Public OCSP-Responder</text><rect fill="#EFEFFF" height="37.2813" rx="2.5" ry="2.5" style="stroke:#000000;stroke-width:0.5;" width="250" x="538" y="450.6172"/><text fill="#000000" font-family="sans-serif" font-size="20" lengthAdjust="spacing" textLength="236" x="545" y="476.1816">Public OCSP-Responder</text><rect fill="#DCDCDC" height="322.25" style="stroke:#000000;stroke-width:1.0;" width="10" x="122" y="94.3672"/><rect fill="#DCDCDC" height="44.7891" style="stroke:#000000;stroke-width:1.0;" width="10" x="127" y="147.9453"/><line style="stroke:#000000;stroke-width:1.0;" x1="132" x2="179" y1="134.9453" y2="134.9453"/><line style="stroke:#000000;stroke-width:1.0;" x1="179" x2="179" y1="134.9453" y2="147.9453"/><line style="stroke:#000000;stroke-width:1.0;" x1="138" x2="179" y1="147.9453" y2="147.9453"/><polygon fill="#000000" points="148,143.9453,138,147.9453,148,151.9453,144,147.9453" style="stroke:#000000;stroke-width:1.0;"/><text fill="#000000" font-family="sans-serif" font-size="17" font-weight="bold" lengthAdjust="spacing" textLength="12" x="144" y="119.0415">1</text><text fill="#000000" font-family="sans-serif" font-size="17" lengthAdjust="spacing" textLength="302" x="160" y="109.147">Signatur der F&#246;derationsliste pr&#252;fen</text><text fill="#000000" font-family="sans-serif" font-size="17" lengthAdjust="spacing" textLength="339" x="160" y="128.936">(F&#246;derationsliste, x5c-Zertifikatsliste[1])</text><line style="stroke:#000000;stroke-width:1.0;stroke-dasharray:2.0,2.0;" x1="137" x2="179" y1="191.7344" y2="191.7344"/><line style="stroke:#000000;stroke-width:1.0;stroke-dasharray:2.0,2.0;" x1="179" x2="179" y1="191.7344" y2="204.7344"/><line style="stroke:#000000;stroke-width:1.0;stroke-dasharray:2.0,2.0;" x1="132" x2="179" y1="204.7344" y2="204.7344"/><polygon fill="#000000" points="142,200.7344,132,204.7344,142,208.7344,138,204.7344" style="stroke:#000000;stroke-width:1.0;"/><text fill="#000000" font-family="sans-serif" font-size="17" font-weight="bold" lengthAdjust="spacing" textLength="12" x="144" y="185.7251">2</text><text fill="#000000" font-family="sans-serif" font-size="17" lengthAdjust="spacing" textLength="177" x="160" y="185.7251">Signaturpr&#252;fergebnis</text><path d="M10,239.7344 L87,239.7344 L87,246.8672 L77,256.8672 L10,256.8672 L10,239.7344 " fill="#D3D3D3" style="stroke:#000000;stroke-width:1.5;"/><rect fill="none" height="88.3359" style="stroke:#000000;stroke-width:1.5;" width="788" x="10" y="239.7344"/><text fill="#000000" font-family="sans-serif" font-size="13" font-weight="bold" lengthAdjust="spacing" textLength="32" x="25" y="252.8013">loop</text><text fill="#000000" font-family="sans-serif" font-size="11" font-weight="bold" lengthAdjust="spacing" textLength="5" x="102" y="257.7651">[</text><text fill="#000000" font-family="sans-serif" font-size="16" font-weight="bold" lengthAdjust="spacing" textLength="360" x="107" y="256.5859">f&#252;r jeden Eintrag von x5c-Zertifikatsliste</text><text fill="#000000" font-family="sans-serif" font-size="11" font-weight="bold" lengthAdjust="spacing" textLength="5" x="467" y="257.7651">]</text><polygon fill="#000000" points="651,282.2813,661,286.2813,651,290.2813,655,286.2813" style="stroke:#000000;stroke-width:1.0;"/><line style="stroke:#000000;stroke-width:1.0;" x1="132" x2="657" y1="286.2813" y2="286.2813"/><text fill="#000000" font-family="sans-serif" font-size="17" font-weight="bold" lengthAdjust="spacing" textLength="12" x="139" y="280.272">3</text><text fill="#000000" font-family="sans-serif" font-size="17" lengthAdjust="spacing" textLength="491" x="155" y="280.272">Public-OCSP-Zertifikatspr&#252;f-Request stellen(x5c-Zertifikat)</text><polygon fill="#000000" points="143,316.0703,133,320.0703,143,324.0703,139,320.0703" style="stroke:#000000;stroke-width:1.0;"/><line style="stroke:#000000;stroke-width:1.0;stroke-dasharray:2.0,2.0;" x1="137" x2="662" y1="320.0703" y2="320.0703"/><text fill="#000000" font-family="sans-serif" font-size="17" font-weight="bold" lengthAdjust="spacing" textLength="12" x="509" y="314.061">4</text><text fill="#000000" font-family="sans-serif" font-size="17" lengthAdjust="spacing" textLength="131" x="525" y="314.061">OCSP-Response</text><path d="M10,342.0703 L74,342.0703 L74,349.2031 L64,359.2031 L10,359.2031 L10,342.0703 " fill="#D3D3D3" style="stroke:#000000;stroke-width:1.5;"/><rect fill="none" height="67.5469" style="stroke:#000000;stroke-width:1.5;" width="850" x="10" y="342.0703"/><text fill="#000000" font-family="sans-serif" font-size="13" font-weight="bold" lengthAdjust="spacing" textLength="19" x="25" y="355.1372">alt</text><text fill="#000000" font-family="sans-serif" font-size="11" font-weight="bold" lengthAdjust="spacing" textLength="5" x="89" y="360.1011">[</text><text fill="#000000" font-family="sans-serif" font-size="16" font-weight="bold" lengthAdjust="spacing" textLength="756" x="94" y="358.9219">Signaturpr&#252;fergebnis=g&#252;ltig UND jeder OCSP-Response.CertificateStatusValue=good</text><text fill="#000000" font-family="sans-serif" font-size="11" font-weight="bold" lengthAdjust="spacing" textLength="5" x="850" y="360.1011">]</text><line style="stroke:#000000;stroke-width:1.0;" x1="132" x2="174" y1="388.6172" y2="388.6172"/><line style="stroke:#000000;stroke-width:1.0;" x1="174" x2="174" y1="388.6172" y2="401.6172"/><line style="stroke:#000000;stroke-width:1.0;" x1="133" x2="174" y1="401.6172" y2="401.6172"/><polygon fill="#000000" points="143,397.6172,133,401.6172,143,405.6172,139,401.6172" style="stroke:#000000;stroke-width:1.0;"/><text fill="#000000" font-family="sans-serif" font-size="17" font-weight="bold" lengthAdjust="spacing" textLength="12" x="139" y="382.6079">5</text><text fill="#000000" font-family="sans-serif" font-size="17" lengthAdjust="spacing" textLength="394" x="155" y="382.6079">F&#246;derationsliste aktualisieren(F&#246;derationsliste)</text><!--SRC=[TLDDRzf04BtlhnYHIr3g5g9-H8WW0MtII3XOSPf8RNfOxC5iMNRTsJKXBVrRFN7ZZtLjAyHyzEJrx9ltvhsnpLIeb1EVWS6V6Qe8VJI69zYL8b4G2yB82gsOsG1dGlKbD-PUn7O2fur6vQwd5m6FOw4IQ5RApzmtE4RA3v-HnqWz7aqJqfcA-rfgWfHBJ0ZHgKNk23E-SFnlp-0nbs872E4twnBfnx9_91rXMRZGoeRY5qBp0nk8CGw4mfuc9rg5Rcvs1hdaGfcH9irOmCcAIAHSsMg_hwsOyoAPAcA7vp1gCzjfOxTS7Uu_ohszortHuUtLNVVsQdZDs1_6U6QrocOZ9CP6UW5juwHRpRDElcXK2P8N8ir5X0yAZkudmc8uqrDawOi4-05m0xMNbe3qugd6KCNWIBUmmtvOeeDi94LKl7itQ5Ajd8cQcoWgKa77olp0w_Z1oKaBGlUzSPiHE11ShF-wHv6SaS8uR4hhrHZLWphUkti5YtUHznNT26CnvRQiVcj-hpD2nwWst2K99JXImh3bSicarkdHG2GJUqduz1pE-yvulIBuWJ4g-2IK9Px0NAk3GkqtULE70UHcShSjAArxXVKAlj1tMRYFrrXmlLAYEjuchHT4RSyhcIhf6SppPbpQGnCVz7YUh5VIYWI-N7yixD0suUj-gHkvTOJMjPixBZCyJxIEjttvRfRzhV2fpRWxYlottjzClHWunkh6yzJ_0G00]--></g></svg>