<?xml version="1.0" encoding="us-ascii" standalone="no"?><svg xmlns="http://www.w3.org/2000/svg" xmlns:xlink="http://www.w3.org/1999/xlink" contentStyleType="text/css" height="1262px" preserveAspectRatio="none" style="width:1200px;height:1262px;background:#FFFFFF;" version="1.1" viewBox="0 0 1200 1262" width="1200px" zoomAndPan="magnify"><defs/><g><!--cluster Rolle--><g id="cluster_Rolle"><path d="M155,508 L233,508 A7.5,7.5 0 0 1 238,513 L252,552.5938 L291,552.5938 A5,5 0 0 1 296,557.5938 L296,729 A5,5 0 0 1 291,734 L155,734 A5,5 0 0 1 150,729 L150,513 A5,5 0 0 1 155,508 " fill="none" style="stroke:#000000;stroke-width:3.0;"/><line style="stroke:#000000;stroke-width:3.0;" x1="150" x2="252" y1="552.5938" y2="552.5938"/><text fill="#000000" font-family="sans-serif" font-size="28" font-weight="bold" lengthAdjust="spacing" textLength="76" x="158" y="537.9902">Rolle</text></g><!--cluster Anwendungsf?lle--><g id="cluster_Anwendungsf&#228;lle"><path d="M495,8 L771,8 A7.5,7.5 0 0 1 776,13 L790,52.5938 L1181,52.5938 A5,5 0 0 1 1186,57.5938 L1186,1243 A5,5 0 0 1 1181,1248 L495,1248 A5,5 0 0 1 490,1243 L490,13 A5,5 0 0 1 495,8 " fill="none" style="stroke:#000000;stroke-width:3.0;"/><line style="stroke:#000000;stroke-width:3.0;" x1="490" x2="790" y1="52.5938" y2="52.5938"/><text fill="#000000" font-family="sans-serif" font-size="28" font-weight="bold" lengthAdjust="spacing" textLength="274" x="498" y="37.9902">Anwendungsf&#228;lle</text></g><g id="elem_GMN17"><path d="M12,754 L12,834.5313 A0,0 0 0 0 12,834.5313 L434,834.5313 A0,0 0 0 0 434,834.5313 L434,774 L414,754 L231,754 L223,718.1655 L215,754 L12,754 A0,0 0 0 0 12,754 " fill="#FEFFDD" style="stroke:#181818;stroke-width:1.0;"/><path d="M414,754 L414,774 L434,774 L414,754 " fill="#FEFFDD" style="stroke:#181818;stroke-width:1.0;"/><text fill="#000000" font-family="sans-serif" font-size="26" lengthAdjust="spacing" textLength="380" x="24" y="788.1338">Mitarbeiter einer Organisation</text><text fill="#000000" font-family="sans-serif" font-size="26" lengthAdjust="spacing" textLength="280" x="24" y="818.3994">im Gesundheitswesen</text></g><!--entity u--><g id="elem_u"><ellipse cx="223" cy="597" fill="#DCDCDC" rx="32" ry="32" style="stroke:#000000;stroke-width:3.0;"/><path d="M223,637 C231,637 237,637 245,629 C261,629 277,645 277,661 L277,669 C277,677 269,685 261,685 L185,685 C177,685 169,677 169,669 L169,661 C169,645 185,629 201,629 C209,637 215,637 223,637 " fill="#DCDCDC" style="stroke:#000000;stroke-width:3.0;"/><text fill="#000000" font-family="Aapex" font-size="26" lengthAdjust="spacing" textLength="60" x="193" y="712.1338">User</text></g><g id="elem_UC1"><ellipse cx="837.7128" cy="138.1418" fill="#F1F1F1" rx="315.7128" ry="75.1418" style="stroke:#181818;stroke-width:1.0;"/><text fill="#000000" font-family="sans-serif" font-size="28" font-weight="bold" lengthAdjust="spacing" textLength="190" x="738.7128" y="111.2414">&#171;AF_10057&#187;</text><text fill="#000000" font-family="sans-serif" font-size="28" lengthAdjust="spacing" textLength="8" x="928.7128" y="111.2414">&#160;</text><text fill="#000000" font-family="sans-serif" font-size="28" lengthAdjust="spacing" textLength="406" x="630.7128" y="143.8351">Anmeldung eines Akteurs am</text><text fill="#000000" font-family="sans-serif" font-size="28" lengthAdjust="spacing" textLength="266" x="704.7128" y="176.4289">Messenger-Service</text></g><g id="elem_UC2"><ellipse cx="838.328" cy="324.1418" fill="#F0F8FF" rx="297.328" ry="75.1418" style="stroke:#181818;stroke-width:1.0;"/><text fill="#000000" font-family="sans-serif" font-size="28" font-weight="bold" lengthAdjust="spacing" textLength="190" x="739.328" y="297.2414">&#171;AF_10104&#187;</text><text fill="#000000" font-family="sans-serif" font-size="28" lengthAdjust="spacing" textLength="8" x="929.328" y="297.2414">&#160;</text><text fill="#000000" font-family="sans-serif" font-size="28" lengthAdjust="spacing" textLength="328" x="670.328" y="329.8351">Einladung von Akteuren</text><text fill="#000000" font-family="sans-serif" font-size="28" lengthAdjust="spacing" textLength="388" x="644.328" y="362.4289">innerhalb einer Organisation</text></g><g id="elem_UC3"><ellipse cx="838.328" cy="534.189" fill="#F0F8FF" rx="297.328" ry="98.189" style="stroke:#181818;stroke-width:1.0;"/><text fill="#000000" font-family="sans-serif" font-size="28" font-weight="bold" lengthAdjust="spacing" textLength="190" x="739.328" y="490.9918">&#171;AF_10063&#187;</text><text fill="#000000" font-family="sans-serif" font-size="28" lengthAdjust="spacing" textLength="8" x="929.328" y="490.9918">&#160;</text><text fill="#000000" font-family="sans-serif" font-size="28" lengthAdjust="spacing" textLength="306" x="681.328" y="523.5855">Austausch von Events</text><text fill="#000000" font-family="sans-serif" font-size="28" lengthAdjust="spacing" textLength="264" x="702.328" y="556.1793">zwischen Akteuren</text><text fill="#000000" font-family="sans-serif" font-size="28" lengthAdjust="spacing" textLength="388" x="644.328" y="588.773">innerhalb einer Organisation</text></g><g id="elem_UC4"><ellipse cx="838.3991" cy="744.1418" fill="#FFFFF0" rx="304.3991" ry="75.1418" style="stroke:#181818;stroke-width:1.0;"/><text fill="#000000" font-family="sans-serif" font-size="28" font-weight="bold" lengthAdjust="spacing" textLength="190" x="739.3991" y="717.2414">&#171;AF_10061&#187;</text><text fill="#000000" font-family="sans-serif" font-size="28" lengthAdjust="spacing" textLength="8" x="929.3991" y="717.2414">&#160;</text><text fill="#000000" font-family="sans-serif" font-size="28" lengthAdjust="spacing" textLength="328" x="670.3991" y="749.8351">Einladung von Akteuren</text><text fill="#000000" font-family="sans-serif" font-size="28" lengthAdjust="spacing" textLength="398" x="639.3991" y="782.4289">au&#223;erhalb einer Organisation</text></g><g id="elem_UC5"><ellipse cx="838.3991" cy="954.189" fill="#FFFFF0" rx="304.3991" ry="98.189" style="stroke:#181818;stroke-width:1.0;"/><text fill="#000000" font-family="sans-serif" font-size="28" font-weight="bold" lengthAdjust="spacing" textLength="190" x="739.3991" y="910.9918">&#171;AF_10062&#187;</text><text fill="#000000" font-family="sans-serif" font-size="28" lengthAdjust="spacing" textLength="8" x="929.3991" y="910.9918">&#160;</text><text fill="#000000" font-family="sans-serif" font-size="28" lengthAdjust="spacing" textLength="306" x="681.3991" y="943.5855">Austausch von Events</text><text fill="#000000" font-family="sans-serif" font-size="28" lengthAdjust="spacing" textLength="264" x="702.3991" y="976.1793">zwischen Akteuren</text><text fill="#000000" font-family="sans-serif" font-size="28" lengthAdjust="spacing" textLength="398" x="639.3991" y="1008.773">au&#223;erhalb einer Organisation</text></g><g id="elem_UC6"><ellipse cx="837.7036" cy="1160.1407" fill="#CD5C5C" rx="331.7036" ry="71.1407" style="stroke:#181818;stroke-width:1.0;"/><text fill="#000000" font-family="sans-serif" font-size="28" font-weight="bold" lengthAdjust="spacing" textLength="190" x="738.7036" y="1149.5372">&#171;AF_10235&#187;</text><text fill="#000000" font-family="sans-serif" font-size="28" lengthAdjust="spacing" textLength="8" x="928.7036" y="1149.5372">&#160;</text><text fill="#000000" font-family="sans-serif" font-size="28" lengthAdjust="spacing" textLength="540" x="567.7036" y="1182.1309">Eintr&#228;ge im VZD-FHIR-Directory suchen</text></g><path d="M254.8156,561.776 C294.3681,468.6123 373.1023,314.9529 490,230 C500.0563,222.6918 510.6531,215.964 521.6445,209.7705 " fill="none" style="stroke:#000000;stroke-width:2.0;"/><polygon fill="#000000" points="521.6445,209.7705,502.0355,211.6372,512.9324,214.6796,509.8901,225.5766,521.6445,209.7705" style="stroke:#000000;stroke-width:2.0;"/><path d="M280.6346,580.7626 C330.8763,530.5771 409.1374,460.2319 490,418 C506.2767,409.4992 523.3966,401.7094 540.9493,394.5796 " fill="none" style="stroke:#000000;stroke-width:2.0;"/><polygon fill="#000000" points="540.9493,394.5796,521.2619,393.9417,531.6844,398.3429,527.2832,408.7655,540.9493,394.5796" style="stroke:#000000;stroke-width:2.0;"/><path d="M280.2998,630.4063 C340.373,619.9844 441.1097,602.508 540.4433,585.275 " fill="none" style="stroke:#000000;stroke-width:2.0;"/><polygon fill="#000000" points="540.4433,585.275,521.3407,580.4695,530.5905,586.9843,524.0757,596.234,540.4433,585.275" style="stroke:#000000;stroke-width:2.0;"/><path d="M280.2998,649.4127 C339.051,659.4129 436.696,676.0334 533.8842,692.576 " fill="none" style="stroke:#000000;stroke-width:2.0;"/><polygon fill="#000000" points="533.8842,692.576,517.4818,681.6691,524.026,690.898,514.7971,697.4422,533.8842,692.576" style="stroke:#000000;stroke-width:2.0;"/><path d="M280.188,654.851 C325.8003,669.3974 389.9907,695.3738 434,736 C471.4291,770.5518 450.8596,803.3995 490,836 C503.4108,847.17 517.933,857.3019 533.1732,866.4897 " fill="none" style="stroke:#000000;stroke-width:2.0;"/><polygon fill="#000000" points="533.1732,866.4897,521.8883,850.345,524.6091,861.3267,513.6274,864.0475,533.1732,866.4897" style="stroke:#000000;stroke-width:2.0;"/><path d="M280.3011,650.3185 C328.5896,662.345 396.6315,687.1658 434,736 C525.4693,855.5348 388.3731,958.9722 490,1070 C496.0766,1076.6387 502.5749,1082.8142 509.4276,1088.5575 " fill="none" style="stroke:#000000;stroke-width:2.0;"/><polygon fill="#000000" points="509.4276,1088.5575,500.7708,1070.864,501.7634,1082.1341,490.4933,1083.1267,509.4276,1088.5575" style="stroke:#000000;stroke-width:2.0;"/><!--SRC=[bLJDRjf04BxlKqp9fKL2vJ-N2Caa8KLAGWL93bMaQZ23MM7Fqls1aAhFqalUX1VhshW44IZDRJmp-_tCZlV3J6EK8CIuLCw2ISWYep1JoJFKc026Lkc1NSO4k22Z4X8nZIrO1Lf64miZgIcqKh4m8VgkvkUQs3flw8SZ3Wb-Ya1hjJXNiT8mZ36ShXCTnNOWdmagfo98oTfAZqXlzrtBCLrBfdzK_4UabUFHkdg5airGQIN4LzHMXdA6RBVFtoWhvvZftkxOmTdVbKg-nOIWcypyV7PBcPjgUJUzhVk0gFQRugwUtbtt8RZhzcv5Fgo3nhFoBkyckPvuxJMH-GbmHa_Ybn3UrXGZWhwAu_JgiYs0mhqXNG0quBQR0buGZnn7PhnwMVSxGo4QWaAnU7OMTBvNokN6QQjLBC8Z1vnGdBO3-Pip44mjEMt0ByiZtv0nn17fqe3qN8QKqTsVL_P0Lihr7F9ISemPv5nn3aZi2vAPz0JZOSQbeQSZP6co6ysHgt0In9we7JlQfxjP-wlR6OlEX9ECv79ER8rFFo-apz5xQMl7Q2l7lA5R_Jx6KeUJxbpfvLw6wlkD_Gzdup1djTPuTMNrwiLlZqpWuTj5gVEbsozTP6-9Fml6fTGvOjCZyaWYzscKBfw3KgcrNeeygcwYsYQgRwB69ceAmSgIVxrceCRmqNqIDzAY7fAqtirRJyBBkoBZ_w-9Rp7-1IGMVjiXXH5_0000]--></g></svg>