<?xml version="1.0" encoding="us-ascii" standalone="no"?><svg xmlns="http://www.w3.org/2000/svg" xmlns:xlink="http://www.w3.org/1999/xlink" contentStyleType="text/css" height="1082px" preserveAspectRatio="none" style="width:1168px;height:1082px;background:#FFFFFF;" version="1.1" viewBox="0 0 1168 1082" width="1168px" zoomAndPan="magnify"><defs/><g><!--cluster Rolle--><g id="cluster_Rolle"><path d="M155,402 L233,402 A7.5,7.5 0 0 1 238,407 L252,446.5938 L291,446.5938 A5,5 0 0 1 296,451.5938 L296,623 A5,5 0 0 1 291,628 L155,628 A5,5 0 0 1 150,623 L150,407 A5,5 0 0 1 155,402 " fill="none" style="stroke:#000000;stroke-width:3.0;"/><line style="stroke:#000000;stroke-width:3.0;" x1="150" x2="252" y1="446.5938" y2="446.5938"/><text fill="#000000" font-family="sans-serif" font-size="28" font-weight="bold" lengthAdjust="spacing" textLength="76" x="158" y="431.9902">Rolle</text></g><!--cluster Anwendungsf?lle--><g id="cluster_Anwendungsf&#228;lle"><path d="M495,8 L771,8 A7.5,7.5 0 0 1 776,13 L790,52.5938 L1149,52.5938 A5,5 0 0 1 1154,57.5938 L1154,1063 A5,5 0 0 1 1149,1068 L495,1068 A5,5 0 0 1 490,1063 L490,13 A5,5 0 0 1 495,8 " fill="none" style="stroke:#000000;stroke-width:3.0;"/><line style="stroke:#000000;stroke-width:3.0;" x1="490" x2="790" y1="52.5938" y2="52.5938"/><text fill="#000000" font-family="sans-serif" font-size="28" font-weight="bold" lengthAdjust="spacing" textLength="274" x="498" y="37.9902">Anwendungsf&#228;lle</text></g><g id="elem_GMN15"><path d="M12,648 L12,728.5313 A0,0 0 0 0 12,728.5313 L434,728.5313 A0,0 0 0 0 434,728.5313 L434,668 L414,648 L231,648 L223,612.1655 L215,648 L12,648 A0,0 0 0 0 12,648 " fill="#FEFFDD" style="stroke:#181818;stroke-width:1.0;"/><path d="M414,648 L414,668 L434,668 L414,648 " fill="#FEFFDD" style="stroke:#181818;stroke-width:1.0;"/><text fill="#000000" font-family="sans-serif" font-size="26" lengthAdjust="spacing" textLength="380" x="24" y="682.1338">Mitarbeiter einer Organisation</text><text fill="#000000" font-family="sans-serif" font-size="26" lengthAdjust="spacing" textLength="280" x="24" y="712.3994">im Gesundheitswesen</text></g><!--entity u--><g id="elem_u"><ellipse cx="223" cy="491" fill="#DCDCDC" rx="32" ry="32" style="stroke:#000000;stroke-width:3.0;"/><path d="M223,531 C231,531 237,531 245,523 C261,523 277,539 277,555 L277,563 C277,571 269,579 261,579 L185,579 C177,579 169,571 169,563 L169,555 C169,539 185,523 201,523 C209,531 215,531 223,531 " fill="#DCDCDC" style="stroke:#000000;stroke-width:3.0;"/><text fill="#000000" font-family="Aapex" font-size="26" lengthAdjust="spacing" textLength="60" x="193" y="606.1338">User</text></g><g id="elem_UC1"><ellipse cx="821.7128" cy="138.1418" fill="#F1F1F1" rx="315.7128" ry="75.1418" style="stroke:#181818;stroke-width:1.0;"/><text fill="#000000" font-family="sans-serif" font-size="28" font-weight="bold" lengthAdjust="spacing" textLength="190" x="722.7128" y="111.2414">&#171;AF_10057&#187;</text><text fill="#000000" font-family="sans-serif" font-size="28" lengthAdjust="spacing" textLength="8" x="912.7128" y="111.2414">&#160;</text><text fill="#000000" font-family="sans-serif" font-size="28" lengthAdjust="spacing" textLength="406" x="614.7128" y="143.8351">Anmeldung eines Akteurs am</text><text fill="#000000" font-family="sans-serif" font-size="28" lengthAdjust="spacing" textLength="266" x="688.7128" y="176.4289">Messenger-Service</text></g><g id="elem_UC2"><ellipse cx="822.328" cy="324.1418" fill="#F0F8FF" rx="297.328" ry="75.1418" style="stroke:#181818;stroke-width:1.0;"/><text fill="#000000" font-family="sans-serif" font-size="28" font-weight="bold" lengthAdjust="spacing" textLength="190" x="723.328" y="297.2414">&#171;AF_10104&#187;</text><text fill="#000000" font-family="sans-serif" font-size="28" lengthAdjust="spacing" textLength="8" x="913.328" y="297.2414">&#160;</text><text fill="#000000" font-family="sans-serif" font-size="28" lengthAdjust="spacing" textLength="328" x="654.328" y="329.8351">Einladung von Akteuren</text><text fill="#000000" font-family="sans-serif" font-size="28" lengthAdjust="spacing" textLength="388" x="628.328" y="362.4289">innerhalb einer Organisation</text></g><g id="elem_UC3"><ellipse cx="822.328" cy="534.189" fill="#F0F8FF" rx="297.328" ry="98.189" style="stroke:#181818;stroke-width:1.0;"/><text fill="#000000" font-family="sans-serif" font-size="28" font-weight="bold" lengthAdjust="spacing" textLength="190" x="723.328" y="490.9918">&#171;AF_10063&#187;</text><text fill="#000000" font-family="sans-serif" font-size="28" lengthAdjust="spacing" textLength="8" x="913.328" y="490.9918">&#160;</text><text fill="#000000" font-family="sans-serif" font-size="28" lengthAdjust="spacing" textLength="306" x="665.328" y="523.5855">Austausch von Events</text><text fill="#000000" font-family="sans-serif" font-size="28" lengthAdjust="spacing" textLength="264" x="686.328" y="556.1793">zwischen Akteuren</text><text fill="#000000" font-family="sans-serif" font-size="28" lengthAdjust="spacing" textLength="388" x="628.328" y="588.773">innerhalb einer Organisation</text></g><g id="elem_UC4"><ellipse cx="822.3991" cy="744.1418" fill="#FFFFF0" rx="304.3991" ry="75.1418" style="stroke:#181818;stroke-width:1.0;"/><text fill="#000000" font-family="sans-serif" font-size="28" font-weight="bold" lengthAdjust="spacing" textLength="190" x="723.3991" y="717.2414">&#171;AF_10061&#187;</text><text fill="#000000" font-family="sans-serif" font-size="28" lengthAdjust="spacing" textLength="8" x="913.3991" y="717.2414">&#160;</text><text fill="#000000" font-family="sans-serif" font-size="28" lengthAdjust="spacing" textLength="328" x="654.3991" y="749.8351">Einladung von Akteuren</text><text fill="#000000" font-family="sans-serif" font-size="28" lengthAdjust="spacing" textLength="398" x="623.3991" y="782.4289">au&#223;erhalb einer Organisation</text></g><g id="elem_UC5"><ellipse cx="822.3991" cy="954.189" fill="#FFFFF0" rx="304.3991" ry="98.189" style="stroke:#181818;stroke-width:1.0;"/><text fill="#000000" font-family="sans-serif" font-size="28" font-weight="bold" lengthAdjust="spacing" textLength="190" x="723.3991" y="910.9918">&#171;AF_10062&#187;</text><text fill="#000000" font-family="sans-serif" font-size="28" lengthAdjust="spacing" textLength="8" x="913.3991" y="910.9918">&#160;</text><text fill="#000000" font-family="sans-serif" font-size="28" lengthAdjust="spacing" textLength="306" x="665.3991" y="943.5855">Austausch von Events</text><text fill="#000000" font-family="sans-serif" font-size="28" lengthAdjust="spacing" textLength="264" x="686.3991" y="976.1793">zwischen Akteuren</text><text fill="#000000" font-family="sans-serif" font-size="28" lengthAdjust="spacing" textLength="398" x="623.3991" y="1008.773">au&#223;erhalb einer Organisation</text></g><path d="M273.7957,455.7504 C320.9332,386.498 398.514,287.722 490,230 C499.5572,223.97 509.5136,218.3283 519.7572,213.0504 " fill="none" style="stroke:#000000;stroke-width:2.0;"/><polygon fill="#000000" points="519.7572,213.0504,500.0921,214.1831,510.8677,217.6306,507.4203,228.4062,519.7572,213.0504" style="stroke:#000000;stroke-width:2.0;"/><path d="M280.458,507.0993 C333.4681,482.0176 416.0358,444.5852 490,418 C507.939,411.5521 526.5495,405.2475 545.3833,399.151 " fill="none" style="stroke:#000000;stroke-width:2.0;"/><polygon fill="#000000" points="545.3833,399.151,525.7944,397.0832,535.8694,402.2306,530.7219,412.3056,545.3833,399.151" style="stroke:#000000;stroke-width:2.0;"/><path d="M280.4419,534 C337.5636,534 431.1969,534 524.5598,534 " fill="none" style="stroke:#000000;stroke-width:2.0;"/><polygon fill="#000000" points="524.5598,534,506.5598,526,514.5598,534,506.5598,542,524.5598,534" style="stroke:#000000;stroke-width:2.0;"/><path d="M280.458,560.9007 C333.4681,585.9824 416.0358,623.4148 490,650 C507.939,656.4479 526.5495,662.7525 545.3833,668.849 " fill="none" style="stroke:#000000;stroke-width:2.0;"/><polygon fill="#000000" points="545.3833,668.849,530.7219,655.6944,535.8694,665.7694,525.7944,670.9168,545.3833,668.849" style="stroke:#000000;stroke-width:2.0;"/><path d="M280.097,545.4783 C327.571,558.1993 394.5118,583.3854 434,630 C495.3267,702.3942 425.577,766.3469 490,836 C498.4693,845.1569 507.6983,853.6039 517.5111,861.396 " fill="none" style="stroke:#000000;stroke-width:2.0;"/><polygon fill="#000000" points="517.5111,861.396,508.3897,843.9374,509.6798,855.1774,498.4399,856.4674,517.5111,861.396" style="stroke:#000000;stroke-width:2.0;"/><!--SRC=[bLJRRjf047tVhvYIbnO9bMlo4Y6PA8cGGgXAqgT8rM06is8zw-u5Igf-Ir_w9_cnBZQXbaDAypQUENlEcPtnliiC9Yc2mets3cnA3Xc5NKhEq60A63jj9cwZ271DLgSa5CqTE0r69Wi7CsaeTbApi346rEd7ZYYTj_JD4yS4FqHaZ5vVQAKDJ1N6oo9nfTbDv2D1wqn4Mx61DZCoPToDdDEDPFf79NmaHdkU5TLhb6odscWXFg5nCfOPiYkV7sadLvZxBYCgF8THMyktc18CqopSJxMKTzDkLjDbtw-O6hmeLlsCxuPVehlX-5RiBklLnlDoLNUVB6wyypUHznDXHj_5Jo52MqjC23vhfRQZoxS0QlUMJ0tGWY-38buJppmdTlxqky1xIp5QWbgzVduUNNrjDPkzitw_NeS7ZZWbjOK3XSbPY9QElB4GbkM1HsGjSKAcCI6paZ7bSlSNhGEKhMPtHtafMM5EkTAy8oGE1SbCPe5gcciP69i4MTfyeZlcDfn4AWWDbAT3layxpxwzTUXjlCX5BbV4peRqurg67BrLjdDCjdMiD_HFluwfTE5akD9cSr2X_VR6_aUpzwmPLiH3ez4lnhUBslkeiu-w-wWdX63jA3ml6UWvlFSVn4WwD5EIBiYz51KoXMkouGTO18WDJnIn2Ei8Mnhn1m00]--></g></svg>