<?xml version="1.0" encoding="us-ascii" standalone="no"?><svg xmlns="http://www.w3.org/2000/svg" xmlns:xlink="http://www.w3.org/1999/xlink" contentStyleType="text/css" height="1472px" preserveAspectRatio="none" style="width:1288px;height:1472px;background:#FFFFFF;" version="1.1" viewBox="0 0 1288 1472" width="1288px" zoomAndPan="magnify"><defs/><g><!--cluster Rolle--><g id="cluster_Rolle"><path d="M119,570 L197,570 A7.5,7.5 0 0 1 202,575 L216,614.5938 L383,614.5938 A5,5 0 0 1 388,619.5938 L388,823 A5,5 0 0 1 383,828 L119,828 A5,5 0 0 1 114,823 L114,575 A5,5 0 0 1 119,570 " fill="none" style="stroke:#000000;stroke-width:3.0;"/><line style="stroke:#000000;stroke-width:3.0;" x1="114" x2="216" y1="614.5938" y2="614.5938"/><text fill="#000000" font-family="sans-serif" font-size="28" font-weight="bold" lengthAdjust="spacing" textLength="76" x="122" y="599.9902">Rolle</text></g><!--cluster Anwendungsf?lle--><g id="cluster_Anwendungsf&#228;lle"><path d="M583,12 L859,12 A7.5,7.5 0 0 1 864,17 L878,56.5938 L1269,56.5938 A5,5 0 0 1 1274,61.5938 L1274,1453 A5,5 0 0 1 1269,1458 L583,1458 A5,5 0 0 1 578,1453 L578,17 A5,5 0 0 1 583,12 " fill="none" style="stroke:#000000;stroke-width:3.0;"/><line style="stroke:#000000;stroke-width:3.0;" x1="578" x2="878" y1="56.5938" y2="56.5938"/><text fill="#000000" font-family="sans-serif" font-size="28" font-weight="bold" lengthAdjust="spacing" textLength="274" x="586" y="41.9902">Anwendungsf&#228;lle</text></g><!--entity uuh--><g id="elem_uuh"><ellipse cx="251" cy="675" fill="#DCDCDC" rx="32" ry="32" style="stroke:#000000;stroke-width:3.0;"/><path d="M251,715 C259,715 265,715 273,707 C289,707 305,723 305,739 L305,747 C305,755 297,763 289,763 L213,763 C205,763 197,755 197,747 L197,739 C197,723 213,707 229,707 C237,715 243,715 251,715 " fill="#DCDCDC" style="stroke:#000000;stroke-width:3.0;"/><text fill="#000000" font-family="Aapex" font-size="26" lengthAdjust="spacing" textLength="210" x="146" y="790.1338">User / User-HBA</text></g><g id="elem_UC1"><ellipse cx="925.7128" cy="156.1418" fill="#F1F1F1" rx="315.7128" ry="75.1418" style="stroke:#181818;stroke-width:1.0;"/><text fill="#000000" font-family="sans-serif" font-size="28" font-weight="bold" lengthAdjust="spacing" textLength="190" x="826.7128" y="129.2414">&#171;AF_10057&#187;</text><text fill="#000000" font-family="sans-serif" font-size="28" lengthAdjust="spacing" textLength="8" x="1016.7128" y="129.2414">&#160;</text><text fill="#000000" font-family="sans-serif" font-size="28" lengthAdjust="spacing" textLength="406" x="718.7128" y="161.8351">Anmeldung eines Akteurs am</text><text fill="#000000" font-family="sans-serif" font-size="28" lengthAdjust="spacing" textLength="266" x="792.7128" y="194.4289">Messenger-Service</text></g><g id="elem_UC2"><ellipse cx="925.8843" cy="376.1418" fill="#F1F1F1" rx="312.8843" ry="75.1418" style="stroke:#181818;stroke-width:1.0;"/><text fill="#000000" font-family="sans-serif" font-size="28" font-weight="bold" lengthAdjust="spacing" textLength="190" x="826.8843" y="349.2414">&#171;AF_10058&#187;</text><text fill="#000000" font-family="sans-serif" font-size="28" lengthAdjust="spacing" textLength="8" x="1016.8843" y="349.2414">&#160;</text><text fill="#000000" font-family="sans-serif" font-size="28" lengthAdjust="spacing" textLength="290" x="776.8843" y="381.8351">Akteur (User-HBA) im</text><text fill="#000000" font-family="sans-serif" font-size="28" lengthAdjust="spacing" textLength="410" x="720.8843" y="414.4289">Verzeichnisdienst hinzuf&#252;gen</text></g><g id="elem_UC3"><ellipse cx="926.328" cy="596.1418" fill="#F0F8FF" rx="297.328" ry="75.1418" style="stroke:#181818;stroke-width:1.0;"/><text fill="#000000" font-family="sans-serif" font-size="28" font-weight="bold" lengthAdjust="spacing" textLength="190" x="827.328" y="569.2414">&#171;AF_10104&#187;</text><text fill="#000000" font-family="sans-serif" font-size="28" lengthAdjust="spacing" textLength="8" x="1017.328" y="569.2414">&#160;</text><text fill="#000000" font-family="sans-serif" font-size="28" lengthAdjust="spacing" textLength="328" x="758.328" y="601.8351">Einladung von Akteuren</text><text fill="#000000" font-family="sans-serif" font-size="28" lengthAdjust="spacing" textLength="388" x="732.328" y="634.4289">innerhalb einer Organisation</text></g><g id="elem_UC4"><ellipse cx="926.328" cy="840.189" fill="#F0F8FF" rx="297.328" ry="98.189" style="stroke:#181818;stroke-width:1.0;"/><text fill="#000000" font-family="sans-serif" font-size="28" font-weight="bold" lengthAdjust="spacing" textLength="190" x="827.328" y="796.9918">&#171;AF_10063&#187;</text><text fill="#000000" font-family="sans-serif" font-size="28" lengthAdjust="spacing" textLength="8" x="1017.328" y="796.9918">&#160;</text><text fill="#000000" font-family="sans-serif" font-size="28" lengthAdjust="spacing" textLength="306" x="769.328" y="829.5855">Austausch von Events</text><text fill="#000000" font-family="sans-serif" font-size="28" lengthAdjust="spacing" textLength="264" x="790.328" y="862.1793">zwischen Akteuren</text><text fill="#000000" font-family="sans-serif" font-size="28" lengthAdjust="spacing" textLength="388" x="732.328" y="894.773">innerhalb einer Organisation</text></g><g id="elem_UC5"><ellipse cx="926.3991" cy="1084.1418" fill="#FFFFF0" rx="304.3991" ry="75.1418" style="stroke:#181818;stroke-width:1.0;"/><text fill="#000000" font-family="sans-serif" font-size="28" font-weight="bold" lengthAdjust="spacing" textLength="190" x="827.3991" y="1057.2414">&#171;AF_10061&#187;</text><text fill="#000000" font-family="sans-serif" font-size="28" lengthAdjust="spacing" textLength="8" x="1017.3991" y="1057.2414">&#160;</text><text fill="#000000" font-family="sans-serif" font-size="28" lengthAdjust="spacing" textLength="328" x="758.3991" y="1089.8351">Einladung von Akteuren</text><text fill="#000000" font-family="sans-serif" font-size="28" lengthAdjust="spacing" textLength="398" x="727.3991" y="1122.4289">au&#223;erhalb einer Organisation</text></g><g id="elem_UC6"><ellipse cx="926.3991" cy="1328.189" fill="#FFFFF0" rx="304.3991" ry="98.189" style="stroke:#181818;stroke-width:1.0;"/><text fill="#000000" font-family="sans-serif" font-size="28" font-weight="bold" lengthAdjust="spacing" textLength="190" x="827.3991" y="1284.9918">&#171;AF_10062&#187;</text><text fill="#000000" font-family="sans-serif" font-size="28" lengthAdjust="spacing" textLength="8" x="1017.3991" y="1284.9918">&#160;</text><text fill="#000000" font-family="sans-serif" font-size="28" lengthAdjust="spacing" textLength="306" x="769.3991" y="1317.5855">Austausch von Events</text><text fill="#000000" font-family="sans-serif" font-size="28" lengthAdjust="spacing" textLength="264" x="790.3991" y="1350.1793">zwischen Akteuren</text><text fill="#000000" font-family="sans-serif" font-size="28" lengthAdjust="spacing" textLength="398" x="727.3991" y="1382.773">au&#223;erhalb einer Organisation</text></g><g id="elem_GMN17"><path d="M12,866 L12,946.5313 A0,0 0 0 0 12,946.5313 L490,946.5313 A0,0 0 0 0 490,946.5313 L490,886 L470,866 L259,866 L251,796.42 L243,866 L12,866 A0,0 0 0 0 12,866 " fill="#FEFFDD" style="stroke:#181818;stroke-width:1.0;"/><path d="M470,866 L470,886 L490,886 L470,866 " fill="#FEFFDD" style="stroke:#181818;stroke-width:1.0;"/><text fill="#000000" font-family="sans-serif" font-size="26" lengthAdjust="spacing" textLength="428" x="24" y="900.1338">z. B. Leistungserbringer im Besitz</text><text fill="#000000" font-family="sans-serif" font-size="26" lengthAdjust="spacing" textLength="146" x="24" y="930.3994">eines HBAs</text></g><!--link uuh to UC1--><g id="link_uuh_UC1"><path d="M286.36,639.58 C333.28,538.5 428.28,364.14 562,266 C595.34,241.54 634.16,222.46 673.78,207.58 " fill="none" id="uuh-to-UC1" style="stroke:#000000;stroke-width:2.0;"/><polygon fill="#000000" points="683.32,204.08,663.6649,202.7849,673.9346,207.5318,669.1877,217.8015,683.32,204.08" style="stroke:#000000;stroke-width:2.0;"/></g><!--link uuh to UC2--><g id="link_uuh_UC2"><path d="M340.06,639.52 C399.12,589.72 480.94,527.12 562,486 C603.56,464.92 649.9,447.06 695.16,432.28 " fill="none" id="uuh-to-UC2" style="stroke:#000000;stroke-width:2.0;"/><polygon fill="#000000" points="704.8,429.18,685.21,427.1233,695.2878,432.265,690.146,442.3429,704.8,429.18" style="stroke:#000000;stroke-width:2.0;"/></g><!--link uuh to UC3--><g id="link_uuh_UC3"><path d="M356.38,699.2 C440.94,683.82 564.12,661.44 674.12,641.44 " fill="none" id="uuh-to-UC3" style="stroke:#000000;stroke-width:2.0;"/><polygon fill="#000000" points="684.06,639.62,664.9133,634.9935,674.2236,641.4214,667.7956,650.7317,684.06,639.62" style="stroke:#000000;stroke-width:2.0;"/></g><!--link uuh to UC4--><g id="link_uuh_UC4"><path d="M356.38,736.8 C435.96,751.26 549.76,771.96 654.58,791.02 " fill="none" id="uuh-to-UC4" style="stroke:#000000;stroke-width:2.0;"/><polygon fill="#000000" points="664.7,792.86,648.4356,781.7483,654.8636,791.0586,645.5533,797.4865,664.7,792.86" style="stroke:#000000;stroke-width:2.0;"/></g><!--link uuh to UC5--><g id="link_uuh_UC5"><path d="M356.54,749.76 C401.74,767.66 452.8,793.82 490,830 C540.72,879.34 507.92,926.38 562,972 C594.12,999.1 632.74,1019.64 672.64,1035.22 " fill="none" id="uuh-to-UC5" style="stroke:#000000;stroke-width:2.0;"/><polygon fill="#000000" points="682.26,1038.88,668.3031,1024.9802,672.9192,1035.3094,662.59,1039.9255,682.26,1038.88" style="stroke:#000000;stroke-width:2.0;"/></g><!--link uuh to UC6--><g id="link_uuh_UC6"><path d="M356.58,743.64 C404.04,760.54 456.98,787.66 490,830 C591.42,960.04 455.04,1068.48 562,1194 C589.24,1225.98 624.86,1250.32 663.1,1268.86 " fill="none" id="uuh-to-UC6" style="stroke:#000000;stroke-width:2.0;"/><polygon fill="#000000" points="672.88,1273.46,659.9928,1258.563,663.8299,1269.2062,653.1867,1273.0432,672.88,1273.46" style="stroke:#000000;stroke-width:2.0;"/></g><!--SRC=[bLJDRjf04BxlKup89K4YuJyzH4XsbBH895GboIbIjPZ1Nc5cwVv0uwhFqaiVepTUhEirK8kIqfmydfdzVjQVh6U25bpnEV38I3KoBoa2Nw6MSsGfJWqO2Kh4YO69K1WP8OdfYBkjxaMBCRqxh_6BHOeGlh50ARcwbgbKC4vvD2iQjvBCI6G8ZKiMv6IXL1DKvRs1cE904FvZubvY9IrDYkbxBaYFfPACVUJAY4WiE9do-Jjfn99xtUMDFPp3MxdaUpv7wCyNxdxsHzvDixxVBkj-HLJurt1Vp_2X_nGyz8VtR7DPhnhtuttUNREuyTQVXlSJy0L-PTyPSxPcF4Ru9DCq_tG-1L1vrAZW0l97xKCOL81hi3OfdmXeXJIn5Elf-cTns6gCk4QeLAjNLy7jvqQzthdizQfLUAQ0vfZcwu3kCse8PWQjqk2Iyqntg3LIxCX6g9OYGa_uUDqu2Fbk2-aXu7IhyWn43lQ4AaCH9IJqH21f0ucWp4xNlsAa3N3p072Ztju0tmXAkTUwbBHHYkG6WWXLmjEnDw5Wg6BkQ7nkDiWjE0bIvo1CBHvItsrjrLjjkDLHuabkbaX6ktQs4gw7RwLj7wDj7FF6xVh7CPOEdFINKhqSP6Y-tTZ_S7Qtd2vxBe9Gg_MAPEpgPgbkbUfsgUwKwYvZ90swFzi2v1HEtUICPUSGdiC0XJPvfb6DbSWJcMSgH2rC1gn8hakQPYxwa8Emtm00]--></g></svg>