<?xml version="1.0" encoding="us-ascii" standalone="no"?><svg xmlns="http://www.w3.org/2000/svg" xmlns:xlink="http://www.w3.org/1999/xlink" contentStyleType="text/css" height="512px" preserveAspectRatio="none" style="width:882px;height:512px;background:#FFFFFF;" version="1.1" viewBox="0 0 882 512" width="882px" zoomAndPan="magnify"><defs/><g><text fill="#000000" font-family="sans-serif" font-size="14" font-weight="bold" lengthAdjust="spacing" textLength="293" x="293" y="32.9951">Setzen von Berechtigungen im Client</text><ellipse cx="428.25" cy="57.2969" fill="#222222" rx="10" ry="10" style="stroke:#222222;stroke-width:1.0;"/><rect fill="#F1F1F1" height="33.9688" rx="12.5" ry="12.5" style="stroke:#181818;stroke-width:0.5;" width="105" x="375.75" y="87.2969"/><text fill="#000000" font-family="sans-serif" font-size="12" lengthAdjust="spacing" textLength="85" x="385.75" y="108.4355">Client starten</text><rect fill="#F1F1F1" height="33.9688" rx="12.5" ry="12.5" style="stroke:#181818;stroke-width:0.5;" width="187" x="334.75" y="141.2656"/><text fill="#000000" font-family="sans-serif" font-size="12" lengthAdjust="spacing" textLength="167" x="344.75" y="162.4043">Berechtigungen einrichten</text><polygon fill="#F1F1F1" points="361.75,195.2344,494.75,195.2344,506.75,207.2344,494.75,219.2344,361.75,219.2344,349.75,207.2344,361.75,195.2344" style="stroke:#181818;stroke-width:0.5;"/><text fill="#000000" font-family="sans-serif" font-size="11" lengthAdjust="spacing" textLength="133" x="361.75" y="211.0425">"Allow all" or "Block all"</text><text fill="#000000" font-family="sans-serif" font-size="11" lengthAdjust="spacing" textLength="46" x="303.75" y="204.6401">Allow all</text><text fill="#000000" font-family="sans-serif" font-size="11" lengthAdjust="spacing" textLength="47" x="506.75" y="204.6401">Block all</text><polygon fill="#F1F1F1" points="119,277.6367,286,277.6367,298,289.6367,286,301.6367,119,301.6367,107,289.6367,119,277.6367" style="stroke:#181818;stroke-width:0.5;"/><text fill="#000000" font-family="sans-serif" font-size="11" lengthAdjust="spacing" textLength="167" x="119" y="293.4448">BlockedUser-Liste bearbeiten</text><text fill="#000000" font-family="sans-serif" font-size="11" lengthAdjust="spacing" textLength="62" x="45" y="287.0425">Hinzuf&#252;gen</text><text fill="#000000" font-family="sans-serif" font-size="11" lengthAdjust="spacing" textLength="55" x="298" y="287.0425">Entfernen</text><rect fill="#F1F1F1" height="33.9688" rx="12.5" ry="12.5" style="stroke:#181818;stroke-width:0.5;" width="172" x="11" y="311.6367"/><text fill="#000000" font-family="sans-serif" font-size="12" lengthAdjust="spacing" textLength="152" x="21" y="332.7754">User/Domain hinzuf&#252;gen</text><rect fill="#F1F1F1" height="33.9688" rx="12.5" ry="12.5" style="stroke:#181818;stroke-width:0.5;" width="166" x="225" y="311.6367"/><text fill="#000000" font-family="sans-serif" font-size="12" lengthAdjust="spacing" textLength="146" x="235" y="332.7754">User/Domain entfernen</text><polygon fill="#F1F1F1" points="125,229.2344,280,229.2344,292,241.2344,280,253.2344,125,253.2344,113,241.2344,125,229.2344" style="stroke:#181818;stroke-width:0.5;"/><text fill="#000000" font-family="sans-serif" font-size="11" lengthAdjust="spacing" textLength="10" x="206.5" y="263.4448">Ja</text><text fill="#000000" font-family="sans-serif" font-size="11" lengthAdjust="spacing" textLength="155" x="125" y="245.0425">Beschr&#228;nkungen einrichten</text><text fill="#000000" font-family="sans-serif" font-size="11" lengthAdjust="spacing" textLength="25" x="292" y="238.6401">Nein</text><polygon fill="#F1F1F1" points="571,277.6367,737,277.6367,749,289.6367,737,301.6367,571,301.6367,559,289.6367,571,277.6367" style="stroke:#181818;stroke-width:0.5;"/><text fill="#000000" font-family="sans-serif" font-size="11" lengthAdjust="spacing" textLength="166" x="571" y="293.4448">AllowedUser-Liste bearbeiten</text><text fill="#000000" font-family="sans-serif" font-size="11" lengthAdjust="spacing" textLength="62" x="497" y="287.0425">Hinzuf&#252;gen</text><text fill="#000000" font-family="sans-serif" font-size="11" lengthAdjust="spacing" textLength="55" x="749" y="287.0425">Entfernen</text><rect fill="#F1F1F1" height="33.9688" rx="12.5" ry="12.5" style="stroke:#181818;stroke-width:0.5;" width="172" x="463" y="311.6367"/><text fill="#000000" font-family="sans-serif" font-size="12" lengthAdjust="spacing" textLength="152" x="473" y="332.7754">User/Domain hinzuf&#252;gen</text><rect fill="#F1F1F1" height="33.9688" rx="12.5" ry="12.5" style="stroke:#181818;stroke-width:0.5;" width="166" x="676" y="311.6367"/><text fill="#000000" font-family="sans-serif" font-size="12" lengthAdjust="spacing" textLength="146" x="686" y="332.7754">User/Domain entfernen</text><polygon fill="#F1F1F1" points="590.5,229.2344,717.5,229.2344,729.5,241.2344,717.5,253.2344,590.5,253.2344,578.5,241.2344,590.5,229.2344" style="stroke:#181818;stroke-width:0.5;"/><text fill="#000000" font-family="sans-serif" font-size="11" lengthAdjust="spacing" textLength="10" x="658" y="263.4448">Ja</text><text fill="#000000" font-family="sans-serif" font-size="11" lengthAdjust="spacing" textLength="127" x="590.5" y="245.0425">Erlaubnisse einrichten</text><text fill="#000000" font-family="sans-serif" font-size="11" lengthAdjust="spacing" textLength="25" x="729.5" y="238.6401">Nein</text><rect fill="#F1F1F1" height="33.9688" rx="12.5" ry="12.5" style="stroke:#181818;stroke-width:0.5;" width="252" x="302.25" y="425.6055"/><text fill="#000000" font-family="sans-serif" font-size="12" lengthAdjust="spacing" textLength="232" x="312.25" y="446.7441">Konfiguration auf dem Server sichern</text><ellipse cx="428.25" cy="490.5742" fill="none" rx="11" ry="11" style="stroke:#222222;stroke-width:1.0;"/><ellipse cx="428.25" cy="490.5742" fill="#222222" rx="6" ry="6" style="stroke:#222222;stroke-width:1.0;"/><line style="stroke:#181818;stroke-width:1.0;" x1="428.25" x2="428.25" y1="67.2969" y2="87.2969"/><polygon fill="#181818" points="424.25,77.2969,428.25,87.2969,432.25,77.2969,428.25,81.2969" style="stroke:#181818;stroke-width:1.0;"/><line style="stroke:#181818;stroke-width:1.0;" x1="428.25" x2="428.25" y1="121.2656" y2="141.2656"/><polygon fill="#181818" points="424.25,131.2656,428.25,141.2656,432.25,131.2656,428.25,135.2656" style="stroke:#181818;stroke-width:1.0;"/><line style="stroke:#181818;stroke-width:1.0;" x1="107" x2="97" y1="289.6367" y2="289.6367"/><line style="stroke:#181818;stroke-width:1.0;" x1="97" x2="97" y1="289.6367" y2="311.6367"/><polygon fill="#181818" points="93,301.6367,97,311.6367,101,301.6367,97,305.6367" style="stroke:#181818;stroke-width:1.0;"/><line style="stroke:#181818;stroke-width:1.0;" x1="298" x2="308" y1="289.6367" y2="289.6367"/><line style="stroke:#181818;stroke-width:1.0;" x1="308" x2="308" y1="289.6367" y2="311.6367"/><polygon fill="#181818" points="304,301.6367,308,311.6367,312,301.6367,308,305.6367" style="stroke:#181818;stroke-width:1.0;"/><line style="stroke:#181818;stroke-width:1.0;" x1="97" x2="97" y1="345.6055" y2="363.6055"/><polygon fill="#181818" points="93,353.6055,97,363.6055,101,353.6055,97,357.6055" style="stroke:#181818;stroke-width:1.0;"/><line style="stroke:#181818;stroke-width:1.0;" x1="308" x2="308" y1="345.6055" y2="363.6055"/><polygon fill="#181818" points="304,353.6055,308,363.6055,312,353.6055,308,357.6055" style="stroke:#181818;stroke-width:1.0;"/><line style="stroke:#181818;stroke-width:1.0;" x1="97" x2="308" y1="363.6055" y2="363.6055"/><line style="stroke:#181818;stroke-width:1.0;" x1="202.5" x2="202.5" y1="253.2344" y2="277.6367"/><polygon fill="#181818" points="198.5,267.6367,202.5,277.6367,206.5,267.6367,202.5,271.6367" style="stroke:#181818;stroke-width:1.0;"/><line style="stroke:#181818;stroke-width:1.0;" x1="292" x2="411" y1="241.2344" y2="241.2344"/><line style="stroke:#181818;stroke-width:1.0;" x1="411" x2="411" y1="241.2344" y2="385.6055"/><polygon fill="#181818" points="407,375.6055,411,385.6055,415,375.6055,411,379.6055" style="stroke:#181818;stroke-width:1.0;"/><line style="stroke:#181818;stroke-width:1.0;" x1="411" x2="202.5" y1="385.6055" y2="385.6055"/><line style="stroke:#181818;stroke-width:1.0;" x1="202.5" x2="202.5" y1="385.6055" y2="390.6055"/><line style="stroke:#181818;stroke-width:1.0;" x1="202.5" x2="202.5" y1="363.6055" y2="385.6055"/><polygon fill="#181818" points="198.5,375.6055,202.5,385.6055,206.5,375.6055,202.5,379.6055" style="stroke:#181818;stroke-width:1.0;"/><line style="stroke:#181818;stroke-width:1.0;" x1="559" x2="549" y1="289.6367" y2="289.6367"/><line style="stroke:#181818;stroke-width:1.0;" x1="549" x2="549" y1="289.6367" y2="311.6367"/><polygon fill="#181818" points="545,301.6367,549,311.6367,553,301.6367,549,305.6367" style="stroke:#181818;stroke-width:1.0;"/><line style="stroke:#181818;stroke-width:1.0;" x1="749" x2="759" y1="289.6367" y2="289.6367"/><line style="stroke:#181818;stroke-width:1.0;" x1="759" x2="759" y1="289.6367" y2="311.6367"/><polygon fill="#181818" points="755,301.6367,759,311.6367,763,301.6367,759,305.6367" style="stroke:#181818;stroke-width:1.0;"/><line style="stroke:#181818;stroke-width:1.0;" x1="549" x2="549" y1="345.6055" y2="363.6055"/><polygon fill="#181818" points="545,353.6055,549,363.6055,553,353.6055,549,357.6055" style="stroke:#181818;stroke-width:1.0;"/><line style="stroke:#181818;stroke-width:1.0;" x1="759" x2="759" y1="345.6055" y2="363.6055"/><polygon fill="#181818" points="755,353.6055,759,363.6055,763,353.6055,759,357.6055" style="stroke:#181818;stroke-width:1.0;"/><line style="stroke:#181818;stroke-width:1.0;" x1="549" x2="759" y1="363.6055" y2="363.6055"/><line style="stroke:#181818;stroke-width:1.0;" x1="654" x2="654" y1="253.2344" y2="277.6367"/><polygon fill="#181818" points="650,267.6367,654,277.6367,658,267.6367,654,271.6367" style="stroke:#181818;stroke-width:1.0;"/><line style="stroke:#181818;stroke-width:1.0;" x1="729.5" x2="856" y1="241.2344" y2="241.2344"/><line style="stroke:#181818;stroke-width:1.0;" x1="856" x2="856" y1="241.2344" y2="385.6055"/><polygon fill="#181818" points="852,375.6055,856,385.6055,860,375.6055,856,379.6055" style="stroke:#181818;stroke-width:1.0;"/><line style="stroke:#181818;stroke-width:1.0;" x1="856" x2="654" y1="385.6055" y2="385.6055"/><line style="stroke:#181818;stroke-width:1.0;" x1="654" x2="654" y1="385.6055" y2="390.6055"/><line style="stroke:#181818;stroke-width:1.0;" x1="654" x2="654" y1="363.6055" y2="385.6055"/><polygon fill="#181818" points="650,375.6055,654,385.6055,658,375.6055,654,379.6055" style="stroke:#181818;stroke-width:1.0;"/><line style="stroke:#181818;stroke-width:1.0;" x1="349.75" x2="202.5" y1="207.2344" y2="207.2344"/><line style="stroke:#181818;stroke-width:1.0;" x1="202.5" x2="202.5" y1="207.2344" y2="229.2344"/><polygon fill="#181818" points="198.5,219.2344,202.5,229.2344,206.5,219.2344,202.5,223.2344" style="stroke:#181818;stroke-width:1.0;"/><line style="stroke:#181818;stroke-width:1.0;" x1="506.75" x2="654" y1="207.2344" y2="207.2344"/><line style="stroke:#181818;stroke-width:1.0;" x1="654" x2="654" y1="207.2344" y2="229.2344"/><polygon fill="#181818" points="650,219.2344,654,229.2344,658,219.2344,654,223.2344" style="stroke:#181818;stroke-width:1.0;"/><line style="stroke:#181818;stroke-width:1.0;" x1="202.5" x2="202.5" y1="390.6055" y2="405.6055"/><polygon fill="#181818" points="198.5,395.6055,202.5,405.6055,206.5,395.6055,202.5,399.6055" style="stroke:#181818;stroke-width:1.0;"/><line style="stroke:#181818;stroke-width:1.0;" x1="654" x2="654" y1="390.6055" y2="405.6055"/><polygon fill="#181818" points="650,395.6055,654,405.6055,658,395.6055,654,399.6055" style="stroke:#181818;stroke-width:1.0;"/><line style="stroke:#181818;stroke-width:1.0;" x1="202.5" x2="654" y1="405.6055" y2="405.6055"/><line style="stroke:#181818;stroke-width:1.0;" x1="428.25" x2="428.25" y1="175.2344" y2="195.2344"/><polygon fill="#181818" points="424.25,185.2344,428.25,195.2344,432.25,185.2344,428.25,189.2344" style="stroke:#181818;stroke-width:1.0;"/><line style="stroke:#181818;stroke-width:1.0;" x1="428.25" x2="428.25" y1="405.6055" y2="425.6055"/><polygon fill="#181818" points="424.25,415.6055,428.25,425.6055,432.25,415.6055,428.25,419.6055" style="stroke:#181818;stroke-width:1.0;"/><line style="stroke:#181818;stroke-width:1.0;" x1="428.25" x2="428.25" y1="459.5742" y2="479.5742"/><polygon fill="#181818" points="424.25,469.5742,428.25,479.5742,432.25,469.5742,428.25,473.5742" style="stroke:#181818;stroke-width:1.0;"/></g></svg>