<?xml version="1.0" encoding="us-ascii" standalone="no"?><svg xmlns="http://www.w3.org/2000/svg" xmlns:xlink="http://www.w3.org/1999/xlink" contentStyleType="text/css" height="512px" preserveAspectRatio="none" style="width:868px;height:512px;background:#FFFFFF;" version="1.1" viewBox="0 0 868 512" width="868px" zoomAndPan="magnify"><defs/><g><text fill="#000000" font-family="sans-serif" font-size="14" font-weight="bold" lengthAdjust="spacing" textLength="293" x="286" y="32.9951">Setzen von Berechtigungen im Client</text><ellipse cx="421.25" cy="57.2969" fill="#222222" rx="10" ry="10" style="stroke:#222222;stroke-width:1.0;"/><rect fill="#F1F1F1" height="33.9688" rx="12.5" ry="12.5" style="stroke:#181818;stroke-width:0.5;" width="105" x="368.75" y="87.2969"/><text fill="#000000" font-family="sans-serif" font-size="12" lengthAdjust="spacing" textLength="85" x="378.75" y="108.4355">Client starten</text><rect fill="#F1F1F1" height="33.9688" rx="12.5" ry="12.5" style="stroke:#181818;stroke-width:0.5;" width="187" x="327.75" y="141.2656"/><text fill="#000000" font-family="sans-serif" font-size="12" lengthAdjust="spacing" textLength="167" x="337.75" y="162.4043">Berechtigungen einrichten</text><polygon fill="#F1F1F1" points="354.75,195.2344,487.75,195.2344,499.75,207.2344,487.75,219.2344,354.75,219.2344,342.75,207.2344,354.75,195.2344" style="stroke:#181818;stroke-width:0.5;"/><text fill="#000000" font-family="sans-serif" font-size="11" lengthAdjust="spacing" textLength="133" x="354.75" y="211.0425">"Allow all" or "Block all"</text><text fill="#000000" font-family="sans-serif" font-size="11" lengthAdjust="spacing" textLength="46" x="296.75" y="204.6401">Allow all</text><text fill="#000000" font-family="sans-serif" font-size="11" lengthAdjust="spacing" textLength="47" x="499.75" y="204.6401">Block all</text><polygon fill="#F1F1F1" points="115.5,277.6367,282.5,277.6367,294.5,289.6367,282.5,301.6367,115.5,301.6367,103.5,289.6367,115.5,277.6367" style="stroke:#181818;stroke-width:0.5;"/><text fill="#000000" font-family="sans-serif" font-size="11" lengthAdjust="spacing" textLength="167" x="115.5" y="293.4448">BlockedUser-Liste bearbeiten</text><text fill="#000000" font-family="sans-serif" font-size="11" lengthAdjust="spacing" textLength="62" x="41.5" y="287.0425">Hinzuf&#252;gen</text><text fill="#000000" font-family="sans-serif" font-size="11" lengthAdjust="spacing" textLength="55" x="294.5" y="287.0425">Entfernen</text><rect fill="#F1F1F1" height="33.9688" rx="12.5" ry="12.5" style="stroke:#181818;stroke-width:0.5;" width="165" x="11" y="311.6367"/><text fill="#000000" font-family="sans-serif" font-size="12" lengthAdjust="spacing" textLength="145" x="21" y="332.7754">User/Server hinzuf&#252;gen</text><rect fill="#F1F1F1" height="33.9688" rx="12.5" ry="12.5" style="stroke:#181818;stroke-width:0.5;" width="159" x="225" y="311.6367"/><text fill="#000000" font-family="sans-serif" font-size="12" lengthAdjust="spacing" textLength="139" x="235" y="332.7754">User/Server entfernen</text><polygon fill="#F1F1F1" points="121.5,229.2344,276.5,229.2344,288.5,241.2344,276.5,253.2344,121.5,253.2344,109.5,241.2344,121.5,229.2344" style="stroke:#181818;stroke-width:0.5;"/><text fill="#000000" font-family="sans-serif" font-size="11" lengthAdjust="spacing" textLength="10" x="203" y="263.4448">Ja</text><text fill="#000000" font-family="sans-serif" font-size="11" lengthAdjust="spacing" textLength="155" x="121.5" y="245.0425">Beschr&#228;nkungen einrichten</text><text fill="#000000" font-family="sans-serif" font-size="11" lengthAdjust="spacing" textLength="25" x="288.5" y="238.6401">Nein</text><polygon fill="#F1F1F1" points="560.5,277.6367,726.5,277.6367,738.5,289.6367,726.5,301.6367,560.5,301.6367,548.5,289.6367,560.5,277.6367" style="stroke:#181818;stroke-width:0.5;"/><text fill="#000000" font-family="sans-serif" font-size="11" lengthAdjust="spacing" textLength="166" x="560.5" y="293.4448">AllowedUser-Liste bearbeiten</text><text fill="#000000" font-family="sans-serif" font-size="11" lengthAdjust="spacing" textLength="62" x="486.5" y="287.0425">Hinzuf&#252;gen</text><text fill="#000000" font-family="sans-serif" font-size="11" lengthAdjust="spacing" textLength="55" x="738.5" y="287.0425">Entfernen</text><rect fill="#F1F1F1" height="33.9688" rx="12.5" ry="12.5" style="stroke:#181818;stroke-width:0.5;" width="165" x="456" y="311.6367"/><text fill="#000000" font-family="sans-serif" font-size="12" lengthAdjust="spacing" textLength="145" x="466" y="332.7754">User/Server hinzuf&#252;gen</text><rect fill="#F1F1F1" height="33.9688" rx="12.5" ry="12.5" style="stroke:#181818;stroke-width:0.5;" width="159" x="669" y="311.6367"/><text fill="#000000" font-family="sans-serif" font-size="12" lengthAdjust="spacing" textLength="139" x="679" y="332.7754">User/Server entfernen</text><polygon fill="#F1F1F1" points="580,229.2344,707,229.2344,719,241.2344,707,253.2344,580,253.2344,568,241.2344,580,229.2344" style="stroke:#181818;stroke-width:0.5;"/><text fill="#000000" font-family="sans-serif" font-size="11" lengthAdjust="spacing" textLength="10" x="647.5" y="263.4448">Ja</text><text fill="#000000" font-family="sans-serif" font-size="11" lengthAdjust="spacing" textLength="127" x="580" y="245.0425">Erlaubnisse einrichten</text><text fill="#000000" font-family="sans-serif" font-size="11" lengthAdjust="spacing" textLength="25" x="719" y="238.6401">Nein</text><rect fill="#F1F1F1" height="33.9688" rx="12.5" ry="12.5" style="stroke:#181818;stroke-width:0.5;" width="252" x="295.25" y="425.6055"/><text fill="#000000" font-family="sans-serif" font-size="12" lengthAdjust="spacing" textLength="232" x="305.25" y="446.7441">Konfiguration auf dem Server sichern</text><ellipse cx="421.25" cy="490.5742" fill="none" rx="11" ry="11" style="stroke:#222222;stroke-width:1.0;"/><ellipse cx="421.25" cy="490.5742" fill="#222222" rx="6" ry="6" style="stroke:#222222;stroke-width:1.0;"/><line style="stroke:#181818;stroke-width:1.0;" x1="421.25" x2="421.25" y1="67.2969" y2="87.2969"/><polygon fill="#181818" points="417.25,77.2969,421.25,87.2969,425.25,77.2969,421.25,81.2969" style="stroke:#181818;stroke-width:1.0;"/><line style="stroke:#181818;stroke-width:1.0;" x1="421.25" x2="421.25" y1="121.2656" y2="141.2656"/><polygon fill="#181818" points="417.25,131.2656,421.25,141.2656,425.25,131.2656,421.25,135.2656" style="stroke:#181818;stroke-width:1.0;"/><line style="stroke:#181818;stroke-width:1.0;" x1="103.5" x2="93.5" y1="289.6367" y2="289.6367"/><line style="stroke:#181818;stroke-width:1.0;" x1="93.5" x2="93.5" y1="289.6367" y2="311.6367"/><polygon fill="#181818" points="89.5,301.6367,93.5,311.6367,97.5,301.6367,93.5,305.6367" style="stroke:#181818;stroke-width:1.0;"/><line style="stroke:#181818;stroke-width:1.0;" x1="294.5" x2="304.5" y1="289.6367" y2="289.6367"/><line style="stroke:#181818;stroke-width:1.0;" x1="304.5" x2="304.5" y1="289.6367" y2="311.6367"/><polygon fill="#181818" points="300.5,301.6367,304.5,311.6367,308.5,301.6367,304.5,305.6367" style="stroke:#181818;stroke-width:1.0;"/><line style="stroke:#181818;stroke-width:1.0;" x1="93.5" x2="93.5" y1="345.6055" y2="363.6055"/><polygon fill="#181818" points="89.5,353.6055,93.5,363.6055,97.5,353.6055,93.5,357.6055" style="stroke:#181818;stroke-width:1.0;"/><line style="stroke:#181818;stroke-width:1.0;" x1="304.5" x2="304.5" y1="345.6055" y2="363.6055"/><polygon fill="#181818" points="300.5,353.6055,304.5,363.6055,308.5,353.6055,304.5,357.6055" style="stroke:#181818;stroke-width:1.0;"/><line style="stroke:#181818;stroke-width:1.0;" x1="93.5" x2="304.5" y1="363.6055" y2="363.6055"/><line style="stroke:#181818;stroke-width:1.0;" x1="199" x2="199" y1="253.2344" y2="277.6367"/><polygon fill="#181818" points="195,267.6367,199,277.6367,203,267.6367,199,271.6367" style="stroke:#181818;stroke-width:1.0;"/><line style="stroke:#181818;stroke-width:1.0;" x1="288.5" x2="404" y1="241.2344" y2="241.2344"/><line style="stroke:#181818;stroke-width:1.0;" x1="404" x2="404" y1="241.2344" y2="385.6055"/><polygon fill="#181818" points="400,375.6055,404,385.6055,408,375.6055,404,379.6055" style="stroke:#181818;stroke-width:1.0;"/><line style="stroke:#181818;stroke-width:1.0;" x1="404" x2="199" y1="385.6055" y2="385.6055"/><line style="stroke:#181818;stroke-width:1.0;" x1="199" x2="199" y1="385.6055" y2="390.6055"/><line style="stroke:#181818;stroke-width:1.0;" x1="199" x2="199" y1="363.6055" y2="385.6055"/><polygon fill="#181818" points="195,375.6055,199,385.6055,203,375.6055,199,379.6055" style="stroke:#181818;stroke-width:1.0;"/><line style="stroke:#181818;stroke-width:1.0;" x1="548.5" x2="538.5" y1="289.6367" y2="289.6367"/><line style="stroke:#181818;stroke-width:1.0;" x1="538.5" x2="538.5" y1="289.6367" y2="311.6367"/><polygon fill="#181818" points="534.5,301.6367,538.5,311.6367,542.5,301.6367,538.5,305.6367" style="stroke:#181818;stroke-width:1.0;"/><line style="stroke:#181818;stroke-width:1.0;" x1="738.5" x2="748.5" y1="289.6367" y2="289.6367"/><line style="stroke:#181818;stroke-width:1.0;" x1="748.5" x2="748.5" y1="289.6367" y2="311.6367"/><polygon fill="#181818" points="744.5,301.6367,748.5,311.6367,752.5,301.6367,748.5,305.6367" style="stroke:#181818;stroke-width:1.0;"/><line style="stroke:#181818;stroke-width:1.0;" x1="538.5" x2="538.5" y1="345.6055" y2="363.6055"/><polygon fill="#181818" points="534.5,353.6055,538.5,363.6055,542.5,353.6055,538.5,357.6055" style="stroke:#181818;stroke-width:1.0;"/><line style="stroke:#181818;stroke-width:1.0;" x1="748.5" x2="748.5" y1="345.6055" y2="363.6055"/><polygon fill="#181818" points="744.5,353.6055,748.5,363.6055,752.5,353.6055,748.5,357.6055" style="stroke:#181818;stroke-width:1.0;"/><line style="stroke:#181818;stroke-width:1.0;" x1="538.5" x2="748.5" y1="363.6055" y2="363.6055"/><line style="stroke:#181818;stroke-width:1.0;" x1="643.5" x2="643.5" y1="253.2344" y2="277.6367"/><polygon fill="#181818" points="639.5,267.6367,643.5,277.6367,647.5,267.6367,643.5,271.6367" style="stroke:#181818;stroke-width:1.0;"/><line style="stroke:#181818;stroke-width:1.0;" x1="719" x2="842" y1="241.2344" y2="241.2344"/><line style="stroke:#181818;stroke-width:1.0;" x1="842" x2="842" y1="241.2344" y2="385.6055"/><polygon fill="#181818" points="838,375.6055,842,385.6055,846,375.6055,842,379.6055" style="stroke:#181818;stroke-width:1.0;"/><line style="stroke:#181818;stroke-width:1.0;" x1="842" x2="643.5" y1="385.6055" y2="385.6055"/><line style="stroke:#181818;stroke-width:1.0;" x1="643.5" x2="643.5" y1="385.6055" y2="390.6055"/><line style="stroke:#181818;stroke-width:1.0;" x1="643.5" x2="643.5" y1="363.6055" y2="385.6055"/><polygon fill="#181818" points="639.5,375.6055,643.5,385.6055,647.5,375.6055,643.5,379.6055" style="stroke:#181818;stroke-width:1.0;"/><line style="stroke:#181818;stroke-width:1.0;" x1="342.75" x2="199" y1="207.2344" y2="207.2344"/><line style="stroke:#181818;stroke-width:1.0;" x1="199" x2="199" y1="207.2344" y2="229.2344"/><polygon fill="#181818" points="195,219.2344,199,229.2344,203,219.2344,199,223.2344" style="stroke:#181818;stroke-width:1.0;"/><line style="stroke:#181818;stroke-width:1.0;" x1="499.75" x2="643.5" y1="207.2344" y2="207.2344"/><line style="stroke:#181818;stroke-width:1.0;" x1="643.5" x2="643.5" y1="207.2344" y2="229.2344"/><polygon fill="#181818" points="639.5,219.2344,643.5,229.2344,647.5,219.2344,643.5,223.2344" style="stroke:#181818;stroke-width:1.0;"/><line style="stroke:#181818;stroke-width:1.0;" x1="199" x2="199" y1="390.6055" y2="405.6055"/><polygon fill="#181818" points="195,395.6055,199,405.6055,203,395.6055,199,399.6055" style="stroke:#181818;stroke-width:1.0;"/><line style="stroke:#181818;stroke-width:1.0;" x1="643.5" x2="643.5" y1="390.6055" y2="405.6055"/><polygon fill="#181818" points="639.5,395.6055,643.5,405.6055,647.5,395.6055,643.5,399.6055" style="stroke:#181818;stroke-width:1.0;"/><line style="stroke:#181818;stroke-width:1.0;" x1="199" x2="643.5" y1="405.6055" y2="405.6055"/><line style="stroke:#181818;stroke-width:1.0;" x1="421.25" x2="421.25" y1="175.2344" y2="195.2344"/><polygon fill="#181818" points="417.25,185.2344,421.25,195.2344,425.25,185.2344,421.25,189.2344" style="stroke:#181818;stroke-width:1.0;"/><line style="stroke:#181818;stroke-width:1.0;" x1="421.25" x2="421.25" y1="405.6055" y2="425.6055"/><polygon fill="#181818" points="417.25,415.6055,421.25,425.6055,425.25,415.6055,421.25,419.6055" style="stroke:#181818;stroke-width:1.0;"/><line style="stroke:#181818;stroke-width:1.0;" x1="421.25" x2="421.25" y1="459.5742" y2="479.5742"/><polygon fill="#181818" points="417.25,469.5742,421.25,479.5742,425.25,469.5742,421.25,473.5742" style="stroke:#181818;stroke-width:1.0;"/></g></svg>