<?xml version="1.0" encoding="us-ascii" standalone="no"?><svg xmlns="http://www.w3.org/2000/svg" xmlns:xlink="http://www.w3.org/1999/xlink" contentStyleType="text/css" height="757px" preserveAspectRatio="none" style="width:1624px;height:757px;background:#FFFFFF;" version="1.1" viewBox="0 0 1624 757" width="1624px" zoomAndPan="magnify"><defs/><g><rect fill="#DCDCDC" height="322.6797" style="stroke:#000000;stroke-width:1.0;" width="10" x="426.5" y="338.3828"/><rect fill="#DCDCDC" height="140.9453" style="stroke:#000000;stroke-width:1.0;" width="10" x="774.5" y="197.4375"/><rect fill="#DCDCDC" height="121.1563" style="stroke:#000000;stroke-width:1.0;" width="10" x="1177.5" y="143.8594"/><rect fill="#DCDCDC" height="347.2578" style="stroke:#000000;stroke-width:1.0;" width="10" x="1506.5" y="98.2813"/><line style="stroke:#000000;stroke-width:0.5;stroke-dasharray:5.0,5.0;" x1="127" x2="127" y1="88.2813" y2="670.0625"/><line style="stroke:#000000;stroke-width:0.5;stroke-dasharray:5.0,5.0;" x1="431" x2="431" y1="88.2813" y2="670.0625"/><line style="stroke:#000000;stroke-width:0.5;stroke-dasharray:5.0,5.0;" x1="779.5" x2="779.5" y1="88.2813" y2="670.0625"/><line style="stroke:#000000;stroke-width:0.5;stroke-dasharray:5.0,5.0;" x1="1182.5" x2="1182.5" y1="88.2813" y2="670.0625"/><line style="stroke:#000000;stroke-width:0.5;stroke-dasharray:5.0,5.0;" x1="1511.5" x2="1511.5" y1="88.2813" y2="670.0625"/><text fill="#000000" font-family="sans-serif" font-size="20" lengthAdjust="spacing" textLength="238" x="5" y="83.5645">Akteur in der Rolle User</text><ellipse cx="127" cy="13.5" fill="#DCDCDC" rx="8" ry="8" style="stroke:#000000;stroke-width:0.5;"/><path d="M127,21.5 L127,48.5 M114,29.5 L140,29.5 M127,48.5 L114,63.5 M127,48.5 L140,63.5 " fill="none" style="stroke:#000000;stroke-width:0.5;"/><text fill="#000000" font-family="sans-serif" font-size="20" lengthAdjust="spacing" textLength="238" x="5" y="687.627">Akteur in der Rolle User</text><ellipse cx="127" cy="700.8438" fill="#DCDCDC" rx="8" ry="8" style="stroke:#000000;stroke-width:0.5;"/><path d="M127,708.8438 L127,735.8438 M114,716.8438 L140,716.8438 M127,735.8438 L114,750.8438 M127,735.8438 L140,750.8438 " fill="none" style="stroke:#000000;stroke-width:0.5;"/><rect fill="#EFEFFF" height="70.5625" rx="2.5" ry="2.5" style="stroke:#000000;stroke-width:0.5;" width="345" x="259" y="16.7188"/><text fill="#000000" font-family="sans-serif" font-size="20" lengthAdjust="spacing" textLength="243" x="310" y="42.2832">TI-Messenger Client App</text><line style="stroke:#000000;stroke-width:1.0;" x1="259" x2="604" y1="52" y2="52"/><text fill="#000000" font-family="sans-serif" font-size="20" lengthAdjust="spacing" textLength="331" x="266" y="75.5645">Inhaber PushAnbieter-App Token</text><rect fill="#EFEFFF" height="70.5625" rx="2.5" ry="2.5" style="stroke:#000000;stroke-width:0.5;" width="345" x="259" y="669.0625"/><text fill="#000000" font-family="sans-serif" font-size="20" lengthAdjust="spacing" textLength="243" x="310" y="694.627">TI-Messenger Client App</text><line style="stroke:#000000;stroke-width:1.0;" x1="259" x2="604" y1="704.3438" y2="704.3438"/><text fill="#000000" font-family="sans-serif" font-size="20" lengthAdjust="spacing" textLength="331" x="266" y="727.9082">Inhaber PushAnbieter-App Token</text><rect fill="#EFEFFF" height="37.2813" rx="2.5" ry="2.5" style="stroke:#000000;stroke-width:0.5;" width="214" x="672.5" y="50"/><text fill="#000000" font-family="sans-serif" font-size="20" lengthAdjust="spacing" textLength="141" x="709" y="75.5645">Push-Anbieter</text><rect fill="#EFEFFF" height="37.2813" rx="2.5" ry="2.5" style="stroke:#000000;stroke-width:0.5;" width="214" x="672.5" y="669.0625"/><text fill="#000000" font-family="sans-serif" font-size="20" lengthAdjust="spacing" textLength="141" x="709" y="694.627">Push-Anbieter</text><rect fill="#EFEFFF" height="37.2813" rx="2.5" ry="2.5" style="stroke:#000000;stroke-width:0.5;" width="214" x="1075.5" y="50"/><text fill="#000000" font-family="sans-serif" font-size="20" lengthAdjust="spacing" textLength="143" x="1111" y="75.5645">Push-Gateway</text><rect fill="#EFEFFF" height="37.2813" rx="2.5" ry="2.5" style="stroke:#000000;stroke-width:0.5;" width="214" x="1075.5" y="669.0625"/><text fill="#000000" font-family="sans-serif" font-size="20" lengthAdjust="spacing" textLength="143" x="1111" y="694.627">Push-Gateway</text><rect fill="#EFEFFF" height="37.2813" rx="2.5" ry="2.5" style="stroke:#000000;stroke-width:0.5;" width="214" x="1404.5" y="50"/><text fill="#000000" font-family="sans-serif" font-size="20" lengthAdjust="spacing" textLength="110" x="1456.5" y="75.5645">Fachdienst</text><rect fill="#EFEFFF" height="37.2813" rx="2.5" ry="2.5" style="stroke:#000000;stroke-width:0.5;" width="214" x="1404.5" y="669.0625"/><text fill="#000000" font-family="sans-serif" font-size="20" lengthAdjust="spacing" textLength="110" x="1456.5" y="694.627">Fachdienst</text><rect fill="#DCDCDC" height="322.6797" style="stroke:#000000;stroke-width:1.0;" width="10" x="426.5" y="338.3828"/><rect fill="#DCDCDC" height="140.9453" style="stroke:#000000;stroke-width:1.0;" width="10" x="774.5" y="197.4375"/><rect fill="#DCDCDC" height="121.1563" style="stroke:#000000;stroke-width:1.0;" width="10" x="1177.5" y="143.8594"/><rect fill="#DCDCDC" height="347.2578" style="stroke:#000000;stroke-width:1.0;" width="10" x="1506.5" y="98.2813"/><polygon fill="#000000" points="1198.5,139.8594,1188.5,143.8594,1198.5,147.8594,1194.5,143.8594" style="stroke:#000000;stroke-width:1.0;"/><line style="stroke:#000000;stroke-width:1.0;" x1="1192.5" x2="1505.5" y1="143.8594" y2="143.8594"/><text fill="#000000" font-family="sans-serif" font-size="17" font-weight="bold" lengthAdjust="spacing" textLength="12" x="1199.5" y="127.9556">1</text><text fill="#000000" font-family="sans-serif" font-size="17" lengthAdjust="spacing" textLength="218" x="1215.5" y="118.061">Benachrichtigung(App_ID,</text><text fill="#000000" font-family="sans-serif" font-size="17" lengthAdjust="spacing" textLength="204" x="1215.5" y="137.8501">PushAnbieter-AppToken,</text><text fill="#000000" font-family="sans-serif" font-size="17" lengthAdjust="spacing" textLength="5" x="1419.5" y="137.8501">&#160;</text><text fill="#000000" font-family="sans-serif" font-size="17" lengthAdjust="spacing" textLength="75" x="1424.5" y="137.8501">EventID)</text><polygon fill="#000000" points="795.5,193.4375,785.5,197.4375,795.5,201.4375,791.5,197.4375" style="stroke:#000000;stroke-width:1.0;"/><line style="stroke:#000000;stroke-width:1.0;" x1="789.5" x2="1176.5" y1="197.4375" y2="197.4375"/><text fill="#000000" font-family="sans-serif" font-size="17" font-weight="bold" lengthAdjust="spacing" textLength="12" x="796.5" y="181.5337">2</text><text fill="#000000" font-family="sans-serif" font-size="17" lengthAdjust="spacing" textLength="358" x="812.5" y="171.6392">Benachrichtigung(PushAnbieter-AppToken,</text><text fill="#000000" font-family="sans-serif" font-size="17" lengthAdjust="spacing" textLength="75" x="812.5" y="191.4282">EventID)</text><polygon fill="#000000" points="1165.5,227.2266,1175.5,231.2266,1165.5,235.2266,1169.5,231.2266" style="stroke:#000000;stroke-width:1.0;"/><line style="stroke:#000000;stroke-width:1.0;stroke-dasharray:2.0,2.0;" x1="784.5" x2="1171.5" y1="231.2266" y2="231.2266"/><text fill="#000000" font-family="sans-serif" font-size="17" font-weight="bold" lengthAdjust="spacing" textLength="12" x="791.5" y="225.2173">3</text><text fill="#000000" font-family="sans-serif" font-size="17" lengthAdjust="spacing" textLength="79" x="807.5" y="225.2173">Response</text><polygon fill="#000000" points="1494.5,261.0156,1504.5,265.0156,1494.5,269.0156,1498.5,265.0156" style="stroke:#000000;stroke-width:1.0;"/><line style="stroke:#000000;stroke-width:1.0;stroke-dasharray:2.0,2.0;" x1="1182.5" x2="1500.5" y1="265.0156" y2="265.0156"/><text fill="#000000" font-family="sans-serif" font-size="17" font-weight="bold" lengthAdjust="spacing" textLength="12" x="1189.5" y="259.0063">4</text><text fill="#000000" font-family="sans-serif" font-size="17" lengthAdjust="spacing" textLength="79" x="1205.5" y="259.0063">Response</text><polygon fill="#000000" points="447.5,334.3828,437.5,338.3828,447.5,342.3828,443.5,338.3828" style="stroke:#000000;stroke-width:1.0;"/><line style="stroke:#000000;stroke-width:1.0;" x1="441.5" x2="778.5" y1="338.3828" y2="338.3828"/><text fill="#000000" font-family="sans-serif" font-size="17" font-weight="bold" lengthAdjust="spacing" textLength="12" x="453.5" y="312.5845">5</text><text fill="#000000" font-family="sans-serif" font-size="17" lengthAdjust="spacing" textLength="147" x="469.5" y="292.7954">Benachrichtigung</text><text fill="#000000" font-family="sans-serif" font-size="17" lengthAdjust="spacing" textLength="5" x="616.5" y="292.7954">&#160;</text><text fill="#000000" font-family="sans-serif" font-size="17" lengthAdjust="spacing" textLength="21" x="621.5" y="292.7954">an</text><text fill="#000000" font-family="sans-serif" font-size="17" lengthAdjust="spacing" textLength="303" x="469.5" y="312.5845">Empf&#228;nger(PushAnbieter-AppToken,</text><text fill="#000000" font-family="sans-serif" font-size="17" lengthAdjust="spacing" textLength="75" x="469.5" y="332.3735">EventID)</text><polygon fill="#000000" points="1494.5,387.9609,1504.5,391.9609,1494.5,395.9609,1498.5,391.9609" style="stroke:#000000;stroke-width:1.0;"/><line style="stroke:#000000;stroke-width:1.0;" x1="436.5" x2="1500.5" y1="391.9609" y2="391.9609"/><text fill="#000000" font-family="sans-serif" font-size="17" font-weight="bold" lengthAdjust="spacing" textLength="12" x="443.5" y="376.0571">6</text><text fill="#000000" font-family="sans-serif" font-size="17" lengthAdjust="spacing" textLength="64" x="459.5" y="366.1626">Abfrage</text><text fill="#000000" font-family="sans-serif" font-size="17" lengthAdjust="spacing" textLength="5" x="523.5" y="366.1626">&#160;</text><text fill="#000000" font-family="sans-serif" font-size="17" lengthAdjust="spacing" textLength="27" x="528.5" y="366.1626">der</text><text fill="#000000" font-family="sans-serif" font-size="17" lengthAdjust="spacing" textLength="5" x="555.5" y="366.1626">&#160;</text><text fill="#000000" font-family="sans-serif" font-size="17" lengthAdjust="spacing" textLength="51" x="560.5" y="366.1626">Daten</text><text fill="#000000" font-family="sans-serif" font-size="17" lengthAdjust="spacing" textLength="5" x="611.5" y="366.1626">&#160;</text><text fill="#000000" font-family="sans-serif" font-size="17" lengthAdjust="spacing" textLength="19" x="616.5" y="366.1626">zu</text><text fill="#000000" font-family="sans-serif" font-size="17" lengthAdjust="spacing" textLength="131" x="459.5" y="385.9517">Event(EventID)</text><polygon fill="#000000" points="447.5,441.5391,437.5,445.5391,447.5,449.5391,443.5,445.5391" style="stroke:#000000;stroke-width:1.0;"/><line style="stroke:#000000;stroke-width:1.0;stroke-dasharray:2.0,2.0;" x1="441.5" x2="1510.5" y1="445.5391" y2="445.5391"/><text fill="#000000" font-family="sans-serif" font-size="17" font-weight="bold" lengthAdjust="spacing" textLength="12" x="1274.5" y="429.6353">7</text><text fill="#000000" font-family="sans-serif" font-size="17" lengthAdjust="spacing" textLength="119" x="1290.5" y="419.7407">Verschl&#252;sselte</text><text fill="#000000" font-family="sans-serif" font-size="17" lengthAdjust="spacing" textLength="214" x="1290.5" y="439.5298">Benachrichtigungsinhalte</text><line style="stroke:#000000;stroke-width:1.0;" x1="436.5" x2="478.5" y1="518.9063" y2="518.9063"/><line style="stroke:#000000;stroke-width:1.0;" x1="478.5" x2="478.5" y1="518.9063" y2="531.9063"/><line style="stroke:#000000;stroke-width:1.0;" x1="437.5" x2="478.5" y1="531.9063" y2="531.9063"/><polygon fill="#000000" points="447.5,527.9063,437.5,531.9063,447.5,535.9063,443.5,531.9063" style="stroke:#000000;stroke-width:1.0;"/><text fill="#000000" font-family="sans-serif" font-size="17" font-weight="bold" lengthAdjust="spacing" textLength="12" x="443.5" y="493.1079">8</text><text fill="#000000" font-family="sans-serif" font-size="17" lengthAdjust="spacing" textLength="113" x="459.5" y="473.3188">Entschl&#252;ssele</text><text fill="#000000" font-family="sans-serif" font-size="17" lengthAdjust="spacing" textLength="126" x="459.5" y="493.1079">(Verschl&#252;sselte</text><text fill="#000000" font-family="sans-serif" font-size="17" lengthAdjust="spacing" textLength="221" x="459.5" y="512.897">Benachrichtigungsinhalte)</text><line style="stroke:#000000;stroke-width:1.0;" x1="436.5" x2="478.5" y1="605.2734" y2="605.2734"/><line style="stroke:#000000;stroke-width:1.0;" x1="478.5" x2="478.5" y1="605.2734" y2="618.2734"/><line style="stroke:#000000;stroke-width:1.0;" x1="437.5" x2="478.5" y1="618.2734" y2="618.2734"/><polygon fill="#000000" points="447.5,614.2734,437.5,618.2734,447.5,622.2734,443.5,618.2734" style="stroke:#000000;stroke-width:1.0;"/><text fill="#000000" font-family="sans-serif" font-size="17" font-weight="bold" lengthAdjust="spacing" textLength="12" x="443.5" y="579.4751">9</text><text fill="#000000" font-family="sans-serif" font-size="17" lengthAdjust="spacing" textLength="66" x="459.5" y="559.686">erzeuge</text><text fill="#000000" font-family="sans-serif" font-size="17" lengthAdjust="spacing" textLength="230" x="459.5" y="579.4751">Anwenderbenachrichtigung</text><text fill="#000000" font-family="sans-serif" font-size="17" lengthAdjust="spacing" textLength="5" x="689.5" y="579.4751">&#160;</text><text fill="#000000" font-family="sans-serif" font-size="17" lengthAdjust="spacing" textLength="29" x="694.5" y="579.4751">mit</text><text fill="#000000" font-family="sans-serif" font-size="17" lengthAdjust="spacing" textLength="5" x="459.5" y="599.2642">&#160;</text><text fill="#000000" font-family="sans-serif" font-size="17" lengthAdjust="spacing" textLength="31" x="464.5" y="599.2642">den</text><text fill="#000000" font-family="sans-serif" font-size="17" lengthAdjust="spacing" textLength="5" x="495.5" y="599.2642">&#160;</text><text fill="#000000" font-family="sans-serif" font-size="17" lengthAdjust="spacing" textLength="130" x="500.5" y="599.2642">entschl&#252;sselten</text><text fill="#000000" font-family="sans-serif" font-size="17" lengthAdjust="spacing" textLength="5" x="630.5" y="599.2642">&#160;</text><text fill="#000000" font-family="sans-serif" font-size="17" lengthAdjust="spacing" textLength="71" x="635.5" y="599.2642">Inhalten</text><polygon fill="#000000" points="138,648.0625,128,652.0625,138,656.0625,134,652.0625" style="stroke:#000000;stroke-width:1.0;"/><line style="stroke:#000000;stroke-width:1.0;" x1="132" x2="425.5" y1="652.0625" y2="652.0625"/><text fill="#000000" font-family="sans-serif" font-size="17" font-weight="bold" lengthAdjust="spacing" textLength="24" x="192.5" y="646.0532">10</text><text fill="#000000" font-family="sans-serif" font-size="17" lengthAdjust="spacing" textLength="47" x="220.5" y="646.0532">Zeige</text><text fill="#000000" font-family="sans-serif" font-size="17" lengthAdjust="spacing" textLength="5" x="267.5" y="646.0532">&#160;</text><text fill="#000000" font-family="sans-serif" font-size="17" lengthAdjust="spacing" textLength="147" x="272.5" y="646.0532">Benachrichtigung</text></g></svg>