<?xml version="1.0" encoding="us-ascii" standalone="no"?><svg xmlns="http://www.w3.org/2000/svg" xmlns:xlink="http://www.w3.org/1999/xlink" contentStyleType="text/css" height="1177px" preserveAspectRatio="none" style="width:1546px;height:1177px;background:#FFFFFF;" version="1.1" viewBox="0 0 1546 1177" width="1546px" zoomAndPan="magnify"><defs/><g><rect fill="#F5F5F5" height="1165.9297" style="stroke:#181818;stroke-width:0.5;" width="537" x="393" y="6"/><text fill="#000000" font-family="sans-serif" font-size="18" font-weight="bold" lengthAdjust="spacing" textLength="193" x="562.5" y="22.708">Messenger-Service</text><text fill="#000000" font-family="sans-serif" font-size="13" font-weight="bold" lengthAdjust="spacing" textLength="5" x="755.5" y="23.8872">&#160;</text><rect fill="#F0F8FF" height="215.7344" style="stroke:#000000;stroke-width:1.0;" width="10" x="274" y="306.9844"/><rect fill="#DCDCDC" height="148.1563" style="stroke:#000000;stroke-width:1.0;" width="10" x="499" y="340.7734"/><rect fill="#DCDCDC" height="101.3672" style="stroke:#000000;stroke-width:1.0;" width="10" x="499" y="792.6328"/><rect fill="#DCDCDC" height="327.2813" style="stroke:#000000;stroke-width:1.0;" width="10" x="768.5" y="374.5625"/><rect fill="#DCDCDC" height="33.7891" style="stroke:#000000;stroke-width:1.0;" width="10" x="768.5" y="826.4219"/><rect fill="#DCDCDC" height="67.5781" style="stroke:#000000;stroke-width:1.0;" width="10" x="1039" y="634.2656"/><rect fill="#C9FFC9" height="226.7344" style="stroke:#000000;stroke-width:1.0;" width="10" x="1263" y="792.6328"/><rect fill="#F0F8FF" height="172.125" style="stroke:#000000;stroke-width:1.5;" width="774" x="611" y="562.7188"/><line style="stroke:#000000;stroke-width:0.5;stroke-dasharray:5.0,5.0;" x1="83" x2="83" y1="111.5625" y2="1062.3672"/><line style="stroke:#000000;stroke-width:0.5;stroke-dasharray:5.0,5.0;" x1="279" x2="279" y1="111.5625" y2="1062.3672"/><line style="stroke:#000000;stroke-width:0.5;stroke-dasharray:5.0,5.0;" x1="504" x2="504" y1="111.5625" y2="1062.3672"/><line style="stroke:#000000;stroke-width:0.5;stroke-dasharray:5.0,5.0;" x1="773" x2="773" y1="111.5625" y2="1062.3672"/><line style="stroke:#000000;stroke-width:0.5;stroke-dasharray:5.0,5.0;" x1="1044" x2="1044" y1="111.5625" y2="1062.3672"/><line style="stroke:#000000;stroke-width:0.5;stroke-dasharray:5.0,5.0;" x1="1268" x2="1268" y1="111.5625" y2="1062.3672"/><line style="stroke:#000000;stroke-width:0.5;stroke-dasharray:5.0,5.0;" x1="1463" x2="1463" y1="111.5625" y2="1062.3672"/><text fill="#000000" font-family="sans-serif" font-size="20" lengthAdjust="spacing" textLength="151" x="5" y="83.5645">Akteur A in der</text><text fill="#000000" font-family="sans-serif" font-size="20" lengthAdjust="spacing" textLength="101" x="30" y="106.8457">Rolle User</text><ellipse cx="83.5" cy="13.5" fill="#DCDCDC" rx="8" ry="8" style="stroke:#000000;stroke-width:0.5;"/><path d="M83.5,21.5 L83.5,48.5 M70.5,29.5 L96.5,29.5 M83.5,48.5 L70.5,63.5 M83.5,48.5 L96.5,63.5 " fill="none" style="stroke:#000000;stroke-width:0.5;"/><text fill="#000000" font-family="sans-serif" font-size="20" lengthAdjust="spacing" textLength="151" x="5" y="1079.9316">Akteur A in der</text><text fill="#000000" font-family="sans-serif" font-size="20" lengthAdjust="spacing" textLength="101" x="30" y="1103.2129">Rolle User</text><ellipse cx="83.5" cy="1116.4297" fill="#DCDCDC" rx="8" ry="8" style="stroke:#000000;stroke-width:0.5;"/><path d="M83.5,1124.4297 L83.5,1151.4297 M70.5,1132.4297 L96.5,1132.4297 M83.5,1151.4297 L70.5,1166.4297 M83.5,1151.4297 L96.5,1166.4297 " fill="none" style="stroke:#000000;stroke-width:0.5;"/><rect fill="#F0F8FF" height="60.5625" rx="2.5" ry="2.5" style="stroke:#000000;stroke-width:0.5;" width="214" x="172" y="50"/><text fill="#000000" font-family="sans-serif" font-size="20" lengthAdjust="spacing" textLength="139" x="209.5" y="75.5645">TI-Messenger-</text><text fill="#000000" font-family="sans-serif" font-size="20" lengthAdjust="spacing" textLength="79" x="239.5" y="98.8457">Client A</text><rect fill="#F0F8FF" height="60.5625" rx="2.5" ry="2.5" style="stroke:#000000;stroke-width:0.5;" width="214" x="172" y="1061.3672"/><text fill="#000000" font-family="sans-serif" font-size="20" lengthAdjust="spacing" textLength="139" x="209.5" y="1086.9316">TI-Messenger-</text><text fill="#000000" font-family="sans-serif" font-size="20" lengthAdjust="spacing" textLength="79" x="239.5" y="1110.2129">Client A</text><rect fill="#EFEFFF" height="60.5625" rx="2.5" ry="2.5" style="stroke:#000000;stroke-width:0.5;" width="214" x="397" y="50"/><text fill="#000000" font-family="sans-serif" font-size="20" lengthAdjust="spacing" textLength="114" x="447" y="75.5645">Messenger-</text><text fill="#000000" font-family="sans-serif" font-size="20" lengthAdjust="spacing" textLength="54" x="477" y="98.8457">Proxy</text><rect fill="#EFEFFF" height="60.5625" rx="2.5" ry="2.5" style="stroke:#000000;stroke-width:0.5;" width="214" x="397" y="1061.3672"/><text fill="#000000" font-family="sans-serif" font-size="20" lengthAdjust="spacing" textLength="114" x="447" y="1086.9316">Messenger-</text><text fill="#000000" font-family="sans-serif" font-size="20" lengthAdjust="spacing" textLength="54" x="477" y="1110.2129">Proxy</text><rect fill="#EFEFFF" height="60.5625" rx="2.5" ry="2.5" style="stroke:#000000;stroke-width:0.5;" width="305" x="621" y="50"/><text fill="#000000" font-family="sans-serif" font-size="20" lengthAdjust="spacing" textLength="189" x="676" y="75.5645">Matrix-Homeserver</text><text fill="#000000" font-family="sans-serif" font-size="20" lengthAdjust="spacing" textLength="291" x="628" y="98.8457">(inklusive Nutzerverzeichnis)</text><rect fill="#EFEFFF" height="60.5625" rx="2.5" ry="2.5" style="stroke:#000000;stroke-width:0.5;" width="305" x="621" y="1061.3672"/><text fill="#000000" font-family="sans-serif" font-size="20" lengthAdjust="spacing" textLength="189" x="676" y="1086.9316">Matrix-Homeserver</text><text fill="#000000" font-family="sans-serif" font-size="20" lengthAdjust="spacing" textLength="291" x="628" y="1110.2129">(inklusive Nutzerverzeichnis)</text><rect fill="#EFEFFF" height="60.5625" rx="2.5" ry="2.5" style="stroke:#000000;stroke-width:0.5;" width="214" x="937" y="50"/><text fill="#000000" font-family="sans-serif" font-size="20" lengthAdjust="spacing" textLength="55" x="1016.5" y="75.5645">Push-</text><text fill="#000000" font-family="sans-serif" font-size="20" lengthAdjust="spacing" textLength="88" x="1000" y="98.8457">Gateway</text><rect fill="#EFEFFF" height="60.5625" rx="2.5" ry="2.5" style="stroke:#000000;stroke-width:0.5;" width="214" x="937" y="1061.3672"/><text fill="#000000" font-family="sans-serif" font-size="20" lengthAdjust="spacing" textLength="55" x="1016.5" y="1086.9316">Push-</text><text fill="#000000" font-family="sans-serif" font-size="20" lengthAdjust="spacing" textLength="88" x="1000" y="1110.2129">Gateway</text><rect fill="#C9FFC9" height="60.5625" rx="2.5" ry="2.5" style="stroke:#000000;stroke-width:0.5;" width="214" x="1161" y="50"/><text fill="#000000" font-family="sans-serif" font-size="20" lengthAdjust="spacing" textLength="139" x="1198.5" y="75.5645">TI-Messenger-</text><text fill="#000000" font-family="sans-serif" font-size="20" lengthAdjust="spacing" textLength="79" x="1228.5" y="98.8457">Client B</text><rect fill="#C9FFC9" height="60.5625" rx="2.5" ry="2.5" style="stroke:#000000;stroke-width:0.5;" width="214" x="1161" y="1061.3672"/><text fill="#000000" font-family="sans-serif" font-size="20" lengthAdjust="spacing" textLength="139" x="1198.5" y="1086.9316">TI-Messenger-</text><text fill="#000000" font-family="sans-serif" font-size="20" lengthAdjust="spacing" textLength="79" x="1228.5" y="1110.2129">Client B</text><text fill="#000000" font-family="sans-serif" font-size="20" lengthAdjust="spacing" textLength="151" x="1385" y="83.5645">Akteur B in der</text><text fill="#000000" font-family="sans-serif" font-size="20" lengthAdjust="spacing" textLength="101" x="1410" y="106.8457">Rolle User</text><ellipse cx="1463.5" cy="13.5" fill="#DCDCDC" rx="8" ry="8" style="stroke:#000000;stroke-width:0.5;"/><path d="M1463.5,21.5 L1463.5,48.5 M1450.5,29.5 L1476.5,29.5 M1463.5,48.5 L1450.5,63.5 M1463.5,48.5 L1476.5,63.5 " fill="none" style="stroke:#000000;stroke-width:0.5;"/><text fill="#000000" font-family="sans-serif" font-size="20" lengthAdjust="spacing" textLength="151" x="1385" y="1079.9316">Akteur B in der</text><text fill="#000000" font-family="sans-serif" font-size="20" lengthAdjust="spacing" textLength="101" x="1410" y="1103.2129">Rolle User</text><ellipse cx="1463.5" cy="1116.4297" fill="#DCDCDC" rx="8" ry="8" style="stroke:#000000;stroke-width:0.5;"/><path d="M1463.5,1124.4297 L1463.5,1151.4297 M1450.5,1132.4297 L1476.5,1132.4297 M1463.5,1151.4297 L1450.5,1166.4297 M1463.5,1151.4297 L1476.5,1166.4297 " fill="none" style="stroke:#000000;stroke-width:0.5;"/><rect fill="#F0F8FF" height="215.7344" style="stroke:#000000;stroke-width:1.0;" width="10" x="274" y="306.9844"/><rect fill="#DCDCDC" height="148.1563" style="stroke:#000000;stroke-width:1.0;" width="10" x="499" y="340.7734"/><rect fill="#DCDCDC" height="101.3672" style="stroke:#000000;stroke-width:1.0;" width="10" x="499" y="792.6328"/><rect fill="#DCDCDC" height="327.2813" style="stroke:#000000;stroke-width:1.0;" width="10" x="768.5" y="374.5625"/><rect fill="#DCDCDC" height="33.7891" style="stroke:#000000;stroke-width:1.0;" width="10" x="768.5" y="826.4219"/><rect fill="#DCDCDC" height="67.5781" style="stroke:#000000;stroke-width:1.0;" width="10" x="1039" y="634.2656"/><rect fill="#C9FFC9" height="226.7344" style="stroke:#000000;stroke-width:1.0;" width="10" x="1263" y="792.6328"/><path d="M7,151.5625 L7,230.5625 L1539,230.5625 L1539,161.5625 L1529,151.5625 L7,151.5625 " fill="#FEFFDD" style="stroke:#181818;stroke-width:0.5;"/><path d="M1529,151.5625 L1529,161.5625 L1539,161.5625 L1529,151.5625 " fill="#FEFFDD" style="stroke:#181818;stroke-width:0.5;"/><text fill="#000000" font-family="sans-serif" font-size="13" lengthAdjust="spacing" textLength="4" x="265" y="168.6294">&#160;</text><text fill="#000000" font-family="sans-serif" font-size="17" lengthAdjust="spacing" textLength="1007" x="265" y="187.4751">Die Akteure sind auf dem selben Messenger-Service angemeldet und im Besitz eines zugelassenen TI-Messenger-Clients.</text><text fill="#000000" font-family="sans-serif" font-size="17" lengthAdjust="spacing" textLength="580" x="265" y="207.2642">Ebenfalls sind beide Akteure einem gemeinsamen Raum beigetreten.</text><text fill="#000000" font-family="sans-serif" font-size="13" lengthAdjust="spacing" textLength="4" x="265" y="223.3403">&#160;</text><polygon fill="#000000" points="262,302.9844,272,306.9844,262,310.9844,266,306.9844" style="stroke:#000000;stroke-width:1.0;"/><line style="stroke:#000000;stroke-width:1.0;" x1="83.5" x2="268" y1="306.9844" y2="306.9844"/><text fill="#000000" font-family="sans-serif" font-size="17" font-weight="bold" lengthAdjust="spacing" textLength="12" x="90.5" y="291.0806">1</text><text fill="#000000" font-family="sans-serif" font-size="17" lengthAdjust="spacing" textLength="107" x="106.5" y="281.186">Akteur A l&#246;st</text><text fill="#000000" font-family="sans-serif" font-size="17" lengthAdjust="spacing" textLength="143" x="106.5" y="300.9751">Matrix-Event aus</text><polygon fill="#000000" points="487,336.7734,497,340.7734,487,344.7734,491,340.7734" style="stroke:#000000;stroke-width:1.0;"/><line style="stroke:#000000;stroke-width:1.0;" x1="284" x2="493" y1="340.7734" y2="340.7734"/><text fill="#000000" font-family="sans-serif" font-size="17" font-weight="bold" lengthAdjust="spacing" textLength="12" x="291" y="334.7642">2</text><text fill="#000000" font-family="sans-serif" font-size="17" lengthAdjust="spacing" textLength="128" x="307" y="334.7642">Matrix-Request</text><polygon fill="#000000" points="756.5,370.5625,766.5,374.5625,756.5,378.5625,760.5,374.5625" style="stroke:#000000;stroke-width:1.0;"/><line style="stroke:#000000;stroke-width:1.0;" x1="509" x2="762.5" y1="374.5625" y2="374.5625"/><text fill="#000000" font-family="sans-serif" font-size="17" font-weight="bold" lengthAdjust="spacing" textLength="12" x="516" y="368.5532">3</text><text fill="#000000" font-family="sans-serif" font-size="17" lengthAdjust="spacing" textLength="142" x="532" y="368.5532">HTTP(S) Forward</text><line style="stroke:#000000;stroke-width:1.0;" x1="778.5" x2="820.5" y1="408.3516" y2="408.3516"/><line style="stroke:#000000;stroke-width:1.0;" x1="820.5" x2="820.5" y1="408.3516" y2="421.3516"/><line style="stroke:#000000;stroke-width:1.0;" x1="779.5" x2="820.5" y1="421.3516" y2="421.3516"/><polygon fill="#000000" points="789.5,417.3516,779.5,421.3516,789.5,425.3516,785.5,421.3516" style="stroke:#000000;stroke-width:1.0;"/><text fill="#000000" font-family="sans-serif" font-size="17" font-weight="bold" lengthAdjust="spacing" textLength="12" x="785.5" y="402.3423">4</text><text fill="#000000" font-family="sans-serif" font-size="17" lengthAdjust="spacing" textLength="151" x="801.5" y="402.3423">Event verarbeiten</text><polygon fill="#000000" points="520,451.1406,510,455.1406,520,459.1406,516,455.1406" style="stroke:#000000;stroke-width:1.0;"/><line style="stroke:#000000;stroke-width:1.0;stroke-dasharray:2.0,2.0;" x1="514" x2="767.5" y1="455.1406" y2="455.1406"/><text fill="#000000" font-family="sans-serif" font-size="17" font-weight="bold" lengthAdjust="spacing" textLength="12" x="558.5" y="449.1313">5</text><text fill="#000000" font-family="sans-serif" font-size="17" lengthAdjust="spacing" textLength="187" x="574.5" y="449.1313">Matrix-Request Status</text><polygon fill="#000000" points="295,484.9297,285,488.9297,295,492.9297,291,488.9297" style="stroke:#000000;stroke-width:1.0;"/><line style="stroke:#000000;stroke-width:1.0;stroke-dasharray:2.0,2.0;" x1="289" x2="503" y1="488.9297" y2="488.9297"/><text fill="#000000" font-family="sans-serif" font-size="17" font-weight="bold" lengthAdjust="spacing" textLength="12" x="339" y="482.9204">6</text><text fill="#000000" font-family="sans-serif" font-size="17" lengthAdjust="spacing" textLength="142" x="355" y="482.9204">HTTP(S) Forward</text><polygon fill="#000000" points="94.5,518.7188,84.5,522.7188,94.5,526.7188,90.5,522.7188" style="stroke:#000000;stroke-width:1.0;"/><line style="stroke:#000000;stroke-width:1.0;stroke-dasharray:2.0,2.0;" x1="88.5" x2="278" y1="522.7188" y2="522.7188"/><text fill="#000000" font-family="sans-serif" font-size="17" font-weight="bold" lengthAdjust="spacing" textLength="12" x="202" y="516.7095">7</text><text fill="#000000" font-family="sans-serif" font-size="17" lengthAdjust="spacing" textLength="54" x="218" y="516.7095">Status</text><path d="M611,562.7188 L681,562.7188 L681,569.8516 L671,579.8516 L611,579.8516 L611,562.7188 " fill="#D3D3D3" style="stroke:#000000;stroke-width:1.5;"/><rect fill="none" height="172.125" style="stroke:#000000;stroke-width:1.5;" width="774" x="611" y="562.7188"/><text fill="#000000" font-family="sans-serif" font-size="13" font-weight="bold" lengthAdjust="spacing" textLength="25" x="626" y="575.7856">opt</text><text fill="#000000" font-family="sans-serif" font-size="11" font-weight="bold" lengthAdjust="spacing" textLength="5" x="696" y="580.7495">[</text><text fill="#000000" font-family="sans-serif" font-size="16" font-weight="bold" lengthAdjust="spacing" textLength="205" x="701" y="579.5703">Push-Benachrichtigung</text><text fill="#000000" font-family="sans-serif" font-size="11" font-weight="bold" lengthAdjust="spacing" textLength="5" x="906" y="580.7495">]</text><polygon fill="#000000" points="1027,630.2656,1037,634.2656,1027,638.2656,1031,634.2656" style="stroke:#000000;stroke-width:1.0;"/><line style="stroke:#000000;stroke-width:1.0;" x1="778.5" x2="1033" y1="634.2656" y2="634.2656"/><text fill="#000000" font-family="sans-serif" font-size="17" font-weight="bold" lengthAdjust="spacing" textLength="12" x="785.5" y="628.2563">8</text><text fill="#000000" font-family="sans-serif" font-size="17" lengthAdjust="spacing" textLength="221" x="801.5" y="628.2563">POST /_matrix/push/notify</text><polygon fill="#000000" points="1256,664.0547,1266,668.0547,1256,672.0547,1260,668.0547" style="stroke:#000000;stroke-width:1.0;"/><line style="stroke:#000000;stroke-width:1.0;" x1="1049" x2="1262" y1="668.0547" y2="668.0547"/><text fill="#000000" font-family="sans-serif" font-size="17" font-weight="bold" lengthAdjust="spacing" textLength="12" x="1056" y="662.0454">9</text><text fill="#000000" font-family="sans-serif" font-size="17" lengthAdjust="spacing" textLength="97" x="1072" y="662.0454">Notification</text><polygon fill="#000000" points="784.5,697.8438,774.5,701.8438,784.5,705.8438,780.5,701.8438" style="stroke:#000000;stroke-width:1.0;"/><line style="stroke:#000000;stroke-width:1.0;stroke-dasharray:2.0,2.0;" x1="778.5" x2="1043" y1="701.8438" y2="701.8438"/><text fill="#000000" font-family="sans-serif" font-size="17" font-weight="bold" lengthAdjust="spacing" textLength="24" x="955" y="695.8345">10</text><text fill="#000000" font-family="sans-serif" font-size="17" lengthAdjust="spacing" textLength="54" x="983" y="695.8345">Status</text><polygon fill="#000000" points="520,788.6328,510,792.6328,520,796.6328,516,792.6328" style="stroke:#000000;stroke-width:1.0;"/><line style="stroke:#000000;stroke-width:1.0;" x1="514" x2="1262" y1="792.6328" y2="792.6328"/><text fill="#000000" font-family="sans-serif" font-size="17" font-weight="bold" lengthAdjust="spacing" textLength="24" x="996" y="786.6235">11</text><text fill="#000000" font-family="sans-serif" font-size="17" lengthAdjust="spacing" textLength="232" x="1024" y="786.6235">GET /_matrix/client/v3/sync</text><polygon fill="#000000" points="756.5,822.4219,766.5,826.4219,756.5,830.4219,760.5,826.4219" style="stroke:#000000;stroke-width:1.0;"/><line style="stroke:#000000;stroke-width:1.0;" x1="509" x2="762.5" y1="826.4219" y2="826.4219"/><text fill="#000000" font-family="sans-serif" font-size="17" font-weight="bold" lengthAdjust="spacing" textLength="24" x="516" y="820.4126">12</text><text fill="#000000" font-family="sans-serif" font-size="17" lengthAdjust="spacing" textLength="142" x="544" y="820.4126">HTTP(S) Forward</text><polygon fill="#000000" points="520,856.2109,510,860.2109,520,864.2109,516,860.2109" style="stroke:#000000;stroke-width:1.0;"/><line style="stroke:#000000;stroke-width:1.0;stroke-dasharray:2.0,2.0;" x1="514" x2="772.5" y1="860.2109" y2="860.2109"/><text fill="#000000" font-family="sans-serif" font-size="17" font-weight="bold" lengthAdjust="spacing" textLength="24" x="684.5" y="854.2017">13</text><text fill="#000000" font-family="sans-serif" font-size="17" lengthAdjust="spacing" textLength="54" x="712.5" y="854.2017">Status</text><polygon fill="#000000" points="1251,890,1261,894,1251,898,1255,894" style="stroke:#000000;stroke-width:1.0;"/><line style="stroke:#000000;stroke-width:1.0;stroke-dasharray:2.0,2.0;" x1="504" x2="1257" y1="894" y2="894"/><text fill="#000000" font-family="sans-serif" font-size="17" font-weight="bold" lengthAdjust="spacing" textLength="24" x="511" y="887.9907">14</text><text fill="#000000" font-family="sans-serif" font-size="17" lengthAdjust="spacing" textLength="142" x="539" y="887.9907">HTTP(S) Forward</text><line style="stroke:#000000;stroke-width:1.0;" x1="1273" x2="1315" y1="947.5781" y2="947.5781"/><line style="stroke:#000000;stroke-width:1.0;" x1="1315" x2="1315" y1="947.5781" y2="960.5781"/><line style="stroke:#000000;stroke-width:1.0;" x1="1274" x2="1315" y1="960.5781" y2="960.5781"/><polygon fill="#000000" points="1284,956.5781,1274,960.5781,1284,964.5781,1280,960.5781" style="stroke:#000000;stroke-width:1.0;"/><text fill="#000000" font-family="sans-serif" font-size="17" font-weight="bold" lengthAdjust="spacing" textLength="24" x="1280" y="931.6743">15</text><text fill="#000000" font-family="sans-serif" font-size="17" lengthAdjust="spacing" textLength="49" x="1308" y="921.7798">Event</text><text fill="#000000" font-family="sans-serif" font-size="17" lengthAdjust="spacing" textLength="97" x="1308" y="941.5688">verarbeiten</text><polygon fill="#000000" points="1451.5,1015.3672,1461.5,1019.3672,1451.5,1023.3672,1455.5,1019.3672" style="stroke:#000000;stroke-width:1.0;"/><line style="stroke:#000000;stroke-width:1.0;stroke-dasharray:2.0,2.0;" x1="1268" x2="1457.5" y1="1019.3672" y2="1019.3672"/><text fill="#000000" font-family="sans-serif" font-size="17" font-weight="bold" lengthAdjust="spacing" textLength="24" x="1275" y="1013.3579">16</text><text fill="#000000" font-family="sans-serif" font-size="17" lengthAdjust="spacing" textLength="54" x="1303" y="1013.3579">Status</text></g></svg>