<?xml version="1.0" encoding="us-ascii" standalone="no"?><svg xmlns="http://www.w3.org/2000/svg" xmlns:xlink="http://www.w3.org/1999/xlink" contentStyleType="text/css" height="1614px" preserveAspectRatio="none" style="width:1782px;height:1614px;background:#FFFFFF;" version="1.1" viewBox="0 0 1782 1614" width="1782px" zoomAndPan="magnify"><defs/><g><rect fill="#F5F5F5" height="1602.375" style="stroke:#181818;stroke-width:0.5;" width="775" x="984" y="6"/><text fill="#000000" font-family="sans-serif" font-size="18" font-weight="bold" lengthAdjust="spacing" textLength="200" x="1269" y="22.708">VZD-FHIR-Directory</text><text fill="#000000" font-family="sans-serif" font-size="13" font-weight="bold" lengthAdjust="spacing" textLength="5" x="1469" y="23.8872">&#160;</text><rect fill="#DCDCDC" height="1368.25" style="stroke:#000000;stroke-width:1.0;" width="10" x="358" y="121.5625"/><rect fill="#DCDCDC" height="175.5742" style="stroke:#000000;stroke-width:1.0;" width="10" x="1090" y="688.1289"/><rect fill="#DCDCDC" height="175.5742" style="stroke:#000000;stroke-width:1.0;" width="10" x="1090" y="1004.3242"/><rect fill="#DCDCDC" height="33.7891" style="stroke:#000000;stroke-width:1.0;" width="10" x="1090" y="1349.2344"/><rect fill="#DCDCDC" height="33.7891" style="stroke:#000000;stroke-width:1.0;" width="10" x="1643" y="796.125"/><rect fill="#DCDCDC" height="33.7891" style="stroke:#000000;stroke-width:1.0;" width="10" x="1643" y="1112.3203"/><rect fill="none" height="200.4219" style="stroke:#000000;stroke-width:1.5;" width="1755" x="10" y="346.9844"/><rect fill="none" height="920.4063" style="stroke:#000000;stroke-width:1.5;" width="1742" x="33" y="561.4063"/><rect fill="#F0F8FF" height="632.5234" style="stroke:#000000;stroke-width:1.5;" width="1722" x="43" y="614.1641"/><rect fill="#F0F8FF" height="316.1953" style="stroke:none;stroke-width:1.0;" width="1722" x="43" y="930.4922"/><rect fill="#FFE4E1" height="143.5" style="stroke:#000000;stroke-width:1.5;" width="1169" x="43" y="1306.3125"/><line style="stroke:#000000;stroke-width:0.5;stroke-dasharray:5.0,5.0;" x1="149" x2="149" y1="111.5625" y2="1498.8125"/><line style="stroke:#000000;stroke-width:0.5;stroke-dasharray:5.0,5.0;" x1="363" x2="363" y1="111.5625" y2="1498.8125"/><line style="stroke:#000000;stroke-width:0.5;stroke-dasharray:5.0,5.0;" x1="587" x2="587" y1="111.5625" y2="1498.8125"/><line style="stroke:#000000;stroke-width:0.5;stroke-dasharray:5.0,5.0;" x1="811" x2="811" y1="111.5625" y2="1498.8125"/><line style="stroke:#000000;stroke-width:0.5;stroke-dasharray:5.0,5.0;" x1="1095" x2="1095" y1="111.5625" y2="1498.8125"/><line style="stroke:#000000;stroke-width:0.5;stroke-dasharray:5.0,5.0;" x1="1344" x2="1344" y1="111.5625" y2="1498.8125"/><line style="stroke:#000000;stroke-width:0.5;stroke-dasharray:5.0,5.0;" x1="1648" x2="1648" y1="111.5625" y2="1498.8125"/><text fill="#000000" font-family="sans-serif" font-size="20" lengthAdjust="spacing" textLength="187" x="53" y="83.5645">Akteur in der Rolle</text><text fill="#000000" font-family="sans-serif" font-size="20" lengthAdjust="spacing" textLength="45" x="124" y="106.8457">User</text><ellipse cx="149.5" cy="13.5" fill="#DCDCDC" rx="8" ry="8" style="stroke:#000000;stroke-width:0.5;"/><path d="M149.5,21.5 L149.5,48.5 M136.5,29.5 L162.5,29.5 M149.5,48.5 L136.5,63.5 M149.5,48.5 L162.5,63.5 " fill="none" style="stroke:#000000;stroke-width:0.5;"/><text fill="#000000" font-family="sans-serif" font-size="20" lengthAdjust="spacing" textLength="187" x="53" y="1516.377">Akteur in der Rolle</text><text fill="#000000" font-family="sans-serif" font-size="20" lengthAdjust="spacing" textLength="45" x="124" y="1539.6582">User</text><ellipse cx="149.5" cy="1552.875" fill="#DCDCDC" rx="8" ry="8" style="stroke:#000000;stroke-width:0.5;"/><path d="M149.5,1560.875 L149.5,1587.875 M136.5,1568.875 L162.5,1568.875 M149.5,1587.875 L136.5,1602.875 M149.5,1587.875 L162.5,1602.875 " fill="none" style="stroke:#000000;stroke-width:0.5;"/><rect fill="#EFEFFF" height="37.2813" rx="2.5" ry="2.5" style="stroke:#000000;stroke-width:0.5;" width="214" x="256" y="73.2813"/><text fill="#000000" font-family="sans-serif" font-size="20" lengthAdjust="spacing" textLength="198" x="264" y="98.8457">TI-Messenger-Client</text><rect fill="#EFEFFF" height="37.2813" rx="2.5" ry="2.5" style="stroke:#000000;stroke-width:0.5;" width="214" x="256" y="1497.8125"/><text fill="#000000" font-family="sans-serif" font-size="20" lengthAdjust="spacing" textLength="198" x="264" y="1523.377">TI-Messenger-Client</text><rect fill="#EFEFFF" height="37.2813" rx="2.5" ry="2.5" style="stroke:#000000;stroke-width:0.5;" width="214" x="480" y="73.2813"/><text fill="#000000" font-family="sans-serif" font-size="20" lengthAdjust="spacing" textLength="167" x="503.5" y="98.8457">Messenger Proxy</text><rect fill="#EFEFFF" height="37.2813" rx="2.5" ry="2.5" style="stroke:#000000;stroke-width:0.5;" width="214" x="480" y="1497.8125"/><text fill="#000000" font-family="sans-serif" font-size="20" lengthAdjust="spacing" textLength="167" x="503.5" y="1523.377">Messenger Proxy</text><rect fill="#EFEFFF" height="37.2813" rx="2.5" ry="2.5" style="stroke:#000000;stroke-width:0.5;" width="214" x="704" y="73.2813"/><text fill="#000000" font-family="sans-serif" font-size="20" lengthAdjust="spacing" textLength="189" x="716.5" y="98.8457">Matrix-Homeserver</text><rect fill="#EFEFFF" height="37.2813" rx="2.5" ry="2.5" style="stroke:#000000;stroke-width:0.5;" width="214" x="704" y="1497.8125"/><text fill="#000000" font-family="sans-serif" font-size="20" lengthAdjust="spacing" textLength="189" x="716.5" y="1523.377">Matrix-Homeserver</text><rect fill="#EFEFFF" height="37.2813" rx="2.5" ry="2.5" style="stroke:#000000;stroke-width:0.5;" width="214" x="988" y="73.2813"/><text fill="#000000" font-family="sans-serif" font-size="20" lengthAdjust="spacing" textLength="108" x="1041" y="98.8457">FHIR-Proxy</text><rect fill="#EFEFFF" height="37.2813" rx="2.5" ry="2.5" style="stroke:#000000;stroke-width:0.5;" width="214" x="988" y="1497.8125"/><text fill="#000000" font-family="sans-serif" font-size="20" lengthAdjust="spacing" textLength="108" x="1041" y="1523.377">FHIR-Proxy</text><rect fill="#EFEFFF" height="37.2813" rx="2.5" ry="2.5" style="stroke:#000000;stroke-width:0.5;" width="214" x="1237" y="73.2813"/><text fill="#000000" font-family="sans-serif" font-size="20" lengthAdjust="spacing" textLength="128" x="1280" y="98.8457">Auth-Service</text><rect fill="#EFEFFF" height="37.2813" rx="2.5" ry="2.5" style="stroke:#000000;stroke-width:0.5;" width="214" x="1237" y="1497.8125"/><text fill="#000000" font-family="sans-serif" font-size="20" lengthAdjust="spacing" textLength="128" x="1280" y="1523.377">Auth-Service</text><rect fill="#EFEFFF" height="37.2813" rx="2.5" ry="2.5" style="stroke:#000000;stroke-width:0.5;" width="214" x="1541" y="73.2813"/><text fill="#000000" font-family="sans-serif" font-size="20" lengthAdjust="spacing" textLength="145" x="1575.5" y="98.8457">FHIR-Directory</text><rect fill="#EFEFFF" height="37.2813" rx="2.5" ry="2.5" style="stroke:#000000;stroke-width:0.5;" width="214" x="1541" y="1497.8125"/><text fill="#000000" font-family="sans-serif" font-size="20" lengthAdjust="spacing" textLength="145" x="1575.5" y="1523.377">FHIR-Directory</text><rect fill="#DCDCDC" height="1368.25" style="stroke:#000000;stroke-width:1.0;" width="10" x="358" y="121.5625"/><rect fill="#DCDCDC" height="175.5742" style="stroke:#000000;stroke-width:1.0;" width="10" x="1090" y="688.1289"/><rect fill="#DCDCDC" height="175.5742" style="stroke:#000000;stroke-width:1.0;" width="10" x="1090" y="1004.3242"/><rect fill="#DCDCDC" height="33.7891" style="stroke:#000000;stroke-width:1.0;" width="10" x="1090" y="1349.2344"/><rect fill="#DCDCDC" height="33.7891" style="stroke:#000000;stroke-width:1.0;" width="10" x="1643" y="796.125"/><rect fill="#DCDCDC" height="33.7891" style="stroke:#000000;stroke-width:1.0;" width="10" x="1643" y="1112.3203"/><path d="M50,151.5625 L50,211.5625 L910,211.5625 L910,161.5625 L900,151.5625 L50,151.5625 " fill="#FEFFDD" style="stroke:#181818;stroke-width:0.5;"/><path d="M900,151.5625 L900,161.5625 L910,161.5625 L900,151.5625 " fill="#FEFFDD" style="stroke:#181818;stroke-width:0.5;"/><text fill="#000000" font-family="sans-serif" font-size="13" lengthAdjust="spacing" textLength="4" x="214" y="168.6294">&#160;</text><text fill="#000000" font-family="sans-serif" font-size="17" lengthAdjust="spacing" textLength="523" x="214" y="187.4751">Der Akteur ist erfolgreich beim Messenger-Service angemeldet</text><text fill="#000000" font-family="sans-serif" font-size="13" lengthAdjust="spacing" textLength="4" x="214" y="203.5513">&#160;</text><polygon fill="#000000" points="346,302.9844,356,306.9844,346,310.9844,350,306.9844" style="stroke:#000000;stroke-width:1.0;"/><line style="stroke:#000000;stroke-width:1.0;" x1="149.5" x2="352" y1="306.9844" y2="306.9844"/><text fill="#000000" font-family="sans-serif" font-size="17" font-weight="bold" lengthAdjust="spacing" textLength="12" x="156.5" y="281.186">1</text><text fill="#000000" font-family="sans-serif" font-size="17" lengthAdjust="spacing" textLength="158" x="172.5" y="261.397">Suchparameter f&#252;r</text><text fill="#000000" font-family="sans-serif" font-size="17" lengthAdjust="spacing" textLength="142" x="172.5" y="281.186">FHIR-Ressourcen</text><text fill="#000000" font-family="sans-serif" font-size="17" lengthAdjust="spacing" textLength="77" x="177.5" y="300.9751">eingeben</text><path d="M10,346.9844 L369,346.9844 L369,357.6094 L359,367.6094 L10,367.6094 L10,346.9844 " fill="#D3D3D3" style="stroke:#000000;stroke-width:1.5;"/><rect fill="none" height="200.4219" style="stroke:#000000;stroke-width:1.5;" width="1755" x="10" y="346.9844"/><text fill="#000000" font-family="sans-serif" font-size="16" font-weight="bold" lengthAdjust="spacing" textLength="314" x="25" y="362.8359">Pr&#252;fung/Erhalt search-accesstoken</text><path d="M20,397.6094 L20,462.6094 L279,462.6094 L279,407.6094 L269,397.6094 L20,397.6094 " fill="#FEFFDD" style="stroke:#181818;stroke-width:0.5;"/><path d="M269,397.6094 L269,407.6094 L279,407.6094 L269,397.6094 " fill="#FEFFDD" style="stroke:#181818;stroke-width:0.5;"/><text fill="#000000" font-family="sans-serif" font-size="16" lengthAdjust="spacing" textLength="188" x="26" y="417.4609">dieser Akteur entspricht</text><text fill="#000000" font-family="sans-serif" font-size="16" lengthAdjust="spacing" textLength="209" x="26" y="436.0859">dem "Nutzer" im folgenden</text><text fill="#000000" font-family="sans-serif" font-size="16" lengthAdjust="spacing" textLength="238" x="26" y="454.7109">referenzierten Anwendungsfall</text><rect fill="#F5F5DC" height="48.9219" style="stroke:#000000;stroke-width:1.5;" width="1708" x="50" y="468.4844"/><path d="M50,468.4844 L116,468.4844 L116,475.4844 L106,485.4844 L50,485.4844 L50,468.4844 " fill="#98FB98" style="stroke:#000000;stroke-width:2.0;"/><text fill="#000000" font-family="sans-serif" font-size="13" font-weight="bold" lengthAdjust="spacing" textLength="21" x="63" y="482.5513">ref</text><text fill="#000000" font-family="sans-serif" font-size="17" lengthAdjust="spacing" textLength="384" x="712" y="505.2642">gemSpec_VZD_FHIR_Directory#AF_10036-01</text><line style="stroke:#000000;stroke-width:1.0;" x1="904" x2="904" y1="511.2734" y2="511.2734"/><line style="stroke:#000000;stroke-width:1.0;" x1="904" x2="904" y1="511.2734" y2="511.2734"/><line style="stroke:#000000;stroke-width:1.0;" x1="904" x2="904" y1="511.2734" y2="511.2734"/><path d="M33,561.4063 L97,561.4063 L97,568.5391 L87,578.5391 L33,578.5391 L33,561.4063 " fill="#D3D3D3" style="stroke:#000000;stroke-width:1.5;"/><rect fill="none" height="920.4063" style="stroke:#000000;stroke-width:1.5;" width="1742" x="33" y="561.4063"/><text fill="#000000" font-family="sans-serif" font-size="13" font-weight="bold" lengthAdjust="spacing" textLength="19" x="48" y="574.4731">alt</text><text fill="#000000" font-family="sans-serif" font-size="11" font-weight="bold" lengthAdjust="spacing" textLength="5" x="112" y="579.437">[</text><text fill="#000000" font-family="sans-serif" font-size="16" font-weight="bold" lengthAdjust="spacing" textLength="336" x="117" y="578.2578">g&#252;ltiges search-accesstoken erhalten</text><text fill="#000000" font-family="sans-serif" font-size="11" font-weight="bold" lengthAdjust="spacing" textLength="5" x="453" y="579.437">]</text><path d="M43,614.1641 L107,614.1641 L107,621.2969 L97,631.2969 L43,631.2969 L43,614.1641 " fill="#D3D3D3" style="stroke:#000000;stroke-width:1.5;"/><rect fill="none" height="632.5234" style="stroke:#000000;stroke-width:1.5;" width="1722" x="43" y="614.1641"/><text fill="#000000" font-family="sans-serif" font-size="13" font-weight="bold" lengthAdjust="spacing" textLength="19" x="58" y="627.231">alt</text><text fill="#000000" font-family="sans-serif" font-size="11" font-weight="bold" lengthAdjust="spacing" textLength="5" x="122" y="632.1948">[</text><text fill="#000000" font-family="sans-serif" font-size="16" font-weight="bold" lengthAdjust="spacing" textLength="391" x="127" y="631.0156">HealthcareService-Eintr&#228;ge werden gesucht</text><text fill="#000000" font-family="sans-serif" font-size="11" font-weight="bold" lengthAdjust="spacing" textLength="5" x="518" y="632.1948">]</text><polygon fill="#000000" points="1078,684.1289,1088,688.1289,1078,692.1289,1082,688.1289" style="stroke:#000000;stroke-width:1.0;"/><line style="stroke:#000000;stroke-width:1.0;" x1="368" x2="1084" y1="688.1289" y2="688.1289"/><text fill="#000000" font-family="sans-serif" font-size="17" font-weight="bold" lengthAdjust="spacing" textLength="12" x="375" y="682.1196">2</text><text fill="#000000" font-family="sans-serif" font-size="17" lengthAdjust="spacing" textLength="687" x="391" y="682.1196">GET /search/HealthcareService/?organization.active=true&amp;... (search-accesstoken)</text><path d="M85,664.9219 L85,692.9219 L353,692.9219 L353,674.9219 L343,664.9219 L85,664.9219 " fill="#FEFFDD" style="stroke:#181818;stroke-width:0.5;"/><path d="M343,664.9219 L343,674.9219 L353,674.9219 L343,664.9219 " fill="#FEFFDD" style="stroke:#181818;stroke-width:0.5;"/><text fill="#000000" font-family="sans-serif" font-size="16" lengthAdjust="spacing" textLength="247" x="91" y="684.7734">Finde Datensatz f&#252;r TelematikID</text><line style="stroke:#000000;stroke-width:1.0;" x1="1100" x2="1142" y1="724.3359" y2="724.3359"/><line style="stroke:#000000;stroke-width:1.0;" x1="1142" x2="1142" y1="724.3359" y2="737.3359"/><line style="stroke:#000000;stroke-width:1.0;" x1="1101" x2="1142" y1="737.3359" y2="737.3359"/><polygon fill="#000000" points="1111,733.3359,1101,737.3359,1111,741.3359,1107,737.3359" style="stroke:#000000;stroke-width:1.0;"/><text fill="#000000" font-family="sans-serif" font-size="17" font-weight="bold" lengthAdjust="spacing" textLength="12" x="1107" y="718.3267">3</text><text fill="#000000" font-family="sans-serif" font-size="17" lengthAdjust="spacing" textLength="209" x="1123" y="718.3267">pr&#252;fe search-accesstoken</text><polygon fill="#000000" points="1631,792.125,1641,796.125,1631,800.125,1635,796.125" style="stroke:#000000;stroke-width:1.0;"/><line style="stroke:#000000;stroke-width:1.0;" x1="1100" x2="1637" y1="796.125" y2="796.125"/><text fill="#000000" font-family="sans-serif" font-size="17" font-weight="bold" lengthAdjust="spacing" textLength="12" x="1107" y="790.1157">4</text><text fill="#000000" font-family="sans-serif" font-size="17" lengthAdjust="spacing" textLength="508" x="1123" y="790.1157">GET /search/HealthcareService/?organization.active=true&amp;...</text><polygon fill="#000000" points="1111,825.9141,1101,829.9141,1111,833.9141,1107,829.9141" style="stroke:#000000;stroke-width:1.0;"/><line style="stroke:#000000;stroke-width:1.0;stroke-dasharray:2.0,2.0;" x1="1105" x2="1647" y1="829.9141" y2="829.9141"/><text fill="#000000" font-family="sans-serif" font-size="17" font-weight="bold" lengthAdjust="spacing" textLength="12" x="1296" y="823.9048">5</text><text fill="#000000" font-family="sans-serif" font-size="17" lengthAdjust="spacing" textLength="329" x="1312" y="823.9048">HTTP 200 (:Suchergebnis FHIR-Bundle)</text><polygon fill="#000000" points="379,859.7031,369,863.7031,379,867.7031,375,863.7031" style="stroke:#000000;stroke-width:1.0;"/><line style="stroke:#000000;stroke-width:1.0;stroke-dasharray:2.0,2.0;" x1="373" x2="1094" y1="863.7031" y2="863.7031"/><text fill="#000000" font-family="sans-serif" font-size="17" font-weight="bold" lengthAdjust="spacing" textLength="12" x="743" y="857.6938">6</text><text fill="#000000" font-family="sans-serif" font-size="17" lengthAdjust="spacing" textLength="329" x="759" y="857.6938">HTTP 200 (:Suchergebnis FHIR-Bundle)</text><polygon fill="#000000" points="160.5,893.4922,150.5,897.4922,160.5,901.4922,156.5,897.4922" style="stroke:#000000;stroke-width:1.0;"/><line style="stroke:#000000;stroke-width:1.0;stroke-dasharray:2.0,2.0;" x1="154.5" x2="357" y1="897.4922" y2="897.4922"/><text fill="#000000" font-family="sans-serif" font-size="17" font-weight="bold" lengthAdjust="spacing" textLength="12" x="223" y="891.4829">7</text><text fill="#000000" font-family="sans-serif" font-size="17" lengthAdjust="spacing" textLength="112" x="239" y="891.4829">Suchergebnis</text><line style="stroke:#000000;stroke-width:1.0;stroke-dasharray:2.0,2.0;" x1="43" x2="1765" y1="931.4922" y2="931.4922"/><text fill="#000000" font-family="sans-serif" font-size="11" font-weight="bold" lengthAdjust="spacing" textLength="5" x="48" y="947.5229">[</text><text fill="#000000" font-family="sans-serif" font-size="16" font-weight="bold" lengthAdjust="spacing" textLength="374" x="53" y="946.3438">PractitionerRole-Eintr&#228;ge werden gesucht</text><text fill="#000000" font-family="sans-serif" font-size="11" font-weight="bold" lengthAdjust="spacing" textLength="5" x="427" y="947.5229">]</text><polygon fill="#000000" points="1078,1000.3242,1088,1004.3242,1078,1008.3242,1082,1004.3242" style="stroke:#000000;stroke-width:1.0;"/><line style="stroke:#000000;stroke-width:1.0;" x1="368" x2="1084" y1="1004.3242" y2="1004.3242"/><text fill="#000000" font-family="sans-serif" font-size="17" font-weight="bold" lengthAdjust="spacing" textLength="12" x="375" y="998.3149">8</text><text fill="#000000" font-family="sans-serif" font-size="17" lengthAdjust="spacing" textLength="662" x="391" y="998.3149">GET /search/PractitionerRole/?practitioner.active=true&amp;... (search-accesstoken)</text><path d="M132,981.1172 L132,1009.1172 L353,1009.1172 L353,991.1172 L343,981.1172 L132,981.1172 " fill="#FEFFDD" style="stroke:#181818;stroke-width:0.5;"/><path d="M343,981.1172 L343,991.1172 L353,991.1172 L343,981.1172 " fill="#FEFFDD" style="stroke:#181818;stroke-width:0.5;"/><text fill="#000000" font-family="sans-serif" font-size="16" lengthAdjust="spacing" textLength="199" x="138" y="1000.9688">Finde Datensatz f&#252;r MXID</text><line style="stroke:#000000;stroke-width:1.0;" x1="1100" x2="1142" y1="1040.5313" y2="1040.5313"/><line style="stroke:#000000;stroke-width:1.0;" x1="1142" x2="1142" y1="1040.5313" y2="1053.5313"/><line style="stroke:#000000;stroke-width:1.0;" x1="1101" x2="1142" y1="1053.5313" y2="1053.5313"/><polygon fill="#000000" points="1111,1049.5313,1101,1053.5313,1111,1057.5313,1107,1053.5313" style="stroke:#000000;stroke-width:1.0;"/><text fill="#000000" font-family="sans-serif" font-size="17" font-weight="bold" lengthAdjust="spacing" textLength="12" x="1107" y="1034.522">9</text><text fill="#000000" font-family="sans-serif" font-size="17" lengthAdjust="spacing" textLength="209" x="1123" y="1034.522">pr&#252;fe search-accesstoken</text><polygon fill="#000000" points="1631,1108.3203,1641,1112.3203,1631,1116.3203,1635,1112.3203" style="stroke:#000000;stroke-width:1.0;"/><line style="stroke:#000000;stroke-width:1.0;" x1="1100" x2="1637" y1="1112.3203" y2="1112.3203"/><text fill="#000000" font-family="sans-serif" font-size="17" font-weight="bold" lengthAdjust="spacing" textLength="24" x="1107" y="1106.311">10</text><text fill="#000000" font-family="sans-serif" font-size="17" lengthAdjust="spacing" textLength="483" x="1135" y="1106.311">GET /search/PractitionerRole/?practitioner.active=true&amp;...</text><polygon fill="#000000" points="1111,1142.1094,1101,1146.1094,1111,1150.1094,1107,1146.1094" style="stroke:#000000;stroke-width:1.0;"/><line style="stroke:#000000;stroke-width:1.0;stroke-dasharray:2.0,2.0;" x1="1105" x2="1647" y1="1146.1094" y2="1146.1094"/><text fill="#000000" font-family="sans-serif" font-size="17" font-weight="bold" lengthAdjust="spacing" textLength="24" x="1284" y="1140.1001">11</text><text fill="#000000" font-family="sans-serif" font-size="17" lengthAdjust="spacing" textLength="329" x="1312" y="1140.1001">HTTP 200 (:Suchergebnis FHIR-Bundle)</text><polygon fill="#000000" points="379,1175.8984,369,1179.8984,379,1183.8984,375,1179.8984" style="stroke:#000000;stroke-width:1.0;"/><line style="stroke:#000000;stroke-width:1.0;stroke-dasharray:2.0,2.0;" x1="373" x2="1094" y1="1179.8984" y2="1179.8984"/><text fill="#000000" font-family="sans-serif" font-size="17" font-weight="bold" lengthAdjust="spacing" textLength="24" x="731" y="1173.8892">12</text><text fill="#000000" font-family="sans-serif" font-size="17" lengthAdjust="spacing" textLength="329" x="759" y="1173.8892">HTTP 200 (:Suchergebnis FHIR-Bundle)</text><polygon fill="#000000" points="160.5,1209.6875,150.5,1213.6875,160.5,1217.6875,156.5,1213.6875" style="stroke:#000000;stroke-width:1.0;"/><line style="stroke:#000000;stroke-width:1.0;stroke-dasharray:2.0,2.0;" x1="154.5" x2="357" y1="1213.6875" y2="1213.6875"/><text fill="#000000" font-family="sans-serif" font-size="17" font-weight="bold" lengthAdjust="spacing" textLength="24" x="211" y="1207.6782">13</text><text fill="#000000" font-family="sans-serif" font-size="17" lengthAdjust="spacing" textLength="112" x="239" y="1207.6782">Suchergebnis</text><line style="stroke:#000000;stroke-width:1.0;stroke-dasharray:2.0,2.0;" x1="33" x2="1775" y1="1279.6875" y2="1279.6875"/><text fill="#000000" font-family="sans-serif" font-size="11" font-weight="bold" lengthAdjust="spacing" textLength="5" x="38" y="1295.7183">[</text><text fill="#000000" font-family="sans-serif" font-size="16" font-weight="bold" lengthAdjust="spacing" textLength="299" x="43" y="1294.5391">kein g&#252;ltiges search-accesstoken</text><text fill="#000000" font-family="sans-serif" font-size="11" font-weight="bold" lengthAdjust="spacing" textLength="5" x="342" y="1295.7183">]</text><path d="M43,1306.3125 L131,1306.3125 L131,1313.4453 L121,1323.4453 L43,1323.4453 L43,1306.3125 " fill="#D3D3D3" style="stroke:#000000;stroke-width:1.5;"/><rect fill="none" height="143.5" style="stroke:#000000;stroke-width:1.5;" width="1169" x="43" y="1306.3125"/><text fill="#000000" font-family="sans-serif" font-size="13" font-weight="bold" lengthAdjust="spacing" textLength="43" x="58" y="1319.3794">break</text><polygon fill="#000000" points="1078,1345.2344,1088,1349.2344,1078,1353.2344,1082,1349.2344" style="stroke:#000000;stroke-width:1.0;"/><line style="stroke:#000000;stroke-width:1.0;" x1="368" x2="1084" y1="1349.2344" y2="1349.2344"/><text fill="#000000" font-family="sans-serif" font-size="17" font-weight="bold" lengthAdjust="spacing" textLength="24" x="375" y="1343.2251">14</text><text fill="#000000" font-family="sans-serif" font-size="17" lengthAdjust="spacing" textLength="329" x="403" y="1343.2251">GET /search/.../?... (search-accesstoken)</text><polygon fill="#000000" points="379,1379.0234,369,1383.0234,379,1387.0234,375,1383.0234" style="stroke:#000000;stroke-width:1.0;"/><line style="stroke:#000000;stroke-width:1.0;stroke-dasharray:2.0,2.0;" x1="373" x2="1094" y1="1383.0234" y2="1383.0234"/><text fill="#000000" font-family="sans-serif" font-size="17" font-weight="bold" lengthAdjust="spacing" textLength="24" x="979" y="1377.0142">15</text><text fill="#000000" font-family="sans-serif" font-size="17" lengthAdjust="spacing" textLength="81" x="1007" y="1377.0142">HTTP 401</text><polygon fill="#000000" points="160.5,1412.8125,150.5,1416.8125,160.5,1420.8125,156.5,1416.8125" style="stroke:#000000;stroke-width:1.0;"/><line style="stroke:#000000;stroke-width:1.0;stroke-dasharray:2.0,2.0;" x1="154.5" x2="357" y1="1416.8125" y2="1416.8125"/><text fill="#000000" font-family="sans-serif" font-size="17" font-weight="bold" lengthAdjust="spacing" textLength="24" x="196" y="1410.8032">16</text><text fill="#000000" font-family="sans-serif" font-size="17" lengthAdjust="spacing" textLength="127" x="224" y="1410.8032">Fehlermeldung</text></g></svg>