<?xml version="1.0" encoding="us-ascii" standalone="no"?><svg xmlns="http://www.w3.org/2000/svg" xmlns:xlink="http://www.w3.org/1999/xlink" contentStyleType="text/css" height="1791px" preserveAspectRatio="none" style="width:2048px;height:1791px;background:#FFFFFF;" version="1.1" viewBox="0 0 2048 1791" width="2048px" zoomAndPan="magnify"><defs/><g><rect fill="#F5F5F5" height="1779.6406" style="stroke:#181818;stroke-width:0.5;" width="446" x="410" y="6"/><text fill="#000000" font-family="sans-serif" font-size="18" font-weight="bold" lengthAdjust="spacing" textLength="213" x="524" y="22.708">Messenger-Service A</text><text fill="#000000" font-family="sans-serif" font-size="13" font-weight="bold" lengthAdjust="spacing" textLength="5" x="737" y="23.8872">&#160;</text><rect fill="#F5F5F5" height="1779.6406" style="stroke:#181818;stroke-width:0.5;" width="485" x="888" y="6"/><text fill="#000000" font-family="sans-serif" font-size="18" font-weight="bold" lengthAdjust="spacing" textLength="213" x="1021.5" y="22.708">Messenger-Service B</text><text fill="#000000" font-family="sans-serif" font-size="13" font-weight="bold" lengthAdjust="spacing" textLength="5" x="1234.5" y="23.8872">&#160;</text><rect fill="#F0F8FF" height="260.5234" style="stroke:#000000;stroke-width:1.0;" width="10" x="277" y="380.5313"/><rect fill="#DCDCDC" height="192.9453" style="stroke:#000000;stroke-width:1.0;" width="10" x="516" y="414.3203"/><rect fill="#DCDCDC" height="699.4297" style="stroke:#000000;stroke-width:1.0;" width="10" x="516" y="674.8438"/><rect fill="#DCDCDC" height="926.1641" style="stroke:#000000;stroke-width:1.0;" width="10" x="740" y="448.1094"/><rect fill="#DCDCDC" height="517.9609" style="stroke:#000000;stroke-width:1.0;" width="10" x="994" y="822.5234"/><rect fill="#DCDCDC" height="101.3672" style="stroke:#000000;stroke-width:1.0;" width="10" x="994" y="1408.0625"/><rect fill="#DCDCDC" height="336.4922" style="stroke:#000000;stroke-width:1.0;" width="10" x="1257" y="970.2031"/><rect fill="#DCDCDC" height="33.7891" style="stroke:#000000;stroke-width:1.0;" width="10" x="1257" y="1441.8516"/><rect fill="#DCDCDC" height="67.5781" style="stroke:#000000;stroke-width:1.0;" width="10" x="1535" y="1148.3281"/><rect fill="#C9FFC9" height="201.7344" style="stroke:#000000;stroke-width:1.0;" width="10" x="1759" y="1408.0625"/><rect fill="#F0F8FF" height="147.125" style="stroke:#000000;stroke-width:1.5;" width="736" x="1145" y="1101.7813"/><line style="stroke:#000000;stroke-width:0.5;stroke-dasharray:5.0,5.0;" x1="92" x2="92" y1="134.8438" y2="1652.7969"/><line style="stroke:#000000;stroke-width:0.5;stroke-dasharray:5.0,5.0;" x1="282" x2="282" y1="134.8438" y2="1652.7969"/><line style="stroke:#000000;stroke-width:0.5;stroke-dasharray:5.0,5.0;" x1="521" x2="521" y1="134.8438" y2="1652.7969"/><line style="stroke:#000000;stroke-width:0.5;stroke-dasharray:5.0,5.0;" x1="745" x2="745" y1="134.8438" y2="1652.7969"/><line style="stroke:#000000;stroke-width:0.5;stroke-dasharray:5.0,5.0;" x1="999" x2="999" y1="134.8438" y2="1652.7969"/><line style="stroke:#000000;stroke-width:0.5;stroke-dasharray:5.0,5.0;" x1="1262" x2="1262" y1="134.8438" y2="1652.7969"/><line style="stroke:#000000;stroke-width:0.5;stroke-dasharray:5.0,5.0;" x1="1540" x2="1540" y1="134.8438" y2="1652.7969"/><line style="stroke:#000000;stroke-width:0.5;stroke-dasharray:5.0,5.0;" x1="1764" x2="1764" y1="134.8438" y2="1652.7969"/><line style="stroke:#000000;stroke-width:0.5;stroke-dasharray:5.0,5.0;" x1="1954" x2="1954" y1="134.8438" y2="1652.7969"/><text fill="#000000" font-family="sans-serif" font-size="20" lengthAdjust="spacing" textLength="6" x="86" y="83.5645">&#160;</text><text fill="#000000" font-family="sans-serif" font-size="20" lengthAdjust="spacing" textLength="112" x="33" y="106.8457">Akteur A in</text><text fill="#000000" font-family="sans-serif" font-size="20" lengthAdjust="spacing" textLength="140" x="19" y="130.127">der Rolle User</text><ellipse cx="92" cy="13.5" fill="#F0F8FF" rx="8" ry="8" style="stroke:#000000;stroke-width:0.5;"/><path d="M92,21.5 L92,48.5 M79,29.5 L105,29.5 M92,48.5 L79,63.5 M92,48.5 L105,63.5 " fill="none" style="stroke:#000000;stroke-width:0.5;"/><text fill="#000000" font-family="sans-serif" font-size="20" lengthAdjust="spacing" textLength="6" x="86" y="1670.3613">&#160;</text><text fill="#000000" font-family="sans-serif" font-size="20" lengthAdjust="spacing" textLength="112" x="33" y="1693.6426">Akteur A in</text><text fill="#000000" font-family="sans-serif" font-size="20" lengthAdjust="spacing" textLength="140" x="19" y="1716.9238">der Rolle User</text><ellipse cx="92" cy="1730.1406" fill="#F0F8FF" rx="8" ry="8" style="stroke:#000000;stroke-width:0.5;"/><path d="M92,1738.1406 L92,1765.1406 M79,1746.1406 L105,1746.1406 M92,1765.1406 L79,1780.1406 M92,1765.1406 L105,1780.1406 " fill="none" style="stroke:#000000;stroke-width:0.5;"/><rect fill="#F0F8FF" height="60.5625" rx="2.5" ry="2.5" style="stroke:#000000;stroke-width:0.5;" width="214" x="175" y="73.2813"/><text fill="#000000" font-family="sans-serif" font-size="20" lengthAdjust="spacing" textLength="139" x="212.5" y="98.8457">TI-Messenger-</text><text fill="#000000" font-family="sans-serif" font-size="20" lengthAdjust="spacing" textLength="59" x="252.5" y="122.127">Client</text><rect fill="#F0F8FF" height="60.5625" rx="2.5" ry="2.5" style="stroke:#000000;stroke-width:0.5;" width="214" x="175" y="1651.7969"/><text fill="#000000" font-family="sans-serif" font-size="20" lengthAdjust="spacing" textLength="139" x="212.5" y="1677.3613">TI-Messenger-</text><text fill="#000000" font-family="sans-serif" font-size="20" lengthAdjust="spacing" textLength="59" x="252.5" y="1700.6426">Client</text><rect fill="#EFEFFF" height="60.5625" rx="2.5" ry="2.5" style="stroke:#000000;stroke-width:0.5;" width="214" x="414" y="73.2813"/><text fill="#000000" font-family="sans-serif" font-size="20" lengthAdjust="spacing" textLength="114" x="464" y="98.8457">Messenger-</text><text fill="#000000" font-family="sans-serif" font-size="20" lengthAdjust="spacing" textLength="54" x="494" y="122.127">Proxy</text><rect fill="#EFEFFF" height="60.5625" rx="2.5" ry="2.5" style="stroke:#000000;stroke-width:0.5;" width="214" x="414" y="1651.7969"/><text fill="#000000" font-family="sans-serif" font-size="20" lengthAdjust="spacing" textLength="114" x="464" y="1677.3613">Messenger-</text><text fill="#000000" font-family="sans-serif" font-size="20" lengthAdjust="spacing" textLength="54" x="494" y="1700.6426">Proxy</text><rect fill="#EFEFFF" height="60.5625" rx="2.5" ry="2.5" style="stroke:#000000;stroke-width:0.5;" width="214" x="638" y="73.2813"/><text fill="#000000" font-family="sans-serif" font-size="20" lengthAdjust="spacing" textLength="69" x="710.5" y="98.8457">Matrix-</text><text fill="#000000" font-family="sans-serif" font-size="20" lengthAdjust="spacing" textLength="120" x="685" y="122.127">Homeserver</text><rect fill="#EFEFFF" height="60.5625" rx="2.5" ry="2.5" style="stroke:#000000;stroke-width:0.5;" width="214" x="638" y="1651.7969"/><text fill="#000000" font-family="sans-serif" font-size="20" lengthAdjust="spacing" textLength="69" x="710.5" y="1677.3613">Matrix-</text><text fill="#000000" font-family="sans-serif" font-size="20" lengthAdjust="spacing" textLength="120" x="685" y="1700.6426">Homeserver</text><rect fill="#EFEFFF" height="60.5625" rx="2.5" ry="2.5" style="stroke:#000000;stroke-width:0.5;" width="214" x="892" y="73.2813"/><text fill="#000000" font-family="sans-serif" font-size="20" lengthAdjust="spacing" textLength="114" x="942" y="98.8457">Messenger-</text><text fill="#000000" font-family="sans-serif" font-size="20" lengthAdjust="spacing" textLength="54" x="972" y="122.127">Proxy</text><rect fill="#EFEFFF" height="60.5625" rx="2.5" ry="2.5" style="stroke:#000000;stroke-width:0.5;" width="214" x="892" y="1651.7969"/><text fill="#000000" font-family="sans-serif" font-size="20" lengthAdjust="spacing" textLength="114" x="942" y="1677.3613">Messenger-</text><text fill="#000000" font-family="sans-serif" font-size="20" lengthAdjust="spacing" textLength="54" x="972" y="1700.6426">Proxy</text><rect fill="#EFEFFF" height="60.5625" rx="2.5" ry="2.5" style="stroke:#000000;stroke-width:0.5;" width="214" x="1155" y="73.2813"/><text fill="#000000" font-family="sans-serif" font-size="20" lengthAdjust="spacing" textLength="69" x="1227.5" y="98.8457">Matrix-</text><text fill="#000000" font-family="sans-serif" font-size="20" lengthAdjust="spacing" textLength="120" x="1202" y="122.127">Homeserver</text><rect fill="#EFEFFF" height="60.5625" rx="2.5" ry="2.5" style="stroke:#000000;stroke-width:0.5;" width="214" x="1155" y="1651.7969"/><text fill="#000000" font-family="sans-serif" font-size="20" lengthAdjust="spacing" textLength="69" x="1227.5" y="1677.3613">Matrix-</text><text fill="#000000" font-family="sans-serif" font-size="20" lengthAdjust="spacing" textLength="120" x="1202" y="1700.6426">Homeserver</text><rect fill="#EFEFFF" height="60.5625" rx="2.5" ry="2.5" style="stroke:#000000;stroke-width:0.5;" width="214" x="1433" y="73.2813"/><text fill="#000000" font-family="sans-serif" font-size="20" lengthAdjust="spacing" textLength="55" x="1512.5" y="98.8457">Push-</text><text fill="#000000" font-family="sans-serif" font-size="20" lengthAdjust="spacing" textLength="88" x="1496" y="122.127">Gateway</text><rect fill="#EFEFFF" height="60.5625" rx="2.5" ry="2.5" style="stroke:#000000;stroke-width:0.5;" width="214" x="1433" y="1651.7969"/><text fill="#000000" font-family="sans-serif" font-size="20" lengthAdjust="spacing" textLength="55" x="1512.5" y="1677.3613">Push-</text><text fill="#000000" font-family="sans-serif" font-size="20" lengthAdjust="spacing" textLength="88" x="1496" y="1700.6426">Gateway</text><rect fill="#C9FFC9" height="60.5625" rx="2.5" ry="2.5" style="stroke:#000000;stroke-width:0.5;" width="214" x="1657" y="73.2813"/><text fill="#000000" font-family="sans-serif" font-size="20" lengthAdjust="spacing" textLength="139" x="1694.5" y="98.8457">TI-Messenger-</text><text fill="#000000" font-family="sans-serif" font-size="20" lengthAdjust="spacing" textLength="59" x="1734.5" y="122.127">Client</text><rect fill="#C9FFC9" height="60.5625" rx="2.5" ry="2.5" style="stroke:#000000;stroke-width:0.5;" width="214" x="1657" y="1651.7969"/><text fill="#000000" font-family="sans-serif" font-size="20" lengthAdjust="spacing" textLength="139" x="1694.5" y="1677.3613">TI-Messenger-</text><text fill="#000000" font-family="sans-serif" font-size="20" lengthAdjust="spacing" textLength="59" x="1734.5" y="1700.6426">Client</text><text fill="#000000" font-family="sans-serif" font-size="20" lengthAdjust="spacing" textLength="6" x="1948" y="83.5645">&#160;</text><text fill="#000000" font-family="sans-serif" font-size="20" lengthAdjust="spacing" textLength="112" x="1895" y="106.8457">Akteur B in</text><text fill="#000000" font-family="sans-serif" font-size="20" lengthAdjust="spacing" textLength="140" x="1881" y="130.127">der Rolle User</text><ellipse cx="1954" cy="13.5" fill="#C9FFC9" rx="8" ry="8" style="stroke:#000000;stroke-width:0.5;"/><path d="M1954,21.5 L1954,48.5 M1941,29.5 L1967,29.5 M1954,48.5 L1941,63.5 M1954,48.5 L1967,63.5 " fill="none" style="stroke:#000000;stroke-width:0.5;"/><text fill="#000000" font-family="sans-serif" font-size="20" lengthAdjust="spacing" textLength="6" x="1948" y="1670.3613">&#160;</text><text fill="#000000" font-family="sans-serif" font-size="20" lengthAdjust="spacing" textLength="112" x="1895" y="1693.6426">Akteur B in</text><text fill="#000000" font-family="sans-serif" font-size="20" lengthAdjust="spacing" textLength="140" x="1881" y="1716.9238">der Rolle User</text><ellipse cx="1954" cy="1730.1406" fill="#C9FFC9" rx="8" ry="8" style="stroke:#000000;stroke-width:0.5;"/><path d="M1954,1738.1406 L1954,1765.1406 M1941,1746.1406 L1967,1746.1406 M1954,1765.1406 L1941,1780.1406 M1954,1765.1406 L1967,1780.1406 " fill="none" style="stroke:#000000;stroke-width:0.5;"/><rect fill="#F0F8FF" height="260.5234" style="stroke:#000000;stroke-width:1.0;" width="10" x="277" y="380.5313"/><rect fill="#DCDCDC" height="192.9453" style="stroke:#000000;stroke-width:1.0;" width="10" x="516" y="414.3203"/><rect fill="#DCDCDC" height="699.4297" style="stroke:#000000;stroke-width:1.0;" width="10" x="516" y="674.8438"/><rect fill="#DCDCDC" height="926.1641" style="stroke:#000000;stroke-width:1.0;" width="10" x="740" y="448.1094"/><rect fill="#DCDCDC" height="517.9609" style="stroke:#000000;stroke-width:1.0;" width="10" x="994" y="822.5234"/><rect fill="#DCDCDC" height="101.3672" style="stroke:#000000;stroke-width:1.0;" width="10" x="994" y="1408.0625"/><rect fill="#DCDCDC" height="336.4922" style="stroke:#000000;stroke-width:1.0;" width="10" x="1257" y="970.2031"/><rect fill="#DCDCDC" height="33.7891" style="stroke:#000000;stroke-width:1.0;" width="10" x="1257" y="1441.8516"/><rect fill="#DCDCDC" height="67.5781" style="stroke:#000000;stroke-width:1.0;" width="10" x="1535" y="1148.3281"/><rect fill="#C9FFC9" height="201.7344" style="stroke:#000000;stroke-width:1.0;" width="10" x="1759" y="1408.0625"/><path d="M5,174.8438 L5,234.8438 L833,234.8438 L833,184.8438 L823,174.8438 L5,174.8438 " fill="#FEFFDD" style="stroke:#181818;stroke-width:0.5;"/><path d="M823,174.8438 L823,184.8438 L833,184.8438 L823,174.8438 " fill="#FEFFDD" style="stroke:#181818;stroke-width:0.5;"/><text fill="#000000" font-family="sans-serif" font-size="13" lengthAdjust="spacing" textLength="4" x="137.5" y="191.9106">&#160;</text><text fill="#000000" font-family="sans-serif" font-size="17" lengthAdjust="spacing" textLength="554" x="137.5" y="210.7563">Der Akteur A ist erfolgreich beim Messenger Service A angemeldet</text><text fill="#000000" font-family="sans-serif" font-size="13" lengthAdjust="spacing" textLength="4" x="137.5" y="226.8325">&#160;</text><path d="M911,244.8984 L911,304.8984 L2041,304.8984 L2041,254.8984 L2031,244.8984 L911,244.8984 " fill="#FEFFDD" style="stroke:#181818;stroke-width:0.5;"/><path d="M2031,244.8984 L2031,254.8984 L2041,254.8984 L2031,244.8984 " fill="#FEFFDD" style="stroke:#181818;stroke-width:0.5;"/><text fill="#000000" font-family="sans-serif" font-size="13" lengthAdjust="spacing" textLength="4" x="1193.5" y="261.9653">&#160;</text><text fill="#000000" font-family="sans-serif" font-size="17" lengthAdjust="spacing" textLength="556" x="1193.5" y="280.811">Der Akteur B ist erfolgreich beim Messenger Service B angemeldet</text><text fill="#000000" font-family="sans-serif" font-size="13" lengthAdjust="spacing" textLength="4" x="1193.5" y="296.8872">&#160;</text><polygon fill="#000000" points="265,376.5313,275,380.5313,265,384.5313,269,380.5313" style="stroke:#000000;stroke-width:1.0;"/><line style="stroke:#000000;stroke-width:1.0;" x1="92" x2="271" y1="380.5313" y2="380.5313"/><text fill="#000000" font-family="sans-serif" font-size="17" font-weight="bold" lengthAdjust="spacing" textLength="12" x="99" y="364.6274">1</text><text fill="#000000" font-family="sans-serif" font-size="17" lengthAdjust="spacing" textLength="107" x="115" y="354.7329">Akteur A l&#246;st</text><text fill="#000000" font-family="sans-serif" font-size="17" lengthAdjust="spacing" textLength="143" x="115" y="374.522">Matrix-Event aus</text><polygon fill="#FF0000" points="504,410.3203,514,414.3203,504,418.3203,508,414.3203" style="stroke:#FF0000;stroke-width:1.0;"/><line style="stroke:#FF0000;stroke-width:1.0;" x1="287" x2="510" y1="414.3203" y2="414.3203"/><text fill="#000000" font-family="sans-serif" font-size="17" font-weight="bold" lengthAdjust="spacing" textLength="12" x="294" y="408.311">2</text><text fill="#000000" font-family="sans-serif" font-size="17" lengthAdjust="spacing" textLength="128" x="310" y="408.311">Matrix-Request</text><polygon fill="#FF0000" points="728,444.1094,738,448.1094,728,452.1094,732,448.1094" style="stroke:#FF0000;stroke-width:1.0;"/><line style="stroke:#FF0000;stroke-width:1.0;" x1="526" x2="734" y1="448.1094" y2="448.1094"/><text fill="#000000" font-family="sans-serif" font-size="17" font-weight="bold" lengthAdjust="spacing" textLength="12" x="533" y="442.1001">3</text><text fill="#000000" font-family="sans-serif" font-size="17" lengthAdjust="spacing" textLength="142" x="549" y="442.1001">HTTP(S) Forward</text><line style="stroke:#000000;stroke-width:1.0;" x1="750" x2="792" y1="501.6875" y2="501.6875"/><line style="stroke:#000000;stroke-width:1.0;" x1="792" x2="792" y1="501.6875" y2="514.6875"/><line style="stroke:#000000;stroke-width:1.0;" x1="751" x2="792" y1="514.6875" y2="514.6875"/><polygon fill="#000000" points="761,510.6875,751,514.6875,761,518.6875,757,514.6875" style="stroke:#000000;stroke-width:1.0;"/><text fill="#000000" font-family="sans-serif" font-size="17" font-weight="bold" lengthAdjust="spacing" textLength="12" x="757" y="485.7837">4</text><text fill="#000000" font-family="sans-serif" font-size="17" lengthAdjust="spacing" textLength="49" x="773" y="475.8892">Event</text><text fill="#000000" font-family="sans-serif" font-size="17" lengthAdjust="spacing" textLength="97" x="773" y="495.6782">verarbeiten</text><polygon fill="#000000" points="537,569.4766,527,573.4766,537,577.4766,533,573.4766" style="stroke:#000000;stroke-width:1.0;"/><line style="stroke:#000000;stroke-width:1.0;stroke-dasharray:2.0,2.0;" x1="531" x2="739" y1="573.4766" y2="573.4766"/><text fill="#000000" font-family="sans-serif" font-size="17" font-weight="bold" lengthAdjust="spacing" textLength="12" x="663" y="567.4673">5</text><text fill="#000000" font-family="sans-serif" font-size="17" lengthAdjust="spacing" textLength="54" x="679" y="567.4673">Status</text><polygon fill="#000000" points="298,603.2656,288,607.2656,298,611.2656,294,607.2656" style="stroke:#000000;stroke-width:1.0;"/><line style="stroke:#000000;stroke-width:1.0;stroke-dasharray:2.0,2.0;" x1="292" x2="520" y1="607.2656" y2="607.2656"/><text fill="#000000" font-family="sans-serif" font-size="17" font-weight="bold" lengthAdjust="spacing" textLength="12" x="356" y="601.2563">6</text><text fill="#000000" font-family="sans-serif" font-size="17" lengthAdjust="spacing" textLength="142" x="372" y="601.2563">HTTP(S) Forward</text><polygon fill="#000000" points="103,637.0547,93,641.0547,103,645.0547,99,641.0547" style="stroke:#000000;stroke-width:1.0;"/><line style="stroke:#000000;stroke-width:1.0;stroke-dasharray:2.0,2.0;" x1="97" x2="281" y1="641.0547" y2="641.0547"/><text fill="#000000" font-family="sans-serif" font-size="17" font-weight="bold" lengthAdjust="spacing" textLength="12" x="205" y="635.0454">7</text><text fill="#000000" font-family="sans-serif" font-size="17" lengthAdjust="spacing" textLength="54" x="221" y="635.0454">Status</text><polygon fill="#000000" points="537,670.8438,527,674.8438,537,678.8438,533,674.8438" style="stroke:#000000;stroke-width:1.0;"/><line style="stroke:#000000;stroke-width:1.0;" x1="531" x2="739" y1="674.8438" y2="674.8438"/><text fill="#000000" font-family="sans-serif" font-size="17" font-weight="bold" lengthAdjust="spacing" textLength="12" x="589" y="668.8345">8</text><text fill="#000000" font-family="sans-serif" font-size="17" lengthAdjust="spacing" textLength="128" x="605" y="668.8345">Matrix-Request</text><rect fill="#F5F5DC" height="58.8906" style="stroke:#000000;stroke-width:1.5;" width="220" x="411" y="707.8438"/><path d="M411,707.8438 L477,707.8438 L477,714.8438 L467,724.8438 L411,724.8438 L411,707.8438 " fill="#98FB98" style="stroke:#000000;stroke-width:2.0;"/><text fill="#000000" font-family="sans-serif" font-size="13" font-weight="bold" lengthAdjust="spacing" textLength="21" x="424" y="721.9106">ref</text><text fill="#000000" font-family="sans-serif" font-size="17" lengthAdjust="spacing" textLength="186" x="428" y="744.6235">Berechtigungspr&#252;fung</text><text fill="#000000" font-family="sans-serif" font-size="12" lengthAdjust="spacing" textLength="4" x="519" y="759.7715">&#160;</text><polygon fill="#FF0000" points="982,818.5234,992,822.5234,982,826.5234,986,822.5234" style="stroke:#FF0000;stroke-width:1.0;"/><line style="stroke:#FF0000;stroke-width:1.0;" x1="526" x2="988" y1="822.5234" y2="822.5234"/><text fill="#000000" font-family="sans-serif" font-size="17" font-weight="bold" lengthAdjust="spacing" textLength="12" x="533" y="816.5142">9</text><text fill="#000000" font-family="sans-serif" font-size="17" lengthAdjust="spacing" textLength="142" x="549" y="816.5142">HTTP(S) Forward</text><rect fill="#F5F5DC" height="58.8906" style="stroke:#000000;stroke-width:1.5;" width="220" x="889" y="855.5234"/><path d="M889,855.5234 L955,855.5234 L955,862.5234 L945,872.5234 L889,872.5234 L889,855.5234 " fill="#98FB98" style="stroke:#000000;stroke-width:2.0;"/><text fill="#000000" font-family="sans-serif" font-size="13" font-weight="bold" lengthAdjust="spacing" textLength="21" x="902" y="869.5903">ref</text><text fill="#000000" font-family="sans-serif" font-size="17" lengthAdjust="spacing" textLength="186" x="906" y="892.3032">Berechtigungspr&#252;fung</text><text fill="#000000" font-family="sans-serif" font-size="12" lengthAdjust="spacing" textLength="4" x="997" y="907.4512">&#160;</text><polygon fill="#FF0000" points="1245,966.2031,1255,970.2031,1245,974.2031,1249,970.2031" style="stroke:#FF0000;stroke-width:1.0;"/><line style="stroke:#FF0000;stroke-width:1.0;" x1="1004" x2="1251" y1="970.2031" y2="970.2031"/><text fill="#000000" font-family="sans-serif" font-size="17" font-weight="bold" lengthAdjust="spacing" textLength="24" x="1011" y="964.1938">10</text><text fill="#000000" font-family="sans-serif" font-size="17" lengthAdjust="spacing" textLength="142" x="1039" y="964.1938">HTTP(S) Forward</text><line style="stroke:#000000;stroke-width:1.0;" x1="1267" x2="1309" y1="1048.7813" y2="1048.7813"/><line style="stroke:#000000;stroke-width:1.0;" x1="1309" x2="1309" y1="1048.7813" y2="1061.7813"/><line style="stroke:#000000;stroke-width:1.0;" x1="1268" x2="1309" y1="1061.7813" y2="1061.7813"/><polygon fill="#000000" points="1278,1057.7813,1268,1061.7813,1278,1065.7813,1274,1061.7813" style="stroke:#000000;stroke-width:1.0;"/><text fill="#000000" font-family="sans-serif" font-size="17" font-weight="bold" lengthAdjust="spacing" textLength="24" x="1274" y="1032.8774">11</text><text fill="#000000" font-family="sans-serif" font-size="17" lengthAdjust="spacing" textLength="49" x="1302" y="1022.9829">Event</text><text fill="#000000" font-family="sans-serif" font-size="17" lengthAdjust="spacing" textLength="97" x="1302" y="1042.772">verarbeiten</text><path d="M1145,1101.7813 L1215,1101.7813 L1215,1108.9141 L1205,1118.9141 L1145,1118.9141 L1145,1101.7813 " fill="#D3D3D3" style="stroke:#000000;stroke-width:1.5;"/><rect fill="none" height="147.125" style="stroke:#000000;stroke-width:1.5;" width="736" x="1145" y="1101.7813"/><text fill="#000000" font-family="sans-serif" font-size="13" font-weight="bold" lengthAdjust="spacing" textLength="25" x="1160" y="1114.8481">opt</text><text fill="#000000" font-family="sans-serif" font-size="11" font-weight="bold" lengthAdjust="spacing" textLength="5" x="1230" y="1119.812">[</text><text fill="#000000" font-family="sans-serif" font-size="16" font-weight="bold" lengthAdjust="spacing" textLength="197" x="1235" y="1118.6328">Pushbenachrichtigung</text><text fill="#000000" font-family="sans-serif" font-size="11" font-weight="bold" lengthAdjust="spacing" textLength="5" x="1432" y="1119.812">]</text><polygon fill="#000000" points="1523,1144.3281,1533,1148.3281,1523,1152.3281,1527,1148.3281" style="stroke:#000000;stroke-width:1.0;"/><line style="stroke:#000000;stroke-width:1.0;" x1="1267" x2="1529" y1="1148.3281" y2="1148.3281"/><text fill="#000000" font-family="sans-serif" font-size="17" font-weight="bold" lengthAdjust="spacing" textLength="24" x="1274" y="1142.3188">12</text><text fill="#000000" font-family="sans-serif" font-size="17" lengthAdjust="spacing" textLength="221" x="1302" y="1142.3188">POST /_matrix/push/notify</text><polygon fill="#000000" points="1752,1178.1172,1762,1182.1172,1752,1186.1172,1756,1182.1172" style="stroke:#000000;stroke-width:1.0;"/><line style="stroke:#000000;stroke-width:1.0;" x1="1545" x2="1758" y1="1182.1172" y2="1182.1172"/><text fill="#000000" font-family="sans-serif" font-size="17" font-weight="bold" lengthAdjust="spacing" textLength="24" x="1552" y="1176.1079">13</text><text fill="#000000" font-family="sans-serif" font-size="17" lengthAdjust="spacing" textLength="97" x="1580" y="1176.1079">Notification</text><polygon fill="#000000" points="1278,1211.9063,1268,1215.9063,1278,1219.9063,1274,1215.9063" style="stroke:#000000;stroke-width:1.0;"/><line style="stroke:#000000;stroke-width:1.0;stroke-dasharray:2.0,2.0;" x1="1272" x2="1539" y1="1215.9063" y2="1215.9063"/><text fill="#000000" font-family="sans-serif" font-size="17" font-weight="bold" lengthAdjust="spacing" textLength="24" x="1451" y="1209.897">14</text><text fill="#000000" font-family="sans-serif" font-size="17" lengthAdjust="spacing" textLength="54" x="1479" y="1209.897">Status</text><polygon fill="#000000" points="1015,1302.6953,1005,1306.6953,1015,1310.6953,1011,1306.6953" style="stroke:#000000;stroke-width:1.0;"/><line style="stroke:#000000;stroke-width:1.0;stroke-dasharray:2.0,2.0;" x1="1009" x2="1261" y1="1306.6953" y2="1306.6953"/><text fill="#000000" font-family="sans-serif" font-size="17" font-weight="bold" lengthAdjust="spacing" textLength="24" x="1173" y="1300.686">15</text><text fill="#000000" font-family="sans-serif" font-size="17" lengthAdjust="spacing" textLength="54" x="1201" y="1300.686">Status</text><polygon fill="#000000" points="537,1336.4844,527,1340.4844,537,1344.4844,533,1340.4844" style="stroke:#000000;stroke-width:1.0;"/><line style="stroke:#000000;stroke-width:1.0;stroke-dasharray:2.0,2.0;" x1="531" x2="998" y1="1340.4844" y2="1340.4844"/><text fill="#000000" font-family="sans-serif" font-size="17" font-weight="bold" lengthAdjust="spacing" textLength="24" x="822" y="1334.4751">16</text><text fill="#000000" font-family="sans-serif" font-size="17" lengthAdjust="spacing" textLength="142" x="850" y="1334.4751">HTTP(S) Forward</text><polygon fill="#000000" points="733,1370.2734,743,1374.2734,733,1378.2734,737,1374.2734" style="stroke:#000000;stroke-width:1.0;"/><line style="stroke:#000000;stroke-width:1.0;stroke-dasharray:2.0,2.0;" x1="521" x2="739" y1="1374.2734" y2="1374.2734"/><text fill="#000000" font-family="sans-serif" font-size="17" font-weight="bold" lengthAdjust="spacing" textLength="24" x="528" y="1368.2642">17</text><text fill="#000000" font-family="sans-serif" font-size="17" lengthAdjust="spacing" textLength="54" x="556" y="1368.2642">Status</text><polygon fill="#000000" points="1015,1404.0625,1005,1408.0625,1015,1412.0625,1011,1408.0625" style="stroke:#000000;stroke-width:1.0;"/><line style="stroke:#000000;stroke-width:1.0;" x1="1009" x2="1758" y1="1408.0625" y2="1408.0625"/><text fill="#000000" font-family="sans-serif" font-size="17" font-weight="bold" lengthAdjust="spacing" textLength="24" x="1492" y="1402.0532">18</text><text fill="#000000" font-family="sans-serif" font-size="17" lengthAdjust="spacing" textLength="232" x="1520" y="1402.0532">GET /_matrix/client/v3/sync</text><polygon fill="#000000" points="1245,1437.8516,1255,1441.8516,1245,1445.8516,1249,1441.8516" style="stroke:#000000;stroke-width:1.0;"/><line style="stroke:#000000;stroke-width:1.0;" x1="1004" x2="1251" y1="1441.8516" y2="1441.8516"/><text fill="#000000" font-family="sans-serif" font-size="17" font-weight="bold" lengthAdjust="spacing" textLength="24" x="1011" y="1435.8423">19</text><text fill="#000000" font-family="sans-serif" font-size="17" lengthAdjust="spacing" textLength="142" x="1039" y="1435.8423">HTTP(S) Forward</text><polygon fill="#FF0000" points="1015,1471.6406,1005,1475.6406,1015,1479.6406,1011,1475.6406" style="stroke:#FF0000;stroke-width:1.0;"/><line style="stroke:#FF0000;stroke-width:1.0;stroke-dasharray:2.0,2.0;" x1="1009" x2="1261" y1="1475.6406" y2="1475.6406"/><text fill="#000000" font-family="sans-serif" font-size="17" font-weight="bold" lengthAdjust="spacing" textLength="24" x="1026" y="1469.6313">20</text><text fill="#000000" font-family="sans-serif" font-size="17" lengthAdjust="spacing" textLength="201" x="1054" y="1469.6313">Status (Matrix-Request)</text><polygon fill="#000000" points="1747,1505.4297,1757,1509.4297,1747,1513.4297,1751,1509.4297" style="stroke:#000000;stroke-width:1.0;"/><line style="stroke:#000000;stroke-width:1.0;stroke-dasharray:2.0,2.0;" x1="999" x2="1753" y1="1509.4297" y2="1509.4297"/><text fill="#000000" font-family="sans-serif" font-size="17" font-weight="bold" lengthAdjust="spacing" textLength="24" x="1006" y="1503.4204">21</text><text fill="#000000" font-family="sans-serif" font-size="17" lengthAdjust="spacing" textLength="142" x="1034" y="1503.4204">HTTP(S) Forward</text><line style="stroke:#000000;stroke-width:1.0;" x1="1769" x2="1811" y1="1563.0078" y2="1563.0078"/><line style="stroke:#000000;stroke-width:1.0;" x1="1811" x2="1811" y1="1563.0078" y2="1576.0078"/><line style="stroke:#000000;stroke-width:1.0;" x1="1770" x2="1811" y1="1576.0078" y2="1576.0078"/><polygon fill="#000000" points="1780,1572.0078,1770,1576.0078,1780,1580.0078,1776,1576.0078" style="stroke:#000000;stroke-width:1.0;"/><text fill="#000000" font-family="sans-serif" font-size="17" font-weight="bold" lengthAdjust="spacing" textLength="24" x="1776" y="1547.104">22</text><text fill="#000000" font-family="sans-serif" font-size="17" lengthAdjust="spacing" textLength="49" x="1804" y="1537.2095">Event</text><text fill="#000000" font-family="sans-serif" font-size="17" lengthAdjust="spacing" textLength="97" x="1804" y="1556.9985">verarbeiten</text><polygon fill="#000000" points="1942,1605.7969,1952,1609.7969,1942,1613.7969,1946,1609.7969" style="stroke:#000000;stroke-width:1.0;"/><line style="stroke:#000000;stroke-width:1.0;" x1="1764" x2="1948" y1="1609.7969" y2="1609.7969"/><text fill="#000000" font-family="sans-serif" font-size="17" font-weight="bold" lengthAdjust="spacing" textLength="24" x="1771" y="1603.7876">23</text><text fill="#000000" font-family="sans-serif" font-size="17" lengthAdjust="spacing" textLength="54" x="1799" y="1603.7876">Status</text></g></svg>