<?xml version="1.0" encoding="us-ascii" standalone="no"?><svg xmlns="http://www.w3.org/2000/svg" xmlns:xlink="http://www.w3.org/1999/xlink" contentStyleType="text/css" height="2399.6411px" preserveAspectRatio="none" style="width:2048px;height:2399px;background:#FFFFFF;" version="1.1" viewBox="0 0 2048 2399" width="2048.8835px" zoomAndPan="magnify"><defs/><g><rect fill="#F5F5F5" height="2389.4599" style="stroke:#181818;stroke-width:0.44176013805004316;" width="451.4789" x="539.8309" y="5.3011"/><text fill="#000000" font-family="sans-serif" font-size="15.9034" font-weight="bold" lengthAdjust="spacing" textLength="188.1898" x="669.2666" y="20.063">Messenger-Service A</text><text fill="#000000" font-family="sans-serif" font-size="11.4858" font-weight="bold" lengthAdjust="spacing" textLength="4.4176" x="857.4564" y="21.1048">&#160;</text><rect fill="#F5F5F5" height="2389.4599" style="stroke:#181818;stroke-width:0.44176013805004316;" width="394.05" x="1019.5824" y="5.3011"/><text fill="#000000" font-family="sans-serif" font-size="15.9034" font-weight="bold" lengthAdjust="spacing" textLength="188.1898" x="1120.3037" y="20.063">Messenger-Service B</text><text fill="#000000" font-family="sans-serif" font-size="11.4858" font-weight="bold" lengthAdjust="spacing" textLength="4.4176" x="1308.4935" y="21.1048">&#160;</text><rect fill="#DCDCDC" height="1275.0026" style="stroke:#000000;stroke-width:0.8835202761000863;" width="8.8352" x="633.484" y="555.0992"/><rect fill="#DCDCDC" height="923.0233" style="stroke:#000000;stroke-width:0.8835202761000863;" width="8.8352" x="888.8214" y="859.7412"/><rect fill="#DCDCDC" height="644.1622" style="stroke:#000000;stroke-width:0.8835202761000863;" width="8.8352" x="1113.2355" y="1078.8956"/><rect fill="#DCDCDC" height="89.56" style="stroke:#000000;stroke-width:0.8835202761000863;" width="8.8352" x="1113.2355" y="1859.9551"/><rect fill="#DCDCDC" height="130.8991" style="stroke:#000000;stroke-width:0.8835202761000863;" width="8.8352" x="1113.2355" y="2039.0751"/><rect fill="#DCDCDC" height="279.8136" style="stroke:#000000;stroke-width:0.8835202761000863;" width="8.8352" x="1311.1441" y="1413.3909"/><rect fill="#DCDCDC" height="29.8533" style="stroke:#000000;stroke-width:0.8835202761000863;" width="8.8352" x="1311.1441" y="1889.8085"/><rect fill="#DCDCDC" height="71.1924" style="stroke:#000000;stroke-width:0.8835202761000863;" width="8.8352" x="1311.1441" y="2068.9284"/><rect fill="#DCDCDC" height="59.7066" style="stroke:#000000;stroke-width:0.8835202761000863;" width="8.8352" x="1556.7627" y="1553.2839"/><rect fill="#C9FFC9" height="357.3563" style="stroke:#000000;stroke-width:0.8835202761000863;" width="8.8352" x="1754.6713" y="1859.9551"/><rect fill="#F0F8FF" height="117.9362" style="stroke:#000000;stroke-width:1.3252804141501295;" width="987.7757" x="8.8352" y="302.1225"/><rect fill="#FFE4E1" height="139.7066" style="stroke:#000000;stroke-width:1.3252804141501295;" width="732.4383" x="8.8352" y="668.9767"/><rect fill="#FFE4E1" height="169.56" style="stroke:#000000;stroke-width:1.3252804141501295;" width="1212.1898" x="8.8352" y="1192.7731"/><rect fill="#F0F8FF" height="152.0759" style="stroke:#000000;stroke-width:1.3252804141501295;" width="650.2709" x="1212.1898" y="1490.0708"/><line style="stroke:#000000;stroke-width:0.44176013805004316;stroke-dasharray:5.0,5.0;" x1="82.1674" x2="82.1674" y1="119.1372" y2="2277.3909"/><line style="stroke:#000000;stroke-width:0.44176013805004316;stroke-dasharray:5.0,5.0;" x1="250.0362" x2="250.0362" y1="119.1372" y2="2277.3909"/><line style="stroke:#000000;stroke-width:0.44176013805004316;stroke-dasharray:5.0,5.0;" x1="637.9016" x2="637.9016" y1="119.1372" y2="2277.3909"/><line style="stroke:#000000;stroke-width:0.44176013805004316;stroke-dasharray:5.0,5.0;" x1="893.239" x2="893.239" y1="119.1372" y2="2277.3909"/><line style="stroke:#000000;stroke-width:0.44176013805004316;stroke-dasharray:5.0,5.0;" x1="1117.6531" x2="1117.6531" y1="119.1372" y2="2277.3909"/><line style="stroke:#000000;stroke-width:0.44176013805004316;stroke-dasharray:5.0,5.0;" x1="1315.5617" x2="1315.5617" y1="119.1372" y2="2277.3909"/><line style="stroke:#000000;stroke-width:0.44176013805004316;stroke-dasharray:5.0,5.0;" x1="1561.1803" x2="1561.1803" y1="119.1372" y2="2277.3909"/><line style="stroke:#000000;stroke-width:0.44176013805004316;stroke-dasharray:5.0,5.0;" x1="1759.0889" x2="1759.0889" y1="119.1372" y2="2277.3909"/><line style="stroke:#000000;stroke-width:0.44176013805004316;stroke-dasharray:5.0,5.0;" x1="1965.8326" x2="1965.8326" y1="119.1372" y2="2277.3909"/><text fill="#000000" font-family="sans-serif" font-size="17.6704" lengthAdjust="spacing" textLength="5.3011" x="76.8663" y="73.8309">&#160;</text><text fill="#000000" font-family="sans-serif" font-size="17.6704" lengthAdjust="spacing" textLength="98.9543" x="30.0397" y="94.4003">Akteur A in</text><text fill="#000000" font-family="sans-serif" font-size="17.6704" lengthAdjust="spacing" textLength="123.6928" x="17.6704" y="114.9698">der Rolle User</text><ellipse cx="82.1674" cy="11.9275" fill="#F0F8FF" rx="7.0682" ry="7.0682" style="stroke:#000000;stroke-width:0.44176013805004316;"/><path d="M82.1674,18.9957 L82.1674,42.8507 M70.6816,26.0638 L93.6531,26.0638 M82.1674,42.8507 L70.6816,56.1035 M82.1674,42.8507 L93.6531,56.1035 " fill="none" style="stroke:#000000;stroke-width:0.44176013805004316;"/><text fill="#000000" font-family="sans-serif" font-size="17.6704" lengthAdjust="spacing" textLength="5.3011" x="76.8663" y="2292.9094">&#160;</text><text fill="#000000" font-family="sans-serif" font-size="17.6704" lengthAdjust="spacing" textLength="98.9543" x="30.0397" y="2313.4789">Akteur A in</text><text fill="#000000" font-family="sans-serif" font-size="17.6704" lengthAdjust="spacing" textLength="123.6928" x="17.6704" y="2334.0483">der Rolle User</text><ellipse cx="82.1674" cy="2345.7256" fill="#F0F8FF" rx="7.0682" ry="7.0682" style="stroke:#000000;stroke-width:0.44176013805004316;"/><path d="M82.1674,2352.7938 L82.1674,2376.6488 M70.6816,2359.8619 L93.6531,2359.8619 M82.1674,2376.6488 L70.6816,2389.9016 M82.1674,2376.6488 L93.6531,2389.9016 " fill="none" style="stroke:#000000;stroke-width:0.44176013805004316;"/><rect fill="#F0F8FF" height="53.5082" rx="2.2088" ry="2.2088" style="stroke:#000000;stroke-width:0.44176013805004316;" width="189.0733" x="155.4996" y="64.7455"/><text fill="#000000" font-family="sans-serif" font-size="17.6704" lengthAdjust="spacing" textLength="122.8093" x="188.6316" y="87.3322">TI-Messenger-</text><text fill="#000000" font-family="sans-serif" font-size="17.6704" lengthAdjust="spacing" textLength="52.1277" x="223.9724" y="107.9016">Client</text><rect fill="#F0F8FF" height="53.5082" rx="2.2088" ry="2.2088" style="stroke:#000000;stroke-width:0.44176013805004316;" width="189.0733" x="155.4996" y="2276.5073"/><text fill="#000000" font-family="sans-serif" font-size="17.6704" lengthAdjust="spacing" textLength="122.8093" x="188.6316" y="2299.094">TI-Messenger-</text><text fill="#000000" font-family="sans-serif" font-size="17.6704" lengthAdjust="spacing" textLength="52.1277" x="223.9724" y="2319.6635">Client</text><rect fill="#EFEFFF" height="53.5082" rx="2.2088" ry="2.2088" style="stroke:#000000;stroke-width:0.44176013805004316;" width="189.0733" x="543.365" y="64.7455"/><text fill="#000000" font-family="sans-serif" font-size="17.6704" lengthAdjust="spacing" textLength="100.7213" x="587.541" y="87.3322">Messenger-</text><text fill="#000000" font-family="sans-serif" font-size="17.6704" lengthAdjust="spacing" textLength="47.7101" x="614.0466" y="107.9016">Proxy</text><rect fill="#EFEFFF" height="53.5082" rx="2.2088" ry="2.2088" style="stroke:#000000;stroke-width:0.44176013805004316;" width="189.0733" x="543.365" y="2276.5073"/><text fill="#000000" font-family="sans-serif" font-size="17.6704" lengthAdjust="spacing" textLength="100.7213" x="587.541" y="2299.094">Messenger-</text><text fill="#000000" font-family="sans-serif" font-size="17.6704" lengthAdjust="spacing" textLength="47.7101" x="614.0466" y="2319.6635">Proxy</text><rect fill="#EFEFFF" height="53.5082" rx="2.2088" ry="2.2088" style="stroke:#000000;stroke-width:0.44176013805004316;" width="189.0733" x="798.7023" y="64.7455"/><text fill="#000000" font-family="sans-serif" font-size="17.6704" lengthAdjust="spacing" textLength="60.9629" x="862.7575" y="87.3322">Matrix-</text><text fill="#000000" font-family="sans-serif" font-size="17.6704" lengthAdjust="spacing" textLength="106.0224" x="840.2278" y="107.9016">Homeserver</text><rect fill="#EFEFFF" height="53.5082" rx="2.2088" ry="2.2088" style="stroke:#000000;stroke-width:0.44176013805004316;" width="189.0733" x="798.7023" y="2276.5073"/><text fill="#000000" font-family="sans-serif" font-size="17.6704" lengthAdjust="spacing" textLength="60.9629" x="862.7575" y="2299.094">Matrix-</text><text fill="#000000" font-family="sans-serif" font-size="17.6704" lengthAdjust="spacing" textLength="106.0224" x="840.2278" y="2319.6635">Homeserver</text><rect fill="#EFEFFF" height="53.5082" rx="2.2088" ry="2.2088" style="stroke:#000000;stroke-width:0.44176013805004316;" width="189.0733" x="1023.1165" y="64.7455"/><text fill="#000000" font-family="sans-serif" font-size="17.6704" lengthAdjust="spacing" textLength="100.7213" x="1067.2925" y="87.3322">Messenger-</text><text fill="#000000" font-family="sans-serif" font-size="17.6704" lengthAdjust="spacing" textLength="47.7101" x="1093.7981" y="107.9016">Proxy</text><rect fill="#EFEFFF" height="53.5082" rx="2.2088" ry="2.2088" style="stroke:#000000;stroke-width:0.44176013805004316;" width="189.0733" x="1023.1165" y="2276.5073"/><text fill="#000000" font-family="sans-serif" font-size="17.6704" lengthAdjust="spacing" textLength="100.7213" x="1067.2925" y="2299.094">Messenger-</text><text fill="#000000" font-family="sans-serif" font-size="17.6704" lengthAdjust="spacing" textLength="47.7101" x="1093.7981" y="2319.6635">Proxy</text><rect fill="#EFEFFF" height="53.5082" rx="2.2088" ry="2.2088" style="stroke:#000000;stroke-width:0.44176013805004316;" width="189.0733" x="1221.025" y="64.7455"/><text fill="#000000" font-family="sans-serif" font-size="17.6704" lengthAdjust="spacing" textLength="60.9629" x="1285.0802" y="87.3322">Matrix-</text><text fill="#000000" font-family="sans-serif" font-size="17.6704" lengthAdjust="spacing" textLength="106.0224" x="1262.5505" y="107.9016">Homeserver</text><rect fill="#EFEFFF" height="53.5082" rx="2.2088" ry="2.2088" style="stroke:#000000;stroke-width:0.44176013805004316;" width="189.0733" x="1221.025" y="2276.5073"/><text fill="#000000" font-family="sans-serif" font-size="17.6704" lengthAdjust="spacing" textLength="60.9629" x="1285.0802" y="2299.094">Matrix-</text><text fill="#000000" font-family="sans-serif" font-size="17.6704" lengthAdjust="spacing" textLength="106.0224" x="1262.5505" y="2319.6635">Homeserver</text><rect fill="#EFEFFF" height="53.5082" rx="2.2088" ry="2.2088" style="stroke:#000000;stroke-width:0.44176013805004316;" width="189.0733" x="1466.6437" y="64.7455"/><text fill="#000000" font-family="sans-serif" font-size="17.6704" lengthAdjust="spacing" textLength="48.5936" x="1536.8835" y="87.3322">Push-</text><text fill="#000000" font-family="sans-serif" font-size="17.6704" lengthAdjust="spacing" textLength="77.7498" x="1522.3054" y="107.9016">Gateway</text><rect fill="#EFEFFF" height="53.5082" rx="2.2088" ry="2.2088" style="stroke:#000000;stroke-width:0.44176013805004316;" width="189.0733" x="1466.6437" y="2276.5073"/><text fill="#000000" font-family="sans-serif" font-size="17.6704" lengthAdjust="spacing" textLength="48.5936" x="1536.8835" y="2299.094">Push-</text><text fill="#000000" font-family="sans-serif" font-size="17.6704" lengthAdjust="spacing" textLength="77.7498" x="1522.3054" y="2319.6635">Gateway</text><rect fill="#C9FFC9" height="53.5082" rx="2.2088" ry="2.2088" style="stroke:#000000;stroke-width:0.44176013805004316;" width="189.0733" x="1664.5522" y="64.7455"/><text fill="#000000" font-family="sans-serif" font-size="17.6704" lengthAdjust="spacing" textLength="122.8093" x="1697.6842" y="87.3322">TI-Messenger-</text><text fill="#000000" font-family="sans-serif" font-size="17.6704" lengthAdjust="spacing" textLength="52.1277" x="1733.025" y="107.9016">Client</text><rect fill="#C9FFC9" height="53.5082" rx="2.2088" ry="2.2088" style="stroke:#000000;stroke-width:0.44176013805004316;" width="189.0733" x="1664.5522" y="2276.5073"/><text fill="#000000" font-family="sans-serif" font-size="17.6704" lengthAdjust="spacing" textLength="122.8093" x="1697.6842" y="2299.094">TI-Messenger-</text><text fill="#000000" font-family="sans-serif" font-size="17.6704" lengthAdjust="spacing" textLength="52.1277" x="1733.025" y="2319.6635">Client</text><text fill="#000000" font-family="sans-serif" font-size="17.6704" lengthAdjust="spacing" textLength="5.3011" x="1960.5315" y="73.8309">&#160;</text><text fill="#000000" font-family="sans-serif" font-size="17.6704" lengthAdjust="spacing" textLength="98.9543" x="1913.7049" y="94.4003">Akteur B in</text><text fill="#000000" font-family="sans-serif" font-size="17.6704" lengthAdjust="spacing" textLength="123.6928" x="1901.3356" y="114.9698">der Rolle User</text><ellipse cx="1965.8326" cy="11.9275" fill="#C9FFC9" rx="7.0682" ry="7.0682" style="stroke:#000000;stroke-width:0.44176013805004316;"/><path d="M1965.8326,18.9957 L1965.8326,42.8507 M1954.3469,26.0638 L1977.3184,26.0638 M1965.8326,42.8507 L1954.3469,56.1035 M1965.8326,42.8507 L1977.3184,56.1035 " fill="none" style="stroke:#000000;stroke-width:0.44176013805004316;"/><text fill="#000000" font-family="sans-serif" font-size="17.6704" lengthAdjust="spacing" textLength="5.3011" x="1960.5315" y="2292.9094">&#160;</text><text fill="#000000" font-family="sans-serif" font-size="17.6704" lengthAdjust="spacing" textLength="98.9543" x="1913.7049" y="2313.4789">Akteur B in</text><text fill="#000000" font-family="sans-serif" font-size="17.6704" lengthAdjust="spacing" textLength="123.6928" x="1901.3356" y="2334.0483">der Rolle User</text><ellipse cx="1965.8326" cy="2345.7256" fill="#C9FFC9" rx="7.0682" ry="7.0682" style="stroke:#000000;stroke-width:0.44176013805004316;"/><path d="M1965.8326,2352.7938 L1965.8326,2376.6488 M1954.3469,2359.8619 L1977.3184,2359.8619 M1965.8326,2376.6488 L1954.3469,2389.9016 M1965.8326,2376.6488 L1977.3184,2389.9016 " fill="none" style="stroke:#000000;stroke-width:0.44176013805004316;"/><rect fill="#DCDCDC" height="1275.0026" style="stroke:#000000;stroke-width:0.8835202761000863;" width="8.8352" x="633.484" y="555.0992"/><rect fill="#DCDCDC" height="923.0233" style="stroke:#000000;stroke-width:0.8835202761000863;" width="8.8352" x="888.8214" y="859.7412"/><rect fill="#DCDCDC" height="644.1622" style="stroke:#000000;stroke-width:0.8835202761000863;" width="8.8352" x="1113.2355" y="1078.8956"/><rect fill="#DCDCDC" height="89.56" style="stroke:#000000;stroke-width:0.8835202761000863;" width="8.8352" x="1113.2355" y="1859.9551"/><rect fill="#DCDCDC" height="130.8991" style="stroke:#000000;stroke-width:0.8835202761000863;" width="8.8352" x="1113.2355" y="2039.0751"/><rect fill="#DCDCDC" height="279.8136" style="stroke:#000000;stroke-width:0.8835202761000863;" width="8.8352" x="1311.1441" y="1413.3909"/><rect fill="#DCDCDC" height="29.8533" style="stroke:#000000;stroke-width:0.8835202761000863;" width="8.8352" x="1311.1441" y="1889.8085"/><rect fill="#DCDCDC" height="71.1924" style="stroke:#000000;stroke-width:0.8835202761000863;" width="8.8352" x="1311.1441" y="2068.9284"/><rect fill="#DCDCDC" height="59.7066" style="stroke:#000000;stroke-width:0.8835202761000863;" width="8.8352" x="1556.7627" y="1553.2839"/><rect fill="#C9FFC9" height="357.3563" style="stroke:#000000;stroke-width:0.8835202761000863;" width="8.8352" x="1754.6713" y="1859.9551"/><path d="M4.4176,154.478 L4.4176,207.4892 L970.1053,207.4892 L970.1053,163.3132 L961.2701,154.478 L4.4176,154.478 " fill="#FEFFDD" style="stroke:#181818;stroke-width:0.44176013805004316;"/><path d="M961.2701,154.478 L961.2701,163.3132 L970.1053,163.3132 L961.2701,154.478 " fill="#FEFFDD" style="stroke:#181818;stroke-width:0.44176013805004316;"/><text fill="#000000" font-family="sans-serif" font-size="11.4858" lengthAdjust="spacing" textLength="3.5341" x="238.5505" y="169.5569">&#160;</text><text fill="#000000" font-family="sans-serif" font-size="15.0198" lengthAdjust="spacing" textLength="489.4702" x="238.5505" y="186.2075">Der Akteur A ist erfolgreich beim Messenger Service A angemeldet</text><text fill="#000000" font-family="sans-serif" font-size="11.4858" lengthAdjust="spacing" textLength="3.5341" x="238.5505" y="200.4111">&#160;</text><path d="M1039.9034,216.3727 L1039.9034,269.384 L2042.6989,269.384 L2042.6989,225.2079 L2033.8637,216.3727 L1039.9034,216.3727 " fill="#FEFFDD" style="stroke:#181818;stroke-width:0.44176013805004316;"/><path d="M2033.8637,216.3727 L2033.8637,225.2079 L2042.6989,225.2079 L2033.8637,216.3727 " fill="#FEFFDD" style="stroke:#181818;stroke-width:0.44176013805004316;"/><text fill="#000000" font-family="sans-serif" font-size="11.4858" lengthAdjust="spacing" textLength="3.5341" x="1291.7066" y="231.4517">&#160;</text><text fill="#000000" font-family="sans-serif" font-size="15.0198" lengthAdjust="spacing" textLength="491.2373" x="1291.7066" y="248.1022">Der Akteur B ist erfolgreich beim Messenger Service B angemeldet</text><text fill="#000000" font-family="sans-serif" font-size="11.4858" lengthAdjust="spacing" textLength="3.5341" x="1291.7066" y="262.3059">&#160;</text><path d="M8.8352,302.1225 L70.6816,302.1225 L70.6816,308.4245 L61.8464,317.2597 L8.8352,317.2597 L8.8352,302.1225 " fill="#D3D3D3" style="stroke:#000000;stroke-width:1.3252804141501295;"/><rect fill="none" height="117.9362" style="stroke:#000000;stroke-width:1.3252804141501295;" width="987.7757" x="8.8352" y="302.1225"/><text fill="#000000" font-family="sans-serif" font-size="11.4858" font-weight="bold" lengthAdjust="spacing" textLength="22.088" x="22.088" y="313.6674">opt</text><text fill="#000000" font-family="sans-serif" font-size="9.7187" font-weight="bold" lengthAdjust="spacing" textLength="4.4176" x="83.9344" y="318.0531">[</text><text fill="#000000" font-family="sans-serif" font-size="14.1363" font-weight="bold" lengthAdjust="spacing" textLength="248.2692" x="88.352" y="317.0112">Suche &#252;ber VZD-FHIR-Directory</text><text fill="#000000" font-family="sans-serif" font-size="9.7187" font-weight="bold" lengthAdjust="spacing" textLength="4.4176" x="336.6212" y="318.0531">]</text><rect fill="#F5F5DC" height="51.0026" style="stroke:#000000;stroke-width:1.3252804141501295;" width="975.4064" x="15.0198" y="342.5505"/><path d="M15.0198,342.5505 L73.3322,342.5505 L73.3322,348.7351 L64.497,357.5703 L15.0198,357.5703 L15.0198,342.5505 " fill="#98FB98" style="stroke:#000000;stroke-width:1.7670405522001726;"/><text fill="#000000" font-family="sans-serif" font-size="11.4858" font-weight="bold" lengthAdjust="spacing" textLength="18.5539" x="26.5056" y="354.9789">ref</text><text fill="#000000" font-family="sans-serif" font-size="14.1363" lengthAdjust="spacing" textLength="273.8913" x="365.7774" y="374.2261">Eintr&#228;ge im VZD-FHIR-Directory suchen</text><text fill="#000000" font-family="sans-serif" font-size="10.6022" lengthAdjust="spacing" textLength="3.5341" x="500.956" y="387.4012">&#160;</text><path d="M4.4176,452.7489 L4.4176,505.7601 L970.1053,505.7601 L970.1053,461.5841 L961.2701,452.7489 L4.4176,452.7489 " fill="#FEFFDD" style="stroke:#181818;stroke-width:0.44176013805004316;"/><path d="M961.2701,452.7489 L961.2701,461.5841 L970.1053,461.5841 L961.2701,452.7489 " fill="#FEFFDD" style="stroke:#181818;stroke-width:0.44176013805004316;"/><text fill="#000000" font-family="sans-serif" font-size="11.4858" lengthAdjust="spacing" textLength="3.5341" x="256.6626" y="467.8279">&#160;</text><text fill="#000000" font-family="sans-serif" font-size="15.0198" lengthAdjust="spacing" textLength="453.2459" x="256.6626" y="484.4784">Ein Chatraum wurde bereits durch den Akteur A eingerichtet.</text><text fill="#000000" font-family="sans-serif" font-size="11.4858" lengthAdjust="spacing" textLength="3.5341" x="256.6626" y="498.6821">&#160;</text><polygon fill="#000000" points="622.8818,551.5651,631.717,555.0992,622.8818,558.6333,626.4159,555.0992" style="stroke:#000000;stroke-width:0.8835202761000863;"/><line style="stroke:#000000;stroke-width:0.8835202761000863;" x1="250.0362" x2="628.1829" y1="555.0992" y2="555.0992"/><text fill="#000000" font-family="sans-serif" font-size="15.0198" font-weight="bold" lengthAdjust="spacing" textLength="10.6022" x="256.2209" y="549.7899">1</text><text fill="#000000" font-family="sans-serif" font-size="15.0198" lengthAdjust="spacing" textLength="352.5246" x="270.3572" y="549.7899">POST /_matrix/client/v3/rooms/{roomId}/invite</text><rect fill="#F5F5DC" height="52.0311" style="stroke:#000000;stroke-width:1.3252804141501295;" width="194.3745" x="540.7144" y="584.2554"/><path d="M540.7144,584.2554 L599.0267,584.2554 L599.0267,590.44 L590.1915,599.2752 L540.7144,599.2752 L540.7144,584.2554 " fill="#98FB98" style="stroke:#000000;stroke-width:1.7670405522001726;"/><text fill="#000000" font-family="sans-serif" font-size="11.4858" font-weight="bold" lengthAdjust="spacing" textLength="18.5539" x="552.2002" y="596.6838">ref</text><text fill="#000000" font-family="sans-serif" font-size="15.0198" lengthAdjust="spacing" textLength="164.3348" x="555.7343" y="616.7511">Berechtigungspr&#252;fung</text><text fill="#000000" font-family="sans-serif" font-size="10.6022" lengthAdjust="spacing" textLength="3.5341" x="636.1346" y="630.1346">&#160;</text><path d="M8.8352,668.9767 L86.585,668.9767 L86.585,675.2787 L77.7498,684.1139 L8.8352,684.1139 L8.8352,668.9767 " fill="#D3D3D3" style="stroke:#000000;stroke-width:1.3252804141501295;"/><rect fill="none" height="139.7066" style="stroke:#000000;stroke-width:1.3252804141501295;" width="732.4383" x="8.8352" y="668.9767"/><text fill="#000000" font-family="sans-serif" font-size="11.4858" font-weight="bold" lengthAdjust="spacing" textLength="37.9914" x="22.088" y="680.5216">break</text><text fill="#000000" font-family="sans-serif" font-size="9.7187" font-weight="bold" lengthAdjust="spacing" textLength="4.4176" x="99.8378" y="684.9072">[</text><text fill="#000000" font-family="sans-serif" font-size="14.1363" font-weight="bold" lengthAdjust="spacing" textLength="65.3805" x="104.2554" y="683.8654">Abbruch</text><text fill="#000000" font-family="sans-serif" font-size="9.7187" font-weight="bold" lengthAdjust="spacing" textLength="4.4176" x="169.6359" y="684.9072">]</text><polygon fill="#000000" points="259.755,728.6557,250.9198,732.1898,259.755,735.7239,256.2209,732.1898" style="stroke:#000000;stroke-width:0.8835202761000863;"/><line style="stroke:#000000;stroke-width:0.8835202761000863;stroke-dasharray:2.0,2.0;" x1="254.4538" x2="632.6005" y1="732.1898" y2="732.1898"/><text fill="#000000" font-family="sans-serif" font-size="15.0198" font-weight="bold" lengthAdjust="spacing" textLength="10.6022" x="463.8481" y="726.8805">2</text><text fill="#000000" font-family="sans-serif" font-size="15.0198" lengthAdjust="spacing" textLength="149.3149" x="477.9845" y="726.8805">HTTP 403 Forbidden</text><polygon fill="#000000" points="91.8861,775.9931,83.0509,779.5272,91.8861,783.0613,88.352,779.5272" style="stroke:#000000;stroke-width:0.8835202761000863;"/><line style="stroke:#000000;stroke-width:0.8835202761000863;stroke-dasharray:2.0,2.0;" x1="86.585" x2="249.1527" y1="779.5272" y2="779.5272"/><text fill="#000000" font-family="sans-serif" font-size="15.0198" font-weight="bold" lengthAdjust="spacing" textLength="10.6022" x="109.5565" y="765.4758">3</text><text fill="#000000" font-family="sans-serif" font-size="15.0198" lengthAdjust="spacing" textLength="115.7412" x="123.6928" y="756.7338">Einladung nicht</text><text fill="#000000" font-family="sans-serif" font-size="15.0198" lengthAdjust="spacing" textLength="78.6333" x="123.6928" y="774.2179">erfolgreich</text><polygon fill="#000000" points="878.2192,856.2071,887.0544,859.7412,878.2192,863.2752,881.7532,859.7412" style="stroke:#000000;stroke-width:0.8835202761000863;"/><line style="stroke:#000000;stroke-width:0.8835202761000863;" x1="642.3192" x2="883.5203" y1="859.7412" y2="859.7412"/><text fill="#000000" font-family="sans-serif" font-size="15.0198" font-weight="bold" lengthAdjust="spacing" textLength="10.6022" x="648.5039" y="854.4318">4</text><text fill="#000000" font-family="sans-serif" font-size="15.0198" lengthAdjust="spacing" textLength="125.4599" x="662.6402" y="854.4318">HTTP(S) Forward</text><line style="stroke:#000000;stroke-width:0.8835202761000863;" x1="897.6566" x2="934.7645" y1="889.5945" y2="889.5945"/><line style="stroke:#000000;stroke-width:0.8835202761000863;" x1="934.7645" x2="934.7645" y1="889.5945" y2="901.0802"/><line style="stroke:#000000;stroke-width:0.8835202761000863;" x1="898.5401" x2="934.7645" y1="901.0802" y2="901.0802"/><polygon fill="#000000" points="907.3753,897.5462,898.5401,901.0802,907.3753,904.6143,903.8412,901.0802" style="stroke:#000000;stroke-width:0.8835202761000863;"/><text fill="#000000" font-family="sans-serif" font-size="15.0198" font-weight="bold" lengthAdjust="spacing" textLength="10.6022" x="903.8412" y="884.2852">5</text><text fill="#000000" font-family="sans-serif" font-size="15.0198" lengthAdjust="spacing" textLength="133.4116" x="917.9776" y="884.2852">Invite verarbeiten</text><polygon fill="#000000" points="652.038,944.8835,643.2028,948.4176,652.038,951.9517,648.5039,948.4176" style="stroke:#000000;stroke-width:0.8835202761000863;"/><line style="stroke:#000000;stroke-width:0.8835202761000863;" x1="646.7368" x2="887.9379" y1="948.4176" y2="948.4176"/><text fill="#000000" font-family="sans-serif" font-size="15.0198" font-weight="bold" lengthAdjust="spacing" textLength="10.6022" x="657.3391" y="934.3663">6</text><text fill="#000000" font-family="sans-serif" font-size="15.0198" lengthAdjust="spacing" textLength="211.1613" x="671.4754" y="925.6242">POST /_matrix/federation/v1</text><text fill="#000000" font-family="sans-serif" font-size="15.0198" lengthAdjust="spacing" textLength="206.7437" x="671.4754" y="943.1083">/invite/{roomId}/{eventId}</text><rect fill="#F5F5DC" height="52.0311" style="stroke:#000000;stroke-width:1.3252804141501295;" width="194.3745" x="540.7144" y="977.5738"/><path d="M540.7144,977.5738 L599.0267,977.5738 L599.0267,983.7584 L590.1915,992.5936 L540.7144,992.5936 L540.7144,977.5738 " fill="#98FB98" style="stroke:#000000;stroke-width:1.7670405522001726;"/><text fill="#000000" font-family="sans-serif" font-size="11.4858" font-weight="bold" lengthAdjust="spacing" textLength="18.5539" x="552.2002" y="990.0022">ref</text><text fill="#000000" font-family="sans-serif" font-size="15.0198" lengthAdjust="spacing" textLength="164.3348" x="555.7343" y="1010.0695">Berechtigungspr&#252;fung</text><text fill="#000000" font-family="sans-serif" font-size="10.6022" lengthAdjust="spacing" textLength="3.5341" x="636.1346" y="1023.453">&#160;</text><polygon fill="#000000" points="1102.6333,1075.3615,1111.4685,1078.8956,1102.6333,1082.4297,1106.1674,1078.8956" style="stroke:#000000;stroke-width:0.8835202761000863;"/><line style="stroke:#000000;stroke-width:0.8835202761000863;" x1="642.3192" x2="1107.9344" y1="1078.8956" y2="1078.8956"/><text fill="#000000" font-family="sans-serif" font-size="15.0198" font-weight="bold" lengthAdjust="spacing" textLength="10.6022" x="648.5039" y="1073.5863">7</text><text fill="#000000" font-family="sans-serif" font-size="15.0198" lengthAdjust="spacing" textLength="125.4599" x="662.6402" y="1073.5863">HTTP(S) Forward</text><rect fill="#F5F5DC" height="52.0311" style="stroke:#000000;stroke-width:1.3252804141501295;" width="194.3745" x="1020.4659" y="1108.0518"/><path d="M1020.4659,1108.0518 L1078.7783,1108.0518 L1078.7783,1114.2364 L1069.9431,1123.0716 L1020.4659,1123.0716 L1020.4659,1108.0518 " fill="#98FB98" style="stroke:#000000;stroke-width:1.7670405522001726;"/><text fill="#000000" font-family="sans-serif" font-size="11.4858" font-weight="bold" lengthAdjust="spacing" textLength="18.5539" x="1031.9517" y="1120.4802">ref</text><text fill="#000000" font-family="sans-serif" font-size="15.0198" lengthAdjust="spacing" textLength="164.3348" x="1035.4858" y="1140.5475">Berechtigungspr&#252;fung</text><text fill="#000000" font-family="sans-serif" font-size="10.6022" lengthAdjust="spacing" textLength="3.5341" x="1115.8861" y="1153.931">&#160;</text><path d="M8.8352,1192.7731 L86.585,1192.7731 L86.585,1199.0751 L77.7498,1207.9103 L8.8352,1207.9103 L8.8352,1192.7731 " fill="#D3D3D3" style="stroke:#000000;stroke-width:1.3252804141501295;"/><rect fill="none" height="169.56" style="stroke:#000000;stroke-width:1.3252804141501295;" width="1212.1898" x="8.8352" y="1192.7731"/><text fill="#000000" font-family="sans-serif" font-size="11.4858" font-weight="bold" lengthAdjust="spacing" textLength="37.9914" x="22.088" y="1204.3179">break</text><text fill="#000000" font-family="sans-serif" font-size="9.7187" font-weight="bold" lengthAdjust="spacing" textLength="4.4176" x="99.8378" y="1208.7036">[</text><text fill="#000000" font-family="sans-serif" font-size="14.1363" font-weight="bold" lengthAdjust="spacing" textLength="65.3805" x="104.2554" y="1207.6618">Abbruch</text><text fill="#000000" font-family="sans-serif" font-size="9.7187" font-weight="bold" lengthAdjust="spacing" textLength="4.4176" x="169.6359" y="1208.7036">]</text><polygon fill="#000000" points="652.038,1252.4521,643.2028,1255.9862,652.038,1259.5203,648.5039,1255.9862" style="stroke:#000000;stroke-width:0.8835202761000863;"/><line style="stroke:#000000;stroke-width:0.8835202761000863;stroke-dasharray:2.0,2.0;" x1="646.7368" x2="1112.352" y1="1255.9862" y2="1255.9862"/><text fill="#000000" font-family="sans-serif" font-size="15.0198" font-weight="bold" lengthAdjust="spacing" textLength="10.6022" x="943.5997" y="1250.6769">8</text><text fill="#000000" font-family="sans-serif" font-size="15.0198" lengthAdjust="spacing" textLength="149.3149" x="957.736" y="1250.6769">HTTP 403 Forbidden</text><polygon fill="#000000" points="259.755,1282.3054,250.9198,1285.8395,259.755,1289.3736,256.2209,1285.8395" style="stroke:#000000;stroke-width:0.8835202761000863;"/><line style="stroke:#000000;stroke-width:0.8835202761000863;stroke-dasharray:2.0,2.0;" x1="254.4538" x2="632.6005" y1="1285.8395" y2="1285.8395"/><text fill="#000000" font-family="sans-serif" font-size="15.0198" font-weight="bold" lengthAdjust="spacing" textLength="10.6022" x="491.2373" y="1280.5302">9</text><text fill="#000000" font-family="sans-serif" font-size="15.0198" lengthAdjust="spacing" textLength="121.9258" x="505.3736" y="1280.5302">HTTP(S) forward</text><polygon fill="#000000" points="91.8861,1329.6428,83.0509,1333.1769,91.8861,1336.711,88.352,1333.1769" style="stroke:#000000;stroke-width:0.8835202761000863;"/><line style="stroke:#000000;stroke-width:0.8835202761000863;stroke-dasharray:2.0,2.0;" x1="86.585" x2="249.1527" y1="1333.1769" y2="1333.1769"/><text fill="#000000" font-family="sans-serif" font-size="15.0198" font-weight="bold" lengthAdjust="spacing" textLength="21.2045" x="98.9543" y="1319.1255">10</text><text fill="#000000" font-family="sans-serif" font-size="15.0198" lengthAdjust="spacing" textLength="115.7412" x="123.6928" y="1310.3835">Einladung nicht</text><text fill="#000000" font-family="sans-serif" font-size="15.0198" lengthAdjust="spacing" textLength="78.6333" x="123.6928" y="1327.8676">erfolgreich</text><polygon fill="#000000" points="1300.5418,1409.8568,1309.377,1413.3909,1300.5418,1416.9249,1304.0759,1413.3909" style="stroke:#000000;stroke-width:0.8835202761000863;"/><line style="stroke:#000000;stroke-width:0.8835202761000863;" x1="1122.0708" x2="1305.843" y1="1413.3909" y2="1413.3909"/><text fill="#000000" font-family="sans-serif" font-size="15.0198" font-weight="bold" lengthAdjust="spacing" textLength="21.2045" x="1128.2554" y="1408.0815">11</text><text fill="#000000" font-family="sans-serif" font-size="15.0198" lengthAdjust="spacing" textLength="125.4599" x="1152.994" y="1408.0815">HTTP(S) Forward</text><line style="stroke:#000000;stroke-width:0.8835202761000863;" x1="1319.9793" x2="1357.0871" y1="1443.2442" y2="1443.2442"/><line style="stroke:#000000;stroke-width:0.8835202761000863;" x1="1357.0871" x2="1357.0871" y1="1443.2442" y2="1454.7299"/><line style="stroke:#000000;stroke-width:0.8835202761000863;" x1="1320.8628" x2="1357.0871" y1="1454.7299" y2="1454.7299"/><polygon fill="#000000" points="1329.698,1451.1959,1320.8628,1454.7299,1329.698,1458.264,1326.1639,1454.7299" style="stroke:#000000;stroke-width:0.8835202761000863;"/><text fill="#000000" font-family="sans-serif" font-size="15.0198" font-weight="bold" lengthAdjust="spacing" textLength="21.2045" x="1326.1639" y="1437.9349">12</text><text fill="#000000" font-family="sans-serif" font-size="15.0198" lengthAdjust="spacing" textLength="133.4116" x="1350.9025" y="1437.9349">Invite verarbeiten</text><path d="M1212.1898,1490.0708 L1274.0362,1490.0708 L1274.0362,1496.3727 L1265.201,1505.2079 L1212.1898,1505.2079 L1212.1898,1490.0708 " fill="#D3D3D3" style="stroke:#000000;stroke-width:1.3252804141501295;"/><rect fill="none" height="152.0759" style="stroke:#000000;stroke-width:1.3252804141501295;" width="650.2709" x="1212.1898" y="1490.0708"/><text fill="#000000" font-family="sans-serif" font-size="11.4858" font-weight="bold" lengthAdjust="spacing" textLength="22.088" x="1225.4426" y="1501.6156">opt</text><text fill="#000000" font-family="sans-serif" font-size="9.7187" font-weight="bold" lengthAdjust="spacing" textLength="4.4176" x="1287.289" y="1506.0013">[</text><text fill="#000000" font-family="sans-serif" font-size="14.1363" font-weight="bold" lengthAdjust="spacing" textLength="174.0535" x="1291.7066" y="1504.9594">Pushbenachrichtigung</text><text fill="#000000" font-family="sans-serif" font-size="9.7187" font-weight="bold" lengthAdjust="spacing" textLength="4.4176" x="1465.7601" y="1506.0013">]</text><polygon fill="#000000" points="1546.1605,1549.7498,1554.9957,1553.2839,1546.1605,1556.8179,1549.6946,1553.2839" style="stroke:#000000;stroke-width:0.8835202761000863;"/><line style="stroke:#000000;stroke-width:0.8835202761000863;" x1="1319.9793" x2="1551.4616" y1="1553.2839" y2="1553.2839"/><text fill="#000000" font-family="sans-serif" font-size="15.0198" font-weight="bold" lengthAdjust="spacing" textLength="21.2045" x="1326.1639" y="1547.9745">13</text><text fill="#000000" font-family="sans-serif" font-size="15.0198" lengthAdjust="spacing" textLength="195.258" x="1350.9025" y="1547.9745">POST /_matrix/push/notify</text><polygon fill="#000000" points="1748.4866,1579.6031,1757.3218,1583.1372,1748.4866,1586.6713,1752.0207,1583.1372" style="stroke:#000000;stroke-width:0.8835202761000863;"/><line style="stroke:#000000;stroke-width:0.8835202761000863;" x1="1565.5979" x2="1753.7877" y1="1583.1372" y2="1583.1372"/><text fill="#000000" font-family="sans-serif" font-size="15.0198" font-weight="bold" lengthAdjust="spacing" textLength="21.2045" x="1571.7826" y="1577.8279">14</text><text fill="#000000" font-family="sans-serif" font-size="15.0198" lengthAdjust="spacing" textLength="85.7015" x="1596.5211" y="1577.8279">Notification</text><polygon fill="#000000" points="1329.698,1609.4564,1320.8628,1612.9905,1329.698,1616.5246,1326.1639,1612.9905" style="stroke:#000000;stroke-width:0.8835202761000863;"/><line style="stroke:#000000;stroke-width:0.8835202761000863;stroke-dasharray:2.0,2.0;" x1="1324.3969" x2="1560.2968" y1="1612.9905" y2="1612.9905"/><text fill="#000000" font-family="sans-serif" font-size="15.0198" font-weight="bold" lengthAdjust="spacing" textLength="21.2045" x="1482.547" y="1607.6812">15</text><text fill="#000000" font-family="sans-serif" font-size="15.0198" lengthAdjust="spacing" textLength="47.7101" x="1507.2856" y="1607.6812">Status</text><polygon fill="#000000" points="1131.7895,1689.6704,1122.9543,1693.2045,1131.7895,1696.7386,1128.2554,1693.2045" style="stroke:#000000;stroke-width:0.8835202761000863;"/><line style="stroke:#000000;stroke-width:0.8835202761000863;stroke-dasharray:2.0,2.0;" x1="1126.4884" x2="1314.6782" y1="1693.2045" y2="1693.2045"/><text fill="#000000" font-family="sans-serif" font-size="15.0198" font-weight="bold" lengthAdjust="spacing" textLength="21.2045" x="1236.9284" y="1687.8952">16</text><text fill="#000000" font-family="sans-serif" font-size="15.0198" lengthAdjust="spacing" textLength="47.7101" x="1261.667" y="1687.8952">Status</text><polygon fill="#000000" points="652.038,1719.5237,643.2028,1723.0578,652.038,1726.5919,648.5039,1723.0578" style="stroke:#000000;stroke-width:0.8835202761000863;"/><line style="stroke:#000000;stroke-width:0.8835202761000863;stroke-dasharray:2.0,2.0;" x1="646.7368" x2="1116.7696" y1="1723.0578" y2="1723.0578"/><text fill="#000000" font-family="sans-serif" font-size="15.0198" font-weight="bold" lengthAdjust="spacing" textLength="21.2045" x="961.2701" y="1717.7485">17</text><text fill="#000000" font-family="sans-serif" font-size="15.0198" lengthAdjust="spacing" textLength="125.4599" x="986.0086" y="1717.7485">HTTP(S) Forward</text><polygon fill="#000000" points="878.2192,1749.377,887.0544,1752.9111,878.2192,1756.4452,881.7532,1752.9111" style="stroke:#000000;stroke-width:0.8835202761000863;"/><line style="stroke:#000000;stroke-width:0.8835202761000863;stroke-dasharray:2.0,2.0;" x1="642.3192" x2="883.5203" y1="1752.9111" y2="1752.9111"/><text fill="#000000" font-family="sans-serif" font-size="15.0198" font-weight="bold" lengthAdjust="spacing" textLength="21.2045" x="648.5039" y="1747.6018">18</text><text fill="#000000" font-family="sans-serif" font-size="15.0198" lengthAdjust="spacing" textLength="125.4599" x="673.2425" y="1747.6018">HTTP(S) Forward</text><polygon fill="#000000" points="652.038,1779.2304,643.2028,1782.7645,652.038,1786.2985,648.5039,1782.7645" style="stroke:#000000;stroke-width:0.8835202761000863;"/><line style="stroke:#000000;stroke-width:0.8835202761000863;stroke-dasharray:2.0,2.0;" x1="646.7368" x2="892.3555" y1="1782.7645" y2="1782.7645"/><text fill="#000000" font-family="sans-serif" font-size="15.0198" font-weight="bold" lengthAdjust="spacing" textLength="21.2045" x="814.6057" y="1777.4551">19</text><text fill="#000000" font-family="sans-serif" font-size="15.0198" lengthAdjust="spacing" textLength="47.7101" x="839.3443" y="1777.4551">Status</text><polygon fill="#000000" points="259.755,1826.5677,250.9198,1830.1018,259.755,1833.6359,256.2209,1830.1018" style="stroke:#000000;stroke-width:0.8835202761000863;"/><line style="stroke:#000000;stroke-width:0.8835202761000863;stroke-dasharray:2.0,2.0;" x1="254.4538" x2="637.0181" y1="1830.1018" y2="1830.1018"/><text fill="#000000" font-family="sans-serif" font-size="15.0198" font-weight="bold" lengthAdjust="spacing" textLength="21.2045" x="477.1009" y="1816.0505">20</text><text fill="#000000" font-family="sans-serif" font-size="15.0198" lengthAdjust="spacing" textLength="99.8378" x="501.8395" y="1807.3085">Nutzer in den</text><text fill="#000000" font-family="sans-serif" font-size="15.0198" lengthAdjust="spacing" textLength="129.8775" x="501.8395" y="1824.7925">Raum eingeladen</text><polygon fill="#000000" points="1131.7895,1856.4211,1122.9543,1859.9551,1131.7895,1863.4892,1128.2554,1859.9551" style="stroke:#000000;stroke-width:0.8835202761000863;"/><line style="stroke:#000000;stroke-width:0.8835202761000863;" x1="1126.4884" x2="1753.7877" y1="1859.9551" y2="1859.9551"/><text fill="#000000" font-family="sans-serif" font-size="15.0198" font-weight="bold" lengthAdjust="spacing" textLength="21.2045" x="1518.7714" y="1854.6458">21</text><text fill="#000000" font-family="sans-serif" font-size="15.0198" lengthAdjust="spacing" textLength="204.9767" x="1543.5099" y="1854.6458">GET /_matrix/client/v3/sync</text><polygon fill="#000000" points="1300.5418,1886.2744,1309.377,1889.8085,1300.5418,1893.3425,1304.0759,1889.8085" style="stroke:#000000;stroke-width:0.8835202761000863;"/><line style="stroke:#000000;stroke-width:0.8835202761000863;" x1="1122.0708" x2="1305.843" y1="1889.8085" y2="1889.8085"/><text fill="#000000" font-family="sans-serif" font-size="15.0198" font-weight="bold" lengthAdjust="spacing" textLength="21.2045" x="1128.2554" y="1884.4991">22</text><text fill="#000000" font-family="sans-serif" font-size="15.0198" lengthAdjust="spacing" textLength="125.4599" x="1152.994" y="1884.4991">HTTP(S) Forward</text><polygon fill="#000000" points="1131.7895,1916.1277,1122.9543,1919.6618,1131.7895,1923.1959,1128.2554,1919.6618" style="stroke:#000000;stroke-width:0.8835202761000863;"/><line style="stroke:#000000;stroke-width:0.8835202761000863;stroke-dasharray:2.0,2.0;" x1="1126.4884" x2="1314.6782" y1="1919.6618" y2="1919.6618"/><text fill="#000000" font-family="sans-serif" font-size="15.0198" font-weight="bold" lengthAdjust="spacing" textLength="21.2045" x="1236.9284" y="1914.3525">23</text><text fill="#000000" font-family="sans-serif" font-size="15.0198" lengthAdjust="spacing" textLength="47.7101" x="1261.667" y="1914.3525">Status</text><polygon fill="#000000" points="1744.069,1945.981,1752.9042,1949.5151,1744.069,1953.0492,1747.6031,1949.5151" style="stroke:#000000;stroke-width:0.8835202761000863;"/><line style="stroke:#000000;stroke-width:0.8835202761000863;stroke-dasharray:2.0,2.0;" x1="1117.6531" x2="1749.3701" y1="1949.5151" y2="1949.5151"/><text fill="#000000" font-family="sans-serif" font-size="15.0198" font-weight="bold" lengthAdjust="spacing" textLength="21.2045" x="1123.8378" y="1944.2058">24</text><text fill="#000000" font-family="sans-serif" font-size="15.0198" lengthAdjust="spacing" textLength="125.4599" x="1148.5764" y="1944.2058">HTTP(S) Forward</text><polygon fill="#000000" points="1955.2304,1975.8343,1964.0656,1979.3684,1955.2304,1982.9025,1958.7645,1979.3684" style="stroke:#000000;stroke-width:0.8835202761000863;"/><line style="stroke:#000000;stroke-width:0.8835202761000863;" x1="1763.5065" x2="1960.5315" y1="1979.3684" y2="1979.3684"/><text fill="#000000" font-family="sans-serif" font-size="15.0198" font-weight="bold" lengthAdjust="spacing" textLength="21.2045" x="1769.6911" y="1974.0591">25</text><text fill="#000000" font-family="sans-serif" font-size="15.0198" lengthAdjust="spacing" textLength="144.8973" x="1794.4297" y="1974.0591">Einladung anzeigen</text><polygon fill="#000000" points="1773.2252,2005.6877,1764.39,2009.2217,1773.2252,2012.7558,1769.6911,2009.2217" style="stroke:#000000;stroke-width:0.8835202761000863;"/><line style="stroke:#000000;stroke-width:0.8835202761000863;stroke-dasharray:2.0,2.0;" x1="1767.9241" x2="1964.9491" y1="2009.2217" y2="2009.2217"/><text fill="#000000" font-family="sans-serif" font-size="15.0198" font-weight="bold" lengthAdjust="spacing" textLength="21.2045" x="1778.5263" y="2003.9124">26</text><text fill="#000000" font-family="sans-serif" font-size="15.0198" lengthAdjust="spacing" textLength="156.3831" x="1803.2649" y="2003.9124">Einladung best&#228;tigen</text><polygon fill="#000000" points="1131.7895,2035.541,1122.9543,2039.0751,1131.7895,2042.6091,1128.2554,2039.0751" style="stroke:#000000;stroke-width:0.8835202761000863;"/><line style="stroke:#000000;stroke-width:0.8835202761000863;" x1="1126.4884" x2="1753.7877" y1="2039.0751" y2="2039.0751"/><text fill="#000000" font-family="sans-serif" font-size="15.0198" font-weight="bold" lengthAdjust="spacing" textLength="21.2045" x="1437.4875" y="2033.7657">27</text><text fill="#000000" font-family="sans-serif" font-size="15.0198" lengthAdjust="spacing" textLength="286.2606" x="1462.2261" y="2033.7657">POST /_matrix/client/v3/join/{roomId}</text><polygon fill="#000000" points="1300.5418,2065.3943,1309.377,2068.9284,1300.5418,2072.4625,1304.0759,2068.9284" style="stroke:#000000;stroke-width:0.8835202761000863;"/><line style="stroke:#000000;stroke-width:0.8835202761000863;stroke-dasharray:2.0,2.0;" x1="1122.0708" x2="1305.843" y1="2068.9284" y2="2068.9284"/><text fill="#000000" font-family="sans-serif" font-size="15.0198" font-weight="bold" lengthAdjust="spacing" textLength="21.2045" x="1128.2554" y="2063.6191">28</text><text fill="#000000" font-family="sans-serif" font-size="15.0198" lengthAdjust="spacing" textLength="125.4599" x="1152.994" y="2063.6191">HTTP(S) Forward</text><line style="stroke:#000000;stroke-width:0.8835202761000863;stroke-dasharray:2.0,2.0;" x1="1319.9793" x2="1357.0871" y1="2098.7817" y2="2098.7817"/><line style="stroke:#000000;stroke-width:0.8835202761000863;stroke-dasharray:2.0,2.0;" x1="1357.0871" x2="1357.0871" y1="2098.7817" y2="2110.2675"/><line style="stroke:#000000;stroke-width:0.8835202761000863;stroke-dasharray:2.0,2.0;" x1="1320.8628" x2="1357.0871" y1="2110.2675" y2="2110.2675"/><polygon fill="#000000" points="1329.698,2106.7334,1320.8628,2110.2675,1329.698,2113.8016,1326.1639,2110.2675" style="stroke:#000000;stroke-width:0.8835202761000863;"/><text fill="#000000" font-family="sans-serif" font-size="15.0198" font-weight="bold" lengthAdjust="spacing" textLength="21.2045" x="1326.1639" y="2093.4724">29</text><text fill="#000000" font-family="sans-serif" font-size="15.0198" lengthAdjust="spacing" textLength="112.2071" x="1350.9025" y="2093.4724">Invite ausl&#246;sen</text><polygon fill="#000000" points="1131.7895,2136.5867,1122.9543,2140.1208,1131.7895,2143.6549,1128.2554,2140.1208" style="stroke:#000000;stroke-width:0.8835202761000863;"/><line style="stroke:#000000;stroke-width:0.8835202761000863;stroke-dasharray:2.0,2.0;" x1="1126.4884" x2="1314.6782" y1="2140.1208" y2="2140.1208"/><text fill="#000000" font-family="sans-serif" font-size="15.0198" font-weight="bold" lengthAdjust="spacing" textLength="21.2045" x="1236.9284" y="2134.8115">30</text><text fill="#000000" font-family="sans-serif" font-size="15.0198" lengthAdjust="spacing" textLength="47.7101" x="1261.667" y="2134.8115">Status</text><polygon fill="#000000" points="1744.069,2166.44,1752.9042,2169.9741,1744.069,2173.5082,1747.6031,2169.9741" style="stroke:#000000;stroke-width:0.8835202761000863;"/><line style="stroke:#000000;stroke-width:0.8835202761000863;stroke-dasharray:2.0,2.0;" x1="1117.6531" x2="1749.3701" y1="2169.9741" y2="2169.9741"/><text fill="#000000" font-family="sans-serif" font-size="15.0198" font-weight="bold" lengthAdjust="spacing" textLength="21.2045" x="1123.8378" y="2164.6648">31</text><text fill="#000000" font-family="sans-serif" font-size="15.0198" lengthAdjust="spacing" textLength="47.7101" x="1148.5764" y="2164.6648">Status</text><polygon fill="#000000" points="1955.2304,2213.7774,1964.0656,2217.3115,1955.2304,2220.8456,1958.7645,2217.3115" style="stroke:#000000;stroke-width:0.8835202761000863;"/><line style="stroke:#000000;stroke-width:0.8835202761000863;stroke-dasharray:2.0,2.0;" x1="1759.0889" x2="1960.5315" y1="2217.3115" y2="2217.3115"/><text fill="#000000" font-family="sans-serif" font-size="15.0198" font-weight="bold" lengthAdjust="spacing" textLength="21.2045" x="1765.2735" y="2203.2601">32</text><text fill="#000000" font-family="sans-serif" font-size="15.0198" lengthAdjust="spacing" textLength="108.673" x="1790.0121" y="2194.5181">Nutzer ist dem</text><text fill="#000000" font-family="sans-serif" font-size="15.0198" lengthAdjust="spacing" textLength="134.2951" x="1790.0121" y="2212.0022">Raum beigetreten</text></g></svg>