<?xml version="1.0" encoding="us-ascii" standalone="no"?><svg xmlns="http://www.w3.org/2000/svg" xmlns:xlink="http://www.w3.org/1999/xlink" contentStyleType="text/css" height="1590px" preserveAspectRatio="none" style="width:1546px;height:1590px;background:#FFFFFF;" version="1.1" viewBox="0 0 1546 1590" width="1546px" zoomAndPan="magnify"><defs/><g><rect fill="#F5F5F5" height="1578.7031" style="stroke:#181818;stroke-width:0.5;" width="775" x="748.5" y="6"/><text fill="#000000" font-family="sans-serif" font-size="18" font-weight="bold" lengthAdjust="spacing" textLength="200" x="1033.5" y="22.708">VZD-FHIR-Directory</text><text fill="#000000" font-family="sans-serif" font-size="13" font-weight="bold" lengthAdjust="spacing" textLength="5" x="1233.5" y="23.8872">&#160;</text><rect fill="#DCDCDC" height="1344.5781" style="stroke:#000000;stroke-width:1.0;" width="10" x="301.5" y="121.5625"/><rect fill="#DCDCDC" height="174.9922" style="stroke:#000000;stroke-width:1.0;" width="10" x="854.5" y="650.0859"/><rect fill="#DCDCDC" height="173.1563" style="stroke:#000000;stroke-width:1.0;" width="10" x="854.5" y="983.0703"/><rect fill="#DCDCDC" height="33.7891" style="stroke:#000000;stroke-width:1.0;" width="10" x="854.5" y="1325.5625"/><rect fill="#DCDCDC" height="33.7891" style="stroke:#000000;stroke-width:1.0;" width="10" x="1407.5" y="757.5"/><rect fill="#DCDCDC" height="33.7891" style="stroke:#000000;stroke-width:1.0;" width="10" x="1407.5" y="1088.6484"/><rect fill="none" height="143.1719" style="stroke:#000000;stroke-width:1.5;" width="1509.5" x="20" y="346.9844"/><rect fill="none" height="953.9844" style="stroke:#000000;stroke-width:1.5;" width="1529.5" x="10" y="504.1563"/><rect fill="#F0F8FF" height="666.1016" style="stroke:#000000;stroke-width:1.5;" width="1509.5" x="20" y="556.9141"/><rect fill="#F0F8FF" height="331.1484" style="stroke:none;stroke-width:1.0;" width="1509.5" x="20" y="891.8672"/><rect fill="#FFE4E1" height="143.5" style="stroke:#000000;stroke-width:1.5;" width="956.5" x="20" y="1282.6406"/><line style="stroke:#000000;stroke-width:0.5;stroke-dasharray:5.0,5.0;" x1="98" x2="98" y1="111.5625" y2="1475.1406"/><line style="stroke:#000000;stroke-width:0.5;stroke-dasharray:5.0,5.0;" x1="306.5" x2="306.5" y1="111.5625" y2="1475.1406"/><line style="stroke:#000000;stroke-width:0.5;stroke-dasharray:5.0,5.0;" x1="530.5" x2="530.5" y1="111.5625" y2="1475.1406"/><line style="stroke:#000000;stroke-width:0.5;stroke-dasharray:5.0,5.0;" x1="859.5" x2="859.5" y1="111.5625" y2="1475.1406"/><line style="stroke:#000000;stroke-width:0.5;stroke-dasharray:5.0,5.0;" x1="1108.5" x2="1108.5" y1="111.5625" y2="1475.1406"/><line style="stroke:#000000;stroke-width:0.5;stroke-dasharray:5.0,5.0;" x1="1412.5" x2="1412.5" y1="111.5625" y2="1475.1406"/><text fill="#000000" font-family="sans-serif" font-size="20" lengthAdjust="spacing" textLength="131" x="30" y="83.5645">Akteur in der</text><text fill="#000000" font-family="sans-serif" font-size="20" lengthAdjust="spacing" textLength="101" x="45" y="106.8457">Rolle User</text><ellipse cx="98.5" cy="13.5" fill="#DCDCDC" rx="8" ry="8" style="stroke:#000000;stroke-width:0.5;"/><path d="M98.5,21.5 L98.5,48.5 M85.5,29.5 L111.5,29.5 M98.5,48.5 L85.5,63.5 M98.5,48.5 L111.5,63.5 " fill="none" style="stroke:#000000;stroke-width:0.5;"/><text fill="#000000" font-family="sans-serif" font-size="20" lengthAdjust="spacing" textLength="131" x="30" y="1492.7051">Akteur in der</text><text fill="#000000" font-family="sans-serif" font-size="20" lengthAdjust="spacing" textLength="101" x="45" y="1515.9863">Rolle User</text><ellipse cx="98.5" cy="1529.2031" fill="#DCDCDC" rx="8" ry="8" style="stroke:#000000;stroke-width:0.5;"/><path d="M98.5,1537.2031 L98.5,1564.2031 M85.5,1545.2031 L111.5,1545.2031 M98.5,1564.2031 L85.5,1579.2031 M98.5,1564.2031 L111.5,1579.2031 " fill="none" style="stroke:#000000;stroke-width:0.5;"/><rect fill="#EFEFFF" height="37.2813" rx="2.5" ry="2.5" style="stroke:#000000;stroke-width:0.5;" width="214" x="199.5" y="73.2813"/><text fill="#000000" font-family="sans-serif" font-size="20" lengthAdjust="spacing" textLength="197" x="208" y="98.8457">TI-Messenger Client</text><rect fill="#EFEFFF" height="37.2813" rx="2.5" ry="2.5" style="stroke:#000000;stroke-width:0.5;" width="214" x="199.5" y="1474.1406"/><text fill="#000000" font-family="sans-serif" font-size="20" lengthAdjust="spacing" textLength="197" x="208" y="1499.7051">TI-Messenger Client</text><rect fill="#EFEFFF" height="37.2813" rx="2.5" ry="2.5" style="stroke:#000000;stroke-width:0.5;" width="214" x="423.5" y="73.2813"/><text fill="#000000" font-family="sans-serif" font-size="20" lengthAdjust="spacing" textLength="186" x="437.5" y="98.8457">Messenger Service</text><rect fill="#EFEFFF" height="37.2813" rx="2.5" ry="2.5" style="stroke:#000000;stroke-width:0.5;" width="214" x="423.5" y="1474.1406"/><text fill="#000000" font-family="sans-serif" font-size="20" lengthAdjust="spacing" textLength="186" x="437.5" y="1499.7051">Messenger Service</text><rect fill="#EFEFFF" height="37.2813" rx="2.5" ry="2.5" style="stroke:#000000;stroke-width:0.5;" width="214" x="752.5" y="73.2813"/><text fill="#000000" font-family="sans-serif" font-size="20" lengthAdjust="spacing" textLength="108" x="805.5" y="98.8457">FHIR-Proxy</text><rect fill="#EFEFFF" height="37.2813" rx="2.5" ry="2.5" style="stroke:#000000;stroke-width:0.5;" width="214" x="752.5" y="1474.1406"/><text fill="#000000" font-family="sans-serif" font-size="20" lengthAdjust="spacing" textLength="108" x="805.5" y="1499.7051">FHIR-Proxy</text><rect fill="#EFEFFF" height="37.2813" rx="2.5" ry="2.5" style="stroke:#000000;stroke-width:0.5;" width="214" x="1001.5" y="73.2813"/><text fill="#000000" font-family="sans-serif" font-size="20" lengthAdjust="spacing" textLength="128" x="1044.5" y="98.8457">Auth-Service</text><rect fill="#EFEFFF" height="37.2813" rx="2.5" ry="2.5" style="stroke:#000000;stroke-width:0.5;" width="214" x="1001.5" y="1474.1406"/><text fill="#000000" font-family="sans-serif" font-size="20" lengthAdjust="spacing" textLength="128" x="1044.5" y="1499.7051">Auth-Service</text><rect fill="#EFEFFF" height="37.2813" rx="2.5" ry="2.5" style="stroke:#000000;stroke-width:0.5;" width="214" x="1305.5" y="73.2813"/><text fill="#000000" font-family="sans-serif" font-size="20" lengthAdjust="spacing" textLength="145" x="1340" y="98.8457">FHIR-Directory</text><rect fill="#EFEFFF" height="37.2813" rx="2.5" ry="2.5" style="stroke:#000000;stroke-width:0.5;" width="214" x="1305.5" y="1474.1406"/><text fill="#000000" font-family="sans-serif" font-size="20" lengthAdjust="spacing" textLength="145" x="1340" y="1499.7051">FHIR-Directory</text><rect fill="#DCDCDC" height="1344.5781" style="stroke:#000000;stroke-width:1.0;" width="10" x="301.5" y="121.5625"/><rect fill="#DCDCDC" height="174.9922" style="stroke:#000000;stroke-width:1.0;" width="10" x="854.5" y="650.0859"/><rect fill="#DCDCDC" height="173.1563" style="stroke:#000000;stroke-width:1.0;" width="10" x="854.5" y="983.0703"/><rect fill="#DCDCDC" height="33.7891" style="stroke:#000000;stroke-width:1.0;" width="10" x="854.5" y="1325.5625"/><rect fill="#DCDCDC" height="33.7891" style="stroke:#000000;stroke-width:1.0;" width="10" x="1407.5" y="757.5"/><rect fill="#DCDCDC" height="33.7891" style="stroke:#000000;stroke-width:1.0;" width="10" x="1407.5" y="1088.6484"/><path d="M13,151.5625 L13,211.5625 L615,211.5625 L615,161.5625 L605,151.5625 L13,151.5625 " fill="#FEFFDD" style="stroke:#181818;stroke-width:0.5;"/><path d="M605,151.5625 L605,161.5625 L615,161.5625 L605,151.5625 " fill="#FEFFDD" style="stroke:#181818;stroke-width:0.5;"/><text fill="#000000" font-family="sans-serif" font-size="13" lengthAdjust="spacing" textLength="4" x="48.25" y="168.6294">&#160;</text><text fill="#000000" font-family="sans-serif" font-size="17" lengthAdjust="spacing" textLength="523" x="48.25" y="187.4751">Der Akteur ist erfolgreich beim Messenger-Service angemeldet</text><text fill="#000000" font-family="sans-serif" font-size="13" lengthAdjust="spacing" textLength="4" x="48.25" y="203.5513">&#160;</text><polygon fill="#000000" points="289.5,302.9844,299.5,306.9844,289.5,310.9844,293.5,306.9844" style="stroke:#000000;stroke-width:1.0;"/><line style="stroke:#000000;stroke-width:1.0;" x1="98.5" x2="295.5" y1="306.9844" y2="306.9844"/><text fill="#000000" font-family="sans-serif" font-size="17" font-weight="bold" lengthAdjust="spacing" textLength="12" x="105.5" y="281.186">1</text><text fill="#000000" font-family="sans-serif" font-size="17" lengthAdjust="spacing" textLength="158" x="121.5" y="261.397">Suchparameter f&#252;r</text><text fill="#000000" font-family="sans-serif" font-size="17" lengthAdjust="spacing" textLength="142" x="121.5" y="281.186">FHIR-Ressourcen</text><text fill="#000000" font-family="sans-serif" font-size="17" lengthAdjust="spacing" textLength="77" x="126.5" y="300.9751">eingeben</text><path d="M20,346.9844 L379,346.9844 L379,357.6094 L369,367.6094 L20,367.6094 L20,346.9844 " fill="#D3D3D3" style="stroke:#000000;stroke-width:1.5;"/><rect fill="none" height="143.1719" style="stroke:#000000;stroke-width:1.5;" width="1509.5" x="20" y="346.9844"/><text fill="#000000" font-family="sans-serif" font-size="16" font-weight="bold" lengthAdjust="spacing" textLength="314" x="35" y="362.8359">Pr&#252;fung/Erhalt search-accesstoken</text><rect fill="#F5F5DC" height="67.5469" style="stroke:#000000;stroke-width:1.5;" width="1495.5" x="27" y="392.6094"/><path d="M27,392.6094 L93,392.6094 L93,399.6094 L83,409.6094 L27,409.6094 L27,392.6094 " fill="#98FB98" style="stroke:#000000;stroke-width:2.0;"/><text fill="#000000" font-family="sans-serif" font-size="13" font-weight="bold" lengthAdjust="spacing" textLength="21" x="40" y="406.6763">ref</text><text fill="#000000" font-family="sans-serif" font-size="17" lengthAdjust="spacing" textLength="384" x="582.75" y="429.3892">gemSpec_VZD_FHIR_Directory#AF_10036-01</text><text fill="#000000" font-family="sans-serif" font-size="16" lengthAdjust="spacing" textLength="556" x="496.75" y="448.25">(Der Akteur entspricht dem "Nutzer" im referenzierten Anwendungsfall)</text><line style="stroke:#000000;stroke-width:1.0;" x1="774.75" x2="774.75" y1="454.0234" y2="454.0234"/><line style="stroke:#000000;stroke-width:1.0;" x1="774.75" x2="774.75" y1="454.0234" y2="454.0234"/><line style="stroke:#000000;stroke-width:1.0;" x1="774.75" x2="774.75" y1="454.0234" y2="454.0234"/><path d="M10,504.1563 L74,504.1563 L74,511.2891 L64,521.2891 L10,521.2891 L10,504.1563 " fill="#D3D3D3" style="stroke:#000000;stroke-width:1.5;"/><rect fill="none" height="953.9844" style="stroke:#000000;stroke-width:1.5;" width="1529.5" x="10" y="504.1563"/><text fill="#000000" font-family="sans-serif" font-size="13" font-weight="bold" lengthAdjust="spacing" textLength="19" x="25" y="517.2231">alt</text><text fill="#000000" font-family="sans-serif" font-size="11" font-weight="bold" lengthAdjust="spacing" textLength="5" x="89" y="522.187">[</text><text fill="#000000" font-family="sans-serif" font-size="16" font-weight="bold" lengthAdjust="spacing" textLength="336" x="94" y="521.0078">g&#252;ltiges search-accesstoken erhalten</text><text fill="#000000" font-family="sans-serif" font-size="11" font-weight="bold" lengthAdjust="spacing" textLength="5" x="430" y="522.187">]</text><path d="M20,556.9141 L84,556.9141 L84,564.0469 L74,574.0469 L20,574.0469 L20,556.9141 " fill="#D3D3D3" style="stroke:#000000;stroke-width:1.5;"/><rect fill="none" height="666.1016" style="stroke:#000000;stroke-width:1.5;" width="1509.5" x="20" y="556.9141"/><text fill="#000000" font-family="sans-serif" font-size="13" font-weight="bold" lengthAdjust="spacing" textLength="19" x="35" y="569.981">alt</text><text fill="#000000" font-family="sans-serif" font-size="11" font-weight="bold" lengthAdjust="spacing" textLength="5" x="99" y="574.9448">[</text><text fill="#000000" font-family="sans-serif" font-size="16" font-weight="bold" lengthAdjust="spacing" textLength="391" x="104" y="573.7656">HealthcareService-Eintr&#228;ge werden gesucht</text><text fill="#000000" font-family="sans-serif" font-size="11" font-weight="bold" lengthAdjust="spacing" textLength="5" x="495" y="574.9448">]</text><polygon fill="#000000" points="842.5,646.0859,852.5,650.0859,842.5,654.0859,846.5,650.0859" style="stroke:#000000;stroke-width:1.0;"/><line style="stroke:#000000;stroke-width:1.0;" x1="311.5" x2="848.5" y1="650.0859" y2="650.0859"/><text fill="#000000" font-family="sans-serif" font-size="17" font-weight="bold" lengthAdjust="spacing" textLength="12" x="318.5" y="634.1821">2</text><text fill="#000000" font-family="sans-serif" font-size="17" lengthAdjust="spacing" textLength="508" x="334.5" y="624.2876">GET /search/HealthcareService/?organization.active=true&amp;...</text><text fill="#000000" font-family="sans-serif" font-size="17" lengthAdjust="spacing" textLength="174" x="334.5" y="644.0767">(search-accesstoken)</text><path d="M75,607.6719 L75,654.6719 L296,654.6719 L296,617.6719 L286,607.6719 L75,607.6719 " fill="#FEFFDD" style="stroke:#181818;stroke-width:0.5;"/><path d="M286,607.6719 L286,617.6719 L296,617.6719 L286,607.6719 " fill="#FEFFDD" style="stroke:#181818;stroke-width:0.5;"/><text fill="#000000" font-family="sans-serif" font-size="16" lengthAdjust="spacing" textLength="153" x="81" y="627.5234">Finde Datensatz f&#252;r</text><text fill="#000000" font-family="sans-serif" font-size="16" lengthAdjust="spacing" textLength="89" x="81" y="646.1484">TelematikID</text><line style="stroke:#000000;stroke-width:1.0;" x1="864.5" x2="906.5" y1="685.7109" y2="685.7109"/><line style="stroke:#000000;stroke-width:1.0;" x1="906.5" x2="906.5" y1="685.7109" y2="698.7109"/><line style="stroke:#000000;stroke-width:1.0;" x1="865.5" x2="906.5" y1="698.7109" y2="698.7109"/><polygon fill="#000000" points="875.5,694.7109,865.5,698.7109,875.5,702.7109,871.5,698.7109" style="stroke:#000000;stroke-width:1.0;"/><text fill="#000000" font-family="sans-serif" font-size="17" font-weight="bold" lengthAdjust="spacing" textLength="12" x="871.5" y="679.7017">3</text><text fill="#000000" font-family="sans-serif" font-size="17" lengthAdjust="spacing" textLength="209" x="887.5" y="679.7017">pr&#252;fe search-accesstoken</text><polygon fill="#000000" points="1395.5,753.5,1405.5,757.5,1395.5,761.5,1399.5,757.5" style="stroke:#000000;stroke-width:1.0;"/><line style="stroke:#000000;stroke-width:1.0;" x1="864.5" x2="1401.5" y1="757.5" y2="757.5"/><text fill="#000000" font-family="sans-serif" font-size="17" font-weight="bold" lengthAdjust="spacing" textLength="12" x="871.5" y="751.4907">4</text><text fill="#000000" font-family="sans-serif" font-size="17" lengthAdjust="spacing" textLength="508" x="887.5" y="751.4907">GET /search/HealthcareService/?organization.active=true&amp;...</text><polygon fill="#000000" points="875.5,787.2891,865.5,791.2891,875.5,795.2891,871.5,791.2891" style="stroke:#000000;stroke-width:1.0;"/><line style="stroke:#000000;stroke-width:1.0;stroke-dasharray:2.0,2.0;" x1="869.5" x2="1411.5" y1="791.2891" y2="791.2891"/><text fill="#000000" font-family="sans-serif" font-size="17" font-weight="bold" lengthAdjust="spacing" textLength="12" x="1060.5" y="785.2798">5</text><text fill="#000000" font-family="sans-serif" font-size="17" lengthAdjust="spacing" textLength="329" x="1076.5" y="785.2798">HTTP 200 (:Suchergebnis FHIR-Bundle)</text><polygon fill="#000000" points="322.5,821.0781,312.5,825.0781,322.5,829.0781,318.5,825.0781" style="stroke:#000000;stroke-width:1.0;"/><line style="stroke:#000000;stroke-width:1.0;stroke-dasharray:2.0,2.0;" x1="316.5" x2="858.5" y1="825.0781" y2="825.0781"/><text fill="#000000" font-family="sans-serif" font-size="17" font-weight="bold" lengthAdjust="spacing" textLength="12" x="507.5" y="819.0688">6</text><text fill="#000000" font-family="sans-serif" font-size="17" lengthAdjust="spacing" textLength="329" x="523.5" y="819.0688">HTTP 200 (:Suchergebnis FHIR-Bundle)</text><polygon fill="#000000" points="109.5,854.8672,99.5,858.8672,109.5,862.8672,105.5,858.8672" style="stroke:#000000;stroke-width:1.0;"/><line style="stroke:#000000;stroke-width:1.0;stroke-dasharray:2.0,2.0;" x1="103.5" x2="300.5" y1="858.8672" y2="858.8672"/><text fill="#000000" font-family="sans-serif" font-size="17" font-weight="bold" lengthAdjust="spacing" textLength="12" x="166.5" y="852.8579">7</text><text fill="#000000" font-family="sans-serif" font-size="17" lengthAdjust="spacing" textLength="112" x="182.5" y="852.8579">Suchergebnis</text><line style="stroke:#000000;stroke-width:1.0;stroke-dasharray:2.0,2.0;" x1="20" x2="1529.5" y1="892.8672" y2="892.8672"/><text fill="#000000" font-family="sans-serif" font-size="11" font-weight="bold" lengthAdjust="spacing" textLength="5" x="25" y="908.8979">[</text><text fill="#000000" font-family="sans-serif" font-size="16" font-weight="bold" lengthAdjust="spacing" textLength="374" x="30" y="907.7188">PractitionerRole-Eintr&#228;ge werden gesucht</text><text fill="#000000" font-family="sans-serif" font-size="11" font-weight="bold" lengthAdjust="spacing" textLength="5" x="404" y="908.8979">]</text><polygon fill="#000000" points="842.5,979.0703,852.5,983.0703,842.5,987.0703,846.5,983.0703" style="stroke:#000000;stroke-width:1.0;"/><line style="stroke:#000000;stroke-width:1.0;" x1="311.5" x2="848.5" y1="983.0703" y2="983.0703"/><text fill="#000000" font-family="sans-serif" font-size="17" font-weight="bold" lengthAdjust="spacing" textLength="12" x="318.5" y="967.1665">8</text><text fill="#000000" font-family="sans-serif" font-size="17" lengthAdjust="spacing" textLength="483" x="334.5" y="957.272">GET /search/PractitionerRole/?practitioner.active=true&amp;...</text><text fill="#000000" font-family="sans-serif" font-size="17" lengthAdjust="spacing" textLength="174" x="334.5" y="977.061">(search-accesstoken)</text><path d="M75,949.9688 L75,977.9688 L296,977.9688 L296,959.9688 L286,949.9688 L75,949.9688 " fill="#FEFFDD" style="stroke:#181818;stroke-width:0.5;"/><path d="M286,949.9688 L286,959.9688 L296,959.9688 L286,949.9688 " fill="#FEFFDD" style="stroke:#181818;stroke-width:0.5;"/><text fill="#000000" font-family="sans-serif" font-size="16" lengthAdjust="spacing" textLength="199" x="81" y="969.8203">Finde Datensatz f&#252;r MXID</text><line style="stroke:#000000;stroke-width:1.0;" x1="864.5" x2="906.5" y1="1016.8594" y2="1016.8594"/><line style="stroke:#000000;stroke-width:1.0;" x1="906.5" x2="906.5" y1="1016.8594" y2="1029.8594"/><line style="stroke:#000000;stroke-width:1.0;" x1="865.5" x2="906.5" y1="1029.8594" y2="1029.8594"/><polygon fill="#000000" points="875.5,1025.8594,865.5,1029.8594,875.5,1033.8594,871.5,1029.8594" style="stroke:#000000;stroke-width:1.0;"/><text fill="#000000" font-family="sans-serif" font-size="17" font-weight="bold" lengthAdjust="spacing" textLength="12" x="871.5" y="1010.8501">9</text><text fill="#000000" font-family="sans-serif" font-size="17" lengthAdjust="spacing" textLength="209" x="887.5" y="1010.8501">pr&#252;fe search-accesstoken</text><polygon fill="#000000" points="1395.5,1084.6484,1405.5,1088.6484,1395.5,1092.6484,1399.5,1088.6484" style="stroke:#000000;stroke-width:1.0;"/><line style="stroke:#000000;stroke-width:1.0;" x1="864.5" x2="1401.5" y1="1088.6484" y2="1088.6484"/><text fill="#000000" font-family="sans-serif" font-size="17" font-weight="bold" lengthAdjust="spacing" textLength="24" x="871.5" y="1082.6392">10</text><text fill="#000000" font-family="sans-serif" font-size="17" lengthAdjust="spacing" textLength="483" x="899.5" y="1082.6392">GET /search/PractitionerRole/?practitioner.active=true&amp;...</text><polygon fill="#000000" points="875.5,1118.4375,865.5,1122.4375,875.5,1126.4375,871.5,1122.4375" style="stroke:#000000;stroke-width:1.0;"/><line style="stroke:#000000;stroke-width:1.0;stroke-dasharray:2.0,2.0;" x1="869.5" x2="1411.5" y1="1122.4375" y2="1122.4375"/><text fill="#000000" font-family="sans-serif" font-size="17" font-weight="bold" lengthAdjust="spacing" textLength="24" x="1048.5" y="1116.4282">11</text><text fill="#000000" font-family="sans-serif" font-size="17" lengthAdjust="spacing" textLength="329" x="1076.5" y="1116.4282">HTTP 200 (:Suchergebnis FHIR-Bundle)</text><polygon fill="#000000" points="322.5,1152.2266,312.5,1156.2266,322.5,1160.2266,318.5,1156.2266" style="stroke:#000000;stroke-width:1.0;"/><line style="stroke:#000000;stroke-width:1.0;stroke-dasharray:2.0,2.0;" x1="316.5" x2="858.5" y1="1156.2266" y2="1156.2266"/><text fill="#000000" font-family="sans-serif" font-size="17" font-weight="bold" lengthAdjust="spacing" textLength="24" x="495.5" y="1150.2173">12</text><text fill="#000000" font-family="sans-serif" font-size="17" lengthAdjust="spacing" textLength="329" x="523.5" y="1150.2173">HTTP 200 (:Suchergebnis FHIR-Bundle)</text><polygon fill="#000000" points="109.5,1186.0156,99.5,1190.0156,109.5,1194.0156,105.5,1190.0156" style="stroke:#000000;stroke-width:1.0;"/><line style="stroke:#000000;stroke-width:1.0;stroke-dasharray:2.0,2.0;" x1="103.5" x2="300.5" y1="1190.0156" y2="1190.0156"/><text fill="#000000" font-family="sans-serif" font-size="17" font-weight="bold" lengthAdjust="spacing" textLength="24" x="154.5" y="1184.0063">13</text><text fill="#000000" font-family="sans-serif" font-size="17" lengthAdjust="spacing" textLength="112" x="182.5" y="1184.0063">Suchergebnis</text><line style="stroke:#000000;stroke-width:1.0;stroke-dasharray:2.0,2.0;" x1="10" x2="1539.5" y1="1256.0156" y2="1256.0156"/><text fill="#000000" font-family="sans-serif" font-size="11" font-weight="bold" lengthAdjust="spacing" textLength="5" x="15" y="1272.0464">[</text><text fill="#000000" font-family="sans-serif" font-size="16" font-weight="bold" lengthAdjust="spacing" textLength="299" x="20" y="1270.8672">kein g&#252;ltiges search-accesstoken</text><text fill="#000000" font-family="sans-serif" font-size="11" font-weight="bold" lengthAdjust="spacing" textLength="5" x="319" y="1272.0464">]</text><path d="M20,1282.6406 L108,1282.6406 L108,1289.7734 L98,1299.7734 L20,1299.7734 L20,1282.6406 " fill="#D3D3D3" style="stroke:#000000;stroke-width:1.5;"/><rect fill="none" height="143.5" style="stroke:#000000;stroke-width:1.5;" width="956.5" x="20" y="1282.6406"/><text fill="#000000" font-family="sans-serif" font-size="13" font-weight="bold" lengthAdjust="spacing" textLength="43" x="35" y="1295.7075">break</text><polygon fill="#000000" points="842.5,1321.5625,852.5,1325.5625,842.5,1329.5625,846.5,1325.5625" style="stroke:#000000;stroke-width:1.0;"/><line style="stroke:#000000;stroke-width:1.0;" x1="311.5" x2="848.5" y1="1325.5625" y2="1325.5625"/><text fill="#000000" font-family="sans-serif" font-size="17" font-weight="bold" lengthAdjust="spacing" textLength="24" x="318.5" y="1319.5532">14</text><text fill="#000000" font-family="sans-serif" font-size="17" lengthAdjust="spacing" textLength="414" x="346.5" y="1319.5532">GET &lt;Search-Schnittstelle&gt; (search-accesstoken)</text><polygon fill="#000000" points="322.5,1355.3516,312.5,1359.3516,322.5,1363.3516,318.5,1359.3516" style="stroke:#000000;stroke-width:1.0;"/><line style="stroke:#000000;stroke-width:1.0;stroke-dasharray:2.0,2.0;" x1="316.5" x2="858.5" y1="1359.3516" y2="1359.3516"/><text fill="#000000" font-family="sans-serif" font-size="17" font-weight="bold" lengthAdjust="spacing" textLength="24" x="743.5" y="1353.3423">15</text><text fill="#000000" font-family="sans-serif" font-size="17" lengthAdjust="spacing" textLength="81" x="771.5" y="1353.3423">HTTP 401</text><polygon fill="#000000" points="109.5,1389.1406,99.5,1393.1406,109.5,1397.1406,105.5,1393.1406" style="stroke:#000000;stroke-width:1.0;"/><line style="stroke:#000000;stroke-width:1.0;stroke-dasharray:2.0,2.0;" x1="103.5" x2="300.5" y1="1393.1406" y2="1393.1406"/><text fill="#000000" font-family="sans-serif" font-size="17" font-weight="bold" lengthAdjust="spacing" textLength="24" x="139.5" y="1387.1313">16</text><text fill="#000000" font-family="sans-serif" font-size="17" lengthAdjust="spacing" textLength="127" x="167.5" y="1387.1313">Fehlermeldung</text></g></svg>