<?xml version="1.0" encoding="us-ascii" standalone="no"?><svg xmlns="http://www.w3.org/2000/svg" xmlns:xlink="http://www.w3.org/1999/xlink" contentStyleType="text/css" height="1874px" preserveAspectRatio="none" style="width:1674px;height:1874px;background:#FFFFFF;" version="1.1" viewBox="0 0 1674 1874" width="1674px" zoomAndPan="magnify"><defs/><g><rect fill="#F5F5F5" height="1862.7266" style="stroke:#181818;stroke-width:0.5;" width="537" x="484" y="6"/><text fill="#000000" font-family="sans-serif" font-size="18" font-weight="bold" lengthAdjust="spacing" textLength="193" x="653.5" y="22.708">Messenger-Service</text><text fill="#000000" font-family="sans-serif" font-size="13" font-weight="bold" lengthAdjust="spacing" textLength="5" x="846.5" y="23.8872">&#160;</text><rect fill="#DCDCDC" height="1491.0547" style="stroke:#000000;stroke-width:1.0;" width="10" x="340" y="200.1094"/><rect fill="#DCDCDC" height="167.9453" style="stroke:#000000;stroke-width:1.0;" width="10" x="590" y="253.6875"/><rect fill="#DCDCDC" height="262.0469" style="stroke:#000000;stroke-width:1.0;" width="10" x="590" y="566"/><rect fill="#DCDCDC" height="350.8906" style="stroke:#000000;stroke-width:1.0;" width="10" x="590" y="1097.9609"/><rect fill="#DCDCDC" height="101.3672" style="stroke:#000000;stroke-width:1.0;" width="10" x="590" y="1536.2188"/><rect fill="#DCDCDC" height="100.3672" style="stroke:#000000;stroke-width:1.0;" width="10" x="859.5" y="287.4766"/><rect fill="#DCDCDC" height="701.3828" style="stroke:#000000;stroke-width:1.0;" width="10" x="859.5" y="713.6797"/><rect fill="#DCDCDC" height="33.7891" style="stroke:#000000;stroke-width:1.0;" width="10" x="859.5" y="1570.0078"/><rect fill="#DCDCDC" height="67.5781" style="stroke:#000000;stroke-width:1.0;" width="10" x="1137.5" y="939.5938"/><rect fill="#DCDCDC" height="529.0469" style="stroke:#000000;stroke-width:1.0;" width="10" x="1361.5" y="973.3828"/><rect fill="#F0F8FF" height="326.0703" style="stroke:#000000;stroke-width:1.5;" width="1048.5" x="10" y="128.5625"/><rect fill="#ADD8E6" height="172.125" style="stroke:#000000;stroke-width:1.5;" width="781.5" x="702" y="868.0469"/><line style="stroke:#000000;stroke-width:0.5;stroke-dasharray:5.0,5.0;" x1="93" x2="93" y1="111.5625" y2="1759.1641"/><line style="stroke:#000000;stroke-width:0.5;stroke-dasharray:5.0,5.0;" x1="345" x2="345" y1="111.5625" y2="1759.1641"/><line style="stroke:#000000;stroke-width:0.5;stroke-dasharray:5.0,5.0;" x1="595" x2="595" y1="111.5625" y2="1759.1641"/><line style="stroke:#000000;stroke-width:0.5;stroke-dasharray:5.0,5.0;" x1="864" x2="864" y1="111.5625" y2="1759.1641"/><line style="stroke:#000000;stroke-width:0.5;stroke-dasharray:5.0,5.0;" x1="1142.5" x2="1142.5" y1="111.5625" y2="1759.1641"/><line style="stroke:#000000;stroke-width:0.5;stroke-dasharray:5.0,5.0;" x1="1366.5" x2="1366.5" y1="111.5625" y2="1759.1641"/><line style="stroke:#000000;stroke-width:0.5;stroke-dasharray:5.0,5.0;" x1="1600.5" x2="1600.5" y1="111.5625" y2="1759.1641"/><text fill="#000000" font-family="sans-serif" font-size="20" lengthAdjust="spacing" textLength="125" x="27.5" y="83.5645">Akteur - A in</text><text fill="#000000" font-family="sans-serif" font-size="20" lengthAdjust="spacing" textLength="140" x="20" y="106.8457">der Rolle User</text><ellipse cx="93" cy="13.5" fill="#DCDCDC" rx="8" ry="8" style="stroke:#000000;stroke-width:0.5;"/><path d="M93,21.5 L93,48.5 M80,29.5 L106,29.5 M93,48.5 L80,63.5 M93,48.5 L106,63.5 " fill="none" style="stroke:#000000;stroke-width:0.5;"/><text fill="#000000" font-family="sans-serif" font-size="20" lengthAdjust="spacing" textLength="125" x="27.5" y="1776.7285">Akteur - A in</text><text fill="#000000" font-family="sans-serif" font-size="20" lengthAdjust="spacing" textLength="140" x="20" y="1800.0098">der Rolle User</text><ellipse cx="93" cy="1813.2266" fill="#DCDCDC" rx="8" ry="8" style="stroke:#000000;stroke-width:0.5;"/><path d="M93,1821.2266 L93,1848.2266 M80,1829.2266 L106,1829.2266 M93,1848.2266 L80,1863.2266 M93,1848.2266 L106,1863.2266 " fill="none" style="stroke:#000000;stroke-width:0.5;"/><rect fill="#F0F8FF" height="60.5625" rx="2.5" ry="2.5" style="stroke:#000000;stroke-width:0.5;" width="214" x="238" y="50"/><text fill="#000000" font-family="sans-serif" font-size="20" lengthAdjust="spacing" textLength="139" x="275.5" y="75.5645">TI-Messenger-</text><text fill="#000000" font-family="sans-serif" font-size="20" lengthAdjust="spacing" textLength="79" x="305.5" y="98.8457">Client A</text><rect fill="#F0F8FF" height="60.5625" rx="2.5" ry="2.5" style="stroke:#000000;stroke-width:0.5;" width="214" x="238" y="1758.1641"/><text fill="#000000" font-family="sans-serif" font-size="20" lengthAdjust="spacing" textLength="139" x="275.5" y="1783.7285">TI-Messenger-</text><text fill="#000000" font-family="sans-serif" font-size="20" lengthAdjust="spacing" textLength="79" x="305.5" y="1807.0098">Client A</text><rect fill="#EFEFFF" height="60.5625" rx="2.5" ry="2.5" style="stroke:#000000;stroke-width:0.5;" width="214" x="488" y="50"/><text fill="#000000" font-family="sans-serif" font-size="20" lengthAdjust="spacing" textLength="114" x="538" y="75.5645">Messenger-</text><text fill="#000000" font-family="sans-serif" font-size="20" lengthAdjust="spacing" textLength="54" x="568" y="98.8457">Proxy</text><rect fill="#EFEFFF" height="60.5625" rx="2.5" ry="2.5" style="stroke:#000000;stroke-width:0.5;" width="214" x="488" y="1758.1641"/><text fill="#000000" font-family="sans-serif" font-size="20" lengthAdjust="spacing" textLength="114" x="538" y="1783.7285">Messenger-</text><text fill="#000000" font-family="sans-serif" font-size="20" lengthAdjust="spacing" textLength="54" x="568" y="1807.0098">Proxy</text><rect fill="#EFEFFF" height="60.5625" rx="2.5" ry="2.5" style="stroke:#000000;stroke-width:0.5;" width="305" x="712" y="50"/><text fill="#000000" font-family="sans-serif" font-size="20" lengthAdjust="spacing" textLength="189" x="767" y="75.5645">Matrix-Homeserver</text><text fill="#000000" font-family="sans-serif" font-size="20" lengthAdjust="spacing" textLength="291" x="719" y="98.8457">(inklusive Nutzerverzeichnis)</text><rect fill="#EFEFFF" height="60.5625" rx="2.5" ry="2.5" style="stroke:#000000;stroke-width:0.5;" width="305" x="712" y="1758.1641"/><text fill="#000000" font-family="sans-serif" font-size="20" lengthAdjust="spacing" textLength="189" x="767" y="1783.7285">Matrix-Homeserver</text><text fill="#000000" font-family="sans-serif" font-size="20" lengthAdjust="spacing" textLength="291" x="719" y="1807.0098">(inklusive Nutzerverzeichnis)</text><rect fill="#EFEFFF" height="60.5625" rx="2.5" ry="2.5" style="stroke:#000000;stroke-width:0.5;" width="214" x="1035.5" y="50"/><text fill="#000000" font-family="sans-serif" font-size="20" lengthAdjust="spacing" textLength="55" x="1115" y="75.5645">Push-</text><text fill="#000000" font-family="sans-serif" font-size="20" lengthAdjust="spacing" textLength="88" x="1098.5" y="98.8457">Gateway</text><rect fill="#EFEFFF" height="60.5625" rx="2.5" ry="2.5" style="stroke:#000000;stroke-width:0.5;" width="214" x="1035.5" y="1758.1641"/><text fill="#000000" font-family="sans-serif" font-size="20" lengthAdjust="spacing" textLength="55" x="1115" y="1783.7285">Push-</text><text fill="#000000" font-family="sans-serif" font-size="20" lengthAdjust="spacing" textLength="88" x="1098.5" y="1807.0098">Gateway</text><rect fill="#C9FFC9" height="60.5625" rx="2.5" ry="2.5" style="stroke:#000000;stroke-width:0.5;" width="214" x="1259.5" y="50"/><text fill="#000000" font-family="sans-serif" font-size="20" lengthAdjust="spacing" textLength="139" x="1297" y="75.5645">TI-Messenger-</text><text fill="#000000" font-family="sans-serif" font-size="20" lengthAdjust="spacing" textLength="79" x="1327" y="98.8457">Client B</text><rect fill="#C9FFC9" height="60.5625" rx="2.5" ry="2.5" style="stroke:#000000;stroke-width:0.5;" width="214" x="1259.5" y="1758.1641"/><text fill="#000000" font-family="sans-serif" font-size="20" lengthAdjust="spacing" textLength="139" x="1297" y="1783.7285">TI-Messenger-</text><text fill="#000000" font-family="sans-serif" font-size="20" lengthAdjust="spacing" textLength="79" x="1327" y="1807.0098">Client B</text><text fill="#000000" font-family="sans-serif" font-size="20" lengthAdjust="spacing" textLength="125" x="1535" y="83.5645">Akteur - B in</text><text fill="#000000" font-family="sans-serif" font-size="20" lengthAdjust="spacing" textLength="140" x="1527.5" y="106.8457">der Rolle User</text><ellipse cx="1600.5" cy="13.5" fill="#DCDCDC" rx="8" ry="8" style="stroke:#000000;stroke-width:0.5;"/><path d="M1600.5,21.5 L1600.5,48.5 M1587.5,29.5 L1613.5,29.5 M1600.5,48.5 L1587.5,63.5 M1600.5,48.5 L1613.5,63.5 " fill="none" style="stroke:#000000;stroke-width:0.5;"/><text fill="#000000" font-family="sans-serif" font-size="20" lengthAdjust="spacing" textLength="125" x="1535" y="1776.7285">Akteur - B in</text><text fill="#000000" font-family="sans-serif" font-size="20" lengthAdjust="spacing" textLength="140" x="1527.5" y="1800.0098">der Rolle User</text><ellipse cx="1600.5" cy="1813.2266" fill="#DCDCDC" rx="8" ry="8" style="stroke:#000000;stroke-width:0.5;"/><path d="M1600.5,1821.2266 L1600.5,1848.2266 M1587.5,1829.2266 L1613.5,1829.2266 M1600.5,1848.2266 L1587.5,1863.2266 M1600.5,1848.2266 L1613.5,1863.2266 " fill="none" style="stroke:#000000;stroke-width:0.5;"/><rect fill="#DCDCDC" height="1491.0547" style="stroke:#000000;stroke-width:1.0;" width="10" x="340" y="200.1094"/><rect fill="#DCDCDC" height="167.9453" style="stroke:#000000;stroke-width:1.0;" width="10" x="590" y="253.6875"/><rect fill="#DCDCDC" height="262.0469" style="stroke:#000000;stroke-width:1.0;" width="10" x="590" y="566"/><rect fill="#DCDCDC" height="350.8906" style="stroke:#000000;stroke-width:1.0;" width="10" x="590" y="1097.9609"/><rect fill="#DCDCDC" height="101.3672" style="stroke:#000000;stroke-width:1.0;" width="10" x="590" y="1536.2188"/><rect fill="#DCDCDC" height="100.3672" style="stroke:#000000;stroke-width:1.0;" width="10" x="859.5" y="287.4766"/><rect fill="#DCDCDC" height="701.3828" style="stroke:#000000;stroke-width:1.0;" width="10" x="859.5" y="713.6797"/><rect fill="#DCDCDC" height="33.7891" style="stroke:#000000;stroke-width:1.0;" width="10" x="859.5" y="1570.0078"/><rect fill="#DCDCDC" height="67.5781" style="stroke:#000000;stroke-width:1.0;" width="10" x="1137.5" y="939.5938"/><rect fill="#DCDCDC" height="529.0469" style="stroke:#000000;stroke-width:1.0;" width="10" x="1361.5" y="973.3828"/><path d="M10,128.5625 L80,128.5625 L80,135.6953 L70,145.6953 L10,145.6953 L10,128.5625 " fill="#D3D3D3" style="stroke:#000000;stroke-width:1.5;"/><rect fill="none" height="326.0703" style="stroke:#000000;stroke-width:1.5;" width="1048.5" x="10" y="128.5625"/><text fill="#000000" font-family="sans-serif" font-size="13" font-weight="bold" lengthAdjust="spacing" textLength="25" x="25" y="141.6294">opt</text><text fill="#000000" font-family="sans-serif" font-size="11" font-weight="bold" lengthAdjust="spacing" textLength="5" x="95" y="146.5933">[</text><text fill="#000000" font-family="sans-serif" font-size="16" font-weight="bold" lengthAdjust="spacing" textLength="131" x="100" y="145.4141">Akteur suchen</text><text fill="#000000" font-family="sans-serif" font-size="11" font-weight="bold" lengthAdjust="spacing" textLength="5" x="231" y="146.5933">]</text><polygon fill="#000000" points="328,196.1094,338,200.1094,328,204.1094,332,200.1094" style="stroke:#000000;stroke-width:1.0;"/><line style="stroke:#000000;stroke-width:1.0;" x1="93" x2="334" y1="200.1094" y2="200.1094"/><text fill="#000000" font-family="sans-serif" font-size="17" font-weight="bold" lengthAdjust="spacing" textLength="12" x="100" y="194.1001">1</text><text fill="#000000" font-family="sans-serif" font-size="17" lengthAdjust="spacing" textLength="129" x="116" y="194.1001">Suche Akteur B</text><polygon fill="#000000" points="578,249.6875,588,253.6875,578,257.6875,582,253.6875" style="stroke:#000000;stroke-width:1.0;"/><line style="stroke:#000000;stroke-width:1.0;" x1="350" x2="584" y1="253.6875" y2="253.6875"/><text fill="#000000" font-family="sans-serif" font-size="17" font-weight="bold" lengthAdjust="spacing" textLength="12" x="357" y="237.7837">2</text><text fill="#000000" font-family="sans-serif" font-size="17" lengthAdjust="spacing" textLength="178" x="373" y="227.8892">POST /_matrix/client/</text><text fill="#000000" font-family="sans-serif" font-size="17" lengthAdjust="spacing" textLength="179" x="373" y="247.6782">user_directory/search</text><polygon fill="#000000" points="847.5,283.4766,857.5,287.4766,847.5,291.4766,851.5,287.4766" style="stroke:#000000;stroke-width:1.0;"/><line style="stroke:#000000;stroke-width:1.0;" x1="600" x2="853.5" y1="287.4766" y2="287.4766"/><text fill="#000000" font-family="sans-serif" font-size="17" font-weight="bold" lengthAdjust="spacing" textLength="12" x="607" y="281.4673">3</text><text fill="#000000" font-family="sans-serif" font-size="17" lengthAdjust="spacing" textLength="142" x="623" y="281.4673">HTTP(S) Forward</text><line style="stroke:#000000;stroke-width:1.0;stroke-dasharray:2.0,2.0;" x1="869.5" x2="911.5" y1="341.0547" y2="341.0547"/><line style="stroke:#000000;stroke-width:1.0;stroke-dasharray:2.0,2.0;" x1="911.5" x2="911.5" y1="341.0547" y2="354.0547"/><line style="stroke:#000000;stroke-width:1.0;stroke-dasharray:2.0,2.0;" x1="870.5" x2="911.5" y1="354.0547" y2="354.0547"/><polygon fill="#000000" points="880.5,350.0547,870.5,354.0547,880.5,358.0547,876.5,354.0547" style="stroke:#000000;stroke-width:1.0;"/><text fill="#000000" font-family="sans-serif" font-size="17" font-weight="bold" lengthAdjust="spacing" textLength="12" x="876.5" y="325.1509">4</text><text fill="#000000" font-family="sans-serif" font-size="17" lengthAdjust="spacing" textLength="149" x="892.5" y="315.2563">Nutzerverzeichnis</text><text fill="#000000" font-family="sans-serif" font-size="17" lengthAdjust="spacing" textLength="106" x="892.5" y="335.0454">durchsuchen</text><polygon fill="#000000" points="611,383.8438,601,387.8438,611,391.8438,607,387.8438" style="stroke:#000000;stroke-width:1.0;"/><line style="stroke:#000000;stroke-width:1.0;stroke-dasharray:2.0,2.0;" x1="605" x2="863.5" y1="387.8438" y2="387.8438"/><text fill="#000000" font-family="sans-serif" font-size="17" font-weight="bold" lengthAdjust="spacing" textLength="12" x="794.5" y="381.8345">5</text><text fill="#000000" font-family="sans-serif" font-size="17" lengthAdjust="spacing" textLength="47" x="810.5" y="381.8345">MXID</text><polygon fill="#000000" points="361,417.6328,351,421.6328,361,425.6328,357,421.6328" style="stroke:#000000;stroke-width:1.0;"/><line style="stroke:#000000;stroke-width:1.0;stroke-dasharray:2.0,2.0;" x1="355" x2="594" y1="421.6328" y2="421.6328"/><text fill="#000000" font-family="sans-serif" font-size="17" font-weight="bold" lengthAdjust="spacing" textLength="12" x="430" y="415.6235">6</text><text fill="#000000" font-family="sans-serif" font-size="17" lengthAdjust="spacing" textLength="142" x="446" y="415.6235">HTTP(S) Forward</text><polygon fill="#000000" points="328,508.4219,338,512.4219,328,516.4219,332,512.4219" style="stroke:#000000;stroke-width:1.0;"/><line style="stroke:#000000;stroke-width:1.0;" x1="93" x2="334" y1="512.4219" y2="512.4219"/><text fill="#000000" font-family="sans-serif" font-size="17" font-weight="bold" lengthAdjust="spacing" textLength="12" x="100" y="506.4126">7</text><text fill="#000000" font-family="sans-serif" font-size="17" lengthAdjust="spacing" textLength="150" x="116" y="506.4126">Akteur B einladen</text><polygon fill="#000000" points="578,562,588,566,578,570,582,566" style="stroke:#000000;stroke-width:1.0;"/><line style="stroke:#000000;stroke-width:1.0;" x1="350" x2="584" y1="566" y2="566"/><text fill="#000000" font-family="sans-serif" font-size="17" font-weight="bold" lengthAdjust="spacing" textLength="12" x="357" y="550.0962">8</text><text fill="#000000" font-family="sans-serif" font-size="17" lengthAdjust="spacing" textLength="205" x="373" y="540.2017">POST /_matrix/client/v3/</text><text fill="#000000" font-family="sans-serif" font-size="17" lengthAdjust="spacing" textLength="194" x="373" y="559.9907">rooms/{roomId}/invite</text><rect fill="#F5F5DC" height="58.8906" style="stroke:#000000;stroke-width:1.5;" width="220" x="485" y="599"/><path d="M485,599 L551,599 L551,606 L541,616 L485,616 L485,599 " fill="#98FB98" style="stroke:#000000;stroke-width:2.0;"/><text fill="#000000" font-family="sans-serif" font-size="13" font-weight="bold" lengthAdjust="spacing" textLength="21" x="498" y="613.0669">ref</text><text fill="#000000" font-family="sans-serif" font-size="17" font-weight="bold" lengthAdjust="spacing" textLength="207" x="491.5" y="635.7798">Berechtigungspr&#252;fung</text><text fill="#000000" font-family="sans-serif" font-size="12" lengthAdjust="spacing" textLength="4" x="593" y="650.9277">&#160;</text><polygon fill="#000000" points="847.5,709.6797,857.5,713.6797,847.5,717.6797,851.5,713.6797" style="stroke:#000000;stroke-width:1.0;"/><line style="stroke:#000000;stroke-width:1.0;" x1="600" x2="853.5" y1="713.6797" y2="713.6797"/><text fill="#000000" font-family="sans-serif" font-size="17" font-weight="bold" lengthAdjust="spacing" textLength="12" x="607" y="707.6704">9</text><text fill="#000000" font-family="sans-serif" font-size="17" lengthAdjust="spacing" textLength="142" x="623" y="707.6704">HTTP(S) Forward</text><line style="stroke:#000000;stroke-width:1.0;" x1="869.5" x2="911.5" y1="747.4688" y2="747.4688"/><line style="stroke:#000000;stroke-width:1.0;" x1="911.5" x2="911.5" y1="747.4688" y2="760.4688"/><line style="stroke:#000000;stroke-width:1.0;" x1="870.5" x2="911.5" y1="760.4688" y2="760.4688"/><polygon fill="#000000" points="880.5,756.4688,870.5,760.4688,880.5,764.4688,876.5,760.4688" style="stroke:#000000;stroke-width:1.0;"/><text fill="#000000" font-family="sans-serif" font-size="17" font-weight="bold" lengthAdjust="spacing" textLength="24" x="876.5" y="741.4595">10</text><text fill="#000000" font-family="sans-serif" font-size="17" lengthAdjust="spacing" textLength="151" x="904.5" y="741.4595">Invite verarbeiten</text><polygon fill="#000000" points="611,790.2578,601,794.2578,611,798.2578,607,794.2578" style="stroke:#000000;stroke-width:1.0;"/><line style="stroke:#000000;stroke-width:1.0;stroke-dasharray:2.0,2.0;" x1="605" x2="858.5" y1="794.2578" y2="794.2578"/><text fill="#000000" font-family="sans-serif" font-size="17" font-weight="bold" lengthAdjust="spacing" textLength="24" x="743.5" y="788.2485">11</text><text fill="#000000" font-family="sans-serif" font-size="17" lengthAdjust="spacing" textLength="81" x="771.5" y="788.2485">HTTP 200</text><polygon fill="#000000" points="361,824.0469,351,828.0469,361,832.0469,357,828.0469" style="stroke:#000000;stroke-width:1.0;"/><line style="stroke:#000000;stroke-width:1.0;stroke-dasharray:2.0,2.0;" x1="355" x2="594" y1="828.0469" y2="828.0469"/><text fill="#000000" font-family="sans-serif" font-size="17" font-weight="bold" lengthAdjust="spacing" textLength="24" x="418" y="822.0376">12</text><text fill="#000000" font-family="sans-serif" font-size="17" lengthAdjust="spacing" textLength="142" x="446" y="822.0376">HTTP(S) Forward</text><path d="M702,868.0469 L772,868.0469 L772,875.1797 L762,885.1797 L702,885.1797 L702,868.0469 " fill="#D3D3D3" style="stroke:#000000;stroke-width:1.5;"/><rect fill="none" height="172.125" style="stroke:#000000;stroke-width:1.5;" width="781.5" x="702" y="868.0469"/><text fill="#000000" font-family="sans-serif" font-size="13" font-weight="bold" lengthAdjust="spacing" textLength="25" x="717" y="881.1138">opt</text><text fill="#000000" font-family="sans-serif" font-size="11" font-weight="bold" lengthAdjust="spacing" textLength="5" x="787" y="886.0776">[</text><text fill="#000000" font-family="sans-serif" font-size="16" font-weight="bold" lengthAdjust="spacing" textLength="205" x="792" y="884.8984">Push-Benachrichtigung</text><text fill="#000000" font-family="sans-serif" font-size="11" font-weight="bold" lengthAdjust="spacing" textLength="5" x="997" y="886.0776">]</text><polygon fill="#000000" points="1125.5,935.5938,1135.5,939.5938,1125.5,943.5938,1129.5,939.5938" style="stroke:#000000;stroke-width:1.0;"/><line style="stroke:#000000;stroke-width:1.0;" x1="869.5" x2="1131.5" y1="939.5938" y2="939.5938"/><text fill="#000000" font-family="sans-serif" font-size="17" font-weight="bold" lengthAdjust="spacing" textLength="24" x="876.5" y="933.5845">13</text><text fill="#000000" font-family="sans-serif" font-size="17" lengthAdjust="spacing" textLength="221" x="904.5" y="933.5845">POST /_matrix/push/notify</text><polygon fill="#000000" points="1349.5,969.3828,1359.5,973.3828,1349.5,977.3828,1353.5,973.3828" style="stroke:#000000;stroke-width:1.0;"/><line style="stroke:#000000;stroke-width:1.0;" x1="1147.5" x2="1355.5" y1="973.3828" y2="973.3828"/><text fill="#000000" font-family="sans-serif" font-size="17" font-weight="bold" lengthAdjust="spacing" textLength="24" x="1154.5" y="967.3735">14</text><text fill="#000000" font-family="sans-serif" font-size="17" lengthAdjust="spacing" textLength="97" x="1182.5" y="967.3735">Notification</text><polygon fill="#000000" points="880.5,1003.1719,870.5,1007.1719,880.5,1011.1719,876.5,1007.1719" style="stroke:#000000;stroke-width:1.0;"/><line style="stroke:#000000;stroke-width:1.0;stroke-dasharray:2.0,2.0;" x1="874.5" x2="1141.5" y1="1007.1719" y2="1007.1719"/><text fill="#000000" font-family="sans-serif" font-size="17" font-weight="bold" lengthAdjust="spacing" textLength="24" x="1053.5" y="1001.1626">15</text><text fill="#000000" font-family="sans-serif" font-size="17" lengthAdjust="spacing" textLength="54" x="1081.5" y="1001.1626">Status</text><polygon fill="#000000" points="611,1093.9609,601,1097.9609,611,1101.9609,607,1097.9609" style="stroke:#000000;stroke-width:1.0;"/><line style="stroke:#000000;stroke-width:1.0;" x1="605" x2="1360.5" y1="1097.9609" y2="1097.9609"/><text fill="#000000" font-family="sans-serif" font-size="17" font-weight="bold" lengthAdjust="spacing" textLength="24" x="1213.5" y="1091.9517">16</text><text fill="#000000" font-family="sans-serif" font-size="17" lengthAdjust="spacing" textLength="113" x="1241.5" y="1091.9517">Sync Request</text><polygon fill="#000000" points="847.5,1127.75,857.5,1131.75,847.5,1135.75,851.5,1131.75" style="stroke:#000000;stroke-width:1.0;"/><line style="stroke:#000000;stroke-width:1.0;" x1="600" x2="853.5" y1="1131.75" y2="1131.75"/><text fill="#000000" font-family="sans-serif" font-size="17" font-weight="bold" lengthAdjust="spacing" textLength="24" x="607" y="1125.7407">17</text><text fill="#000000" font-family="sans-serif" font-size="17" lengthAdjust="spacing" textLength="142" x="635" y="1125.7407">HTTP(S) Forward</text><polygon fill="#000000" points="611,1161.5391,601,1165.5391,611,1169.5391,607,1165.5391" style="stroke:#000000;stroke-width:1.0;"/><line style="stroke:#000000;stroke-width:1.0;stroke-dasharray:2.0,2.0;" x1="605" x2="858.5" y1="1165.5391" y2="1165.5391"/><text fill="#000000" font-family="sans-serif" font-size="17" font-weight="bold" lengthAdjust="spacing" textLength="24" x="700.5" y="1159.5298">18</text><text fill="#000000" font-family="sans-serif" font-size="17" lengthAdjust="spacing" textLength="124" x="728.5" y="1159.5298">Sync Response</text><polygon fill="#000000" points="1349.5,1195.3281,1359.5,1199.3281,1349.5,1203.3281,1353.5,1199.3281" style="stroke:#000000;stroke-width:1.0;"/><line style="stroke:#000000;stroke-width:1.0;stroke-dasharray:2.0,2.0;" x1="600" x2="1355.5" y1="1199.3281" y2="1199.3281"/><text fill="#000000" font-family="sans-serif" font-size="17" font-weight="bold" lengthAdjust="spacing" textLength="24" x="607" y="1193.3188">19</text><text fill="#000000" font-family="sans-serif" font-size="17" lengthAdjust="spacing" textLength="142" x="635" y="1193.3188">HTTP(S) Forward</text><polygon fill="#000000" points="1588.5,1229.1172,1598.5,1233.1172,1588.5,1237.1172,1592.5,1233.1172" style="stroke:#000000;stroke-width:1.0;"/><line style="stroke:#000000;stroke-width:1.0;" x1="1371.5" x2="1594.5" y1="1233.1172" y2="1233.1172"/><text fill="#000000" font-family="sans-serif" font-size="17" font-weight="bold" lengthAdjust="spacing" textLength="24" x="1378.5" y="1227.1079">20</text><text fill="#000000" font-family="sans-serif" font-size="17" lengthAdjust="spacing" textLength="164" x="1406.5" y="1227.1079">Einladung anzeigen</text><polygon fill="#000000" points="1382.5,1262.9063,1372.5,1266.9063,1382.5,1270.9063,1378.5,1266.9063" style="stroke:#000000;stroke-width:1.0;"/><line style="stroke:#000000;stroke-width:1.0;stroke-dasharray:2.0,2.0;" x1="1376.5" x2="1599.5" y1="1266.9063" y2="1266.9063"/><text fill="#000000" font-family="sans-serif" font-size="17" font-weight="bold" lengthAdjust="spacing" textLength="24" x="1388.5" y="1260.897">21</text><text fill="#000000" font-family="sans-serif" font-size="17" lengthAdjust="spacing" textLength="177" x="1416.5" y="1260.897">Einladung best&#228;tigen</text><polygon fill="#000000" points="611,1296.6953,601,1300.6953,611,1304.6953,607,1300.6953" style="stroke:#000000;stroke-width:1.0;"/><line style="stroke:#000000;stroke-width:1.0;" x1="605" x2="1360.5" y1="1300.6953" y2="1300.6953"/><text fill="#000000" font-family="sans-serif" font-size="17" font-weight="bold" lengthAdjust="spacing" textLength="24" x="1295.5" y="1294.686">22</text><text fill="#000000" font-family="sans-serif" font-size="17" lengthAdjust="spacing" textLength="31" x="1323.5" y="1294.686">join</text><polygon fill="#000000" points="847.5,1330.4844,857.5,1334.4844,847.5,1338.4844,851.5,1334.4844" style="stroke:#000000;stroke-width:1.0;"/><line style="stroke:#000000;stroke-width:1.0;stroke-dasharray:2.0,2.0;" x1="600" x2="853.5" y1="1334.4844" y2="1334.4844"/><text fill="#000000" font-family="sans-serif" font-size="17" font-weight="bold" lengthAdjust="spacing" textLength="24" x="607" y="1328.4751">23</text><text fill="#000000" font-family="sans-serif" font-size="17" lengthAdjust="spacing" textLength="142" x="635" y="1328.4751">HTTP(S) Forward</text><line style="stroke:#000000;stroke-width:1.0;" x1="869.5" x2="911.5" y1="1368.2734" y2="1368.2734"/><line style="stroke:#000000;stroke-width:1.0;" x1="911.5" x2="911.5" y1="1368.2734" y2="1381.2734"/><line style="stroke:#000000;stroke-width:1.0;" x1="870.5" x2="911.5" y1="1381.2734" y2="1381.2734"/><polygon fill="#000000" points="880.5,1377.2734,870.5,1381.2734,880.5,1385.2734,876.5,1381.2734" style="stroke:#000000;stroke-width:1.0;"/><text fill="#000000" font-family="sans-serif" font-size="17" font-weight="bold" lengthAdjust="spacing" textLength="24" x="876.5" y="1362.2642">24</text><text fill="#000000" font-family="sans-serif" font-size="17" lengthAdjust="spacing" textLength="133" x="904.5" y="1362.2642">join verarbeiten</text><polygon fill="#000000" points="611,1411.0625,601,1415.0625,611,1419.0625,607,1415.0625" style="stroke:#000000;stroke-width:1.0;"/><line style="stroke:#000000;stroke-width:1.0;stroke-dasharray:2.0,2.0;" x1="605" x2="863.5" y1="1415.0625" y2="1415.0625"/><text fill="#000000" font-family="sans-serif" font-size="17" font-weight="bold" lengthAdjust="spacing" textLength="24" x="756.5" y="1409.0532">25</text><text fill="#000000" font-family="sans-serif" font-size="17" lengthAdjust="spacing" textLength="73" x="784.5" y="1409.0532">Room ID</text><polygon fill="#000000" points="1349.5,1444.8516,1359.5,1448.8516,1349.5,1452.8516,1353.5,1448.8516" style="stroke:#000000;stroke-width:1.0;"/><line style="stroke:#000000;stroke-width:1.0;stroke-dasharray:2.0,2.0;" x1="595" x2="1355.5" y1="1448.8516" y2="1448.8516"/><text fill="#000000" font-family="sans-serif" font-size="17" font-weight="bold" lengthAdjust="spacing" textLength="24" x="602" y="1442.8423">26</text><text fill="#000000" font-family="sans-serif" font-size="17" lengthAdjust="spacing" textLength="142" x="630" y="1442.8423">HTTP(S) Forward</text><polygon fill="#000000" points="1588.5,1498.4297,1598.5,1502.4297,1588.5,1506.4297,1592.5,1502.4297" style="stroke:#000000;stroke-width:1.0;"/><line style="stroke:#000000;stroke-width:1.0;stroke-dasharray:2.0,2.0;" x1="1366.5" x2="1594.5" y1="1502.4297" y2="1502.4297"/><text fill="#000000" font-family="sans-serif" font-size="17" font-weight="bold" lengthAdjust="spacing" textLength="24" x="1373.5" y="1486.5259">27</text><text fill="#000000" font-family="sans-serif" font-size="17" lengthAdjust="spacing" textLength="123" x="1401.5" y="1476.6313">Nutzer ist dem</text><text fill="#000000" font-family="sans-serif" font-size="17" lengthAdjust="spacing" textLength="152" x="1401.5" y="1496.4204">Raum beigetreten</text><polygon fill="#000000" points="578,1532.2188,588,1536.2188,578,1540.2188,582,1536.2188" style="stroke:#000000;stroke-width:1.0;"/><line style="stroke:#000000;stroke-width:1.0;" x1="350" x2="584" y1="1536.2188" y2="1536.2188"/><text fill="#000000" font-family="sans-serif" font-size="17" font-weight="bold" lengthAdjust="spacing" textLength="24" x="357" y="1530.2095">28</text><text fill="#000000" font-family="sans-serif" font-size="17" lengthAdjust="spacing" textLength="113" x="385" y="1530.2095">Sync Request</text><polygon fill="#000000" points="847.5,1566.0078,857.5,1570.0078,847.5,1574.0078,851.5,1570.0078" style="stroke:#000000;stroke-width:1.0;"/><line style="stroke:#000000;stroke-width:1.0;" x1="600" x2="853.5" y1="1570.0078" y2="1570.0078"/><text fill="#000000" font-family="sans-serif" font-size="17" font-weight="bold" lengthAdjust="spacing" textLength="24" x="607" y="1563.9985">29</text><text fill="#000000" font-family="sans-serif" font-size="17" lengthAdjust="spacing" textLength="142" x="635" y="1563.9985">HTTP(S) Forward</text><polygon fill="#000000" points="611,1599.7969,601,1603.7969,611,1607.7969,607,1603.7969" style="stroke:#000000;stroke-width:1.0;"/><line style="stroke:#000000;stroke-width:1.0;stroke-dasharray:2.0,2.0;" x1="605" x2="863.5" y1="1603.7969" y2="1603.7969"/><text fill="#000000" font-family="sans-serif" font-size="17" font-weight="bold" lengthAdjust="spacing" textLength="24" x="705.5" y="1597.7876">30</text><text fill="#000000" font-family="sans-serif" font-size="17" lengthAdjust="spacing" textLength="124" x="733.5" y="1597.7876">Sync Response</text><polygon fill="#000000" points="361,1633.5859,351,1637.5859,361,1641.5859,357,1637.5859" style="stroke:#000000;stroke-width:1.0;"/><line style="stroke:#000000;stroke-width:1.0;stroke-dasharray:2.0,2.0;" x1="355" x2="594" y1="1637.5859" y2="1637.5859"/><text fill="#000000" font-family="sans-serif" font-size="17" font-weight="bold" lengthAdjust="spacing" textLength="24" x="418" y="1631.5767">31</text><text fill="#000000" font-family="sans-serif" font-size="17" lengthAdjust="spacing" textLength="142" x="446" y="1631.5767">HTTP(S) Forward</text><polygon fill="#000000" points="104,1687.1641,94,1691.1641,104,1695.1641,100,1691.1641" style="stroke:#000000;stroke-width:1.0;"/><line style="stroke:#000000;stroke-width:1.0;stroke-dasharray:2.0,2.0;" x1="98" x2="344" y1="1691.1641" y2="1691.1641"/><text fill="#000000" font-family="sans-serif" font-size="17" font-weight="bold" lengthAdjust="spacing" textLength="24" x="115" y="1675.2603">32</text><text fill="#000000" font-family="sans-serif" font-size="17" lengthAdjust="spacing" textLength="195" x="143" y="1665.3657">Akteur B ist dem Raum</text><text fill="#000000" font-family="sans-serif" font-size="17" lengthAdjust="spacing" textLength="152" x="143" y="1685.1548">Raum beigetreten</text></g></svg>