<?xml version="1.0" encoding="us-ascii" standalone="no"?><svg xmlns="http://www.w3.org/2000/svg" xmlns:xlink="http://www.w3.org/1999/xlink" contentStyleType="text/css" height="1582px" preserveAspectRatio="none" style="width:1152px;height:1582px;background:#FFFFFF;" version="1.1" viewBox="0 0 1152 1582" width="1152px" zoomAndPan="magnify"><defs/><g><rect fill="#F5F5F5" height="1570.5" style="stroke:#181818;stroke-width:0.5;" width="498" x="510.5" y="6"/><text fill="#000000" font-family="sans-serif" font-size="18" font-weight="bold" lengthAdjust="spacing" textLength="193" x="660.5" y="22.708">Messenger-Service</text><text fill="#000000" font-family="sans-serif" font-size="13" font-weight="bold" lengthAdjust="spacing" textLength="5" x="853.5" y="23.8872">&#160;</text><rect fill="#DCDCDC" height="1251.5859" style="stroke:#000000;stroke-width:1.0;" width="10" x="352.5" y="172.3516"/><rect fill="#DCDCDC" height="250.5234" style="stroke:#000000;stroke-width:1.0;" width="10" x="616.5" y="206.1406"/><rect fill="#DCDCDC" height="609.3828" style="stroke:#000000;stroke-width:1.0;" width="10" x="616.5" y="649.6094"/><rect fill="#DCDCDC" height="182.9453" style="stroke:#000000;stroke-width:1.0;" width="10" x="892.5" y="239.9297"/><rect fill="#DCDCDC" height="541.8047" style="stroke:#000000;stroke-width:1.0;" width="10" x="892.5" y="683.3984"/><rect fill="#FFE4E1" height="186.7031" style="stroke:#000000;stroke-width:1.5;" width="1003.5" x="11" y="789.9766"/><line style="stroke:#000000;stroke-width:0.5;stroke-dasharray:5.0,5.0;" x1="89" x2="89" y1="111.5625" y2="1466.9375"/><line style="stroke:#000000;stroke-width:0.5;stroke-dasharray:5.0,5.0;" x1="357.5" x2="357.5" y1="111.5625" y2="1466.9375"/><line style="stroke:#000000;stroke-width:0.5;stroke-dasharray:5.0,5.0;" x1="621.5" x2="621.5" y1="111.5625" y2="1466.9375"/><line style="stroke:#000000;stroke-width:0.5;stroke-dasharray:5.0,5.0;" x1="897.5" x2="897.5" y1="111.5625" y2="1466.9375"/><text fill="#000000" font-family="Aapex" font-size="20" lengthAdjust="spacing" textLength="131" x="21" y="83.5645">Akteur in der</text><text fill="#000000" font-family="Aapex" font-size="20" lengthAdjust="spacing" textLength="101" x="36" y="106.8457">Rolle User</text><ellipse cx="89.5" cy="13.5" fill="#DCDCDC" rx="8" ry="8" style="stroke:#000000;stroke-width:0.5;"/><path d="M89.5,21.5 L89.5,48.5 M76.5,29.5 L102.5,29.5 M89.5,48.5 L76.5,63.5 M89.5,48.5 L102.5,63.5 " fill="none" style="stroke:#000000;stroke-width:0.5;"/><text fill="#000000" font-family="Aapex" font-size="20" lengthAdjust="spacing" textLength="131" x="21" y="1484.502">Akteur in der</text><text fill="#000000" font-family="Aapex" font-size="20" lengthAdjust="spacing" textLength="101" x="36" y="1507.7832">Rolle User</text><ellipse cx="89.5" cy="1521" fill="#DCDCDC" rx="8" ry="8" style="stroke:#000000;stroke-width:0.5;"/><path d="M89.5,1529 L89.5,1556 M76.5,1537 L102.5,1537 M89.5,1556 L76.5,1571 M89.5,1556 L102.5,1571 " fill="none" style="stroke:#000000;stroke-width:0.5;"/><rect fill="#EFEFFF" height="37.2813" rx="2.5" ry="2.5" style="stroke:#000000;stroke-width:0.5;" width="214" x="250.5" y="73.2813"/><text fill="#000000" font-family="sans-serif" font-size="20" lengthAdjust="spacing" textLength="198" x="258.5" y="98.8457">TI-Messenger-Client</text><rect fill="#EFEFFF" height="37.2813" rx="2.5" ry="2.5" style="stroke:#000000;stroke-width:0.5;" width="214" x="250.5" y="1465.9375"/><text fill="#000000" font-family="sans-serif" font-size="20" lengthAdjust="spacing" textLength="198" x="258.5" y="1491.502">TI-Messenger-Client</text><rect fill="#EFEFFF" height="37.2813" rx="2.5" ry="2.5" style="stroke:#000000;stroke-width:0.5;" width="214" x="514.5" y="73.2813"/><text fill="#000000" font-family="sans-serif" font-size="20" lengthAdjust="spacing" textLength="167" x="538" y="98.8457">Messenger Proxy</text><rect fill="#EFEFFF" height="37.2813" rx="2.5" ry="2.5" style="stroke:#000000;stroke-width:0.5;" width="214" x="514.5" y="1465.9375"/><text fill="#000000" font-family="sans-serif" font-size="20" lengthAdjust="spacing" textLength="167" x="538" y="1491.502">Messenger Proxy</text><rect fill="#EFEFFF" height="37.2813" rx="2.5" ry="2.5" style="stroke:#000000;stroke-width:0.5;" width="214" x="790.5" y="73.2813"/><text fill="#000000" font-family="sans-serif" font-size="20" lengthAdjust="spacing" textLength="189" x="803" y="98.8457">Matrix-Homeserver</text><rect fill="#EFEFFF" height="37.2813" rx="2.5" ry="2.5" style="stroke:#000000;stroke-width:0.5;" width="214" x="790.5" y="1465.9375"/><text fill="#000000" font-family="sans-serif" font-size="20" lengthAdjust="spacing" textLength="189" x="803" y="1491.502">Matrix-Homeserver</text><rect fill="#DCDCDC" height="1251.5859" style="stroke:#000000;stroke-width:1.0;" width="10" x="352.5" y="172.3516"/><rect fill="#DCDCDC" height="250.5234" style="stroke:#000000;stroke-width:1.0;" width="10" x="616.5" y="206.1406"/><rect fill="#DCDCDC" height="609.3828" style="stroke:#000000;stroke-width:1.0;" width="10" x="616.5" y="649.6094"/><rect fill="#DCDCDC" height="182.9453" style="stroke:#000000;stroke-width:1.0;" width="10" x="892.5" y="239.9297"/><rect fill="#DCDCDC" height="541.8047" style="stroke:#000000;stroke-width:1.0;" width="10" x="892.5" y="683.3984"/><polygon fill="#000000" points="340.5,168.3516,350.5,172.3516,340.5,176.3516,344.5,172.3516" style="stroke:#000000;stroke-width:1.0;"/><line style="stroke:#000000;stroke-width:1.0;" x1="89.5" x2="346.5" y1="172.3516" y2="172.3516"/><text fill="#000000" font-family="sans-serif" font-size="17" font-weight="bold" lengthAdjust="spacing" textLength="12" x="96.5" y="166.3423">1</text><text fill="#000000" font-family="sans-serif" font-size="17" lengthAdjust="spacing" textLength="228" x="112.5" y="166.3423">Eingabe Messenger-Service</text><polygon fill="#000000" points="604.5,202.1406,614.5,206.1406,604.5,210.1406,608.5,206.1406" style="stroke:#000000;stroke-width:1.0;"/><line style="stroke:#000000;stroke-width:1.0;" x1="362.5" x2="610.5" y1="206.1406" y2="206.1406"/><text fill="#000000" font-family="sans-serif" font-size="17" font-weight="bold" lengthAdjust="spacing" textLength="12" x="369.5" y="200.1313">2</text><text fill="#000000" font-family="sans-serif" font-size="17" lengthAdjust="spacing" textLength="209" x="385.5" y="200.1313">GET /_matrix/client/login</text><polygon fill="#000000" points="880.5,235.9297,890.5,239.9297,880.5,243.9297,884.5,239.9297" style="stroke:#000000;stroke-width:1.0;"/><line style="stroke:#000000;stroke-width:1.0;" x1="626.5" x2="886.5" y1="239.9297" y2="239.9297"/><text fill="#000000" font-family="sans-serif" font-size="17" font-weight="bold" lengthAdjust="spacing" textLength="12" x="633.5" y="233.9204">3</text><text fill="#000000" font-family="sans-serif" font-size="17" lengthAdjust="spacing" textLength="142" x="649.5" y="233.9204">HTTP(S) Forward</text><path d="M5,277.9297 L5,326.9297 L983,326.9297 L983,287.9297 L973,277.9297 L5,277.9297 " fill="#FEFFDD" style="stroke:#181818;stroke-width:0.5;"/><path d="M973,277.9297 L973,287.9297 L983,287.9297 L973,277.9297 " fill="#FEFFDD" style="stroke:#181818;stroke-width:0.5;"/><text fill="#000000" font-family="sans-serif" font-size="17" lengthAdjust="spacing" textLength="417" x="270.75" y="298.7095">Die Authentifizierungsverfahren werden f&#252;r jeden</text><text fill="#000000" font-family="sans-serif" font-size="17" lengthAdjust="spacing" textLength="438" x="270.75" y="318.4985">Messenger-Service durch die Organisation festgelegt</text><polygon fill="#000000" points="637.5,418.875,627.5,422.875,637.5,426.875,633.5,422.875" style="stroke:#000000;stroke-width:1.0;"/><line style="stroke:#000000;stroke-width:1.0;stroke-dasharray:2.0,2.0;" x1="631.5" x2="896.5" y1="422.875" y2="422.875"/><text fill="#000000" font-family="sans-serif" font-size="17" font-weight="bold" lengthAdjust="spacing" textLength="12" x="714.5" y="397.0767">4</text><text fill="#000000" font-family="sans-serif" font-size="17" lengthAdjust="spacing" textLength="104" x="730.5" y="377.2876">unterst&#252;tzte</text><text fill="#000000" font-family="sans-serif" font-size="17" lengthAdjust="spacing" textLength="160" x="730.5" y="397.0767">Authentifizierungs-</text><text fill="#000000" font-family="sans-serif" font-size="17" lengthAdjust="spacing" textLength="82" x="730.5" y="416.8657">verfahren</text><polygon fill="#000000" points="373.5,452.6641,363.5,456.6641,373.5,460.6641,369.5,456.6641" style="stroke:#000000;stroke-width:1.0;"/><line style="stroke:#000000;stroke-width:1.0;stroke-dasharray:2.0,2.0;" x1="367.5" x2="620.5" y1="456.6641" y2="456.6641"/><text fill="#000000" font-family="sans-serif" font-size="17" font-weight="bold" lengthAdjust="spacing" textLength="12" x="456.5" y="450.6548">5</text><text fill="#000000" font-family="sans-serif" font-size="17" lengthAdjust="spacing" textLength="142" x="472.5" y="450.6548">HTTP(S) Forward</text><polygon fill="#000000" points="100.5,506.2422,90.5,510.2422,100.5,514.2422,96.5,510.2422" style="stroke:#000000;stroke-width:1.0;"/><line style="stroke:#000000;stroke-width:1.0;stroke-dasharray:2.0,2.0;" x1="94.5" x2="351.5" y1="510.2422" y2="510.2422"/><text fill="#000000" font-family="sans-serif" font-size="17" font-weight="bold" lengthAdjust="spacing" textLength="12" x="120.5" y="494.3384">6</text><text fill="#000000" font-family="sans-serif" font-size="17" lengthAdjust="spacing" textLength="47" x="136.5" y="484.4438">Zeige</text><text fill="#000000" font-family="sans-serif" font-size="17" lengthAdjust="spacing" textLength="209" x="136.5" y="504.2329">Authentifizierungsmaske</text><line style="stroke:#000000;stroke-width:1.0;" x1="89.5" x2="131.5" y1="569.0313" y2="569.0313"/><line style="stroke:#000000;stroke-width:1.0;" x1="131.5" x2="131.5" y1="569.0313" y2="582.0313"/><line style="stroke:#000000;stroke-width:1.0;" x1="90.5" x2="131.5" y1="582.0313" y2="582.0313"/><polygon fill="#000000" points="100.5,578.0313,90.5,582.0313,100.5,586.0313,96.5,582.0313" style="stroke:#000000;stroke-width:1.0;"/><text fill="#000000" font-family="sans-serif" font-size="17" font-weight="bold" lengthAdjust="spacing" textLength="12" x="96.5" y="563.022">7</text><text fill="#000000" font-family="sans-serif" font-size="17" lengthAdjust="spacing" textLength="203" x="112.5" y="563.022">Starte Authentifizierung</text><polygon fill="#000000" points="340.5,611.8203,350.5,615.8203,340.5,619.8203,344.5,615.8203" style="stroke:#000000;stroke-width:1.0;"/><line style="stroke:#000000;stroke-width:1.0;" x1="89.5" x2="346.5" y1="615.8203" y2="615.8203"/><text fill="#000000" font-family="sans-serif" font-size="17" font-weight="bold" lengthAdjust="spacing" textLength="12" x="96.5" y="609.811">8</text><text fill="#000000" font-family="sans-serif" font-size="17" lengthAdjust="spacing" textLength="96" x="112.5" y="609.811">Anmeldung</text><polygon fill="#000000" points="604.5,645.6094,614.5,649.6094,604.5,653.6094,608.5,649.6094" style="stroke:#000000;stroke-width:1.0;"/><line style="stroke:#000000;stroke-width:1.0;" x1="362.5" x2="610.5" y1="649.6094" y2="649.6094"/><text fill="#000000" font-family="sans-serif" font-size="17" font-weight="bold" lengthAdjust="spacing" textLength="12" x="369.5" y="643.6001">9</text><text fill="#000000" font-family="sans-serif" font-size="17" lengthAdjust="spacing" textLength="219" x="385.5" y="643.6001">POST /_matrix/client/login</text><polygon fill="#000000" points="880.5,679.3984,890.5,683.3984,880.5,687.3984,884.5,683.3984" style="stroke:#000000;stroke-width:1.0;"/><line style="stroke:#000000;stroke-width:1.0;" x1="626.5" x2="886.5" y1="683.3984" y2="683.3984"/><text fill="#000000" font-family="sans-serif" font-size="17" font-weight="bold" lengthAdjust="spacing" textLength="24" x="633.5" y="677.3892">10</text><text fill="#000000" font-family="sans-serif" font-size="17" lengthAdjust="spacing" textLength="142" x="661.5" y="677.3892">HTTP(S) Forward</text><line style="stroke:#000000;stroke-width:1.0;" x1="902.5" x2="944.5" y1="736.9766" y2="736.9766"/><line style="stroke:#000000;stroke-width:1.0;" x1="944.5" x2="944.5" y1="736.9766" y2="749.9766"/><line style="stroke:#000000;stroke-width:1.0;" x1="903.5" x2="944.5" y1="749.9766" y2="749.9766"/><polygon fill="#000000" points="913.5,745.9766,903.5,749.9766,913.5,753.9766,909.5,749.9766" style="stroke:#000000;stroke-width:1.0;"/><text fill="#000000" font-family="sans-serif" font-size="17" font-weight="bold" lengthAdjust="spacing" textLength="24" x="909.5" y="721.0728">11</text><text fill="#000000" font-family="sans-serif" font-size="17" lengthAdjust="spacing" textLength="44" x="937.5" y="711.1782">pr&#252;fe</text><text fill="#000000" font-family="sans-serif" font-size="17" lengthAdjust="spacing" textLength="151" x="937.5" y="730.9673">Client-Credentials</text><path d="M11,789.9766 L81,789.9766 L81,797.1094 L71,807.1094 L11,807.1094 L11,789.9766 " fill="#D3D3D3" style="stroke:#000000;stroke-width:1.5;"/><rect fill="none" height="186.7031" style="stroke:#000000;stroke-width:1.5;" width="1003.5" x="11" y="789.9766"/><text fill="#000000" font-family="sans-serif" font-size="13" font-weight="bold" lengthAdjust="spacing" textLength="25" x="26" y="803.0435">opt</text><text fill="#000000" font-family="sans-serif" font-size="11" font-weight="bold" lengthAdjust="spacing" textLength="5" x="96" y="808.0073">[</text><text fill="#000000" font-family="sans-serif" font-size="16" font-weight="bold" lengthAdjust="spacing" textLength="74" x="101" y="806.8281">Abbruch</text><text fill="#000000" font-family="sans-serif" font-size="11" font-weight="bold" lengthAdjust="spacing" textLength="5" x="175" y="808.0073">]</text><polygon fill="#000000" points="637.5,852.3125,627.5,856.3125,637.5,860.3125,633.5,856.3125" style="stroke:#000000;stroke-width:1.0;"/><line style="stroke:#000000;stroke-width:1.0;stroke-dasharray:2.0,2.0;" x1="631.5" x2="891.5" y1="856.3125" y2="856.3125"/><text fill="#000000" font-family="sans-serif" font-size="17" font-weight="bold" lengthAdjust="spacing" textLength="24" x="735.5" y="840.4087">12</text><text fill="#000000" font-family="sans-serif" font-size="17" lengthAdjust="spacing" textLength="97" x="763.5" y="830.5142">Fehlerhafte</text><text fill="#000000" font-family="sans-serif" font-size="17" lengthAdjust="spacing" textLength="122" x="763.5" y="850.3032">Anmeldedaten</text><polygon fill="#000000" points="373.5,886.1016,363.5,890.1016,373.5,894.1016,369.5,890.1016" style="stroke:#000000;stroke-width:1.0;"/><line style="stroke:#000000;stroke-width:1.0;stroke-dasharray:2.0,2.0;" x1="367.5" x2="615.5" y1="890.1016" y2="890.1016"/><text fill="#000000" font-family="sans-serif" font-size="17" font-weight="bold" lengthAdjust="spacing" textLength="24" x="439.5" y="884.0923">13</text><text fill="#000000" font-family="sans-serif" font-size="17" lengthAdjust="spacing" textLength="142" x="467.5" y="884.0923">HTTP(S) Forward</text><polygon fill="#000000" points="100.5,939.6797,90.5,943.6797,100.5,947.6797,96.5,943.6797" style="stroke:#000000;stroke-width:1.0;"/><line style="stroke:#000000;stroke-width:1.0;stroke-dasharray:2.0,2.0;" x1="94.5" x2="351.5" y1="943.6797" y2="943.6797"/><text fill="#000000" font-family="sans-serif" font-size="17" font-weight="bold" lengthAdjust="spacing" textLength="24" x="170.5" y="927.7759">14</text><text fill="#000000" font-family="sans-serif" font-size="17" lengthAdjust="spacing" textLength="122" x="198.5" y="917.8813">Anmeldedaten</text><text fill="#000000" font-family="sans-serif" font-size="17" lengthAdjust="spacing" textLength="147" x="198.5" y="937.6704">sind nicht korrekt</text><path d="M722,1013.6797 L722,1062.6797 L1073,1062.6797 L1073,1023.6797 L1063,1013.6797 L722,1013.6797 " fill="#FEFFDD" style="stroke:#181818;stroke-width:0.5;"/><path d="M1063,1013.6797 L1063,1023.6797 L1073,1023.6797 L1063,1013.6797 " fill="#FEFFDD" style="stroke:#181818;stroke-width:0.5;"/><text fill="#000000" font-family="sans-serif" font-size="17" lengthAdjust="spacing" textLength="288" x="728" y="1034.4595">Die &#220;berpr&#252;fung ist abh&#228;ngig vom</text><text fill="#000000" font-family="sans-serif" font-size="17" lengthAdjust="spacing" textLength="330" x="728" y="1054.2485">gew&#228;hlten Authentifizierungsverfahren</text><line style="stroke:#000000;stroke-width:1.0;" x1="902.5" x2="944.5" y1="1158.625" y2="1158.625"/><line style="stroke:#000000;stroke-width:1.0;" x1="944.5" x2="944.5" y1="1158.625" y2="1171.625"/><line style="stroke:#000000;stroke-width:1.0;" x1="903.5" x2="944.5" y1="1171.625" y2="1171.625"/><polygon fill="#000000" points="913.5,1167.625,903.5,1171.625,913.5,1175.625,909.5,1171.625" style="stroke:#000000;stroke-width:1.0;"/><text fill="#000000" font-family="sans-serif" font-size="17" font-weight="bold" lengthAdjust="spacing" textLength="24" x="909.5" y="1132.8267">15</text><text fill="#000000" font-family="sans-serif" font-size="17" lengthAdjust="spacing" textLength="62" x="937.5" y="1113.0376">erstelle</text><text fill="#000000" font-family="sans-serif" font-size="17" lengthAdjust="spacing" textLength="201" x="937.5" y="1132.8267">Matrix-ACCESS_TOKEN,</text><text fill="#000000" font-family="sans-serif" font-size="17" lengthAdjust="spacing" textLength="208" x="937.5" y="1152.6157">Matrix-REFRESH_TOKEN</text><polygon fill="#000000" points="637.5,1221.2031,627.5,1225.2031,637.5,1229.2031,633.5,1225.2031" style="stroke:#000000;stroke-width:1.0;"/><line style="stroke:#000000;stroke-width:1.0;stroke-dasharray:2.0,2.0;" x1="631.5" x2="896.5" y1="1225.2031" y2="1225.2031"/><text fill="#000000" font-family="sans-serif" font-size="17" font-weight="bold" lengthAdjust="spacing" textLength="24" x="648.5" y="1209.2993">16</text><text fill="#000000" font-family="sans-serif" font-size="17" lengthAdjust="spacing" textLength="207" x="676.5" y="1199.4048">:Matrix-ACCESS_TOKEN,</text><text fill="#000000" font-family="sans-serif" font-size="17" lengthAdjust="spacing" textLength="214" x="676.5" y="1219.1938">:Matrix-REFRESH_TOKEN</text><polygon fill="#000000" points="373.5,1254.9922,363.5,1258.9922,373.5,1262.9922,369.5,1258.9922" style="stroke:#000000;stroke-width:1.0;"/><line style="stroke:#000000;stroke-width:1.0;stroke-dasharray:2.0,2.0;" x1="367.5" x2="620.5" y1="1258.9922" y2="1258.9922"/><text fill="#000000" font-family="sans-serif" font-size="17" font-weight="bold" lengthAdjust="spacing" textLength="24" x="444.5" y="1252.9829">17</text><text fill="#000000" font-family="sans-serif" font-size="17" lengthAdjust="spacing" textLength="142" x="472.5" y="1252.9829">HTTP(S) Forward</text><line style="stroke:#000000;stroke-width:1.0;" x1="362.5" x2="404.5" y1="1357.3594" y2="1357.3594"/><line style="stroke:#000000;stroke-width:1.0;" x1="404.5" x2="404.5" y1="1357.3594" y2="1370.3594"/><line style="stroke:#000000;stroke-width:1.0;" x1="363.5" x2="404.5" y1="1370.3594" y2="1370.3594"/><polygon fill="#000000" points="373.5,1366.3594,363.5,1370.3594,373.5,1374.3594,369.5,1370.3594" style="stroke:#000000;stroke-width:1.0;"/><text fill="#000000" font-family="sans-serif" font-size="17" font-weight="bold" lengthAdjust="spacing" textLength="24" x="369.5" y="1331.561">18</text><text fill="#000000" font-family="sans-serif" font-size="17" lengthAdjust="spacing" textLength="82" x="397.5" y="1311.772">Speichere</text><text fill="#000000" font-family="sans-serif" font-size="17" lengthAdjust="spacing" textLength="201" x="397.5" y="1331.561">Matrix-ACCESS_TOKEN,</text><text fill="#000000" font-family="sans-serif" font-size="17" lengthAdjust="spacing" textLength="208" x="397.5" y="1351.3501">Matrix-REFRESH_TOKEN</text><polygon fill="#000000" points="100.5,1419.9375,90.5,1423.9375,100.5,1427.9375,96.5,1423.9375" style="stroke:#000000;stroke-width:1.0;"/><line style="stroke:#000000;stroke-width:1.0;stroke-dasharray:2.0,2.0;" x1="94.5" x2="356.5" y1="1423.9375" y2="1423.9375"/><text fill="#000000" font-family="sans-serif" font-size="17" font-weight="bold" lengthAdjust="spacing" textLength="24" x="221.5" y="1408.0337">19</text><text fill="#000000" font-family="sans-serif" font-size="17" lengthAdjust="spacing" textLength="96" x="249.5" y="1398.1392">Anmeldung</text><text fill="#000000" font-family="sans-serif" font-size="17" lengthAdjust="spacing" textLength="89" x="249.5" y="1417.9282">erfolgreich</text></g></svg>