<?xml version="1.0" encoding="us-ascii" standalone="no"?><svg xmlns="http://www.w3.org/2000/svg" xmlns:xlink="http://www.w3.org/1999/xlink" contentStyleType="text/css" height="1630px" preserveAspectRatio="none" style="width:1378px;height:1630px;background:#FFFFFF;" version="1.1" viewBox="0 0 1378 1630" width="1378px" zoomAndPan="magnify"><defs/><g><rect fill="#F5F5F5" height="1618.2813" style="stroke:#181818;stroke-width:0.5;" width="695" x="660.5" y="6"/><text fill="#000000" font-family="sans-serif" font-size="18" font-weight="bold" lengthAdjust="spacing" textLength="200" x="905.5" y="22.708">VZD-FHIR-Directory</text><text fill="#000000" font-family="sans-serif" font-size="13" font-weight="bold" lengthAdjust="spacing" textLength="5" x="1105.5" y="23.8872">&#160;</text><rect fill="#DCDCDC" height="1384.1563" style="stroke:#000000;stroke-width:1.0;" width="10" x="301.5" y="121.5625"/><rect fill="#DCDCDC" height="194.7813" style="stroke:#000000;stroke-width:1.0;" width="10" x="766.5" y="650.0859"/><rect fill="#DCDCDC" height="192.9453" style="stroke:#000000;stroke-width:1.0;" width="10" x="766.5" y="1002.8594"/><rect fill="#DCDCDC" height="33.7891" style="stroke:#000000;stroke-width:1.0;" width="10" x="766.5" y="1365.1406"/><rect fill="#DCDCDC" height="33.7891" style="stroke:#000000;stroke-width:1.0;" width="10" x="1239.5" y="777.2891"/><rect fill="#DCDCDC" height="33.7891" style="stroke:#000000;stroke-width:1.0;" width="10" x="1239.5" y="1128.2266"/><rect fill="none" height="143.1719" style="stroke:#000000;stroke-width:1.5;" width="1341.5" x="20" y="346.9844"/><rect fill="none" height="993.5625" style="stroke:#000000;stroke-width:1.5;" width="1361.5" x="10" y="504.1563"/><rect fill="#F0F8FF" height="705.6797" style="stroke:#000000;stroke-width:1.5;" width="1341.5" x="20" y="556.9141"/><rect fill="#F0F8FF" height="350.9375" style="stroke:none;stroke-width:1.0;" width="1341.5" x="20" y="911.6563"/><rect fill="#FFE4E1" height="143.5" style="stroke:#000000;stroke-width:1.5;" width="868.5" x="20" y="1322.2188"/><line style="stroke:#000000;stroke-width:0.5;stroke-dasharray:5.0,5.0;" x1="98" x2="98" y1="111.5625" y2="1514.7188"/><line style="stroke:#000000;stroke-width:0.5;stroke-dasharray:5.0,5.0;" x1="306.5" x2="306.5" y1="111.5625" y2="1514.7188"/><line style="stroke:#000000;stroke-width:0.5;stroke-dasharray:5.0,5.0;" x1="530.5" x2="530.5" y1="111.5625" y2="1514.7188"/><line style="stroke:#000000;stroke-width:0.5;stroke-dasharray:5.0,5.0;" x1="771.5" x2="771.5" y1="111.5625" y2="1514.7188"/><line style="stroke:#000000;stroke-width:0.5;stroke-dasharray:5.0,5.0;" x1="1020.5" x2="1020.5" y1="111.5625" y2="1514.7188"/><line style="stroke:#000000;stroke-width:0.5;stroke-dasharray:5.0,5.0;" x1="1244.5" x2="1244.5" y1="111.5625" y2="1514.7188"/><text fill="#000000" font-family="sans-serif" font-size="20" lengthAdjust="spacing" textLength="131" x="30" y="83.5645">Akteur in der</text><text fill="#000000" font-family="sans-serif" font-size="20" lengthAdjust="spacing" textLength="101" x="45" y="106.8457">Rolle User</text><ellipse cx="98.5" cy="13.5" fill="#DCDCDC" rx="8" ry="8" style="stroke:#000000;stroke-width:0.5;"/><path d="M98.5,21.5 L98.5,48.5 M85.5,29.5 L111.5,29.5 M98.5,48.5 L85.5,63.5 M98.5,48.5 L111.5,63.5 " fill="none" style="stroke:#000000;stroke-width:0.5;"/><text fill="#000000" font-family="sans-serif" font-size="20" lengthAdjust="spacing" textLength="131" x="30" y="1532.2832">Akteur in der</text><text fill="#000000" font-family="sans-serif" font-size="20" lengthAdjust="spacing" textLength="101" x="45" y="1555.5645">Rolle User</text><ellipse cx="98.5" cy="1568.7813" fill="#DCDCDC" rx="8" ry="8" style="stroke:#000000;stroke-width:0.5;"/><path d="M98.5,1576.7813 L98.5,1603.7813 M85.5,1584.7813 L111.5,1584.7813 M98.5,1603.7813 L85.5,1618.7813 M98.5,1603.7813 L111.5,1618.7813 " fill="none" style="stroke:#000000;stroke-width:0.5;"/><rect fill="#EFEFFF" height="37.2813" rx="2.5" ry="2.5" style="stroke:#000000;stroke-width:0.5;" width="214" x="199.5" y="73.2813"/><text fill="#000000" font-family="sans-serif" font-size="20" lengthAdjust="spacing" textLength="197" x="208" y="98.8457">TI-Messenger Client</text><rect fill="#EFEFFF" height="37.2813" rx="2.5" ry="2.5" style="stroke:#000000;stroke-width:0.5;" width="214" x="199.5" y="1513.7188"/><text fill="#000000" font-family="sans-serif" font-size="20" lengthAdjust="spacing" textLength="197" x="208" y="1539.2832">TI-Messenger Client</text><rect fill="#EFEFFF" height="37.2813" rx="2.5" ry="2.5" style="stroke:#000000;stroke-width:0.5;" width="214" x="423.5" y="73.2813"/><text fill="#000000" font-family="sans-serif" font-size="20" lengthAdjust="spacing" textLength="186" x="437.5" y="98.8457">Messenger Service</text><rect fill="#EFEFFF" height="37.2813" rx="2.5" ry="2.5" style="stroke:#000000;stroke-width:0.5;" width="214" x="423.5" y="1513.7188"/><text fill="#000000" font-family="sans-serif" font-size="20" lengthAdjust="spacing" textLength="186" x="437.5" y="1539.2832">Messenger Service</text><rect fill="#EFEFFF" height="37.2813" rx="2.5" ry="2.5" style="stroke:#000000;stroke-width:0.5;" width="214" x="664.5" y="73.2813"/><text fill="#000000" font-family="sans-serif" font-size="20" lengthAdjust="spacing" textLength="108" x="717.5" y="98.8457">FHIR-Proxy</text><rect fill="#EFEFFF" height="37.2813" rx="2.5" ry="2.5" style="stroke:#000000;stroke-width:0.5;" width="214" x="664.5" y="1513.7188"/><text fill="#000000" font-family="sans-serif" font-size="20" lengthAdjust="spacing" textLength="108" x="717.5" y="1539.2832">FHIR-Proxy</text><rect fill="#EFEFFF" height="37.2813" rx="2.5" ry="2.5" style="stroke:#000000;stroke-width:0.5;" width="214" x="913.5" y="73.2813"/><text fill="#000000" font-family="sans-serif" font-size="20" lengthAdjust="spacing" textLength="128" x="956.5" y="98.8457">Auth-Service</text><rect fill="#EFEFFF" height="37.2813" rx="2.5" ry="2.5" style="stroke:#000000;stroke-width:0.5;" width="214" x="913.5" y="1513.7188"/><text fill="#000000" font-family="sans-serif" font-size="20" lengthAdjust="spacing" textLength="128" x="956.5" y="1539.2832">Auth-Service</text><rect fill="#EFEFFF" height="37.2813" rx="2.5" ry="2.5" style="stroke:#000000;stroke-width:0.5;" width="214" x="1137.5" y="73.2813"/><text fill="#000000" font-family="sans-serif" font-size="20" lengthAdjust="spacing" textLength="145" x="1172" y="98.8457">FHIR-Directory</text><rect fill="#EFEFFF" height="37.2813" rx="2.5" ry="2.5" style="stroke:#000000;stroke-width:0.5;" width="214" x="1137.5" y="1513.7188"/><text fill="#000000" font-family="sans-serif" font-size="20" lengthAdjust="spacing" textLength="145" x="1172" y="1539.2832">FHIR-Directory</text><rect fill="#DCDCDC" height="1384.1563" style="stroke:#000000;stroke-width:1.0;" width="10" x="301.5" y="121.5625"/><rect fill="#DCDCDC" height="194.7813" style="stroke:#000000;stroke-width:1.0;" width="10" x="766.5" y="650.0859"/><rect fill="#DCDCDC" height="192.9453" style="stroke:#000000;stroke-width:1.0;" width="10" x="766.5" y="1002.8594"/><rect fill="#DCDCDC" height="33.7891" style="stroke:#000000;stroke-width:1.0;" width="10" x="766.5" y="1365.1406"/><rect fill="#DCDCDC" height="33.7891" style="stroke:#000000;stroke-width:1.0;" width="10" x="1239.5" y="777.2891"/><rect fill="#DCDCDC" height="33.7891" style="stroke:#000000;stroke-width:1.0;" width="10" x="1239.5" y="1128.2266"/><path d="M13,151.5625 L13,211.5625 L615,211.5625 L615,161.5625 L605,151.5625 L13,151.5625 " fill="#FEFFDD" style="stroke:#181818;stroke-width:0.5;"/><path d="M605,151.5625 L605,161.5625 L615,161.5625 L605,151.5625 " fill="#FEFFDD" style="stroke:#181818;stroke-width:0.5;"/><text fill="#000000" font-family="sans-serif" font-size="13" lengthAdjust="spacing" textLength="4" x="48.25" y="168.6294">&#160;</text><text fill="#000000" font-family="sans-serif" font-size="17" lengthAdjust="spacing" textLength="523" x="48.25" y="187.4751">Der Akteur ist erfolgreich beim Messenger-Service angemeldet</text><text fill="#000000" font-family="sans-serif" font-size="13" lengthAdjust="spacing" textLength="4" x="48.25" y="203.5513">&#160;</text><polygon fill="#000000" points="289.5,302.9844,299.5,306.9844,289.5,310.9844,293.5,306.9844" style="stroke:#000000;stroke-width:1.0;"/><line style="stroke:#000000;stroke-width:1.0;" x1="98.5" x2="295.5" y1="306.9844" y2="306.9844"/><text fill="#000000" font-family="sans-serif" font-size="17" font-weight="bold" lengthAdjust="spacing" textLength="12" x="105.5" y="281.186">1</text><text fill="#000000" font-family="sans-serif" font-size="17" lengthAdjust="spacing" textLength="158" x="121.5" y="261.397">Suchparameter f&#252;r</text><text fill="#000000" font-family="sans-serif" font-size="17" lengthAdjust="spacing" textLength="142" x="121.5" y="281.186">FHIR-Ressourcen</text><text fill="#000000" font-family="sans-serif" font-size="17" lengthAdjust="spacing" textLength="77" x="126.5" y="300.9751">eingeben</text><path d="M20,346.9844 L379,346.9844 L379,357.6094 L369,367.6094 L20,367.6094 L20,346.9844 " fill="#D3D3D3" style="stroke:#000000;stroke-width:1.5;"/><rect fill="none" height="143.1719" style="stroke:#000000;stroke-width:1.5;" width="1341.5" x="20" y="346.9844"/><text fill="#000000" font-family="sans-serif" font-size="16" font-weight="bold" lengthAdjust="spacing" textLength="314" x="35" y="362.8359">Pr&#252;fung/Erhalt search-accesstoken</text><rect fill="#F5F5DC" height="67.5469" style="stroke:#000000;stroke-width:1.5;" width="1327.5" x="27" y="392.6094"/><path d="M27,392.6094 L93,392.6094 L93,399.6094 L83,409.6094 L27,409.6094 L27,392.6094 " fill="#98FB98" style="stroke:#000000;stroke-width:2.0;"/><text fill="#000000" font-family="sans-serif" font-size="13" font-weight="bold" lengthAdjust="spacing" textLength="21" x="40" y="406.6763">ref</text><text fill="#000000" font-family="sans-serif" font-size="17" lengthAdjust="spacing" textLength="384" x="498.75" y="429.3892">gemSpec_VZD_FHIR_Directory#AF_10036-01</text><text fill="#000000" font-family="sans-serif" font-size="16" lengthAdjust="spacing" textLength="556" x="412.75" y="448.25">(Der Akteur entspricht dem "Nutzer" im referenzierten Anwendungsfall)</text><line style="stroke:#000000;stroke-width:1.0;" x1="690.75" x2="690.75" y1="454.0234" y2="454.0234"/><line style="stroke:#000000;stroke-width:1.0;" x1="690.75" x2="690.75" y1="454.0234" y2="454.0234"/><line style="stroke:#000000;stroke-width:1.0;" x1="690.75" x2="690.75" y1="454.0234" y2="454.0234"/><path d="M10,504.1563 L74,504.1563 L74,511.2891 L64,521.2891 L10,521.2891 L10,504.1563 " fill="#D3D3D3" style="stroke:#000000;stroke-width:1.5;"/><rect fill="none" height="993.5625" style="stroke:#000000;stroke-width:1.5;" width="1361.5" x="10" y="504.1563"/><text fill="#000000" font-family="sans-serif" font-size="13" font-weight="bold" lengthAdjust="spacing" textLength="19" x="25" y="517.2231">alt</text><text fill="#000000" font-family="sans-serif" font-size="11" font-weight="bold" lengthAdjust="spacing" textLength="5" x="89" y="522.187">[</text><text fill="#000000" font-family="sans-serif" font-size="16" font-weight="bold" lengthAdjust="spacing" textLength="336" x="94" y="521.0078">g&#252;ltiges search-accesstoken erhalten</text><text fill="#000000" font-family="sans-serif" font-size="11" font-weight="bold" lengthAdjust="spacing" textLength="5" x="430" y="522.187">]</text><path d="M20,556.9141 L84,556.9141 L84,564.0469 L74,574.0469 L20,574.0469 L20,556.9141 " fill="#D3D3D3" style="stroke:#000000;stroke-width:1.5;"/><rect fill="none" height="705.6797" style="stroke:#000000;stroke-width:1.5;" width="1341.5" x="20" y="556.9141"/><text fill="#000000" font-family="sans-serif" font-size="13" font-weight="bold" lengthAdjust="spacing" textLength="19" x="35" y="569.981">alt</text><text fill="#000000" font-family="sans-serif" font-size="11" font-weight="bold" lengthAdjust="spacing" textLength="5" x="99" y="574.9448">[</text><text fill="#000000" font-family="sans-serif" font-size="16" font-weight="bold" lengthAdjust="spacing" textLength="391" x="104" y="573.7656">HealthcareService-Eintr&#228;ge werden gesucht</text><text fill="#000000" font-family="sans-serif" font-size="11" font-weight="bold" lengthAdjust="spacing" textLength="5" x="495" y="574.9448">]</text><polygon fill="#000000" points="754.5,646.0859,764.5,650.0859,754.5,654.0859,758.5,650.0859" style="stroke:#000000;stroke-width:1.0;"/><line style="stroke:#000000;stroke-width:1.0;" x1="311.5" x2="760.5" y1="650.0859" y2="650.0859"/><text fill="#000000" font-family="sans-serif" font-size="17" font-weight="bold" lengthAdjust="spacing" textLength="12" x="318.5" y="634.1821">2</text><text fill="#000000" font-family="sans-serif" font-size="17" lengthAdjust="spacing" textLength="393" x="334.5" y="624.2876">GET {Search-Schnittstelle}/HealthcareService/</text><text fill="#000000" font-family="sans-serif" font-size="17" lengthAdjust="spacing" textLength="419" x="334.5" y="644.0767">?organization.active=true&amp;...(search-accesstoken)</text><path d="M75,607.6719 L75,654.6719 L296,654.6719 L296,617.6719 L286,607.6719 L75,607.6719 " fill="#FEFFDD" style="stroke:#181818;stroke-width:0.5;"/><path d="M286,607.6719 L286,617.6719 L296,617.6719 L286,607.6719 " fill="#FEFFDD" style="stroke:#181818;stroke-width:0.5;"/><text fill="#000000" font-family="sans-serif" font-size="16" lengthAdjust="spacing" textLength="153" x="81" y="627.5234">Finde Datensatz f&#252;r</text><text fill="#000000" font-family="sans-serif" font-size="16" lengthAdjust="spacing" textLength="89" x="81" y="646.1484">TelematikID</text><line style="stroke:#000000;stroke-width:1.0;" x1="776.5" x2="818.5" y1="685.7109" y2="685.7109"/><line style="stroke:#000000;stroke-width:1.0;" x1="818.5" x2="818.5" y1="685.7109" y2="698.7109"/><line style="stroke:#000000;stroke-width:1.0;" x1="777.5" x2="818.5" y1="698.7109" y2="698.7109"/><polygon fill="#000000" points="787.5,694.7109,777.5,698.7109,787.5,702.7109,783.5,698.7109" style="stroke:#000000;stroke-width:1.0;"/><text fill="#000000" font-family="sans-serif" font-size="17" font-weight="bold" lengthAdjust="spacing" textLength="12" x="783.5" y="679.7017">3</text><text fill="#000000" font-family="sans-serif" font-size="17" lengthAdjust="spacing" textLength="209" x="799.5" y="679.7017">pr&#252;fe search-accesstoken</text><polygon fill="#000000" points="1227.5,773.2891,1237.5,777.2891,1227.5,781.2891,1231.5,777.2891" style="stroke:#000000;stroke-width:1.0;"/><line style="stroke:#000000;stroke-width:1.0;" x1="776.5" x2="1233.5" y1="777.2891" y2="777.2891"/><text fill="#000000" font-family="sans-serif" font-size="17" font-weight="bold" lengthAdjust="spacing" textLength="12" x="783.5" y="761.3853">4</text><text fill="#000000" font-family="sans-serif" font-size="17" lengthAdjust="spacing" textLength="393" x="799.5" y="751.4907">GET {Search-Schnittstelle}/HealthcareService/</text><text fill="#000000" font-family="sans-serif" font-size="17" lengthAdjust="spacing" textLength="245" x="799.5" y="771.2798">?organization.active=true&amp;...</text><polygon fill="#000000" points="787.5,807.0781,777.5,811.0781,787.5,815.0781,783.5,811.0781" style="stroke:#000000;stroke-width:1.0;"/><line style="stroke:#000000;stroke-width:1.0;stroke-dasharray:2.0,2.0;" x1="781.5" x2="1243.5" y1="811.0781" y2="811.0781"/><text fill="#000000" font-family="sans-serif" font-size="17" font-weight="bold" lengthAdjust="spacing" textLength="12" x="892.5" y="805.0688">5</text><text fill="#000000" font-family="sans-serif" font-size="17" lengthAdjust="spacing" textLength="329" x="908.5" y="805.0688">HTTP 200 (:Suchergebnis FHIR-Bundle)</text><polygon fill="#000000" points="322.5,840.8672,312.5,844.8672,322.5,848.8672,318.5,844.8672" style="stroke:#000000;stroke-width:1.0;"/><line style="stroke:#000000;stroke-width:1.0;stroke-dasharray:2.0,2.0;" x1="316.5" x2="770.5" y1="844.8672" y2="844.8672"/><text fill="#000000" font-family="sans-serif" font-size="17" font-weight="bold" lengthAdjust="spacing" textLength="12" x="419.5" y="838.8579">6</text><text fill="#000000" font-family="sans-serif" font-size="17" lengthAdjust="spacing" textLength="329" x="435.5" y="838.8579">HTTP 200 (:Suchergebnis FHIR-Bundle)</text><polygon fill="#000000" points="109.5,874.6563,99.5,878.6563,109.5,882.6563,105.5,878.6563" style="stroke:#000000;stroke-width:1.0;"/><line style="stroke:#000000;stroke-width:1.0;stroke-dasharray:2.0,2.0;" x1="103.5" x2="300.5" y1="878.6563" y2="878.6563"/><text fill="#000000" font-family="sans-serif" font-size="17" font-weight="bold" lengthAdjust="spacing" textLength="12" x="166.5" y="872.647">7</text><text fill="#000000" font-family="sans-serif" font-size="17" lengthAdjust="spacing" textLength="112" x="182.5" y="872.647">Suchergebnis</text><line style="stroke:#000000;stroke-width:1.0;stroke-dasharray:2.0,2.0;" x1="20" x2="1361.5" y1="912.6563" y2="912.6563"/><text fill="#000000" font-family="sans-serif" font-size="11" font-weight="bold" lengthAdjust="spacing" textLength="5" x="25" y="928.687">[</text><text fill="#000000" font-family="sans-serif" font-size="16" font-weight="bold" lengthAdjust="spacing" textLength="374" x="30" y="927.5078">PractitionerRole-Eintr&#228;ge werden gesucht</text><text fill="#000000" font-family="sans-serif" font-size="11" font-weight="bold" lengthAdjust="spacing" textLength="5" x="404" y="928.687">]</text><polygon fill="#000000" points="754.5,998.8594,764.5,1002.8594,754.5,1006.8594,758.5,1002.8594" style="stroke:#000000;stroke-width:1.0;"/><line style="stroke:#000000;stroke-width:1.0;" x1="311.5" x2="760.5" y1="1002.8594" y2="1002.8594"/><text fill="#000000" font-family="sans-serif" font-size="17" font-weight="bold" lengthAdjust="spacing" textLength="12" x="318.5" y="986.9556">8</text><text fill="#000000" font-family="sans-serif" font-size="17" lengthAdjust="spacing" textLength="375" x="334.5" y="977.061">GET {Search-Schnittstelle}/PractitionerRole/</text><text fill="#000000" font-family="sans-serif" font-size="17" lengthAdjust="spacing" textLength="412" x="334.5" y="996.8501">?practitioner.active=true&amp;...(search-accesstoken)</text><path d="M75,969.7578 L75,997.7578 L296,997.7578 L296,979.7578 L286,969.7578 L75,969.7578 " fill="#FEFFDD" style="stroke:#181818;stroke-width:0.5;"/><path d="M286,969.7578 L286,979.7578 L296,979.7578 L286,969.7578 " fill="#FEFFDD" style="stroke:#181818;stroke-width:0.5;"/><text fill="#000000" font-family="sans-serif" font-size="16" lengthAdjust="spacing" textLength="199" x="81" y="989.6094">Finde Datensatz f&#252;r MXID</text><line style="stroke:#000000;stroke-width:1.0;" x1="776.5" x2="818.5" y1="1036.6484" y2="1036.6484"/><line style="stroke:#000000;stroke-width:1.0;" x1="818.5" x2="818.5" y1="1036.6484" y2="1049.6484"/><line style="stroke:#000000;stroke-width:1.0;" x1="777.5" x2="818.5" y1="1049.6484" y2="1049.6484"/><polygon fill="#000000" points="787.5,1045.6484,777.5,1049.6484,787.5,1053.6484,783.5,1049.6484" style="stroke:#000000;stroke-width:1.0;"/><text fill="#000000" font-family="sans-serif" font-size="17" font-weight="bold" lengthAdjust="spacing" textLength="12" x="783.5" y="1030.6392">9</text><text fill="#000000" font-family="sans-serif" font-size="17" lengthAdjust="spacing" textLength="209" x="799.5" y="1030.6392">pr&#252;fe search-accesstoken</text><polygon fill="#000000" points="1227.5,1124.2266,1237.5,1128.2266,1227.5,1132.2266,1231.5,1128.2266" style="stroke:#000000;stroke-width:1.0;"/><line style="stroke:#000000;stroke-width:1.0;" x1="776.5" x2="1233.5" y1="1128.2266" y2="1128.2266"/><text fill="#000000" font-family="sans-serif" font-size="17" font-weight="bold" lengthAdjust="spacing" textLength="24" x="783.5" y="1112.3228">10</text><text fill="#000000" font-family="sans-serif" font-size="17" lengthAdjust="spacing" textLength="375" x="811.5" y="1102.4282">GET {Search-Schnittstelle}/PractitionerRole/</text><text fill="#000000" font-family="sans-serif" font-size="17" lengthAdjust="spacing" textLength="238" x="811.5" y="1122.2173">?practitioner.active=true&amp;...</text><polygon fill="#000000" points="787.5,1158.0156,777.5,1162.0156,787.5,1166.0156,783.5,1162.0156" style="stroke:#000000;stroke-width:1.0;"/><line style="stroke:#000000;stroke-width:1.0;stroke-dasharray:2.0,2.0;" x1="781.5" x2="1243.5" y1="1162.0156" y2="1162.0156"/><text fill="#000000" font-family="sans-serif" font-size="17" font-weight="bold" lengthAdjust="spacing" textLength="24" x="880.5" y="1156.0063">11</text><text fill="#000000" font-family="sans-serif" font-size="17" lengthAdjust="spacing" textLength="329" x="908.5" y="1156.0063">HTTP 200 (:Suchergebnis FHIR-Bundle)</text><polygon fill="#000000" points="322.5,1191.8047,312.5,1195.8047,322.5,1199.8047,318.5,1195.8047" style="stroke:#000000;stroke-width:1.0;"/><line style="stroke:#000000;stroke-width:1.0;stroke-dasharray:2.0,2.0;" x1="316.5" x2="770.5" y1="1195.8047" y2="1195.8047"/><text fill="#000000" font-family="sans-serif" font-size="17" font-weight="bold" lengthAdjust="spacing" textLength="24" x="407.5" y="1189.7954">12</text><text fill="#000000" font-family="sans-serif" font-size="17" lengthAdjust="spacing" textLength="329" x="435.5" y="1189.7954">HTTP 200 (:Suchergebnis FHIR-Bundle)</text><polygon fill="#000000" points="109.5,1225.5938,99.5,1229.5938,109.5,1233.5938,105.5,1229.5938" style="stroke:#000000;stroke-width:1.0;"/><line style="stroke:#000000;stroke-width:1.0;stroke-dasharray:2.0,2.0;" x1="103.5" x2="300.5" y1="1229.5938" y2="1229.5938"/><text fill="#000000" font-family="sans-serif" font-size="17" font-weight="bold" lengthAdjust="spacing" textLength="24" x="154.5" y="1223.5845">13</text><text fill="#000000" font-family="sans-serif" font-size="17" lengthAdjust="spacing" textLength="112" x="182.5" y="1223.5845">Suchergebnis</text><line style="stroke:#000000;stroke-width:1.0;stroke-dasharray:2.0,2.0;" x1="10" x2="1371.5" y1="1295.5938" y2="1295.5938"/><text fill="#000000" font-family="sans-serif" font-size="11" font-weight="bold" lengthAdjust="spacing" textLength="5" x="15" y="1311.6245">[</text><text fill="#000000" font-family="sans-serif" font-size="16" font-weight="bold" lengthAdjust="spacing" textLength="299" x="20" y="1310.4453">kein g&#252;ltiges search-accesstoken</text><text fill="#000000" font-family="sans-serif" font-size="11" font-weight="bold" lengthAdjust="spacing" textLength="5" x="319" y="1311.6245">]</text><path d="M20,1322.2188 L108,1322.2188 L108,1329.3516 L98,1339.3516 L20,1339.3516 L20,1322.2188 " fill="#D3D3D3" style="stroke:#000000;stroke-width:1.5;"/><rect fill="none" height="143.5" style="stroke:#000000;stroke-width:1.5;" width="868.5" x="20" y="1322.2188"/><text fill="#000000" font-family="sans-serif" font-size="13" font-weight="bold" lengthAdjust="spacing" textLength="43" x="35" y="1335.2856">break</text><polygon fill="#000000" points="754.5,1361.1406,764.5,1365.1406,754.5,1369.1406,758.5,1365.1406" style="stroke:#000000;stroke-width:1.0;"/><line style="stroke:#000000;stroke-width:1.0;" x1="311.5" x2="760.5" y1="1365.1406" y2="1365.1406"/><text fill="#000000" font-family="sans-serif" font-size="17" font-weight="bold" lengthAdjust="spacing" textLength="24" x="318.5" y="1359.1313">14</text><text fill="#000000" font-family="sans-serif" font-size="17" lengthAdjust="spacing" textLength="408" x="346.5" y="1359.1313">GET {Search-Schnittstelle} (search-accesstoken)</text><polygon fill="#000000" points="322.5,1394.9297,312.5,1398.9297,322.5,1402.9297,318.5,1398.9297" style="stroke:#000000;stroke-width:1.0;"/><line style="stroke:#000000;stroke-width:1.0;stroke-dasharray:2.0,2.0;" x1="316.5" x2="770.5" y1="1398.9297" y2="1398.9297"/><text fill="#000000" font-family="sans-serif" font-size="17" font-weight="bold" lengthAdjust="spacing" textLength="24" x="655.5" y="1392.9204">15</text><text fill="#000000" font-family="sans-serif" font-size="17" lengthAdjust="spacing" textLength="81" x="683.5" y="1392.9204">HTTP 401</text><polygon fill="#000000" points="109.5,1428.7188,99.5,1432.7188,109.5,1436.7188,105.5,1432.7188" style="stroke:#000000;stroke-width:1.0;"/><line style="stroke:#000000;stroke-width:1.0;stroke-dasharray:2.0,2.0;" x1="103.5" x2="300.5" y1="1432.7188" y2="1432.7188"/><text fill="#000000" font-family="sans-serif" font-size="17" font-weight="bold" lengthAdjust="spacing" textLength="24" x="139.5" y="1426.7095">16</text><text fill="#000000" font-family="sans-serif" font-size="17" lengthAdjust="spacing" textLength="127" x="167.5" y="1426.7095">Fehlermeldung</text></g></svg>