<?xml version="1.0" encoding="us-ascii" standalone="no"?><svg xmlns="http://www.w3.org/2000/svg" xmlns:xlink="http://www.w3.org/1999/xlink" contentStyleType="text/css" height="1852.1649px" preserveAspectRatio="none" style="width:2048px;height:1852px;background:#FFFFFF;" version="1.1" viewBox="0 0 2048 1852" width="2048.8704px" zoomAndPan="magnify"><defs/><g><rect fill="#F5F5F5" height="1841.87" style="stroke:#181818;stroke-width:0.43518912027199325;" width="227.1687" x="229.7799" y="5.2223"/><text fill="#000000" font-family="sans-serif" font-size="15.6668" font-weight="bold" lengthAdjust="spacing" textLength="80.9452" x="300.7157" y="19.7646">Endger&#228;t</text><text fill="#000000" font-family="sans-serif" font-size="11.3149" font-weight="bold" lengthAdjust="spacing" textLength="4.3519" x="381.6609" y="20.7909">&#160;</text><rect fill="#F5F5F5" height="1841.87" style="stroke:#181818;stroke-width:0.43518912027199325;" width="788.5627" x="1033.5742" y="5.2223"/><text fill="#000000" font-family="sans-serif" font-size="15.6668" font-weight="bold" lengthAdjust="spacing" textLength="174.0756" x="1338.6417" y="19.7646">VZD-FHIR-Directory</text><text fill="#000000" font-family="sans-serif" font-size="11.3149" font-weight="bold" lengthAdjust="spacing" textLength="4.3519" x="1512.7174" y="20.7909">&#160;</text><rect fill="#DCDCDC" height="1378.7063" style="stroke:#000000;stroke-width:0.8703782405439865;" width="8.7038" x="339.0123" y="307.7467"/><rect fill="#DCDCDC" height="97.5674" style="stroke:#000000;stroke-width:0.8703782405439865;" width="8.7038" x="602.7369" y="347.3659"/><rect fill="#DCDCDC" height="1084.8993" style="stroke:#000000;stroke-width:0.8703782405439865;" width="8.7038" x="602.7369" y="554.9205"/><rect fill="#DCDCDC" height="87.3574" style="stroke:#000000;stroke-width:0.8703782405439865;" width="8.7038" x="1104.0748" y="1079.6226"/><rect fill="#DCDCDC" height="70.1334" style="stroke:#000000;stroke-width:0.8703782405439865;" width="8.7038" x="1289.4654" y="1218.1487"/><rect fill="#DCDCDC" height="204.1241" style="stroke:#000000;stroke-width:0.8703782405439865;" width="8.7038" x="1545.3566" y="1356.6749"/><rect fill="#DCDCDC" height="87.3574" style="stroke:#000000;stroke-width:0.8703782405439865;" width="8.7038" x="1742.9324" y="1444.0323"/><rect fill="#DCDCDC" height="113.0268" style="stroke:#000000;stroke-width:0.8703782405439865;" width="8.7038" x="1911.3506" y="802.7879"/><rect fill="none" height="1504.1496" style="stroke:#000000;stroke-width:1.3055673608159797;" width="2034.9443" x="8.7038" y="211.0259"/><rect fill="none" height="376.561" style="stroke:#000000;stroke-width:1.3055673608159797;" width="1537.088" x="497.8564" y="589.7357"/><rect fill="none" height="589.2801" style="stroke:#000000;stroke-width:1.3055673608159797;" width="1410.4479" x="497.8564" y="1000.2414"/><line style="stroke:#000000;stroke-width:0.43518912027199325;stroke-dasharray:5.0,5.0;" x1="100.9639" x2="100.9639" y1="97.1016" y2="1751.7314"/><line style="stroke:#000000;stroke-width:0.43518912027199325;stroke-dasharray:5.0,5.0;" x1="342.929" x2="342.929" y1="97.1016" y2="1751.7314"/><line style="stroke:#000000;stroke-width:0.43518912027199325;stroke-dasharray:5.0,5.0;" x1="606.6536" x2="606.6536" y1="97.1016" y2="1751.7314"/><line style="stroke:#000000;stroke-width:0.43518912027199325;stroke-dasharray:5.0,5.0;" x1="1108.4267" x2="1108.4267" y1="97.1016" y2="1751.7314"/><line style="stroke:#000000;stroke-width:0.43518912027199325;stroke-dasharray:5.0,5.0;" x1="1293.8173" x2="1293.8173" y1="97.1016" y2="1751.7314"/><line style="stroke:#000000;stroke-width:0.43518912027199325;stroke-dasharray:5.0,5.0;" x1="1549.7085" x2="1549.7085" y1="97.1016" y2="1751.7314"/><line style="stroke:#000000;stroke-width:0.43518912027199325;stroke-dasharray:5.0,5.0;" x1="1747.2843" x2="1747.2843" y1="97.1016" y2="1751.7314"/><line style="stroke:#000000;stroke-width:0.43518912027199325;stroke-dasharray:5.0,5.0;" x1="1915.2673" x2="1915.2673" y1="801.3532" y2="1751.7314"/><text fill="#000000" font-family="sans-serif" font-size="17.4076" lengthAdjust="spacing" textLength="162.7607" x="17.4076" y="72.7327">Akteur in der Rolle</text><text fill="#000000" font-family="sans-serif" font-size="17.4076" lengthAdjust="spacing" textLength="95.7416" x="50.9171" y="92.9962">Org-Admin</text><ellipse cx="101.3991" cy="11.7501" fill="#DCDCDC" rx="6.963" ry="6.963" style="stroke:#000000;stroke-width:0.43518912027199325;"/><path d="M101.3991,18.7131 L101.3991,42.2133 M90.0841,25.6762 L112.714,25.6762 M101.3991,42.2133 L90.0841,55.269 M101.3991,42.2133 L112.714,55.269 " fill="none" style="stroke:#000000;stroke-width:0.43518912027199325;"/><text fill="#000000" font-family="sans-serif" font-size="17.4076" lengthAdjust="spacing" textLength="162.7607" x="17.4076" y="1767.0191">Akteur in der Rolle</text><text fill="#000000" font-family="sans-serif" font-size="17.4076" lengthAdjust="spacing" textLength="95.7416" x="50.9171" y="1787.2826">Org-Admin</text><ellipse cx="101.3991" cy="1798.7862" fill="#DCDCDC" rx="6.963" ry="6.963" style="stroke:#000000;stroke-width:0.43518912027199325;"/><path d="M101.3991,1805.7493 L101.3991,1829.2495 M90.0841,1812.7123 L112.714,1812.7123 M101.3991,1829.2495 L90.0841,1842.3051 M101.3991,1829.2495 L112.714,1842.3051 " fill="none" style="stroke:#000000;stroke-width:0.43518912027199325;"/><rect fill="#EFEFFF" height="52.7123" rx="2.1759" ry="2.1759" style="stroke:#000000;stroke-width:0.43518912027199325;" width="220.2057" x="233.2614" y="43.5189"/><text fill="#000000" font-family="sans-serif" font-size="17.4076" lengthAdjust="spacing" textLength="114.8899" x="285.9193" y="65.7697">Frontend des</text><text fill="#000000" font-family="sans-serif" font-size="17.4076" lengthAdjust="spacing" textLength="208.0204" x="239.354" y="86.0331">Registrierungs-Dienstes</text><rect fill="#EFEFFF" height="52.7123" rx="2.1759" ry="2.1759" style="stroke:#000000;stroke-width:0.43518912027199325;" width="220.2057" x="233.2614" y="1750.861"/><text fill="#000000" font-family="sans-serif" font-size="17.4076" lengthAdjust="spacing" textLength="114.8899" x="285.9193" y="1773.1118">Frontend des</text><text fill="#000000" font-family="sans-serif" font-size="17.4076" lengthAdjust="spacing" textLength="208.0204" x="239.354" y="1793.3753">Registrierungs-Dienstes</text><rect fill="#EFEFFF" height="32.4488" rx="2.1759" ry="2.1759" style="stroke:#000000;stroke-width:0.43518912027199325;" width="201.0574" x="506.5601" y="63.7824"/><text fill="#000000" font-family="sans-serif" font-size="17.4076" lengthAdjust="spacing" textLength="188.8721" x="512.6528" y="86.0331">Registrierungs-Dienst</text><rect fill="#EFEFFF" height="32.4488" rx="2.1759" ry="2.1759" style="stroke:#000000;stroke-width:0.43518912027199325;" width="201.0574" x="506.5601" y="1750.861"/><text fill="#000000" font-family="sans-serif" font-size="17.4076" lengthAdjust="spacing" textLength="188.8721" x="512.6528" y="1773.1118">Registrierungs-Dienst</text><rect fill="#EFEFFF" height="32.4488" rx="2.1759" ry="2.1759" style="stroke:#000000;stroke-width:0.43518912027199325;" width="142.742" x="1037.0557" y="63.7824"/><text fill="#000000" font-family="sans-serif" font-size="17.4076" lengthAdjust="spacing" textLength="125.3345" x="1045.7595" y="86.0331">OAuth-Service</text><rect fill="#EFEFFF" height="32.4488" rx="2.1759" ry="2.1759" style="stroke:#000000;stroke-width:0.43518912027199325;" width="142.742" x="1037.0557" y="1750.861"/><text fill="#000000" font-family="sans-serif" font-size="17.4076" lengthAdjust="spacing" textLength="125.3345" x="1045.7595" y="1773.1118">OAuth-Service</text><rect fill="#EFEFFF" height="32.4488" rx="2.1759" ry="2.1759" style="stroke:#000000;stroke-width:0.43518912027199325;" width="142.742" x="1222.4462" y="63.7824"/><text fill="#000000" font-family="sans-serif" font-size="17.4076" lengthAdjust="spacing" textLength="111.4084" x="1238.113" y="86.0331">Auth-Service</text><rect fill="#EFEFFF" height="32.4488" rx="2.1759" ry="2.1759" style="stroke:#000000;stroke-width:0.43518912027199325;" width="142.742" x="1222.4462" y="1750.861"/><text fill="#000000" font-family="sans-serif" font-size="17.4076" lengthAdjust="spacing" textLength="111.4084" x="1238.113" y="1773.1118">Auth-Service</text><rect fill="#EFEFFF" height="32.4488" rx="2.1759" ry="2.1759" style="stroke:#000000;stroke-width:0.43518912027199325;" width="142.742" x="1478.3374" y="63.7824"/><text fill="#000000" font-family="sans-serif" font-size="17.4076" lengthAdjust="spacing" textLength="94.0008" x="1502.708" y="86.0331">FHIR-Proxy</text><rect fill="#EFEFFF" height="32.4488" rx="2.1759" ry="2.1759" style="stroke:#000000;stroke-width:0.43518912027199325;" width="142.742" x="1478.3374" y="1750.861"/><text fill="#000000" font-family="sans-serif" font-size="17.4076" lengthAdjust="spacing" textLength="94.0008" x="1502.708" y="1773.1118">FHIR-Proxy</text><rect fill="#EFEFFF" height="32.4488" rx="2.1759" ry="2.1759" style="stroke:#000000;stroke-width:0.43518912027199325;" width="142.742" x="1675.9133" y="63.7824"/><text fill="#000000" font-family="sans-serif" font-size="17.4076" lengthAdjust="spacing" textLength="126.2048" x="1684.1819" y="86.0331">FHIR-Directory</text><rect fill="#EFEFFF" height="32.4488" rx="2.1759" ry="2.1759" style="stroke:#000000;stroke-width:0.43518912027199325;" width="142.742" x="1675.9133" y="1750.861"/><text fill="#000000" font-family="sans-serif" font-size="17.4076" lengthAdjust="spacing" textLength="126.2048" x="1684.1819" y="1773.1118">FHIR-Directory</text><rect fill="#EFEFFF" height="32.4488" rx="2.1759" ry="2.1759" style="stroke:#000000;stroke-width:0.43518912027199325;" width="174.946" x="1828.2295" y="1750.861"/><text fill="#000000" font-family="sans-serif" font-size="17.4076" lengthAdjust="spacing" textLength="162.7607" x="1834.3221" y="1773.1118">Messenger-Service</text><rect fill="#DCDCDC" height="1378.7063" style="stroke:#000000;stroke-width:0.8703782405439865;" width="8.7038" x="339.0123" y="307.7467"/><rect fill="#DCDCDC" height="97.5674" style="stroke:#000000;stroke-width:0.8703782405439865;" width="8.7038" x="602.7369" y="347.3659"/><rect fill="#DCDCDC" height="1084.8993" style="stroke:#000000;stroke-width:0.8703782405439865;" width="8.7038" x="602.7369" y="554.9205"/><rect fill="#DCDCDC" height="87.3574" style="stroke:#000000;stroke-width:0.8703782405439865;" width="8.7038" x="1104.0748" y="1079.6226"/><rect fill="#DCDCDC" height="70.1334" style="stroke:#000000;stroke-width:0.8703782405439865;" width="8.7038" x="1289.4654" y="1218.1487"/><rect fill="#DCDCDC" height="204.1241" style="stroke:#000000;stroke-width:0.8703782405439865;" width="8.7038" x="1545.3566" y="1356.6749"/><rect fill="#DCDCDC" height="87.3574" style="stroke:#000000;stroke-width:0.8703782405439865;" width="8.7038" x="1742.9324" y="1444.0323"/><rect fill="#DCDCDC" height="113.0268" style="stroke:#000000;stroke-width:0.8703782405439865;" width="8.7038" x="1911.3506" y="802.7879"/><rect fill="none" height="51.2571" style="stroke:#000000;stroke-width:1.3055673608159797;" width="695.4322" x="14.7964" y="127.5648"/><path d="M14.7964,127.5648 L72.2414,127.5648 L72.2414,133.6575 L63.5376,142.3612 L14.7964,142.3612 L14.7964,127.5648 " fill="#98FB98" style="stroke:#000000;stroke-width:1.740756481087973;"/><text fill="#000000" font-family="sans-serif" font-size="11.3149" font-weight="bold" lengthAdjust="spacing" textLength="18.2779" x="26.1113" y="139.8083">ref</text><text fill="#000000" font-family="sans-serif" font-size="14.7964" font-weight="bold" lengthAdjust="spacing" textLength="85.2971" x="98.7879" y="159.5771">AF: 10103</text><text fill="#000000" font-family="sans-serif" font-size="14.7964" lengthAdjust="spacing" textLength="437.8003" x="188.4369" y="159.5771">- Authentisieren einer Organisation am TI-Messenger-Dienst</text><text fill="#000000" font-family="sans-serif" font-size="10.4445" lengthAdjust="spacing" textLength="3.4815" x="360.7718" y="172.7616">&#160;</text><path d="M8.7038,211.0259 L75.7229,211.0259 L75.7229,217.2342 L67.0191,225.938 L8.7038,225.938 L8.7038,211.0259 " fill="#EEEEEE" style="stroke:#000000;stroke-width:1.3055673608159797;"/><rect fill="none" height="1504.1496" style="stroke:#000000;stroke-width:1.3055673608159797;" width="2034.9443" x="8.7038" y="211.0259"/><text fill="#000000" font-family="sans-serif" font-size="11.3149" font-weight="bold" lengthAdjust="spacing" textLength="27.8521" x="21.7595" y="222.3991">loop</text><text fill="#000000" font-family="sans-serif" font-size="9.5742" font-weight="bold" lengthAdjust="spacing" textLength="4.3519" x="88.7786" y="226.7195">[</text><text fill="#000000" font-family="sans-serif" font-size="13.9261" font-weight="bold" lengthAdjust="spacing" textLength="29.5929" x="93.1305" y="225.6932">1..n</text><text fill="#000000" font-family="sans-serif" font-size="9.5742" font-weight="bold" lengthAdjust="spacing" textLength="4.3519" x="122.7233" y="226.7195">]</text><polygon fill="#000000" points="328.5678,304.2652,337.2716,307.7467,328.5678,311.2282,332.0493,307.7467" style="stroke:#000000;stroke-width:0.8703782405439865;"/><line style="stroke:#000000;stroke-width:0.8703782405439865;" x1="101.3991" x2="333.7901" y1="307.7467" y2="307.7467"/><text fill="#000000" font-family="sans-serif" font-size="14.7964" font-weight="bold" lengthAdjust="spacing" textLength="10.4445" x="107.4917" y="285.2924">1</text><text fill="#000000" font-family="sans-serif" font-size="14.7964" lengthAdjust="spacing" textLength="188.0017" x="121.4178" y="268.0684">Mit einem Admin-Account</text><text fill="#000000" font-family="sans-serif" font-size="14.7964" lengthAdjust="spacing" textLength="185.3906" x="121.4178" y="285.2924">am Registrierungs-Dienst</text><text fill="#000000" font-family="sans-serif" font-size="14.7964" lengthAdjust="spacing" textLength="73.1118" x="121.4178" y="302.5164">anmelden</text><polygon fill="#000000" points="592.2924,343.8844,600.9962,347.3659,592.2924,350.8474,595.7739,347.3659" style="stroke:#000000;stroke-width:0.8703782405439865;"/><line style="stroke:#000000;stroke-width:0.8703782405439865;" x1="347.7161" x2="597.5147" y1="347.3659" y2="347.3659"/><text fill="#000000" font-family="sans-serif" font-size="14.7964" font-weight="bold" lengthAdjust="spacing" textLength="10.4445" x="353.8088" y="342.1356">2</text><text fill="#000000" font-family="sans-serif" font-size="14.7964" lengthAdjust="spacing" textLength="224.5576" x="367.7348" y="342.1356">POST /login (Client-Credential)</text><path d="M615.3574,319.0616 L615.3574,359.9694 L831.2112,359.9694 L831.2112,327.7654 L822.5074,319.0616 L615.3574,319.0616 " fill="#FEFFDD" style="stroke:#181818;stroke-width:0.43518912027199325;"/><path d="M822.5074,319.0616 L822.5074,327.7654 L831.2112,327.7654 L822.5074,319.0616 " fill="#FEFFDD" style="stroke:#181818;stroke-width:0.43518912027199325;"/><text fill="#000000" font-family="sans-serif" font-size="13.9261" lengthAdjust="spacing" textLength="80.9452" x="620.5797" y="336.34">Schnittstelle</text><text fill="#000000" font-family="sans-serif" font-size="13.9261" lengthAdjust="spacing" textLength="4.3519" x="701.5249" y="336.34">&#160;</text><text fill="#000000" font-family="sans-serif" font-size="13.9261" lengthAdjust="spacing" textLength="28.7225" x="705.8768" y="336.34">wird</text><text fill="#000000" font-family="sans-serif" font-size="13.9261" lengthAdjust="spacing" textLength="4.3519" x="734.5992" y="336.34">&#160;</text><text fill="#000000" font-family="sans-serif" font-size="13.9261" lengthAdjust="spacing" textLength="33.0744" x="738.9511" y="336.34">nicht</text><text fill="#000000" font-family="sans-serif" font-size="13.9261" lengthAdjust="spacing" textLength="40.0374" x="620.5797" y="352.5508">durch</text><text fill="#000000" font-family="sans-serif" font-size="13.9261" lengthAdjust="spacing" textLength="4.3519" x="660.6171" y="352.5508">&#160;</text><text fill="#000000" font-family="sans-serif" font-size="13.9261" lengthAdjust="spacing" textLength="19.1483" x="664.969" y="352.5508">die</text><text fill="#000000" font-family="sans-serif" font-size="13.9261" lengthAdjust="spacing" textLength="4.3519" x="684.1173" y="352.5508">&#160;</text><text fill="#000000" font-family="sans-serif" font-size="13.9261" lengthAdjust="spacing" textLength="53.0931" x="688.4692" y="352.5508">gematik</text><text fill="#000000" font-family="sans-serif" font-size="13.9261" lengthAdjust="spacing" textLength="4.3519" x="741.5623" y="352.5508">&#160;</text><text fill="#000000" font-family="sans-serif" font-size="13.9261" lengthAdjust="spacing" textLength="72.2414" x="745.9142" y="352.5508">spezifiziert</text><line style="stroke:#000000;stroke-width:0.8703782405439865;" x1="611.4407" x2="647.9966" y1="404.2091" y2="404.2091"/><line style="stroke:#000000;stroke-width:0.8703782405439865;" x1="647.9966" x2="647.9966" y1="404.2091" y2="415.524"/><line style="stroke:#000000;stroke-width:0.8703782405439865;" x1="612.3111" x2="647.9966" y1="415.524" y2="415.524"/><polygon fill="#000000" points="621.0149,412.0425,612.3111,415.524,621.0149,419.0055,617.5334,415.524" style="stroke:#000000;stroke-width:0.8703782405439865;"/><text fill="#000000" font-family="sans-serif" font-size="14.7964" font-weight="bold" lengthAdjust="spacing" textLength="10.4445" x="617.5334" y="390.3668">3</text><text fill="#000000" font-family="sans-serif" font-size="14.7964" lengthAdjust="spacing" textLength="38.2966" x="631.4594" y="381.7548">pr&#252;fe</text><text fill="#000000" font-family="sans-serif" font-size="14.7964" lengthAdjust="spacing" textLength="124.4641" x="631.4594" y="398.9788">Client-Credential</text><polygon fill="#000000" points="357.2903,441.4518,348.5865,444.9333,357.2903,448.4148,353.8088,444.9333" style="stroke:#000000;stroke-width:0.8703782405439865;"/><line style="stroke:#000000;stroke-width:0.8703782405439865;stroke-dasharray:2.0,2.0;" x1="352.068" x2="606.2184" y1="444.9333" y2="444.9333"/><text fill="#000000" font-family="sans-serif" font-size="14.7964" font-weight="bold" lengthAdjust="spacing" textLength="10.4445" x="542.6808" y="439.7029">4</text><text fill="#000000" font-family="sans-serif" font-size="14.7964" lengthAdjust="spacing" textLength="44.3893" x="556.6069" y="439.7029">status</text><polygon fill="#000000" points="110.9732,470.861,102.2694,474.3425,110.9732,477.8241,107.4917,474.3425" style="stroke:#000000;stroke-width:0.8703782405439865;"/><line style="stroke:#000000;stroke-width:0.8703782405439865;stroke-dasharray:2.0,2.0;" x1="105.751" x2="338.1419" y1="474.3425" y2="474.3425"/><text fill="#000000" font-family="sans-serif" font-size="14.7964" font-weight="bold" lengthAdjust="spacing" textLength="10.4445" x="149.2699" y="469.1122">5</text><text fill="#000000" font-family="sans-serif" font-size="14.7964" lengthAdjust="spacing" textLength="169.7238" x="163.1959" y="469.1122">Erfolgreich angemeldet</text><polygon fill="#000000" points="328.5678,522.0297,337.2716,525.5113,328.5678,528.9928,332.0493,525.5113" style="stroke:#000000;stroke-width:0.8703782405439865;"/><line style="stroke:#000000;stroke-width:0.8703782405439865;" x1="101.3991" x2="333.7901" y1="525.5113" y2="525.5113"/><text fill="#000000" font-family="sans-serif" font-size="14.7964" font-weight="bold" lengthAdjust="spacing" textLength="10.4445" x="107.4917" y="520.2809">6</text><text fill="#000000" font-family="sans-serif" font-size="14.7964" lengthAdjust="spacing" textLength="202.7981" x="121.4178" y="520.2809">Messenger Service erstellen</text><polygon fill="#000000" points="592.2924,551.439,600.9962,554.9205,592.2924,558.402,595.7739,554.9205" style="stroke:#000000;stroke-width:0.8703782405439865;"/><line style="stroke:#000000;stroke-width:0.8703782405439865;" x1="347.7161" x2="597.5147" y1="554.9205" y2="554.9205"/><text fill="#000000" font-family="sans-serif" font-size="14.7964" font-weight="bold" lengthAdjust="spacing" textLength="10.4445" x="353.8088" y="549.6902">7</text><text fill="#000000" font-family="sans-serif" font-size="14.7964" lengthAdjust="spacing" textLength="219.3353" x="367.7348" y="549.6902">POST /create (Matrix-Domain)</text><path d="M497.8564,589.7357 L754.6179,589.7357 L754.6179,598.9834 L745.9142,607.6872 L497.8564,607.6872 L497.8564,589.7357 " fill="#EEEEEE" style="stroke:#000000;stroke-width:1.3055673608159797;"/><rect fill="none" height="376.561" style="stroke:#000000;stroke-width:1.3055673608159797;" width="1537.088" x="497.8564" y="589.7357"/><text fill="#000000" font-family="sans-serif" font-size="13.9261" font-weight="bold" lengthAdjust="spacing" textLength="217.5946" x="510.912" y="603.5325">Messaging-Service erstellen</text><line style="stroke:#000000;stroke-width:0.8703782405439865;" x1="611.4407" x2="647.9966" y1="651.8929" y2="651.8929"/><line style="stroke:#000000;stroke-width:0.8703782405439865;" x1="647.9966" x2="647.9966" y1="651.8929" y2="663.2078"/><line style="stroke:#000000;stroke-width:0.8703782405439865;" x1="612.3111" x2="647.9966" y1="663.2078" y2="663.2078"/><polygon fill="#000000" points="621.0149,659.7263,612.3111,663.2078,621.0149,666.6893,617.5334,663.2078" style="stroke:#000000;stroke-width:0.8703782405439865;"/><text fill="#000000" font-family="sans-serif" font-size="14.7964" font-weight="bold" lengthAdjust="spacing" textLength="10.4445" x="617.5334" y="646.6626">8</text><text fill="#000000" font-family="sans-serif" font-size="14.7964" lengthAdjust="spacing" textLength="277.6507" x="631.4594" y="646.6626">Pr&#252;fung auf zul&#228;ssigen Domainnamen</text><line style="stroke:#000000;stroke-width:0.8703782405439865;" x1="611.4407" x2="647.9966" y1="731.6005" y2="731.6005"/><line style="stroke:#000000;stroke-width:0.8703782405439865;" x1="647.9966" x2="647.9966" y1="731.6005" y2="742.9154"/><line style="stroke:#000000;stroke-width:0.8703782405439865;" x1="612.3111" x2="647.9966" y1="742.9154" y2="742.9154"/><polygon fill="#000000" points="621.0149,739.4339,612.3111,742.9154,621.0149,746.3969,617.5334,742.9154" style="stroke:#000000;stroke-width:0.8703782405439865;"/><text fill="#000000" font-family="sans-serif" font-size="14.7964" font-weight="bold" lengthAdjust="spacing" textLength="10.4445" x="617.5334" y="717.7582">9</text><text fill="#000000" font-family="sans-serif" font-size="14.7964" lengthAdjust="spacing" textLength="235.8725" x="631.4594" y="709.1462">Starte neuen Messenger-Service</text><text fill="#000000" font-family="sans-serif" font-size="14.7964" lengthAdjust="spacing" textLength="288.0952" x="631.4594" y="726.3702">f&#252;r die Organisation mit Matrix-Domain</text><polygon fill="#000000" points="1817.785,790.6026,1826.4887,794.0841,1817.785,797.5657,1821.2665,794.0841" style="stroke:#000000;stroke-width:0.8703782405439865;"/><line style="stroke:#000000;stroke-width:0.8703782405439865;stroke-dasharray:2.0,2.0;" x1="611.4407" x2="1823.0072" y1="794.0841" y2="794.0841"/><text fill="#000000" font-family="sans-serif" font-size="14.7964" font-weight="bold" lengthAdjust="spacing" textLength="20.8891" x="617.5334" y="788.8538">10</text><text fill="#000000" font-family="sans-serif" font-size="14.7964" lengthAdjust="spacing" textLength="203.6685" x="641.904" y="788.8538">Messenger-Service erstellen</text><rect fill="#EFEFFF" height="32.4488" rx="2.1759" ry="2.1759" style="stroke:#000000;stroke-width:0.43518912027199325;" width="174.946" x="1828.2295" y="771.6379"/><text fill="#000000" font-family="sans-serif" font-size="17.4076" lengthAdjust="spacing" textLength="162.7607" x="1834.3221" y="793.8887">Messenger-Service</text><line style="stroke:#000000;stroke-width:0.8703782405439865;" x1="1920.0544" x2="1956.6103" y1="875.0905" y2="875.0905"/><line style="stroke:#000000;stroke-width:0.8703782405439865;" x1="1956.6103" x2="1956.6103" y1="875.0905" y2="886.4054"/><line style="stroke:#000000;stroke-width:0.8703782405439865;" x1="1920.9248" x2="1956.6103" y1="886.4054" y2="886.4054"/><polygon fill="#000000" points="1929.6286,882.9239,1920.9248,886.4054,1929.6286,889.887,1926.147,886.4054" style="stroke:#000000;stroke-width:0.8703782405439865;"/><text fill="#000000" font-family="sans-serif" font-size="14.7964" font-weight="bold" lengthAdjust="spacing" textLength="20.8891" x="1926.147" y="861.2482">11</text><text fill="#000000" font-family="sans-serif" font-size="14.7964" lengthAdjust="spacing" textLength="41.7782" x="1950.5176" y="852.6362">initial</text><text fill="#000000" font-family="sans-serif" font-size="14.7964" lengthAdjust="spacing" textLength="73.9822" x="1950.5176" y="869.8602">einrichten</text><polygon fill="#000000" points="621.0149,912.3332,612.3111,915.8147,621.0149,919.2962,617.5334,915.8147" style="stroke:#000000;stroke-width:0.8703782405439865;"/><line style="stroke:#000000;stroke-width:0.8703782405439865;stroke-dasharray:2.0,2.0;" x1="615.7926" x2="1914.8321" y1="915.8147" y2="915.8147"/><text fill="#000000" font-family="sans-serif" font-size="14.7964" font-weight="bold" lengthAdjust="spacing" textLength="20.8891" x="1840.85" y="910.5844">12</text><text fill="#000000" font-family="sans-serif" font-size="14.7964" lengthAdjust="spacing" textLength="44.3893" x="1865.2206" y="910.5844">status</text><path d="M497.8564,1000.2414 L911.286,1000.2414 L911.286,1009.4892 L902.5822,1018.1929 L497.8564,1018.1929 L497.8564,1000.2414 " fill="#EEEEEE" style="stroke:#000000;stroke-width:1.3055673608159797;"/><rect fill="none" height="589.2801" style="stroke:#000000;stroke-width:1.3055673608159797;" width="1410.4479" x="497.8564" y="1000.2414"/><text fill="#000000" font-family="sans-serif" font-size="13.9261" font-weight="bold" lengthAdjust="spacing" textLength="374.2626" x="510.912" y="1014.0382">Messenger-Service in die F&#246;deration aufnehmen</text><polygon fill="#000000" points="1093.6303,1076.1411,1102.334,1079.6226,1093.6303,1083.1041,1097.1118,1079.6226" style="stroke:#000000;stroke-width:0.8703782405439865;"/><line style="stroke:#000000;stroke-width:0.8703782405439865;" x1="611.4407" x2="1098.8525" y1="1079.6226" y2="1079.6226"/><text fill="#000000" font-family="sans-serif" font-size="14.7964" font-weight="bold" lengthAdjust="spacing" textLength="20.8891" x="617.5334" y="1065.7803">13</text><text fill="#000000" font-family="sans-serif" font-size="14.7964" lengthAdjust="spacing" textLength="447.3744" x="641.904" y="1057.1683">POST /auth/realms/TI-Provider/protocol/openid-connect/token</text><text fill="#000000" font-family="sans-serif" font-size="14.7964" lengthAdjust="spacing" textLength="173.2053" x="641.904" y="1074.3923">(client_id, client_secret)</text><line style="stroke:#000000;stroke-width:0.8703782405439865;" x1="1112.7786" x2="1149.3345" y1="1126.2558" y2="1126.2558"/><line style="stroke:#000000;stroke-width:0.8703782405439865;" x1="1149.3345" x2="1149.3345" y1="1126.2558" y2="1137.5708"/><line style="stroke:#000000;stroke-width:0.8703782405439865;" x1="1113.649" x2="1149.3345" y1="1137.5708" y2="1137.5708"/><polygon fill="#000000" points="1122.3527,1134.0892,1113.649,1137.5708,1122.3527,1141.0523,1118.8712,1137.5708" style="stroke:#000000;stroke-width:0.8703782405439865;"/><text fill="#000000" font-family="sans-serif" font-size="14.7964" font-weight="bold" lengthAdjust="spacing" textLength="20.8891" x="1118.8712" y="1112.4135">14</text><text fill="#000000" font-family="sans-serif" font-size="14.7964" lengthAdjust="spacing" textLength="135.779" x="1143.2418" y="1103.8015">pr&#252;fe client_id und</text><text fill="#000000" font-family="sans-serif" font-size="14.7964" lengthAdjust="spacing" textLength="91.3897" x="1143.2418" y="1121.0255">client_secret</text><polygon fill="#000000" points="621.0149,1163.4985,612.3111,1166.98,621.0149,1170.4615,617.5334,1166.98" style="stroke:#000000;stroke-width:0.8703782405439865;"/><line style="stroke:#000000;stroke-width:0.8703782405439865;stroke-dasharray:2.0,2.0;" x1="615.7926" x2="1107.5563" y1="1166.98" y2="1166.98"/><text fill="#000000" font-family="sans-serif" font-size="14.7964" font-weight="bold" lengthAdjust="spacing" textLength="20.8891" x="909.9805" y="1161.7497">15</text><text fill="#000000" font-family="sans-serif" font-size="14.7964" lengthAdjust="spacing" textLength="167.983" x="934.351" y="1161.7497">ti-provider-accesstoken</text><polygon fill="#000000" points="1279.0208,1214.6672,1287.7246,1218.1487,1279.0208,1221.6303,1282.5023,1218.1487" style="stroke:#000000;stroke-width:0.8703782405439865;"/><line style="stroke:#000000;stroke-width:0.8703782405439865;" x1="611.4407" x2="1284.2431" y1="1218.1487" y2="1218.1487"/><text fill="#000000" font-family="sans-serif" font-size="14.7964" font-weight="bold" lengthAdjust="spacing" textLength="20.8891" x="617.5334" y="1212.9184">16</text><text fill="#000000" font-family="sans-serif" font-size="14.7964" lengthAdjust="spacing" textLength="393.411" x="641.904" y="1212.9184">GET /ti-provider-authenticate(ti-provider-accesstoken)</text><line style="stroke:#000000;stroke-width:0.8703782405439865;" x1="1298.1691" x2="1334.725" y1="1247.558" y2="1247.558"/><line style="stroke:#000000;stroke-width:0.8703782405439865;" x1="1334.725" x2="1334.725" y1="1247.558" y2="1258.8729"/><line style="stroke:#000000;stroke-width:0.8703782405439865;" x1="1299.0395" x2="1334.725" y1="1258.8729" y2="1258.8729"/><polygon fill="#000000" points="1307.7433,1255.3914,1299.0395,1258.8729,1307.7433,1262.3544,1304.2618,1258.8729" style="stroke:#000000;stroke-width:0.8703782405439865;"/><text fill="#000000" font-family="sans-serif" font-size="14.7964" font-weight="bold" lengthAdjust="spacing" textLength="20.8891" x="1304.2618" y="1242.3277">17</text><text fill="#000000" font-family="sans-serif" font-size="14.7964" lengthAdjust="spacing" textLength="210.6315" x="1328.6324" y="1242.3277">pr&#252;fe ti-provider-accesstoken</text><polygon fill="#000000" points="621.0149,1284.8007,612.3111,1288.2822,621.0149,1291.7637,617.5334,1288.2822" style="stroke:#000000;stroke-width:0.8703782405439865;"/><line style="stroke:#000000;stroke-width:0.8703782405439865;stroke-dasharray:2.0,2.0;" x1="615.7926" x2="1292.9469" y1="1288.2822" y2="1288.2822"/><text fill="#000000" font-family="sans-serif" font-size="14.7964" font-weight="bold" lengthAdjust="spacing" textLength="20.8891" x="1111.0378" y="1283.0518">18</text><text fill="#000000" font-family="sans-serif" font-size="14.7964" lengthAdjust="spacing" textLength="152.3162" x="1135.4084" y="1283.0518">provider-accesstoken</text><polygon fill="#000000" points="1534.912,1353.1934,1543.6158,1356.6749,1534.912,1360.1564,1538.3935,1356.6749" style="stroke:#000000;stroke-width:0.8703782405439865;"/><line style="stroke:#000000;stroke-width:0.8703782405439865;" x1="611.4407" x2="1540.1343" y1="1356.6749" y2="1356.6749"/><text fill="#000000" font-family="sans-serif" font-size="14.7964" font-weight="bold" lengthAdjust="spacing" textLength="20.8891" x="617.5334" y="1342.8326">19</text><text fill="#000000" font-family="sans-serif" font-size="14.7964" lengthAdjust="spacing" textLength="281.1322" x="641.904" y="1334.2206">POST /tim-provider-services/federation</text><text fill="#000000" font-family="sans-serif" font-size="14.7964" lengthAdjust="spacing" textLength="476.9673" x="641.904" y="1351.4445">(provider-accesstoken, Matrix-Domain, TelematikID, isEnsurance)</text><line style="stroke:#000000;stroke-width:0.8703782405439865;" x1="1554.0603" x2="1590.6162" y1="1403.3081" y2="1403.3081"/><line style="stroke:#000000;stroke-width:0.8703782405439865;" x1="1590.6162" x2="1590.6162" y1="1403.3081" y2="1414.623"/><line style="stroke:#000000;stroke-width:0.8703782405439865;" x1="1554.9307" x2="1590.6162" y1="1414.623" y2="1414.623"/><polygon fill="#000000" points="1563.6345,1411.1415,1554.9307,1414.623,1563.6345,1418.1045,1560.153,1414.623" style="stroke:#000000;stroke-width:0.8703782405439865;"/><text fill="#000000" font-family="sans-serif" font-size="14.7964" font-weight="bold" lengthAdjust="spacing" textLength="20.8891" x="1560.153" y="1389.4658">20</text><text fill="#000000" font-family="sans-serif" font-size="14.7964" lengthAdjust="spacing" textLength="38.2966" x="1584.5236" y="1380.8538">pr&#252;fe</text><text fill="#000000" font-family="sans-serif" font-size="14.7964" lengthAdjust="spacing" textLength="152.3162" x="1584.5236" y="1398.0778">provider-accesstoken</text><polygon fill="#000000" points="1732.4879,1440.5508,1741.1917,1444.0323,1732.4879,1447.5138,1735.9694,1444.0323" style="stroke:#000000;stroke-width:0.8703782405439865;"/><line style="stroke:#000000;stroke-width:0.8703782405439865;" x1="1554.0603" x2="1737.7102" y1="1444.0323" y2="1444.0323"/><text fill="#000000" font-family="sans-serif" font-size="14.7964" font-weight="bold" lengthAdjust="spacing" textLength="20.8891" x="1560.153" y="1438.802">21</text><text fill="#000000" font-family="sans-serif" font-size="14.7964" lengthAdjust="spacing" textLength="111.4084" x="1584.5236" y="1438.802">HTTPS Forward</text><line style="stroke:#000000;stroke-width:0.8703782405439865;stroke-dasharray:2.0,2.0;" x1="1751.6362" x2="1788.1921" y1="1490.6655" y2="1490.6655"/><line style="stroke:#000000;stroke-width:0.8703782405439865;stroke-dasharray:2.0,2.0;" x1="1788.1921" x2="1788.1921" y1="1490.6655" y2="1501.9805"/><line style="stroke:#000000;stroke-width:0.8703782405439865;stroke-dasharray:2.0,2.0;" x1="1752.5066" x2="1788.1921" y1="1501.9805" y2="1501.9805"/><polygon fill="#000000" points="1761.2104,1498.4989,1752.5066,1501.9805,1761.2104,1505.462,1757.7289,1501.9805" style="stroke:#000000;stroke-width:0.8703782405439865;"/><text fill="#000000" font-family="sans-serif" font-size="14.7964" font-weight="bold" lengthAdjust="spacing" textLength="20.8891" x="1757.7289" y="1476.8232">22</text><text fill="#000000" font-family="sans-serif" font-size="14.7964" lengthAdjust="spacing" textLength="115.7603" x="1782.0994" y="1468.2112">F&#246;derationsliste</text><text fill="#000000" font-family="sans-serif" font-size="14.7964" lengthAdjust="spacing" textLength="94.8712" x="1782.0994" y="1485.4352">aktualisieren</text><polygon fill="#000000" points="1563.6345,1527.9082,1554.9307,1531.3897,1563.6345,1534.8712,1560.153,1531.3897" style="stroke:#000000;stroke-width:0.8703782405439865;"/><line style="stroke:#000000;stroke-width:0.8703782405439865;stroke-dasharray:2.0,2.0;" x1="1558.4122" x2="1746.4139" y1="1531.3897" y2="1531.3897"/><text fill="#000000" font-family="sans-serif" font-size="14.7964" font-weight="bold" lengthAdjust="spacing" textLength="20.8891" x="1672.4318" y="1526.1594">23</text><text fill="#000000" font-family="sans-serif" font-size="14.7964" lengthAdjust="spacing" textLength="44.3893" x="1696.8024" y="1526.1594">status</text><polygon fill="#000000" points="621.0149,1557.3175,612.3111,1560.799,621.0149,1564.2805,617.5334,1560.799" style="stroke:#000000;stroke-width:0.8703782405439865;"/><line style="stroke:#000000;stroke-width:0.8703782405439865;stroke-dasharray:2.0,2.0;" x1="615.7926" x2="1548.8381" y1="1560.799" y2="1560.799"/><text fill="#000000" font-family="sans-serif" font-size="14.7964" font-weight="bold" lengthAdjust="spacing" textLength="20.8891" x="1407.8368" y="1555.5686">24</text><text fill="#000000" font-family="sans-serif" font-size="14.7964" lengthAdjust="spacing" textLength="111.4084" x="1432.2074" y="1555.5686">HTTPS Forward</text><polygon fill="#000000" points="357.2903,1636.3383,348.5865,1639.8198,357.2903,1643.3013,353.8088,1639.8198" style="stroke:#000000;stroke-width:0.8703782405439865;"/><line style="stroke:#000000;stroke-width:0.8703782405439865;" x1="352.068" x2="606.2184" y1="1639.8198" y2="1639.8198"/><text fill="#000000" font-family="sans-serif" font-size="14.7964" font-weight="bold" lengthAdjust="spacing" textLength="20.8891" x="532.2363" y="1634.5895">25</text><text fill="#000000" font-family="sans-serif" font-size="14.7964" lengthAdjust="spacing" textLength="44.3893" x="556.6069" y="1634.5895">status</text><polygon fill="#000000" points="110.9732,1682.9715,102.2694,1686.453,110.9732,1689.9346,107.4917,1686.453" style="stroke:#000000;stroke-width:0.8703782405439865;"/><line style="stroke:#000000;stroke-width:0.8703782405439865;" x1="105.751" x2="342.4938" y1="1686.453" y2="1686.453"/><text fill="#000000" font-family="sans-serif" font-size="14.7964" font-weight="bold" lengthAdjust="spacing" textLength="20.8891" x="173.6405" y="1672.6107">26</text><text fill="#000000" font-family="sans-serif" font-size="14.7964" lengthAdjust="spacing" textLength="134.9086" x="198.011" y="1663.9987">Messenger Service</text><text fill="#000000" font-family="sans-serif" font-size="14.7964" lengthAdjust="spacing" textLength="133.1679" x="198.011" y="1681.2227">erfolgreich erstellt</text></g></svg>