<?xml version="1.0" encoding="us-ascii" standalone="no"?><svg xmlns="http://www.w3.org/2000/svg" xmlns:xlink="http://www.w3.org/1999/xlink" contentStyleType="text/css" height="1672px" preserveAspectRatio="none" style="width:1823px;height:1672px;background:#FFFFFF;" version="1.1" viewBox="0 0 1823 1672" width="1823px" zoomAndPan="magnify"><defs/><g><rect fill="#F5F5F5" height="1660.0469" style="stroke:#181818;stroke-width:0.5;" width="222" x="16" y="6"/><text fill="#000000" font-family="sans-serif" font-size="18" font-weight="bold" lengthAdjust="spacing" textLength="193" x="30.5" y="22.708">Messenger-Service</text><text fill="#000000" font-family="sans-serif" font-size="13" font-weight="bold" lengthAdjust="spacing" textLength="185" x="30.5" y="39.02">des einladenden Akteurs</text><text fill="#000000" font-family="sans-serif" font-size="13" font-weight="bold" lengthAdjust="spacing" textLength="5" x="30.5" y="54.1528">&#160;</text><rect fill="#F5F5F5" height="1660.0469" style="stroke:#181818;stroke-width:0.5;" width="222" x="270" y="6"/><text fill="#000000" font-family="sans-serif" font-size="18" font-weight="bold" lengthAdjust="spacing" textLength="193" x="284" y="22.708">Messenger-Service</text><text fill="#000000" font-family="sans-serif" font-size="13" font-weight="bold" lengthAdjust="spacing" textLength="194" x="284" y="39.02">des eingeladenen Akteurs</text><text fill="#000000" font-family="sans-serif" font-size="13" font-weight="bold" lengthAdjust="spacing" textLength="5" x="284" y="54.1528">&#160;</text><rect fill="#F5F5F5" height="1660.0469" style="stroke:#181818;stroke-width:0.5;" width="435" x="599" y="6"/><text fill="#000000" font-family="sans-serif" font-size="18" font-weight="bold" lengthAdjust="spacing" textLength="429" x="602" y="22.708">Push-Gateway des eingeladenden Akteurs</text><text fill="#000000" font-family="sans-serif" font-size="13" font-weight="bold" lengthAdjust="spacing" textLength="5" x="602" y="39.02">&#160;</text><rect fill="#F5F5F5" height="1660.0469" style="stroke:#181818;stroke-width:0.5;" width="222" x="1066" y="6"/><text fill="#000000" font-family="sans-serif" font-size="18" font-weight="bold" lengthAdjust="spacing" textLength="176" x="1080" y="22.708">Messenger Client</text><text fill="#000000" font-family="sans-serif" font-size="13" font-weight="bold" lengthAdjust="spacing" textLength="194" x="1080" y="39.02">des eingeladenen Akteurs</text><text fill="#000000" font-family="sans-serif" font-size="13" font-weight="bold" lengthAdjust="spacing" textLength="5" x="1080" y="54.1528">&#160;</text><rect fill="#DCDCDC" height="1449.0469" style="stroke:#000000;stroke-width:1.0;" width="10" x="122" y="143.4375"/><rect fill="#DCDCDC" height="1449.0469" style="stroke:#000000;stroke-width:1.0;" width="10" x="376" y="143.4375"/><rect fill="#DCDCDC" height="67.5781" style="stroke:#000000;stroke-width:1.0;" width="10" x="811.5" y="948.8594"/><rect fill="#DCDCDC" height="609.8359" style="stroke:#000000;stroke-width:1.0;" width="10" x="1172" y="982.6484"/><rect fill="#FFE4E1" height="165.9141" style="stroke:#000000;stroke-width:1.5;" width="545" x="10" y="255.0625"/><rect fill="#87CEEB" height="367.8906" style="stroke:#000000;stroke-width:1.5;" width="756" x="254" y="548.1797"/><rect fill="#FFE4E1" height="136.1719" style="stroke:#000000;stroke-width:1.5;" width="691" x="264" y="622.7266"/><rect fill="#FFE4E1" height="136.1719" style="stroke:#000000;stroke-width:1.5;" width="736" x="264" y="772.8984"/><rect fill="#87CEEB" height="367.8906" style="stroke:#000000;stroke-width:1.5;" width="756" x="1050" y="1099.0156"/><rect fill="#FFE4E1" height="136.1719" style="stroke:#000000;stroke-width:1.5;" width="691" x="1060" y="1173.5625"/><rect fill="#FFE4E1" height="136.1719" style="stroke:#000000;stroke-width:1.5;" width="736" x="1060" y="1323.7344"/><line style="stroke:#000000;stroke-width:0.5;stroke-dasharray:5.0,5.0;" x1="127" x2="127" y1="107.6484" y2="1601.4844"/><line style="stroke:#000000;stroke-width:0.5;stroke-dasharray:5.0,5.0;" x1="381" x2="381" y1="107.6484" y2="1601.4844"/><line style="stroke:#000000;stroke-width:0.5;stroke-dasharray:5.0,5.0;" x1="816.5" x2="816.5" y1="107.6484" y2="1601.4844"/><line style="stroke:#000000;stroke-width:0.5;stroke-dasharray:5.0,5.0;" x1="1177" x2="1177" y1="107.6484" y2="1601.4844"/><rect fill="#EFEFFF" height="37.2813" rx="2.5" ry="2.5" style="stroke:#000000;stroke-width:0.5;" width="214" x="20" y="69.3672"/><text fill="#000000" font-family="sans-serif" font-size="20" lengthAdjust="spacing" textLength="187" x="33.5" y="94.9316">Messenger-Service</text><rect fill="#EFEFFF" height="37.2813" rx="2.5" ry="2.5" style="stroke:#000000;stroke-width:0.5;" width="214" x="20" y="1600.4844"/><text fill="#000000" font-family="sans-serif" font-size="20" lengthAdjust="spacing" textLength="187" x="33.5" y="1626.0488">Messenger-Service</text><rect fill="#EFEFFF" height="37.2813" rx="2.5" ry="2.5" style="stroke:#000000;stroke-width:0.5;" width="214" x="274" y="69.3672"/><text fill="#000000" font-family="sans-serif" font-size="20" lengthAdjust="spacing" textLength="187" x="287.5" y="94.9316">Messenger-Service</text><rect fill="#EFEFFF" height="37.2813" rx="2.5" ry="2.5" style="stroke:#000000;stroke-width:0.5;" width="214" x="274" y="1600.4844"/><text fill="#000000" font-family="sans-serif" font-size="20" lengthAdjust="spacing" textLength="187" x="287.5" y="1626.0488">Messenger-Service</text><rect fill="#EFEFFF" height="60.5625" rx="2.5" ry="2.5" style="stroke:#000000;stroke-width:0.5;" width="214" x="709.5" y="46.0859"/><text fill="#000000" font-family="sans-serif" font-size="20" lengthAdjust="spacing" textLength="55" x="789" y="71.6504">Push-</text><text fill="#000000" font-family="sans-serif" font-size="20" lengthAdjust="spacing" textLength="88" x="772.5" y="94.9316">Gateway</text><rect fill="#EFEFFF" height="60.5625" rx="2.5" ry="2.5" style="stroke:#000000;stroke-width:0.5;" width="214" x="709.5" y="1600.4844"/><text fill="#000000" font-family="sans-serif" font-size="20" lengthAdjust="spacing" textLength="55" x="789" y="1626.0488">Push-</text><text fill="#000000" font-family="sans-serif" font-size="20" lengthAdjust="spacing" textLength="88" x="772.5" y="1649.3301">Gateway</text><rect fill="#EFEFFF" height="37.2813" rx="2.5" ry="2.5" style="stroke:#000000;stroke-width:0.5;" width="214" x="1070" y="69.3672"/><text fill="#000000" font-family="sans-serif" font-size="20" lengthAdjust="spacing" textLength="173" x="1090.5" y="94.9316">Messenger-Client</text><rect fill="#EFEFFF" height="37.2813" rx="2.5" ry="2.5" style="stroke:#000000;stroke-width:0.5;" width="214" x="1070" y="1600.4844"/><text fill="#000000" font-family="sans-serif" font-size="20" lengthAdjust="spacing" textLength="173" x="1090.5" y="1626.0488">Messenger-Client</text><rect fill="#DCDCDC" height="1449.0469" style="stroke:#000000;stroke-width:1.0;" width="10" x="122" y="143.4375"/><rect fill="#DCDCDC" height="1449.0469" style="stroke:#000000;stroke-width:1.0;" width="10" x="376" y="143.4375"/><rect fill="#DCDCDC" height="67.5781" style="stroke:#000000;stroke-width:1.0;" width="10" x="811.5" y="948.8594"/><rect fill="#DCDCDC" height="609.8359" style="stroke:#000000;stroke-width:1.0;" width="10" x="1172" y="982.6484"/><polygon fill="#000000" points="364,139.4375,374,143.4375,364,147.4375,368,143.4375" style="stroke:#000000;stroke-width:1.0;"/><line style="stroke:#000000;stroke-width:1.0;" x1="132" x2="370" y1="143.4375" y2="143.4375"/><text fill="#000000" font-family="sans-serif" font-size="17" lengthAdjust="spacing" textLength="164" x="139" y="137.4282">Matrix-Invite-Event</text><rect fill="#EEEEEE" height="3" style="stroke:#EEEEEE;stroke-width:1.0;" width="1816" x="0" y="198.75"/><line style="stroke:#000000;stroke-width:1.0;" x1="0" x2="1816" y1="198.75" y2="198.75"/><line style="stroke:#000000;stroke-width:1.0;" x1="0" x2="1816" y1="201.75" y2="201.75"/><rect fill="#EEEEEE" height="26.625" style="stroke:#000000;stroke-width:2.0;" width="321" x="747.5" y="186.4375"/><text fill="#008000" font-family="sans-serif" font-size="16" font-weight="bold" lengthAdjust="spacing" textLength="285" x="765.5" y="205.2891">Berechtigungskonzept - Stufe 1</text><text fill="#000000" font-family="sans-serif" font-size="13" font-weight="bold" lengthAdjust="spacing" textLength="10" x="1050.5" y="205.9966">&#160;&#160;</text><path d="M10,255.0625 L98,255.0625 L98,262.1953 L88,272.1953 L10,272.1953 L10,255.0625 " fill="#EEEEEE" style="stroke:#000000;stroke-width:1.5;"/><rect fill="none" height="165.9141" style="stroke:#000000;stroke-width:1.5;" width="545" x="10" y="255.0625"/><text fill="#000000" font-family="sans-serif" font-size="13" font-weight="bold" lengthAdjust="spacing" textLength="43" x="25" y="268.1294">break</text><text fill="#000000" font-family="sans-serif" font-size="11" font-weight="bold" lengthAdjust="spacing" textLength="5" x="113" y="273.0933">[</text><text fill="#000000" font-family="sans-serif" font-size="16" font-weight="bold" lengthAdjust="spacing" textLength="427" x="118" y="271.9141">Matrix-Domain nicht in der F&#246;deration enthalten</text><text fill="#000000" font-family="sans-serif" font-size="11" font-weight="bold" lengthAdjust="spacing" textLength="5" x="545" y="273.0933">]</text><line style="stroke:#000000;stroke-width:1.0;" x1="386" x2="428" y1="341.1875" y2="341.1875"/><line style="stroke:#000000;stroke-width:1.0;" x1="428" x2="428" y1="341.1875" y2="354.1875"/><line style="stroke:#000000;stroke-width:1.0;" x1="387" x2="428" y1="354.1875" y2="354.1875"/><polygon fill="#000000" points="397,350.1875,387,354.1875,397,358.1875,393,354.1875" style="stroke:#000000;stroke-width:1.0;"/><text fill="#FF0000" font-family="sans-serif" font-size="17" lengthAdjust="spacing" textLength="73" x="393" y="295.6001">Abbruch,</text><text fill="#FF0000" font-family="sans-serif" font-size="17" lengthAdjust="spacing" textLength="138" x="393" y="315.3892">Verbindung wird</text><text fill="#FF0000" font-family="sans-serif" font-size="17" lengthAdjust="spacing" textLength="84" x="393" y="335.1782">abgelehnt</text><polygon fill="#000000" points="143,383.9766,133,387.9766,143,391.9766,139,387.9766" style="stroke:#000000;stroke-width:1.0;"/><line style="stroke:#000000;stroke-width:1.0;stroke-dasharray:2.0,2.0;" x1="137" x2="375" y1="387.9766" y2="387.9766"/><text fill="#000000" font-family="sans-serif" font-size="17" lengthAdjust="spacing" textLength="81" x="288" y="381.9673">HTTP 403</text><rect fill="#EEEEEE" height="3" style="stroke:#EEEEEE;stroke-width:1.0;" width="1816" x="0" y="450.2891"/><line style="stroke:#000000;stroke-width:1.0;" x1="0" x2="1816" y1="450.2891" y2="450.2891"/><line style="stroke:#000000;stroke-width:1.0;" x1="0" x2="1816" y1="453.2891" y2="453.2891"/><rect fill="#EEEEEE" height="26.625" style="stroke:#000000;stroke-width:2.0;" width="321" x="747.5" y="437.9766"/><text fill="#008000" font-family="sans-serif" font-size="16" font-weight="bold" lengthAdjust="spacing" textLength="285" x="765.5" y="456.8281">Berechtigungskonzept - Stufe 2</text><text fill="#000000" font-family="sans-serif" font-size="13" font-weight="bold" lengthAdjust="spacing" textLength="10" x="1050.5" y="457.5356">&#160;&#160;</text><line style="stroke:#000000;stroke-width:1.0;stroke-dasharray:2.0,2.0;" x1="386" x2="428" y1="520.1797" y2="520.1797"/><line style="stroke:#000000;stroke-width:1.0;stroke-dasharray:2.0,2.0;" x1="428" x2="428" y1="520.1797" y2="533.1797"/><line style="stroke:#000000;stroke-width:1.0;stroke-dasharray:2.0,2.0;" x1="387" x2="428" y1="533.1797" y2="533.1797"/><polygon fill="#000000" points="397,529.1797,387,533.1797,397,537.1797,393,533.1797" style="stroke:#000000;stroke-width:1.0;"/><text fill="#000000" font-family="sans-serif" font-size="17" lengthAdjust="spacing" textLength="104" x="393" y="494.3813">Invite-Event</text><text fill="#000000" font-family="sans-serif" font-size="17" lengthAdjust="spacing" textLength="97" x="393" y="514.1704">verarbeiten</text><path d="M254,548.1797 L324,548.1797 L324,555.3125 L314,565.3125 L254,565.3125 L254,548.1797 " fill="#EEEEEE" style="stroke:#000000;stroke-width:1.5;"/><rect fill="none" height="367.8906" style="stroke:#000000;stroke-width:1.5;" width="756" x="254" y="548.1797"/><text fill="#000000" font-family="sans-serif" font-size="13" font-weight="bold" lengthAdjust="spacing" textLength="25" x="269" y="561.2466">opt</text><text fill="#000000" font-family="sans-serif" font-size="11" font-weight="bold" lengthAdjust="spacing" textLength="5" x="339" y="566.2104">[</text><text fill="#000000" font-family="sans-serif" font-size="16" font-weight="bold" lengthAdjust="spacing" textLength="586" x="344" y="565.0313">Durchsetzen der akteursspezifischen Berechtigungskonfiguration</text><text fill="#000000" font-family="sans-serif" font-size="11" font-weight="bold" lengthAdjust="spacing" textLength="5" x="930" y="566.2104">]</text><line style="stroke:#000000;stroke-width:1.0;" x1="386" x2="428" y1="594.7266" y2="594.7266"/><line style="stroke:#000000;stroke-width:1.0;" x1="428" x2="428" y1="594.7266" y2="607.7266"/><line style="stroke:#000000;stroke-width:1.0;" x1="387" x2="428" y1="607.7266" y2="607.7266"/><polygon fill="#000000" points="397,603.7266,387,607.7266,397,611.7266,393,607.7266" style="stroke:#000000;stroke-width:1.0;"/><text fill="#000000" font-family="sans-serif" font-size="17" lengthAdjust="spacing" textLength="305" x="393" y="588.7173">Pr&#252;fung, ob die Einladung erlaubt ist</text><path d="M264,622.7266 L352,622.7266 L352,629.8594 L342,639.8594 L264,639.8594 L264,622.7266 " fill="#EEEEEE" style="stroke:#000000;stroke-width:1.5;"/><rect fill="none" height="136.1719" style="stroke:#000000;stroke-width:1.5;" width="691" x="264" y="622.7266"/><text fill="#000000" font-family="sans-serif" font-size="13" font-weight="bold" lengthAdjust="spacing" textLength="43" x="279" y="635.7935">break</text><text fill="#000000" font-family="sans-serif" font-size="11" font-weight="bold" lengthAdjust="spacing" textLength="5" x="367" y="640.7573">[</text><text fill="#000000" font-family="sans-serif" font-size="16" font-weight="bold" lengthAdjust="spacing" textLength="578" x="372" y="639.5781">Der Akteur hat "allow all" konfiguriert und der einladende Akteur</text><text fill="#000000" font-family="sans-serif" font-size="16" font-weight="bold" lengthAdjust="spacing" textLength="569" x="373" y="658.2031">ist auf der BlockedUser-Liste (Direkt oder als Teil einer Domain)</text><text fill="#000000" font-family="sans-serif" font-size="11" font-weight="bold" lengthAdjust="spacing" textLength="5" x="942" y="659.3823">]</text><line style="stroke:#000000;stroke-width:1.0;" x1="386" x2="428" y1="712.8984" y2="712.8984"/><line style="stroke:#000000;stroke-width:1.0;" x1="428" x2="428" y1="712.8984" y2="725.8984"/><line style="stroke:#000000;stroke-width:1.0;" x1="387" x2="428" y1="725.8984" y2="725.8984"/><polygon fill="#000000" points="397,721.8984,387,725.8984,397,729.8984,393,725.8984" style="stroke:#000000;stroke-width:1.0;"/><text fill="#FF0000" font-family="sans-serif" font-size="17" lengthAdjust="spacing" textLength="211" x="393" y="706.8892">Einladung ist abzulehnen</text><path d="M264,772.8984 L352,772.8984 L352,780.0313 L342,790.0313 L264,790.0313 L264,772.8984 " fill="#EEEEEE" style="stroke:#000000;stroke-width:1.5;"/><rect fill="none" height="136.1719" style="stroke:#000000;stroke-width:1.5;" width="736" x="264" y="772.8984"/><text fill="#000000" font-family="sans-serif" font-size="13" font-weight="bold" lengthAdjust="spacing" textLength="43" x="279" y="785.9653">break</text><text fill="#000000" font-family="sans-serif" font-size="11" font-weight="bold" lengthAdjust="spacing" textLength="5" x="367" y="790.9292">[</text><text fill="#000000" font-family="sans-serif" font-size="16" font-weight="bold" lengthAdjust="spacing" textLength="581" x="372" y="789.75">Der Akteur hat "block all" konfiguriert und der einladende Akteur</text><text fill="#000000" font-family="sans-serif" font-size="16" font-weight="bold" lengthAdjust="spacing" textLength="617" x="373" y="808.375">ist nicht auf der AllowedUser-Liste (Direkt oder als Teil einer Domain)</text><text fill="#000000" font-family="sans-serif" font-size="11" font-weight="bold" lengthAdjust="spacing" textLength="5" x="990" y="809.5542">]</text><line style="stroke:#000000;stroke-width:1.0;" x1="386" x2="428" y1="863.0703" y2="863.0703"/><line style="stroke:#000000;stroke-width:1.0;" x1="428" x2="428" y1="863.0703" y2="876.0703"/><line style="stroke:#000000;stroke-width:1.0;" x1="387" x2="428" y1="876.0703" y2="876.0703"/><polygon fill="#000000" points="397,872.0703,387,876.0703,397,880.0703,393,876.0703" style="stroke:#000000;stroke-width:1.0;"/><text fill="#FF0000" font-family="sans-serif" font-size="17" lengthAdjust="spacing" textLength="211" x="393" y="857.061">Einladung ist abzulehnen</text><polygon fill="#000000" points="799.5,944.8594,809.5,948.8594,799.5,952.8594,803.5,948.8594" style="stroke:#000000;stroke-width:1.0;"/><line style="stroke:#000000;stroke-width:1.0;" x1="386" x2="805.5" y1="948.8594" y2="948.8594"/><text fill="#000000" font-family="sans-serif" font-size="17" lengthAdjust="spacing" textLength="142" x="393" y="942.8501">Push Notification</text><polygon fill="#000000" points="1160,978.6484,1170,982.6484,1160,986.6484,1164,982.6484" style="stroke:#000000;stroke-width:1.0;"/><line style="stroke:#000000;stroke-width:1.0;" x1="821.5" x2="1166" y1="982.6484" y2="982.6484"/><text fill="#000000" font-family="sans-serif" font-size="17" lengthAdjust="spacing" textLength="142" x="828.5" y="976.6392">Push Notification</text><polygon fill="#000000" points="397,1012.4375,387,1016.4375,397,1020.4375,393,1016.4375" style="stroke:#000000;stroke-width:1.0;"/><line style="stroke:#000000;stroke-width:1.0;stroke-dasharray:2.0,2.0;" x1="391" x2="815.5" y1="1016.4375" y2="1016.4375"/><text fill="#000000" font-family="sans-serif" font-size="17" lengthAdjust="spacing" textLength="79" x="730.5" y="1010.4282">Response</text><polygon fill="#000000" points="397,1046.2266,387,1050.2266,397,1054.2266,393,1050.2266" style="stroke:#000000;stroke-width:1.0;"/><line style="stroke:#000000;stroke-width:1.0;" x1="391" x2="1171" y1="1050.2266" y2="1050.2266"/><text fill="#000000" font-family="sans-serif" font-size="17" lengthAdjust="spacing" textLength="180" x="985" y="1044.2173">Abfrage neuer Events</text><polygon fill="#000000" points="1160,1080.0156,1170,1084.0156,1160,1088.0156,1164,1084.0156" style="stroke:#000000;stroke-width:1.0;"/><line style="stroke:#000000;stroke-width:1.0;stroke-dasharray:2.0,2.0;" x1="386" x2="1166" y1="1084.0156" y2="1084.0156"/><text fill="#000000" font-family="sans-serif" font-size="17" lengthAdjust="spacing" textLength="234" x="393" y="1078.0063">Bereitstellung neuer Events</text><path d="M1050,1099.0156 L1120,1099.0156 L1120,1106.1484 L1110,1116.1484 L1050,1116.1484 L1050,1099.0156 " fill="#EEEEEE" style="stroke:#000000;stroke-width:1.5;"/><rect fill="none" height="367.8906" style="stroke:#000000;stroke-width:1.5;" width="756" x="1050" y="1099.0156"/><text fill="#000000" font-family="sans-serif" font-size="13" font-weight="bold" lengthAdjust="spacing" textLength="25" x="1065" y="1112.0825">opt</text><text fill="#000000" font-family="sans-serif" font-size="11" font-weight="bold" lengthAdjust="spacing" textLength="5" x="1135" y="1117.0464">[</text><text fill="#000000" font-family="sans-serif" font-size="16" font-weight="bold" lengthAdjust="spacing" textLength="586" x="1140" y="1115.8672">Durchsetzen der akteursspezifischen Berechtigungskonfiguration</text><text fill="#000000" font-family="sans-serif" font-size="11" font-weight="bold" lengthAdjust="spacing" textLength="5" x="1726" y="1117.0464">]</text><line style="stroke:#000000;stroke-width:1.0;" x1="1182" x2="1224" y1="1145.5625" y2="1145.5625"/><line style="stroke:#000000;stroke-width:1.0;" x1="1224" x2="1224" y1="1145.5625" y2="1158.5625"/><line style="stroke:#000000;stroke-width:1.0;" x1="1183" x2="1224" y1="1158.5625" y2="1158.5625"/><polygon fill="#000000" points="1193,1154.5625,1183,1158.5625,1193,1162.5625,1189,1158.5625" style="stroke:#000000;stroke-width:1.0;"/><text fill="#000000" font-family="sans-serif" font-size="17" lengthAdjust="spacing" textLength="305" x="1189" y="1139.5532">Pr&#252;fung, ob die Einladung erlaubt ist</text><path d="M1060,1173.5625 L1148,1173.5625 L1148,1180.6953 L1138,1190.6953 L1060,1190.6953 L1060,1173.5625 " fill="#EEEEEE" style="stroke:#000000;stroke-width:1.5;"/><rect fill="none" height="136.1719" style="stroke:#000000;stroke-width:1.5;" width="691" x="1060" y="1173.5625"/><text fill="#000000" font-family="sans-serif" font-size="13" font-weight="bold" lengthAdjust="spacing" textLength="43" x="1075" y="1186.6294">break</text><text fill="#000000" font-family="sans-serif" font-size="11" font-weight="bold" lengthAdjust="spacing" textLength="5" x="1163" y="1191.5933">[</text><text fill="#000000" font-family="sans-serif" font-size="16" font-weight="bold" lengthAdjust="spacing" textLength="578" x="1168" y="1190.4141">Der Akteur hat "allow all" konfiguriert und der einladende Akteur</text><text fill="#000000" font-family="sans-serif" font-size="16" font-weight="bold" lengthAdjust="spacing" textLength="569" x="1169" y="1209.0391">ist auf der BlockedUser-Liste (Direkt oder als Teil einer Domain)</text><text fill="#000000" font-family="sans-serif" font-size="11" font-weight="bold" lengthAdjust="spacing" textLength="5" x="1738" y="1210.2183">]</text><line style="stroke:#000000;stroke-width:1.0;" x1="1182" x2="1224" y1="1263.7344" y2="1263.7344"/><line style="stroke:#000000;stroke-width:1.0;" x1="1224" x2="1224" y1="1263.7344" y2="1276.7344"/><line style="stroke:#000000;stroke-width:1.0;" x1="1183" x2="1224" y1="1276.7344" y2="1276.7344"/><polygon fill="#000000" points="1193,1272.7344,1183,1276.7344,1193,1280.7344,1189,1276.7344" style="stroke:#000000;stroke-width:1.0;"/><text fill="#FF0000" font-family="sans-serif" font-size="17" lengthAdjust="spacing" textLength="211" x="1189" y="1257.7251">Einladung ist abzulehnen</text><path d="M1060,1323.7344 L1148,1323.7344 L1148,1330.8672 L1138,1340.8672 L1060,1340.8672 L1060,1323.7344 " fill="#EEEEEE" style="stroke:#000000;stroke-width:1.5;"/><rect fill="none" height="136.1719" style="stroke:#000000;stroke-width:1.5;" width="736" x="1060" y="1323.7344"/><text fill="#000000" font-family="sans-serif" font-size="13" font-weight="bold" lengthAdjust="spacing" textLength="43" x="1075" y="1336.8013">break</text><text fill="#000000" font-family="sans-serif" font-size="11" font-weight="bold" lengthAdjust="spacing" textLength="5" x="1163" y="1341.7651">[</text><text fill="#000000" font-family="sans-serif" font-size="16" font-weight="bold" lengthAdjust="spacing" textLength="581" x="1168" y="1340.5859">Der Akteur hat "block all" konfiguriert und der einladende Akteur</text><text fill="#000000" font-family="sans-serif" font-size="16" font-weight="bold" lengthAdjust="spacing" textLength="617" x="1169" y="1359.2109">ist nicht auf der AllowedUser-Liste (Direkt oder als Teil einer Domain)</text><text fill="#000000" font-family="sans-serif" font-size="11" font-weight="bold" lengthAdjust="spacing" textLength="5" x="1786" y="1360.3901">]</text><line style="stroke:#000000;stroke-width:1.0;" x1="1182" x2="1224" y1="1413.9063" y2="1413.9063"/><line style="stroke:#000000;stroke-width:1.0;" x1="1224" x2="1224" y1="1413.9063" y2="1426.9063"/><line style="stroke:#000000;stroke-width:1.0;" x1="1183" x2="1224" y1="1426.9063" y2="1426.9063"/><polygon fill="#000000" points="1193,1422.9063,1183,1426.9063,1193,1430.9063,1189,1426.9063" style="stroke:#000000;stroke-width:1.0;"/><text fill="#FF0000" font-family="sans-serif" font-size="17" lengthAdjust="spacing" textLength="211" x="1189" y="1407.897">Einladung ist abzulehnen</text><polygon fill="#000000" points="397,1520.6953,387,1524.6953,397,1528.6953,393,1524.6953" style="stroke:#000000;stroke-width:1.0;"/><line style="stroke:#000000;stroke-width:1.0;stroke-dasharray:2.0,2.0;" x1="391" x2="1171" y1="1524.6953" y2="1524.6953"/><text fill="#000000" font-family="sans-serif" font-size="17" lengthAdjust="spacing" textLength="163" x="1002" y="1518.686">Einladungsergebnis</text><polygon fill="#000000" points="143,1554.4844,133,1558.4844,143,1562.4844,139,1558.4844" style="stroke:#000000;stroke-width:1.0;"/><line style="stroke:#000000;stroke-width:1.0;stroke-dasharray:2.0,2.0;" x1="137" x2="375" y1="1558.4844" y2="1558.4844"/><text fill="#000000" font-family="sans-serif" font-size="17" lengthAdjust="spacing" textLength="163" x="206" y="1552.4751">Einladungsergebnis</text></g></svg>