<?xml version="1.0" encoding="us-ascii" standalone="no"?><svg xmlns="http://www.w3.org/2000/svg" xmlns:xlink="http://www.w3.org/1999/xlink" contentStyleType="text/css" height="1262px" preserveAspectRatio="none" style="width:1192px;height:1262px;background:#FFFFFF;" version="1.1" viewBox="0 0 1192 1262" width="1192px" zoomAndPan="magnify"><defs/><g><!--cluster Rolle--><g id="cluster_Rolle"><path d="M153,510 L231,510 A7.5,7.5 0 0 1 236,515 L250,554.5938 L285,554.5938 A5,5 0 0 1 290,559.5938 L290,727 A5,5 0 0 1 285,732 L153,732 A5,5 0 0 1 148,727 L148,515 A5,5 0 0 1 153,510 " fill="none" style="stroke:#000000;stroke-width:3.0;"/><line style="stroke:#000000;stroke-width:3.0;" x1="148" x2="250" y1="554.5938" y2="554.5938"/><text fill="#000000" font-family="sans-serif" font-size="28" font-weight="bold" lengthAdjust="spacing" textLength="76" x="156" y="539.9902">Rolle</text></g><!--cluster Anwendungsf?lle--><g id="cluster_Anwendungsf&#228;lle"><path d="M487,8 L763,8 A7.5,7.5 0 0 1 768,13 L782,52.5938 L1173,52.5938 A5,5 0 0 1 1178,57.5938 L1178,1243 A5,5 0 0 1 1173,1248 L487,1248 A5,5 0 0 1 482,1243 L482,13 A5,5 0 0 1 487,8 " fill="none" style="stroke:#000000;stroke-width:3.0;"/><line style="stroke:#000000;stroke-width:3.0;" x1="482" x2="782" y1="52.5938" y2="52.5938"/><text fill="#000000" font-family="sans-serif" font-size="28" font-weight="bold" lengthAdjust="spacing" textLength="274" x="490" y="37.9902">Anwendungsf&#228;lle</text></g><g id="elem_GMN17"><path d="M12,753 L12,803.2656 A0,0 0 0 0 12,803.2656 L426,803.2656 A0,0 0 0 0 426,803.2656 L426,773 L406,753 L227,753 L219,716.5764 L211,753 L12,753 A0,0 0 0 0 12,753 " fill="#FEFFDD" style="stroke:#181818;stroke-width:1.0;"/><path d="M406,753 L406,773 L426,773 L406,753 " fill="#FEFFDD" style="stroke:#181818;stroke-width:1.0;"/><text fill="#000000" font-family="sans-serif" font-size="26" lengthAdjust="spacing" textLength="372" x="24" y="787.1338">Akteur im Gesundheitswesen</text></g><!--entity u--><g id="elem_u"><ellipse cx="219" cy="597" fill="#DCDCDC" rx="32" ry="32" style="stroke:#000000;stroke-width:1.0;"/><path d="M219,637 C227,637 233,637 241,629 C257,629 273,645 273,661 L273,669 C273,677 265,685 257,685 L181,685 C173,685 165,677 165,669 L165,661 C165,645 181,629 197,629 C205,637 211,637 219,637 " fill="#DCDCDC" style="stroke:#000000;stroke-width:1.0;"/><text fill="#000000" font-family="Aapex" font-size="26" lengthAdjust="spacing" textLength="60" x="189" y="710.1338">User</text></g><g id="elem_UC1"><ellipse cx="829.7128" cy="138.1418" fill="#F1F1F1" rx="315.7128" ry="75.1418" style="stroke:#181818;stroke-width:1.0;"/><text fill="#000000" font-family="sans-serif" font-size="28" font-weight="bold" lengthAdjust="spacing" textLength="190" x="730.7128" y="111.2414">&#171;AF_10057&#187;</text><text fill="#000000" font-family="sans-serif" font-size="28" lengthAdjust="spacing" textLength="8" x="920.7128" y="111.2414">&#160;</text><text fill="#000000" font-family="sans-serif" font-size="28" lengthAdjust="spacing" textLength="406" x="622.7128" y="143.8351">Anmeldung eines Akteurs am</text><text fill="#000000" font-family="sans-serif" font-size="28" lengthAdjust="spacing" textLength="266" x="696.7128" y="176.4289">Messenger-Service</text></g><g id="elem_UC2"><ellipse cx="830.328" cy="324.1418" fill="#F0F8FF" rx="297.328" ry="75.1418" style="stroke:#181818;stroke-width:1.0;"/><text fill="#000000" font-family="sans-serif" font-size="28" font-weight="bold" lengthAdjust="spacing" textLength="190" x="731.328" y="297.2414">&#171;AF_10104&#187;</text><text fill="#000000" font-family="sans-serif" font-size="28" lengthAdjust="spacing" textLength="8" x="921.328" y="297.2414">&#160;</text><text fill="#000000" font-family="sans-serif" font-size="28" lengthAdjust="spacing" textLength="328" x="662.328" y="329.8351">Einladung von Akteuren</text><text fill="#000000" font-family="sans-serif" font-size="28" lengthAdjust="spacing" textLength="388" x="636.328" y="362.4289">innerhalb einer Organisation</text></g><g id="elem_UC3"><ellipse cx="830.328" cy="534.189" fill="#F0F8FF" rx="297.328" ry="98.189" style="stroke:#181818;stroke-width:1.0;"/><text fill="#000000" font-family="sans-serif" font-size="28" font-weight="bold" lengthAdjust="spacing" textLength="190" x="731.328" y="490.9918">&#171;AF_10063&#187;</text><text fill="#000000" font-family="sans-serif" font-size="28" lengthAdjust="spacing" textLength="8" x="921.328" y="490.9918">&#160;</text><text fill="#000000" font-family="sans-serif" font-size="28" lengthAdjust="spacing" textLength="306" x="673.328" y="523.5855">Austausch von Events</text><text fill="#000000" font-family="sans-serif" font-size="28" lengthAdjust="spacing" textLength="264" x="694.328" y="556.1793">zwischen Akteuren</text><text fill="#000000" font-family="sans-serif" font-size="28" lengthAdjust="spacing" textLength="388" x="636.328" y="588.773">innerhalb einer Organisation</text></g><g id="elem_UC4"><ellipse cx="830.3991" cy="744.1418" fill="#FFFFF0" rx="304.3991" ry="75.1418" style="stroke:#181818;stroke-width:1.0;"/><text fill="#000000" font-family="sans-serif" font-size="28" font-weight="bold" lengthAdjust="spacing" textLength="190" x="731.3991" y="717.2414">&#171;AF_10061&#187;</text><text fill="#000000" font-family="sans-serif" font-size="28" lengthAdjust="spacing" textLength="8" x="921.3991" y="717.2414">&#160;</text><text fill="#000000" font-family="sans-serif" font-size="28" lengthAdjust="spacing" textLength="328" x="662.3991" y="749.8351">Einladung von Akteuren</text><text fill="#000000" font-family="sans-serif" font-size="28" lengthAdjust="spacing" textLength="398" x="631.3991" y="782.4289">au&#223;erhalb einer Organisation</text></g><g id="elem_UC5"><ellipse cx="830.3991" cy="954.189" fill="#FFFFF0" rx="304.3991" ry="98.189" style="stroke:#181818;stroke-width:1.0;"/><text fill="#000000" font-family="sans-serif" font-size="28" font-weight="bold" lengthAdjust="spacing" textLength="190" x="731.3991" y="910.9918">&#171;AF_10062&#187;</text><text fill="#000000" font-family="sans-serif" font-size="28" lengthAdjust="spacing" textLength="8" x="921.3991" y="910.9918">&#160;</text><text fill="#000000" font-family="sans-serif" font-size="28" lengthAdjust="spacing" textLength="306" x="673.3991" y="943.5855">Austausch von Events</text><text fill="#000000" font-family="sans-serif" font-size="28" lengthAdjust="spacing" textLength="264" x="694.3991" y="976.1793">zwischen Akteuren</text><text fill="#000000" font-family="sans-serif" font-size="28" lengthAdjust="spacing" textLength="398" x="631.3991" y="1008.773">au&#223;erhalb einer Organisation</text></g><g id="elem_UC6"><ellipse cx="829.7036" cy="1160.1407" fill="#CD5C5C" rx="331.7036" ry="71.1407" style="stroke:#181818;stroke-width:1.0;"/><text fill="#000000" font-family="sans-serif" font-size="28" font-weight="bold" lengthAdjust="spacing" textLength="190" x="730.7036" y="1149.5372">&#171;AF_10235&#187;</text><text fill="#000000" font-family="sans-serif" font-size="28" lengthAdjust="spacing" textLength="8" x="920.7036" y="1149.5372">&#160;</text><text fill="#000000" font-family="sans-serif" font-size="28" lengthAdjust="spacing" textLength="540" x="559.7036" y="1182.1309">Eintr&#228;ge im VZD-FHIR-Directory suchen</text></g><polygon fill="#000000" points="513.58,209.682,493.9755,211.5956,504.8796,214.6119,501.8633,225.5161,513.58,209.682" style="stroke:#000000;stroke-width:2.0;"/><path d="M249.3703,563.4175 C287.779,470.4344 365.2316,315.4771 482,230 C492.031,222.6571 492.166,221.8159 503.1396,215.5979 " fill="none" style="stroke:#000000;stroke-width:2.0;"/><polygon fill="#000000" points="532.8742,394.4364,513.1855,393.8398,523.6172,398.2192,519.2379,408.6509,532.8742,394.4364" style="stroke:#000000;stroke-width:2.0;"/><path d="M274.6516,581.7147 C323.9821,531.4445 401.4836,460.436 482,418 C498.2447,409.4383 504.2317,406.1408 521.7658,398.9757 " fill="none" style="stroke:#000000;stroke-width:2.0;"/><polygon fill="#000000" points="532.7768,585.5546,513.6689,580.7704,522.9259,587.2749,516.4213,596.5318,532.7768,585.5546" style="stroke:#000000;stroke-width:2.0;"/><path d="M274.3352,630.6861 C333.4961,620.3549 421.9035,604.9164 520.9557,587.6189 " fill="none" style="stroke:#000000;stroke-width:2.0;"/><polygon fill="#000000" points="525.5099,692.173,509.1194,681.2482,515.6535,690.4843,506.4174,697.0184,525.5099,692.173" style="stroke:#000000;stroke-width:2.0;"/><path d="M274.3352,649.1382 C332.0496,659.0266 417.0204,673.585 513.6822,690.1465 " fill="none" style="stroke:#000000;stroke-width:2.0;"/><polygon fill="#000000" points="525.8912,867.1262,514.6068,850.9811,517.3273,861.9629,506.3456,864.6833,525.8912,867.1262" style="stroke:#000000;stroke-width:2.0;"/><path d="M274.3245,654.1447 C319.1691,668.2618 382.7138,693.7299 426,734 C463.8642,769.226 442.4016,802.7354 482,836 C495.6068,847.4303 500.0995,851.576 515.6145,860.9302 " fill="none" style="stroke:#000000;stroke-width:2.0;"/><polygon fill="#000000" points="501.419,1088.5654,492.7689,1070.8686,493.7573,1082.139,482.4868,1083.1273,501.419,1088.5654" style="stroke:#000000;stroke-width:2.0;"/><path d="M274.3312,649.8409 C321.7538,661.506 389.1274,685.7981 426,734 C517.9831,854.2456 379.8353,958.2759 482,1070 C488.0734,1076.6417 485.3748,1075.1081 492.2249,1080.8538 " fill="none" style="stroke:#000000;stroke-width:2.0;"/></g></svg>