<?xml version="1.0" encoding="us-ascii" standalone="no"?><svg xmlns="http://www.w3.org/2000/svg" xmlns:xlink="http://www.w3.org/1999/xlink" contentStyleType="text/css" height="1463px" preserveAspectRatio="none" style="width:1185px;height:1463px;background:#FFFFFF;" version="1.1" viewBox="0 0 1185 1463" width="1185px" zoomAndPan="magnify"><defs/><g><text fill="#000000" font-family="sans-serif" font-size="14" font-weight="bold" lengthAdjust="spacing" textLength="740" x="218.75" y="27.9951">Anpassung des Authenticators um die Kontrolle wieder zur&#252;ck zum TIM Client zu &#252;bergeben:</text><text fill="#000000" font-family="sans-serif" font-size="14" font-weight="bold" lengthAdjust="spacing" textLength="463" x="357.25" y="44.292">Auth-&#196;nderung ("RPC" Callback von Authenticator zu TIM")</text><rect fill="#F5F5F5" height="1397.7266" style="stroke:#181818;stroke-width:0.5;" width="352.5" x="255.5" y="59.5938"/><text fill="#000000" font-family="sans-serif" font-size="13" font-weight="bold" lengthAdjust="spacing" textLength="68" x="395.25" y="71.6606">Endger&#228;t</text><rect fill="#F5F5F5" height="1397.7266" style="stroke:#181818;stroke-width:0.5;" width="153" x="797" y="59.5938"/><text fill="#000000" font-family="sans-serif" font-size="13" font-weight="bold" lengthAdjust="spacing" textLength="142" x="800" y="71.6606">VZD-FHIR-Directory</text><rect fill="none" height="973.6953" style="stroke:#000000;stroke-width:1.5;" width="1158.5" x="10" y="324.0078"/><line style="stroke:#181818;stroke-width:0.5;stroke-dasharray:5.0,5.0;" x1="146" x2="146" y1="175.2109" y2="1357.8359"/><line style="stroke:#181818;stroke-width:0.5;stroke-dasharray:5.0,5.0;" x1="299.5" x2="299.5" y1="175.2109" y2="1357.8359"/><line style="stroke:#181818;stroke-width:0.5;stroke-dasharray:5.0,5.0;" x1="493" x2="493" y1="175.2109" y2="1357.8359"/><line style="stroke:#181818;stroke-width:0.5;stroke-dasharray:5.0,5.0;" x1="687" x2="687" y1="175.2109" y2="1357.8359"/><line style="stroke:#181818;stroke-width:0.5;stroke-dasharray:5.0,5.0;" x1="873.5" x2="873.5" y1="175.2109" y2="1357.8359"/><text fill="#000000" font-family="sans-serif" font-size="14" lengthAdjust="spacing" textLength="126" x="80" y="155.6123">Akteur in der Rolle</text><text fill="#000000" font-family="sans-serif" font-size="14" lengthAdjust="spacing" textLength="66" x="110" y="171.9092">User-HBA</text><ellipse cx="146" cy="91.1172" fill="#E2E2F0" rx="8" ry="8" style="stroke:#181818;stroke-width:0.5;"/><path d="M146,99.1172 L146,126.1172 M133,107.1172 L159,107.1172 M146,126.1172 L133,141.1172 M146,126.1172 L159,141.1172 " fill="none" style="stroke:#181818;stroke-width:0.5;"/><text fill="#000000" font-family="sans-serif" font-size="14" lengthAdjust="spacing" textLength="126" x="80" y="1369.8311">Akteur in der Rolle</text><text fill="#000000" font-family="sans-serif" font-size="14" lengthAdjust="spacing" textLength="66" x="110" y="1386.1279">User-HBA</text><ellipse cx="146" cy="1397.9297" fill="#E2E2F0" rx="8" ry="8" style="stroke:#181818;stroke-width:0.5;"/><path d="M146,1405.9297 L146,1432.9297 M133,1413.9297 L159,1413.9297 M146,1432.9297 L133,1447.9297 M146,1432.9297 L159,1447.9297 " fill="none" style="stroke:#181818;stroke-width:0.5;"/><rect fill="#E2E2F0" height="30.2969" rx="2.5" ry="2.5" style="stroke:#181818;stroke-width:0.5;" width="81" x="259.5" y="143.9141"/><text fill="#000000" font-family="sans-serif" font-size="14" lengthAdjust="spacing" textLength="67" x="266.5" y="163.9092">TIM Client</text><rect fill="#E2E2F0" height="30.2969" rx="2.5" ry="2.5" style="stroke:#181818;stroke-width:0.5;" width="81" x="259.5" y="1356.8359"/><text fill="#000000" font-family="sans-serif" font-size="14" lengthAdjust="spacing" textLength="67" x="266.5" y="1376.8311">TIM Client</text><rect fill="#E2E2F0" height="95.4844" rx="2.5" ry="2.5" style="stroke:#181818;stroke-width:0.5;" width="222" x="382" y="78.7266"/><text fill="#808080" font-family="sans-serif" font-size="14" lengthAdjust="spacing" textLength="156" x="413" y="98.7217">Authenticator App aka.</text><text fill="#808080" font-family="sans-serif" font-size="14" lengthAdjust="spacing" textLength="184" x="401" y="115.0186">gematik Authenticator aka.</text><text fill="#000000" font-family="sans-serif" font-size="14" lengthAdjust="spacing" textLength="93" x="446.5" y="131.3154">Authenticator</text><text fill="#000000" font-family="sans-serif" font-size="14" lengthAdjust="spacing" textLength="103" x="441.5" y="147.6123">des IDP-Dienst</text><text fill="#FF0000" font-family="sans-serif" font-size="14" lengthAdjust="spacing" textLength="208" x="389" y="163.9092">Erweiterung der Mock-Version</text><rect fill="#E2E2F0" height="95.4844" rx="2.5" ry="2.5" style="stroke:#181818;stroke-width:0.5;" width="222" x="382" y="1356.8359"/><text fill="#808080" font-family="sans-serif" font-size="14" lengthAdjust="spacing" textLength="156" x="413" y="1376.8311">Authenticator App aka.</text><text fill="#808080" font-family="sans-serif" font-size="14" lengthAdjust="spacing" textLength="184" x="401" y="1393.1279">gematik Authenticator aka.</text><text fill="#000000" font-family="sans-serif" font-size="14" lengthAdjust="spacing" textLength="93" x="446.5" y="1409.4248">Authenticator</text><text fill="#000000" font-family="sans-serif" font-size="14" lengthAdjust="spacing" textLength="103" x="441.5" y="1425.7217">des IDP-Dienst</text><text fill="#FF0000" font-family="sans-serif" font-size="14" lengthAdjust="spacing" textLength="208" x="389" y="1442.0186">Erweiterung der Mock-Version</text><rect fill="#E2E2F0" height="30.2969" rx="2.5" ry="2.5" style="stroke:#181818;stroke-width:0.5;" width="146" x="614" y="143.9141"/><text fill="#000000" font-family="sans-serif" font-size="14" lengthAdjust="spacing" textLength="132" x="621" y="163.9092">gematik IDP-Dienst</text><rect fill="#E2E2F0" height="30.2969" rx="2.5" ry="2.5" style="stroke:#181818;stroke-width:0.5;" width="146" x="614" y="1356.8359"/><text fill="#000000" font-family="sans-serif" font-size="14" lengthAdjust="spacing" textLength="132" x="621" y="1376.8311">gematik IDP-Dienst</text><rect fill="#E2E2F0" height="46.5938" rx="2.5" ry="2.5" style="stroke:#181818;stroke-width:0.5;" width="112" x="817.5" y="127.6172"/><text fill="#808080" font-family="sans-serif" font-size="14" lengthAdjust="spacing" textLength="98" x="824.5" y="147.6123">VZD Auth aka.</text><text fill="#000000" font-family="sans-serif" font-size="14" lengthAdjust="spacing" textLength="87" x="832" y="163.9092">Auth-Service</text><rect fill="#E2E2F0" height="46.5938" rx="2.5" ry="2.5" style="stroke:#181818;stroke-width:0.5;" width="112" x="817.5" y="1356.8359"/><text fill="#808080" font-family="sans-serif" font-size="14" lengthAdjust="spacing" textLength="98" x="824.5" y="1376.8311">VZD Auth aka.</text><text fill="#000000" font-family="sans-serif" font-size="14" lengthAdjust="spacing" textLength="87" x="832" y="1393.1279">Auth-Service</text><polygon fill="#181818" points="288,232.6094,298,236.6094,288,240.6094,292,236.6094" style="stroke:#181818;stroke-width:1.0;"/><line style="stroke:#181818;stroke-width:1.0;" x1="146" x2="294" y1="236.6094" y2="236.6094"/><text fill="#000000" font-family="sans-serif" font-size="13" lengthAdjust="spacing" textLength="126" x="153" y="201.2778">FHIR Ressourcen im</text><text fill="#000000" font-family="sans-serif" font-size="13" lengthAdjust="spacing" textLength="125" x="153" y="216.4106">VZD-FHIR-Directory</text><text fill="#000000" font-family="sans-serif" font-size="13" lengthAdjust="spacing" textLength="116" x="153" y="231.5435">hinzuf&#252;gen (MXID)</text><line style="stroke:#181818;stroke-width:1.0;" x1="300" x2="342" y1="296.0078" y2="296.0078"/><line style="stroke:#181818;stroke-width:1.0;" x1="342" x2="342" y1="296.0078" y2="309.0078"/><line style="stroke:#181818;stroke-width:1.0;" x1="301" x2="342" y1="309.0078" y2="309.0078"/><polygon fill="#181818" points="311,305.0078,301,309.0078,311,313.0078,307,309.0078" style="stroke:#181818;stroke-width:1.0;"/><text fill="#000000" font-family="sans-serif" font-size="13" lengthAdjust="spacing" textLength="127" x="307" y="260.6763">Pr&#252;fung, ob g&#252;ltiges</text><text fill="#000000" font-family="sans-serif" font-size="13" lengthAdjust="spacing" textLength="123" x="307" y="275.8091">owner-accesstoken</text><text fill="#000000" font-family="sans-serif" font-size="13" lengthAdjust="spacing" textLength="47" x="307" y="290.9419">vorliegt</text><path d="M10,324.0078 L74,324.0078 L74,331.1406 L64,341.1406 L10,341.1406 L10,324.0078 " fill="#D3D3D3" style="stroke:#000000;stroke-width:1.5;"/><rect fill="none" height="973.6953" style="stroke:#000000;stroke-width:1.5;" width="1158.5" x="10" y="324.0078"/><text fill="#000000" font-family="sans-serif" font-size="13" font-weight="bold" lengthAdjust="spacing" textLength="19" x="25" y="337.0747">alt</text><text fill="#000000" font-family="sans-serif" font-size="11" font-weight="bold" lengthAdjust="spacing" textLength="222" x="89" y="336.2183">[kein g&#252;ltiges owner-accesstoken]</text><polygon fill="#181818" points="861.5,383.2734,871.5,387.2734,861.5,391.2734,865.5,387.2734" style="stroke:#181818;stroke-width:1.0;"/><line style="stroke:#181818;stroke-width:1.0;" x1="300" x2="867.5" y1="387.2734" y2="387.2734"/><text fill="#000000" font-family="sans-serif" font-size="13" lengthAdjust="spacing" textLength="157" x="307" y="382.2075">GET /owner-authenticate</text><line style="stroke:#181818;stroke-width:1.0;" x1="873.5" x2="915.5" y1="423.4688" y2="423.4688"/><line style="stroke:#181818;stroke-width:1.0;" x1="915.5" x2="915.5" y1="423.4688" y2="436.4688"/><line style="stroke:#181818;stroke-width:1.0;" x1="874.5" x2="915.5" y1="436.4688" y2="436.4688"/><polygon fill="#181818" points="884.5,432.4688,874.5,436.4688,884.5,440.4688,880.5,436.4688" style="stroke:#181818;stroke-width:1.0;"/><text fill="#000000" font-family="sans-serif" font-size="13" lengthAdjust="spacing" textLength="89" x="880.5" y="418.4028">Erzeuge PKCE</text><path d="M981,400.2734 L981,446.2734 L1131,446.2734 L1131,410.2734 L1121,400.2734 L981,400.2734 " fill="#FEFFDD" style="stroke:#181818;stroke-width:0.5;"/><path d="M1121,400.2734 L1121,410.2734 L1131,410.2734 L1121,400.2734 " fill="#FEFFDD" style="stroke:#181818;stroke-width:0.5;"/><path d="M988.437,424.2318 C987.4393,424.2318 986.9995,423.507 987.4588,422.6214 L995.9137,406.3416 C996.3735,405.456 997.1259,405.456 997.5858,406.3416 L1006.0407,422.6219 C1006.5011,423.507 1006.0607,424.2318 1005.063,424.2318 L988.437,424.2318 " fill="#FFCC4D" style="stroke:;stroke-width:0.0;stroke-dasharray:;"/><path d="M995.4408,420.9563 C995.4408,420.2343 996.0285,419.6466 996.7511,419.6466 C997.4731,419.6466 998.0608,420.2343 998.0608,420.9563 C998.0608,421.6789 997.4726,422.2666 996.7511,422.2666 C996.0285,422.2666 995.4408,421.6789 995.4408,420.9563 M995.5415,411.0476 C995.5415,410.3424 996.0621,409.9058 996.7505,409.9058 C997.4228,409.9058 997.9601,410.3591 997.9601,411.0476 L997.9601,417.514 C997.9601,418.2025 997.4228,418.6559 996.7505,418.6559 C996.0621,418.6559 995.5415,418.2187 995.5415,417.514 L995.5415,411.0476 " fill="#231F20" style="stroke:;stroke-width:0.0;stroke-dasharray:;"/><text fill="#000000" font-family="sans-serif" font-size="13" lengthAdjust="spacing" textLength="110" x="1006.5" y="423.3325">vzd_code_verifier</text><text fill="#000000" font-family="sans-serif" font-size="13" lengthAdjust="spacing" textLength="128" x="987" y="438.4653">vzd_code_challenge</text><polygon fill="#181818" points="311,524.6289,301,528.6289,311,532.6289,307,528.6289" style="stroke:#181818;stroke-width:1.0;"/><line style="stroke:#181818;stroke-width:1.0;stroke-dasharray:2.0,2.0;" x1="305" x2="872.5" y1="528.6289" y2="528.6289"/><text fill="#000000" font-family="sans-serif" font-size="13" lengthAdjust="spacing" textLength="80" x="317" y="523.563">302 Redirect</text><path d="M878,456.5313 L878,587.5313 L1153,587.5313 L1153,466.5313 L1143,456.5313 L878,456.5313 " fill="#FEFFDD" style="stroke:#181818;stroke-width:0.5;"/><path d="M1143,456.5313 L1143,466.5313 L1153,466.5313 L1143,456.5313 " fill="#FEFFDD" style="stroke:#181818;stroke-width:0.5;"/><text fill="#000000" font-family="sans-serif" font-size="13" lengthAdjust="spacing" textLength="170" x="884" y="473.5981">Location: {auth_endpoint}</text><text fill="#000000" font-family="sans-serif" font-size="13" lengthAdjust="spacing" textLength="136" x="884" y="488.731">response_type=code</text><text fill="#000000" font-family="sans-serif" font-size="13" lengthAdjust="spacing" textLength="160" x="884" y="503.8638">client_id={vzd_client_id}</text><text fill="#000000" font-family="sans-serif" font-size="13" lengthAdjust="spacing" textLength="143" x="884" y="518.9966">scope=fhir-vzd openid</text><text fill="#000000" font-family="sans-serif" font-size="13" lengthAdjust="spacing" textLength="200" x="884" y="534.1294">redirect_uri={vzd_redirect_uri}</text><text fill="#000000" font-family="sans-serif" font-size="13" lengthAdjust="spacing" textLength="122" x="884" y="549.2622">state={vzd_state}</text><text fill="#000000" font-family="sans-serif" font-size="13" lengthAdjust="spacing" textLength="254" x="884" y="564.395">code_challenge={vzd_code_challenge}</text><text fill="#000000" font-family="sans-serif" font-size="13" lengthAdjust="spacing" textLength="200" x="884" y="579.5278">code_challenge_method=S256</text><polygon fill="#FF0000" points="481,736.7891,491,740.7891,481,744.7891,485,740.7891" style="stroke:#FF0000;stroke-width:1.0;"/><line style="stroke:#FF0000;stroke-width:1.0;" x1="300" x2="487" y1="740.7891" y2="740.7891"/><text fill="#000000" font-family="sans-serif" font-size="13" lengthAdjust="spacing" textLength="169" x="307" y="735.7231">Deeplink authenticator://...</text><path d="M20,597.5938 L20,743.5938 L295,743.5938 L295,607.5938 L285,597.5938 L20,597.5938 " fill="#FEFFDD" style="stroke:#181818;stroke-width:0.5;"/><path d="M285,597.5938 L285,607.5938 L295,607.5938 L285,597.5938 " fill="#FEFFDD" style="stroke:#181818;stroke-width:0.5;"/><text fill="#000000" font-family="sans-serif" font-size="13" lengthAdjust="spacing" textLength="211" x="26" y="614.6606">auth_endpoint={auth_endpoint}</text><text fill="#000000" font-family="sans-serif" font-size="13" lengthAdjust="spacing" textLength="136" x="26" y="629.7935">response_type=code</text><text fill="#000000" font-family="sans-serif" font-size="13" lengthAdjust="spacing" textLength="160" x="26" y="644.9263">client_id={vzd_client_id}</text><text fill="#000000" font-family="sans-serif" font-size="13" lengthAdjust="spacing" textLength="143" x="26" y="660.0591">scope=fhir-vzd openid</text><text fill="#000000" font-family="sans-serif" font-size="13" lengthAdjust="spacing" textLength="200" x="26" y="675.1919">redirect_uri={vzd_redirect_uri}</text><text fill="#000000" font-family="sans-serif" font-size="13" lengthAdjust="spacing" textLength="122" x="26" y="690.3247">state={vzd_state}</text><text fill="#000000" font-family="sans-serif" font-size="13" lengthAdjust="spacing" textLength="254" x="26" y="705.4575">code_challenge={vzd_code_challenge}</text><text fill="#000000" font-family="sans-serif" font-size="13" lengthAdjust="spacing" textLength="200" x="26" y="720.5903">code_challenge_method=S256</text><text fill="#FF0000" font-family="sans-serif" font-size="13" lengthAdjust="spacing" textLength="193" x="26" y="735.7231">callback={client_callback_uri}</text><path d="M498,620.293 L498,720.293 L820,720.293 L820,630.293 L810,620.293 L498,620.293 " fill="#FEFFDD" style="stroke:#181818;stroke-width:0.5;"/><path d="M810,620.293 L810,630.293 L820,630.293 L810,620.293 " fill="#FEFFDD" style="stroke:#181818;stroke-width:0.5;"/><text fill="#000000" font-family="sans-serif" font-size="13" lengthAdjust="spacing" textLength="268" x="504" y="637.3599">Liste der zul&#228;ssigen URLs (client_callback)</text><text fill="#000000" font-family="sans-serif" font-size="13" lengthAdjust="spacing" textLength="217" x="504" y="652.4927">wird nach Absprache mit Akquinet</text><text fill="#000000" font-family="sans-serif" font-size="13" lengthAdjust="spacing" textLength="226" x="504" y="667.6255">in Mock-Version des Authenticators</text><text fill="#000000" font-family="sans-serif" font-size="13" lengthAdjust="spacing" textLength="99" x="504" y="682.7583">fest verdrahtet.</text><text fill="#000000" font-family="sans-serif" font-size="13" lengthAdjust="spacing" textLength="301" x="504" y="697.8911">Anmerkung: Nicht http:// URL-Schemes werden</text><text fill="#000000" font-family="sans-serif" font-size="13" lengthAdjust="spacing" textLength="207" x="504" y="713.0239">ebenfalls unterst&#252;tzt (z.B. tim://)</text><polygon fill="#181818" points="675,814.3203,685,818.3203,675,822.3203,679,818.3203" style="stroke:#181818;stroke-width:1.0;"/><line style="stroke:#181818;stroke-width:1.0;" x1="493" x2="681" y1="818.3203" y2="818.3203"/><text fill="#000000" font-family="sans-serif" font-size="13" lengthAdjust="spacing" textLength="156" x="500" y="813.2544">GET {auth_endpoint}?...</text><path d="M185,753.7891 L185,868.7891 L488,868.7891 L488,763.7891 L478,753.7891 L185,753.7891 " fill="#FEFFDD" style="stroke:#181818;stroke-width:0.5;"/><path d="M478,753.7891 L478,763.7891 L488,763.7891 L478,753.7891 " fill="#FEFFDD" style="stroke:#181818;stroke-width:0.5;"/><text fill="#000000" font-family="sans-serif" font-size="13" lengthAdjust="spacing" textLength="136" x="191" y="770.856">response_type=code</text><text fill="#000000" font-family="sans-serif" font-size="13" lengthAdjust="spacing" textLength="160" x="191" y="785.9888">client_id={vzd_client_id}</text><text fill="#000000" font-family="sans-serif" font-size="13" lengthAdjust="spacing" textLength="143" x="191" y="801.1216">scope=fhir-vzd openid</text><text fill="#000000" font-family="sans-serif" font-size="13" lengthAdjust="spacing" textLength="200" x="191" y="816.2544">redirect_uri={vzd_redirect_uri}</text><text fill="#000000" font-family="sans-serif" font-size="13" lengthAdjust="spacing" textLength="150" x="191" y="831.3872">state={random_state}</text><text fill="#000000" font-family="sans-serif" font-size="13" lengthAdjust="spacing" textLength="282" x="191" y="846.52">code_challenge={random_code_challenge}</text><text fill="#000000" font-family="sans-serif" font-size="13" lengthAdjust="spacing" textLength="200" x="191" y="861.6528">code_challenge_method=S256</text><polygon fill="#181818" points="504,891.8516,494,895.8516,504,899.8516,500,895.8516" style="stroke:#181818;stroke-width:1.0;"/><line style="stroke:#181818;stroke-width:1.0;stroke-dasharray:2.0,2.0;" x1="498" x2="686" y1="895.8516" y2="895.8516"/><text fill="#000000" font-family="sans-serif" font-size="13" lengthAdjust="spacing" textLength="61" x="510" y="890.7856">challenge</text><line style="stroke:#181818;stroke-width:1.0;" x1="493" x2="535" y1="924.9844" y2="924.9844"/><line style="stroke:#181818;stroke-width:1.0;" x1="535" x2="535" y1="924.9844" y2="937.9844"/><line style="stroke:#181818;stroke-width:1.0;" x1="494" x2="535" y1="937.9844" y2="937.9844"/><polygon fill="#181818" points="504,933.9844,494,937.9844,504,941.9844,500,937.9844" style="stroke:#181818;stroke-width:1.0;"/><text fill="#000000" font-family="sans-serif" font-size="13" lengthAdjust="spacing" textLength="91" x="500" y="919.9185">sign challenge</text><polygon fill="#181818" points="675,963.1172,685,967.1172,675,971.1172,679,967.1172" style="stroke:#181818;stroke-width:1.0;"/><line style="stroke:#181818;stroke-width:1.0;" x1="493" x2="681" y1="967.1172" y2="967.1172"/><text fill="#000000" font-family="sans-serif" font-size="13" lengthAdjust="spacing" textLength="107" x="500" y="962.0513">signed challenge</text><polygon fill="#181818" points="504,1010.3828,494,1014.3828,504,1018.3828,500,1014.3828" style="stroke:#181818;stroke-width:1.0;"/><line style="stroke:#181818;stroke-width:1.0;stroke-dasharray:2.0,2.0;" x1="498" x2="686" y1="1014.3828" y2="1014.3828"/><text fill="#000000" font-family="sans-serif" font-size="13" lengthAdjust="spacing" textLength="80" x="510" y="1009.3169">302 Redirect</text><path d="M692,980.1172 L692,1035.1172 L892,1035.1172 L892,990.1172 L882,980.1172 L692,980.1172 " fill="#FEFFDD" style="stroke:#181818;stroke-width:0.5;"/><path d="M882,980.1172 L882,990.1172 L892,990.1172 L882,980.1172 " fill="#FEFFDD" style="stroke:#181818;stroke-width:0.5;"/><text fill="#000000" font-family="sans-serif" font-size="13" lengthAdjust="spacing" textLength="179" x="698" y="997.1841">Location: {vzd_redirect_uri}</text><text fill="#000000" font-family="sans-serif" font-size="13" lengthAdjust="spacing" textLength="125" x="698" y="1012.3169">code={auth_code}</text><text fill="#000000" font-family="sans-serif" font-size="13" lengthAdjust="spacing" textLength="122" x="698" y="1027.4497">state={vzd_state}</text><polygon fill="#FF0000" points="311,1068.2148,301,1072.2148,311,1076.2148,307,1072.2148" style="stroke:#FF0000;stroke-width:1.0;"/><line style="stroke:#FF0000;stroke-width:1.0;" x1="305" x2="492" y1="1072.2148" y2="1072.2148"/><text fill="#FF0000" font-family="sans-serif" font-size="13" lengthAdjust="spacing" textLength="150" x="317" y="1067.1489">{client_callback_uri}?...</text><path d="M498,1045.5156 L498,1085.5156 L644,1085.5156 L644,1055.5156 L634,1045.5156 L498,1045.5156 " fill="#FEFFDD" style="stroke:#181818;stroke-width:0.5;"/><path d="M634,1045.5156 L634,1055.5156 L644,1055.5156 L634,1045.5156 " fill="#FEFFDD" style="stroke:#181818;stroke-width:0.5;"/><text fill="#FF0000" font-family="sans-serif" font-size="13" lengthAdjust="spacing" textLength="125" x="504" y="1062.5825">code={auth_code}</text><text fill="#FF0000" font-family="sans-serif" font-size="13" lengthAdjust="spacing" textLength="122" x="504" y="1077.7153">state={vzd_state}</text><polygon fill="#FF0000" points="861.5,1118.4805,871.5,1122.4805,861.5,1126.4805,865.5,1122.4805" style="stroke:#FF0000;stroke-width:1.0;"/><line style="stroke:#FF0000;stroke-width:1.0;" x1="300" x2="867.5" y1="1122.4805" y2="1122.4805"/><text fill="#FF0000" font-family="sans-serif" font-size="13" lengthAdjust="spacing" textLength="146" x="307" y="1117.4146">GET {vzd_redirect_uri}</text><path d="M149,1095.7813 L149,1135.7813 L295,1135.7813 L295,1105.7813 L285,1095.7813 L149,1095.7813 " fill="#FEFFDD" style="stroke:#181818;stroke-width:0.5;"/><path d="M285,1095.7813 L285,1105.7813 L295,1105.7813 L285,1095.7813 " fill="#FEFFDD" style="stroke:#181818;stroke-width:0.5;"/><text fill="#FF0000" font-family="sans-serif" font-size="13" lengthAdjust="spacing" textLength="125" x="155" y="1112.8481">code={auth_code}</text><text fill="#FF0000" font-family="sans-serif" font-size="13" lengthAdjust="spacing" textLength="122" x="155" y="1127.981">state={vzd_state}</text><polygon fill="#181818" points="698,1171.7422,688,1175.7422,698,1179.7422,694,1175.7422" style="stroke:#181818;stroke-width:1.0;"/><line style="stroke:#181818;stroke-width:1.0;" x1="692" x2="872.5" y1="1175.7422" y2="1175.7422"/><text fill="#000000" font-family="sans-serif" font-size="13" lengthAdjust="spacing" textLength="146" x="704" y="1170.6763">get token inkl. H&#228;rtung</text><path d="M878,1146.0469 L878,1192.0469 L1028,1192.0469 L1028,1156.0469 L1018,1146.0469 L878,1146.0469 " fill="#FEFFDD" style="stroke:#181818;stroke-width:0.5;"/><path d="M1018,1146.0469 L1018,1156.0469 L1028,1156.0469 L1018,1146.0469 " fill="#FEFFDD" style="stroke:#181818;stroke-width:0.5;"/><path d="M885.437,1170.0052 C884.4393,1170.0052 883.9995,1169.2805 884.4588,1168.3948 L892.9137,1152.115 C893.3735,1151.2294 894.1259,1151.2294 894.5858,1152.115 L903.0407,1168.3954 C903.5011,1169.2805 903.0607,1170.0052 902.063,1170.0052 L885.437,1170.0052 " fill="#FFCC4D" style="stroke:;stroke-width:0.0;stroke-dasharray:;"/><path d="M892.4408,1166.7298 C892.4408,1166.0077 893.0285,1165.42 893.7511,1165.42 C894.4731,1165.42 895.0608,1166.0077 895.0608,1166.7298 C895.0608,1167.4523 894.4726,1168.04 893.7511,1168.04 C893.0285,1168.04 892.4408,1167.4523 892.4408,1166.7298 M892.5415,1156.821 C892.5415,1156.1158 893.0621,1155.6792 893.7505,1155.6792 C894.4228,1155.6792 894.9601,1156.1326 894.9601,1156.821 L894.9601,1163.2875 C894.9601,1163.9759 894.4228,1164.4293 893.7505,1164.4293 C893.0621,1164.4293 892.5415,1163.9922 892.5415,1163.2875 L892.5415,1156.821 " fill="#231F20" style="stroke:;stroke-width:0.0;stroke-dasharray:;"/><text fill="#000000" font-family="sans-serif" font-size="13" lengthAdjust="spacing" textLength="110" x="903.5" y="1169.106">vzd_code_verifier</text><text fill="#000000" font-family="sans-serif" font-size="13" lengthAdjust="spacing" textLength="67" x="884" y="1184.2388">auth_code</text><polygon fill="#181818" points="861.5,1214.4375,871.5,1218.4375,861.5,1222.4375,865.5,1218.4375" style="stroke:#181818;stroke-width:1.0;"/><line style="stroke:#181818;stroke-width:1.0;stroke-dasharray:2.0,2.0;" x1="687" x2="867.5" y1="1218.4375" y2="1218.4375"/><text fill="#000000" font-family="sans-serif" font-size="13" lengthAdjust="spacing" textLength="63" x="694" y="1213.3716">ID_TOKEN</text><line style="stroke:#181818;stroke-width:1.0;" x1="873.5" x2="915.5" y1="1247.5703" y2="1247.5703"/><line style="stroke:#181818;stroke-width:1.0;" x1="915.5" x2="915.5" y1="1247.5703" y2="1260.5703"/><line style="stroke:#181818;stroke-width:1.0;" x1="874.5" x2="915.5" y1="1260.5703" y2="1260.5703"/><polygon fill="#181818" points="884.5,1256.5703,874.5,1260.5703,884.5,1264.5703,880.5,1260.5703" style="stroke:#181818;stroke-width:1.0;"/><text fill="#000000" font-family="sans-serif" font-size="13" lengthAdjust="spacing" textLength="188" x="880.5" y="1242.5044">erzeuge owner_access_token</text><polygon fill="#181818" points="311,1285.7031,301,1289.7031,311,1293.7031,307,1289.7031" style="stroke:#181818;stroke-width:1.0;"/><line style="stroke:#181818;stroke-width:1.0;stroke-dasharray:2.0,2.0;" x1="305" x2="872.5" y1="1289.7031" y2="1289.7031"/><text fill="#000000" font-family="sans-serif" font-size="13" lengthAdjust="spacing" textLength="132" x="317" y="1284.6372">owner_access_token</text><rect fill="#EEEEEE" height="3" style="stroke:#EEEEEE;stroke-width:1.0;" width="1178.5" x="0" y="1325.2695"/><line style="stroke:#000000;stroke-width:1.0;" x1="0" x2="1178.5" y1="1325.2695" y2="1325.2695"/><line style="stroke:#000000;stroke-width:1.0;" x1="0" x2="1178.5" y1="1328.2695" y2="1328.2695"/><rect fill="#EEEEEE" height="23.1328" style="stroke:#000000;stroke-width:2.0;" width="157" x="510.75" y="1314.7031"/><text fill="#000000" font-family="sans-serif" font-size="13" font-weight="bold" lengthAdjust="spacing" textLength="138" x="516.75" y="1330.77">...fachlicher flow...</text><!--SRC=[tLNTRgD65BxdAOwScqGgJhLLUs4PLzxOtLX9TYCdcrQjAuJX02DWXWw3tJZ9NHybZ-4xlrZF037WdzMgbNhHAvYPy_ETx_mffcA4pf2dJfRbF00FCnZcAaIkcEie8JF84_0OmfNWIegOn9SCFPImokLcxKRqJU1-SWCNCICjEi9cFKSPu1nvRyQrDNFp5oSLxU2qCxszwC254yTpXxGNWhSTQWDahdFMCHnNdpzdvCp926MaC9V0E6ZtKurbnlMhUVb-s37cuayOSoz0kNbLSF9po1JU9I928tKa6MUfG_3kML81rIPht9sML1kHbkpx53-u8XRI2gJpE6YB3DCKdCZfmeplIGQOE8f5kqP9UhOR-uph14n6j-Q8G6MgRKsYDnZB9L9WiaoMX1lXHkO3oem9tZ6GUq0yj6BflFclpNPqI1ClBKy5Sm-_ZioVBYTJaf2eUNyyIk4-5wHS1584rJ_NpuCgDlCEvOAvMBXyM7dwRWkpIDvWcv8UQ0GmnImJkNIH0qk8aWFGPZnaV9NxctL0KgStlqn6PyRMJilaBLMfJsnz0s8EmMOTAnOGnpCkbfoyEwvBxXJ5oEbk8IIf1SfmOdLopO9GVP3u215IqTMwUvh6y_DpxHxCmLkaFVWmleVpIg5EDHgLG4jsB5UO1mYtLnTZWmk583K4ezzREf8p7lG6YvLdky93Uu6I-GobiRrnG-efv04Mz6hr1gI-QTP-llls7P7i5Mms_LmBWaPrr8CdZTKcEwbWNBqO4hDKy0njzPYYfTqPRc7OPfxrL41uExuOcIj8o0-PDEa5wC2PHoPAXtOkMQdIl24jHRIK3yNlYz6EgdBJkjkLiHDKeV2iktVV_t281VEt4tBw-w3TTJqO8QOnun4uhVlpyswtMn8Keqz5qIJ5-Zzmr2-QkAS7YrjDPEkfWlbsKRhUijci5vRHVxaBuirhbZ7TZP-drncSxXWvCvPCaWN73M4upr99FmW9er4R_P4pZigW5ciEimEhoF0nKq2LxqadLAYwnf0dA2FgxXvyP6we85GgfRnf4EOTkKZ8o98Kg4VrFl893cqqJWCqKvkrMYauNNNVTq6nXDJEwZ3RSvcwT3ikovxUoVwFxKhvxsf1EjmJoR5og5x_ITUq2T3pey50FMlsUDffBQe9_YNnXb4jYjvHuHq8Np74zadJWLUDgtyFTTIn2dWR7OtLqkYUWqrJ5qKrnnlTjWkayVO5J0T6sNQgDomK1ReVVLsV_nv9OtyraXAWWdANqZIDkt2vUPMAslEhjzaMnxwddVnFHlRzfwlnnuER5AjDMYnUkzpKThcgZ-p40vA4mB0ie2JwDArYcYyqwVnOBEa6BEjl]--></g></svg>