<?xml version="1.0" encoding="us-ascii" standalone="no"?><svg xmlns="http://www.w3.org/2000/svg" xmlns:xlink="http://www.w3.org/1999/xlink" contentStyleType="text/css" height="1268px" preserveAspectRatio="none" style="width:1224px;height:1268px;background:#FFFFFF;" version="1.1" viewBox="0 0 1224 1268" width="1224px" zoomAndPan="magnify"><defs/><g><!--cluster Rolle--><g id="cluster_Rolle"><path d="M135,486 L213,486 A7.5,7.5 0 0 1 218,491 L232,530.5938 L367,530.5938 A5,5 0 0 1 372,535.5938 L372,703 A5,5 0 0 1 367,708 L135,708 A5,5 0 0 1 130,703 L130,491 A5,5 0 0 1 135,486 " fill="none" style="stroke:#000000;stroke-width:3.0;"/><line style="stroke:#000000;stroke-width:3.0;" x1="130" x2="232" y1="530.5938" y2="530.5938"/><text fill="#000000" font-family="sans-serif" font-size="28" font-weight="bold" lengthAdjust="spacing" textLength="76" x="138" y="515.9902">Rolle</text></g><!--cluster Anwendungsf?lle--><g id="cluster_Anwendungsf&#228;lle"><path d="M551,8 L827,8 A7.5,7.5 0 0 1 832,13 L846,52.5938 L1205,52.5938 A5,5 0 0 1 1210,57.5938 L1210,1249 A5,5 0 0 1 1205,1254 L551,1254 A5,5 0 0 1 546,1249 L546,13 A5,5 0 0 1 551,8 " fill="none" style="stroke:#000000;stroke-width:3.0;"/><line style="stroke:#000000;stroke-width:3.0;" x1="546" x2="846" y1="52.5938" y2="52.5938"/><text fill="#000000" font-family="sans-serif" font-size="28" font-weight="bold" lengthAdjust="spacing" textLength="274" x="554" y="37.9902">Anwendungsf&#228;lle</text></g><g id="elem_GMN17"><path d="M12,728 L12,808.5313 A0,0 0 0 0 12,808.5313 L490,808.5313 A0,0 0 0 0 490,808.5313 L490,748 L470,728 L259,728 L251,692.7422 L243,728 L12,728 A0,0 0 0 0 12,728 " fill="#FEFFDD" style="stroke:#181818;stroke-width:1.0;"/><path d="M470,728 L470,748 L490,748 L470,728 " fill="#FEFFDD" style="stroke:#181818;stroke-width:1.0;"/><text fill="#000000" font-family="sans-serif" font-size="26" lengthAdjust="spacing" textLength="428" x="24" y="762.1338">z. B. Leistungserbringer im Besitz</text><text fill="#000000" font-family="sans-serif" font-size="26" lengthAdjust="spacing" textLength="146" x="24" y="792.3994">eines HBAs</text></g><!--entity uuh--><g id="elem_uuh"><ellipse cx="251" cy="573" fill="#DCDCDC" rx="32" ry="32" style="stroke:#000000;stroke-width:1.0;"/><path d="M251,613 C259,613 265,613 273,605 C289,605 305,621 305,637 L305,645 C305,653 297,661 289,661 L213,661 C205,661 197,653 197,645 L197,637 C197,621 213,605 229,605 C237,613 243,613 251,613 " fill="#DCDCDC" style="stroke:#000000;stroke-width:1.0;"/><text fill="#000000" font-family="Aapex" font-size="26" lengthAdjust="spacing" textLength="210" x="146" y="686.1338">User / User-HBA</text></g><g id="elem_UC1"><ellipse cx="877.7128" cy="138.1418" fill="#F1F1F1" rx="315.7128" ry="75.1418" style="stroke:#181818;stroke-width:1.0;"/><text fill="#000000" font-family="sans-serif" font-size="28" font-weight="bold" lengthAdjust="spacing" textLength="190" x="778.7128" y="111.2414">&#171;AF_10057&#187;</text><text fill="#000000" font-family="sans-serif" font-size="28" lengthAdjust="spacing" textLength="8" x="968.7128" y="111.2414">&#160;</text><text fill="#000000" font-family="sans-serif" font-size="28" lengthAdjust="spacing" textLength="406" x="670.7128" y="143.8351">Anmeldung eines Akteurs am</text><text fill="#000000" font-family="sans-serif" font-size="28" lengthAdjust="spacing" textLength="266" x="744.7128" y="176.4289">Messenger-Service</text></g><g id="elem_UC2"><ellipse cx="877.8843" cy="324.1418" fill="#F1F1F1" rx="312.8843" ry="75.1418" style="stroke:#181818;stroke-width:1.0;"/><text fill="#000000" font-family="sans-serif" font-size="28" font-weight="bold" lengthAdjust="spacing" textLength="190" x="778.8843" y="297.2414">&#171;AF_10058&#187;</text><text fill="#000000" font-family="sans-serif" font-size="28" lengthAdjust="spacing" textLength="8" x="968.8843" y="297.2414">&#160;</text><text fill="#000000" font-family="sans-serif" font-size="28" lengthAdjust="spacing" textLength="290" x="728.8843" y="329.8351">Akteur (User-HBA) im</text><text fill="#000000" font-family="sans-serif" font-size="28" lengthAdjust="spacing" textLength="410" x="672.8843" y="362.4289">Verzeichnisdienst hinzuf&#252;gen</text></g><g id="elem_UC3"><ellipse cx="878.328" cy="510.1418" fill="#F0F8FF" rx="297.328" ry="75.1418" style="stroke:#181818;stroke-width:1.0;"/><text fill="#000000" font-family="sans-serif" font-size="28" font-weight="bold" lengthAdjust="spacing" textLength="190" x="779.328" y="483.2414">&#171;AF_10104&#187;</text><text fill="#000000" font-family="sans-serif" font-size="28" lengthAdjust="spacing" textLength="8" x="969.328" y="483.2414">&#160;</text><text fill="#000000" font-family="sans-serif" font-size="28" lengthAdjust="spacing" textLength="328" x="710.328" y="515.8351">Einladung von Akteuren</text><text fill="#000000" font-family="sans-serif" font-size="28" lengthAdjust="spacing" textLength="388" x="684.328" y="548.4289">innerhalb einer Organisation</text></g><g id="elem_UC4"><ellipse cx="878.328" cy="720.189" fill="#F0F8FF" rx="297.328" ry="98.189" style="stroke:#181818;stroke-width:1.0;"/><text fill="#000000" font-family="sans-serif" font-size="28" font-weight="bold" lengthAdjust="spacing" textLength="190" x="779.328" y="676.9918">&#171;AF_10063&#187;</text><text fill="#000000" font-family="sans-serif" font-size="28" lengthAdjust="spacing" textLength="8" x="969.328" y="676.9918">&#160;</text><text fill="#000000" font-family="sans-serif" font-size="28" lengthAdjust="spacing" textLength="306" x="721.328" y="709.5855">Austausch von Events</text><text fill="#000000" font-family="sans-serif" font-size="28" lengthAdjust="spacing" textLength="264" x="742.328" y="742.1793">zwischen Akteuren</text><text fill="#000000" font-family="sans-serif" font-size="28" lengthAdjust="spacing" textLength="388" x="684.328" y="774.773">innerhalb einer Organisation</text></g><g id="elem_UC5"><ellipse cx="878.3991" cy="930.1418" fill="#FFFFF0" rx="304.3991" ry="75.1418" style="stroke:#181818;stroke-width:1.0;"/><text fill="#000000" font-family="sans-serif" font-size="28" font-weight="bold" lengthAdjust="spacing" textLength="190" x="779.3991" y="903.2414">&#171;AF_10061&#187;</text><text fill="#000000" font-family="sans-serif" font-size="28" lengthAdjust="spacing" textLength="8" x="969.3991" y="903.2414">&#160;</text><text fill="#000000" font-family="sans-serif" font-size="28" lengthAdjust="spacing" textLength="328" x="710.3991" y="935.8351">Einladung von Akteuren</text><text fill="#000000" font-family="sans-serif" font-size="28" lengthAdjust="spacing" textLength="398" x="679.3991" y="968.4289">au&#223;erhalb einer Organisation</text></g><g id="elem_UC6"><ellipse cx="878.3991" cy="1140.189" fill="#FFFFF0" rx="304.3991" ry="98.189" style="stroke:#181818;stroke-width:1.0;"/><text fill="#000000" font-family="sans-serif" font-size="28" font-weight="bold" lengthAdjust="spacing" textLength="190" x="779.3991" y="1096.9918">&#171;AF_10062&#187;</text><text fill="#000000" font-family="sans-serif" font-size="28" lengthAdjust="spacing" textLength="8" x="969.3991" y="1096.9918">&#160;</text><text fill="#000000" font-family="sans-serif" font-size="28" lengthAdjust="spacing" textLength="306" x="721.3991" y="1129.5855">Austausch von Events</text><text fill="#000000" font-family="sans-serif" font-size="28" lengthAdjust="spacing" textLength="264" x="742.3991" y="1162.1793">zwischen Akteuren</text><text fill="#000000" font-family="sans-serif" font-size="28" lengthAdjust="spacing" textLength="398" x="679.3991" y="1194.773">au&#223;erhalb einer Organisation</text></g><polygon fill="#000000" points="573.6275,213.1009,554.0026,214.793,564.8721,217.9323,561.7328,228.8017,573.6275,213.1009" style="stroke:#000000;stroke-width:2.0;"/><path d="M291.1909,539.4617 C338.9003,451.6823 428.7331,309.6599 546,230 C554.8557,223.9843 553.5911,224.1573 563.121,218.8986 " fill="none" style="stroke:#000000;stroke-width:2.0;"/><polygon fill="#000000" points="585.1908,399.2286,565.5106,398.3988,575.8897,402.9015,571.3871,413.2806,585.1908,399.2286" style="stroke:#000000;stroke-width:2.0;"/><path d="M347.1926,539.9598 C402.4163,498.4709 475.0803,448.9914 546,416 C558.6728,410.1047 560.6385,408.9239 574.0295,403.636 " fill="none" style="stroke:#000000;stroke-width:2.0;"/><polygon fill="#000000" points="580.5666,560.2664,561.4798,555.3989,570.7083,561.9437,564.1635,571.1722,580.5666,560.2664" style="stroke:#000000;stroke-width:2.0;"/><path d="M356.5751,598.3773 C418.3363,587.8689 488.337,575.9587 568.7366,562.2792 " fill="none" style="stroke:#000000;stroke-width:2.0;"/><polygon fill="#000000" points="580.5666,670.6821,564.1295,659.8275,570.7031,669.0355,561.495,675.6091,580.5666,670.6821" style="stroke:#000000;stroke-width:2.0;"/><path d="M356.5751,633.2902 C418.3363,643.6003 488.3308,655.2848 568.7304,668.7062 " fill="none" style="stroke:#000000;stroke-width:2.0;"/><polygon fill="#000000" points="573.9097,857.0533,563.2641,840.4801,565.5539,851.5597,554.4743,853.8495,573.9097,857.0533" style="stroke:#000000;stroke-width:2.0;"/><path d="M356.0743,638.0501 C401.7267,652.1947 453.2819,674.7443 490,710 C534.2041,752.4435 499.728,795.821 546,836 C554.7711,843.6161 554.0937,844.0251 563.8827,850.461 " fill="none" style="stroke:#000000;stroke-width:2.0;"/><polygon fill="#000000" points="573.8683,1049.49,565.1476,1031.8279,566.181,1043.0943,554.9145,1044.1277,573.8683,1049.49" style="stroke:#000000;stroke-width:2.0;"/><path d="M356.5365,633.246 C404.0016,646.4335 456.9383,669.5641 490,710 C579.1762,819.0665 454.9727,914.4736 546,1022 C554.4522,1031.9842 554.5876,1033.449 564.6435,1041.8152 " fill="none" style="stroke:#000000;stroke-width:2.0;"/></g></svg>